<svg xmlns="http://www.w3.org/2000/svg" xmlns:xlink="http://www.w3.org/1999/xlink" width="16" height="16" viewBox="0 0 16 16">
  <defs>
    <clipPath id="clip-Custom_Size_1">
      <rect width="16" height="16"/>
    </clipPath>
  </defs>
  <g id="Custom_Size_1" data-name="Custom Size – 1" clip-path="url(#clip-Custom_Size_1)">
    <rect width="16" height="16" fill="#fff"/>
    <path id="Icon_zocial-dribbble" data-name="Icon zocial-dribbble" d="M0,8A7.837,7.837,0,0,1,1.072,3.984,7.943,7.943,0,0,1,3.984,1.072,7.837,7.837,0,0,1,8,0a7.837,7.837,0,0,1,4.016,1.072,7.943,7.943,0,0,1,2.912,2.912A7.837,7.837,0,0,1,16,8a7.837,7.837,0,0,1-1.072,4.016,7.943,7.943,0,0,1-2.912,2.912A7.837,7.837,0,0,1,8,16a7.837,7.837,0,0,1-4.016-1.072,7.943,7.943,0,0,1-2.912-2.912A7.837,7.837,0,0,1,0,8ZM1.328,8a6.451,6.451,0,0,0,1.68,4.4A9.156,9.156,0,0,1,5.44,9.536,7.954,7.954,0,0,1,8.688,7.824q-.24-.56-.464-1.008a19.441,19.441,0,0,1-5.952.88q-.624,0-.928-.016,0,.064-.008.16T1.328,8Zm.208-1.648q.352.032,1.04.032a17.56,17.56,0,0,0,5.072-.72,16.2,16.2,0,0,0-2.672-3.6A6.5,6.5,0,0,0,2.808,3.84,6.831,6.831,0,0,0,1.536,6.352ZM3.92,13.264a6.538,6.538,0,0,0,6.432.96A23.5,23.5,0,0,0,9.1,8.928a6.824,6.824,0,0,0-2.968,1.616,9.076,9.076,0,0,0-2.216,2.72ZM6.368,1.552A17,17,0,0,1,8.976,5.184a7.968,7.968,0,0,0,3.28-2.32A6.486,6.486,0,0,0,8,1.328a6.141,6.141,0,0,0-1.632.224ZM9.552,6.32q.24.512.544,1.3Q11.28,7.5,12.672,7.5q.992,0,1.968.048A6.424,6.424,0,0,0,13.072,3.68a7.917,7.917,0,0,1-3.52,2.64ZM10.5,8.736A22.965,22.965,0,0,1,11.6,13.6a6.676,6.676,0,0,0,2.064-2.1,6.463,6.463,0,0,0,.96-2.768q-1.168-.08-2.128-.08Q11.616,8.656,10.5,8.736Z" transform="translate(0 0)"/>
  </g>
</svg>
