<svg id="Footer" xmlns="http://www.w3.org/2000/svg" xmlns:xlink="http://www.w3.org/1999/xlink" width="1923" height="724.607" viewBox="0 0 1923 724.607">
  <defs>
    <linearGradient id="linear-gradient" x1="0.5" y1="0.179" x2="0.5" y2="1" gradientUnits="objectBoundingBox">
      <stop offset="0" stop-color="#1e3f53"/>
      <stop offset="1" stop-color="#416a83"/>
    </linearGradient>
    <filter id="Path_8496" x="709.23" y="288.038" width="217.296" height="261.53" filterUnits="userSpaceOnUse">
      <feOffset dy="10" input="SourceAlpha"/>
      <feGaussianBlur stdDeviation="25" result="blur"/>
      <feFlood flood-color="#f7913b" flood-opacity="0.788"/>
      <feComposite operator="in" in2="blur"/>
      <feComposite in="SourceGraphic"/>
    </filter>
  </defs>
  <path id="Path_9273" data-name="Path 9273" d="M0,0H1923l-1.979,527.936L.994,528.012Z" transform="translate(0 191.607)" fill="url(#linear-gradient)"/>
  <circle id="Ellipse_148" data-name="Ellipse 148" cx="1" cy="1" r="1" transform="translate(805 256.607)" fill="#fff" opacity="0.463"/>
  <circle id="Ellipse_149" data-name="Ellipse 149" cx="1.5" cy="1.5" r="1.5" transform="translate(821 151.607)" fill="#fff"/>
  <circle id="Ellipse_150" data-name="Ellipse 150" cx="1" cy="1" r="1" transform="translate(392 209.607)" fill="#fff" opacity="0.463"/>
  <circle id="Ellipse_151" data-name="Ellipse 151" cx="1.5" cy="1.5" r="1.5" transform="translate(442 452.607)" fill="#fff"/>
  <circle id="Ellipse_152" data-name="Ellipse 152" cx="1" cy="1" r="1" transform="translate(1318 191.607)" fill="#fff"/>
  <circle id="Ellipse_153" data-name="Ellipse 153" cx="1" cy="1" r="1" transform="translate(395 471.607)" fill="#fff" opacity="0.463"/>
  <circle id="Ellipse_154" data-name="Ellipse 154" cx="1" cy="1" r="1" transform="translate(353 317.607)" fill="#fff"/>
  <circle id="Ellipse_155" data-name="Ellipse 155" cx="1" cy="1" r="1" transform="translate(1050 360.607)" fill="#fff"/>
  <circle id="Ellipse_156" data-name="Ellipse 156" cx="1" cy="1" r="1" transform="translate(521 175.607)" fill="#fff"/>
  <circle id="Ellipse_157" data-name="Ellipse 157" cx="1" cy="1" r="1" transform="translate(514 344.607)" fill="#fff" opacity="0.463"/>
  <circle id="Ellipse_158" data-name="Ellipse 158" cx="1" cy="1" r="1" transform="translate(739 201.607)" fill="#fff"/>
  <circle id="Ellipse_159" data-name="Ellipse 159" cx="1" cy="1" r="1" transform="translate(589 276.607)" fill="#fff"/>
  <circle id="Ellipse_160" data-name="Ellipse 160" cx="1" cy="1" r="1" transform="translate(1088 255.607)" fill="#fff"/>
  <circle id="Ellipse_161" data-name="Ellipse 161" cx="1" cy="1" r="1" transform="translate(738 345.607)" fill="#fff"/>
  <circle id="Ellipse_162" data-name="Ellipse 162" cx="1" cy="1" r="1" transform="matrix(0.695, 0.719, -0.719, 0.695, 562.577, 225.824)" fill="#fff"/>
  <circle id="Ellipse_163" data-name="Ellipse 163" cx="1" cy="1" r="1" transform="matrix(0.695, 0.719, -0.719, 0.695, 436.724, 237.037)" fill="#fff" opacity="0.463"/>
  <circle id="Ellipse_164" data-name="Ellipse 164" cx="1" cy="1" r="1" transform="matrix(0.695, 0.719, -0.719, 0.695, 467.009, 143.517)" fill="#fff" opacity="0.315"/>
  <circle id="Ellipse_165" data-name="Ellipse 165" cx="1" cy="1" r="1" transform="translate(618 380.607)" fill="#fff" opacity="0.746"/>
  <circle id="Ellipse_166" data-name="Ellipse 166" cx="1" cy="1" r="1" transform="translate(424 371.607)" fill="#fff"/>
  <circle id="Ellipse_167" data-name="Ellipse 167" cx="1" cy="1" r="1" transform="translate(1119 320.607)" fill="#fff"/>
  <path id="Path_8698" data-name="Path 8698" d="M5845,11898.965l721.2,201.89-171.632-72.129,1103.725,301.768,54.686,40.361L5845,12012.865Z" transform="translate(-5844 -11787.393)" fill="#20455c" opacity="0.414"/>
  <path id="Path_8699" data-name="Path 8699" d="M5845,11898.965l721.2,201.89-171.632-72.129,969.879,245.639-168.951,51.244-822.773-224.754Z" transform="translate(-5724 -11613.393)" fill="#20455c"/>
  <g id="Component_63_3" data-name="Component 63 – 3" transform="translate(1.606)">
    <g id="Component_62_1" data-name="Component 62 – 1">
      <path id="Path_6881" data-name="Path 6881" d="M3555.483,7508.556l-50.266,76.388-52.453,25.016-32.624-43.331-69.024-18.108-94.851,30.027-82.256,65.358-56.872,47.862-98.317.7-60.2-3.64h-57.017v7.8H4821V7664.4l-155.627-67.476-103.13-145.369-85.173-43.814-16.118-37.691-6.181-42.008h-10.607l-14.521-38.542-187.315-30.358s-82.224,66.393-98.759,83.074c-3.786,3.819-311.163,88.664-311.163,88.664Z" transform="translate(-2901.606 -6977.207)" fill="#5d788b"/>
      <g id="Group_1013" data-name="Group 1013" transform="translate(1250.981)">
        <path id="Path_6631" data-name="Path 6631" d="M4152.165,6928.92c-5.449-4.266-14.562,9.467-13.779,10.719,1.221,1.95,5.883,1.67,8.6,2.105s37.688,34,41.395,37.658,51.967,15.713,51.967,15.713,3.175,7.871,2.845,29.9-4.492,59.438-4.492,59.438l1.729.408s-1.958,62.821-.41,69.625c1.723,7.567,1.21,16.847,0,21.393s-3.013,38.281-4.239,47.352a77.018,77.018,0,0,0,0,18.123s16.211-1.743,21.057,0,6.936,5.112,6.851-4.941,2.554-59.506,3.055-68.536,5.234-68.265,7.058-64.48,17.778,45.834,18.693,58.527,15.07,67.4,15.44,74.489-1.744,13.527,0,12.878,21.987-.326,23.866,0,.361-32.284-2.357-46.61-12.621-38.338-11.809-46.335-8.7-59.044-8-69.558c.039-.589,1.4-.8,1.4-.8s-4.169-37.88-4.877-60.97.889-33.421.889-33.421,22.909-7.2,33.66-13.589,33.411-32.068,36.021-33.56,13.195-7.871,10.622-12.566a11.127,11.127,0,0,0-4.558-4.032c-3.558-1.967-8.463-2.779-10.081-1.408-2.4,2.038.022,9.489-4.83,13.2s-34.155,23.808-34.155,23.808-47.887,7.653-64.053,8.758-70.154-5.126-72.771-7.16-40.6-26.843-40.6-26.843" transform="translate(-4138.338 -6925.756)" fill="#5d788b"/>
        <path id="Path_6633" data-name="Path 6633" d="M4209.84,6957.771s8.339.344,9.27,0c1.042-.388,1.124-2.451,6.056-2.762,7.285-.458,19.258-1.437,25.45-.934,1.623.132,1.313,2.7,3.626,3.124,5.358.99,18.933.572,18.933.572l-58.826,5.245Z" transform="translate(-4104.603 -6912.386)" fill="#5d788b"/>
        <path id="Path_6634" data-name="Path 6634" d="M4250.3,6934.318c-2.969-10.8-29.675-5.718-32.288-2.379s-.564,24.361.918,26.855a11.122,11.122,0,0,1,1.759,3.258c.553,1.971.645,4.925,1.193,6.356.861,2.247,21.381,4.2,21.422,1.2s0-5.645,0-5.645,5.187-6.806,5.967-12.517S4250.3,6934.318,4250.3,6934.318Z" transform="translate(-4101.055 -6924.938)" fill="#5d788b"/>
      </g>
      <g id="Group_1012" data-name="Group 1012" transform="translate(1145.362 87.805)">
        <path id="Path_6882" data-name="Path 6882" d="M4142.387,7075.3c1.956,1.566,7.135,4.208,14.14,7.4s12.034,4.219,13.725,9.461,2.535,13.593,4.1,18.487,6.085,21.284,6.678,27.645,5.952,9.051,6.012,15.236-.211,40.314,0,42.678a3.685,3.685,0,0,1-1.914,3.454s-.477,12.21-.913,13.789a11.728,11.728,0,0,1-3.186,3.279c-2.871,2.158-7.422,4.434-8.022,4.14-.865-.424,1.775-4.358,2.153-6.862s1.449-7.156,0-7.469-1.98,3.181-2.153,5.221-3.283,3.419-3.1,2.248-.557-13.175,1.171-15.741,3.1-4.246,2.9-5.924-3.919-15.52-4.071-18.765-2.17-15.934-1.708-18-6.872-3.789-5.45-7.132-1.029-10.916-1.814-11.845-2.569,2.271-2.089,10.767-1.971,31.858-1.009,37.984,3.987,22.874,4.122,28.652-1.11,41.6,0,45.048,1.62,17.661,1.022,21.276-2.729,8.264-2.42,15.139,2.677,37.86,1.4,41.765-4.314,15.6-4.122,17.008-3.62,4.036-3.62,4.036-15.182-2.509-18.411-2.467-7.236-2.943-7.353-5.369,1.785-20.011,2.037-23.708,4.3-32,4.051-39.858.5-10.926-1.3-15.647-7.545-38.451-7.545-38.451-9.79,19.765-12.126,26.276-6.558,17.632-8.381,21.276-4.208,57.689-4.774,60.941-2.763,9.029-2.624,9.171-3.41-2.3-6.677,0-22.1,2.208-21.889-.964,1.694-9.313,1.584-12.244,2.6-5.821,2.732-10.5,1.006-46.545,1.212-51.117,2.82-6.339,3.053-12.574,1.743-25.456,2.372-31.5,1.318-5.808,2.31-12.437,4.515-21.824,5.769-25.743,4.192-1.214,4.146-10.535.274-17.859,1.228-20.923,1.262,6.054,0-4.52-2.141-33.351-4.347-29.738-5.824,5.571-6.8,8.955-1.742,5.879-4.682,9.218-28.042,19.516-29.211,19.475-5.405-2.489-5.891-3.39-11.582-.137-11.993-2.177c-.2-.981-1.565-3.5-1.6-6.471-.028-2.564-.3-4.641,0-5.292,2.565-1.19,1.146-3.71,3.2-3.946s9.8,2.372,13.3,1.8,13.463-18.036,16.419-18.172,1.837-.473,1.961-2.751,15.426-38.433,18.494-39.991,20.985-8.415,24.708-9.606S4142.387,7075.3,4142.387,7075.3Z" transform="translate(-4028.969 -7020.472)" fill="#5d788b"/>
        <path id="Path_6884" data-name="Path 6884" d="M4111.152,7208.935s.577-5.786-5.985-7.231-13.918.364-20.265,1.451-7.479,7.424-7.479,7.424Z" transform="translate(-3998.968 -7153.198)" fill="#5d788b"/>
        <path id="Path_6885" data-name="Path 6885" d="M4107.283,7205.011c-.055-1.216-2.009-4.156-1.458-6.007s4.6-14.189,4.08-20.552c1.042-1.343,2.186-5.643,2.186-5.643s-8.189-19.349-18.921-17.746c-14.011,2.092-18.022,10.093-18.783,14.363-.165.927.918,5.522.918,5.522a90.578,90.578,0,0,0,0,15.623,40.05,40.05,0,0,0,3.213,11.771c1.071.738,6.844,2.669,6.844,2.669Z" transform="translate(-3998.968 -7154.969)" fill="#5d788b"/>
      </g>
      <path id="Path_7638" data-name="Path 7638" d="M1505.1,7369.252v15.354l-24.238,23.612-16.173,16.173v14.121l16.173-14.121,24.238-9.9s5.537,16.019,21.2,38.367,42.9,63.594,41.455,51.028-46.327-91.211-47.226-101.292S1505.1,7369.252,1505.1,7369.252Z" transform="translate(-1.606 -7025.393)" fill="#5d788b"/>
      <path id="Path_7640" data-name="Path 7640" d="M1104.2,7545.168c16.119-7.381,291.453-71.331,301.043-76.814s46.728-30.291,46.728-30.291l6.6,13.381s-13.8,24.429-36.546,32.644-258.579,61.08-258.579,61.08Z" transform="translate(-1.606 -7025.393)" fill="#5d788b"/>
    </g>
  </g>
  <g id="Component_63_2" data-name="Component 63 – 2" transform="translate(1 3)">
    <g id="Component_62_1-2" data-name="Component 62 – 1">
      <path id="Path_6881-2" data-name="Path 6881" d="M3563.494,7446.936l-58.323,138-52.449,25.016-32.621-43.331-69.019-18.108-94.843,30.026-82.25,65.357-96.355-7.154H2975.488l-73.14-51.807v108.842h977.017l942.973-.134v-29.321l.37-67.159-69.5,14.5-87.967-14.75-103.122-145.367-85.167-43.814-52.376-119.761-182.348-28.837s-82.217,66.393-98.751,83.073c-3.362,3.392-246.1,70.673-300.644,85.762-6.639,1.836-10.5,2.9-10.5,2.9Z" transform="translate(-2902.348 -6977.207)" fill="#131f27"/>
      <g id="Group_1013-2" data-name="Group 1013" transform="translate(1250.25)">
        <path id="Path_6631-2" data-name="Path 6631" d="M4155.894,6934.956c-1.423-3.979-3.5-10.827-8.019-8.519-1.619.827-5.461.609-7.286,2.742-2.727,3.18-2.986,9.208-2.2,10.459,1.221,1.95,5.883,1.67,8.6,2.105s37.688,34,41.395,37.658,51.967,15.713,51.967,15.713,2.079,7.871,1.749,29.9-3.4,59.438-3.4,59.438l1.729.408s-1.958,62.821-.41,69.625c1.723,7.567,1.21,16.847,0,21.393s-3.013,38.281-4.239,47.352a77.018,77.018,0,0,0,0,18.123s16.211-1.743,21.057,0,6.936,5.112,6.851-4.941,2.554-59.506,3.055-68.536,5.234-68.265,7.058-64.48,17.778,45.834,18.693,58.527,15.07,67.4,15.44,74.489-1.744,13.527,0,12.878,21.987-.326,23.866,0,.361-32.284-2.357-46.61-12.621-38.338-11.809-46.335-8.7-59.044-8-69.558c.039-.589,1.4-.8,1.4-.8s-4.169-37.88-4.877-60.97.889-33.421.889-33.421,22.909-7.2,33.66-13.589,33.411-32.068,36.021-33.56,13.195-7.871,10.622-12.566a11.127,11.127,0,0,0-4.558-4.032c-3.558-1.967-8.463-2.779-10.081-1.408-2.4,2.038.022,9.489-4.83,13.2s-34.155,23.808-34.155,23.808-47.887,7.653-64.053,8.758-70.478-6.724-73.094-8.758-40.684-27.132-40.684-27.132" transform="translate(-4138 -6925.756)" fill="#131f27"/>
        <path id="Path_6633-2" data-name="Path 6633" d="M4209.84,6957.771s8.339.344,9.27,0c1.042-.388,1.124-2.451,6.056-2.762,7.285-.458,19.258-1.437,25.45-.934,1.623.132,1.313,2.7,3.626,3.124,5.358.99,18.933.572,18.933.572l-58.826,5.245Z" transform="translate(-4104.265 -6912.386)" fill="#131f27"/>
        <path id="Path_6634-2" data-name="Path 6634" d="M4250.3,6934.318c-2.969-10.8-28.757-6.348-31.37-3.009s-1.482,24.99,0,27.484a11.122,11.122,0,0,1,1.759,3.258c.553,1.971.645,4.925,1.193,6.356.861,2.247,23.073,4.036,23.115,1.04s0-8.48,0-8.48a19.193,19.193,0,0,0,4.274-9.519C4250.051,6945.739,4250.3,6934.318,4250.3,6934.318Z" transform="translate(-4100.717 -6924.938)" fill="#131f27"/>
      </g>
      <g id="Group_1012-2" data-name="Group 1012" transform="translate(1144.968 87.805)">
        <path id="Path_6882-2" data-name="Path 6882" d="M4142.387,7075.3c1.956,1.566,7.135,4.208,14.14,7.4s12.034,4.219,13.725,9.461,2.535,13.593,4.1,18.487,6.085,21.284,6.678,27.645,5.952,9.051,6.012,15.236-.211,40.314,0,42.678a3.685,3.685,0,0,1-1.914,3.454s-.477,12.21-.913,13.789a11.728,11.728,0,0,1-3.186,3.279c-2.871,2.158-7.422,4.434-8.022,4.14-.865-.424,1.775-4.358,2.153-6.862s1.449-7.156,0-7.469-1.98,3.181-2.153,5.221-3.283,3.419-3.1,2.248-.557-13.175,1.171-15.741,3.1-4.246,2.9-5.924-3.919-15.52-4.071-18.765-2.17-15.934-1.708-18-6.872-3.789-5.45-7.132-1.029-10.916-1.814-11.845-2.569,2.271-2.089,10.767-1.971,31.858-1.009,37.984,3.987,22.874,4.122,28.652-1.11,41.6,0,45.048,1.62,17.661,1.022,21.276-2.729,8.264-2.42,15.139,2.677,37.86,1.4,41.765-4.314,15.6-4.122,17.008-3.62,4.036-3.62,4.036-15.182-2.509-18.411-2.467-7.236-2.943-7.353-5.369,1.785-20.011,2.037-23.708,4.3-32,4.051-39.858.5-10.926-1.3-15.647-7.545-38.451-7.545-38.451-9.79,19.765-12.126,26.276-6.558,17.632-8.381,21.276-4.208,57.689-4.774,60.941-2.763,9.029-2.624,9.171-3.41-2.3-6.677,0-22.1,2.208-21.889-.964,1.694-9.313,1.584-12.244,2.6-5.821,2.732-10.5,1.006-46.545,1.212-51.117,2.82-6.339,3.053-12.574,1.743-25.456,2.372-31.5,1.318-5.808,2.31-12.437,4.515-21.824,5.769-25.743,4.192-1.214,4.146-10.535.274-17.859,1.228-20.923,1.262,6.054,0-4.52-2.141-33.351-4.347-29.738-5.824,5.571-6.8,8.955-1.742,5.879-4.682,9.218-28.042,19.516-29.211,19.475-5.405-2.489-5.891-3.39-11.582-.137-11.993-2.177c-.2-.981-1.565-3.5-1.6-6.471-.028-2.564-.3-4.641,0-5.292,2.565-1.19,1.146-3.71,3.2-3.946s9.8,2.372,13.3,1.8,13.463-18.036,16.419-18.172,1.837-.473,1.961-2.751,15.426-38.433,18.494-39.991,20.985-8.415,24.708-9.606S4142.387,7075.3,4142.387,7075.3Z" transform="translate(-4028.969 -7020.472)" fill="#131f27"/>
        <path id="Path_6884-2" data-name="Path 6884" d="M4111.152,7208.935s.577-5.786-5.985-7.231-13.918.364-20.265,1.451-7.479,7.424-7.479,7.424Z" transform="translate(-3998.968 -7153.198)" fill="#131f27"/>
        <path id="Path_6885-2" data-name="Path 6885" d="M4107.283,7205.011c-.055-1.216-2.009-4.156-1.458-6.007s4.6-14.189,4.08-20.552c1.042-1.343,2.186-5.643,2.186-5.643s-8.189-19.349-18.921-17.746c-14.011,2.092-18.022,10.093-18.783,14.363-.165.927.918,5.522.918,5.522a90.578,90.578,0,0,0,0,15.623,40.05,40.05,0,0,0,3.213,11.771c1.071.738,6.844,2.669,6.844,2.669Z" transform="translate(-3998.968 -7154.969)" fill="#131f27"/>
      </g>
      <path id="Path_7638-2" data-name="Path 7638" d="M1505.1,7369.252v15.354l-24.238,23.612-16.173,16.173v14.121l16.173-14.121,24.238-9.9s5.537,16.019,21.2,38.367,42.9,63.594,41.455,51.028-46.327-91.211-47.226-101.292S1505.1,7369.252,1505.1,7369.252Z" transform="translate(-2 -7025.393)" fill="#131f27"/>
      <path id="Path_7640-2" data-name="Path 7640" d="M1104.2,7545.168c16.119-7.381,291.453-71.331,301.043-76.814s46.728-30.291,46.728-30.291l6.6,13.381s-13.8,24.429-36.546,32.644-258.579,61.08-258.579,61.08Z" transform="translate(-2 -7025.393)" fill="#131f27"/>
    </g>
  </g>
  <path id="Path_8490" data-name="Path 8490" d="M57.8,0s-2.557,24.241-3.388,28.167S51.3,51.318,51.3,51.318s1.576,6.921,0,8.953-3.619,18.754-3.619,18.754-9.695,47.879-11.4,51.5-4,18.268-4,18.268l-3.244,26.37S17.554,215.829,15.757,221.3s-7.69,50.953-7.637,52.864,0,16.274,0,16.274-8.208,2.715-8.119,0S6.136,222.793,8.12,221.3s12.2-34.754,13.225-41.791S26.1,148.8,26.1,148.8,36.79,102.459,36.277,100.84s7.006-31.085,7.006-31.085l4.393-30.566L54.411,0Z" transform="translate(1091.258 145.225) rotate(-14)" fill="#131f27"/>
  <path id="Path_8491" data-name="Path 8491" d="M17.079,0s-2.557,24.241-3.388,28.167-3.116,23.15-3.116,23.15,1.576,6.921,0,8.953S6.956,79.025,6.956,79.025,3.007,99.032,1.094,103.02c-3.136,6.54,1.469-33.264,1.469-33.264L6.956,39.189,13.691,0Z" transform="translate(1132.77 165.374) rotate(-14)" fill="#131f27"/>
  <path id="Path_8492" data-name="Path 8492" d="M47.793,61.293c.232-2.521-8.649-51.34-8.649-51.34l-6.305-4.41L26.991.707,12.366,0,7.647,6.121,5.286,15.011,0,21.052,2.547,65.589Z" transform="matrix(0.978, 0.208, -0.208, 0.978, 1459.912, 248.182)" fill="#131f27"/>
  <path id="Path_8493" data-name="Path 8493" d="M0,8.95c.483-1.636,2.594-6.7,2.594-6.7L3.1,0H16.669l2.76,1.046s3.508,9.294,3.178,9.132S18.069,8.2,18.069,8.2l-1.4-5.35H5.067L3.1,6.785Z" transform="matrix(0.978, 0.208, -0.208, 0.978, 1470.414, 245.222)" fill="#131f27"/>
  <g id="DELIVER-BOARD" transform="translate(486.422 344.662)" opacity="0.999">
    <path id="Path_8457" data-name="Path 8457" d="M6238.493,990.784s-6.273-10.453-8.18-13.066-1.584-2.125-2.112-2.833-2.7,1.712-2.7,1.712l.766-4.307-4.7-3.087-.636,14.818,6.879,1.448-5.461,1.942s-.9,6.259-.406,6.259h6.261l-4.019,2.921v5.509s-12.012-8.241-15.908-10.115-2.709-1.2-2.709-1.2-4.209,2.081-4.157,1.8,1.334-3.151,1.334-3.151a53.1,53.1,0,0,0-6.162-1.223c-1.579-.069,3.978,11.956,3.978,11.956l3.683-1.088-2.833,4.677,3.439,6.377,5.014-1.5-3.175,5.032,21.12,12.5s16.548-3.723,19.861-8.316C6250.546,1013.85,6238.493,1000.785,6238.493,990.784Z" transform="translate(-5792.988 -925.639)" fill="#131f27"/>
    <path id="Path_8711" data-name="Path 8711" d="M6228.2,984.991l-6.637-1.247v-2.511l.376-11.416,4.326,2.471-4.7-3.087-.636,14.818,6.879,1.448-5.461,1.942s-.9,6.259-.406,6.259h6.261l-4.019,2.921v5.509l.849-5.509,4.253-2.921-.632-.938-6.43.7.427-5.76,5.461-1.6Z" transform="translate(-5792.988 -925.639)" fill="#e05b2a"/>
    <path id="Path_8694" data-name="Path 8694" d="M6196.582,988.207c-1.579-.069,3.978,11.956,3.978,11.956l3.683-1.088-2.833,4.677,3.439,6.377,5.014-1.5-3.175,5.032,21.12,12.5-17.455-10.771v-7.272l-5.5,1.358-3.079-5.722,2.833-4.992-3.612.778S6196.806,988.217,6196.582,988.207Z" transform="translate(-5792.988 -925.639)" fill="#e58635"/>
    <path id="Path_8458" data-name="Path 8458" d="M106.215,36.133l6.109-2.877-12.176-3.733-16.4,2.232-17.843-9.2L46.4,24.4,39.012,36.133V16.978s-3.468,12.093-3.426,10.949S33.875,8.536,33.875,8.536,30.1,37.183,30.506,24.4s0-24.4,0-24.4L25.119,26.5,22.807,6.524l-1.771,21.4L16.115,8.536l1.026,23.219-8-11.839,5.078,16.218S-1.024,29.026.055,29.522s12.279,12.9,12.279,12.9L3.5,41.333,14.219,46.74H7.951l9.19,21.253Z" transform="matrix(0.966, 0.259, -0.259, 0.966, 459.967, 33.625)" fill="#131f27"/>
    <path id="Path_8474" data-name="Path 8474" d="M826.281-375.245l6.109-2.877-12.176-3.733-16.4,2.232-17.843-9.2-19.508,1.844-7.387,11.735V-394.4s-3.468,12.093-3.426,10.949-1.712-19.391-1.712-19.391-3.777,28.647-3.369,15.862,0-24.4,0-24.4l-5.386,26.5-2.312-19.975-1.771,21.4-4.921-19.391,1.026,23.219-8-11.839,5.078,16.218s-15.243-7.107-14.164-6.611,12.279,12.9,12.279,12.9l-8.837-1.092,10.722,5.407h-6.268l9.19,21.253Z" transform="translate(-333.716 481.381)" fill="#131f27"/>
    <path id="Path_8712" data-name="Path 8712" d="M727.967-368.953l5.6.724-10.991-12.151L734.76-374.1l-3.283-12.881,5.73,7.357v-19.89l3.9,16.063,2.419-16.854,1.663,15.425,5.386-22.589v24.018l3.866-15.442,1.215,14.013,3.426-9.52s-3.468,12.093-3.426,10.949-1.712-19.391-1.712-19.391-3.777,28.647-3.369,15.862,0-24.4,0-24.4l-5.386,26.5-2.312-19.975-1.771,21.4-4.921-19.391,1.026,23.219-8-11.839,5.078,16.218s-15.243-7.107-14.164-6.611,12.279,12.9,12.279,12.9l-8.837-1.092,10.722,5.407Z" transform="translate(-333.716 481.381)" fill="#3c9d40"/>
    <g id="Group_1091" data-name="Group 1091" transform="translate(297.808 8.376)">
      <g transform="matrix(1, 0, 0, 1, -784.23, -353.04)" filter="url(#Path_8496)">
        <path id="Path_8496-2" data-name="Path 8496" d="M13.718,101.43C13.2,101.185-.817,88.578.038,73.828S4.853,56.51,7.051,51.949s.525,5.267.58,8.086,10.414-4.086,10.828-13.651-.623-12.663,0-14.755,2.594-.123,2.911,2.222,7.887,16,6.413-6.935-2.51-29.553,0-26.026,21.138,29.321,19.47,44.827S40.79,69.64,43.772,65.643s5.566-11.188,5.566-11.188,3.617,7.668-.6,17.486-1.072,5.885.6,5.42,7.737,8.462,0,21.27S13.718,101.43,13.718,101.43Z" transform="translate(784.23 360.44) rotate(-8)" fill="#e05b2a"/>
      </g>
      <path id="Path_8494" data-name="Path 8494" d="M5.136,46.62S-3.773,32.81,1.876,23.6,16.978,5.932,17.869.889s-2.851,12.765-.819,18.294S22.108,35.7,19.013,40.126s7.968.032,8.613-5.264S30.2,28,30.474,32,29.7,45.565,26.838,49.371,5.136,46.62,5.136,46.62Z" transform="translate(18.641 61.619) rotate(-8)" fill="#f0d659"/>
      <path id="Path_8495" data-name="Path 8495" d="M1.586,24.281c-.111-1.7-3.513-7.832,0-14.364S5.87-1.123,5.919.245s2.532,11.742,2,14.871-2,10.281-2,10.281Z" transform="translate(27.343 83.629) rotate(-8)" fill="#fff"/>
      <path id="Path_8702" data-name="Path 8702" d="M-15.858,182.67c-1.811-5.085.36-9.771.731-21.121S-17.6,145.92-18.7,144.378s8.7,2.559,6.717,18.575S-15.858,182.67-15.858,182.67Z" transform="translate(57.176 -111.546)" fill="#ffd62c"/>
    </g>
    <path id="Path_8696" data-name="Path 8696" d="M81.087,15.383,84.607,9.5,67.838,4.956,51.145,0,33.733,1.646H19.548l-14.974,15L0,37.11l61.827,34.8,5.822-46.072Z" transform="matrix(0.966, 0.259, -0.259, 0.966, 250.038, 92.634)" fill="#131f27"/>
    <path id="Path_9263" data-name="Path 9263" d="M29.942,15.383,33.462,9.5,16.693,4.956,0,0,20.419,7.57Z" transform="matrix(0.966, 0.259, -0.259, 0.966, 299.44, 105.871)" fill="#f0d659"/>
    <path id="Path_8697" data-name="Path 8697" d="M123.885,59.206l2.894,4.838-13.786,3.734L99.27,71.852,84.956,70.5H73.294L60.984,58.164,0,2.188,135.252,0l1.954,25.131Z" transform="matrix(-0.966, 0.259, -0.259, -0.966, 438.197, 158.479)" fill="#131f27"/>
    <path id="Path_9262" data-name="Path 9262" d="M22.44,1.037,35.646,0l-9.67,3.066L11.662,1.713H0L5.3.008Z" transform="matrix(-0.966, 0.259, -0.259, -0.966, 349.597, 111.006)" fill="#ad6348"/>
    <path id="Path_8713" data-name="Path 8713" d="M128.707,196.608c.632-5.612,1.394-6.865,1.35-3.975S128.707,196.608,128.707,196.608Z" transform="translate(231.427 -117.169)" fill="#fff"/>
    <path id="Path_8714" data-name="Path 8714" d="M122.3,176.547c.463-2.9,1.568-5.487,1.205-3.25A7.17,7.17,0,0,1,122.3,176.547Z" transform="translate(231.427 -117.169)" fill="#e05b2a"/>
    <path id="Path_8715" data-name="Path 8715" d="M117.376,153.681c-2.84-4.161-5.013-6.217-2.864-5.2S117.376,153.681,117.376,153.681Z" transform="translate(231.427 -117.169)" fill="#fff"/>
    <path id="Path_8716" data-name="Path 8716" d="M89.539,124.441c.271-3.957.946-8.259,3.765-9.769s-1.058,3.248-1.771,5.2S89.539,124.441,89.539,124.441Z" transform="translate(231.427 -117.169)" fill="#ffd62c"/>
    <path id="Path_9274" data-name="Path 9274" d="M89.539,122.067c.182-3.023.636-6.31,2.532-7.463s-.712,2.481-1.191,3.973S89.539,122.067,89.539,122.067Z" transform="translate(175.137 9.014) rotate(-42)" fill="#ffd62c"/>
    <path id="Path_8717" data-name="Path 8717" d="M85.876,181.388c.684-3.081-1.37-5.977-1.5-4.375S85.876,181.388,85.876,181.388Z" transform="translate(231.427 -117.169)" fill="#f0d659"/>
    <path id="Path_8718" data-name="Path 8718" d="M81.389,222.351c-3.43-2.893-4.673-6.447-4.356-4.4S81.389,222.351,81.389,222.351Z" transform="translate(231.427 -117.169)" fill="#fff"/>
    <path id="Path_9264" data-name="Path 9264" d="M98.177,29.448l5.646,2.66L92.569,35.559,77.411,33.5,60.919,42,42.888,40.3,36.06,29.448V47.153s-3.206-11.178-3.167-10.12-1.582,17.924-1.582,17.924S27.82,28.478,28.2,40.3s0,22.551,0,22.551L23.218,38.354,21.081,56.817,19.445,37.033,14.9,54.957,15.844,33.5l-7.4,10.943,4.694-14.99S-.946,36.018.05,35.559,11.4,23.633,11.4,23.633L3.232,24.642l9.911-5H7.349L15.844,0Z" transform="matrix(-0.999, 0.035, -0.035, -0.999, 105.953, 314.177)" fill="#131f27"/>
    <path id="Path_9275" data-name="Path 9275" d="M89.539,119.457c.09-2,.313-4.167,1.247-4.928s-.35,1.639-.587,2.624S89.539,119.457,89.539,119.457Z" transform="matrix(0.999, 0.035, -0.035, 0.999, 234.305, -133.541)" fill="#ffd62c"/>
    <path id="Path_9276" data-name="Path 9276" d="M89.539,117.734c.094-1.319.328-2.753,1.306-3.256s-.367,1.083-.615,1.733S89.539,117.734,89.539,117.734Z" transform="translate(180.165 -51.981) rotate(-41)" fill="#ffd62c"/>
    <path id="Path_9277" data-name="Path 9277" d="M89.539,116.8c.075-.95.262-1.982,1.041-2.345s-.293.78-.49,1.248S89.539,116.8,89.539,116.8Z" transform="translate(175.419 -60.202) rotate(-41)" fill="#ffd62c"/>
    <path id="Path_9278" data-name="Path 9278" d="M89.539,116.165a1.787,1.787,0,0,1,1.164-1.732c.871-.268-.327.576-.548.922A9.231,9.231,0,0,1,89.539,116.165Z" transform="translate(174.718 -50.462) rotate(-41)" fill="#ffd62c"/>
    <path id="Path_9279" data-name="Path 9279" d="M115.446,150.966c-1.372-2.09-2.421-3.122-1.384-2.609S115.446,150.966,115.446,150.966Z" transform="translate(221.427 -141.169)" fill="#fff"/>
    <path id="Path_9280" data-name="Path 9280" d="M115.446,150.966c-1.372-2.09-2.421-3.122-1.384-2.609S115.446,150.966,115.446,150.966Z" transform="translate(221.427 -141.169)" fill="#fff"/>
    <path id="Path_9281" data-name="Path 9281" d="M113.643,150.966c1.372-2.09,2.421-3.122,1.384-2.609S113.643,150.966,113.643,150.966Z" transform="translate(216.427 -158.169)" fill="#fff"/>
  </g>
  <rect id="Rectangle_648" data-name="Rectangle 648" width="1920" height="54" transform="translate(1 670.607)" fill="#131f27"/>
</svg>
