<svg xmlns="http://www.w3.org/2000/svg" width="121.798" height="60.902" viewBox="0 0 121.798 60.902">
  <g id="LOGO" transform="translate(-188.27 -294.33)">
    <g id="Group_1" data-name="Group 1" transform="translate(188.27 294.33)">
      <path id="Path_1" data-name="Path 1" d="M218.721,334.932l10.148,10.148-10.148,10.151L208.57,345.081l-10.148-10.148L188.27,324.781l10.151-10.151,10.148-10.148,10.151-10.151,10.148,10.151-20.3,20.3Z" transform="translate(-188.27 -294.33)" fill="#fff"/>
      <path id="Path_2" data-name="Path 2" d="M370.289,349.99l-10.148,10.151L349.99,370.289l-20.3-20.3,10.151-10.151L349.99,329.69l10.151,10.148Z" transform="translate(-289.091 -319.539)" fill="#fff"/>
      <path id="Path_3" data-name="Path 3" d="M511.709,324.781l-10.148,10.151L491.41,345.081l-10.148,10.151L471.11,345.081l10.151-10.148,10.148-10.151L481.261,314.63,471.11,304.481l10.151-10.151,10.148,10.151,10.151,10.148Z" transform="translate(-389.911 -294.33)" fill="#fff"/>
    </g>
  </g>
</svg>
