<svg xmlns="http://www.w3.org/2000/svg" xmlns:xlink="http://www.w3.org/1999/xlink" width="1920" height="434" viewBox="0 0 1920 434">
  <defs>
    <clipPath id="clip-path">
      <rect id="Rectangle_653" data-name="Rectangle 653" width="1920" height="434"/>
    </clipPath>
    <linearGradient id="linear-gradient" x1="0.5" y1="0.354" x2="0.5" y2="1.197" gradientUnits="objectBoundingBox">
      <stop offset="0" stop-color="#f2f2f2"/>
      <stop offset="1" stop-color="#d8a377"/>
    </linearGradient>
  </defs>
  <g id="Custom_Size_1" data-name="Custom Size – 1" clip-path="url(#clip-path)">
    <rect id="Rectangle_652" data-name="Rectangle 652" width="1920" height="434" fill="#f2f2f2"/>
    <g id="Whole-Bg" transform="translate(-0.473 120)">
      <circle id="Ellipse_106" data-name="Ellipse 106" cx="75" cy="75" r="75" transform="translate(1317.688 41)" fill="#fff"/>
      <rect id="Rectangle_406" data-name="Rectangle 406" width="1920" height="231" transform="translate(0.473)" fill="url(#linear-gradient)"/>
      <path id="EMPATHIZE-BG" d="M1765.083,935.874s-266.491,65.834-279.969,63.443-92.792-14.274-92.792-14.274l-70.289,8.257L1153.9,958.1l-141.089,49.732L692.556,972.767,462.429,919.124,271.785,947.5,18.875,972.767v59.911l5.4,640.025,1876.657-6.28,20.774-700.15Z" transform="translate(-18.875 -784.023)" fill="#c38a5a"/>
      <path id="EMPATHIZE-BG-2" data-name="EMPATHIZE-BG" d="M337.727,1013.1c6.671-.357,106.531-15.227,120.073-17.537s93.235-13.794,93.235-13.794l70.624,7.979,168.93-34.015,155.576,78.674,307.97-64.5L1501.9,1013.1l238.851-43.2h190.475l2.509,679.846L16.181,1656.713S11,1459.8,11,998.463l229.506-28.555Z" transform="translate(-10.875 -788.949)" fill="#a75e1f"/>
      <path id="EMPATHIZE-BG-3" data-name="EMPATHIZE-BG" d="M1640.037,991.5c-3.229-.179-110.257-16.341-110.257-16.341l-130.9,8.079-70.624,8.262-168.93-35.221-155.576,81.464L666.293,991.5,381.135,940.42l-188.414,75.26H8.515L6.74,7732.881l1920.833-20.328S1928.615,1476,1928.615,998.3l-219.209-27.351Z" transform="translate(-7.875 -766.106)" fill="#1c3443"/>
      <path id="Path_7798" data-name="Path 7798" d="M8758.693,586.394l6.039-7.791-4.09-4.493s-15.655-19.838-22.32-24.3-12.341-22.413-12.491-23.879,1.769-1.526,1.689-3.4.367-3.169,0-4.027,7.535,4.527,9.154-1.435a54.934,54.934,0,0,0,1.648-12.825c.2-2.565.908-7.878-1.669-11.116s-4.783-5.977-5.086-8.859-2.6-8.739-4.8-10.066-8.407-3.909-9.214-2.782a34.314,34.314,0,0,0-2.028,3.667l-1.062.622a32.715,32.715,0,0,0,1.062-4.289c.308-1.977.108-7.235-1.062-8.51s-5-5.323-9.771-3.676-6.367,5.672-6.139,6.56.533.483.6,1.237a33.171,33.171,0,0,0,.5,7.171c.529,2.454,2.426,4.278,2.966,4.38,1.122.213,2.639-.544,3.7.443s1.113,2.267,0,2.93,0,1.769,0,1.769-3.5,10.2-4.123,11.991a6.763,6.763,0,0,1-2.541,3.381c-.874.636-8.3,2.287-10.237,2.4s-8.253.285-9.175,0-3.282.223-3.561,1.6-1.647,3.746,0,4.954c.386.283.2,6.083-.652,13.082-.564,4.627-1.65,9.475-2.383,15.735-2.486,21.222-5.291,46.315-5.291,46.315l2.154-.89,8.757-72.34a3.014,3.014,0,0,0,2.842,0c1.49-.811,3.084-2.193,3.815-1.9s1.377,2.437,3.493,1.9,8.893-.739,12.222-1.9,3.02-3.368,3.059,1.281,1.1,15.783,1.1,15.783,1.632.6,1.2,1.424-8.464,17.684-9.161,18.448-.983,4.286-1.086,6.756-7.259,25.225-7.259,25.225l.92,1.643s-3.344,1.868-5.563,1.627-4.388-1.9-5.846-1.089a3.691,3.691,0,0,0-1.762,2.253s4.589,4.308,5.6,4.518,14.442,1.678,14.442,1.678-.02-4.527.558-5.3.722-.141,1.1-.893,6.008-16.66,6.854-20.2.688-4.5,1.851-7.535,7.461-13.694,7.461-13.694,11.4,14.868,13.258,16.85,7.057,3.644,8.313,4.965,13.8,14.665,14.63,16.113,3.156,3.087,1.7,5.28-2.839,4.414-2.839,4.414Z" transform="translate(-7346.876 -356.854)" fill="#1c3443"/>
      <path id="Path_7799" data-name="Path 7799" d="M8652.937,546.472c-2.02-1.387-5.545-1.729-5.99-2.192s1.624-.1-1.463-2.026-12.42-10.422-12.549-10.841-.052-7.031,0-8.081,3.928-5.834,3.9-6.781,2.5,2.2,2.2,0-.069-7.816.6-9.115-.2-1.359,2.428-.939,5.968.924,7.189,0,1.836-6.252,1.5-7.885a53.057,53.057,0,0,0-2.955-8.654c-.71-1.128,1.354-2.928,1.45-4.655s.722-5.627,0-6.626-1.6-1.1-2.31-2.447-.868-1.859-1.463-2.272-2.408-2-3.417-1.77-2.687,1.4-3.029.846-2.6-4.889-3.164-5.539a32.118,32.118,0,0,1-1.926-3.128,14.719,14.719,0,0,1,0-3.375c.247-.9,3.156-6.62,1.923-8.142s-1.925-1.738-1.925-1.738.429-.919-1.014-1.294-10.529-1.3-12.473.64-1.862,3.461-1.862,3.461,1.438-.176,1.511.787-.217,8.945,0,9.662-.5,1.825,1.72,1.916,3.539.691,3.9,1.212,1.407,2.534,0,3.224a5.282,5.282,0,0,0-1.948,1.468v1.282s-1.105,1.969-1.562,2.76a11.8,11.8,0,0,0-2.978,6.892c-.479,4.5-.46,9.589-1.3,10.323a6.459,6.459,0,0,1-4.949,1.9,11.734,11.734,0,0,1-5.2-1.559c-1.4-.626-2.711-.783-3.106-.34a6.431,6.431,0,0,0-1.01,3.414,10.134,10.134,0,0,0,1.009,3.509l-7.721,60.417h1.14l8.144-59.75s3.456-.7,3.831-.667.471,1.2.471,1.2l5.787.9v16.366l2.177-.624s-1.427,13.654-.9,14.4,4.291,4.881,4.291,4.881,2.911,16.389,2.86,18.022.438,5.167,0,6.092a8.3,8.3,0,0,1-1.442,1.9l10.414-.313-1.674-18.431s7.8,3.506,8.583,4.942,1.191,1.915,1.061,5.806-2.052,4.909-.462,5.283,5.248-.292,5.351-1.143S8652.937,546.472,8652.937,546.472Z" transform="translate(-7199.419 -344.521)" fill="#1c3443"/>
      <path id="Path_8561" data-name="Path 8561" d="M1341.976,397.563l2.345-22.238.578.435-1.56,22.327-1.363.475Z" transform="translate(-10.312 -253)" fill="#1e3f53"/>
    </g>
  </g>
</svg>
