<svg xmlns="http://www.w3.org/2000/svg" width="496.765" height="303.911" viewBox="0 0 496.765 303.911">
  <g id="Group_2184" data-name="Group 2184" transform="translate(-36.968 -16.819)">
    <path id="Path_8624" data-name="Path 8624" d="M-74.075,799.562c113.9,3.016,406.744,0,406.744,0h35.379s30.314-2.434-20.3-4.739S216.289,787.5,137.436,787.5H-62.649S-72,786-86.68,787.5C-115.07,790.393-149.477,797.565-74.075,799.562Z" transform="translate(156.681 -480.61)" fill="#605138"/>
    <g id="devpixel_illustrations-06" data-name="devpixel illustrations-06" transform="translate(134.787 280.553)">
      <path id="Path_8324" data-name="Path 8324" d="M133.3,336.463s.7-5.494,6.038-4.631c-2.553-8.2,10.052-7.25,7.9,0,4.412-3.784,6.271-2.254,6.271-2.254s-6.5-10.918,3.017-15.4c-.464-8.047,14.4-8.193,13.7,1.326,7.429-5.574,11.378.928,11.378.928s10.432-9.369,17.755,1.7-4.2,17.467-4.2,17.467Z" transform="translate(-133.3 -308.251)" fill="#c1d55b"/>
      <path id="Path_8325" data-name="Path 8325" d="M215.809,342.059s7.981-5.011,10.129-2.217c-2.769-5.271,3.791-8.978,7.294-5.355,3.7-4.832,9.2,5.289,6.454,11.5,5.5-1,5.9,6.447,5.9,6.447H225.937l-21.191.509S202.747,341.095,215.809,342.059Z" transform="translate(-150.48 -325.407)" fill="#aeb864"/>
    </g>
    <g id="devpixel_illustrations-03" data-name="devpixel illustrations-03" transform="translate(25.842)">
      <path id="Path_8199" data-name="Path 8199" d="M204.113,281.187H86.694a3.716,3.716,0,0,1-3.754-3.652V54.632a3.716,3.716,0,0,1,3.754-3.652H204.113a3.716,3.716,0,0,1,3.754,3.652v222.9A3.717,3.717,0,0,1,204.113,281.187Z" transform="translate(-21.58 -34.161)" fill="#366480"/>
      <path id="Path_8200" data-name="Path 8200" d="M401.7,180.164H291.721a5.289,5.289,0,0,1-5.071-5.453V56.433a5.289,5.289,0,0,1,5.071-5.453H401.7a5.289,5.289,0,0,1,5.071,5.453V174.711A5.28,5.28,0,0,1,401.7,180.164Z" transform="translate(-84.181 -34.161)" fill="#366480"/>
      <path id="Path_8201" data-name="Path 8201" d="M603.633,269.6H489.92a4.752,4.752,0,0,1-4.71-4.765V55.735a4.752,4.752,0,0,1,4.71-4.765H603.633a4.752,4.752,0,0,1,4.71,4.765v209.1A4.757,4.757,0,0,1,603.633,269.6Z" transform="translate(-145.199 -34.151)" fill="#366480"/>
      <g id="Group_953" data-name="Group 953" transform="translate(68.454 31.345)">
        <path id="Path_8203" data-name="Path 8203" d="M201.635,126.134H96.921a3.752,3.752,0,0,1-3.741-3.741V73.261a3.752,3.752,0,0,1,3.741-3.741H201.635a3.752,3.752,0,0,1,3.741,3.741v49.126A3.749,3.749,0,0,1,201.635,126.134Z" transform="translate(-93.18 -69.52)" fill="#608398"/>
        <path id="Path_8204" data-name="Path 8204" d="M157.9,98.145H103.534a.647.647,0,0,1-.644-.644V96.254a.647.647,0,0,1,.644-.644H157.9a.647.647,0,0,1,.644.644V97.5A.647.647,0,0,1,157.9,98.145Z" transform="translate(-89.773 -70.611)" fill="#366480"/>
        <path id="Path_8205" data-name="Path 8205" d="M157.9,109.255H103.534a.647.647,0,0,1-.644-.644v-1.247a.647.647,0,0,1,.644-.644H157.9a.647.647,0,0,1,.644.644v1.247A.647.647,0,0,1,157.9,109.255Z" transform="translate(-89.773 -74.025)" fill="#366480"/>
        <path id="Path_8206" data-name="Path 8206" d="M141.078,120.375H103.534a.647.647,0,0,1-.644-.644v-1.247a.647.647,0,0,1,.644-.644h37.544a.647.647,0,0,1,.644.644v1.247A.647.647,0,0,1,141.078,120.375Z" transform="translate(-89.773 -77.442)" fill="#366480"/>
        <path id="Path_8207" data-name="Path 8207" d="M132.851,82.357H107.408a1.635,1.635,0,0,1-1.628-1.628V77.578a1.635,1.635,0,0,1,1.628-1.628h25.443a1.635,1.635,0,0,1,1.628,1.628V80.73A1.635,1.635,0,0,1,132.851,82.357Z" transform="translate(-92.663 -64.569)" fill="#366480"/>
        <path id="Path_8208" data-name="Path 8208" d="M179.247,82.357H154.608a1.635,1.635,0,0,1-1.628-1.628V77.578a1.635,1.635,0,0,1,1.628-1.628h24.639a1.635,1.635,0,0,1,1.628,1.628V80.73A1.63,1.63,0,0,1,179.247,82.357Z" transform="translate(-105.323 -64.569)" fill="#366480"/>
      </g>
      <path id="Path_8209" data-name="Path 8209" d="M201.635,233.5H96.921a3.752,3.752,0,0,1-3.741-3.741V164.971a3.752,3.752,0,0,1,3.741-3.741H201.635a3.752,3.752,0,0,1,3.741,3.741v64.788A3.747,3.747,0,0,1,201.635,233.5Z" transform="translate(-24.726 -66.358)" fill="#84cee2"/>
      <path id="Path_8210" data-name="Path 8210" d="M200.585,342.248H95.871c-2.057,0-3.741-1.336-3.741-2.969v-28.59c0-1.633,1.683-2.969,3.741-2.969H200.585c2.057,0,3.741,1.336,3.741,2.969v28.59C204.333,340.912,202.649,342.248,200.585,342.248Z" transform="translate(-24.404 -134.234)" fill="#608398"/>
      <path id="Path_8211" data-name="Path 8211" d="M388.18,109.085H294.67a3.457,3.457,0,0,1-3.34-3.544V71.414a3.457,3.457,0,0,1,3.34-3.544h93.51a3.457,3.457,0,0,1,3.34,3.544v34.127A3.453,3.453,0,0,1,388.18,109.085Z" transform="translate(-79.723 -36.525)" fill="#608398"/>
      <path id="Path_8212" data-name="Path 8212" d="M388.868,186.331H295.7a3.563,3.563,0,0,1-3.328-3.741v-36.02a3.563,3.563,0,0,1,3.328-3.741h93.164a3.563,3.563,0,0,1,3.328,3.741v36.02A3.554,3.554,0,0,1,388.868,186.331Z" transform="translate(-80.573 -60.704)" fill="#608398"/>
      <path id="Path_8213" data-name="Path 8213" d="M347.248,96.215h-46.21a.6.6,0,0,1-.548-.644V94.324a.6.6,0,0,1,.548-.644h46.21a.6.6,0,0,1,.548.644v1.247A.6.6,0,0,1,347.248,96.215Z" transform="translate(-80.381 -44.907)" fill="#366480"/>
      <path id="Path_8214" data-name="Path 8214" d="M347.248,107.335h-46.21a.6.6,0,0,1-.548-.644v-1.247a.6.6,0,0,1,.548-.644h46.21a.6.6,0,0,1,.548.644v1.247A.6.6,0,0,1,347.248,107.335Z" transform="translate(-80.381 -48.324)" fill="#366480"/>
      <path id="Path_8215" data-name="Path 8215" d="M338.678,118.445H301.134a.648.648,0,0,1-.644-.644v-1.247a.648.648,0,0,1,.644-.644h37.544a.647.647,0,0,1,.644.644V117.8A.647.647,0,0,1,338.678,118.445Z" transform="translate(-80.381 -51.738)" fill="#366480"/>
      <path id="Path_8216" data-name="Path 8216" d="M330.451,80.437H305.008a1.635,1.635,0,0,1-1.628-1.628V75.658a1.635,1.635,0,0,1,1.628-1.628h25.443a1.635,1.635,0,0,1,1.628,1.628V78.81A1.635,1.635,0,0,1,330.451,80.437Z" transform="translate(-83.27 -36.79)" fill="#366480"/>
      <path id="Path_8217" data-name="Path 8217" d="M351,173.435h-45.82a.6.6,0,0,1-.543-.644v-1.247a.6.6,0,0,1,.543-.644H351a.6.6,0,0,1,.543.644v1.247A.6.6,0,0,1,351,173.435Z" transform="translate(-84.168 -72.101)" fill="#366480"/>
      <path id="Path_8218" data-name="Path 8218" d="M351,161.925h-45.82a.6.6,0,0,1-.543-.644v-1.247a.6.6,0,0,1,.543-.644H351a.6.6,0,0,1,.543.644v1.247A.6.6,0,0,1,351,161.925Z" transform="translate(-84.168 -68.564)" fill="#366480"/>
      <path id="Path_8219" data-name="Path 8219" d="M351,184.545h-45.82a.6.6,0,0,1-.543-.644v-1.247a.6.6,0,0,1,.543-.644H351a.6.6,0,0,1,.543.644V183.9A.6.6,0,0,1,351,184.545Z" transform="translate(-84.168 -75.515)" fill="#366480"/>
      <path id="Path_8220" data-name="Path 8220" d="M342.818,195.665H305.274a.648.648,0,0,1-.644-.644v-1.247a.648.648,0,0,1,.644-.644h37.544a.647.647,0,0,1,.644.644v1.247A.647.647,0,0,1,342.818,195.665Z" transform="translate(-84.165 -78.932)" fill="#366480"/>
      <path id="Path_8221" data-name="Path 8221" d="M436.079,162.088H419.558c-.894,0-1.628-1.243-1.628-2.756V154c0-1.513.734-2.756,1.628-2.756h16.521c.894,0,1.628,1.243,1.628,2.756v5.336C437.706,160.856,436.979,162.088,436.079,162.088Z" transform="translate(-132.836 -61.903)" fill="#366480"/>
      <path id="Path_8222" data-name="Path 8222" d="M428.55,115.6H410.408a5.111,5.111,0,0,1-5.1-5.1v-9.885a5.111,5.111,0,0,1,5.1-5.1H428.55a5.111,5.111,0,0,1,5.1,5.1V110.5A5.116,5.116,0,0,1,428.55,115.6Z" transform="translate(-128.958 -53.785)" fill="#366480"/>
      <g id="Group_954" data-name="Group 954" transform="translate(349.577 28.373)">
        <path id="Path_8223" data-name="Path 8223" d="M595.838,108.3H495.63a3.674,3.674,0,0,1-3.58-3.741V68.971a3.674,3.674,0,0,1,3.58-3.741H595.838a3.674,3.674,0,0,1,3.58,3.741v35.584A3.667,3.667,0,0,1,595.838,108.3Z" transform="translate(-492.05 -65.23)" fill="#608398"/>
        <path id="Path_8225" data-name="Path 8225" d="M556.767,104.965H502.4a.647.647,0,0,1-.644-.644v-1.247a.647.647,0,0,1,.644-.644h54.363a.648.648,0,0,1,.644.644v1.247A.648.648,0,0,1,556.767,104.965Z" transform="translate(-492.263 -80.125)" fill="#366480"/>
        <path id="Path_8226" data-name="Path 8226" d="M539.948,116.075H502.4a.647.647,0,0,1-.644-.644v-1.247a.647.647,0,0,1,.644-.644h37.544a.647.647,0,0,1,.644.644v1.247A.643.643,0,0,1,539.948,116.075Z" transform="translate(-492.263 -83.539)" fill="#366480"/>
        <path id="Path_8227" data-name="Path 8227" d="M531.72,78.067H506.278a1.635,1.635,0,0,1-1.628-1.628V73.288a1.635,1.635,0,0,1,1.628-1.628H531.72a1.635,1.635,0,0,1,1.628,1.628V76.44A1.639,1.639,0,0,1,531.72,78.067Z" transform="translate(-495.922 -61.664)" fill="#366480"/>
        <path id="Path_8228" data-name="Path 8228" d="M578.117,78.067H553.478a1.635,1.635,0,0,1-1.628-1.628V73.288a1.635,1.635,0,0,1,1.628-1.628h24.639a1.635,1.635,0,0,1,1.628,1.628V76.44A1.635,1.635,0,0,1,578.117,78.067Z" transform="translate(-512.799 -61.664)" fill="#366480"/>
      </g>
      <g id="Group_955" data-name="Group 955" transform="translate(342.515 82.088)">
        <path id="Path_8229" data-name="Path 8229" d="M597.034,186.8,492.41,182.366a3.755,3.755,0,0,1-3.581-3.9l1.365-32.106a3.755,3.755,0,0,1,3.9-3.581l104.625,4.433a3.755,3.755,0,0,1,3.581,3.9l-1.365,32.106A3.755,3.755,0,0,1,597.034,186.8Z" transform="translate(-488.825 -142.775)" fill="#608398"/>
        <path id="Path_8230" data-name="Path 8230" d="M515.51,179.625l8.368-10.467a8.858,8.858,0,0,1,11.9-1.967l10.148,6.733a8.837,8.837,0,0,0,11.519-1.517l7.1-7.827a8.834,8.834,0,0,1,12.427-.824l9.358,8.056a8.965,8.965,0,0,0,14.242-3.741l3.415-8.541" transform="translate(-497.025 -147.924)" fill="none" stroke="#366480" stroke-linecap="round" stroke-miterlimit="10" stroke-width="2"/>
      </g>
      <g id="Group_956" data-name="Group 956" transform="translate(349.576 131.702)">
        <path id="Path_8231" data-name="Path 8231" d="M597.6,257.465H496.7a3.685,3.685,0,0,1-3.6-3.741V218.141a3.685,3.685,0,0,1,3.6-3.741H597.591a3.685,3.685,0,0,1,3.6,3.741v35.584A3.675,3.675,0,0,1,597.6,257.465Z" transform="translate(-493.1 -214.4)" fill="#608398"/>
        <path id="Path_8232" data-name="Path 8232" d="M557.817,243.005H503.454a.648.648,0,0,1-.644-.644v-1.247a.648.648,0,0,1,.644-.644h54.363a.647.647,0,0,1,.644.644v1.247A.647.647,0,0,1,557.817,243.005Z" transform="translate(-494.698 -229.338)" fill="#366480"/>
        <path id="Path_8233" data-name="Path 8233" d="M557.817,254.125H503.454a.648.648,0,0,1-.644-.644v-1.247a.647.647,0,0,1,.644-.644h54.363a.647.647,0,0,1,.644.644v1.247A.647.647,0,0,1,557.817,254.125Z" transform="translate(-494.698 -232.756)" fill="#366480"/>
        <path id="Path_8234" data-name="Path 8234" d="M541,265.235H503.454a.647.647,0,0,1-.644-.644v-1.247a.647.647,0,0,1,.644-.644H541a.647.647,0,0,1,.644.644v1.247A.647.647,0,0,1,541,265.235Z" transform="translate(-494.699 -236.17)" fill="#366480"/>
        <path id="Path_8235" data-name="Path 8235" d="M631.541,244.087H606.1a1.635,1.635,0,0,1-1.628-1.628v-3.152a1.635,1.635,0,0,1,1.628-1.628h25.443a1.635,1.635,0,0,1,1.628,1.628v3.152A1.639,1.639,0,0,1,631.541,244.087Z" transform="translate(-530.04 -228.481)" fill="#366480"/>
      </g>
      <g id="Group_957" data-name="Group 957" transform="translate(349.576 183.363)">
        <path id="Path_8236" data-name="Path 8236" d="M597.6,332.045H496.7a3.685,3.685,0,0,1-3.6-3.741V292.721a3.685,3.685,0,0,1,3.6-3.741H597.591a3.685,3.685,0,0,1,3.6,3.741V328.3A3.679,3.679,0,0,1,597.6,332.045Z" transform="translate(-493.1 -288.98)" fill="#608398"/>
        <path id="Path_8237" data-name="Path 8237" d="M557.817,317.585H503.454a.647.647,0,0,1-.644-.644v-1.247a.647.647,0,0,1,.644-.644h54.363a.647.647,0,0,1,.644.644v1.247A.647.647,0,0,1,557.817,317.585Z" transform="translate(-496.084 -296.992)" fill="#608398"/>
        <path id="Path_8238" data-name="Path 8238" d="M557.817,328.705H503.454a.648.648,0,0,1-.644-.644v-1.247a.648.648,0,0,1,.644-.644h54.363a.647.647,0,0,1,.644.644v1.247A.647.647,0,0,1,557.817,328.705Z" transform="translate(-496.084 -300.409)" fill="#608398"/>
        <path id="Path_8239" data-name="Path 8239" d="M541,339.815H503.454a.647.647,0,0,1-.644-.644v-1.247a.647.647,0,0,1,.644-.644H541a.647.647,0,0,1,.644.644v1.247A.647.647,0,0,1,541,339.815Z" transform="translate(-496.084 -303.823)" fill="#608398"/>
        <path id="Path_8240" data-name="Path 8240" d="M532.771,301.807H507.328a1.635,1.635,0,0,1-1.628-1.628v-3.152a1.635,1.635,0,0,1,1.628-1.628h25.443a1.635,1.635,0,0,1,1.628,1.628v3.152A1.639,1.639,0,0,1,532.771,301.807Z" transform="translate(-496.972 -290.953)" fill="#608398"/>
      </g>
      <path id="Path_8241" data-name="Path 8241" d="M135.67,223.14l-26.08,18.647h52.153Z" transform="translate(-29.769 -85.383)" fill="#addce9"/>
      <path id="Path_8242" data-name="Path 8242" d="M170.177,208.89,134.96,237.408h70.433Z" transform="translate(-37.566 -81.004)" fill="#3861ab"/>
      <circle id="Ellipse_114" data-name="Ellipse 114" cx="6.428" cy="6.428" r="6.428" transform="translate(96.577 111.808)" fill="#fff"/>
      <path id="Path_8625" data-name="Path 8625" d="M266.978,333.435s-.657-5.172-5.825-4.339c2.471-7.931-9.728-7.019-7.641,0-4.27-3.661-6.067-2.182-6.067-2.182s6.292-10.567-2.921-14.9c.45-7.786-13.933-7.929-13.259,1.284-7.191-5.393-11.012.9-11.012.9s-10.093-9.066-17.181,1.648,3.064,15.031,3.064,15.031Z" transform="translate(221.631 -18.635)" fill="#269a1d"/>
      <path id="Path_8244" data-name="Path 8244" d="M157.9,292.9H103.534a.647.647,0,0,1-.644-.644V291a.647.647,0,0,1,.644-.644H157.9a.647.647,0,0,1,.644.644v1.247A.647.647,0,0,1,157.9,292.9Z" transform="translate(-26.325 -109.504)" fill="#366480"/>
      <path id="Path_8246" data-name="Path 8246" d="M157.9,330.135H103.534a.647.647,0,0,1-.644-.644v-1.247a.647.647,0,0,1,.644-.644H157.9a.647.647,0,0,1,.644.644v1.247A.647.647,0,0,1,157.9,330.135Z" transform="translate(-26.325 -140.344)" fill="#366480"/>
      <path id="Path_8247" data-name="Path 8247" d="M157.9,341.255H103.534a.647.647,0,0,1-.644-.644v-1.247a.648.648,0,0,1,.644-.644H157.9a.647.647,0,0,1,.644.644v1.247A.647.647,0,0,1,157.9,341.255Z" transform="translate(-26.325 -143.761)" fill="#366480"/>
      <path id="Path_8248" data-name="Path 8248" d="M157.9,352.365H103.534a.648.648,0,0,1-.644-.644v-1.247a.647.647,0,0,1,.644-.644H157.9a.647.647,0,0,1,.644.644v1.247A.647.647,0,0,1,157.9,352.365Z" transform="translate(-26.325 -124.316)" fill="#366480"/>
      <path id="Path_8249" data-name="Path 8249" d="M157.9,363.485H103.534a.647.647,0,0,1-.644-.644v-1.247a.647.647,0,0,1,.644-.644H157.9a.647.647,0,0,1,.644.644v1.247A.647.647,0,0,1,157.9,363.485Z" transform="translate(-26.325 -127.733)" fill="#366480"/>
      <path id="Path_8250" data-name="Path 8250" d="M140.4,345.771H122.258a5.111,5.111,0,0,1-5.1-5.1V314.2a5.111,5.111,0,0,1,5.1-5.1H140.4a5.111,5.111,0,0,1,5.1,5.1v26.475A5.111,5.111,0,0,1,140.4,345.771Z" transform="translate(-32.096 -111.8)" fill="#84cee2"/>
      <path id="Path_8693" data-name="Path 8693" d="M447.488,223.353l26.826,91.854h-3.6s-30.138.749-42.806,0-9.628,0-9.628,0l22.1-91.626A3.676,3.676,0,0,1,447.488,223.353Z" transform="translate(-391.424 -6.231)" fill="#617e40"/>
      <path id="Path_8322" data-name="Path 8322" d="M454.8,224l33.469,114.6H483.78s-37.6.934-53.406,0-12.013,0-12.013,0l27.572-114.316A4.587,4.587,0,0,1,454.8,224Z" transform="translate(-378.835 -30.421)" fill="#71904e"/>
      <g id="Group_960" data-name="Group 960" transform="translate(292.388 73.725)">
        <g id="Group_958" data-name="Group 958" transform="translate(0 45.917)">
          <line id="Line_53" data-name="Line 53" x1="41.292" y2="195.181" transform="translate(43.799 4.128)" fill="none" stroke="#8fba5c" stroke-linecap="round" stroke-miterlimit="10" stroke-width="3"/>
          <path id="Path_8251" data-name="Path 8251" d="M457.752,196.99,420.069,375.137l-3.609,17.026" transform="translate(-416.46 -196.99)" fill="none" stroke="#8fba5c" stroke-linecap="round" stroke-miterlimit="10" stroke-width="3" fill-rule="evenodd"/>
          <line id="Line_54" data-name="Line 54" x1="43.771" transform="translate(3.325 178.653)" fill="none" stroke="#8fba5c" stroke-linecap="round" stroke-miterlimit="10" stroke-width="3"/>
          <line id="Line_55" data-name="Line 55" x1="42.712" transform="translate(8.79 160.22)" fill="none" stroke="#8fba5c" stroke-linecap="round" stroke-miterlimit="10" stroke-width="3"/>
        </g>
        <line id="Line_56" data-name="Line 56" x1="42.712" transform="translate(12.406 187.705)" fill="none" stroke="#8fba5c" stroke-linecap="round" stroke-miterlimit="10" stroke-width="3"/>
        <line id="Line_57" data-name="Line 57" x1="42.712" transform="translate(16.022 169.279)" fill="none" stroke="#8fba5c" stroke-linecap="round" stroke-miterlimit="10" stroke-width="3"/>
        <line id="Line_58" data-name="Line 58" x1="42.712" transform="translate(19.645 150.846)" fill="none" stroke="#8fba5c" stroke-linecap="round" stroke-miterlimit="10" stroke-width="3"/>
        <line id="Line_59" data-name="Line 59" x1="44.748" transform="translate(23.261 132.414)" fill="none" stroke="#8fba5c" stroke-linecap="round" stroke-miterlimit="10" stroke-width="3"/>
        <line id="Line_60" data-name="Line 60" x1="44.748" transform="translate(27.05 113.981)" fill="none" stroke="#8fba5c" stroke-linecap="round" stroke-miterlimit="10" stroke-width="3"/>
        <line id="Line_61" data-name="Line 61" x1="44.748" transform="translate(30.839 95.549)" fill="none" stroke="#8fba5c" stroke-linecap="round" stroke-miterlimit="10" stroke-width="3"/>
        <line id="Line_62" data-name="Line 62" x1="44.755" transform="translate(34.628 77.123)" fill="none" stroke="#8fba5c" stroke-linecap="round" stroke-miterlimit="10" stroke-width="3"/>
        <line id="Line_63" data-name="Line 63" x1="45.856" transform="translate(37.406 58.69)" fill="none" stroke="#8fba5c" stroke-linecap="round" stroke-miterlimit="10" stroke-width="3"/>
        <g id="Group_959" data-name="Group 959" transform="translate(32.273)">
          <g id="Head_x2F_Front_x2F_Short-2" transform="translate(3.523)">
            <g id="Head_6_" transform="translate(1.573 2.01)">
              <path id="Path_8252" data-name="Path 8252" d="M419.353,112.971a7.839,7.839,0,0,1-2.923-5.216c-.527-6.158,8.16-6.151,10.293-3.332s3.159,10.647,1.115,11.526c-.817.353-2.708.1-4.731-.72l2.445,8-6.83,1.074Z" transform="translate(-416.407 -102.604)" fill="#b18b67" fill-rule="evenodd"/>
            </g>
            <path id="Hair_2_" d="M472.343,144.534c-1.455-3.678-4.309-5.895-4.2-7.661a2.611,2.611,0,0,1,1.656-2.431q.3-3.512,4.939-3.72c4.634-.208,7.71,1.247,7.162,5.6a9.774,9.774,0,0,0-4.232.956c-.547.312-.866,1.046-.935,2.217l-.831.132q-1.527-1.818-2.618-1.1c-.727.478-.776,1.372-.132,2.674l.083,3.207Z" transform="translate(-468.136 -130.702)" fill="#0c0c0c" fill-rule="evenodd"/>
          </g>
          <g id="humaaan-10" transform="translate(0 7.374)">
            <g id="Bottom_x2F_Standing_x2F_Sprint" transform="translate(0 34.715)">
              <path id="Leg_7_" d="M440-21.26c-.333,6.435,27.41,29,27.521,29.543q.073.364-12.157,21.03l2.5,1.351q17.456-21.321,17.02-23.877-.623-3.668-20.441-26.163Z" transform="translate(-432.414 21.288)" fill="#b18b67" fill-rule="evenodd"/>
              <path id="Pant_7_" d="M456.316,26.094l4.1,2.106c10.342-9.081,14.955-17.075,14.844-21.453q-.1-4.374-20.365-26.115L439.539-21.3C438.209-6.462,464.732,7.994,465.03,8.673S460.874,15.053,456.316,26.094Z" transform="translate(-432.258 21.3)" fill="#0f1626" fill-rule="evenodd"/>
              <g id="Accessories_x2F_Shoe_x2F_Flat-Sneaker" transform="matrix(0.94, 0.342, -0.342, 0.94, 23.679, 47.223)">
                <path id="shoe_5_" d="M.076,2.706A5.513,5.513,0,0,0,.069,4.514,12.955,12.955,0,0,0,.79,6.461q.8-.2,14.311-3.505c.069-1.323-.3-1.933-1.129-1.836s-1.51.173-2.064.222L4.53,0a.265.265,0,0,0-.3.208V.219L4.052,1.362a4.8,4.8,0,0,1-1.683.963A4.179,4.179,0,0,1,.7,2.249h0a.52.52,0,0,0-.61.416A.068.068,0,0,0,.076,2.706Z" transform="translate(0 0)" fill="#5b5b5c" fill-rule="evenodd"/>
              </g>
              <path id="Leg_6_" d="M438.925-16.677l-4.059,34.919L429.65,48.27l3.013-.866,16.479-67Z" transform="translate(-429.234 20.778)" fill="#9a7759" fill-rule="evenodd"/>
              <g id="Accessories_x2F_Shoe_x2F_Flat-Sneaker_1_" transform="translate(0.027 64.96)">
                <path id="shoe_3_" d="M404.531-133.563a5.692,5.692,0,0,0-.471,1.739,13.433,13.433,0,0,0,.194,2.064q.821.021,14.727.3c.409-1.261.2-1.946-.623-2.064s-1.5-.222-2.05-.312l-6.782-3.193a.258.258,0,0,0-.346.125v.007l-.464,1.06a4.761,4.761,0,0,1-1.87.5,4.137,4.137,0,0,1-1.6-.506h0a.527.527,0,0,0-.7.242A.1.1,0,0,0,404.531-133.563Z" transform="translate(-404.059 135.057)" fill="#5b5b5c" fill-rule="evenodd"/>
              </g>
              <path id="Pant_6_" d="M429.05,42.317l7.052-.665c3-9.1,15.724-46.5,13.937-61.712l-14.907,4.267C430.214-3.013,431.765,33.167,429.05,42.317Z" transform="translate(-429.05 20.919)" fill="#152138" fill-rule="evenodd"/>
            </g>
            <g id="Body_x2F_Pointing-Up" transform="translate(2.249)">
              <path id="Path_8253" data-name="Path 8253" d="M446.9,45.734l9.524-4.025a22.467,22.467,0,0,1,4.856-3.7c.464-.139,1.254-.173.395,1.046s-1.711,2.535-1.378,2.972,1.309-.028,1.683.679q.374.707-4.946,1.607l-7.162,5.334Z" transform="translate(-420.906 -37.943)" fill="#b18b67" fill-rule="evenodd"/>
              <path id="Path_8254" data-name="Path 8254" d="M447.767,74.38l8.943,5.181a22.429,22.429,0,0,1,5.874,1.649c.388.284.893.894-.6.942s-3.055.159-3.2.686.81,1.032.471,1.753q-.343.727-4.26-2.986L446.43,79.09Z" transform="translate(-420.761 -49.141)" fill="#b18b67" fill-rule="evenodd"/>
              <path id="Coat-Back_1_" d="M425.644,52.74c5.424,7.924,12.642,13.66,22.831,19.34l-3.145,4.426c-10.986-2.778-16.812-4.544-20.414-12.191-.9-1.919-2.071-8.222-2.847-11.526Z" transform="translate(-413.275 -42.491)" fill="#007186" fill-rule="evenodd"/>
              <path id="Shirt_2_" d="M413.358,81.659l20-2.168Q424.317,59.51,423.333,51.8c-.035-.263-.568-.672-.776-.589a7.438,7.438,0,0,1-5.091.048C413.552,59.4,412.929,68.969,413.358,81.659Z" transform="translate(-410.562 -42.019)" fill="#f2f2f2" fill-rule="evenodd"/>
              <path id="Coat-Front_1_" d="M417.981,48.76c5.736-.575,15.149-.533,25.5-5.14l1.635,5.174c-7.537,6.1-15.309,11.021-22.561,11.229,4.579,13.057,5.618,24.037-1.275,24.785q-4.936.54-10.661,1.157c-2.93-11.194-.187-27.458,3.076-35.861a1.422,1.422,0,0,1,1.191-1.018c.686-.076,1.718-.187,3.1-.339Z" transform="translate(-409.373 -39.688)" fill="#10afbe" fill-rule="evenodd"/>
            </g>
          </g>
        </g>
      </g>
      <path id="Path_8255" data-name="Path 8255" d="M559.7,323.831l-23.586,7.142a1.635,1.635,0,0,1-2.03-1.088L526.16,303.7a1.635,1.635,0,0,1,1.088-2.03l23.586-7.142a1.635,1.635,0,0,1,2.029,1.088l7.925,26.184A1.632,1.632,0,0,1,559.7,323.831Z" transform="translate(-148.526 -99.485)" fill="#84cee2"/>
      <g id="humaaans_x2F_standing-10" transform="translate(21.999 199.792)">
        <g id="A-Human_x2F_Standing" transform="translate(0)">
          <g id="Head_x2F_Front_x2F_Chongo" transform="translate(33.967)">
            <g id="Head_7_" transform="translate(4.21 7.564)">
              <path id="Path_8256" data-name="Path 8256" d="M-92.456,275.275a7.6,7.6,0,0,1-2.016-5.452c.423-5.992,8.763-4.676,10.383-1.649s1.427,10.7-.665,11.236c-.838.215-2.618-.312-4.433-1.406l1.136,8.056H-94.77Z" transform="translate(94.77 -265.616)" fill="#925c3d" fill-rule="evenodd"/>
            </g>
            <path id="hair_1_" d="M-34.609,292.522a8.924,8.924,0,0,0-2.812-.312,4.826,4.826,0,0,0,.339-2.445,7.223,7.223,0,0,0-.8-2.21,2.957,2.957,0,0,0-.589-.914,2.024,2.024,0,0,0-.949-.513,2.537,2.537,0,0,0-1.094,0c-.159.035-.3.1-.457.145s-.236-.055-.353-.159a1.966,1.966,0,0,0-1.039-.4,2.652,2.652,0,0,0-1.184.145,2.356,2.356,0,0,0-.991.63,1.642,1.642,0,0,0-.3.45c-.028.069-.035.111-.1.132s-.139.021-.2.049a2.566,2.566,0,0,0-1.475,1.337,4.13,4.13,0,0,0-.229,1.739,7.534,7.534,0,0,0,1.288,3.3,4.078,4.078,0,0,0,2.127,1.2,6.043,6.043,0,0,0-1.108,2.071,10,10,0,0,0-.506,2.514,8.263,8.263,0,0,0,.125,2.48,2.712,2.712,0,0,0,1.2,1.753,5.67,5.67,0,0,0,.928.436,6.4,6.4,0,0,0,.956.3,1.922,1.922,0,0,0,1.808-.388,3.454,3.454,0,0,0,.485-.617c.048-.076.069-.132.021-.208a1.666,1.666,0,0,0-.256-.236,2.425,2.425,0,0,1-.852-1.6,1.693,1.693,0,0,1,.741-1.787,2.747,2.747,0,0,1,2.355.43,3.83,3.83,0,0,1,1.863-2.473c1.06-.533,2.272-.6,3.36-1.053a1.992,1.992,0,0,0,.783-.5,1,1,0,0,0,.222-.367c.048-.173-.069-.326-.152-.464A8.709,8.709,0,0,0-34.609,292.522Z" transform="translate(46.848 -285.696)" fill="#010202" fill-rule="evenodd"/>
          </g>
          <g id="Bottom_x2F_Standing_x2F_Jogging" transform="translate(0 51.248)">
            <path id="Leg_11_" d="M38.8,172.68l20.815,34.794,15.6,29.412h3.36L52.432,172.68Z" transform="translate(-2.306 -172.68)" fill="#794a32" fill-rule="evenodd"/>
            <g id="Accessories_x2F_Shoe_x2F_Flat-Sneaker_5_" transform="translate(70.38 61.148)">
              <path id="shoe_7_" d="M-161.809,63.656a6.077,6.077,0,0,0-.471,1.877,14.208,14.208,0,0,0,.249,2.21h15.793c.409-1.358.173-2.092-.714-2.2s-1.621-.208-2.2-.291l-7.343-3.276a.279.279,0,0,0-.367.139v.007l-.471,1.143a5.05,5.05,0,0,1-1.995.575,4.48,4.48,0,0,1-1.725-.506h0a.552.552,0,0,0-.741.277A.1.1,0,0,1-161.809,63.656Z" transform="translate(162.28 -61.955)" fill="#e4e4e3" fill-rule="evenodd"/>
            </g>
            <path id="Pant_9_" d="M69.345,232.179l6.484-1.96Q71.569,217.49,65.39,202.2T52.111,172.69H33.81a287.247,287.247,0,0,0,16.729,32.688A221.513,221.513,0,0,0,69.345,232.179Z" transform="translate(-0.773 -172.683)" fill="#0f1626" fill-rule="evenodd"/>
            <path id="Leg_10_" d="M22.7,172.68c-1.967,12.226-5.749,27.846-6.11,28.324q-.353.478-25.741,8.624l.727,2.965q30.267-4.364,31.9-6.775c1.628-2.411,9.767-21.446,12.919-33.139Z" transform="translate(12.429 -172.68)" fill="#925c3d" fill-rule="evenodd"/>
            <path id="Pant_8_" d="M-.56,207.072l1.281,4.773q22.641,1.985,27.742-2.868T40.1,172.68H22.645q-4.135,25.747-4.627,26.828T-.56,207.072Z" transform="translate(9.789 -172.68)" fill="#152138" fill-rule="evenodd"/>
            <g id="Accessories_x2F_Shoe_x2F_Flat-Sneaker_4_" transform="translate(5.693 34.96) rotate(80)">
              <path id="shoe_6_" d="M.471,1.694A6.077,6.077,0,0,0,0,3.571,14.208,14.208,0,0,0,.249,5.78H16.043c.409-1.358.173-2.092-.713-2.2s-1.621-.208-2.2-.291L5.784.024a.279.279,0,0,0-.367.139V.17L4.946,1.313a5.05,5.05,0,0,1-1.995.575,4.481,4.481,0,0,1-1.725-.506h0a.552.552,0,0,0-.741.277A.117.117,0,0,1,.471,1.694Z" transform="translate(0 0)" fill="#e4e4e3" fill-rule="evenodd"/>
            </g>
          </g>
          <g id="Body_x2F_Pointing-Forward" transform="translate(27.873 21.836)">
            <path id="Skin_1_" d="M37.28,248.854,47,243.527c1.593-2.487,2.376-2.992,2.785-2.847.623.222.242,1.919,1.385,2.764.824.61,1.739.339,1.87.54q.478.717-5.105,2.251l-7.065,6.47Zm15.225,4.5L56.772,251c.6-2.279,1.316-3.429,2.147-3.443.637-.3-.478,2.584.741,2.334s4.177-2.452,4.683-2c.755.665.083,2.695-.713,3.706-1.482,1.891-2.708,2.535-5.742,3.38a16.714,16.714,0,0,0-5.147,2.66Z" transform="translate(-14.473 -236.891)" fill="#925c3d" fill-rule="evenodd"/>
            <path id="Sleeve_1_" d="M29.95,249.081a23.849,23.849,0,0,0,12.787-3.831l1.9,4.246c-3.339,3.318-8.042,6.04-12.15,5.923A3.712,3.712,0,0,1,29.95,249.081Z" transform="translate(-11.881 -238.302)" fill="#e9b949" fill-rule="evenodd"/>
            <path id="Clothes_2_" d="M27.009,252.8q5.424,1.351,18.183-3.186,3.169,6.546,2.93,9.337c-7.3,3.81-13.556,5.514-18.71,5.625a17.654,17.654,0,0,1-1.462,8.624c-2.57,5.465-17.622.4-22.686,1.4-3.173-10.294,2.958-14.477,2.965-21.065.007-7.211,5.8-18.315,6.65-18.315h7.772C23.082,240.734,25.236,246.809,27.009,252.8Z" transform="translate(-4.355 -235.22)" fill="#feca44" fill-rule="evenodd"/>
          </g>
        </g>
      </g>
      <g id="humaaans_x2F_standing-13" transform="translate(396.642 203.29)">
        <g id="Bottom_x2F_Standing_x2F_Baggy-Pants" transform="translate(3.786 49.642)">
          <path id="Leg_17_" d="M596.9,378.13l-12.378,31.337-8.305,26.489H572.94l12.69-57.826Z" transform="translate(-563.351 -378.13)" fill="#9a7759" fill-rule="evenodd"/>
          <path id="Leg_16_" d="M605.657,378.13c.132,11.014,2.057,25.837,2.362,26.523q.312.686,21.2,17.456l-2.258,2.417q-24.656-14.38-25.8-16.3c-1.143-1.919-4.856-19.562-7.841-30.1Z" transform="translate(-569.614 -378.13)" fill="#b18b67" fill-rule="evenodd"/>
          <g id="Accessories_x2F_Shoe_x2F_Flat-Sneaker_11_" transform="matrix(0.643, 0.766, -0.766, 0.643, 60.111, 42.109)">
            <path id="shoe_13_" d="M.687.838A5.582,5.582,0,0,1,2.28.125a13.586,13.586,0,0,1,2-.125q.135.779,2.473,14.013c-1.136.575-1.829.478-2.057-.284s-.436-1.406-.6-1.912l-4.052-6a.256.256,0,0,1,.069-.353.007.007,0,0,0,.007-.007l.942-.6a4.511,4.511,0,0,0,.194-1.856A4.069,4.069,0,0,0,.541,1.559h0a.5.5,0,0,1,.132-.7C.666.845.673.838.687.838Z" transform="translate(0 0)" fill="#e4e4e3" fill-rule="evenodd"/>
          </g>
          <g id="Accessories_x2F_Shoe_x2F_Flat-Sneaker_10_" transform="translate(0 55.062)">
            <path id="shoe_12_" d="M365.306,260.157a5.364,5.364,0,0,1,.423,1.69,12.528,12.528,0,0,1-.229,1.988H351.272c-.367-1.219-.159-1.884.637-1.981s1.462-.187,1.988-.263l6.615-2.951a.254.254,0,0,1,.333.125v.007l.423,1.032a4.472,4.472,0,0,0,1.794.513,4.041,4.041,0,0,0,1.552-.457h0a.5.5,0,0,1,.672.249C365.3,260.137,365.3,260.151,365.306,260.157Z" transform="translate(-351.097 -258.619)" fill="#e4e4e3" fill-rule="evenodd"/>
          </g>
          <path id="Pant_13_" d="M588.6,433.227l-15.586-1.69,11.554-53.407h13.958Z" transform="translate(-563.372 -378.13)" fill="#6aa2ad" fill-rule="evenodd"/>
          <path id="Pant_12_" d="M625.47,418.209l-10.224,12.1q-16.157-17.643-18.834-23.025T591.59,378.13h15.717q1.164,20.916,1.573,21.889T625.47,418.209Z" transform="translate(-569.082 -378.13)" fill="#8ac5cc" fill-rule="evenodd"/>
        </g>
        <g id="humaaan-5" transform="translate(0 0)">
          <g id="Head_x2F_Front_x2F_Long" transform="matrix(0.966, -0.259, 0.259, 0.966, 25.846, 4.594)">
            <path id="Hair-Back" d="M6.987,2.109C4.493,4.561-.446,10.643.032,12.312l6.788,3.921c.007-.014.014-.021.021-.035A5.81,5.81,0,0,0,14.2,13.781l2.764-4.787a5.81,5.81,0,0,0-2.127-7.938l-.471-.27A5.8,5.8,0,0,0,6.987,2.109Z" transform="translate(0 0)" fill="#222046" fill-rule="evenodd"/>
            <g id="Head_9_" transform="translate(3.229 0.951)">
              <path id="Path_8257" data-name="Path 8257" d="M8.853,10.415a7.216,7.216,0,0,0,4.295-3.54c2.514-5.167-5.091-8.1-7.9-6.38S-1.06,8.669.429,10.131c.6.582,2.341,1,4.378.977L0,17.231l5.618,3.242Z" transform="translate(0 0)" fill="#b18b67" fill-rule="evenodd"/>
            </g>
            <path id="Hair-Front" d="M3.266,9.356C1.416,11.96-.3,15.168.045,16.366l6.788,3.921c4.142-6.3-.97-5.888,2.57-12.018-.1-.353-.187-.693-.291-1l.111-.173Q9.524,2.5,6.812.926A5.137,5.137,0,0,0,1.181.76c-.526,2.168,1.434,3.664,2.646,5.9a1.524,1.524,0,0,1,.977.18A1.474,1.474,0,1,1,3.335,9.4.258.258,0,0,0,3.266,9.356Z" transform="translate(7.78 0.296)" fill="#222046" fill-rule="evenodd"/>
          </g>
          <g id="Body_x2F_Pointing-Forward_2_" transform="translate(0 17.619) rotate(-10)">
            <path id="Skin_3_" d="M25.028,13.942,17.956,5.928A23.435,23.435,0,0,0,15.088.31C14.721-.03,14-.418,14.25,1.1s.45,3.117-.048,3.373-1.212-.617-1.877-.132q-.665.488,3.893,3.72L20.5,16.228Zm-15.288-.97-3.1-3.526c.208-2.258-.069-3.526-.817-3.817C5.335,5.152,5.4,8.116,4.386,7.493S1.407,3.9.8,4.133c-.9.346-.956,2.4-.575,3.581.727,2.2,1.628,3.179,4.1,4.946a16.082,16.082,0,0,1,3.8,4.1Z" transform="translate(0 0)" fill="#9a7759" fill-rule="evenodd"/>
            <path id="Sleeve_3_" d="M13.459,7.682A23.112,23.112,0,0,1,3.117,0L0,3.2c1.94,4.094,5.306,8.1,9.074,9.358A3.557,3.557,0,0,0,13.459,7.682Z" transform="translate(16.259 6.752)" fill="#e4c2b6" fill-rule="evenodd"/>
            <path id="Clothes_3_" d="M21.169,14.422q-5.361-.571-15.447-8.88Q.7,10.4,0,13c5.368,5.853,10.487,9.448,15.122,11.256a16.907,16.907,0,0,0-1.51,8.271c.533,5.784,15.856,6.186,20.116,8.756,6.255-8.243,2.071-14.048,4.232-19.991,2.362-6.511.762-18.446-.014-18.73L30.894,0C28.7,4.821,24.75,9.587,21.169,14.422Z" transform="translate(2.149 4.646)" fill="#f8b094" fill-rule="evenodd"/>
          </g>
        </g>
      </g>
    </g>
  </g>
</svg>
