<svg xmlns="http://www.w3.org/2000/svg" width="607.146" height="364.402" viewBox="0 0 607.146 364.402">
  <g id="design-illustration" transform="translate(-17.557)">
    <path id="Path_8700" data-name="Path 8700" d="M12507.979,1652.709s142.376-.3,273.281,0c97.872.225,180.759,1.392,239.536,0,137.654-3.261,14.194-18-27.458-13.045s-170.53-7.544-215.923,0-114.82-5.847-147.813-10.857c-19.267-2.926-118.236,2.254-147.391,14.965C12461.738,1652.7,12507.979,1652.709,12507.979,1652.709Z" transform="translate(-12459.424 -1291.668)" fill="#715c3b"/>
    <path id="Path_8076" data-name="Path 8076" d="M12.287,76.729S-1.315,69.066.1,59.084,6.288,43.829,2.957,32.8s5.736-9.978,6.791-17.21S6.867,1.234,16.625.083,26.75,10.045,23.87,15.589s3.976,11.725,4.386,14.929-5,7.588-4.386,15.433,7.314,12.367,4.386,17.683S12.287,76.729,12.287,76.729Z" transform="matrix(0.996, 0.087, -0.087, 0.996, 552.231, 270.226)" fill="#c1d55b"/>
    <path id="Path_8065" data-name="Path 8065" d="M14.871,91.011S-1.591,81.921.126,70.082,7.61,51.987,3.578,38.9,10.521,27.069,11.8,18.49,8.311,1.463,20.122.1,32.376,11.914,28.889,18.49,33.7,32.4,34.2,36.2s-6.057,9-5.309,18.306S37.743,69.173,34.2,75.478,14.871,91.011,14.871,91.011Z" transform="matrix(0.985, -0.174, 0.174, 0.985, 527.463, 260.8)" fill="#269a1d"/>
    <path id="Path_8064" data-name="Path 8064" d="M12507.8,1655.8h543.184s-38.658-14.669-81.723-11.418-33.762,12.734-76.643,4.007-57.479-17.512-104.412-12.563-118.721-3.836-152.834-7.122S12507.8,1655.8,12507.8,1655.8Z" transform="translate(-12480.624 -1305.779)" fill="#71904e"/>
    <g id="Group_961" data-name="Group 961" transform="translate(139.686)">
      <path id="Path_8258" data-name="Path 8258" d="M465.773,272.667H144.6a9.53,9.53,0,0,1-9.5-9.5V37.862a9.53,9.53,0,0,1,9.5-9.5H465.773a9.53,9.53,0,0,1,9.5,9.5v225.3A9.53,9.53,0,0,1,465.773,272.667Z" transform="translate(-135.1 -28.36)" fill="#366480"/>
    </g>
    <g id="Group_962" data-name="Group 962" transform="translate(315.024 154.597)">
      <path id="Path_8261" data-name="Path 8261" d="M360.806,322.868H493.424c2.352,0,4.276-2.767,4.276-6.15V257.33c0-3.382-1.924-6.15-4.276-6.15H360.806c-2.352,0-4.276,2.767-4.276,6.15v59.389C356.53,320.1,358.454,322.868,360.806,322.868Z" transform="translate(-356.53 -251.18)" fill="#608398"/>
      <path id="Path_8262" data-name="Path 8262" d="M471.679,294.612l-5.989-13.181c-3.739-7.807-8.724-8.425-13.713-5.408l-13.113,7.926a11.129,11.129,0,0,1-14.4-2.518l-8.5-10.215a11.127,11.127,0,0,0-15.576-1.7l-12.194,9.629c-6.153,4.862-15.037,2.122-17.706-5.464l-3.84-10.919" transform="translate(-358.635 -243.514)" fill="none" stroke="#f39ea7" stroke-linecap="round" stroke-miterlimit="10" stroke-width="2"/>
    </g>
    <path id="Path_8263" data-name="Path 8263" d="M310.2,118.686,199.766,151.564a5.9,5.9,0,0,1-7.34-3.975l-17.88-60.045a5.9,5.9,0,0,1,3.975-7.34L288.959,47.325A5.9,5.9,0,0,1,296.3,51.3l17.88,60.045A5.9,5.9,0,0,1,310.2,118.686Z" transform="translate(-3.574 -32.257)" fill="#608398"/>
    <g id="Group_965" data-name="Group 965" transform="translate(86.777 47.991)">
      <g id="Group_963" data-name="Group 963" transform="translate(0 52.304)">
        <path id="Path_8489" data-name="Path 8489" d="M41.381,0-11.688,255.384" transform="translate(58.088 4.165)" fill="none" stroke="#8fba5c" stroke-linecap="round" stroke-width="3"/>
        <path id="Path_8264" data-name="Path 8264" d="M126.957,155.02,71.625,414.138" transform="translate(-71.625 -155.02)" fill="none" stroke="#8fba5c" stroke-linecap="round" stroke-miterlimit="10" stroke-width="3" fill-rule="evenodd"/>
        <line id="Line_65" data-name="Line 65" x1="44.114" transform="translate(17.07 180.041)" fill="none" stroke="#8fba5c" stroke-linecap="round" stroke-miterlimit="10" stroke-width="3"/>
        <line id="Line_66" data-name="Line 66" x1="43.037" transform="translate(22.582 161.472)" fill="none" stroke="#8fba5c" stroke-linecap="round" stroke-miterlimit="10" stroke-width="3"/>
        <line id="Line_78" data-name="Line 78" x1="44.114" transform="translate(9.222 217.319)" fill="none" stroke="#8fba5c" stroke-linecap="round" stroke-miterlimit="10" stroke-width="3"/>
        <line id="Line_79" data-name="Line 79" x1="43.037" transform="translate(14.734 198.75)" fill="none" stroke="#8fba5c" stroke-linecap="round" stroke-miterlimit="10" stroke-width="3"/>
        <line id="Line_81" data-name="Line 81" x1="43.037" transform="translate(6.886 235.048)" fill="none" stroke="#8fba5c" stroke-linecap="round" stroke-miterlimit="10" stroke-width="3"/>
      </g>
      <line id="Line_67" data-name="Line 67" x1="43.045" transform="translate(26.224 195.2)" fill="none" stroke="#8fba5c" stroke-linecap="round" stroke-miterlimit="10" stroke-width="3"/>
      <line id="Line_68" data-name="Line 68" x1="43.045" transform="translate(29.867 176.623)" fill="none" stroke="#8fba5c" stroke-linecap="round" stroke-miterlimit="10" stroke-width="3"/>
      <line id="Line_69" data-name="Line 69" x1="43.045" transform="translate(33.517 158.055)" fill="none" stroke="#8fba5c" stroke-linecap="round" stroke-miterlimit="10" stroke-width="3"/>
      <line id="Line_70" data-name="Line 70" x1="45.103" transform="translate(37.159 139.478)" fill="none" stroke="#8fba5c" stroke-linecap="round" stroke-miterlimit="10" stroke-width="3"/>
      <line id="Line_71" data-name="Line 71" x1="45.095" transform="translate(40.984 120.901)" fill="none" stroke="#8fba5c" stroke-linecap="round" stroke-miterlimit="10" stroke-width="3"/>
      <line id="Line_72" data-name="Line 72" x1="45.095" transform="translate(44.801 102.333)" fill="none" stroke="#8fba5c" stroke-linecap="round" stroke-miterlimit="10" stroke-width="3"/>
      <line id="Line_73" data-name="Line 73" x1="45.095" transform="translate(48.625 83.756)" fill="none" stroke="#8fba5c" stroke-linecap="round" stroke-miterlimit="10" stroke-width="3"/>
      <line id="Line_74" data-name="Line 74" x1="46.22" transform="translate(51.413 65.179)" fill="none" stroke="#8fba5c" stroke-linecap="round" stroke-miterlimit="10" stroke-width="3"/>
      <g id="Group_964" data-name="Group 964" transform="translate(38.569)">
        <g id="Head_x2F_Front_x2F_Chongo_1_" transform="translate(2.9)">
          <g id="Head_10_" transform="translate(4.812 8.639)">
            <path id="Path_8265" data-name="Path 8265" d="M-6.617,79.917a8.692,8.692,0,0,1-2.3-6.232C-8.439,66.836,1.1,68.341,2.948,71.8S4.579,84.035,2.18,84.653c-.958.245-2.993-.356-5.068-1.607l1.3,9.209H-9.27Z" transform="translate(9.27 -68.876)" fill="#b18b67" fill-rule="evenodd"/>
          </g>
          <path id="hair_2_" d="M52.642,96.769a10.2,10.2,0,0,0-3.215-.356,5.517,5.517,0,0,0,.388-2.8,8.259,8.259,0,0,0-.911-2.526,3.381,3.381,0,0,0-.673-1.045,2.313,2.313,0,0,0-1.085-.586,2.9,2.9,0,0,0-1.251,0c-.182.04-.348.119-.523.166s-.269-.063-.4-.182a2.247,2.247,0,0,0-1.188-.459,3.032,3.032,0,0,0-1.354.166,2.693,2.693,0,0,0-1.132.721,1.878,1.878,0,0,0-.34.515c-.032.079-.04.127-.119.15s-.158.024-.23.055a2.933,2.933,0,0,0-1.687,1.528,4.721,4.721,0,0,0-.261,1.988,8.612,8.612,0,0,0,1.473,3.777,4.662,4.662,0,0,0,2.431,1.37,6.909,6.909,0,0,0-1.267,2.368,11.437,11.437,0,0,0-.578,2.874,9.447,9.447,0,0,0,.143,2.835,3.1,3.1,0,0,0,1.37,2,6.487,6.487,0,0,0,1.061.5,7.321,7.321,0,0,0,1.093.348,2.2,2.2,0,0,0,2.067-.443,3.95,3.95,0,0,0,.554-.7c.055-.087.079-.15.024-.238a1.909,1.909,0,0,0-.293-.269,2.773,2.773,0,0,1-.974-1.829,1.936,1.936,0,0,1,.847-2.043,3.141,3.141,0,0,1,2.692.491,4.378,4.378,0,0,1,2.13-2.827c1.212-.61,2.6-.681,3.84-1.2a2.278,2.278,0,0,0,.895-.57,1.148,1.148,0,0,0,.253-.42c.055-.2-.079-.372-.174-.531A9.824,9.824,0,0,0,52.642,96.769Z" transform="translate(-38.652 -88.966)" fill="#010202" fill-rule="evenodd"/>
        </g>
        <g id="humaaan-10_1_" transform="translate(0 14.773)">
          <g id="Bottom_x2F_Standing_x2F_Sprint_1_" transform="translate(0 41.121)">
            <path id="Leg_9_" d="M94.339-53.17c-.4,7.625,32.473,34.35,32.6,35q.083.428-14.4,24.911l2.961,1.6q20.679-25.252,20.16-28.285-.736-4.347-24.215-30.993Z" transform="translate(-85.352 53.202)" fill="#b18b67" fill-rule="evenodd"/>
            <path id="Pant_11_" d="M113.74,2.932l4.854,2.494c12.25-10.761,17.714-20.224,17.587-25.41q-.131-5.191-24.119-30.937l-18.2-2.288c-1.576,17.571,29.845,34.7,30.193,35.5S119.141-10.15,113.74,2.932Z" transform="translate(-85.242 53.21)" fill="#0f1626" fill-rule="evenodd"/>
            <g id="Accessories_x2F_Shoe_x2F_Flat-Sneaker_3_" transform="matrix(0.94, 0.342, -0.342, 0.94, 28.051, 55.937)">
              <path id="shoe_9_" d="M.09,3.212A6.5,6.5,0,0,0,.082,5.35a15.709,15.709,0,0,0,.855,2.3Q1.876,7.429,17.891,3.5c.087-1.568-.364-2.288-1.338-2.17s-1.79.206-2.439.261L5.372.005a.3.3,0,0,0-.356.245V.259L4.809,1.613a5.56,5.56,0,0,1-1.988,1.14,4.982,4.982,0,0,1-1.98-.087h0a.619.619,0,0,0-.721.491C.09,3.181.09,3.2.09,3.212Z" transform="translate(0 0)" fill="#5b5b5c" fill-rule="evenodd"/>
            </g>
            <path id="Leg_8_" d="M94.6-47.982,89.794-6.624,83.61,28.946l3.571-1.021L106.7-51.45Z" transform="translate(-83.119 52.844)" fill="#9a7759" fill-rule="evenodd"/>
            <g id="Accessories_x2F_Shoe_x2F_Flat-Sneaker_2_" transform="translate(0.023 76.967)">
              <path id="shoe_8_" d="M58.552-161.791a6.651,6.651,0,0,0-.562,2.067,15.749,15.749,0,0,0,.23,2.447q.974.024,17.444.356.725-2.233-.736-2.447c-.974-.143-1.782-.261-2.431-.372l-8.037-3.777a.307.307,0,0,0-.412.15v.008l-.546,1.251a5.481,5.481,0,0,1-2.217.586,4.943,4.943,0,0,1-1.893-.594h0a.617.617,0,0,0-.824.285A.134.134,0,0,1,58.552-161.791Z" transform="translate(-57.989 163.547)" fill="#5b5b5c" fill-rule="evenodd"/>
            </g>
            <path id="Pant_10_" d="M82.99,21.967l8.354-.784c3.547-10.769,18.624-55.088,16.51-73.1L90.2-46.86C84.368-31.728,86.213,11.126,82.99,21.967Z" transform="translate(-82.99 52.941)" fill="#152138" fill-rule="evenodd"/>
          </g>
          <g id="Body_x2F_Pointing-Up_1_" transform="translate(2.663 0)">
            <path id="Path_8266" data-name="Path 8266" d="M118.679,10.839a39.083,39.083,0,0,1-4.355.926l-8.489,6.319-3.516-4.64L113.6,8.678A26.427,26.427,0,0,1,119.353,4.3c.546-.166,1.481-.206.467,1.235s-2.019,3-1.631,3.524" transform="translate(-71.525 -4.219)" fill="#b18b67" fill-rule="evenodd"/>
            <path id="Shirt_3_" d="M67.583,54.037l23.684-2.566Q80.553,27.8,79.389,18.673c-.04-.309-.673-.8-.919-.7a8.763,8.763,0,0,1-6.026.055C67.8,27.668,67.068,39,67.583,54.037Z" transform="translate(-64.265 -7.079)" fill="#feca44" fill-rule="evenodd"/>
            <path id="Coat-Front_2_" d="M73.629,16.189c6.794-.681,17.943-.633,30.209-6.089l1.932,6.129c-8.932,7.214-18.133,13.057-26.725,13.3C84.469,45,85.7,58.006,77.533,58.893q-5.856.63-12.63,1.37C61.434,47,64.681,27.742,68.545,17.781a1.688,1.688,0,0,1,1.409-1.2c.816-.087,2.035-.222,3.666-.4A.008.008,0,0,1,73.629,16.189Z" transform="translate(-63.43 -5.443)" fill="#feca44" fill-rule="evenodd"/>
          </g>
        </g>
      </g>
    </g>
    <path id="Path_8267" data-name="Path 8267" d="M585.778,362.233a12.279,12.279,0,0,1-17.793,2.257L510.68,316.663l-.016-.016-4.426-9.3-7.04-14.784a1.2,1.2,0,0,1,1.394-1.671l15.805,4.276,9.954,2.684a.028.028,0,0,1,.016.008L583.331,345.4A12.558,12.558,0,0,1,585.778,362.233Z" transform="translate(-71.179 -82.998)" fill="#f39ea7" fill-rule="evenodd"/>
    <g id="humaaans_x2F_standing-13_1_" transform="translate(438.958 205.599)">
      <g id="Bottom_x2F_Standing_x2F_Baggy-Pants_1_" transform="translate(4.027 64.822)">
        <path id="Leg_13_" d="M565.216,369.88l-16.169,40.907-10.84,34.588H533.93L550.5,369.88Z" transform="translate(-521.419 -369.872)" fill="#9a7759" fill-rule="evenodd"/>
        <path id="Leg_12_" d="M573.318,369.878c.174,14.38,2.684,33.733,3.08,34.627q.4.891,27.691,22.789l-2.946,3.151q-32.2-18.778-33.685-21.277c-1.489-2.5-6.343-25.545-10.238-39.3h16.1Z" transform="translate(-526.267 -369.87)" fill="#b18b67" fill-rule="evenodd"/>
        <g id="Accessories_x2F_Shoe_x2F_Flat-Sneaker_7_" transform="matrix(0.643, 0.766, -0.766, 0.643, 78.46, 54.967)">
          <path id="shoe_11_" d="M.92,1.085A7.245,7.245,0,0,1,3,.158,16.239,16.239,0,0,1,5.608,0q.178,1.021,3.223,18.292Q6.6,19.42,6.139,17.919c-.309-1-.57-1.829-.792-2.494L.057,7.594a.331.331,0,0,1,.087-.459.008.008,0,0,0,.008-.008L1.38,6.343a5.787,5.787,0,0,0,.253-2.431A5.37,5.37,0,0,0,.7,2.019h0A.66.66,0,0,1,.865,1.1.115.115,0,0,0,.92,1.085Z" transform="translate(0 0)" fill="#e4e4e3" fill-rule="evenodd"/>
        </g>
        <g id="Accessories_x2F_Shoe_x2F_Flat-Sneaker_6_" transform="translate(0 71.903)">
          <path id="shoe_10_" d="M328.675,263.674a6.96,6.96,0,0,1,.554,2.209,16.4,16.4,0,0,1-.293,2.6H310.36c-.483-1.6-.206-2.455.839-2.581s1.9-.246,2.589-.348l8.631-3.848a.331.331,0,0,1,.435.166v.008l.554,1.346a5.885,5.885,0,0,0,2.344.673,5.307,5.307,0,0,0,2.027-.594h0a.655.655,0,0,1,.871.325A.129.129,0,0,0,328.675,263.674Z" transform="translate(-310.13 -261.675)" fill="#e4e4e3" fill-rule="evenodd"/>
        </g>
        <path id="Pant_15_" d="M554.36,441.811,534.01,439.6l15.085-69.722h18.228Z" transform="translate(-521.435 -369.872)" fill="#6aa2ad" fill-rule="evenodd"/>
        <path id="Pant_14_" d="M599.46,422.2l-13.35,15.805q-21.095-23.042-24.595-30.066t-6.3-38.072h20.524q1.521,27.307,2.059,28.578T599.46,422.2Z" transform="translate(-525.851 -369.87)" fill="#8ac5cc" fill-rule="evenodd"/>
      </g>
      <g id="humaaan-5_1_" transform="translate(0 0)">
        <g id="Head_x2F_Front_x2F_Long_1_" transform="matrix(0.966, -0.259, 0.259, 0.966, 32.819, 5.999)">
          <path id="Hair-Back_1_" d="M9.125,2.752C5.87,5.959-.583,13.893.042,16.071l8.869,5.115c.008-.016.024-.032.032-.048a7.591,7.591,0,0,0,9.613-3.159l3.6-6.248A7.581,7.581,0,0,0,19.379,1.366l-.61-.356A7.614,7.614,0,0,0,9.125,2.752Z" transform="translate(0 0)" fill="#222046" fill-rule="evenodd"/>
          <g id="Head_4_" transform="translate(4.227 1.246)">
            <path id="Path_8268" data-name="Path 8268" d="M11.553,13.6a9.422,9.422,0,0,0,5.606-4.624C20.445,2.229,10.516-1.6,6.849.645S-1.394,11.319.554,13.228c.776.76,3.057,1.314,5.717,1.275L0,22.5l7.34,4.236Z" transform="translate(0 0)" fill="#b18b67" fill-rule="evenodd"/>
          </g>
          <path id="Hair-Front_1_" d="M4.269,12.23c-2.415,3.4-4.656,7.594-4.213,9.146l8.869,5.115c5.408-8.219-1.267-7.681,3.35-15.694-.135-.459-.245-.911-.38-1.314l.143-.23q.392-6-3.144-8.045C5.354-.836,3.3.154,1.545.985.856,3.812,3.414,5.768,5,8.69a1.981,1.981,0,0,1,1.275.238,1.925,1.925,0,1,1-1.924,3.334A.2.2,0,0,1,4.269,12.23Z" transform="translate(10.153 0.373)" fill="#222046" fill-rule="evenodd"/>
        </g>
        <g id="Body_x2F_Pointing-Forward_1_" transform="translate(0 28.303) rotate(-10)">
          <path id="Skin_2_" d="M12.73,11.562,8.676,6.953q.4-4.418-1.069-4.981C6.974,1.347,7.061,5.219,5.73,4.4S1.834-.284,1.043.017C-.137.468-.208,3.152.3,4.688,1.241,7.555,2.42,8.846,5.651,11.15A20.9,20.9,0,0,1,10.6,16.5Z" transform="translate(0 0)" fill="#9a7759" fill-rule="evenodd"/>
          <path id="Clothes_4_" d="M27.643,18.83q-7.008-.748-20.168-11.6Q.919,13.584,0,16.977c7.008,7.641,13.691,12.337,19.749,14.7a22.172,22.172,0,0,0-1.972,10.8c.7,7.554,20.7,8.077,26.265,11.426,8.172-10.769,2.708-18.339,5.527-26.1,3.088-8.5.99-24.088-.016-24.452L40.352,0C37.47,6.3,32.307,12.527,27.643,18.83Z" transform="translate(2.816 0.69)" fill="#f7c5b2" fill-rule="evenodd"/>
        </g>
      </g>
    </g>
    <path id="Path_8269" data-name="Path 8269" d="M232.256,119.45,212.42,147.2l52.515-17.951Z" transform="translate(-11.509 -47.321)" fill="#addce9"/>
    <path id="Path_8270" data-name="Path 8270" d="M260.408,95.29,234.76,136.125l70.925-24.238Z" transform="translate(-16.159 -42.292)" fill="#4f9cb9"/>
    <circle id="Ellipse_115" data-name="Ellipse 115" cx="6.842" cy="6.842" r="6.842" transform="translate(204.277 46.632)" fill="#fff"/>
    <path id="Path_8271" data-name="Path 8271" d="M294.609,289.733h-94.9a5.814,5.814,0,0,1-5.8-5.8v-94.91a5.814,5.814,0,0,1,5.8-5.8h94.9a5.814,5.814,0,0,1,5.8,5.8v94.9A5.806,5.806,0,0,1,294.609,289.733Z" transform="translate(-7.656 -60.598)" fill="#608398"/>
    <path id="Path_8274" data-name="Path 8274" d="M253.52,218.6H205.1a.46.46,0,0,1-.459-.459v-1.322a.46.46,0,0,1,.459-.459H253.52a.46.46,0,0,1,.459.459v1.322A.46.46,0,0,1,253.52,218.6Z" transform="translate(-3.179 -60.981)" fill="#366480"/>
    <path id="Path_8275" data-name="Path 8275" d="M253.52,227.221H205.1a.46.46,0,0,1-.459-.459v-1.322a.46.46,0,0,1,.459-.459H253.52a.46.46,0,0,1,.459.459v1.322A.46.46,0,0,1,253.52,227.221Z" transform="translate(-3.179 -62.775)" fill="#366480"/>
    <path id="Path_8276" data-name="Path 8276" d="M238.612,235.841h-33.5a.46.46,0,0,1-.459-.459v-1.322a.46.46,0,0,1,.459-.459h33.5a.46.46,0,0,1,.459.459v1.322A.46.46,0,0,1,238.612,235.841Z" transform="translate(-3.189 -64.569)" fill="#366480"/>
    <path id="Path_8277" data-name="Path 8277" d="M231.16,206.79H208.054a1.166,1.166,0,0,1-1.164-1.164v-3.342a1.166,1.166,0,0,1,1.164-1.164H231.16a1.166,1.166,0,0,1,1.164,1.164v3.342A1.166,1.166,0,0,1,231.16,206.79Z" transform="translate(-5.429 -57.808)" fill="#366480"/>
    <path id="Path_8278" data-name="Path 8278" d="M256.73,278.491H208.309a.46.46,0,0,1-.459-.459v-1.322a.46.46,0,0,1,.459-.459H256.73a.46.46,0,0,1,.459.459v1.322A.455.455,0,0,1,256.73,278.491Z" transform="translate(-6.215 -92.987)" fill="#366480"/>
    <path id="Path_8279" data-name="Path 8279" d="M256.73,269.561H208.309a.46.46,0,0,1-.459-.459v-1.322a.46.46,0,0,1,.459-.459H256.73a.46.46,0,0,1,.459.459V269.1A.455.455,0,0,1,256.73,269.561Z" transform="translate(-6.215 -91.128)" fill="#366480"/>
    <path id="Path_8280" data-name="Path 8280" d="M256.73,287.111H208.309a.46.46,0,0,1-.459-.459v-1.322a.46.46,0,0,1,.459-.459H256.73a.46.46,0,0,1,.459.459v1.322A.455.455,0,0,1,256.73,287.111Z" transform="translate(-6.215 -94.781)" fill="#366480"/>
    <path id="Path_8281" data-name="Path 8281" d="M241.822,295.731h-33.5a.46.46,0,0,1-.459-.459v-1.322a.46.46,0,0,1,.459-.459h33.5a.46.46,0,0,1,.459.459v1.322A.46.46,0,0,1,241.822,295.731Z" transform="translate(-6.218 -96.576)" fill="#366480"/>
    <rect id="Rectangle_358" data-name="Rectangle 358" width="60.053" height="4.054" transform="translate(152.399 11.162)" fill="#608398"/>
    <g id="Group_966" data-name="Group 966" transform="translate(316.932 24.579)">
      <path id="Path_8282" data-name="Path 8282" d="M493.925,179.546H363.216a4.289,4.289,0,0,1-4.276-4.276V63.676a4.289,4.289,0,0,1,4.276-4.276H493.925a4.289,4.289,0,0,1,4.276,4.276V175.27A4.283,4.283,0,0,1,493.925,179.546Z" transform="translate(-358.94 -59.4)" fill="#608398"/>
      <path id="Path_8283" data-name="Path 8283" d="M502.191,74.192H434.409a.652.652,0,0,1-.649-.649V71.689a.652.652,0,0,1,.649-.649h67.782a.652.652,0,0,1,.649.649v1.853A.652.652,0,0,1,502.191,74.192Z" transform="translate(-374.514 -61.823)" fill="#366480"/>
      <path id="Path_8284" data-name="Path 8284" d="M502.191,88.062H434.409a.652.652,0,0,1-.649-.649V85.559a.652.652,0,0,1,.649-.649h67.782a.652.652,0,0,1,.649.649v1.853A.652.652,0,0,1,502.191,88.062Z" transform="translate(-374.514 -64.71)" fill="#366480"/>
      <path id="Path_8285" data-name="Path 8285" d="M502.191,101.932H434.409a.652.652,0,0,1-.649-.649V99.429a.652.652,0,0,1,.649-.649h67.782a.652.652,0,0,1,.649.649v1.853A.652.652,0,0,1,502.191,101.932Z" transform="translate(-374.514 -67.597)" fill="#366480"/>
      <path id="Path_8286" data-name="Path 8286" d="M502.191,115.8H434.409a.652.652,0,0,1-.649-.649V113.3a.652.652,0,0,1,.649-.649h67.782a.652.652,0,0,1,.649.649v1.853A.652.652,0,0,1,502.191,115.8Z" transform="translate(-374.514 -70.484)" fill="#366480"/>
      <path id="Path_8287" data-name="Path 8287" d="M502.191,129.672H434.409a.652.652,0,0,1-.649-.649v-1.853a.652.652,0,0,1,.649-.649h67.782a.652.652,0,0,1,.649.649v1.853A.652.652,0,0,1,502.191,129.672Z" transform="translate(-374.514 -73.372)" fill="#366480"/>
      <path id="Path_8288" data-name="Path 8288" d="M489.491,143.542H373.4a.652.652,0,0,1-.649-.649v-1.853a.652.652,0,0,1,.649-.649H489.5a.652.652,0,0,1,.649.649v1.853A.659.659,0,0,1,489.491,143.542Z" transform="translate(-361.815 -76.259)" fill="#366480"/>
      <path id="Path_8289" data-name="Path 8289" d="M489.491,157.422H373.4a.652.652,0,0,1-.649-.649v-1.853a.652.652,0,0,1,.649-.649H489.5a.652.652,0,0,1,.649.649v1.853A.664.664,0,0,1,489.491,157.422Z" transform="translate(-361.815 -79.148)" fill="#366480"/>
      <path id="Path_8290" data-name="Path 8290" d="M489.491,171.292H373.4a.652.652,0,0,1-.649-.649v-1.853a.652.652,0,0,1,.649-.649H489.5a.652.652,0,0,1,.649.649v1.853A.664.664,0,0,1,489.491,171.292Z" transform="translate(-361.815 -82.035)" fill="#366480"/>
      <path id="Path_8291" data-name="Path 8291" d="M489.491,185.162H373.4a.652.652,0,0,1-.649-.649v-1.853a.652.652,0,0,1,.649-.649H489.5a.652.652,0,0,1,.649.649v1.853A.664.664,0,0,1,489.491,185.162Z" transform="translate(-361.815 -84.922)" fill="#366480"/>
      <path id="Path_8292" data-name="Path 8292" d="M489.491,199.032H373.4a.652.652,0,0,1-.649-.649v-1.853a.652.652,0,0,1,.649-.649H489.5a.652.652,0,0,1,.649.649v1.853A.664.664,0,0,1,489.491,199.032Z" transform="translate(-361.815 -87.809)" fill="#366480"/>
      <path id="Path_8293" data-name="Path 8293" d="M387.961,78.517H372.75V73.03h37.019v5.487H394.486v44.509h-6.533V78.517Z" transform="translate(-361.815 -62.237)" fill="#366480"/>
    </g>
    <path id="Coat-Back_2_" d="M194.68,333.075l.238-3.349c13.168-9.423,34.057-9.51,48.065-21.586l3.484,4.577C237.147,337.319,211.586,337.739,194.68,333.075Z" transform="translate(-7.816 -86.599)" fill="#1d8ccc" fill-rule="evenodd"/>
    <g id="Head_8_" transform="translate(187.744 211.209)">
      <path id="Path_8294" data-name="Path 8294" d="M141.314,275.525a10.218,10.218,0,0,1-3.975-6.81c-.816-8.1,10.722-8.275,13.6-4.616s4.387,13.944,1.687,15.156c-1.077.483-3.595.19-6.3-.847l3.389,10.484-9.051,1.56Z" transform="translate(-137.298 -261.809)" fill="#cba581" fill-rule="evenodd"/>
    </g>
    <path id="Hair_4_" d="M202.307,302.573c-.087.008-.182.016-.269.032a2.276,2.276,0,0,0-.919,4.126c-.4.824-.855,1.687-1.386,2.6a9,9,0,0,1-3.54-3.547,9.16,9.16,0,0,1-.768-6.517,6.889,6.889,0,0,1,4.046-4.11,6.707,6.707,0,0,1,4.252-1.061,14.29,14.29,0,0,1,5.7.5c.412,2.383.071,3.167-3.92,3.793a7.481,7.481,0,0,0-2.075,2.985Z" transform="translate(-7.913 -83.66)" fill="#43342f" fill-rule="evenodd"/>
    <path id="Leg_19_" d="M202.64,368.09l14.4,48.865,8.916,41.017,4.957.451-11.252-88.781Z" transform="translate(-9.473 -99.078)" fill="#9a7759" fill-rule="evenodd"/>
    <path id="Leg_18_" d="M192.782,373.252c4.173,16.114,7.237,38.5,7.055,39.624q-.178,1.128-24.127,33.9l4.268,2.629q30.407-30.787,31.317-34.033c.911-3.255-.649-30.47-.459-47.02Z" transform="translate(-3.867 -99.132)" fill="#b18b67" fill-rule="evenodd"/>
    <path id="shoe_17_" d="M173.819,466.016a8.031,8.031,0,0,0-1.988,1.742,19.458,19.458,0,0,0-1.441,2.676q.986.689,17.729,12.313c1.52-1.2,1.821-2.209.919-3.017s-1.655-1.5-2.241-2.051l-5.685-9.4a.378.378,0,0,0-.523-.127.008.008,0,0,0-.008.008l-1.425.919a6.822,6.822,0,0,1-2.684-.911,6.173,6.173,0,0,1-1.544-1.908h0a.762.762,0,0,0-1.045-.269A.078.078,0,0,0,173.819,466.016Z" transform="translate(-2.76 -119.435)" fill="#e4e4e3" fill-rule="evenodd"/>
    <path id="shoe_16_" d="M229.5,478.65a8.113,8.113,0,0,0-.871,2.494,18.923,18.923,0,0,0,.071,3.041q1.2.107,21.5,1.956c.728-1.8.5-2.819-.7-3.08s-2.178-.483-2.962-.673l-9.581-5.361a.382.382,0,0,0-.523.15.008.008,0,0,1-.008.008l-.784,1.5a6.861,6.861,0,0,1-2.787.531,6.136,6.136,0,0,1-2.281-.9h0a.76.76,0,0,0-1.045.285A.457.457,0,0,0,229.5,478.65Z" transform="translate(-14.876 -121.744)" fill="#e4e4e3" fill-rule="evenodd"/>
    <path id="Pant_19_" d="M207.023,452.1l23.787-.4-10.136-81.972L199.58,367.81Z" transform="translate(-8.836 -99.019)" fill="#0f1626" fill-rule="evenodd"/>
    <path id="Pant_18_" d="M179.73,439.667l19.772,13.58q16.652-32.165,18.45-41.081t-4.5-44.446l-23.011,6.256q6.58,30.965,6.374,32.553Q196.592,408.12,179.73,439.667Z" transform="translate(-4.704 -99.001)" fill="#152138" fill-rule="evenodd"/>
    <path id="Path_8295" data-name="Path 8295" d="M191.5,443.381h-33a3.883,3.883,0,0,1-3.872-3.872V416.672a3.883,3.883,0,0,1,3.872-3.872h33a3.883,3.883,0,0,1,3.872,3.872v22.837A3.883,3.883,0,0,1,191.5,443.381Z" transform="translate(0.523 -108.384)" fill="#868686" fill-rule="evenodd"/>
    <path id="Path_8296" data-name="Path 8296" d="M179.721,407.551a41.81,41.81,0,0,0-1.5-5.8l2.185-12.891-7.055-1.235,1.085,15.077a32.784,32.784,0,0,0-1.592,8.8c.127.7.6,1.75,1.615-.19s2.17-3.92,2.954-3.785" transform="translate(-3.27 -103.143)" fill="#b18b67" fill-rule="evenodd"/>
    <path id="Shirt_4_" d="M192.826,363.3l29.179-2.447c1.33-.111.919-2,.649-2.954-3.159-10.967-12.852-22.266-14.182-38.151l-8.528-.61C193.911,330.867,192.652,344.788,192.826,363.3Z" transform="translate(-7.427 -88.888)" fill="#dde3e9" fill-rule="evenodd"/>
    <path id="Coat-Front_3_" d="M183.308,331.936a4.835,4.835,0,0,1-3.112-2.2c-3.54-5.266-2.684-8.4.523-9.676s6.311.538,11.545.1a5.309,5.309,0,0,1,.784-.016l2.645-.071q14.55,37.284,10.531,50.5l-22.963,1.924a78.281,78.281,0,0,1-3.239,8.3l-6.256.523Q170.512,352.975,183.308,331.936Z" transform="translate(-3.325 -88.983)" fill="#1d8ccc" fill-rule="evenodd"/>
    <path id="Shade_3_" d="M193.554,368.25q1.841,8.932,4.616,12.8l-8.52.713Q191.562,376.046,193.554,368.25Z" transform="translate(-6.769 -99.111)" fill="rgba(2,2,3,0.1)" fill-rule="evenodd"/>
    <path id="Path_8297" data-name="Path 8297" d="M263.43,302.979a16.138,16.138,0,0,1,17.254,16.051v98.085a.029.029,0,0,1-.008.024l-5.646,12.313L266.043,449a1.574,1.574,0,0,1-2.859,0L254.2,429.452l-5.67-12.3c0-.008-.008-.016-.008-.024v-97.5C248.512,311.08,254.91,303.6,263.43,302.979Z" transform="translate(-19.023 -85.515)" fill="#feca44" fill-rule="evenodd"/>
    <g id="Group_967" data-name="Group 967" transform="translate(165.373 311.78)">
      <path id="Path_8298" data-name="Path 8298" d="M173.906,430.1l-6.366,4.553h12.741Z" transform="translate(-167.54 -423.765)" fill="#addce9"/>
      <path id="Path_8299" data-name="Path 8299" d="M181.559,427.05l-8.6,6.968h17.207Z" transform="translate(-168.668 -423.13)" fill="#3861ab"/>
      <circle id="Ellipse_117" data-name="Ellipse 117" cx="1.568" cy="1.568" r="1.568" transform="translate(4.094)" fill="#fff"/>
    </g>
    <path id="Path_8362" data-name="Path 8362" d="M206.5,333.536l4.991-3.3,4.7,3.3,5.23-3.3,4.037,3.3,5.252-3.3,3.719,3.3" transform="translate(25.225 -2.539)" fill="none" stroke="#1e3f53" stroke-linecap="round" stroke-width="1"/>
  </g>
</svg>
