<svg xmlns="http://www.w3.org/2000/svg" viewBox="0 0 150 27" xmlns:v="https://vecta.io/nano"><path d="M49.7 13c0 .8-.1 1.5-.3 2.2s-.5 1.3-.8 1.9c-.4.6-.8 1.1-1.3 1.6a6.57 6.57 0 0 1-1.7 1.2c-.6.3-1.3.6-2 .8-.6.2-1.3.3-2.1.3h-5.3c-.1 0-.2 0-.3-.1s-.2-.2-.2-.4v-15c0-.2 0-.3.1-.4s.2-.1.4-.1h5.3c.8 0 1.5.1 2.2.3s1.4.5 2 .8 1.2.8 1.7 1.2c.5.5.9 1 1.3 1.6s.6 1.2.8 1.9c.1.7.2 1.4.2 2.2zm-9.8-4.2v8.3h1.9c.5 0 1-.2 1.5-.4a2.73 2.73 0 0 0 1.2-.9c.3-.4.6-.8.8-1.3s.3-1 .3-1.6-.1-1.2-.3-1.7-.5-.9-.9-1.3-.8-.7-1.4-.9-1.1-.3-1.7-.3h-1.4zm13.2-3.3c0-.2 0-.3.1-.4s.2-.1.3-.1h10.7c.2 0 .3 0 .4.1s.1.2.1.4v2.7c0 .1 0 .2-.1.3s-.2.2-.4.2h-7v2.7h5.4c.1 0 .2 0 .3.1s.1.2.1.3v2.3c0 .1 0 .2-.1.3s-.2.1-.3.1h-5.4v2.8h7.2a.47.47 0 0 1 .5.5v2.7c0 .1 0 .1-.1.2 0 .2-.2.3-.4.3H53.5c-.1 0-.3 0-.3-.1s-.1-.2-.1-.3V5.5zm19.4 15.3c-.1-.1-.1-.3-.2-.4s-.1-.3-.2-.4L66.6 5.5v-.2c0-.2.1-.3.4-.3h3.5c.3 0 .5.1.6.4l3.3 9.8 1.6-4.8.8-2.5c.2-.9.5-1.7.8-2.5.1-.3.3-.4.6-.4h3.4c.2 0 .3 0 .4.1v.3l-5.6 14.5c0 .1-.1.2-.1.3s-.1.2-.2.3-.1.2-.2.3-.2.1-.3.1H73c-.2.1-.4 0-.5-.1zM84.3 5.5c0-.2 0-.3.1-.4s.2-.1.4-.1h6.9c.5 0 1 .1 1.4.2s.8.3 1.2.6c.4.2.7.5 1 .9.2.3.5.6.7 1s.4.8.5 1.2.2.9.2 1.3a6.28 6.28 0 0 1-.3 1.9c-.2.6-.6 1.2-1 1.6-.4.5-.9.9-1.6 1.2-.6.3-1.3.5-2 .5h-3.3v5.1a.47.47 0 0 1-.5.5h-3.2c-.1 0-.3 0-.3-.1s-.1-.2-.1-.3V5.5zm8.1 4.7c0-.2 0-.4-.1-.6L92 9c-.1-.2-.3-.3-.5-.4s-.4-.2-.7-.2h-2.3V12h2.3c.3 0 .5-.1.7-.2s.4-.2.5-.4l.3-.6c.1-.2.1-.4.1-.6zm7.1-4.7c0-.1 0-.2.1-.3.1-.2.3-.2.4-.2h3.2c.1 0 .2 0 .3.1s.2.2.2.3v15a.47.47 0 0 1-.5.5H100a.47.47 0 0 1-.5-.5V5.5z" fill="#283c51"/><path d="M106.2 20.7c.1-.1.1-.2.2-.3s.1-.2.2-.3l4.8-7.2-2.4-3.7-2.5-3.7c0-.1-.1-.1-.1-.2v-.2c0-.1.1-.1.1-.1h3.9c.3 0 .5.1.6.4l2.6 4 2.7-4c.2-.3.4-.4.6-.4h4l.1.1c0 .1 0 .2-.1.3l-5 7.4 5 7.5c.1.1.1.2.2.3 0 .1.1.2 0 .2 0 .1-.1.2-.2.2H117c-.1 0-.2 0-.3-.1s-.2-.2-.2-.3l-2.9-4.3-2.9 4.3c-.1.1-.1.2-.2.3s-.2.1-.3.1h-4.1c.1-.1 0-.1.1-.3-.1.1-.1 0 0 0z" fill="#fbbf32"/><path d="M123.9 5.5c0-.2 0-.3.1-.4s.2-.1.3-.1H135c.2 0 .3 0 .4.1s.1.2.1.4v2.7c0 .1 0 .2-.1.3s-.2.2-.4.2h-7v2.7h5.4c.1 0 .2 0 .3.1s.1.2.1.3v2.3c0 .1 0 .2-.1.3s-.2.1-.3.1H128v2.8h7.2a.47.47 0 0 1 .5.5v2.7c0 .1 0 .1-.1.2 0 .2-.2.3-.4.3h-10.9c-.1 0-.3 0-.3-.1s-.1-.2-.1-.3V5.5zm14.7 0c0-.1 0-.2.1-.3s.2-.1.4-.1h3.2c.1 0 .2 0 .3.1s.2.2.2.3v11.7h5.9c.1 0 .2 0 .3.1s.1.2.1.4v2.8c0 .1 0 .2-.1.3s-.2.2-.3.2h-9.6a.47.47 0 0 1-.5-.5v-15z" fill="#283c51"/><path d="M8.4 15.7l2.6 2.6L8.4 21l-2.6-2.7-2.7-2.6-2.6-2.6 2.6-2.6 2.7-2.6 2.6-2.7L11 7.9l-5.2 5.2z" fill="#1f3e53"/><path d="M21.5 13.1l-2.6 2.6-2.7 2.6-5.2-5.2 5.2-5.2 2.7 2.6z" fill="#fbbf32"/><path d="M32 13.1l-2.6 2.6-2.7 2.6-2.6 2.7-2.6-2.7 5.2-5.2-5.2-5.2 2.6-2.7 2.6 2.7 2.7 2.6z" fill="#1f3e53"/></svg>