<svg xmlns="http://www.w3.org/2000/svg" xmlns:xlink="http://www.w3.org/1999/xlink" width="429" height="188.64" viewBox="0 0 429 188.64">
  <defs>
    <linearGradient id="linear-gradient" x1="0.5" y1="0.179" x2="0.5" y2="1" gradientUnits="objectBoundingBox">
      <stop offset="0" stop-color="#1e3f53"/>
      <stop offset="1" stop-color="#416a83"/>
    </linearGradient>
    <filter id="Path_8496" x="99.953" y="13.759" width="165.013" height="174.881" filterUnits="userSpaceOnUse">
      <feOffset dy="10" input="SourceAlpha"/>
      <feGaussianBlur stdDeviation="25" result="blur"/>
      <feFlood flood-color="#f7913b" flood-opacity="0.788"/>
      <feComposite operator="in" in2="blur"/>
      <feComposite in="SourceGraphic"/>
    </filter>
  </defs>
  <g id="Group_2171" data-name="Group 2171" transform="translate(1 -9558.393)">
    <g id="Footer" transform="translate(-1 9558.393)">
      <path id="Path_9273" data-name="Path 9273" d="M0,0H429l-.442,117.777L.222,117.794Z" transform="translate(0 42.745)" fill="url(#linear-gradient)"/>
      <circle id="Ellipse_148" data-name="Ellipse 148" cx="0.273" cy="0.273" r="0.273" transform="translate(179.638 57.364)" fill="#fff" opacity="0.463"/>
      <ellipse id="Ellipse_149" data-name="Ellipse 149" cx="0.546" cy="0.273" rx="0.546" ry="0.273" transform="translate(182.914 33.885)" fill="#fff"/>
      <ellipse id="Ellipse_150" data-name="Ellipse 150" cx="0.273" rx="0.273" transform="translate(87.362 46.989)" fill="#fff" opacity="0.463"/>
      <circle id="Ellipse_151" data-name="Ellipse 151" cx="0.273" cy="0.273" r="0.273" transform="translate(98.828 101.045)" fill="#fff"/>
      <ellipse id="Ellipse_152" data-name="Ellipse 152" cy="0.273" ry="0.273" transform="translate(294.301 42.621)" fill="#fff"/>
      <ellipse id="Ellipse_153" data-name="Ellipse 153" cx="0.273" rx="0.273" transform="translate(87.908 105.413)" fill="#fff" opacity="0.463"/>
      <circle id="Ellipse_154" data-name="Ellipse 154" cx="0.273" cy="0.273" r="0.273" transform="translate(78.626 71.014)" fill="#fff"/>
      <circle id="Ellipse_155" data-name="Ellipse 155" cx="0.273" cy="0.273" r="0.273" transform="translate(234.239 80.296)" fill="#fff"/>
      <circle id="Ellipse_156" data-name="Ellipse 156" cx="0.273" cy="0.273" r="0.273" transform="translate(116.301 39.345)" fill="#fff"/>
      <circle id="Ellipse_157" data-name="Ellipse 157" cx="0.273" cy="0.273" r="0.273" transform="translate(114.663 77.02)" fill="#fff" opacity="0.463"/>
      <circle id="Ellipse_158" data-name="Ellipse 158" cx="0.273" cy="0.273" r="0.273" transform="translate(164.896 44.805)" fill="#fff"/>
      <ellipse id="Ellipse_159" data-name="Ellipse 159" cy="0.273" ry="0.273" transform="translate(131.589 61.732)" fill="#fff"/>
      <ellipse id="Ellipse_160" data-name="Ellipse 160" cy="0.273" ry="0.273" transform="translate(242.975 56.818)" fill="#fff"/>
      <ellipse id="Ellipse_161" data-name="Ellipse 161" cy="0.273" ry="0.273" transform="translate(164.896 77.02)" fill="#fff"/>
      <circle id="Ellipse_162" data-name="Ellipse 162" cx="0.223" cy="0.223" r="0.223" transform="matrix(0.695, 0.719, -0.719, 0.695, 125.505, 50.379)" fill="#fff"/>
      <circle id="Ellipse_163" data-name="Ellipse 163" cx="0.223" cy="0.223" r="0.223" transform="matrix(0.695, 0.719, -0.719, 0.695, 97.428, 52.88)" fill="#fff" opacity="0.463"/>
      <circle id="Ellipse_164" data-name="Ellipse 164" cx="0.223" cy="0.223" r="0.223" transform="matrix(0.695, 0.719, -0.719, 0.695, 104.185, 32.017)" fill="#fff" opacity="0.315"/>
      <ellipse id="Ellipse_165" data-name="Ellipse 165" cy="0.273" ry="0.273" transform="translate(138.141 84.664)" fill="#fff" opacity="0.746"/>
      <circle id="Ellipse_166" data-name="Ellipse 166" cx="0.273" cy="0.273" r="0.273" transform="translate(94.46 83.026)" fill="#fff"/>
      <circle id="Ellipse_167" data-name="Ellipse 167" cx="0.273" cy="0.273" r="0.273" transform="translate(249.528 71.56)" fill="#fff"/>
      <path id="Path_8698" data-name="Path 8698" d="M5845,11898.965,6005.891,11944l-38.289-16.092,246.229,67.322,12.2,9L5845,11924.373Z" transform="translate(-5844.776 -11874.074)" fill="#20455c" opacity="0.414"/>
      <path id="Path_8699" data-name="Path 8699" d="M5845,11898.965,6005.891,11944l-38.289-16.092,216.369,54.8-37.691,11.432L5962.729,11944Z" transform="translate(-5818.006 -11835.257)" fill="#20455c"/>
      <g id="Component_63_3" data-name="Component 63 – 3" transform="translate(0.358)">
        <g id="Component_62_1" data-name="Component 62 – 1">
          <path id="Path_6881" data-name="Path 6881" d="M3047.479,7314.782l-11.214,17.042-11.7,5.581-7.278-9.667-15.4-4.04-21.161,6.7-18.35,14.581-12.687,10.677-21.934.157-13.429-.812h-12.72v1.74h428.2v-7.19l-34.719-15.053-23.007-32.43-19-9.775-3.6-8.408-1.379-9.371h-2.366l-3.239-8.6-41.788-6.772s-18.343,14.812-22.032,18.533c-.845.852-69.417,19.78-69.417,19.78Z" transform="translate(-2901.606 -7196.244)" fill="#5d788b"/>
          <g id="Group_1013" data-name="Group 1013" transform="translate(279.08)">
            <path id="Path_6631" data-name="Path 6631" d="M4141.423,6926.461c-1.215-.952-3.249,2.112-3.074,2.391.272.435,1.313.373,1.918.47s8.407,7.584,9.234,8.4,11.593,3.5,11.593,3.5.708,1.756.634,6.67-1,13.26-1,13.26l.386.091s-.437,14.015-.091,15.532a11.6,11.6,0,0,1,0,4.773c-.27,1.014-.672,8.54-.946,10.563a17.183,17.183,0,0,0,0,4.042s3.617-.388,4.7,0,1.548,1.141,1.528-1.1.57-13.276.682-15.291,1.168-15.229,1.575-14.384,3.966,10.224,4.17,13.056,3.362,15.036,3.445,16.618-.39,3.017,0,2.873a43.422,43.422,0,0,1,5.324,0c.419.073.081-7.2-.526-10.4s-2.816-8.553-2.634-10.336-1.942-13.171-1.784-15.518c.009-.131.312-.179.312-.179s-.93-8.451-1.088-13.6a46.11,46.11,0,0,1,.2-7.456,48.419,48.419,0,0,0,7.509-3.032c2.4-1.425,7.454-7.154,8.036-7.487s2.944-1.756,2.37-2.8a2.483,2.483,0,0,0-1.017-.9c-.793-.439-1.888-.62-2.25-.314-.535.455.005,2.117-1.077,2.945s-7.62,5.311-7.62,5.311-10.683,1.708-14.29,1.954-15.65-1.144-16.234-1.6-9.058-5.988-9.058-5.988" transform="translate(-4138.338 -6925.755)" fill="#5d788b"/>
            <path id="Path_6633" data-name="Path 6633" d="M4209.84,6954.79a18.5,18.5,0,0,0,2.068,0c.232-.086.251-.547,1.351-.616a52.529,52.529,0,0,1,5.678-.208c.362.03.293.6.809.7a30.813,30.813,0,0,0,4.223.127l-13.123,1.17Z" transform="translate(-4186.363 -6944.665)" fill="#5d788b"/>
            <path id="Path_6634" data-name="Path 6634" d="M4224.24,6929.238c-.663-2.409-6.621-1.276-7.2-.531s-.126,5.435.205,5.991a2.5,2.5,0,0,1,.393.727c.123.44.144,1.1.266,1.418.192.5,4.77.937,4.779.268s0-1.259,0-1.259a7.532,7.532,0,0,0,1.331-2.792C4224.184,6931.787,4224.24,6929.238,4224.24,6929.238Z" transform="translate(-4190.945 -6927.146)" fill="#5d788b"/>
          </g>
          <g id="Group_1012" data-name="Group 1012" transform="translate(255.518 19.588)">
            <path id="Path_6882" data-name="Path 6882" d="M4054.271,7074.891a19.794,19.794,0,0,0,3.154,1.65c1.563.712,2.685.941,3.062,2.111s.565,3.033.915,4.125a46.733,46.733,0,0,1,1.49,6.167c.132,1.418,1.328,2.019,1.341,3.4s-.047,8.993,0,9.521a.822.822,0,0,1-.427.771s-.106,2.724-.2,3.076a2.614,2.614,0,0,1-.711.731,5.012,5.012,0,0,1-1.79.924c-.193-.094.4-.972.48-1.531s.323-1.6,0-1.666-.442.71-.48,1.165-.732.762-.693.5-.124-2.939.261-3.512.691-.947.647-1.322-.874-3.461-.908-4.185-.484-3.555-.381-4.015-1.533-.845-1.216-1.591a4.23,4.23,0,0,0-.405-2.643c-.175-.208-.573.506-.466,2.4s-.439,7.108-.225,8.474.889,5.1.919,6.392-.248,9.281,0,10.05a19.768,19.768,0,0,1,.228,4.747,12.162,12.162,0,0,0-.54,3.377c.069,1.533.6,8.446.312,9.317a26.718,26.718,0,0,0-.919,3.794c.043.313-.808.9-.808.9s-3.387-.56-4.107-.55-1.614-.657-1.641-1.2.4-4.464.455-5.288.959-7.14.9-8.892.112-2.437-.291-3.491-1.683-8.578-1.683-8.578-2.184,4.409-2.705,5.861-1.463,3.933-1.87,4.747-.939,12.869-1.065,13.595-.616,2.014-.585,2.045a1.434,1.434,0,0,0-1.49,0c-.729.514-4.93.493-4.883-.215s.378-2.077.353-2.731.581-1.3.61-2.342.224-10.384.27-11.4.629-1.414.681-2.8.389-5.679.529-7.028.294-1.3.515-2.775,1.007-4.868,1.287-5.743.935-.27.925-2.35a22.87,22.87,0,0,1,.274-4.668c.213-.684.281,1.351,0-1.008s-.478-7.44-.97-6.634-1.3,1.243-1.516,2a4.536,4.536,0,0,1-1.044,2.056,49.889,49.889,0,0,1-6.517,4.345,3.212,3.212,0,0,1-1.314-.756c-.108-.2-2.583-.03-2.675-.486a4.985,4.985,0,0,1-.356-1.444,5.975,5.975,0,0,1,0-1.181c.573-.265.256-.827.714-.88s2.186.529,2.967.4,3-4.023,3.663-4.054.41-.105.438-.614,3.441-8.574,4.126-8.921,4.681-1.877,5.512-2.143S4054.271,7074.891,4054.271,7074.891Z" transform="translate(-4028.968 -7062.659)" fill="#5d788b"/>
            <path id="Path_6884" data-name="Path 6884" d="M4084.947,7202.9a1.539,1.539,0,0,0-1.335-1.613,12.174,12.174,0,0,0-4.521.324,2.12,2.12,0,0,0-1.669,1.657Z" transform="translate(-4059.919 -7190.464)" fill="#5d788b"/>
            <path id="Path_6885" data-name="Path 6885" d="M4081.712,7166.133c-.012-.271-.448-.927-.325-1.339a16.646,16.646,0,0,0,.91-4.585,5.387,5.387,0,0,0,.488-1.259s-1.827-4.317-4.221-3.959c-3.126.466-4.021,2.251-4.19,3.2a7.314,7.314,0,0,0,.2,1.232,20.246,20.246,0,0,0,0,3.485,8.93,8.93,0,0,0,.717,2.626,13.232,13.232,0,0,0,1.527.6Z" transform="translate(-4057.548 -7154.97)" fill="#5d788b"/>
          </g>
          <path id="Path_7638" data-name="Path 7638" d="M1473.707,7369.252v3.425l-5.407,5.268-3.608,3.608v3.15l3.608-3.15,5.407-2.208a38.834,38.834,0,0,0,4.73,8.559c3.494,4.986,9.57,14.188,9.248,11.384s-10.335-20.348-10.536-22.6S1473.707,7369.252,1473.707,7369.252Z" transform="translate(-1138.294 -7292.541)" fill="#5d788b"/>
          <path id="Path_7640" data-name="Path 7640" d="M1104.2,7461.958c3.6-1.647,65.02-15.914,67.16-17.137s10.424-6.758,10.424-6.758l1.472,2.985s-3.078,5.45-8.153,7.282-57.686,13.627-57.686,13.627Z" transform="translate(-858.221 -7346)" fill="#5d788b"/>
        </g>
      </g>
      <g id="Component_63_2" data-name="Component 63 – 2" transform="translate(0.223 0.669)">
        <g id="Component_62_1-2" data-name="Component 62 – 1">
          <path id="Path_6881-2" data-name="Path 6881" d="M3049.842,7301.036l-13.011,30.787-11.7,5.582-7.278-9.667-15.4-4.04-21.158,6.7-18.349,14.58-21.5-1.6h-22.788l-16.317-11.558V7356.1h217.962l210.367-.029v-6.542l.083-14.982-15.505,3.235-19.625-3.291-23.005-32.43-19-9.775-11.684-26.717-40.68-6.433s-18.342,14.811-22.03,18.533c-.75.756-54.9,15.766-67.071,19.132l-2.341.647Z" transform="translate(-2902.348 -7196.244)" fill="#131f27"/>
          <g id="Group_1013-2" data-name="Group 1013" transform="translate(278.917)">
            <path id="Path_6631-2" data-name="Path 6631" d="M4141.992,6927.808c-.318-.888-.78-2.416-1.789-1.9-.362.184-1.219.136-1.626.611a2.839,2.839,0,0,0-.492,2.333c.272.435,1.313.373,1.918.47s8.408,7.584,9.234,8.4,11.593,3.5,11.593,3.5a28.914,28.914,0,0,1,.391,6.67c-.074,4.914-.758,13.26-.758,13.26l.386.091s-.437,14.015-.092,15.532a11.6,11.6,0,0,1,0,4.773c-.27,1.014-.672,8.54-.945,10.563a17.153,17.153,0,0,0,0,4.042s3.617-.388,4.7,0,1.547,1.141,1.528-1.1.57-13.276.682-15.291,1.167-15.229,1.574-14.384,3.967,10.224,4.171,13.056,3.361,15.036,3.444,16.618-.389,3.017,0,2.873a43.43,43.43,0,0,1,5.324,0c.419.073.08-7.2-.526-10.4s-2.815-8.553-2.635-10.336-1.941-13.171-1.784-15.518c.009-.131.313-.179.313-.179s-.93-8.451-1.088-13.6a46.134,46.134,0,0,1,.2-7.456,48.439,48.439,0,0,0,7.509-3.032c2.4-1.425,7.453-7.154,8.036-7.487s2.943-1.756,2.37-2.8a2.478,2.478,0,0,0-1.017-.9c-.794-.439-1.889-.62-2.25-.314-.536.455,0,2.117-1.077,2.945s-7.62,5.311-7.62,5.311-10.683,1.708-14.289,1.954-15.723-1.5-16.307-1.954-9.076-6.052-9.076-6.052" transform="translate(-4138 -6925.755)" fill="#131f27"/>
            <path id="Path_6633-2" data-name="Path 6633" d="M4209.84,6954.79a18.5,18.5,0,0,0,2.068,0c.232-.086.251-.547,1.351-.616a52.529,52.529,0,0,1,5.678-.208c.362.03.293.6.809.7a30.813,30.813,0,0,0,4.223.127l-13.123,1.17Z" transform="translate(-4186.288 -6944.665)" fill="#131f27"/>
            <path id="Path_6634-2" data-name="Path 6634" d="M4224.712,6929.02c-.662-2.41-6.416-1.417-7-.671s-.331,5.575,0,6.131a2.481,2.481,0,0,1,.392.727c.124.44.144,1.1.267,1.418.192.5,5.147.9,5.156.232s0-1.892,0-1.892a4.285,4.285,0,0,0,.954-2.124C4224.656,6931.567,4224.712,6929.02,4224.712,6929.02Z" transform="translate(-4191.342 -6926.926)" fill="#131f27"/>
          </g>
          <g id="Group_1012-2" data-name="Group 1012" transform="translate(255.43 19.588)">
            <path id="Path_6882-2" data-name="Path 6882" d="M4054.271,7074.891a19.794,19.794,0,0,0,3.154,1.65c1.563.712,2.685.941,3.062,2.111s.565,3.033.915,4.125a46.733,46.733,0,0,1,1.49,6.167c.132,1.418,1.328,2.019,1.341,3.4s-.047,8.993,0,9.521a.822.822,0,0,1-.427.771s-.106,2.724-.2,3.076a2.614,2.614,0,0,1-.711.731,5.012,5.012,0,0,1-1.79.924c-.193-.094.4-.972.48-1.531s.323-1.6,0-1.666-.442.71-.48,1.165-.732.762-.693.5-.124-2.939.261-3.512.691-.947.647-1.322-.874-3.461-.908-4.185-.484-3.555-.381-4.015-1.533-.845-1.216-1.591a4.23,4.23,0,0,0-.405-2.643c-.175-.208-.573.506-.466,2.4s-.439,7.108-.225,8.474.889,5.1.919,6.392-.248,9.281,0,10.05a19.768,19.768,0,0,1,.228,4.747,12.162,12.162,0,0,0-.54,3.377c.069,1.533.6,8.446.312,9.317a26.718,26.718,0,0,0-.919,3.794c.043.313-.808.9-.808.9s-3.387-.56-4.107-.55-1.614-.657-1.641-1.2.4-4.464.455-5.288.959-7.14.9-8.892.112-2.437-.291-3.491-1.683-8.578-1.683-8.578-2.184,4.409-2.705,5.861-1.463,3.933-1.87,4.747-.939,12.869-1.065,13.595-.616,2.014-.585,2.045a1.434,1.434,0,0,0-1.49,0c-.729.514-4.93.493-4.883-.215s.378-2.077.353-2.731.581-1.3.61-2.342.224-10.384.27-11.4.629-1.414.681-2.8.389-5.679.529-7.028.294-1.3.515-2.775,1.007-4.868,1.287-5.743.935-.27.925-2.35a22.87,22.87,0,0,1,.274-4.668c.213-.684.281,1.351,0-1.008s-.478-7.44-.97-6.634-1.3,1.243-1.516,2a4.536,4.536,0,0,1-1.044,2.056,49.889,49.889,0,0,1-6.517,4.345,3.212,3.212,0,0,1-1.314-.756c-.108-.2-2.583-.03-2.675-.486a4.985,4.985,0,0,1-.356-1.444,5.975,5.975,0,0,1,0-1.181c.573-.265.256-.827.714-.88s2.186.529,2.967.4,3-4.023,3.663-4.054.41-.105.438-.614,3.441-8.574,4.126-8.921,4.681-1.877,5.512-2.143S4054.271,7074.891,4054.271,7074.891Z" transform="translate(-4028.968 -7062.659)" fill="#131f27"/>
            <path id="Path_6884-2" data-name="Path 6884" d="M4084.947,7202.9a1.539,1.539,0,0,0-1.335-1.613,12.174,12.174,0,0,0-4.521.324,2.12,2.12,0,0,0-1.669,1.657Z" transform="translate(-4059.919 -7190.464)" fill="#131f27"/>
            <path id="Path_6885-2" data-name="Path 6885" d="M4081.712,7166.133c-.012-.271-.448-.927-.325-1.339a16.646,16.646,0,0,0,.91-4.585,5.387,5.387,0,0,0,.488-1.259s-1.827-4.317-4.221-3.959c-3.126.466-4.021,2.251-4.19,3.2a7.314,7.314,0,0,0,.2,1.232,20.246,20.246,0,0,0,0,3.485,8.93,8.93,0,0,0,.717,2.626,13.232,13.232,0,0,0,1.527.6Z" transform="translate(-4057.548 -7154.97)" fill="#131f27"/>
          </g>
          <path id="Path_7638-2" data-name="Path 7638" d="M1473.707,7369.252v3.425l-5.407,5.268-3.608,3.608v3.15l3.608-3.15,5.407-2.208a38.834,38.834,0,0,0,4.73,8.559c3.494,4.986,9.57,14.188,9.248,11.384s-10.335-20.348-10.536-22.6S1473.707,7369.252,1473.707,7369.252Z" transform="translate(-1138.382 -7292.541)" fill="#131f27"/>
          <path id="Path_7640-2" data-name="Path 7640" d="M1104.2,7461.958c3.6-1.647,65.02-15.914,67.16-17.137s10.424-6.758,10.424-6.758l1.472,2.985s-3.078,5.45-8.153,7.282-57.686,13.627-57.686,13.627Z" transform="translate(-858.309 -7346)" fill="#131f27"/>
        </g>
      </g>
      <path id="Path_8490" data-name="Path 8490" d="M12.894,0s-.57,5.408-.756,6.284-.7,5.165-.7,5.165.352,1.544,0,2a23.176,23.176,0,0,0-.807,4.184S8.473,28.311,8.093,29.12A28.564,28.564,0,0,0,7.2,33.195l-.724,5.883S3.916,48.149,3.515,49.369,1.8,60.736,1.811,61.162s0,3.63,0,3.63S-.02,65.4,0,64.792,1.369,49.7,1.811,49.369s2.721-7.753,2.95-9.323,1.06-6.851,1.06-6.851S8.207,22.857,8.093,22.5s1.563-6.935,1.563-6.935l.98-6.819L12.139,0Z" transform="translate(243.448 32.398) rotate(-14)" fill="#131f27"/>
      <path id="Path_8491" data-name="Path 8491" d="M3.81,0s-.57,5.408-.756,6.284-.7,5.165-.7,5.165.352,1.544,0,2a23.176,23.176,0,0,0-.807,4.184A48.926,48.926,0,0,1,.244,22.983c-.7,1.459.328-7.421.328-7.421l.98-6.819L3.054,0Z" transform="translate(252.708 36.893) rotate(-14)" fill="#131f27"/>
      <path id="Path_8492" data-name="Path 8492" d="M10.662,13.674c.052-.562-1.93-11.453-1.93-11.453L7.326,1.237,6.021.158,2.759,0,1.706,1.366,1.179,3.349,0,4.7l.568,9.936Z" transform="matrix(0.978, 0.208, -0.208, 0.978, 325.69, 55.367)" fill="#131f27"/>
      <path id="Path_8493" data-name="Path 8493" d="M0,2C.108,1.632.579.5.579.5L.692,0H3.719l.616.233s.783,2.073.709,2.037-1.012-.44-1.012-.44L3.719.637H1.13l-.438.877Z" transform="matrix(0.978, 0.208, -0.208, 0.978, 328.033, 54.706)" fill="#131f27"/>
      <g id="DELIVER-BOARD" transform="translate(108.515 69.42)" opacity="0.999">
        <path id="Path_8457" data-name="Path 8457" d="M6205.712,974.016s-1.4-2.332-1.824-2.915-.354-.474-.472-.632-.6.382-.6.382l.171-.961-1.049-.689-.143,3.306,1.535.323-1.219.433a5.947,5.947,0,0,0-.09,1.4h1.4l-.9.651v1.229s-2.68-1.838-3.549-2.256-.6-.268-.6-.268a6.4,6.4,0,0,1-.928.4c.013-.063.3-.7.3-.7a11.887,11.887,0,0,0-1.375-.273c-.353-.015.888,2.667.888,2.667l.821-.243-.633,1.043.768,1.423,1.119-.335-.708,1.123,4.711,2.788s3.691-.831,4.431-1.855C6208.4,979.162,6205.712,976.247,6205.712,974.016Z" transform="translate(-6106.325 -952.013)" fill="#131f27"/>
        <path id="Path_8711" data-name="Path 8711" d="M6222.551,972.724l-1.48-.278v-.56l.083-2.547.965.551-1.049-.689-.142,3.306,1.534.323-1.218.433a5.974,5.974,0,0,0-.091,1.4h1.4l-.9.651v1.229l.189-1.229.95-.651-.142-.209-1.435.157.1-1.285,1.218-.357Z" transform="translate(-6125.46 -952.013)" fill="#e05b2a"/>
        <path id="Path_8694" data-name="Path 8694" d="M6196.362,988.207c-.353-.015.888,2.667.888,2.667l.821-.243-.633,1.043.768,1.423,1.119-.335-.708,1.122,4.711,2.788-3.895-2.4v-1.622l-1.228.3-.687-1.276.632-1.114-.806.174S6196.412,988.209,6196.362,988.207Z" transform="translate(-6106.325 -966.778)" fill="#e58635"/>
        <path id="Path_8458" data-name="Path 8458" d="M23.7,8.061l1.363-.642-2.716-.833-3.658.5L14.7,5.031l-4.352.411L8.7,8.061V3.788s-.774,2.7-.764,2.443S7.557,1.9,7.557,1.9,6.715,8.3,6.805,5.443,6.805,0,6.805,0L5.6,5.911,5.088,1.455l-.4,4.775L3.6,1.9l.229,5.18L2.039,4.443,3.172,8.061S-.228,6.475.012,6.586,2.751,9.464,2.751,9.464L.78,9.221l2.392,1.206h-1.4l2.05,4.741Z" transform="matrix(0.966, 0.259, -0.259, 0.966, 102.613, 14.972)" fill="#131f27"/>
        <path id="Path_8474" data-name="Path 8474" d="M743.761-403.317l1.363-.642-2.716-.833-3.658.5-3.98-2.053-4.352.411-1.648,2.618v-4.273s-.774,2.7-.764,2.443-.382-4.326-.382-4.326-.842,6.391-.751,3.539,0-5.443,0-5.443l-1.2,5.911-.516-4.456-.4,4.775-1.1-4.326.229,5.18-1.785-2.641,1.133,3.618s-3.4-1.585-3.16-1.475,2.739,2.878,2.739,2.878l-1.971-.244,2.392,1.206h-1.4l2.05,4.741Z" transform="translate(-633.876 434.465)" fill="#131f27"/>
        <path id="Path_8712" data-name="Path 8712" d="M721.829-401.913l1.248.161-2.452-2.711,2.719,1.4-.732-2.874,1.278,1.641v-4.437l.869,3.583.54-3.76.371,3.441,1.2-5.039v5.358l.862-3.445.271,3.126.764-2.124s-.774,2.7-.764,2.443-.382-4.326-.382-4.326-.842,6.391-.751,3.539,0-5.443,0-5.443l-1.2,5.911-.516-4.456-.4,4.775-1.1-4.326.229,5.18-1.785-2.641,1.133,3.618s-3.4-1.585-3.16-1.475,2.739,2.878,2.739,2.878l-1.971-.244,2.392,1.206Z" transform="translate(-633.876 434.465)" fill="#3c9d40"/>
        <g id="Group_1091" data-name="Group 1091" transform="translate(66.438 9.339)">
          <g transform="matrix(1, 0, 0, 1, -174.95, -78.76)" filter="url(#Path_8496)">
            <path id="Path_8496-2" data-name="Path 8496" d="M3.06,22.628C2.945,22.573-.182,19.761.008,16.47a8.341,8.341,0,0,1,1.565-4.881c.49-1.018.117,1.175.129,1.8s2.323-.912,2.416-3.045-.139-2.825,0-3.292.579-.027.649.5S6.527,11.122,6.2,6,5.638-.588,6.2.2s4.716,6.541,4.344,10S9.1,15.536,9.765,14.644a11.964,11.964,0,0,0,1.242-2.5,5.035,5.035,0,0,1-.133,3.9c-.94,2.19-.239,1.313.133,1.209s1.726,1.888,0,4.745S3.06,22.628,3.06,22.628Z" transform="translate(174.95 80.41) rotate(-8)" fill="#e05b2a"/>
          </g>
          <path id="Path_8494" data-name="Path 8494" d="M1.146,10.4S-.842,7.32.419,5.265,3.788,1.323,3.986.2,3.35,3.046,3.8,4.28s1.129,3.685.438,4.672,1.778.007,1.922-1.174.574-1.53.635-.638a7.653,7.653,0,0,1-.811,3.875C5.348,11.863,1.146,10.4,1.146,10.4Z" transform="translate(4.159 13.746) rotate(-8)" fill="#f0d659"/>
          <path id="Path_8495" data-name="Path 8495" d="M.354,5.417a4.135,4.135,0,0,1,0-3.2C1.138.755,1.31-.25,1.32.055a20.572,20.572,0,0,1,.446,3.318c-.118.7-.446,2.294-.446,2.294Z" transform="translate(6.1 18.657) rotate(-8)" fill="#fff"/>
          <path id="Path_8702" data-name="Path 8702" d="M-18.133,152.686c-.4-1.134.08-2.18.163-4.712s-.551-3.487-.8-3.831,1.94.571,1.5,4.144A16.84,16.84,0,0,1-18.133,152.686Z" transform="translate(27.351 -136.819)" fill="#ffd62c"/>
        </g>
        <path id="Path_8696" data-name="Path 8696" d="M18.09,3.432l.785-1.313L15.134,1.106,11.41,0,7.526.367H4.361L1.02,3.715,0,8.279l13.793,7.763,1.3-10.278Z" transform="matrix(0.966, 0.259, -0.259, 0.966, 55.781, 28.136)" fill="#131f27"/>
        <path id="Path_9263" data-name="Path 9263" d="M6.68,3.432l.785-1.313L3.724,1.106,0,0,4.555,1.689Z" transform="matrix(0.966, 0.259, -0.259, 0.966, 66.802, 31.089)" fill="#f0d659"/>
        <path id="Path_8697" data-name="Path 8697" d="M27.637,13.208l.646,1.079-3.076.833-3.062.909-3.193-.3h-2.6L13.6,12.976,0,.488,30.173,0l.436,5.606Z" transform="matrix(-0.966, 0.259, -0.259, -0.966, 97.757, 42.825)" fill="#131f27"/>
        <path id="Path_9262" data-name="Path 9262" d="M5.006.231,7.952,0,5.8.684,2.6.382H0L1.183,0Z" transform="matrix(-0.966, 0.259, -0.259, -0.966, 77.991, 32.235)" fill="#ad6348"/>
        <path id="Path_8713" data-name="Path 8713" d="M128.707,192.352c.141-1.252.311-1.532.3-.887A1.178,1.178,0,0,1,128.707,192.352Z" transform="translate(-48.365 -167.16)" fill="#fff"/>
        <path id="Path_8714" data-name="Path 8714" d="M122.3,173.365c.1-.646.35-1.224.269-.725A1.6,1.6,0,0,1,122.3,173.365Z" transform="translate(-43.388 -152.648)" fill="#e05b2a"/>
        <path id="Path_8715" data-name="Path 8715" d="M114.476,149.443c-.634-.928-1.118-1.387-.639-1.159S114.476,149.443,114.476,149.443Z" transform="translate(-36.662 -133.827)" fill="#fff"/>
        <path id="Path_8716" data-name="Path 8716" d="M89.539,116.626c.06-.883.211-1.842.84-2.179s-.236.725-.4,1.16S89.539,116.626,89.539,116.626Z" transform="translate(-17.935 -107.533)" fill="#ffd62c"/>
        <path id="Path_9274" data-name="Path 9274" d="M0,1.715C.041,1.04.142.307.565.05S.406.6.3.936,0,1.715,0,1.715Z" transform="translate(70.99 15.079) rotate(-42)" fill="#ffd62c"/>
        <path id="Path_8717" data-name="Path 8717" d="M84.705,177.635c.153-.687-.306-1.333-.335-.976A2.362,2.362,0,0,0,84.705,177.635Z" transform="translate(-13.918 -155.838)" fill="#f0d659"/>
        <path id="Path_8718" data-name="Path 8718" d="M77.967,218.461c-.765-.645-1.042-1.438-.972-.981S77.967,218.461,77.967,218.461Z" transform="translate(-8.182 -187.526)" fill="#fff"/>
        <path id="Path_9264" data-name="Path 9264" d="M21.9,6.57l1.26.593-2.511.77-3.382-.46L13.59,9.37,9.568,8.99,8.045,6.57v3.95s-.715-2.494-.706-2.258-.353,4-.353,4S6.206,6.353,6.29,8.989s0,5.031,0,5.031L5.18,8.556,4.7,12.675,4.338,8.262l-1.015,4,.212-4.788L1.885,9.914,2.932,6.57S-.211,8.035.011,7.933s2.532-2.66,2.532-2.66L.721,5.5,2.932,4.382H1.64L3.535,0Z" transform="matrix(-0.999, 0.035, -0.035, -0.999, 23.637, 77.56)" fill="#131f27"/>
        <path id="Path_9275" data-name="Path 9275" d="M0,1.132C.02.687.07.2.278.033S.2.4.147.618,0,1.132,0,1.132Z" transform="matrix(0.999, 0.035, -0.035, 0.999, 71.343, 3.878)" fill="#ffd62c"/>
        <path id="Path_9276" data-name="Path 9276" d="M0,.748C.021.454.073.134.291.022S.21.263.154.408,0,.748,0,.748Z" transform="translate(72.009 2.027) rotate(-41)" fill="#ffd62c"/>
        <path id="Path_9277" data-name="Path 9277" d="M0,.539C.017.327.058.1.232.016S.167.19.123.294,0,.539,0,.539Z" transform="translate(70.95 0.193) rotate(-41)" fill="#ffd62c"/>
        <path id="Path_9278" data-name="Path 9278" d="M0,.4A.4.4,0,0,1,.26.012C.454-.048.187.14.137.217A2.059,2.059,0,0,1,0,.4Z" transform="translate(70.794 2.366) rotate(-41)" fill="#ffd62c"/>
        <path id="Path_9279" data-name="Path 9279" d="M114.045,148.838c-.306-.466-.54-.7-.309-.582S114.045,148.838,114.045,148.838Z" transform="translate(-38.893 -139.181)" fill="#fff"/>
        <path id="Path_9280" data-name="Path 9280" d="M114.045,148.838c-.306-.466-.54-.7-.309-.582S114.045,148.838,114.045,148.838Z" transform="translate(-38.893 -139.181)" fill="#fff"/>
        <path id="Path_9281" data-name="Path 9281" d="M113.643,148.837c.306-.466.54-.7.309-.582S113.643,148.837,113.643,148.837Z" transform="translate(-40.008 -142.974)" fill="#fff"/>
      </g>
      <rect id="Rectangle_648" data-name="Rectangle 648" width="428.62" height="12.012" transform="translate(0 149.64)" fill="#131f27"/>
    </g>
  </g>
</svg>
