<svg xmlns="http://www.w3.org/2000/svg" xmlns:xlink="http://www.w3.org/1999/xlink" width="727.47" height="181.4" viewBox="0 0 727.47 181.4">
  <defs>
    <linearGradient id="linear-gradient" x1="0.068" y1="0.436" x2="1.887" y2="0.371" gradientUnits="objectBoundingBox">
      <stop offset="0" stop-color="#e6e4e4"/>
      <stop offset="1" stop-color="gray"/>
    </linearGradient>
    <clipPath id="clip-Custom_Size_1">
      <rect width="727.47" height="181.4"/>
    </clipPath>
  </defs>
  <g id="Custom_Size_1" data-name="Custom Size – 1" clip-path="url(#clip-Custom_Size_1)">
    <g id="Group_1" data-name="Group 1" transform="translate(600.594 125.379)">
      <g id="left-lawn1" transform="translate(-619.859 -34.784)">
        <path id="Path_7676" data-name="Path 7676" d="M595.586,665.461,258.4,698.415H181.878L11.715,723.435l583.871,30.218Z" transform="translate(-11.715 -664.925)" fill="#6b8464"/>
        <path id="Path_7856" data-name="Path 7856" d="M14.65,698.322s-7.693,7.8-3.81,12.264c1.222,1.408,3.908,2.5,8.762,2.724C38.489,714.165,98.18,702.7,98.18,702.7s70.637-12.648,153.306-4.373,176.814,33.1,176.814,33.1l195.179-7.174s-128.717-67.327-212.86-58.683L91.728,698.322Z" transform="translate(156.103 -664.797)" fill="#709367"/>
      </g>
      <g id="illustration" transform="translate(-489.596 -72.166)">
        <g id="Plant_1_" transform="translate(349.105 66.901)">
          <path id="Path_983" data-name="Path 983" d="M633.578,496.007s6.955-4.173,12.8-5.007a31.978,31.978,0,0,1-7.511,11.962c-5.285,5.007-19.751,14.744-19.751,14.744L618,506.3Z" transform="translate(-616.609 -487.94)" fill="#264a25"/>
          <path id="Path_984" data-name="Path 984" d="M655.336,527s1.224,2.337-9.681,2.977-27.6,13.436-27.6,13.436l-3.06-3.06,2.225-3.338s16.134-9.736,22.255-9.736S648.1,527,652,527.556C652,527.556,654.5,527.834,655.336,527Z" transform="translate(-614.444 -513.925)" fill="#4c7f3c"/>
          <path id="Path_986" data-name="Path 986" d="M615,530.438s18.36-8.624,21.7-11.405,7.511-6.676,8.624-8.624c0,0,.835-.835,1.391-.556s.278,6.4-1.669,8.624-1.947,3.338-6.4,5.007c-2.531.946-10.571,5.313-16.413,6.954A11.391,11.391,0,0,1,615,530.438Z" transform="translate(-614.444 -501.507)" fill="#4d8a2a"/>
          <path id="Path_987" data-name="Path 987" d="M621,568.063s11.406-7.233,15.3-8.067,7.233-1.669,11.405,1.391,3.895,3.06,6.676,1.947c0,0,1.947,1.391-1.947,2.5S621,568.063,621,568.063Z" transform="translate(-618.774 -537.184)" fill="#579d37"/>
          <path id="Path_1272" data-name="Path 1272" d="M643.034,514.628c5.641.178-12.537,11.717-14.888,11.967s-1.184-1.969-1.184-1.969S637.393,514.45,643.034,514.628Z" transform="translate(-621.104 -500.524)" fill="#3a622d"/>
          <path id="Path_1273" data-name="Path 1273" d="M613,503.645s1.947-7.511,9.736-14.466a70.143,70.143,0,0,1,7.233-5.007A23.045,23.045,0,0,0,634.976,480s.835,0-.556,2.5-1.669,3.616-2.225,4.729-1.113,6.955-3.06,8.067-3.894,7.233-13.909,13.075Z" transform="translate(-613 -480)" fill="#4b8730"/>
          <path id="Path_1274" data-name="Path 1274" d="M627.1,508.464s10.507-7.82,11.783-12.507a116.584,116.584,0,0,1,4.3-11.757,20.658,20.658,0,0,0-3.9,5.7,41.879,41.879,0,0,1-3.259,6.727C634.455,499.4,627.1,508.464,627.1,508.464Z" transform="translate(-621.357 -482.49)" fill="#579d37"/>
          <path id="Path_1275" data-name="Path 1275" d="M4477.9,2639.265s4.594,2.547,3.571,2.684S4477.9,2639.265,4477.9,2639.265Z" transform="translate(-4451.06 -2616.136)" fill="#6fbc4c"/>
        </g>
        <g id="Group_464" data-name="Group 464" transform="translate(117.166 54.911)">
          <path id="Path_1277" data-name="Path 1277" d="M3869.126,2532.932c2.352-1.215,22.478-6.315,24.136-3.059s-11.636,43.5-14.891,43.714-6.341-.461-6.419-2.479S3866.773,2534.147,3869.126,2532.932Z" transform="translate(-3868.507 -2528.653)" fill="#3b474d"/>
          <path id="Path_1276" data-name="Path 1276" d="M3867.489,2531.909c1.408-1.54,19.15-5.548,20.656-2.292s-8.595,43.484-11.55,43.693-6.584-.989-6.656-3.007S3866.08,2533.449,3867.489,2531.909Z" transform="translate(-3860.917 -2528.376)"/>
        </g>
        <path id="Path_1245" data-name="Path 1245" d="M0,0H727.47V37.482H0Z" transform="translate(-110.998 96.373)" fill="#263d51"/>
        <g id="Left-notebook" transform="translate(140.915 99.643)">
          <path id="Path_995" data-name="Path 995" d="M52.573,606l17.159,4.466s-16.8-3.1-22.814-4.225Z" transform="translate(-46.919 -600.128)" fill="#1a2a38"/>
          <g id="Group_360" data-name="Group 360" transform="translate(5.303)">
            <path id="Path_996" data-name="Path 996" d="M62,593.484l17.511,4.641,24.332-3.938L87,589.3S80.953,591.691,62,593.484Z" transform="translate(-62 -589.3)" fill="#fff"/>
            <path id="Path_997" data-name="Path 997" d="M111.8,608.932l24.332-3.938V603.2L111.8,607.138Z" transform="translate(-94.289 -598.313)" fill="#c1b9be"/>
            <path id="Path_998" data-name="Path 998" d="M79.511,605.841,62,601.2v1.793l17.511,4.641Z" transform="translate(-62 -597.016)" fill="#8b8184"/>
          </g>
          <g id="Group_361" data-name="Group 361" transform="translate(5.655 4.466)">
            <path id="Path_999" data-name="Path 999" d="M63.141,603.864a1.2,1.2,0,0,1-.141-.633A1.15,1.15,0,0,1,64.055,602" transform="translate(-63 -602)" fill="none" stroke="#0c1623" stroke-linecap="round" stroke-linejoin="round" stroke-miterlimit="10" stroke-width="1"/>
            <path id="Path_1000" data-name="Path 1000" d="M67.141,604.864a1.2,1.2,0,0,1-.141-.633A1.15,1.15,0,0,1,68.055,603" transform="translate(-65.593 -602.648)" fill="none" stroke="#0c1623" stroke-linecap="round" stroke-linejoin="round" stroke-miterlimit="10" stroke-width="1"/>
            <path id="Path_1001" data-name="Path 1001" d="M71.141,605.864a1.2,1.2,0,0,1-.141-.633A1.15,1.15,0,0,1,72.055,604" transform="translate(-68.187 -603.297)" fill="none" stroke="#0c1623" stroke-linecap="round" stroke-linejoin="round" stroke-miterlimit="10" stroke-width="1"/>
            <path id="Path_1002" data-name="Path 1002" d="M75.141,606.864a1.2,1.2,0,0,1-.141-.633A1.15,1.15,0,0,1,76.055,605" transform="translate(-70.78 -603.945)" fill="none" stroke="#0c1623" stroke-linecap="round" stroke-linejoin="round" stroke-miterlimit="10" stroke-width="1"/>
            <path id="Path_1003" data-name="Path 1003" d="M79.141,607.864a1.2,1.2,0,0,1-.141-.633A1.15,1.15,0,0,1,80.055,606" transform="translate(-73.374 -604.594)" fill="none" stroke="#0c1623" stroke-linecap="round" stroke-linejoin="round" stroke-miterlimit="10" stroke-width="1"/>
            <path id="Path_1004" data-name="Path 1004" d="M83.141,608.864a1.2,1.2,0,0,1-.141-.633A1.15,1.15,0,0,1,84.055,607" transform="translate(-75.967 -605.242)" fill="none" stroke="#0c1623" stroke-linecap="round" stroke-linejoin="round" stroke-miterlimit="10" stroke-width="1"/>
            <path id="Path_1005" data-name="Path 1005" d="M87.141,609.864a1.2,1.2,0,0,1-.141-.633A1.15,1.15,0,0,1,88.055,608" transform="translate(-78.561 -605.89)" fill="none" stroke="#0c1623" stroke-linecap="round" stroke-linejoin="round" stroke-miterlimit="10" stroke-width="1"/>
            <path id="Path_1006" data-name="Path 1006" d="M91.141,610.864a1.2,1.2,0,0,1-.141-.633A1.15,1.15,0,0,1,92.055,609" transform="translate(-81.154 -606.539)" fill="none" stroke="#0c1623" stroke-linecap="round" stroke-linejoin="round" stroke-miterlimit="10" stroke-width="1"/>
            <path id="Path_1007" data-name="Path 1007" d="M95.141,611.864a1.2,1.2,0,0,1-.141-.633A1.15,1.15,0,0,1,96.055,610" transform="translate(-83.748 -607.187)" fill="none" stroke="#0c1623" stroke-linecap="round" stroke-linejoin="round" stroke-miterlimit="10" stroke-width="1"/>
            <path id="Path_1008" data-name="Path 1008" d="M99.141,612.864a1.2,1.2,0,0,1-.141-.633A1.15,1.15,0,0,1,100.055,611" transform="translate(-86.341 -607.835)" fill="none" stroke="#0c1623" stroke-linecap="round" stroke-linejoin="round" stroke-miterlimit="10" stroke-width="1"/>
            <path id="Path_1009" data-name="Path 1009" d="M103.141,613.864a1.2,1.2,0,0,1-.141-.633A1.15,1.15,0,0,1,104.055,612" transform="translate(-88.935 -608.484)" fill="none" stroke="#0c1623" stroke-linecap="round" stroke-linejoin="round" stroke-miterlimit="10" stroke-width="1"/>
            <path id="Path_1010" data-name="Path 1010" d="M107.141,614.864a1.2,1.2,0,0,1-.141-.633A1.15,1.15,0,0,1,108.055,613" transform="translate(-91.528 -609.132)" fill="none" stroke="#0c1623" stroke-linecap="round" stroke-linejoin="round" stroke-miterlimit="10" stroke-width="1"/>
          </g>
        </g>
        <g id="Papers" transform="translate(264.374 94.611)">
          <path id="Path_988" data-name="Path 988" d="M418,606.693h30.51L463.5,590.8H434.892Z" transform="translate(-400.078 -585.24)" fill="#ccdee9"/>
          <g id="Group_356" data-name="Group 356" transform="translate(25.306 8.091)">
            <line id="Line_16" data-name="Line 16" x1="20.043" transform="translate(0 10.549)" fill="none" stroke="#a0b0cb" stroke-linecap="round" stroke-miterlimit="10" stroke-width="1"/>
            <line id="Line_17" data-name="Line 17" x1="20.043" transform="translate(1.407 9.494)" fill="none" stroke="#a0b0cb" stroke-linecap="round" stroke-miterlimit="10" stroke-width="1"/>
            <line id="Line_18" data-name="Line 18" x1="20.043" transform="translate(2.461 8.439)" fill="none" stroke="#a0b0cb" stroke-linecap="round" stroke-miterlimit="10" stroke-width="1"/>
            <line id="Line_19" data-name="Line 19" x1="20.043" transform="translate(3.516 7.384)" fill="none" stroke="#a0b0cb" stroke-linecap="round" stroke-miterlimit="10" stroke-width="1"/>
            <line id="Line_20" data-name="Line 20" x1="20.043" transform="translate(4.923 6.329)" fill="none" stroke="#a0b0cb" stroke-linecap="round" stroke-miterlimit="10" stroke-width="1"/>
            <line id="Line_21" data-name="Line 21" x1="20.043" transform="translate(5.978 5.274)" fill="none" stroke="#a0b0cb" stroke-linecap="round" stroke-miterlimit="10" stroke-width="1"/>
            <line id="Line_22" data-name="Line 22" x1="20.043" transform="translate(8.439 3.165)" fill="none" stroke="#a0b0cb" stroke-linecap="round" stroke-miterlimit="10" stroke-width="1"/>
            <line id="Line_23" data-name="Line 23" x1="20.043" transform="translate(9.494 2.11)" fill="none" stroke="#a0b0cb" stroke-linecap="round" stroke-miterlimit="10" stroke-width="1"/>
            <line id="Line_24" data-name="Line 24" x1="20.043" transform="translate(10.549 1.055)" fill="none" stroke="#a0b0cb" stroke-linecap="round" stroke-miterlimit="10" stroke-width="1"/>
            <line id="Line_25" data-name="Line 25" x1="20.043" transform="translate(11.604)" fill="none" stroke="#a0b0cb" stroke-linecap="round" stroke-miterlimit="10" stroke-width="1"/>
            <line id="Line_26" data-name="Line 26" x1="20.043" transform="translate(7.384 4.22)" fill="none" stroke="#a0b0cb" stroke-linecap="round" stroke-miterlimit="10" stroke-width="1"/>
          </g>
          <g id="Group_357" data-name="Group 357">
            <path id="Path_989" data-name="Path 989" d="M388.8,628.9c5.169,0-9.529-.633-11.041-1.9,0,0-1.406,1.055-1.758.352C376,627.352,375.93,628.9,388.8,628.9Z" transform="translate(-372.846 -608.712)" fill="#a1bacb"/>
            <path id="Path_990" data-name="Path 990" d="M367.031,574.991l23.9,1.761s8.087,12.658,16.526,17.23c0,0-30.943,3.165-35.514-.7,0,0-1.407,1.055-1.758.352S368.086,587.3,367.031,574.991Z" transform="translate(-367.031 -574.991)" fill="#e4f1fa"/>
          </g>
          <line id="Line_27" data-name="Line 27" x1="17.933" transform="translate(4.033 6.86)" fill="none" stroke="#a0b0cb" stroke-linecap="round" stroke-miterlimit="10" stroke-width="1"/>
          <line id="Line_28" data-name="Line 28" x1="6.47" transform="translate(3.681 5.453)" fill="none" stroke="#a0b0cb" stroke-linecap="round" stroke-miterlimit="10" stroke-width="1"/>
          <line id="Line_29" data-name="Line 29" x1="7.912" transform="translate(13.703 5.453)" fill="none" stroke="#a0b0cb" stroke-linecap="round" stroke-miterlimit="10" stroke-width="1"/>
          <line id="Line_30" data-name="Line 30" x1="17.933" transform="translate(4.385 8.266)" fill="none" stroke="#a0b0cb" stroke-linecap="round" stroke-miterlimit="10" stroke-width="1"/>
          <line id="Line_31" data-name="Line 31" x1="20.043" transform="translate(4.736 9.673)" fill="none" stroke="#a0b0cb" stroke-linecap="round" stroke-miterlimit="10" stroke-width="1"/>
          <g id="Group_358" data-name="Group 358" transform="translate(5.088 11.959)">
            <path id="Path_991" data-name="Path 991" d="M384.785,610.582h-1.758A4.081,4.081,0,0,1,382.5,609h1.758A4.082,4.082,0,0,0,384.785,610.582Z" transform="translate(-382.148 -609)" fill="none" stroke="#a0b0cb" stroke-linecap="round" stroke-linejoin="round" stroke-miterlimit="10" stroke-width="1"/>
            <path id="Path_992" data-name="Path 992" d="M382.907,610.852l-.7-.352-.7,1.055" transform="translate(-381.5 -609.972)" fill="none" stroke="#a0b0cb" stroke-linecap="round" stroke-linejoin="round" stroke-miterlimit="10" stroke-width="1"/>
          </g>
          <g id="Group_359" data-name="Group 359" transform="translate(5.791 14.772)">
            <path id="Path_993" data-name="Path 993" d="M386.785,618.582h-1.758A4.082,4.082,0,0,1,384.5,617h1.758A4.082,4.082,0,0,0,386.785,618.582Z" transform="translate(-384.148 -617)" fill="none" stroke="#a0b0cb" stroke-linecap="round" stroke-linejoin="round" stroke-miterlimit="10" stroke-width="1"/>
            <path id="Path_994" data-name="Path 994" d="M384.906,618.852l-.7-.352-.7,1.055" transform="translate(-383.5 -617.972)" fill="none" stroke="#a0b0cb" stroke-linecap="round" stroke-linejoin="round" stroke-miterlimit="10" stroke-width="1"/>
          </g>
          <line id="Line_32" data-name="Line 32" y1="0.352" x2="16.175" transform="translate(10.186 12.31)" fill="none" stroke="#a0b0cb" stroke-linecap="round" stroke-miterlimit="10" stroke-width="1"/>
          <line id="Line_33" data-name="Line 33" y1="0.352" x2="19.339" transform="translate(10.89 15.123)" fill="none" stroke="#a0b0cb" stroke-linecap="round" stroke-miterlimit="10" stroke-width="1"/>
          <path id="Path_1239" data-name="Path 1239" d="M4206.872,2652.772a20.95,20.95,0,0,0-9.656,0c-5.118,1.863.01,4.968-3.34,5.029a37.763,37.763,0,0,0-11.186,1.776,17.3,17.3,0,0,0-2.162.407,88.348,88.348,0,0,1-2.024-13.555h23.852Z" transform="translate(-4178.339 -2644.619)" fill="#97a6af" opacity="0.414"/>
        </g>
        <g id="left_man" data-name="left man" transform="translate(127.061)">
          <path id="Path_1165" data-name="Path 1165" d="M4013.931,2460.552c-2.739,2.26-10.625,11.111-16.013.769s-8.983-16.676-7.886-26.7-1.622-16.546,5.257-15.651,8.132,7.886,11.134,13.155,4.869,14,5.179,14.933,2.387,4.384,2.872,5.45S4013.931,2460.552,4013.931,2460.552Z" transform="translate(-3950.342 -2402.476)" fill="#bc907b"/>
          <path id="Path_1282" data-name="Path 1282" d="M1101.68,2487.666c-2.316,1.967-8.225,1.285-12.02-.289-1.387-.575-2.922-3.846-4.283-4.578-1.234-.662-2.872.89-3.94.513-.41-.137-.5-1.725-.708-2.707,0,0,1.4-10.37,2.041-6.35-.187,2.309,3.352,6.831,4.037,6.35,1.553-1.092,3.5-1.961,3.578-.4a16.773,16.773,0,0,0,.272,1.66C1091.248,2484.591,1106.4,2483.659,1101.68,2487.666Z" transform="translate(-1041.857 -2444.729)" opacity="0.251"/>
          <path id="Path_1167" data-name="Path 1167" d="M3998.556,2510.469s13.549,11.723,17.04,5.32c.985-1.806,1.789-2.178,2.552-1.676,1.636,1.06,2.525,7.45,3.423,8.859,1.251,1.962,7.843,13.6,6.829,17.763s-12.021,9.716-16.23,6.749-1.477,4.41-4.457-6.749S3998.556,2510.469,3998.556,2510.469Z" transform="translate(-3955.997 -2461.855)" fill="#fff"/>
          <path id="Path_1164" data-name="Path 1164" d="M4063.2,2495.475s6.113,1.308,6.861,3.142,6.684,28.927,7.169,29.973-9.5,4.78-10.8,1.713-7.821-22.561-7.821-22.8S4063.2,2495.475,4063.2,2495.475Z" transform="translate(-3994.939 -2452.133)" fill="#2c5dba"/>
          <path id="Path_1158" data-name="Path 1158" d="M3915.613,2468.4s-21.938,11.5-24.3,13.337-5-.481-5.861,6.231-7.824,28.772-7.5,32.639.44,10.408.44,10.408h54.667s-7.586-39.151-8.918-42.083S3915.613,2468.4,3915.613,2468.4Z" transform="translate(-3877.791 -2434.581)" fill="#2c5dba"/>
          <path id="Path_1160" data-name="Path 1160" d="M3934.7,2519.332c-1.657-.127,11.633,5.809,5.646,24.735-2.173,6.87-1.109,20.425.054,19.956.625-.247,3.57-.463,2.459-5.635-1.471-6.6,1.255-22.3.9-25.578C3942.889,2524.868,3936.361,2519.46,3934.7,2519.332Z" transform="translate(-3914.503 -2467.6)" fill="#1f4fac"/>
          <path id="Path_1163" data-name="Path 1163" d="M4045.666,2504.735a28.671,28.671,0,0,0,1.97,6.264c1.18,2.208,9.289,21.664,10.488,26.74s.234-9.92,0-13.839c-.146-2.465,1.1-5.015,1.136-6.641.019-.789-.542-1.358-1.639-1.258-2.958.271-6.856.358-4.183-1.244s7.559,1.06,4.686-2.013a45.591,45.591,0,0,1-5.516-8.009Z" transform="translate(-3986.542 -2458.137)" fill="#3f6abc"/>
          <path id="Path_1170" data-name="Path 1170" d="M4026,2441.216l14.43,7.032-3.331,16.166h-2.435l-13.151-8.935.269-6.971,2.406-7.292Z" transform="translate(-3970.881 -2416.953)" fill="#bc907b"/>
          <path id="Path_1171" data-name="Path 1171" d="M4061.242,2477.271a39.078,39.078,0,0,0-1.039,4.822c-.382,2.556-.547,5.681-1.764,6.265-2.405,1.156-4.828-5.848-4.828-5.848l3.368-5.775Z" transform="translate(-3991.694 -2439.983)" fill="#bc907b"/>
          <path id="Path_1172" data-name="Path 1172" d="M4017.077,2458.588s-.994,5.535,0,7.685a22.311,22.311,0,0,0,5.423,5.89,29.7,29.7,0,0,0,5.807,3.526c2.667,1.135,5.406,1.764,5.84,1.529a5.315,5.315,0,0,0,1.812-3.4c.366-1.983-3.357,1.543-3.357,1.543s-12.259-6.925-13.26-9.447-.98-.831-.579-3.395A4.113,4.113,0,0,0,4017.077,2458.588Z" transform="translate(-3967.719 -2428.217)"/>
          <path id="Path_1174" data-name="Path 1174" d="M4061.867,2479.844s-4.3-.91-6.18,2.91,1.36,0,1.956,0" transform="translate(-3992.664 -2441.937)" fill="#262626"/>
          <path id="Path_1175" data-name="Path 1175" d="M4057.059,2490.036c.27,1.418,3.122,1.591,3.825,1.014.057-.17.105-.363.164-.2a13.635,13.635,0,0,1-.558,4.047c-.7.632-3.431,1.073-3.431,1.073l-2.2-3.2S4056.79,2488.618,4057.059,2490.036Z" transform="translate(-3992.503 -2448.415)"/>
          <path id="Path_1178" data-name="Path 1178" d="M4055.719,2486.281c1.144-1.783-.858,2.974-.858,2.974A4.189,4.189,0,0,1,4055.719,2486.281Z" transform="translate(-3992.483 -2445.912)"/>
          <path id="Path_1180" data-name="Path 1180" d="M4040.143,2431.165s3.684-8.665,1.947-21.219-20.91,4.845-20.91,4.845,9.624,9.431,14.365,13.525S4040.143,2431.165,4040.143,2431.165Z" transform="translate(-3970.666 -2393.728)" fill="#bc907b"/>
          <path id="Path_1182" data-name="Path 1182" d="M4068.266,2482.764s1.8-2.45.254-2.616a3.219,3.219,0,0,0-3.127,1.206c-.384.69.911-.213,1.717.121s1.271-.375,1.08.717-.1.352-.1.352" transform="translate(-3999.288 -2442.178)" fill="#262626"/>
          <path id="Path_1183" data-name="Path 1183" d="M4062.053,2483.286s4.044-2.345,3.564-.132c-.058.268-.138.693-.138.693l.351-.693.535-1.278s-1.906-1.138-2.626-.531a28.407,28.407,0,0,0-2.149,2.293Z" transform="translate(-3996.867 -2442.503)" fill="#262626"/>
          <path id="Path_1184" data-name="Path 1184" d="M4073,2448.43l1.729,10.216s-.825,1.42-3.163.769S4073,2448.43,4073,2448.43Z" transform="translate(-4002.837 -2422.147)" fill="#bc907b"/>
          <path id="Path_1185" data-name="Path 1185" d="M4063.262,2480.018s3.209-1.132,3.691-.823.366.13.454,0,.45.414.375.823-4.52.089-4.52.089" transform="translate(-3997.95 -2441.543)" fill="#262626"/>
          <path id="Path_1241" data-name="Path 1241" d="M4150.29,2659.826c.347.039-8.025,1-8.025,1l-.7-.531-3.229,1.412-5.427-2.214-.977-13.306,16.365.042S4149.942,2659.787,4150.29,2659.826Z" transform="translate(-4042.475 -2549.85)" opacity="0.31"/>
          <path id="Path_1246" data-name="Path 1246" d="M4041.784,2413.964a26.773,26.773,0,0,1-6.372,1.147c-3.631.167-6.955-1.486-7.5,1.051.576,4.02-.659,6.094-4.3,8.744s-2.386,4.181-1.049,6.533,10.6,10.488,6.007,8.185-8.232-6.519-7.844-9.972-1.063-5.3.731-8.793,2.093-5.713,3.172-6.364,4.285-4.208,5.946-3.24c1.128.658,6.749-1.65,9.732-.589C4041.573,2411.115,4041.784,2413.964,4041.784,2413.964Z" transform="translate(-3970.253 -2396.962)" fill="#9a7664"/>
          <path id="Path_1247" data-name="Path 1247" d="M4031.4,2466.443s-.634-.074-2.279-.342-7.28-4.039-7.449-10.936c-.1-4.138-1.855-1.42-2.476,1.917a13.608,13.608,0,0,0,.269,4.748l5.4,5.479,6.94,4.212,2.609.411s-2.106-4.744,0-6.46S4031.4,2466.443,4031.4,2466.443Z" transform="translate(-3969.301 -2424.639)"/>
          <path id="Path_1254" data-name="Path 1254" d="M3972.936,2478.685s1.109,19.077,2.233,20.076,4.384.912,6.575-.939,2.871.939,2.871.939-5.675,1.448-5.5,2.874,8.711,15.6,8.711,15.6-.1-19.652-1.7-22.326S3972.936,2478.685,3972.936,2478.685Z" transform="translate(-3939.386 -2441.247)" fill="#1f4fac"/>
          <path id="Path_1253" data-name="Path 1253" d="M3994.78,2405.5c-.42,3.406,3.365-4.769,5.213-5.963s3.31-3.673,2.565-5.536-.755-5.189,2.61-5.11,12.224.08,12.964-.969,2.423-4.776-2.769-7.384-13.369-9.763-18.67-8.063-12.482,2.286-13.6,9.53,1.507,18.806,2.25,19.459-.148.578,1.6-4.043c.566-1.5,2.674-1.266,3.954-.669C3993.348,2397.169,3994.568,2401.814,3994.78,2405.5Z" transform="translate(-3945.792 -2372.213)"/>
          <path id="Path_1257" data-name="Path 1257" d="M4070.865,2531.725s.5.612.151.829-5.123.058-5.385.564-1.226-.572,1.2-1.287a9.177,9.177,0,0,1,1.7-.291A15.728,15.728,0,0,1,4070.865,2531.725Z" transform="translate(-3999.221 -2475.516)" fill="#3749af"/>
          <path id="Path_1258" data-name="Path 1258" d="M3888.516,2509.094s2.542,8.734.408,17.052-4.2,18.562-3.187,23.908,1.207,7.486,1.207,7.486h-8.682s-1.026-9.019-.662-11.423,8.053-32.181,8.137-34.525S3888.516,2509.094,3888.516,2509.094Z" transform="translate(-3877.522 -2460.963)" fill="#1f4fac"/>
          <path id="Path_1261" data-name="Path 1261" d="M3962.122,2466.177c-2.159-.206-7.1,2.146-7.1,2.146s6.153-4.956,10.264-5.691c0,0,.064-.771.123-1.942s2.149-1.113,2.149-1.113c-.1,2.09.054,7.833-.435,9.037C3966.262,2470.579,3964.281,2466.384,3962.122,2466.177Z" transform="translate(-3927.774 -2428.857)" fill="#0a2760"/>
          <path id="Path_1262" data-name="Path 1262" d="M3975.3,2459.074s-4.418,4.4-4.364,6.3,2.471,18.805,3.792,19.7,8.262-1.809,6.662.938-4.37,1.939-1.393,5.442,13.172,31.8,13.119,32.7-1.123-32.458-3.843-38.143S3972.859,2462.276,3975.3,2459.074Z" transform="translate(-3937.386 -2427.828)" fill="#3f6abc"/>
          <path id="Path_1280" data-name="Path 1280" d="M1092.087,2460.276c-2.761-.609-4.2,7.557-4.445,8.265s-2.027-.858-2.027-.858l-1.124-6.871a13.759,13.759,0,0,1,4.407-1.412C1090.881,2459.19,1092.992,2460.34,1092.087,2460.276Z" transform="translate(-1046.175 -2435.758)"/>
          <path id="Path_1281" data-name="Path 1281" d="M3901.029,2302.914s-3.573-.688-3.243,3.184.759,4.051.759,4.051Z" transform="translate(-3855.836 -2278.375)" fill="#bc907b"/>
          <path id="Path_1601" data-name="Path 1601" d="M129.166,99.992s3-.1,3.076-.658a.721.721,0,0,0-.474-.758Z" transform="translate(-83.748 -63.914)" fill="#7c6051"/>
          <path id="Path_1283" data-name="Path 1283" d="M4.163,6.518S-.059,9.075,0,5.393A15.956,15.956,0,0,1,.779,0Z" transform="translate(42.559 29.172) rotate(-13)" fill="#bc907b"/>
          <path id="Path_1284" data-name="Path 1284" d="M1099.816,2464.906s-3.334-1.235-3.511,1.437a11.769,11.769,0,0,0,.567,4.6,32.8,32.8,0,0,1,.1-4.387c.213-1.024,1.62-1.273,2.287-1.136s.559-.323.559-.323" transform="translate(-1053.816 -2439.512)" fill="#9a7664"/>
          <path id="Path_1596" data-name="Path 1596" d="M4057.059,2490.036c.27,1.418,3.122,1.591,3.825,1.014.057-.17.105-.363.164-.2a4.462,4.462,0,0,1-.252,2.241,7.456,7.456,0,0,1-3.455,1.262,3.058,3.058,0,0,1-2.481-1.587S4056.79,2488.618,4057.059,2490.036Z" transform="translate(-3992.503 -2448.415)" fill="#262626"/>
          <path id="Path_1297" data-name="Path 1297" d="M1051.723,2648.242c.918,4.337,10.624,4.893,10.624,4.893h-13.419l.309-6.307S1050.8,2643.906,1051.723,2648.242Z" transform="translate(-1023.117 -2556.675)" fill="#3749af"/>
          <path id="Path_1589" data-name="Path 1589" d="M4025.9,2412.537c1.848-1.194,3.31-3.673,2.564-5.537s-.755-5.189,2.61-5.11,12.224.081,12.963-.969,2.423-4.776-2.768-7.384-10.676-.785-15.369,1.224c-2.5,1.128-.5,6.257-.745,11.733-.17,3.76-2.954,6.762-2.272,8.618C4023.3,2416.255,4025.427,2413.092,4025.9,2412.537Z" transform="translate(-3971.702 -2385.216)" fill="#262626"/>
          <path id="Path_1590" data-name="Path 1590" d="M4033.316,2462.614c-.651.29-.72.407-2.287-.047s-7.4-4.66-7.565-11.557c-.1-4.138-.615-3.964-1.236-.626a11.117,11.117,0,0,0,.523,6.815,14.582,14.582,0,0,0,4.443,5.886,34.652,34.652,0,0,0,3.705,2.312c2.14,1.156,4.473,1.99,5.1,1.792s-1.621-3.282.046-4.888c.1-.114.666-.44.773-.649.427-.791-.821-1.277-1.667-.949C4034.424,2461.228,4033.961,2462.271,4033.316,2462.614Z" transform="translate(-3971.146 -2421.281)" fill="#262626"/>
          <path id="Path_1594" data-name="Path 1594" d="M147.684,69.124s-.373-1.963,2.116-4.4,2.347-4.525,2.257-5.007-3.632-2.982-3.391-1.789-1.155,4.253-1.709,6.035S147.684,69.124,147.684,69.124Z" transform="translate(-95.193 -37.351)" fill="#262626"/>
          <path id="Path_6401" data-name="Path 6401" d="M82.524,78.252s-2.876,1.356-4.509.385-1.757-1.574-1.757-1.574-.068-.6,1.277-2.5a20.043,20.043,0,0,1,1.649-2.038c.282-.318.577-.714,1.3-1.428a1.831,1.831,0,0,0-.21,1.271,12.236,12.236,0,0,0,1.287,3.789A9.9,9.9,0,0,1,82.524,78.252Z" transform="translate(-42.654 -39.768)" opacity="0.245"/>
        </g>
        <g id="laptop" transform="translate(149.249 76.295)">
          <g id="Laptop_1_">
            <path id="Path_1056" data-name="Path 1056" d="M120.621,628.331c-8.633-.306-43.923-1.176-47.577-1.3-8.359-.4.035-1.113,9.706-2.126,7.207-.755,15.062-1.828,17.491-2.218l54.888,2.993h0a8.848,8.848,0,0,1,4.29,2.039Z" transform="translate(-69.621 -587.599)" fill="#1a2a38"/>
            <path id="Path_1057" data-name="Path 1057" d="M319,624.329a3.215,3.215,0,0,0,3.165,0c2.461-1.406,8.791-5.626,8.791-5.626V618H320.371Z" transform="translate(-231.312 -584.56)" fill="#fff"/>
            <path id="Path_1058" data-name="Path 1058" d="M326.809,618v.7s-6.329,4.22-8.791,5.626c-1.653.949-5.413.707-5.413.707l3.655-2.465Z" transform="translate(-227.165 -584.56)" fill="#b7b7b7"/>
            <path id="Path_1059" data-name="Path 1059" d="M193.412,563.372l-60.444-1.406a2.506,2.506,0,0,1-2.5-2.5L125.9,525.4a2.506,2.506,0,0,1,2.5-2.5h61.851a2.506,2.506,0,0,1,2.5,2.5l3.165,35.479A2.506,2.506,0,0,1,193.412,563.372Z" transform="translate(-106.111 -522.9)" fill="#e6e4e4"/>
            <path id="Path_1060" data-name="Path 1060" d="M128.5,523a2.506,2.506,0,0,0-2.5,2.5v.106a2.5,2.5,0,0,1,2.461-2.215h61.851a2.506,2.506,0,0,1,2.5,2.5l3.165,35.338v-.211l-3.165-35.479a2.506,2.506,0,0,0-2.5-2.5" transform="translate(-106.176 -522.965)" fill="#fff"/>
          </g>
          <path id="Path_1263" data-name="Path 1263" d="M3964.612,2590.373s2.3,32.226,34.888,38.085c8.767,1.576,11.364,2,7.1,1.953-5.06-.173-18.726-.5-30.431-.756-12.616-.382-24.941-.611-24.941-.611l-4.658-38.554Z" transform="translate(-3923.383 -2589.958)" fill="url(#linear-gradient)"/>
        </g>
        <g id="LOGO" transform="translate(173.273 80.178) rotate(1)">
          <g id="Group_1-2" data-name="Group 1" transform="translate(0 0)">
            <path id="Path_1" data-name="Path 1" d="M1.964,2.619l.655.655-.655.655-.655-.655L.655,2.619,0,1.964l.655-.655L1.309.655,1.964,0l.655.655L1.309,1.964Z" transform="translate(0 0)" fill="#153042"/>
            <path id="Path_2" data-name="Path 2" d="M2.618,1.309l-.655.655-.655.655L0,1.309.655.655,1.309,0l.655.655Z" transform="translate(2.618 0.655)" fill="#ffb11c"/>
            <path id="Path_3" data-name="Path 3" d="M2.618,1.964l-.655.655-.655.655-.655.655L0,3.273l.655-.655.655-.655L.655,1.309,0,.655.655,0l.655.655.655.655Z" transform="translate(5.237 0)" fill="#153042"/>
          </g>
        </g>
        <g id="chair" transform="translate(271.321 49.257)">
          <path id="Path_1269" data-name="Path 1269" d="M4328.88,2559.406s.69-7.589,2.421-16.249c1.7-8.494,4.436-18.058,4.493-18.675.115-1.237,2.455-12.073-28.773-12.187s-28.1,19.278-28.1,19.278l2.436,27.832Z" transform="translate(-4278.833 -2512.296)" fill="#5d257b"/>
        </g>
        <g id="violet_guy" data-name="violet guy" transform="translate(240.362 1.758)">
          <path id="Path_1291" data-name="Path 1291" d="M4513.477,2352.33s3.448-.725,4.59-1.807,21.513,3.727,21.513,3.727.637,12.1,0,15.278-10.478,11.453-13.93,10.15-9.066-6.5-9.933-8.631S4513.477,2352.33,4513.477,2352.33Z" transform="translate(-4459.312 -2314.838)" fill="#d1a58a"/>
          <path id="Path_1288" data-name="Path 1288" d="M4409.436,2381.7s-1.525.683,1.845-4.4c.091-.138,9.741-19,19.16-21.087s23.178-4.333,23.178-4.333-1.959,12.293.083,15.647c1.474,2.422,2.1,1.346,3.211,2.08.3.2.994,2.4,1.454,2.666,1.652.972,1.228,6.777,4.317,5.028s0,11.768,0,11.768l-24.263-6.272-7.979,6.5-1.548.617a30.161,30.161,0,0,0-6.943-5.352C4417.946,2382.386,4409.436,2381.7,4409.436,2381.7Z" transform="translate(-4397.466 -2315.8)" fill="#00bcbe"/>
          <path id="Path_1289" data-name="Path 1289" d="M4446.442,2400.873c.913,4.056-4.609,10.162-4.468,11.148.222,1.558,16.845,3.044,16.845,3.044h48.614s-1.948-7.293-.746-10.085a75.676,75.676,0,0,0,2.361-7.625c.445-1.272,1.323-5.685,1.323-5.685l1.13,3.405s1.156-4.25,7.2-6.815a19.975,19.975,0,0,1,8.012-1.753c1.122-.063-2.168-9.136-4.117-12.049s-3.8-5.052-5.371-7.711-20.265-8.715-20.265-8.715-3.4,2.073-3.252,3.984a21.98,21.98,0,0,1-.582,7.365c-.687,1.881-2.5,6.635-4.782,7.8s-6.447,15.276-6.447,15.276l-31.935-1.124S4446.537,2397.02,4446.442,2400.873Z" transform="translate(-4416.262 -2319.6)" fill="#00bcbe"/>
          <path id="Path_1290" data-name="Path 1290" d="M4460.764,2427.555s-2.382-16.36-1.836-17.057c.412-.526,26.771-.166,38.261-3.738,3.867.052,5.829,3.738,5.829,3.738l5.408,9.113-16.567,18.31h-19.683Z" transform="translate(-4427.117 -2347.274)" fill="#00bcbe"/>
          <path id="Path_1333" data-name="Path 1333" d="M1590.647,2666.547s-1.555,1.031-.932-.829,4.74-7.177,5.142-7.479,6.66-2.641,6.66-2.641.057,1.781-.984,2.242S1590.647,2666.547,1590.647,2666.547Z" transform="translate(-1542.743 -2568.938)" fill="#b29280"/>
          <path id="Path_1330" data-name="Path 1330" d="M4257.034,2500.09s.693.349-.589.537a24,24,0,0,1-8.044-.537c-4.68-1.32-11.668-1.034-11.668-1.034h-4.023l5.013-6.176h5.172l9.274,2.129Z" transform="translate(-4181.959 -2402.836)" fill="#84675d"/>
          <path id="Path_1292" data-name="Path 1292" d="M4557.126,2425.248a27.932,27.932,0,0,0-6.589,2.533c-2.586,1.408-6.446,3.72-6.331,4.618.253,1.991-.281.569,1.041,3.356a44.71,44.71,0,0,0,3.444,5.755s-17.225,4.936-19.5,5.053-4.427.469-5.514.43-14.312-2.526-15.5-1.743-5.794,2.4-6.031,2.9-5.676,8.4-5.559,9.34,2.619.332,2.859-.191,3.015-3.907,2.7-3.177a27.411,27.411,0,0,0-1.283,4.357c.037.416,1.762.325,2.178-.279s2.878-4.079,2.878-4.079a11.084,11.084,0,0,1,2.517-2.2,2.753,2.753,0,0,1,2.142-.222,9.523,9.523,0,0,0-2.605,2.423,15.118,15.118,0,0,0-1.75,3.7s-.643,1.826,1.75.84c1-.414,1.561-1.695,2.605-2.678a10.509,10.509,0,0,1,3.137-2.081c.489-.056,2.037-.288,5.089.966s5.458,2.541,10.835.877,23.485-.766,24.523-.877,8.007-.756,8.127-2.153-9.348-21.834-9.348-21.834Z" transform="translate(-4449.233 -2358.672)" fill="#c8997d"/>
          <path id="Path_1329" data-name="Path 1329" d="M2067.207,2677.6c-.276,0-.563-.717,0-1.736a17.393,17.393,0,0,1,2.006-3.422,36.406,36.406,0,0,1,4.69-3.136,12.6,12.6,0,0,0-2.6,2.5,20.512,20.512,0,0,0-1.459,2.763C2069.4,2675.181,2067.207,2677.6,2067.207,2677.6Z" transform="translate(-2016.84 -2579.278)" fill="#a7816b"/>
          <path id="Path_1331" data-name="Path 1331" d="M4530.688,2493.719a8.738,8.738,0,0,0-3.183,2.239c-1.389,1.582-4.767,5.075-2.374,4.088,1.036-.427,1.924-2.16,2.893-2.988a9.394,9.394,0,0,1,2.664-1.665c.488-.056,2.037-.288,5.088.966s5.349,2.571,10.728.907,23.593-.794,24.632-.907,8.006-.756,8.126-2.153c.009-.1-10.158,1.129-15.574,1.187a171.7,171.7,0,0,1-26.586-2.334C4535.057,2492.547,4530.688,2493.719,4530.688,2493.719Z" transform="translate(-4466.201 -2400.154)" fill="#a7816b"/>
          <path id="Path_1332" data-name="Path 1332" d="M2067.674,2679.8c-.276,0,1.488-4.891,2.006-5.157a6.213,6.213,0,0,1,2.9-1.634c.589-.334,1.926.169,2.585.295.536.1-1.995.245-2.19.282a25.246,25.246,0,0,1-2.492,2.216C2070.047,2676.417,2067.674,2679.8,2067.674,2679.8Z" transform="translate(-2013.823 -2580.318)" fill="#a7816b"/>
          <path id="Path_1327" data-name="Path 1327" d="M4336.032,2459.8s15.313,1.193,18.764.828a42.356,42.356,0,0,0,8.822-1.892c1.446-.778,2.155-.822,2.022-1.973s.622-3.368,0-5.119-8.109-21.308-8.109-21.308a15.431,15.431,0,0,0-4.428.84c-3.565,1.433-7.931,4.3-7.714,5.564a20.885,20.885,0,0,0,1.515,6.643c1.473,3.745,3.82,9.723,3.82,9.723Z" transform="translate(-4245.292 -2364.499)" fill="#d19d8b"/>
          <path id="Path_1328" data-name="Path 1328" d="M4383.19,2460.628a42.356,42.356,0,0,0,8.822-1.892c1.446-.778,2.155-.822,2.022-1.973s.622-3.368,0-5.119c-.162-.454-1.153-6.269-2.022-8.56a107.331,107.331,0,0,0-6.086-12.748s6,15.133,3.6,23.47C4388,2459.106,4379.739,2460.993,4383.19,2460.628Z" transform="translate(-4273.686 -2364.499)" fill="#d9aa99"/>
          <path id="Path_1366" data-name="Path 1366" d="M1552.31,2606.308c-.091-1.881,1-3.742,1.248-5.284a25.145,25.145,0,0,0,.744-9.48c-.658-6.846-.961-10.708.543-6.466s8.968,30.757,9.084,32.008c.219,2.359.279,4.629-1.049,4.9-1.948.391-9.857-4.689-9.857-4.689Z" transform="translate(-1522.57 -2529.997)" fill="#06a5a7"/>
          <path id="Path_1763" data-name="Path 1763" d="M73.508,215.678l7.01,8.7,1.618,2.008" transform="translate(-40.628 -131.401)" fill="none" stroke="#d8a42f" stroke-linecap="round" stroke-width="1"/>
          <g id="lefthand" transform="translate(2.79 63.714)">
            <path id="Path_1326" data-name="Path 1326" d="M4616.947,2460.259s7.942-11.453,7.778-13.792c-.083-1.2-1.962-1.324-4.377-2.7a21.593,21.593,0,0,0-5.511-2.055c-2.45-.6-5.562-1.459-5.993-.669s-4.35,13.131-4.35,13.131l-.691,2.513,7.938,2.94Z" transform="translate(-4597.994 -2438.452)" fill="#c8997d"/>
            <path id="Path_1325" data-name="Path 1325" d="M4620.767,2478.436s-5.9-7.646-9.953-7.105,2.068-.035,4.089,2.844-.271.814-.59,1.089,2.772,2.285,3.946,2.341A6.644,6.644,0,0,1,4620.767,2478.436Z" transform="translate(-4601.073 -2457.969)" fill="#a7816b"/>
            <path id="Path_1324" data-name="Path 1324" d="M4600.472,2434.183s-9.775,13.6-11,18.544-.884,11.167,0,12.266,2.884,1.37,8.509,1.543,13.521-.487,13.521-.487l2.212-10.27s-7.811-1.748-9.649-3.052-8.466-2.405-8.407-3.215S4600.472,2434.183,4600.472,2434.183Z" transform="translate(-4588.674 -2434.183)" fill="#c8997d"/>
            <path id="Path_1339" data-name="Path 1339" d="M1778.205,2687.263l1.66,1.245-.635-1.987Z" transform="translate(-1738.568 -2653.363)" fill="#d1b38b"/>
            <path id="Path_1340" data-name="Path 1340" d="M1781.144,2690.279l.522.4-.156-.5-.046-.119-.135.167Z" transform="translate(-1740.369 -2655.534)" fill="#414141"/>
            <path id="Path_1322" data-name="Path 1322" d="M4608.72,2504.972c-3.772-.486-10.353-3.773-12.644-3.271s-5.269,3.869-4.761,4.964c.212.458.987.978,4.046,1.258,3.992.366,11.443.675,13.949.016,1.959-.252,1.847.746,3.055,1.383s6.136,1.876,6.644,1.423-6.434-5.147-6.352-6.041S4612.492,2505.458,4608.72,2504.972Z" transform="translate(-4590.304 -2475.795)" fill="#a7816b"/>
            <path id="Path_1323" data-name="Path 1323" d="M4673.338,2496.344s.072-.287.642-.332,1.9,2.134,1.9,2.134l-.574.51-.488.23Z" transform="translate(-4635.198 -2464.985)" fill="#d5a231"/>
            <path id="Path_1320" data-name="Path 1320" d="M4647.491,2488.053a.883.883,0,0,1-.877,1.209c-1.24.07-2.1,2-2.312,2.782s-1.172,1.013-.86,1.869a1.808,1.808,0,0,1-.268,2.117,3.566,3.566,0,0,0,.72,4.1c.617.47,2.265.957,3.711,1.707a5.909,5.909,0,0,0,1.934.625c.508.03,7.724.984,8.512.572s1.312-.87,1.269-1.322-4.483-.725-5.476-3.574-2.174-6.22-2.7-6.641S4647.491,2488.053,4647.491,2488.053Z" transform="translate(-4621.89 -2467.461)" fill="#d6a689"/>
            <path id="Path_1321" data-name="Path 1321" d="M4670.481,2515.74c2.476.792,1.9-1.23,1.9-1.23s4.834.521,5.125.807-.161,2.016-1.532,2.646-5.178,0-5.178,0l-3.8-.5A2.851,2.851,0,0,1,4670.481,2515.74Z" transform="translate(-4639.572 -2482.517)" fill="#c1967c"/>
            <path id="Path_1305" data-name="Path 1305" d="M4649.828,2507.948l5.594,3.827,4.464,1.965,3.993.48a14.442,14.442,0,0,1-3.993,0,18.8,18.8,0,0,1-4.849-2.117Z" transform="translate(-4626.205 -2479.656)" fill="#816358"/>
            <path id="Path_1306" data-name="Path 1306" d="M4652.049,2510.464s.073.041,1.45.914a24.876,24.876,0,0,0,3.3,1.989,50.877,50.877,0,0,0,5.246,2.2l3.092,1.33h-3.691l-5.032-3.194-4.042-2.513Z" transform="translate(-4625.632 -2485.456)" fill="#916f63"/>
            <path id="Path_1309" data-name="Path 1309" d="M4652.508,2499.72s2.179,1.663,4.482,3.093,4.729,2.631,4.729,2.631a20.838,20.838,0,0,1,3.5.875c.291.287,1.127,1.947-.244,2.577s-4.842,0-4.842,0a28.012,28.012,0,0,1-5.119-2.328,43.1,43.1,0,0,1-5.188-3.756Z" transform="translate(-4626.205 -2474.613)" fill="#d6a689"/>
            <path id="Path_1310" data-name="Path 1310" d="M4668.469,2517.119c2.476.792,1.62-2.567,1.62-2.567a20.356,20.356,0,0,1,3.467.861c.291.287,1.127,1.947-.244,2.577s-2.351.556-4.843,0a17.657,17.657,0,0,1-5.057-2.281S4665.992,2516.328,4668.469,2517.119Z" transform="translate(-4634.54 -2483.706)" fill="#c1967c"/>
            <path id="Path_1312" data-name="Path 1312" d="M4666.142,2490.781c.015-1.445,4.1-.548,4.443-.409s1.721,1.2,2.837,1.866,2.854,1.426,2.954,2.136a19.5,19.5,0,0,1-.791,3.727S4666.128,2492.225,4666.142,2490.781Z" transform="translate(-4636.139 -2468.64)" fill="#d6a689"/>
            <path id="Path_1316" data-name="Path 1316" d="M4673.025,2493.994a6.7,6.7,0,0,1,1.814.815c1.6.834,3.01.221,2.723,1.723s1.068,2.356-.343,2.051S4673.025,2493.994,4673.025,2493.994Z" transform="translate(-4640.424 -2471.103)" fill="#9f7a6d"/>
            <path id="Path_1318" data-name="Path 1318" d="M4652.243,2487.943c.292-.834,1.579-1.278,2.608-1.3a4.666,4.666,0,0,1,3.255,1.721,25.318,25.318,0,0,0,4.4,3.7c1.033.7,5.693,3.412,5.843,4.02s.058,2.156-.544,2.257-6.871-2.574-7.586-2.993-5.373-3.681-5.373-3.681S4651.951,2488.776,4652.243,2487.943Z" transform="translate(-4627.673 -2466.596)" fill="#d6a689"/>
            <path id="Path_1319" data-name="Path 1319" d="M4669.234,2505.069c1.54-.341,2.248-1.567,3.025-1.314s4.045,2.467,4.2,3.075-.059,2-.66,2.1-6.87-2.574-7.584-2.993c-.307-.18-.89-.435-1.563-.871s-1.4-1.032-1.4-1.032S4667.695,2505.411,4669.234,2505.069Z" transform="translate(-4635.658 -2477.195)" fill="#c1967c"/>
          </g>
          <path id="Path_1351" data-name="Path 1351" d="M1484.216,2639.645c.155-1.286-1.585-5.931-.259-7.712s3.015-4.955,3.77-5.216,3.094.832,3.094.832a24.039,24.039,0,0,0,2.008-1.956c.8-.919,2.512-1.759,3.74-3.925a17.926,17.926,0,0,0,2.1-6.435c.087-1.4,1.97-3.153-4.452-5.557s-7.744-5.592-10-5.627-5.879,5.357-8.353,9.542-7.856,11.95-8.056,15.127.028,8.727,1.11,9.2a23.189,23.189,0,0,0,6.134,1.721c1.824.08,8.907,0,8.907,0Z" transform="translate(-1467.74 -2543.446)" fill="#00bcbe"/>
          <path id="Path_1352" data-name="Path 1352" d="M4648.531,2465.81s.4-.8.97-.845,11.293,14.332,11.293,14.332l-1.117-.747-2.194-1.713Z" transform="translate(-4622.887 -2389.935)" fill="#f0b736"/>
          <path id="Path_1367" data-name="Path 1367" d="M1626.552,2535.127a3.224,3.224,0,0,0,.922-.3c.278-.186,1.1-.34,1.513-.768,0,0-.254-.464-1.324-.2s-1.111.369-1.111.369Z" transform="translate(-1570.343 -2498.217)" fill="#d5d5d5"/>
          <path id="left-collar" d="M1618.993,2534.15c.085-.091.173-.122.235.213.278,1.414-.135,9.223,1.508,12.058,1.889,3.259,5.641,9.151,5.949,10.65a4.013,4.013,0,0,1-.635,3.582s-2.991-8.033-4.276-8.761-7.348,6.84-7.219-2.3-.179-9.346,1.081-11.584A15.058,15.058,0,0,1,1618.993,2534.15Z" transform="translate(-1562.93 -2498.067)" fill="#fff"/>
          <path id="Path_1372" data-name="Path 1372" d="M1657.823,2591.747c.345-.046,9.674-3.035,11.124-3.776,5-2.171.064-2.731,1-2.993.32-.1,1.485-.458,1.62.155.931,1.708-3.927-.76-4.295-.155S1657.823,2591.747,1657.823,2591.747Z" transform="translate(-1590.985 -2530.954)" fill="#1aa5a7"/>
          <path id="right-collar" d="M1647.1,2562.725c2.128-1.843,13.536-6.5,12.635-10.679s.663-5.7.968-6.235,2.674-5.291,2.674-5.291,5.78,17.127,3.814,19.7-2.738-3.243-4.566-2.859-2.8,1.717-6.357,3.164c-3.131,1.273-9.042,2.4-9.169,8.162C1646.779,2569.194,1644.974,2564.568,1647.1,2562.725Z" transform="translate(-1583.371 -2502.255)" fill="#fff"/>
          <path id="Path_6418" data-name="Path 6418" d="M226.413,87.377S223.641,89.063,223.2,90s-5.2,2.405-6.317,2.354S200.617,92.094,198.9,90s11.293-6.363,12.941-6.661,10.805-2.1,10.805-2.1a3.923,3.923,0,0,1,1.687-.533c.013,0,.344-.029.344-.029Z" transform="translate(-166.616 -45.127)" opacity="0.23"/>
          <g id="face" transform="translate(48.843 2.22) rotate(-3)">
            <path id="ear" d="M.637,1.141S3.683-1.212,4.016.84s-1.539,8.9-1.771,10.094S1.149,12.4.3,10.526.637,1.141.637,1.141Z" transform="matrix(0.914, 0.407, -0.407, 0.914, 35.109, 26.208)" fill="#cca68f"/>
            <path id="face-2" data-name="face" d="M26.893,19.464a11,11,0,0,1,.413,2.284c.247,2.715.408,7.565-.032,9.358-.642,2.621-6.588,8.638-10.247,9.414s-6.6-.892-8.167-1.769S3.9,32.607,3.572,29.5s-2.027-5.751-2.048-8.912S-.5,9.272.117,8.111,12.553.644,13.192.456,21.048,0,21.048,0l3.141,3.126,1.409,7.71Z" transform="translate(17.209 1.877) rotate(25)" fill="#c8997d"/>
            <path id="ear-2" data-name="ear" d="M.67,10.97s1.921,2.265,3.03.433S2.494.952,2.379.624.759-.984.036,1.484A15.648,15.648,0,0,0,.229,3.749C.211,6.7.67,10.97.67,10.97Z" transform="translate(8.171 28.129) rotate(-162)" fill="#aa8c7a"/>
            <path id="ear-3" data-name="ear" d="M.117,1.141S3.163-1.212,3.5.84c.076.471-1.2-.509-1.74.668C1.107,2.92,1.034,6.489.4,6.327-.286,6.151.117,1.141.117,1.141Z" transform="matrix(0.914, 0.407, -0.407, 0.914, 35.584, 26.419)" fill="#b18b78"/>
            <path id="hair" d="M.067,21.953c.481-.413.754-1.606,2.39-4.444.184-.319,1.551-.238,1.679-1.18a27.3,27.3,0,0,1,1.141-4.325A4.357,4.357,0,0,1,7.637,9.117C10.421,7.3,19.289,23.383,23.131,23.629s3.808-3.518,2.185.528-.25,2.7-1.388,5.593c-.033.084-3.054,6.63,1.934-.475s5.755-6.472,6.318-8.906S33.506,9.227,29.692,5.418,11.137-1.185,10.244.5C9.872,1.206,8.7,2,5.755,3.152c-3.874,1.511-4.028,7.009-4.407,8.371-.316,1.133.439,1.944.081,4.475C1.083,18.448-.321,22.287.067,21.953Z" transform="matrix(0.998, -0.07, 0.07, 0.998, 7.569, 2.277)"/>
            <g id="beard" transform="matrix(0.999, 0.052, -0.052, 0.999, 7.405, 23.72)">
              <path id="Path_1354" data-name="Path 1354" d="M1.758,0S2.406,8.39,2.77,9.138s1.347,3.23,2.335,3.872S2.763,18.4,2.763,18.4.625,16.707.085,12.522,1.758,0,1.758,0Z" transform="translate(0 0.277) rotate(-3)" fill="#af8972"/>
              <path id="Path_1355" data-name="Path 1355" d="M2.139,0A15.367,15.367,0,0,0,1.7,2.157,3.483,3.483,0,0,0,2.842,5.02c.691.34,1.35.874,2.195-.753S6.445,1.41,6.445,1.41s.271-.186.238.158c-.061.63-.456,1.811-.52,3.015-.027.485-.228,1.528.507,1.558a5.139,5.139,0,0,0,3.317-.6,1.167,1.167,0,0,0,.4-.283c1.42-1.3.286,1.43.286,1.43a9.444,9.444,0,0,1-7.123,0C-.069,5.086,0,3.889,0,3.889Z" transform="translate(3.681 14.295)" fill="#af8972"/>
              <path id="Path_1356" data-name="Path 1356" d="M12.853.017C13.289-.409,10.817,7.475,9.172,9S2.29,12.766.837,13.047s-.653-.958-.271-1.3a6.4,6.4,0,0,0,1.13-1.51,18.909,18.909,0,0,0,.979-2.68,13.948,13.948,0,0,0,4.663-1.3C8.806,5.305,12.417.442,12.853.017Z" transform="translate(13.015 8.067)" fill="#af8972"/>
              <path id="Path_1357" data-name="Path 1357" d="M.469,2.443C-.641,4.558.435.169,1.466.02A24.7,24.7,0,0,1,6.2.658c.284.057,2.951,1.559,3.38,1.785a1.5,1.5,0,0,1,.859,1.673c.035.425-.352.376-.65,1.4-.343,1.393.08-1.739-.855-2.3A21.039,21.039,0,0,0,6,1.763C5.6,1.654,1.578.328.469,2.443Z" transform="translate(5.592 11.235)" fill="#af8972"/>
              <path id="Path_1358" data-name="Path 1358" d="M0,0S2.623.969,3.005.985.747,1.637,0,0Z" transform="translate(8.914 14.977)" fill="#af8972"/>
            </g>
            <path id="Path_1373" data-name="Path 1373" d="M.534.162Z" transform="translate(32.317 23.497)" fill="#fff"/>
            <path id="Path_1374" data-name="Path 1374" d="M.138.063c-.981-.99,3.322,9.984,11.3,11.276a9.944,9.944,0,0,1-4.38-2.084A18.791,18.791,0,0,1,3.638,5.53C2.1,3.176,1.146.959.138.063Z" transform="translate(21.648 13.994)"/>
            <path id="Path_1588" data-name="Path 1588" d="M1.194,11.693s5.588,8.273,9.536,7.19,7.88-4.6,7.879-6.782a29.8,29.8,0,0,0-.951-7.025c-.669-2.393-1.9-4.435-2.92-4.91C12.621-.817.663,2.735.113,6.306S1.194,11.693,1.194,11.693Z" transform="translate(22.657 5.296)" fill="#292828"/>
            <path id="hair-2" data-name="hair" d="M2.325,14.83c-1.623,4.046-.25,2.7-1.388,5.593-.033.084-3.054,6.63,1.934-.475s5.755-6.472,6.318-8.906A11.469,11.469,0,0,0,9.53,8.26C9.115,5.889,6.293,3.718,3.135.564-.362-2.929,3.948,10.785,2.325,14.83Z" transform="matrix(0.998, -0.07, 0.07, 0.998, 31.155, 9.977)" fill="#292828"/>
          </g>
          <path id="Path_1363" data-name="Path 1363" d="M4.43,9.089a4.381,4.381,0,0,0,.538-4.98A7.768,7.768,0,0,0,.4.036C-1.1-.32,1.961,1.983,3.828,5.031,5.612,7.942,4.2,9.222,4.43,9.089Z" transform="translate(6.145 81.104) rotate(-51)" fill="#06a5a7"/>
          <path id="Path_1365" data-name="Path 1365" d="M5.517,5.006a26.165,26.165,0,0,1,.416,3.785A4.227,4.227,0,0,0,6.984,6.213c.309-1.975-.837-4.241-3.508-5.4S-1.016-.114.622.578,5.169,3.344,5.517,5.006Z" transform="translate(7.683 76.617) rotate(-8)" fill="#06a5a7"/>
          <path id="Path_1364" data-name="Path 1364" d="M1506.03,2665.958c.394-.2.331-1.059-.993-1.691a17.724,17.724,0,0,0-8.065-.877c-2.41.5-6.606,6.228-5.918,10.4.019,2.257,1.048,4.7,1.715,4.737a15.761,15.761,0,0,0,4.857.592,7.375,7.375,0,0,0,2.345-.759c.636-.115.5-.32.5-.32h-.6a9.566,9.566,0,0,1,.1-5.537,22.863,22.863,0,0,1,3.364-6.1C1504.052,2665.438,1505.636,2666.163,1506.03,2665.958Z" transform="translate(-1482.808 -2581.814)" fill="#fff"/>
          <path id="Path_1370" data-name="Path 1370" d="M1497.486,2664.8a13.835,13.835,0,0,0-4.813,6.354c-1.048,3.385,0,7.6.873,7.677.418.039-.251-3.683.572-6.93C1494.963,2668.563,1497.673,2664.751,1497.486,2664.8Z" transform="translate(-1483.622 -2582.833)" fill="#e5e2e2"/>
          <path id="Path_1591" data-name="Path 1591" d="M206.95,34.71a7.526,7.526,0,0,0,2.162,6.524c2.258,2.37,6.051,5.568,7.336,5,1.5-.039,5.076-1.7,6.771-3.026.965-.968,1.226-1.122,1.156-3.256-.059-1.818-.328-4.061-1.156-4.117-1.537-.1-8,5.906-12.148,3.525A6.618,6.618,0,0,1,206.95,34.71Z" transform="translate(-134.117 -22.505)" fill="#191818"/>
          <path id="Path_1369" data-name="Path 1369" d="M1440.639,2903.77l-2.617,15.663-3.27,11.85a4.621,4.621,0,0,1-1.279.411,2.832,2.832,0,0,0-1.478-.228,15.564,15.564,0,0,0-1.849.382l-1.367.313s1.919-12.624,2.468-10.462.275,7.986,2.908,1.128S1440.083,2904.17,1440.639,2903.77Z" transform="translate(-1344.024 -2846.611)" fill="#06a5a7"/>
          <path id="Path_1761" data-name="Path 1761" d="M73.508,215.678l7.01,8.7,1.732,2.143" transform="translate(-47.661 -139.84)" fill="none" stroke="#d8a42f" stroke-linecap="round" stroke-width="1"/>
          <path id="Path_1764" data-name="Path 1764" d="M4673.963,2497.878l.989,1.187,1.054.824-2.292-1.786Z" transform="translate(-4639.215 -2411.275)" fill="#d8a42f"/>
        </g>
        <path id="Path_1603" data-name="Path 1603" d="M659.339,295.834c-.6.036-20.659,1-26.8.532s-3.891-2.111,5.2-2.514S659.339,295.834,659.339,295.834Z" transform="translate(-297.882 -190.497)" fill="#1a2a38"/>
        <path id="Path_1360" data-name="Path 1360" d="M1549.96,2584.315s2.928-.88,5.441-1.674a43.763,43.763,0,0,1,4.795-1.207,67.235,67.235,0,0,1-3.773-7.344c-.688-2.052.561-2.637,0-3.687s10.379-16.187,11.208-16.128c.333.024,5.981,9.372,5.923,10.084.879.748,7.3,14,7.5,16.748s1.02,10.979.739,12.328-3.89,2.7-9.809,2.69-17.34-.624-18.187-.409S1549.96,2584.315,1549.96,2584.315Z" transform="translate(-1220.948 -2497.29)" fill="#00bcbe"/>
        <path id="Path_1359" data-name="Path 1359" d="M1526.712,2641.345s2.574.009,2.956,1.838.14,6.056,1.215,7.418,8.048.741,8.2-.753-.808-4.772-1.025-6.146-1.548-5.2-3.129-5.313-7.133,1.733-7.871,1.814S1526.712,2641.345,1526.712,2641.345Z" transform="translate(-1205.77 -2551.824)" fill="#fff"/>
        <path id="Path_1361" data-name="Path 1361" d="M4622.656,2486.066s6.874.064,7.424-.409,3.55-3.549,3.261-10.642-.9-7.516-.9-7.516l-9.784.992Z" transform="translate(-4268.477 -2380.488)"/>
        <path id="Path_1362" data-name="Path 1362" d="M4633.361,2485.906s-6.874.064-7.423-.409-3.549-3.549-3.261-10.641.956-7.616.956-7.616l9.729,1.092Z" transform="translate(-4277.767 -2380.329)"/>
        <ellipse id="Ellipse_12" data-name="Ellipse 12" cx="8" cy="0.5" rx="8" ry="0.5" transform="translate(347.002 85.786)" fill="#fff"/>
        <g id="LOGO-2" data-name="LOGO" transform="translate(350.843 94.243) rotate(1)">
          <g id="Group_1-3" data-name="Group 1" transform="translate(0 0)">
            <path id="Path_1-2" data-name="Path 1" d="M1.964,2.619l.655.655-.655.655-.655-.655L.655,2.619,0,1.964l.655-.655L1.309.655,1.964,0l.655.655L1.309,1.964Z" transform="translate(0 0)" fill="#fff"/>
            <path id="Path_2-2" data-name="Path 2" d="M2.618,1.309l-.655.655-.655.655L0,1.309.655.655,1.309,0l.655.655Z" transform="translate(2.618 0.655)" fill="#fff"/>
            <path id="Path_3-2" data-name="Path 3" d="M2.618,1.964l-.655.655-.655.655-.655.655L0,3.273l.655-.655.655-.655L.655,1.309,0,.655.655,0l.655.655.655.655Z" transform="translate(5.237 0)" fill="#fff"/>
          </g>
        </g>
        <path id="Path_1375" data-name="Path 1375" d="M1646.478,2642.478c-.3-.306.016.576-.75.576-.3,0,.538,1.31.75,3.529a24.277,24.277,0,0,1,0,7.065c-.6,2.2-.22,3.534.441-1.009S1646.78,2642.784,1646.478,2642.478Z" transform="translate(-1332.963 -2554.437)" fill="#a7a7a7"/>
        <path id="Path_1765" data-name="Path 1765" d="M652.093,239.159s5.1,1.794,5.443,4.472c.19,1.5-1.257-.58-2.889-2.342a14.624,14.624,0,0,0-2.554-2.13" transform="translate(-312.801 -155.416)" fill="#1aa5a7"/>
        <path id="Path_1766" data-name="Path 1766" d="M0,0S5.1,1.794,5.443,4.472c.19,1.5-1.257-.58-2.889-2.342A14.622,14.622,0,0,0,0,0" transform="matrix(0.914, 0.407, -0.407, 0.914, 339.488, 83.903)" fill="#1aa5a7"/>
      </g>
    </g>
  </g>
</svg>
