<svg xmlns="http://www.w3.org/2000/svg" xmlns:xlink="http://www.w3.org/1999/xlink" width="727.47" height="181.4" viewBox="0 0 727.47 181.4">
  <defs>
    <clipPath id="clip-path">
      <path id="Path_8392" data-name="Path 8392" d="M0,0H729.329V176.255H0Z" transform="translate(-1.686 4.745)" fill="#eaeaea"/>
    </clipPath>
    <clipPath id="clip-Custom_Size_1">
      <rect width="727.47" height="181.4"/>
    </clipPath>
  </defs>
  <g id="Custom_Size_1" data-name="Custom Size – 1" clip-path="url(#clip-Custom_Size_1)">
    <g id="contact" clip-path="url(#clip-path)">
      <g id="left-lawn1" transform="translate(79.371 91.1)">
        <path id="Path_7676" data-name="Path 7676" d="M11.883,670.24l213.3,19.28h48.408l261.992,47.032v21.242H-212.568l148.094-36.82Z" transform="translate(111.924 -668.334)" fill="#387237"/>
        <path id="Path_7676-2" data-name="Path 7676" d="M535.586,736.552v21.242H-212.568Z" transform="translate(111.924 -668.334)" fill="#316a30"/>
        <path id="Path_7856" data-name="Path 7856" d="M394.889,686.005s14.483,6.659,12.027,9.481c-.773.891-8.956,9.2-12.027,9.344-11.948.541-49.708-6.716-49.708-6.716a392.644,392.644,0,0,0-96.981-2.766c-52.3,5.235-338.935,60.333-338.935,60.333l2.969-34.393S91.171,659.814,144.4,665.282l201.73,20.723Z" transform="translate(-9.745 -664.797)" fill="#478446"/>
      </g>
      <g id="testimonial-illustration" transform="translate(374.571 56.713)">
        <g id="man" transform="translate(0 0)">
          <g id="Face" transform="translate(19.459)">
            <path id="ear" d="M.012.393s1.621-.8,1.67-.117C1.81,2.059,1.087,8.006,1,9.042s-.424,1.275-.75-.355A80.255,80.255,0,0,1,.012.393Z" transform="translate(29.524 22.19) rotate(4)" fill="#d5ac93"/>
            <path id="ear-2" data-name="ear" d="M.853,10.03s1.7,2.081,2.688.4S2.47.825,2.368.523.672-.861.031,1.406A14.917,14.917,0,0,0,.215,3.458,47.442,47.442,0,0,0,.853,10.03Z" transform="matrix(-0.999, 0.035, -0.035, -0.999, 8.529, 34.022)" fill="#c8997d"/>
            <path id="neck" d="M3471,4952.1l-.35,4.831s2.364,7.463,2.824,7.94,2.2,3.2,2.2,3.2a14.329,14.329,0,0,0,2.042,2.271c.4.118,4.215,4.339,4.835,3.845s6.163-8.458,6.91-9.312,2.723-4.966,2.668-6.623-2.261.469-2.219-3.949S3489.622,4951.433,3471,4952.1Z" transform="translate(-3461.676 -4914.461)" fill="#b2886f"/>
            <path id="neck-2" data-name="neck" d="M3521.619,4968.727c.748-.854,2.723-4.966,2.668-6.623s-4.248-.51-4.206-4.928a32.58,32.58,0,0,0-.146,7C3520.245,4967.211,3521.26,4969.137,3521.619,4968.727Z" transform="translate(-3493.827 -4918.312)" fill="#c39e88"/>
            <path id="Path_8293" data-name="Path 8293" d="M78.091,111.109s-.223,3.7.343,4.036.592.357.592.357v.572s-2.437-.609-2.483-.688a3.16,3.16,0,0,1-.417-1.144c.056-.256,1.362-3.016,1.362-3.016Z" transform="translate(-49.79 -72.676)" fill="#c39e88"/>
            <path id="Path_8294" data-name="Path 8294" d="M21.494,58.975s.541,4.561,1,5.173a50.307,50.307,0,0,0,5.854,5.3c.985.532,4.491,2.279,6.958,1.463s6-4.746,6.389-5.917a45.539,45.539,0,0,0,.935-12.169c-.3-5.521.959-8.729-1.539-9.805s-8.729-3.171-13.377-2.772-4.725-2.119-6.218,1.153-1,9.191-.731,10.268S21.494,58.975,21.494,58.975Z" transform="translate(-13.386 -25.967)" fill="#c8997d"/>
            <path id="Path_8295" data-name="Path 8295" d="M77.478,71.246a45.54,45.54,0,0,0,.935-12.169c-.3-5.521.959-8.729-1.539-9.805-1.022-.44.167,6.923,0,13.811.3,7.063-1.7,11.149-1.7,11.149A14.7,14.7,0,0,0,77.478,71.246Z" transform="translate(-49.171 -32.216)" fill="#d5ac93"/>
            <path id="hair" d="M.165,20.3c.418-.358.175-1.537,1.6-4,.353-.915,3.45-1.946,3.318-3.66.35-1.01.12-3.787,1.349-4.343,2.417-1.574,10.5,10.89,13.836,11.1s2.775-3.274,1.366.239-1.225,5.956-2.143,8.21a28.4,28.4,0,0,1,2.007-2.764c-.021.128-.728.155,2.906-5.022,4.332-6.17,2.62-9.5-.693-12.8S7.566-1.21,6.79.256A4.105,4.105,0,0,1,3.64,2.916C.276,4.228.378,8.037.048,9.22c-.274.984.724,3.053.413,5.251C.16,16.6-.172,20.589.165,20.3Z" transform="translate(0 10.977) rotate(-24)"/>
            <path id="Path_8301" data-name="Path 8301" d="M.12.055C-.732-.8,3,8.724,9.931,9.847a8.635,8.635,0,0,1-3.8-1.809A16.318,16.318,0,0,1,3.159,4.8C1.821,2.758,1,.833.12.055Z" transform="matrix(0.94, -0.342, 0.342, 0.94, 14.38, 15.432)"/>
            <path id="hair-2" data-name="hair" d="M.8,13c3.337.214,2.775-3.274,1.366.239S.943,19.194.024,21.448c0,.012,2.007-2.764,2.007-2.764s-.728.155,2.906-5.022c4.332-6.17,2.822-9.3-.49-12.611C1-2.152,2.6,2.692,1.665,5.865.635,9.36-.99,12.884.8,13Z" transform="translate(20.382 8.908) rotate(-24)" fill="#2e2c2c"/>
          </g>
          <g id="belt" transform="translate(9 118.77)">
            <path id="Path_8302" data-name="Path 8302" d="M4009.029,5248.181a100.366,100.366,0,0,0-1.823,12.8c-.284,5.528-.743,10.06-.743,10.06h50.115s.442-9.889.582-11.577,2.088-6.064.61-6.836-8.4-2.105-16.259-1.994-18.106,1.013-22.153,0S4009.029,5248.181,4009.029,5248.181Z" transform="translate(-4006.463 -5248.181)" fill="#f0cf85"/>
            <path id="Path_8303" data-name="Path 8303" d="M4017.578,5249.874a22.905,22.905,0,0,0,6.663,3.508,129.613,129.613,0,0,0,20.347,2.927,110.651,110.651,0,0,0,21.787-1.584s-.869-3.879-1.452-3.879S4017.578,5249.874,4017.578,5249.874Z" transform="translate(-4013.733 -5249.288)"/>
            <path id="Path_8304" data-name="Path 8304" d="M4026.783,5256.667a25.869,25.869,0,0,0,7.979,2.6c4.372.606,14.426,2.48,16.686,2.4,1.3-.043,2.905-.277,4.609-.328,1.083-.032,9.86-.925,9.86-.925" transform="translate(-4019.754 -5253.731)" fill="none" stroke="#e5c57f" stroke-width="1"/>
            <path id="Path_8305" data-name="Path 8305" d="M4134.371,5260.119s.11.032.178.426c.055.319.278,3.453.278,3.453l-.051.211a2.394,2.394,0,0,0,.557,0,.89.89,0,0,0,.38-.158l-.529-3.82Z" transform="translate(-4090.126 -5255.99)" fill="#e5c57f"/>
            <path id="Path_8306" data-name="Path 8306" d="M4087.293,5213.625a4.816,4.816,0,0,0-.153,1.455v1.871a1.9,1.9,0,0,0,1.6,1.074,8.731,8.731,0,0,0,1.19-.008,20.826,20.826,0,0,0,4.208-.758l.052-.167-6.071-.141v-3.262Z" transform="translate(-4058.887 -5210.012)" fill="#b5afae"/>
            <path id="Path_8307" data-name="Path 8307" d="M4135.285,5268.423l.054,1.059-.054.138-.148-1.169Z" transform="translate(-4090.628 -5261.421)" fill="#959595"/>
            <path id="Path_8308" data-name="Path 8308" d="M4135.581,5261.644s-.066.271-.133.664c-.055.318-.19,2.687-.19,2.687l.052.211a2.37,2.37,0,0,1-.558,0,.876.876,0,0,1-.38-.157l.481-3.4Z" transform="translate(-4116.762 -5257.679)" fill="#e5c57f"/>
            <path id="Path_8309" data-name="Path 8309" d="M4135.26,5266.542l-.123,1.71.053.137.14-1.847Z" transform="translate(-4116.653 -5260.883)" fill="#959595"/>
            <path id="Path_8310" data-name="Path 8310" d="M4099.166,5235.579s.878,9.413.854,11.056c-.022,1.419-.006,2.327,0,2.964,0-.024,0,.426,0,.426a1.96,1.96,0,0,0,.946-.138,3.994,3.994,0,0,0,2.365-2.287c.353-1.579-.22-2.768-.261-5.061s0-7.491,0-7.491l-1.845.531Z" transform="translate(-4069.175 -5227.308)" fill="#f0cf85" stroke="#e5c57f" stroke-width="1" opacity="0.676"/>
            <path id="Path_8311" data-name="Path 8311" d="M4016.97,5256.022c-.891-1.691.135,7.678,2.255,11.046s.78,8.787.78,8.787l25.448.105,17.215.071.209-6.872,2.844-11.434a13.292,13.292,0,0,1-9.975,6.415c-7.1.834-12.525,1.812-8.584,3.643s10.744.956,8.584,2.887-9.011,7.183-20.181,0S4017.86,5257.715,4016.97,5256.022Z" transform="translate(-4013.126 -5253.177)" fill="#d5b877" opacity="0.431"/>
          </g>
          <g id="Shirt" transform="translate(0 40.056)">
            <path id="Path_8312" data-name="Path 8312" d="M4009.336,5111.359c.526,3.894,1.869,29.482,0,32.74s-2.583,4.076-1.681,5.25-2.412,2.086,1.681,3.933,6.6,4.226,15.642,4.014,9.419-.764,13.166,0,5.363-.095,11.248,0,12.518,4.4,12.406-2.64.377-13.041,0-17.812,1.452-6.842,1.847-13.178-1.561-16.726-16.215-18.7-19.742-2.242-24.866-1.308S4009.336,5111.359,4009.336,5111.359Z" transform="translate(-3997.969 -5074.6)" fill="#166cac"/>
            <path id="Path_8313" data-name="Path 8313" d="M4009.979,5213.1a22.376,22.376,0,0,1-.513,2.243c-.61,1.315-2.146,4.989-1.811,5.426.9,1.174-2.412,2.086,1.681,3.933s6.6,4.227,15.642,4.014,9.419-.764,13.166,0,5.363-.095,11.248,0,12.518,4.4,12.406-2.64S4011.271,5209.559,4009.979,5213.1Z" transform="translate(-3997.969 -5146.02)" fill="#1b6ca8" opacity="0.641"/>
            <path id="Path_8314" data-name="Path 8314" d="M4014.528,5213.784c-.266.73.046-.42-.309.345-.61,1.316,8.052,6.7,17.094,6.487a112.813,112.813,0,0,1,14.323,0c10.295.961,21.3,2.688,21.223-1.9S4014.979,5212.544,4014.528,5213.784Z" transform="translate(-4002.517 -5146.703)" fill="#154b72" opacity="0.641"/>
            <path id="Path_8315" data-name="Path 8315" d="M4054.478,4975.676c1.625,3.585.841,2.225,1.731,6.165s1.659,6.688,1.618,9.831a52.841,52.841,0,0,0,.817,7.9s10.962-18.2,11.332-21.96-1.4-20.318-2.083-23.587-4.022-8.455-6.067-9.128-20.335-8.634-20.335-8.634-.539,5.626-2.725,8.634-6.723,3.988-6.931,7.425-11.357-16.771-12.623-16.059-7.464,3.366-9.411,4.164-13.2,5.718-14.895,7.954-3.323,10.8-3.445,18.786.5,15.674,2.052,20.718,3.448,10.526,5.05,11.688,2.526,2.381,12.736,1.958c11.844-1.415,5.385-10.324,4.385-12.038s-5.588-3.46-5.883-4.523-6.143-9.446-3.574-15.353,12.021-6.471,23.992-1.43,13.084,2.564,15.856,2.243S4052.853,4972.09,4054.478,4975.676Z" transform="translate(-3991.446 -4933.609)" fill="#1b6ca8"/>
            <path id="Path_8316" data-name="Path 8316" d="M4078.989,4956.683a29.531,29.531,0,0,0,1.984,2.915,5.464,5.464,0,0,0,.693.731c.383.315,1.071,1.823,2.182,3.193,1.69,2.085.991,3.46-.677,1.313-1.548-1.6-4.355-3.61-5.031-3.6-1.547.02-4.122,4.431-3.677,1.851S4078.989,4956.683,4078.989,4956.683Z" transform="translate(-4045.714 -4946.977)" fill="#155787"/>
            <path id="Path_8317" data-name="Path 8317" d="M4068.9,4932a10.4,10.4,0,0,0,.61,2.581,129.413,129.413,0,0,0,8.466,11.25,9.147,9.147,0,0,1,2.668,5.85c0,.033-7.2-10.818-9.021-8.271s-.733,5.94-2.34,5.418-3.029-10.076-2.786-11.827S4068.491,4932.12,4068.9,4932Z" transform="translate(-4040.52 -4930.833)" fill="#1b6ca8" stroke="#19649b" stroke-width="1"/>
            <path id="Path_8319" data-name="Path 8319" d="M3996.034,5079.129c-.2-1,4.357,8.731,5.82,9.489s14.531,7.888,21.141,3.009,6.676,5.61,6.668,6.1c-.008.6-7.816.254-7.816.254s-5.386-.885-10.818-1.971c-2.229-.445-4.36-1.133-6.339-1.48a6.859,6.859,0,0,1-3.794-2.277C3998.469,5089.3,3997.137,5084.722,3996.034,5079.129Z" transform="translate(-3994.443 -5027.021)" fill="#196095"/>
            <path id="Path_8321" data-name="Path 8321" d="M4084.695,4956.683a29.6,29.6,0,0,1-1.985,2.915,5.45,5.45,0,0,1-.693.731c-.384.315-1.077,1.521-2.188,2.891-1.69,2.084,2.608-1.61,4.608-1.083,1.015.608,1.9,2.5,2.611,3.155.171.171,1.192.672,1.248-.141C4088.49,4962.318,4084.695,4956.683,4084.695,4956.683Z" transform="translate(-4036.898 -4947.323)" fill="#196095"/>
            <g id="Group_4" data-name="Group 4" transform="translate(32.468)">
              <path id="Path_8322" data-name="Path 8322" d="M4396.163,5239.341c-.041-.037-2.58.567-3.585-1.281S4396.2,5239.377,4396.163,5239.341Z" transform="translate(-4378.556 -5165.235)" fill="#f8c59f"/>
              <path id="Path_8323" data-name="Path 8323" d="M4396.163,5239.341c-.041-.037-2.58.567-3.585-1.281S4396.2,5239.377,4396.163,5239.341Z" transform="translate(-4379.938 -5165.927)" fill="#cca78b"/>
              <path id="Path_8324" data-name="Path 8324" d="M4099.105,5186.049a12.7,12.7,0,0,0,3.416-.6c2.2-.589,3.744-1.2,4.854-1.361.619-.153,1.422.293,5.054,1.678s3.027.9,2.9,3.255-7.811-.939-7.811-.939l4.981,4.727,2.829,3.577,3.938,1.66a4.031,4.031,0,0,1-1.8,1.455,20.321,20.321,0,0,1-3.289.532s-3.025.333-3.3,1.574,1.056,2.391.319,2.625c-.286.091-.734-.252-1.45-.563-.88-.381-2.068-.847-2.068-.847s-6.65-5.264-8.166-6.2c-.679-.419-2.953-2.04-2.942-4.53C4096.581,5189.23,4098.606,5186.077,4099.105,5186.049Z" transform="translate(-4088.87 -5127.524)" fill="#be8d70"/>
              <path id="Path_8325" data-name="Path 8325" d="M4095.429,5073.951l-.6,39.345Z" transform="translate(-4087.732 -5055.505)" fill="#166cac" stroke="#196095" stroke-width="1"/>
              <path id="Path_8326" data-name="Path 8326" d="M4083.025,5191.91a23.332,23.332,0,0,0,.519,6.593c.022.823,2.217,1.234,1.38,1.428a8.152,8.152,0,0,1-1.828.2c.04,0-4.369.473-5.938.49a4.917,4.917,0,0,1-1.3,0c-1.405-.829-2.012-8.675-1.142-10.963.925-2.432,8.318-2.064,9.055-1.878s1.594.4,1.594.4S4083.163,5188.554,4083.025,5191.91Z" transform="translate(-4074.31 -5129.871)" fill="#166cac" stroke="#196095" stroke-linecap="round" stroke-linejoin="round" stroke-width="1"/>
              <path id="Path_8327" data-name="Path 8327" d="M4118.481,5020.624c-.28.006-.112.377-.124,1.514.144.75.238.83.591,1.019a1.1,1.1,0,0,0,.559.164C4120.1,5023.312,4118.933,5020.613,4118.481,5020.624Z" transform="translate(-4103.095 -5020.624)"/>
              <path id="Path_8328" data-name="Path 8328" d="M4096.58,5040.678c-.279.266-.375-2.849,1.784-4.869s4.946-4.558,5.917-6.126a11.6,11.6,0,0,0,.792-6.917,5.538,5.538,0,0,0-.9-1.729,19,19,0,0,1,2.519,3.017c.567,1.08.887,7.575.9,9.133s.592,4.829,0,5.649-2.332-5.173-4.017-4.358a30.194,30.194,0,0,0-3.335,2C4099.3,5037.039,4096.858,5040.412,4096.58,5040.678Z" transform="translate(-4088.781 -5020.894)" fill="#1b6ca8" stroke="#196095" stroke-linecap="round" stroke-linejoin="round" stroke-width="1"/>
              <path id="Path_8329" data-name="Path 8329" d="M4100.246,5197.35s.373.257,1.208.783a12.75,12.75,0,0,1,1.225.886c.427.345,1.067,1.571,1.7,2.051a39.046,39.046,0,0,0,7.417,4.25,1.169,1.169,0,0,1,.318.1c.291.173.489.506.576.452,1.253-.774,5.121-3.5,3.681-6.043s-9.824-4.931-11.181-6.931-.694-4.517,1.345-4.5,10.236,3.476,9.836,1.569-5.553-3.484-6.443-3.327-8.574,1.365-8.665,1.554a3.44,3.44,0,0,0-1.012,1.434,8.226,8.226,0,0,0-.237,3.268c.041.308-.02.991,0,1.537a20.174,20.174,0,0,0,.237,2.25C4100.412,5197.787,4100.246,5197.35,4100.246,5197.35Z" transform="translate(-4091.079 -5129.21)" fill="#be8d70"/>
              <path id="Path_8330" data-name="Path 8330" d="M4080.487,5209.669a7.608,7.608,0,0,0,3.963,1.774s-1.953.188-3.725.341a17.531,17.531,0,0,1-3.523.158c-.3-.018-.728-.87-.949-2.273a21.559,21.559,0,0,1-.412-4.337A43.929,43.929,0,0,1,4080.487,5209.669Z" transform="translate(-4075.291 -5141.784)" fill="#196095"/>
              <path id="Path_8331" data-name="Path 8331" d="M4395.968,5221.728c.6-.178.871-.333.967-1.77s.6-1.519,1.5-1.841-.154-2.144.459-2.217a2.529,2.529,0,0,1,1.685,0c.963.267,1.491,2.021,3.738,3.377,1.752.727,3.448.424,3.976,1.168.144.2-2.044,1.682-2.044,1.682s-1.783,3.542-2.868,3.521a14.368,14.368,0,0,1-5.347-1.245C4397.027,5223.851,4395.364,5221.905,4395.968,5221.728Z" transform="translate(-4379.053 -5148.941)" fill="#a77f68"/>
            </g>
            <path id="Path_8333" data-name="Path 8333" d="M1199.553,5292.683c.574.426,1.176.874,1.176.874s.167-.582-.117-.752-1.6-1.032-1.6-1.032A1.142,1.142,0,0,0,1199.553,5292.683Z" transform="translate(-1157.306 -5223.578)" fill="#184565"/>
            <path id="Path_8334" data-name="Path 8334" d="M24.01,71.032s5.745,11.561,6.727,21.974,13.652,12.967,13.652,12.967l-2.561,1.334L39.8,106.9l-4-1.267-2.989-1.372s-2.336-1.29-4.385-2.588c.022-.157-1.028-.558-1.315-1.178a2.631,2.631,0,0,1-.134-1.213c.016-.245.136-.689,0-.887-.626-.91.053-4.877-.426-6.586a11.661,11.661,0,0,1,0-2.213c-.1-1.8-.145-3.655-.145-3.655L26.1,81.426l-.926-7.115Z" transform="translate(-9.016 -47.845)" fill="#196095"/>
          </g>
          <path id="Path_8335" data-name="Path 8335" d="M4085.99,5155.169s.049.4,0,2.86" transform="translate(-4046.714 -5044.36)" fill="none" stroke="#134c76" stroke-linecap="round" stroke-width="1"/>
          <path id="Path_8336" data-name="Path 8336" d="M4182.433,4983.84a99.8,99.8,0,0,0,0,19.867c.221,2.021.008-7.216.691-16.273a77.937,77.937,0,0,1,2.324-14.186C4184.409,4973.309,4183.088,4979.778,4182.433,4983.84Z" transform="translate(-4117.08 -4912.436)" fill="#196095"/>
          <g id="Group_5" data-name="Group 5" transform="translate(12.687 63.244)">
            <path id="Path_8337" data-name="Path 8337" d="M44.274,266.867s-2.157,4.44-2.246,7-1.762,2.493-1.238,0S44.274,266.867,44.274,266.867Z" transform="translate(-38.839 -237.8)" fill="#196095"/>
            <path id="Path_8338" data-name="Path 8338" d="M3.727,0S1.5,2.535,1.306,3.918-.466,5.379.136,4,3.727,0,3.727,0Z" transform="matrix(0.891, 0.454, -0.454, 0.891, 2.268, 27.567)" fill="#196095"/>
            <path id="Path_8339" data-name="Path 8339" d="M40.689,182.836a26.26,26.26,0,0,1,1.862,7.669c.77,7.193,1.176,21.8,1.176,21.8a34.288,34.288,0,0,0,6.707,4.248,46.476,46.476,0,0,0,8.259,2.755" transform="translate(-38.493 -182.836)" fill="none" stroke="#196095" stroke-linecap="round" stroke-width="1"/>
            <path id="Path_8340" data-name="Path 8340" d="M4085.144,5164.04c.374,3.1-.374,5.6-.437,7.159a3,3,0,0,0,.111,1.336" transform="translate(-4058.553 -5113.406)" fill="none" stroke="#196095" stroke-linecap="round" stroke-width="1"/>
            <path id="Path_8341" data-name="Path 8341" d="M139.016,212.411s3.15.088,6.427,0,6.479-.351,6.479-.351" transform="translate(-103.499 -201.952)" fill="none" stroke="#19649b" stroke-linecap="round" stroke-width="1"/>
            <path id="Path_8342" data-name="Path 8342" d="M136.65,213.511s3.131.122,6.365,0,6.749-.489,6.749-.489a24.67,24.67,0,0,0-6.014,1.732c-3,1.332-6.26.248-6.535-.284A10.693,10.693,0,0,0,136.65,213.511Z" transform="translate(-101.26 -202.581)" fill="#196095"/>
            <path id="Path_8343" data-name="Path 8343" d="M.058-.581c.323-.41.6-.41.924,0A2.339,2.339,0,0,1,1.24.716h-1.4A2.194,2.194,0,0,1,.058-.581Z" transform="translate(37.469 9.61)" fill="#292121"/>
            <path id="Path_8344" data-name="Path 8344" d="M142.2,211.177a6.586,6.586,0,0,0,.788.061,2.7,2.7,0,0,0,.6-.061s-.357.349-1.229.087" transform="translate(-104.891 -201.374)" fill="#ccc"/>
            <path id="Path_8345" data-name="Path 8345" d="M.75.1h.283a33.254,33.254,0,0,1,0,3.637c-.04.285-.187.633-.276,0A33.536,33.536,0,0,1,.75.1Z" transform="translate(37.205 9.766)" fill="#b5b5b5"/>
            <path id="Path_8346" data-name="Path 8346" d="M144.47,210.4c-.11,3.158.071,2.486.1,2.486a18.119,18.119,0,0,0-.025-2.486" transform="translate(-106.352 -200.521)" fill="#f5f5f4"/>
            <path id="Path_8347" data-name="Path 8347" d="M3.585,8.893s-2.157-4.44-2.246-7S-.423-.6.1,1.895,3.585,8.893,3.585,8.893Z" transform="matrix(0.829, 0.559, -0.559, 0.829, 54.8, 18.101)" fill="#196095"/>
            <path id="Path_8348" data-name="Path 8348" d="M3.089,5.916S1.231,2.962,1.154,1.26-.364-.4.087,1.26,3.089,5.916,3.089,5.916Z" transform="translate(55.26 21.714) rotate(49)" fill="#196095"/>
          </g>
          <path id="Path_8349" data-name="Path 8349" d="M46.6,64.071c0,.48.353,10.108,1.258,13.7s1.619,3.739.983,5.554-1.657,5.48-2.7,6.515-11.974,3.33-14.7,3.249-3.666-.293-1.538-1.337,15.009-6.7,15.009-6.7a20.232,20.232,0,0,1,1.142-1.869c.327-.387.466-.155.466-.155l.206-2.739a1.351,1.351,0,0,1-.206-.246,1.249,1.249,0,0,1-.125-.287l-.125-.48c-.19-.275-.781-4.763-.781-4.763a.845.845,0,0,1-.3,1.264,1.167,1.167,0,0,1-1.419-.076.673.673,0,0,1-.17-.206s-.7-2.314-1.172-4.5a29.454,29.454,0,0,1-.579-3.585,3.56,3.56,0,0,1,.348-1.964.963.963,0,0,1,1.294-.38C43.729,65.273,46.6,64.071,46.6,64.071Z" transform="translate(-17.986 -41.908)" opacity="0.188"/>
        </g>
        <g id="woman" transform="translate(43.728 16.622)">
          <g id="woman-2" data-name="woman" transform="translate(0 10.355)">
            <path id="Path_8350" data-name="Path 8350" d="M4224.9,5003.333s-1.637.125-1.752-.39-.326-3.616.021-4.34,4.07-.079,4.07-.079" transform="translate(-4184.888 -4991.533)" fill="#c4e0e8" stroke="#000" stroke-width="0.6"/>
            <path id="Path_8351" data-name="Path 8351" d="M4225.3,4982.812s-2.861,4.355-2.766,4.91a8.311,8.311,0,0,0,.161,1.156,3.013,3.013,0,0,1,0,2.3c-.673,1.312-2.131,3.679-1.547,5.812s1.7,5.227,1.547,6.854-1.819,3.948,2.6,5.086c.367.117,2.8-.131,3.873,1.121,1.722,2.01,2.318,6.086,2.408,6.785.18,1.419,10.715-4,13.156-4.706s6.424-9.34,7.526-11.2S4225.3,4982.812,4225.3,4982.812Z" transform="translate(-4181.526 -4982.812)" fill="#fad8c0"/>
            <path id="Path_8352" data-name="Path 8352" d="M4241.313,5008.91c1.7,2.843,1.7,7.954,1.787,8.652.18,1.418,10.521-4.024,12.962-4.729s-13.583-26.814-12.479-28.676c.748-1.262,6.239,2.245-2.016,5.088-1.87.644-3.3,5.081-3.236,9.321A21.921,21.921,0,0,0,4241.313,5008.91Z" transform="translate(-4192.854 -4983.519)" fill="#d6ab92"/>
            <path id="Path_8353" data-name="Path 8353" d="M4222.846,5002.221l13.149.46" transform="translate(-4184.802 -4994.123)" fill="none" stroke="#000" stroke-width="0.6"/>
            <path id="Path_8355" data-name="Path 8355" d="M1588.536,5148.61s6.8-7.467,11.1-8.463,8.975-.9,12.44.977,5.5,4.685,5.608,6.571,6.955,5.648,7.021,16.071-3.838,20.975-8.913,34.927a50.479,50.479,0,0,0-2.377,19.324,33.844,33.844,0,0,1,0,8.126h-39.735Z" transform="translate(-1542.613 -5110.911)" fill="#d58498"/>
            <path id="Path_8356" data-name="Path 8356" d="M1608.814,5200.878s5.086-16,7.319-13.207,4.674,12.451,8.623,7.089,6.948-.986,4.263,23.159c-.7,6.311-3.614,19.921-4.263,29.221a59.518,59.518,0,0,0,0,9.965h-33.308l2.641-34.32Z" transform="translate(-1554.233 -5142.191)" fill="#d58498"/>
            <path id="Path_8357" data-name="Path 8357" d="M3663.9,5011.417a5.907,5.907,0,0,1,4.441,1.931c1.854,2.09,9.115,5.627,14.971,2.055s2.724-9.965,2.325-9.965S3663.9,5011.417,3663.9,5011.417Z" transform="translate(-3605.082 -4952.643)" fill="#c47588"/>
            <path id="Path_8358" data-name="Path 8358" d="M4385.941,5191.066a5.452,5.452,0,0,1,2.284-1.9c1.259-.4,5.466-.779,6.442-.266a52.012,52.012,0,0,0,5.055,2.636c.924.251,7.969,2.385,7.969,2.385l-.288,9.4s-7.7-4.769-8.8-6.192-5.1-3.338-5.211-4.2-2.578-.838-3.588-.936-1.137.485-1.581.526a2.785,2.785,0,0,1-1.655-.366A2.056,2.056,0,0,1,4385.941,5191.066Z" transform="translate(-4385.914 -5117.451)" fill="#ffeadb"/>
            <path id="Path_8359" data-name="Path 8359" d="M4410.326,5199.342c-.326-.453-2.888-4.151,1.07-.528,1.458,1.352,11.411,4.179,11.411,4.179v5.874s-3.049-1.568-5.98-3.485c-1.1-.722-2.137-1.68-3.091-2.389A11.583,11.583,0,0,1,4410.326,5199.342Z" transform="translate(-4401.133 -5123.067)" fill="#f7c5a8"/>
            <path id="Path_8360" data-name="Path 8360" d="M4387.588,5195.163a6.889,6.889,0,0,1,2.048-.67c.845-.127,4.418.4,5.052,1.4.123.192,3.64,5.167,3.64,5.167a58.576,58.576,0,0,1-4.891-4.081c-.5-.716-1.7-.806-2.242-1.051s-2.024.309-3.151.463a1.783,1.783,0,0,1-2.167-1.226C4385.731,5194.335,4386.586,5195.577,4387.588,5195.163Z" transform="translate(-4385.861 -5121.258)" fill="#f7c5a8"/>
            <path id="Path_8361" data-name="Path 8361" d="M4452.361,5182v6.247s4.749,3.669,5.092,2.716,3.309-17.679,3.309-17.679l4.531-27.256-3.515-.748s-4.091,5.458-4.325,5.856-3.63,5.875-3.63,5.875l-1.461,11.894Z" transform="translate(-4429.358 -5089.084)" fill="#d58498"/>
            <path id="Path_8362" data-name="Path 8362" d="M1597.3,5202.012c3.618.2.124,53.93,22.25,35.353-4.428,13.973-2.744,29.345-2.744,29.345s-38.521.615-38.071,0S1597.3,5202.012,1597.3,5202.012Z" transform="translate(-1545.913 -5151.786)" fill="#c47588"/>
            <path id="Path_8363" data-name="Path 8363" d="M4447.035,5141.233s-12.34,13.4-12.833,25.294c-2.089,8.845-5.486,22.231-5.685,28.469a25.682,25.682,0,0,0-.114,6.073l5.813.054c6.435.061,16.244-.048,16.285-1.652.014-.562-9.866-15.715-10.2-17.778-.484-3-1.276-6.25-2.309-11.6C4435.856,5159.828,4447.035,5141.233,4447.035,5141.233Z" transform="translate(-4413.605 -5086.434)" fill="#c47588"/>
            <path id="Path_8364" data-name="Path 8364" d="M22.48.031C28.417-1.3,18.725,40.673,12.7,54.925c-.1.226-.223.518-.348.8C6.4,68.947-.429,64.963.021,64.347S22.48.031,22.48.031Z" transform="matrix(0.998, 0.07, -0.07, 0.998, 33.236, 46.435)" fill="#a26372"/>
            <path id="Path_8365" data-name="Path 8365" d="M4142.218,5240.827s-3.142,1.38-3.5,0a15.372,15.372,0,0,0-1.282-3.124c-.377-.776-.023-1.219-.378-2.189s-1.4-.563-.928-2.2.676-2.016.5-3.074.325-2,2.084-2.261a8.177,8.177,0,0,0,4.027-1.787c.5-.555,1.858-.668,2.218,0s1.406,1.025,1.438,2.375.057,2.155,0,2.8,2.484,4.349,2.964,4.744-2.472,1.507-4.4,3.309S4142.218,5240.827,4142.218,5240.827Z" transform="translate(-4126.964 -5141.357)" fill="#ffeadb"/>
            <path id="Path_8366" data-name="Path 8366" d="M4142.218,5249.254s-3.142,1.38-3.5,0a15.372,15.372,0,0,0-1.282-3.124c-.377-.776-.023-1.22-.378-2.188s-1.4-.563-.928-2.2.676-2.017.5-3.074c-.089-.553.437,3.6,3.811,5.277a13.426,13.426,0,0,1,3.594,2.188c.479.4,2.854-.085.924,1.717S4142.218,5249.254,4142.218,5249.254Z" transform="translate(-4126.964 -5149.785)" fill="#f7c5a8"/>
            <path id="Path_8367" data-name="Path 8367" d="M4202.321,5082.908s-17.1,1.514-18.728,2.124-9.479,3.9-11.056,9.163a104.052,104.052,0,0,0-3.365,17.327c-.275,3.787-1.052,13.351-1.8,19.051a104.621,104.621,0,0,0-.773,11.413s-4.9-2.419-7.768-3.663c-1.523-.059-7.025,4.853-4.985,8.685,1.711,3.215,8.7,8.529,13.2,11.21a22.817,22.817,0,0,0,2.12,1.133c3.747,1.7,6.433-2.419,8.5-6.072s.647-3.369,5.921-19.338,10.493-31.468,15.175-44.538S4202.321,5082.908,4202.321,5082.908Z" transform="translate(-4137.996 -5046.165)" fill="#efa5b7"/>
            <path id="Path_8368" data-name="Path 8368" d="M4241.234,5083.939a30.559,30.559,0,0,1,17.982-5.508c6.872.076,1.343.5-6.312,2.116C4248.623,5081.45,4241.234,5083.939,4241.234,5083.939Z" transform="translate(-4194.754 -5045.354)" fill="#c47588"/>
            <path id="Path_8369" data-name="Path 8369" d="M98.847,120.755c-.307,6.253,8.638-3.2,10.5-5.954,5.4-5.677,11.046-5.042,11.064-5.715.041-1.247-9,.365-9.748.648a26.885,26.885,0,0,0-7.037,3.738C101.151,115.275,98.988,117.892,98.847,120.755Z" transform="translate(-64.622 -71.047)" fill="#f0c7d1"/>
            <path id="Path_8370" data-name="Path 8370" d="M4154.424,5256.688a4.919,4.919,0,0,0-.578,4.968c2.04,3.832,11.5,10.577,15.25,12.274S4155.795,5254.523,4154.424,5256.688Z" transform="translate(-4137.991 -5160.813)" fill="#d58498"/>
            <path id="Path_8371" data-name="Path 8371" d="M82.482,277.043s-.262,6.382.585,7.912S82.482,277.043,82.482,277.043Z" transform="translate(-53.898 -181.212)" fill="#c47588"/>
            <path id="Path_8372" data-name="Path 8372" d="M.077,0S-.449,6.024,1.254,7.467.077,0,.077,0Z" transform="translate(28.638 95.85) rotate(-19)" fill="#c47588"/>
          </g>
          <g id="finger" transform="translate(0.465 93.735)">
            <path id="Path_8373" data-name="Path 8373" d="M4394.347,5239.7c-.04-.036-.3,1.2-.958-.171-.521-.779.209-.713.422-.609A1.654,1.654,0,0,1,4394.347,5239.7Z" transform="translate(-4393.205 -5238.859)" fill="#a88971"/>
            <path id="Path_8374" data-name="Path 8374" d="M4394.246,5238.336a.594.594,0,0,1-.6.3c-.2,0-.766-.245-1.209-1.06-.643-1.182.256-.924,1.067-.374A3.83,3.83,0,0,1,4394.246,5238.336Z" transform="translate(-4390.136 -5235.048)" fill="#f8c59f"/>
            <path id="Path_8375" data-name="Path 8375" d="M4394.057,5239.042c-.041-.037-.531.956-1.185-.411-.521-.779.236-.876.669-.486A1.927,1.927,0,0,1,4394.057,5239.042Z" transform="translate(-4392.18 -5237.208)" fill="#cca78b"/>
            <path id="Path_8376" data-name="Path 8376" d="M4397.309,5240.956a2.132,2.132,0,0,1-.712-.032c-.248-.007-.3-.061-.49-.073l-.669-.251c-.1-.489-.065-.887.266-.663S4397.324,5240.968,4397.309,5240.956Z" transform="translate(-4392.212 -5237.101)" fill="#c49e82"/>
          </g>
          <g id="hair_and_ear-woman" data-name="hair and ear-woman" transform="translate(43.508)">
            <path id="Path_8377" data-name="Path 8377" d="M4406.667,5014.116s-1.781,1.022-.856.957a5.114,5.114,0,0,0,2.419-1.123c.523-.683,2.063-1.786,1.6-4.142a12.318,12.318,0,0,0-1.236-3.651Z" transform="translate(-4401.427 -4986.689)" fill="#7e695a"/>
            <path id="Path_8378" data-name="Path 8378" d="M4403.825,5003.373c1.292-.206,2.229.288,2.236,1.178s-1.163,6.873-2.743,8.145-1.833.1-1.833.1a2.812,2.812,0,0,0,.159-.264,7.488,7.488,0,0,0,.4-.95,20.6,20.6,0,0,0,1.271-4.61c.54-3.011,1.594-.432,1.6-1.827C4404.924,5004.484,4402.534,5003.578,4403.825,5003.373Z" transform="translate(-4398.079 -4984.837)" fill="#bf9881"/>
            <path id="Path_8379" data-name="Path 8379" d="M4121.962,4983.321C4122.026,4983.586,4121.9,4983.056,4121.962,4983.321Z" transform="translate(-4118.38 -4961.671)" fill="#2e1d1d"/>
            <path id="Path_8380" data-name="Path 8380" d="M4273,5066.463s-1.134,8.359,4.092,13.9" transform="translate(-4258.974 -5027.172)" fill="none" stroke="#2e1d1d" stroke-width="1"/>
            <path id="Path_8381" data-name="Path 8381" d="M4275.882,5058.287" transform="translate(-4260.925 -5021.825)" fill="none" stroke="#707070" stroke-width="1"/>
            <path id="Path_8382" data-name="Path 8382" d="M1619.9,5075.644s.492,5.294,1.222,5.425.6-2.642,1.6-3.1S1619.9,5075.644,1619.9,5075.644Z" transform="translate(-1616.349 -5058.775)" fill="#1d0808"/>
            <path id="Path_8383" data-name="Path 8383" d="M1336.662,5033.231a10.929,10.929,0,0,1,5.853-7.368c5-2.422,12.512-5.354,18.659.136s7.091,20.742,7.912,23.913,10.525,19.637,10.664,25.7.6,11.738-2.932,14.708-14.839,5.987-19.713,2.17-5.408-8.512-2.721-15.678-6.672-25.532-12.519-28.789S1336.662,5033.231,1336.662,5033.231Z" transform="translate(-1336.641 -5022.876)" fill="#241818"/>
            <path id="Path_8386" data-name="Path 8386" d="M3562.2,4908.975c9.2-1.454,14.378,4.974,14.678,7.026s1.617,11.2-3.9,15.532-12.739,4.459-16.563,2.911-1.736-2.121-6.486-1.841-12.076-5.882-7.2-16.936c6.678-14.358.273-22.523-.888-25.41C3541.693,4887.469,3553,4910.428,3562.2,4908.975Z" transform="translate(-3533.693 -4863.336)" fill="#241818"/>
            <path id="Path_8387" data-name="Path 8387" d="M3613.2,4895.444c2.425,5.578,10.338,18.945,9.429,23.52C3619.92,4925.168,3612.413,4893.639,3613.2,4895.444Z" transform="translate(-3581.145 -4867.18)" fill="#d3b1b1" opacity="0.157"/>
            <path id="Path_8388" data-name="Path 8388" d="M3573.012,4969.2c.543-.32,4.715-7.526,5.128-14.583s-1.151-7.286-1.151-7.286a27.867,27.867,0,0,1,0,9.955A59.742,59.742,0,0,1,3573.012,4969.2Z" transform="translate(-3554.896 -4901.171)" fill="#151212"/>
            <path id="Path_8389" data-name="Path 8389" d="M3660.619,6468.362s-.248-9.945,15.907-9.451" transform="translate(-3660.28 -6458.624)" fill="none" stroke="#2e1d1d" stroke-linecap="round" stroke-width="2"/>
            <path id="Path_8390" data-name="Path 8390" d="M3688.492,6562.379" transform="translate(-3678.512 -6526.314)" fill="none" stroke="#2e1d1d" stroke-width="2"/>
            <path id="Path_8391" data-name="Path 8391" d="M20.806,64.315a23.253,23.253,0,0,0-1.035,13.759c1.821,7.384,2.605,9.581.5,13.931s2.349,5.214,3.939,4,5.9-22.307,4.3-25.383S20.806,64.315,20.806,64.315Z" transform="translate(-12.514 -42.018)" fill="#241818"/>
          </g>
        </g>
      </g>
    </g>
  </g>
</svg>
