<svg xmlns="http://www.w3.org/2000/svg" xmlns:xlink="http://www.w3.org/1999/xlink" width="325" height="483" viewBox="0 0 325 483">
  <defs>
    <clipPath id="clip-path">
      <rect id="Rectangle_656" data-name="Rectangle 656" width="325" height="483"/>
    </clipPath>
  </defs>
  <g id="Custom_Size_1" data-name="Custom Size – 1" clip-path="url(#clip-path)">
    <g id="block1-right-illustration">
      <path id="Path_1992" data-name="Path 1992" d="M116.287,3330.458c-33.9,6.685-53.674,23.158,18.279,24.727s202.262,8.981,246.223,0c18.244-3.727,9.57-7.591,22.441-11.888,17.779-5.935-90.377-12.373-47.428-18.362s-38.982-10.531-116.609-9.244S116.287,3330.458,116.287,3330.458Z" transform="translate(-85.729 -2877.014)" fill="#bad0b4"/>
      <path id="Path_1993" data-name="Path 1993" d="M203.336,3345.52c71,5.134,177.144,22.2,222.455,13.223s44.62-18.506-19.278-25.715c-19.373-2.165-23.842-4.364-66.609-3.542C245.374,3331.3,154.415,3341.983,203.336,3345.52Z" transform="translate(-132.67 -2880.572)" fill="#bad0b4"/>
      <g id="man" transform="translate(25.257)">
        <g id="shoe" transform="translate(65.46 427.012)">
          <path id="Path_1683" data-name="Path 1683" d="M3088.775,3320.758s-1.384,5.72-1,9.092,4.6,1.685,10.538,4.815,10.435,6.486,27,6.248,27.485-2.457,28.1-4.25-2.916-5.939-7.48-6.121c-2.127-.085-9.48-.637-14.514-3.3a26.976,26.976,0,0,1-10.884-11.537C3117.789,3309.6,3088.775,3320.758,3088.775,3320.758Z" transform="translate(-3087.486 -3313.878)" fill="#362821"/>
          <path id="Path_1688" data-name="Path 1688" d="M203.454,3371.63h0v-3.53l4.952,1.583" transform="translate(-190.511 -3343.647)"/>
          <path id="Path_1684" data-name="Path 1684" d="M3087.889,3337.411s7.409.784,10.588,2.571,9.447,6.322,17.077,6.772,19.978.013,26.353-1.489,11.3-3.243,11.3-3.243,1.272,2.874-.142,3.679-14.926,4.537-23.535,4.594-6.142.763-13.975,0-9.89-1.218-17.532-6.529-6.654,4.144-9.187,2.556S3087.889,3337.411,3087.889,3337.411Z" transform="translate(-3087.398 -3320.596)" fill="#100804"/>
          <path id="Path_1685" data-name="Path 1685" d="M3087.639,3340.577a32.97,32.97,0,0,0,0,6.358c.375,2.465,12.724,2.547,12.724,2.547v-4.459l-7.3-4.049Z" transform="translate(-3087.419 -3321.5)" fill="#100804"/>
          <path id="Path_1687" data-name="Path 1687" d="M187.629,3343.785s3.11,8.526,4.237,9.871c.576.687-1.333.159-3.028-.141-1.19-.073-2.663-.418-2.786-1.359-.252-1.924.929-8.685.929-8.685Z" transform="translate(-185.573 -3336.616)" fill="#4a352b"/>
          <path id="Path_1686" data-name="Path 1686" d="M3090.291,3321.379a54.9,54.9,0,0,0,.243,7.112c.225,1.977.214,2.7,2.434,3.477,1.218.428,4.176.769,6.641,2.23,5.955,3.529,12.828,8.754,30.315,6.475l4.1-.229,5.439-.541,3.41-.674,6.638-1.787c3.218-.444-27.745,1.354-37.415-4.341-5.093-3-9.032-8.8-6.764-16.225C3098.821,3314.582,3090.291,3321.379,3090.291,3321.379Z" transform="translate(-3088.21 -3314.599)" fill="#2e1a10"/>
          <path id="Path_1689" data-name="Path 1689" d="M3108.546,3318.58s8.524-5.767,12.225-1.794c-4.149,6.166,2.079,13.678,6.772,14.9,10.068,3.582,22.079,3.5,25.626,3.364,1.823-.073,2.591-.308,2.4.426-.016.289-.9.9-2.4,1.3-3.1.843-17.813,4.29-26.423,1.589s-13.758-6.98-16.156-10.868a16.966,16.966,0,0,1-2.044-8.917Z" transform="translate(-3093.381 -3314.31)" fill="#2e1a10"/>
        </g>
        <g id="shoe-2" data-name="shoe" transform="translate(27.468 434.872)">
          <path id="Path_1683-2" data-name="Path 1683" d="M3088.775,3320.758s-1.384,5.72-1,9.092,4.6,1.685,10.538,4.815,10.435,6.486,27,6.248,27.485-2.457,28.1-4.25-2.916-5.939-7.48-6.121c-2.127-.085-9.48-.637-14.514-3.3a26.976,26.976,0,0,1-10.884-11.537C3117.789,3309.6,3088.775,3320.758,3088.775,3320.758Z" transform="translate(-3087.486 -3313.878)" fill="#362821"/>
          <path id="Path_1688-2" data-name="Path 1688" d="M203.454,3371.63h0v-3.53l4.744,1.427" transform="translate(-190.511 -3343.647)"/>
          <path id="Path_1684-2" data-name="Path 1684" d="M3087.889,3337.411s7.409.784,10.588,2.571,9.447,6.322,17.077,6.772,19.978.013,26.353-1.489,11.3-3.243,11.3-3.243,1.272,2.874-.142,3.679-14.926,4.537-23.535,4.594-6.142.763-13.975,0-9.89-1.218-17.532-6.529-6.654,4.144-9.187,2.556S3087.889,3337.411,3087.889,3337.411Z" transform="translate(-3087.398 -3320.596)" fill="#1c0e07"/>
          <path id="Path_1685-2" data-name="Path 1685" d="M3087.639,3340.577a30.722,30.722,0,0,0,0,6.155c.375,2.465,12.724,2.75,12.724,2.75v-4.459l-7.3-4.049Z" transform="translate(-3087.419 -3321.5)" fill="#1c0e07"/>
          <path id="Path_1687-2" data-name="Path 1687" d="M187.629,3343.785s3.11,8.526,4.237,9.871c.576.687-1.333.159-3.028-.141-1.19-.073-2.663-.418-2.786-1.359-.252-1.924.929-8.685.929-8.685Z" transform="translate(-185.573 -3336.616)" fill="#4a352b"/>
          <path id="Path_1686-2" data-name="Path 1686" d="M3090.291,3321.379a54.9,54.9,0,0,0,.243,7.112c.225,1.977.214,2.7,2.434,3.477,1.218.428,4.176.769,6.641,2.23,5.955,3.529,12.828,8.754,30.315,6.475l4.1-.229,5.439-.541,3.41-.674,6.638-1.787c3.218-.444-27.745,1.354-37.415-4.341-5.093-3-9.032-8.8-6.764-16.225C3098.821,3314.582,3090.291,3321.379,3090.291,3321.379Z" transform="translate(-3088.21 -3314.599)" fill="#342118"/>
          <path id="Path_1689-2" data-name="Path 1689" d="M3108.546,3318.58s8.524-5.767,12.225-1.794c-4.149,6.166,2.079,13.678,6.772,14.9,10.068,3.582,22.079,3.5,25.626,3.364,1.823-.073,2.591-.308,2.4.426-.016.289-.9.9-2.4,1.3-3.1.843-17.813,4.29-26.423,1.589s-13.758-6.98-16.156-10.868a16.966,16.966,0,0,1-2.044-8.917Z" transform="translate(-3093.381 -3314.31)" fill="#4a352b"/>
        </g>
        <g id="pant-man" transform="translate(25.855 193.924)">
          <path id="Path_1644" data-name="Path 1644" d="M3137.587,2976.668s17.1,5.938,27.115,4.336,14.444-4.336,14.444-4.336l4.982,23.789-2.753,19.019-28.257,12.233s-45.759-3.8-45.944-7.612-1.8-21.948-1.8-21.948Z" transform="translate(-3090.875 -2976.668)"/>
          <path id="Path_1645" data-name="Path 1645" d="M3189.692,2979.162s4.335,59.977,3.134,72.1-6.352,44.163-10.235,68.572-10.9,38.254-9.878,49.12c.5,5.3-.885,15.477,0,25.353.9,10.022,2.3,16.684,3.353,19.176,2.064,4.867-17.14,5.59-27.128,5.233s-11.474,2.958-10.389-16.748,3.217-55.227,5.3-66.954,9.064-31.423,8.759-47.729-2.661-51.719,0-57.292S3189.692,2979.162,3189.692,2979.162Z" transform="translate(-3100.184 -2977.38)"/>
          <path id="Path_1643" data-name="Path 1643" d="M3096.021,3039.136s1.307,25.138,2.33,38.569-3.031,21.363-2.33,28.145,2.073,9.9,0,13.63-1.279,8.82-1.838,9.433-8.852,53.309-9.026,60.6,2.545,27.93,2.006,37.264.214,13.586,0,15.054,12.386.892,16.864,0,19.783,1.725,19.836-2.4-5.734-22.4-5.167-26.466,6.554-27.511,5.908-35.642.8-32.919,2.6-37.865,13.819-43.163,15.81-53.536,7.31-35.039,7.058-41.156S3096.021,3039.136,3096.021,3039.136Z" transform="translate(-3085.149 -2994.498)"/>
          <path id="Path_1657" data-name="Path 1657" d="M3096.021,3039.14s1.307,25.137,2.33,38.569-3.031,21.362-2.33,28.145,2.073,9.9,0,13.63-1.279,8.819-1.838,9.432-8.852,53.309-9.026,60.6,2.545,27.93,2.006,37.264.214,13.586,0,15.054,8.368.892,12.845,0-.567-18.994,0-23.059-2-35.763-1.658-43.286,5.772-59.055,8.81-84.836S3096.021,3039.14,3096.021,3039.14Z" transform="translate(-3085.149 -2994.502)" fill="#2e2d2d"/>
          <path id="Path_1676" data-name="Path 1676" d="M3158.127,3013.417s-12.423,7.632-22.538,4.536" transform="translate(-3099.431 -2987.159)" fill="none" stroke="#2e2d2d" stroke-linecap="round" stroke-width="1"/>
          <path id="Path_1672" data-name="Path 1672" d="M3148.937,3257.614c-9.989-.356-11.474,2.958-10.389-16.748s3.217-55.227,5.3-66.954,9.064-31.423,8.759-47.729a31.157,31.157,0,0,1,1.866-10.082c1.051-2.533,1.886,2.584,2.042,6.454.568,14.106-7.522,55.926-7.582,81.581C3148.869,3233.209,3153.152,3257.764,3148.937,3257.614Z" transform="translate(-3100.184 -3016.278)" fill="#2e2d2d"/>
          <path id="Path_1674" data-name="Path 1674" d="M3192.239,3041.709s-20.647,19.119-22.644,29.574,1.3,4.865,6.04-4.979S3192.239,3041.709,3192.239,3041.709Z" transform="translate(-3108.893 -2995.235)" fill="#1d1d1d"/>
          <path id="Path_1675" data-name="Path 1675" d="M3165.312,3041.709s-4.1,52.994-7.469,65.273" transform="translate(-3105.733 -2995.235)" fill="none" stroke="#2e2d2d" stroke-linecap="round" stroke-width="1"/>
          <path id="Path_2098" data-name="Path 2098" d="M11.586-.007S1.209,10.868.2,16.809c-.383,2.251-.245,3.333.437,3.517.5.265,2.069-1.9,3.55-5.376C6.572,9.354,11.586-.007,11.586-.007Z" transform="translate(70.582 41.927) rotate(25)" fill="#1d1d1d"/>
        </g>
        <path id="Path_1630" data-name="Path 1630" d="M3175.142,2794.561s2.527,15.046,2.493,17.726-23.39,3.906-23.783,0c-.1-1-1.485-8.493-2.962-10.674-3.8-5.616-8.082-19.252-6.4-24.342a77.84,77.84,0,0,0,3.047-12.958l21.494,6.34Z" transform="translate(-3075.991 -2722.124)" fill="#9a7664"/>
        <path id="Path_1632" data-name="Path 1632" d="M3150.348,2814.074s14.469,9.06,19.339,7.621a13.785,13.785,0,0,0,6.916-4.17l9.283,23.233,4.534,12.475-4.534,33.018,2.407,41.034-4.428,6.882s-9.358,2.177-12.334,1.755-23.4-5.448-23.486-6.15-2.716-26.265-2.032-33.212,1-32.339,2.032-37.06S3150.348,2814.074,3150.348,2814.074Z" transform="translate(-3076.495 -2736.329)" fill="#fff"/>
        <path id="Path_1733" data-name="Path 1733" d="M3132.852,3410.755s-13.407,5.77-22.715,5.455-1.561,7.345-1.561,7.345,10.1,2.24,17.129-1.719,9.736-5.291,9.736-5.291Z" transform="translate(-3018.477 -3216.769)" fill="#261414"/>
        <path id="Path_1633" data-name="Path 1633" d="M3176.848,2811.662s1.145,6.909-6.612,6.843c-8.472.856-19.491-10.012-19.619-12.081-.284-4.567,3.457,17.465,3.457,17.465l4.426,3.76s14.817,1.645,16.09,1.029,7.811-2.186,7.584-2.8S3176.848,2811.662,3176.848,2811.662Z" transform="translate(-3077.827 -2733.967)" fill="#fff"/>
        <path id="Path_1729" data-name="Path 1729" d="M302.32,2838.456s3.74,18.3,6.193,28.748a77.4,77.4,0,0,1,1.171,8.776c.662,7.053,1.894-8.2,0-20.791s-1.691-11.315-3.22-13.3a15.667,15.667,0,0,0-4.144-3.433Z" transform="translate(-191.039 -2757.58)" fill="#1f4fac"/>
        <path id="Path_1728" data-name="Path 1728" d="M3190.331,2808.815s8.537,4.5,10.883,9.119,7.279,37.989,6.745,47.7,2.354,68.778,2.365,73.544,3.582,25.558,0,27.354-6.416,2.433-6.268-.6-3.739-37.584-3.739-37.584-4.484-37.081-2.684-45.248,2.745-31.99,1.26-33.875-8.562-28.849-8.562-28.849l-3.252-10.341Z" transform="translate(-3088.157 -2734.828)" fill="#1f4fac"/>
        <path id="Path_1631" data-name="Path 1631" d="M3183.7,2805.949s2.743,12.251,4.446,16.339,5.956,7.843,7.942,23.879-.835,31.3,0,40.266c.649,6.962,1.3,27.7,2.826,38.648.4,2.885,3.232-6.652,3.232-6.652s-.29-22.65-2.419-29.953,1.031-20.99,0-42.309c-1.14-6.9-3.587-19.638-6.362-24.879-.606-1.145-3.659-.874-3.567-1.445s4.967,1.179,3.938-.838c-2.417-4.746-7.677-11.723-7.594-13.057C3186.348,2802.544,3183.7,2805.949,3183.7,2805.949Z" transform="translate(-3087.198 -2733.577)" fill="#2c5dba"/>
        <g id="man-face" transform="translate(66.549)">
          <path id="Path_1623" data-name="Path 1623" d="M3192.075,2733.308a123.028,123.028,0,0,1,.079,13.955c-.428,9.127-2.032,21.366-6.943,30.245-9.061,16.382-26.526-3.1-26.526-3.1l-6.113-15.519s-1.911-10.178-1.693-11,.564-8.246,3.428-10.734,10.764-7.768,11.712-8,10.815-1.374,10.815-1.374Z" transform="translate(-3144.45 -2711.691)" fill="#bc907b"/>
          <path id="Path_1624" data-name="Path 1624" d="M3158.676,2729.451c-3.51.606-2.381,3.2-1.951,6.278.27,1.926.792,6.211-.547,7.2-3.346,4.357-.854,1.093-2.174,4.633s-1.928.3-3.782-4.633-1.71-6.423-4.871-6.376-1.16-18.021,0-22.023,5.16-7.413,10.826-8.3,14.986-1.617,20.515,0,15.475,12.2,16.664,17.518-1.942,15.839-3.174,17.377c-.743.927-.167-3.534,0-6.983.1-1.921.5-4.148-1.481-4.167-2.141-.021-2.07.685-10.36.963S3162.186,2728.845,3158.676,2729.451Z" transform="translate(-3142.408 -2705.269)" fill="#141212"/>
          <path id="Path_1629" data-name="Path 1629" d="M3145.352,2736.557c-3.16.047-1.16-18.021,0-22.023s5.16-7.413,10.826-8.3,14.986-1.617,20.515,0c3.1.906-14.058.079-23.474,8.3C3146.1,2720.753,3146.74,2736.536,3145.352,2736.557Z" transform="translate(-3142.408 -2705.269)" fill="#242424"/>
          <path id="Path_1627" data-name="Path 1627" d="M3141.934,2750.692c.328,2.634.727,10.827,2.686,12.352s4.1,2.107,4.9,0,.676-4.214.49-8.261-.788-4.8-2.405-6.1S3141.607,2748.058,3141.934,2750.692Z" transform="translate(-3141.917 -2717.479)" fill="#bc907b"/>
          <path id="Path_1626" data-name="Path 1626" d="M3175.746,2790.321c1.941.857,4.415-3.366,6.925-3.9s9.812-1.281,10.747,3.119l1.692-2.126s-1.189,4.515-1.692,5.782c-1.008,2.534-2.359,5.414-2.359,5.414s-4.29-3.191-.815-4.983c.62-1.173,1.154-3.8.569-4.086-2.25-1.151-5.592-1.232-7.3,0-1.982,1.428-2.323,3.371-3.517,3.656S3173.8,2789.463,3175.746,2790.321Z" transform="translate(-3151.371 -2728.318)"/>
          <path id="Path_1628" data-name="Path 1628" d="M3153.232,2758.476s-1.641,12.886,0,16.279,8,11.634,11.722,13.755,8.7,5.613,11.137,6.491,4.929.988,7.5-2.576a10.213,10.213,0,0,0,1.717-7.509s-6.41,2-10.85,0-10.859-6.278-14.33-10.161c-1.961-2.193-3.017-11.186-3.017-11.186s-.223-3.114.8-4.635S3153.232,2758.476,3153.232,2758.476Z" transform="translate(-3144.915 -2720.354)" fill="#141212"/>
          <path id="Path_1634" data-name="Path 1634" d="M3151.356,2770.487a44.8,44.8,0,0,0-2.485,12.617c-.14,4.992,1.841,13,1.987,14.565.32,3.434-4.5-12.887-4.214-16.658s1.547-12.757,1.547-12.757Z" transform="translate(-3143.969 -2724.678)" fill="#bc907b"/>
          <path id="Path_6420" data-name="Path 6420" d="M5.077,62.093s2.275.786,3.36-.282.058.88-.965,1.1a7.875,7.875,0,0,1-2.395,0Z" transform="translate(-1.293 -15.811)" fill="#9a7664"/>
        </g>
        <g id="belt" transform="translate(68.823 194.014)">
          <path id="Path_1730" data-name="Path 1730" d="M3108.16,3411.794s23.124,6.1,27.373,4.637a72.592,72.592,0,0,1-.944,9.046s-15.675-1.359-20.074-3.428a52.742,52.742,0,0,1-9.426-6.329Z" transform="translate(-3105.089 -3411.794)" fill="#412121"/>
          <path id="Path_1734" data-name="Path 1734" d="M3134.916,3415.832c.095,2.588.651,7.885.651,7.885a69,69,0,0,1-13.017,2.3,13.832,13.832,0,0,1-6.294-1.1,24.909,24.909,0,0,1-7.671-6.149S3130.667,3417.3,3134.916,3415.832Z" transform="translate(-3091.743 -3412.947)" fill="#412121"/>
          <path id="Path_1731" data-name="Path 1731" d="M3146.592,3416.842c-.2-.207-6.841-1-7.3,1.79a48.9,48.9,0,0,0-.385,7.545c0,1.3.269,1.972,1.131,2.244a6.523,6.523,0,0,0,3.431,0,27.363,27.363,0,0,0,4-1.224,1.756,1.756,0,0,0,.333-.862s-5.6.977-6.443.242-.095-7.347,0-7.587,5.733-1.173,5.733-1.173Z" transform="translate(-3111.797 -3413.875)" fill="#5a504a"/>
          <path id="Path_1732" data-name="Path 1732" d="M0,1.655H1.706L6.83,0" transform="translate(28.936 7.418) rotate(7)" fill="none" stroke="#74655c" stroke-linecap="round" stroke-width="2"/>
          <path id="Path_1735" data-name="Path 1735" d="M301.316,3000.933s-4.486,2.462-4.366,4.833a10.243,10.243,0,0,1-.8,4.354l5.674-1.323Z" transform="translate(-258.114 -2997.976)" fill="#331616"/>
        </g>
        <g id="left-blazer" transform="translate(0 49.279)">
          <path id="Path_1612" data-name="Path 1612" d="M3050.954,2960.819c3.759-12.027,26.068-84.938,28.157-104.631s0-61.571,0-61.571l34.076-12.634,23.11,105.652s-9.737,31.575-14.641,35.249c-3.688,2.763-14.334,31.354-19.79,44.056-1.686,3.925-1.684,8.6-14.412,7.069S3047.2,2972.847,3050.954,2960.819Z" transform="translate(-3049.512 -2776.447)" fill="#1f4fac"/>
          <path id="Path_1622" data-name="Path 1622" d="M3140.131,2921.141c1.646.02.618,18.083-5.322,30.815-9.462,20.285-28.815,59.7-28.815,59.7s-3.453,12.765-8.322,11.936c-3-.508-23.118-1.721-21.347-6.6,8.875-24.465,53.086-73.4,55.59-79.971C3135.7,2930.26,3135.822,2921.09,3140.131,2921.141Z" transform="translate(-3052.462 -2826.176)" fill="#1f4fac"/>
          <path id="Path_1620" data-name="Path 1620" d="M3109.968,2841.272c2.1-.717,8.253,26.74,15.143,66.712,3.047,52.689-38.057,118.215-45.042,119.342a64.091,64.091,0,0,1-8.256,1.088c-5.539-.035-11.427-.68-16.137-2.417a5.729,5.729,0,0,1-3.642-7.4c.382-.569.918-3.394,2.3-7.435,2.316-7.834,8.5-25.439,13.507-40.958,9.593-29.75-2.229-86.5,7.584-113.256C3078.213,2849.345,3109.154,2841.551,3109.968,2841.272Z" transform="translate(-3050.534 -2834.096)" fill="#1f4fac"/>
          <path id="Path_1621" data-name="Path 1621" d="M1.857,69.964c-.575.015-2.274-1.029-1.76-3.531C4.777,49.3,21.074,0,21.074,0s3.912,25.411,0,39.928S5.52,68.478,1.857,69.964Z" transform="translate(0 117.923) rotate(-0.974)" fill="#3d6abf"/>
          <path id="Path_1614" data-name="Path 1614" d="M3074.358,2858.427s.166,21.337,3.794,26.39,6.493,7.356,0,17.858.414,26.867,0,25.167-13.18-18.99-13.18-20.671-2.962-11.679,0-18.233S3074.358,2858.427,3074.358,2858.427Z" transform="translate(-3053.207 -2798.269)" fill="#5168ea"/>
          <path id="Path_6402" data-name="Path 6402" d="M3142.876,2774.235a68.194,68.194,0,0,0-.7,8.412c.179,1.935,2.484,10.073,5.177,18.463s12.109,39.159,12.753,50.207c.238,4.087,2.871,17.46,1.542,27.368-2.188,16.3-9.483,31.483-11.157,32.748-2.657,2.008,1.434-30.636.288-45.431s-14.058-45.743-14.058-45.743,5.267-3.992,6.312-6.4-8.719,4.716-9.574-4.19-1.028-25.213.707-28.706S3142.876,2774.235,3142.876,2774.235Z" transform="translate(-3074.253 -2772.007)" fill="#1a48a2"/>
          <path id="Path_1611" data-name="Path 1611" d="M3142.582,2774.235a68.1,68.1,0,0,0-.7,8.412c.179,1.935,2.484,10.073,5.177,18.463s12.11,39.159,12.753,50.207c.238,4.087,2.871,17.46,1.542,27.368-2.188,16.3-11.012,33.915-12.687,35.18-2.657,2.008,2.964-33.068,1.818-47.863s-14.058-45.743-14.058-45.743,5.267-3.992,6.312-6.4-8.719,4.716-9.574-4.19-2.45-23.525-.716-27.019S3142.582,2774.235,3142.582,2774.235Z" transform="translate(-3072.468 -2774.235)" fill="#2c5dba"/>
        </g>
        <g id="left-wrist" transform="translate(58.197 195.706)">
          <path id="Path_1635" data-name="Path 1635" d="M3130.266,2992.34l1.847,12.8s5.049,1.69,8.8,1.47,14.14-2.163,15.018-4.6a17.936,17.936,0,0,0,.933-5.012l1.446,1.548s4.361,4.685,7.734,2.982-1.448-3.658-2.481-5.453-.952-1.927-4.724-5.471-9.568-9.574-16.206-9.977S3130.266,2992.34,3130.266,2992.34Z" transform="translate(-3130.266 -2979.578)" fill="#9a7664"/>
          <path id="Path_1637" data-name="Path 1637" d="M3130.908,2996.033s9.493-6.656,12.451-14.878-12.894,11.656-12.894,11.656Z" transform="translate(-3130.323 -2979.162)" fill="#836354"/>
          <path id="Path_1636" data-name="Path 1636" d="M3165.309,2996.231a12.49,12.49,0,0,1,.418,6.833c-.822,3.863-1.419,3.022-1.2,1.137S3165.309,2996.231,3165.309,2996.231Z" transform="translate(-3139.237 -2984.034)" fill="#836354"/>
        </g>
        <g id="left-hand" transform="translate(6.028 67.609)">
          <path id="Path_1638" data-name="Path 1638" d="M3081.208,2800.018c-2.755.883-10.233,3.967-13.731,20.049s-9.968,51.737-9.972,62.006,2.478,14.146,5.55,17.857,35.683,46.231,35.683,46.231a29.7,29.7,0,0,0,12.963-5.989,160.308,160.308,0,0,0,12.332-12.166s-8.08-8.769-17-20.047c-6.213-7.854-16.038-23.142-16.038-23.142s9.07-35.835,10.251-54.335S3083.963,2799.135,3081.208,2800.018Z" transform="translate(-3057.493 -2799.913)" fill="#2c5dba"/>
          <path id="Path_1639" data-name="Path 1639" d="M3081.43,2799.888s4.455,2.779,3.052,9.1c-1.1,4.97-8.367,13.912-16.156,32.974-2.01,4.919-10.53,46.14-10.592,45.859-1.15-5.219,1.765-40.908,8.451-61.545,1.6-6.949,2.512-12.357,4.509-16.295C3074.97,2801.545,3081.43,2799.888,3081.43,2799.888Z" transform="translate(-3057.489 -2799.888)" fill="#3d6abf"/>
          <path id="Path_1642" data-name="Path 1642" d="M9.54,0S3.271,3.067,2.863,6.756s-3.951,3.875-2.532-.7S9.54,0,9.54,0Z" transform="translate(24.141 83.359) rotate(13)" fill="#1f4fac"/>
          <path id="Path_2097" data-name="Path 2097" d="M10.663-.008S3.656,4.032,3.2,8.878-1.223,13.973.368,7.964,10.663-.008,10.663-.008Z" transform="matrix(0.574, 0.819, -0.819, 0.574, 27.491, 77.043)" fill="#1f4fac"/>
        </g>
      </g>
      <g id="Girl" transform="translate(130.55 44.799)">
        <path id="Path_1677" data-name="Path 1677" d="M3262.194,2851.539s-9.589,3.263-11.276,8.738c-.3.97-4.472,10.191-5.274,16.792-1.469,12.085-29.247,35.068-29.247,35.068s32.279,28.2,50.43-28.168Z" transform="translate(-3201.035 -2780.39)" fill="#ff7361"/>
        <g id="girl-shoes" transform="translate(34.728 372.616)">
          <path id="Path_1724" data-name="Path 1724" d="M586.6,3298.443s-.838.041-.816-.439c0,0-.41-4.951-.946-7.7s-1.2-3.3-1.2-3.3l2.143-.694a12.266,12.266,0,0,0,.816,1.781c.285.378,2.032,6.958,2.049,7.213a30.436,30.436,0,0,1-2.046,3.139Z" transform="translate(-549.562 -3259.257)" fill="#483434"/>
          <path id="Path_1715" data-name="Path 1715" d="M3466.527,3232.273s2.547,5.508,1.4,10.514-6.61,16.886-9.236,18.733,7.524,2.46,11.129,0,11.784-10.833,13.371-15.3,2.506-6.1,2.125-6.793-3.138-7.249-3.539-10.175S3466.527,3232.273,3466.527,3232.273Z" transform="translate(-3446.901 -3228.447)" fill="#d6ad87"/>
          <path id="Path_1727" data-name="Path 1727" d="M3474.278,3261.771c3.6-2.461,11.784-10.832,13.371-15.295s2.506-6.1,2.125-6.793-3.138-7.249-3.539-10.175c-.213-1.551-.437,6.992-4.014,16.391C3479.168,3253.919,3472.583,3262.927,3474.278,3261.771Z" transform="translate(-3451.359 -3228.698)" fill="#af8e6f"/>
          <path id="Path_1716" data-name="Path 1716" d="M3442.467,3271.681s-.707-1.344,3.052-2.846,8.651-3.652,9.275-4.356,7.019,1.854,10.485,0,15.581-19.943,15.745-20.788,4.345,5.235,4.246,9.839-2.063,18.151-2.063,18.151-4.266.768-3.8,0,.39-10.386-1.278-10.706-8.22,4.941-9.891,9.02-2.858,4.361-4.368,4.469-9.074.322-13.732,0a14.637,14.637,0,0,1-7.671-2.783Z" transform="translate(-3442.414 -3232.776)" fill="#ac7777"/>
          <path id="Path_7013" data-name="Path 7013" d="M3471.722,3264.48c3.467-1.855,15.581-19.943,15.745-20.788s4.345,5.235,4.246,9.839-2.063,18.151-2.063,18.151-4.266.768-3.8,0,.39-10.386-1.278-10.706-8.22,4.941-9.891,9.02-2.858,4.361-4.368,4.469c-.81.059-2.818-1.771-2.579-4.469C3467.9,3268.085,3470.117,3265.338,3471.722,3264.48Z" transform="translate(-3448.858 -3232.776)" fill="#916262"/>
          <path id="Path_1717" data-name="Path 1717" d="M3505.884,3234s-8.208,26.215-10.171,28.333c-.575.621.152,1.567,1.938,2.232,3.622,1.352,11.707,2.018,13.224.534,2.145-2.1,3.692-6.951,4.486-10.648s.772-5.666,1.627-7.653.938-12.8.938-12.8Z" transform="translate(-3448.85 -3230.031)" fill="#d6ad87"/>
          <path id="Path_1726" data-name="Path 1726" d="M3516.893,3264.922c2.145-2.1,3.692-6.951,4.487-10.648s.684-4.271,1.538-6.257,1.026-14.193,1.026-14.193-7-3.817-5.2,11.272C3520.637,3251.849,3515.982,3265.814,3516.893,3264.922Z" transform="translate(-3454.867 -3229.859)" fill="#af8e6f"/>
          <path id="Path_1718" data-name="Path 1718" d="M3495.081,3266.638s-.655,2.509,1.609,2.976,12.7,1.193,14.079-.773c.736-1.052,2.285-5.763,3.476-10.208.928-3.463,2.039-6.929,2.039-6.929s2.036,4.035.607,7.555-3.758,9.626-3.959,11.924.657,6.167-2.163,6.883-13.589,1.583-15.688.775a4.283,4.283,0,0,1-2.869-5.357,38.747,38.747,0,0,1,2.869-6.846Z" transform="translate(-3447.865 -3235.086)" fill="#ac7777"/>
          <path id="Path_7014" data-name="Path 7014" d="M3516.615,3268.84c.736-1.052,2.285-5.763,3.476-10.208.928-3.463,2.039-6.929,2.039-6.929s2.036,4.035.607,7.555-3.759,9.626-3.959,11.924.657,6.167-2.163,6.883S3515.24,3270.807,3516.615,3268.84Z" transform="translate(-3453.711 -3235.086)" fill="#916262"/>
        </g>
        <g id="girl-pant" transform="translate(31.335 179.685)">
          <path id="Path_1670" data-name="Path 1670" d="M3252.013,3031s-9.661,31.791-10.5,52.113-3.214,44.682-2.774,46.713,1.7,5.115,2.774,8.261-1.822,5.211,0,9.711,18.182,68.75,18.182,68.75,18.185-.453,20.737-3.33-2.653-59.235-6.619-70.877.924-27.377,2.757-32.963,16.288-41.81,16.288-41.81L3295.6,3031Z" transform="translate(-3238.679 -3011.306)" fill="#202a43"/>
          <path id="Path_1681" data-name="Path 1681" d="M3261.488,3138.146l4.632,78.4s18.185-.453,20.737-3.33-2.653-59.235-6.619-70.877.924-27.377,2.757-32.963,16.288-41.81,16.288-41.81l2.741-36.569s-18.277,31.44-30.518,60.858C3263.825,3110.318,3260.781,3136.4,3261.488,3138.146Z" transform="translate(-3245.11 -3011.306)" fill="#131929"/>
          <path id="Path_1671" data-name="Path 1671" d="M3303.472,3040.123s5.739,52.728,8.25,69.413,1.272,22.311,2.32,26.053-.836,5.74,0,12.4.733,52.138,0,55.574,10.925,8.84,17.52,6.762,12.077-44.921,13.129-51.253-2.688-28.021,0-46.358,14.577-57.954,13.734-74.835a192.888,192.888,0,0,0-4.986-33.184l-41.718,3.619Z" transform="translate(-3257.027 -3003.798)" fill="#202a43"/>
          <path id="Path_1696" data-name="Path 1696" d="M0,10.464S15.9-2.358,24.785.392c4.222,1.306-1.1,1.741-8.125,3.9C9.342,6.543,0,10.464,0,10.464Z" transform="matrix(0.985, -0.174, 0.174, 0.985, 46.108, 26.692)" fill="#131929"/>
          <path id="Path_1698" data-name="Path 1698" d="M3255.66,3035.035s-2.164,5.282,7.427,6.1,49.977-6.986,49.977-6.986l-41.543-2.393-15.137-1.265Z" transform="translate(-3243.429 -3011.159)" fill="#131929"/>
          <path id="Path_1682" data-name="Path 1682" d="M3335.921,3198.143s-2.013,11.363,0,12.02,3.028.157,4.948-.383c6.6-2.077,11.858-44.63,12.486-51.064s-2.688-28.02,0-46.357,14.576-57.954,13.734-74.835c-.2-4.018,1.3-10.722,0-14.746-3.869-12.019-13.734-19.341-13.734-19.341s6.35,43.133-1.908,84.852c-1.161,5.867-4.795,15.658-5.837,21.576-3.462,19.667-.732,36.5-2.2,51.428a176.124,176.124,0,0,1-7.49,36.85Z" transform="translate(-3265.69 -3003.438)" fill="#131929"/>
          <path id="Path_1697" data-name="Path 1697" d="M0,.045S22.528,2.307,25.716,9.026s8.945-1.877-.006-5.761S0,.045,0,.045Z" transform="translate(47.776 37.255) rotate(-19)" fill="#131929"/>
        </g>
        <path id="Path_1649" data-name="Path 1649" d="M3248.417,2881.123Z" transform="translate(-3247.967 -2770.937)"/>
        <path id="Path_1693" data-name="Path 1693" d="M8.046,0S7,50.7,2.672,62.9s-2.32,4.855-1.41-1.13S1.4,45.279,3.9,36.156,8.046,0,8.046,0Z" transform="translate(45.883 81.806) rotate(0.974)" fill="#ea6958"/>
        <path id="Path_1664" data-name="Path 1664" d="M3296.127,2957.426s3.33-81.258,6.938-92.086,5-19.566,5.732-20.908c.218-.4-.477-3.5,1.623-6.812,4.5-7.089,13.461-18.642,17.79-18.916,6.184-.391,33.245,9.131,33.245,9.131s-6.084,84.253-7.552,89.907-.006,16.679,0,18.95,3.775,16.654,3.775,16.654-6.237-1.76-8.2-1.822-1.784-5.142-1.784-5.142l-1.536,5.142s-20.535,5.4-23.885,6.451-24.712,2.944-26.152,3S3296.127,2957.426,3296.127,2957.426Z" transform="translate(-3224.148 -2753.942)" fill="#ff7361"/>
        <path id="Path_1691" data-name="Path 1691" d="M3308.168,2878.3a39.024,39.024,0,0,1,0,7.78c-.353,2.259-3.3,8.28-3.666,15.281-.111,2.114.784,8.1.493,10.191-1.142,8.183.647,12.622.647,12.622l-9.817,67.774" transform="translate(-3223.526 -2788.031)" fill="none" stroke="#ea6958" stroke-linecap="round" stroke-width="1"/>
        <path id="Path_1690" data-name="Path 1690" d="M3339.5,2895.283c1.142-2.711-4.243-17.074-1.308-21.269,7.932-18,32.964-42.626,32.964-42.626s-6.486,82.261-7.954,87.914-.006,18.646,0,20.917,3.775,16.654,3.775,16.654-6.237-1.759-8.2-1.822-1.784-5.142-1.784-5.142l-1.536,5.142s-20.535,5.4-23.885,6.451-2.858-.685-2.48-23.257S3334.085,2908.129,3339.5,2895.283Z" transform="translate(-3233.439 -2757.47)" fill="#ea6958"/>
        <path id="Path_1694" data-name="Path 1694" d="M-.017,38.913s11.046,17.809,21.138,25.58c2.333,1.97,12.578,3.73,14.121,1.887C41.413,57.724,39.6,46.8,39.6,46.8L38.531-.017S21.174,58.847,18.576,56.66C10.8,50.113-.017,38.913-.017,38.913Z" transform="translate(27.749 82.779) rotate(18)" fill="#ea6958"/>
        <path id="Path_1665" data-name="Path 1665" d="M3330.75,2821.65s.282-1.061,2.707-2.23,8.2-1.8,8.422-1.281l4.745,4.8s3.121,4.808,1.917,3.546-3.38-5.856-7.828-7.065S3330.75,2821.65,3330.75,2821.65Z" transform="translate(-3241.301 -2736.506)" fill="#e06252"/>
        <path id="Path_1667" data-name="Path 1667" d="M3296.529,2814.378a68.8,68.8,0,0,1,.949,13.259c-.306,6.929.274,10.582,0,11.5-.513,1.727-9.047,31.027-9.337,32.939s-5.307,85.962-5.307,85.962-25.071-1.4-28.794-3.154a32.179,32.179,0,0,1-6.652-4.312s14.815-56.942,16.152-64.693c.774-4.488-.6-13.813,0-24.688.415-7.553-2.755-33.634,8.811-37.951s17.333-6.664,17.333-6.664Z" transform="translate(-3210.528 -2752.701)" fill="#ff7361"/>
        <path id="Path_1721" data-name="Path 1721" d="M3291.535,2867.839c1,.158,8.328-3.35,10.079-2.686s5.644,8.521,5.644,8.521-1.7-8.169-5.26-9.632S3291.535,2867.839,3291.535,2867.839Z" transform="translate(-3222.311 -2783.887)" fill="#e06252"/>
        <path id="Path_1706" data-name="Path 1706" d="M3311.894,2870.286s-3.29,10.476-3.764,13.509c-.353,2.259-2.158,8.341-2.527,15.342-.111,2.113.292,7.406,0,9.493-1.142,8.183,0,13.259,0,13.259l-9.914,68.493" transform="translate(-3229.94 -2785.742)" fill="none" stroke="#ea6958" stroke-linecap="round" stroke-width="1"/>
        <path id="Path_6411" data-name="Path 6411" d="M106.644,93.158s-2.452,4.431-.972,6.725,1.834,9.711,2.4,9.083,1.973-.3,3-3.484,2.388-3.53,2.195-8.556a61.41,61.41,0,0,0-2.2-11.9Z" transform="translate(-26.795 -29.704)"/>
        <g id="girl-neck" transform="translate(84.095 44.434)">
          <path id="Path_1662" data-name="Path 1662" d="M3313.281,2800.989s4.084,14.288,2.136,22.035c-1.219,4.85,1.4,5.9,1.4,5.9s4.559-5.285,6.731-8.37c5.809-8.249,19-15.747,18.418-20.193s-4.9-10.207-4.9-10.207Z" transform="translate(-3313.281 -2790.151)" fill="#efc193"/>
          <path id="Path_1723" data-name="Path 1723" d="M3327.547,2794.2s6.015,21.961,11.33,16.461,7.886-5.858,7.3-10.3-4.9-10.207-4.9-10.207Z" transform="translate(-3317.503 -2790.151)" fill="#d1a06f"/>
        </g>
        <path id="Path_6410" data-name="Path 6410" d="M405.166,2786.256s-11.9-2.769-17.715,2.836-10.466,17.021-8.881,21.882,1.854,5.712,1.416,8.988-5.435,8.253,0,14.781,6.916,5.9,6.638,9.551-3.507,3.551-2.1,8.527,1.2,6.76,2.1,7.248.171-3.337,1.518-5.3,3.1-2.428,4.866-6.229,2.394-7.792,1.923-8.548-13.548-29.089-13.431-29.771,0-6.3,0-6.3l.968-5.661,5.673.757s2.588-.546,3.877,0,1.727-3.6,2.912-4.227S405.166,2786.256,405.166,2786.256Z" transform="translate(-311.057 -2785.572)"/>
        <path id="Path_1695" data-name="Path 1695" d="M3272.436,2885.763c2.151.576-3.973,49.5-3.162,70.278s-4.115,20.494-11.36,18.455a19.2,19.2,0,0,1-7.323-4.018l2.644-10.576S3272.71,2884.841,3272.436,2885.763Z" transform="translate(-3213.708 -2772.266)" fill="#ea6958"/>
        <path id="girl-face" d="M3294.456,2746.573s-.143,3.019-.261,7.237c-.158,5.636-.257,13.6.261,17.159.871,5.99,7.705,17.386,12.384,18.426s30.753-5.087,25.4-22.777-1.913-18.546-2.211-20.045-25.975-3.521-25.975-3.521Z" transform="translate(-3223.746 -2732.272)" fill="#f5d3b0"/>
        <path id="girl-face-2" data-name="girl-face" d="M3329.021,2786.966s5.6-2.032,8.386-5.8c3.987-5.4,5.439-14.657,2.182-25.412-5.356-17.69-3.221-9.2-3.521-10.7-.18-.9-3.844,19.513-3.407,28.582S3329.021,2786.966,3329.021,2786.966Z" transform="translate(-3232.649 -2732.593)" fill="#efc193"/>
        <g id="tablet" transform="translate(4.325 100.55)">
          <path id="Path_1711" data-name="Path 1711" d="M2.15,0,60.212.02a2.149,2.149,0,0,1,2.151,2.144l.012,37.157a2.145,2.145,0,0,1-2.15,2.143L2.164,41.445A2.149,2.149,0,0,1,.013,39.3L0,2.143A2.145,2.145,0,0,1,2.15,0Z" transform="matrix(0.994, -0.105, 0.105, 0.994, 0, 6.51)" fill="#978c9d"/>
          <rect id="Rectangle_41" data-name="Rectangle 41" width="61.659" height="40.036" rx="3" transform="matrix(0.994, -0.105, 0.105, 0.994, 0.425, 7.369)" fill="#312c2c"/>
          <path id="Path_1768" data-name="Path 1768" d="M1.65.034,29.6,0c.513,0-2.042,40.053-27.937,40.045A1.649,1.649,0,0,1,.013,38.4L0,1.679A1.646,1.646,0,0,1,1.65.034Z" transform="matrix(0.994, -0.105, 0.105, 0.994, 0.422, 7.336)" fill="#504848"/>
          <g id="Ellipse_20" data-name="Ellipse 20" transform="translate(4.35 9.093)" fill="#5d5d5d" stroke="#000" stroke-width="0.5">
            <ellipse cx="1.863" cy="1.857" rx="1.863" ry="1.857" stroke="none"/>
            <ellipse cx="1.863" cy="1.857" rx="1.613" ry="1.607" fill="none"/>
          </g>
        </g>
        <g id="girl-right-hand" transform="translate(44.668 70.461)">
          <path id="Path_1663" data-name="Path 1663" d="M3364.635,2826.724s11.38,5.851,13.087,8.115,5.442,12.326,4.36,24.436-12.645,50.521-14.253,54.764-3.056,8.067-5.616,8.844-24.11-5.884-31.442-7.528a6.771,6.771,0,0,1-2.229-.742c-.352-.287.709-.657.493-1.854-.915-4.981,4-15.644,5.445-15.482,4.373.492,15.936.934,15.936.934s4.795-44.187,8.024-50.929S3364.635,2826.724,3364.635,2826.724Z" transform="translate(-3278.156 -2826.724)" fill="#ff7361"/>
          <path id="Path_1658" data-name="Path 1658" d="M3270.594,2892.114c1.479-.163,1.922-.8,4.9,1.188s13.956,9.549,14.214,10.725,2.557,4.848,3.891,5.486-5.653,11.932-7.263,12.485-11.868-2.088-12.875-3.066-14.445-6.421-14.46-7.254.289-3.157,3.831-1.771-4.531-2.6-4.332-3.161-1.753-4.343,3.161-2.719,13.833,4.859,13.833,4.859-6.125-5.111-7.046-5.683-7.905-3.792-7.42-5.111,1.186-2.521,4.757-.947,12.7,7.261,13.164,7.3.963-.206-1.6-3.468-7.406-5.211-7.524-5.846S3269.115,2892.278,3270.594,2892.114Z" transform="translate(-3258.28 -2845.221)" fill="#efc193"/>
          <path id="Path_1699" data-name="Path 1699" d="M3297.685,2956.629a2.611,2.611,0,0,0,.46,2.823,6.392,6.392,0,0,0,1.769-.811,12.391,12.391,0,0,0,1.8-1.558S3298.492,2955.228,3297.685,2956.629Z" transform="translate(-3247.883 -2871.426)" fill="#d06254"/>
          <path id="Path_1705" data-name="Path 1705" d="M.346.093C-.3,1.355.153,4.1.153,4.1S3.376,2.14,3.42,1.454.358-.328.346.093Z" transform="translate(55.946 70.33) rotate(39)" fill="#d06254"/>
          <path id="Path_1659" data-name="Path 1659" d="M3283.193,2925.3s2.224-.551,2.645-1.777.665-2.287,2.672-2.819,2.177-1.89,2.49-3.289,2.981-1.24,3.253-1.8-1.168-3.575-.528-4.509,2.812-1.481,3.485-.726,3.736,5.205,5.574,5.755c.978.292.111,4.1-1.993,7.39a18.251,18.251,0,0,1-4.561,4.507s-3.742-.542-7-1.224S3283.193,2925.3,3283.193,2925.3Z" transform="translate(-3265.334 -2850.397)" fill="#d1a06f"/>
          <path id="Path_1704" data-name="Path 1704" d="M3308.51,2943.3c4.923,2.035,12.66,4.658,17.029,5.258a2.233,2.233,0,0,1,.938.273c.5.27.52.71.712,1.632.743,3.43-2.955,12.4-5.686,12.672-3.449.349-21.914-9.287-21.914-9.287l6.06-12.072s-2.722-1.06,1.217.657C3306.938,2942.462,3308.18,2943.162,3308.51,2943.3Z" transform="translate(-3269.26 -2876.518)" fill="#d1a06f"/>
          <path id="Path_1660" data-name="Path 1660" d="M3265.953,2917.541s8.458,3.992,10.27,4.206-4.231-1.982-6.8-3.033a17.474,17.474,0,0,0-3.47-1.173Z" transform="translate(-3260.452 -2852.544)" fill="#d1a06f"/>
          <path id="Path_1661" data-name="Path 1661" d="M3285.539,2905.225l1.546,3.058s6.167,2.46,5.781,1.7S3285.539,2905.225,3285.539,2905.225Z" transform="translate(-3265.999 -2849.029)" fill="#d1a06f"/>
          <path id="Path_1707" data-name="Path 1707" d="M3348.906,2975.013s5.219-4.3,5.415-10.5" transform="translate(-3283.225 -2883.103)" fill="none" stroke="#ea6958" stroke-linecap="round" stroke-width="1"/>
          <path id="Path_1709" data-name="Path 1709" d="M3352.683,2950.47a18.925,18.925,0,0,1,1.239,1.655,6.7,6.7,0,0,1,1.1,2.412" transform="translate(-3284.295 -2879.808)" fill="none" stroke="#ea6958" stroke-linecap="round" stroke-width="1"/>
          <path id="Path_1844" data-name="Path 1844" d="M.281,0S.74,4.4.708,8.761c-.023,3-1.365,6.424-.269,6.884S3.158,12.784,2.77,9.171A41.381,41.381,0,0,0,.281,0Z" transform="matrix(0.891, -0.454, 0.454, 0.891, 71.447, 71.167)" fill="#ea6958"/>
          <path id="Path_2096" data-name="Path 2096" d="M.057,0A48.5,48.5,0,0,1,.564,6.983C.536,9.372-.7,11.175.607,11.543s2.88-1.351,2.418-4.232A25.238,25.238,0,0,0,.057,0Z" transform="translate(72.107 71.434) rotate(-47)" fill="#ea6958"/>
          <path id="Path_6423" data-name="Path 6423" d="M68.488,108.986s.567.116,1,.155a3.653,3.653,0,0,0,.727,0A8.434,8.434,0,0,0,71.75,107.6a18.187,18.187,0,0,0,2.4-4.426,17.041,17.041,0,0,0,1.25-4.509c-.008-.08.053-.5.053-.5s-1.126,3.32-2.213,5.867C71.418,108.447,68.488,108.986,68.488,108.986Z" transform="translate(-17.445 -22.478)" fill="#ba8e62"/>
        </g>
        <g id="girl-watch" transform="translate(79.849 137.94)">
          <path id="Path_1712" data-name="Path 1712" d="M3508.237,2928.546s1.9.244,1.277,3.132a34.633,34.633,0,0,1-1.277,4.6l2.749,1.635s1.486-5.753,1.209-7.375a1.235,1.235,0,0,0-.587-.965,8.565,8.565,0,0,0-3.012-1.023" transform="translate(-3502.517 -2928.546)" fill="#1a3e5d"/>
          <path id="Path_1713" data-name="Path 1713" d="M3500.358,2944.945s.135-.013.917,0a1.667,1.667,0,0,0,1.145-.416c.781-.755,2.837,1.481,2.837,1.481s.286.907-1.192.9S3500.358,2944.945,3500.358,2944.945Z" transform="translate(-3500.358 -2932.684)" fill="#1a3e5d"/>
          <ellipse id="Ellipse_21" data-name="Ellipse 21" cx="4.472" cy="3.714" rx="4.472" ry="3.714" transform="translate(1.119 6.619)" fill="#e5e5e5"/>
          <path id="Path_1714" data-name="Path 1714" d="M4.3,0c.285,0,.256.628.635.966C6.363,2.138,6.391,7.145,4.3,7.145c-2.375,0-4.3-1.6-4.3-3.573S1.926,0,4.3,0Z" transform="translate(1.177 7.135)" fill="#a3a3a3"/>
          <ellipse id="Ellipse_22" data-name="Ellipse 22" cx="3.943" cy="3.215" rx="3.943" ry="3.215" transform="translate(1.32 7.85)" fill="#2e2e2e"/>
        </g>
        <g id="girl-specs" transform="translate(89.356 31.426)">
          <path id="Path_1720" data-name="Path 1720" d="M3318.488,2798.263l12.691-2.317.258.731L3319.046,2800Z" transform="translate(-3318.488 -2795.947)"/>
          <path id="Path_1769" data-name="Path 1769" d="M42.411,13.033l2.809-.588" transform="translate(-41.503 -10.027)" fill="none" stroke="#fff" stroke-linecap="round" stroke-width="1"/>
        </g>
      </g>
      <path id="Path_6405" data-name="Path 6405" d="M428.937,2839.65s3.475,6.391,0,12.319-2.109,6.447,0,10.794,2.319,4.748,0,9.151,2.185,12.34,3.489,13.313-2.107-4.309,1.725-9.424,6.362-4.654,5.589-11.341-1.22-11.983,0-16.715S428.937,2839.65,428.937,2839.65Z" transform="translate(-196.056 -2755.42)"/>
      <path id="Path_6406" data-name="Path 6406" d="M440.946,2849.28s-3.655,8.264-2.647,11.929,2.518,6.433,1.441,9.124-3.884,8.951-3.1,14.316.886,7.033,1.662,6.726,1.353-5.2,2.647-8.157,4.475-4.291,5.413-10.271-.388-5.388,0-11.738S440.946,2849.28,440.946,2849.28Z" transform="translate(-197.779 -2763.096)"/>
      <path id="Path_6404" data-name="Path 6404" d="M386.723,2799.225a9.068,9.068,0,0,0,6.482,9.691c7.5,2.532,11.778,4.448,14,9.151s19.3,13.15,20.389,17.786-2.061,8.765,4.887,12.565c4.148,2.268,1.656,9.472,1.2,15.515-.281,3.708.561,4.065,1.22,6.019,1.044,3.093,1.844-1.715,5.593-8.24,1.057-1.84,4.9-4.874,4.9-4.874s.364-.479,1.35-.223c.279.193.656.346,1.241.682.51.286,1.286.736,1.286.736.681-2.549.818-9.735-3.207-14.244s-8.04-10.3-8.732-14.024.575-7-1.365-14.517-3.575-6.151-7.24-13.414-1.806-13.742-12.294-16.753-18.734-1.6-22.646.864S386.723,2799.225,386.723,2799.225Z" transform="translate(-182.852 -2740.209)"/>
      <path id="Path_6407" data-name="Path 6407" d="M448.323,2862.345s-5.459,9.366-3.585,13.466.686,7.619,1.041,11.489,2.889,10.024,3.249,6.314a42.545,42.545,0,0,1,3.406-12.509c1.645-3.39,4.8-6.642,3.827-10.313S448.323,2862.345,448.323,2862.345Z" transform="translate(-202.758 -2759.769)"/>
      <path id="Path_6409" data-name="Path 6409" d="M390.887,2798.811s-4.1,2.285-4.281,5.682.41,4.861.283,6.455a7.53,7.53,0,0,1-1.126,3.093,23.7,23.7,0,0,0-.55-5.635c-.659-2.724-1.381-6.832-.754-8.288S390.887,2798.811,390.887,2798.811Z" transform="translate(-182.971 -2741.204)"/>
      <path id="Path_6416" data-name="Path 6416" d="M16.534,2.107s-11.589,3.4-11.775,6.8-2.654,6.341-3,8.151,0,8.532-.418,7.9S.027,21.612,0,17.369A20.866,20.866,0,0,1,2.1,9.692C4.2,5.715,8.5,1.561,10.351.55,12.961-1.3,16.534,2.107,16.534,2.107Z" transform="translate(196.841 47.877) rotate(-2)"/>
      <g id="Group_683" data-name="Group 683" transform="translate(196.062 55.357)">
        <path id="Path_6412" data-name="Path 6412" d="M6210.712,609.387a6.162,6.162,0,0,1,0,8.167c-1.844,1.816-5.1,1.433-7.375-.9s-3.57-6.631-1.727-8.446S6208.437,607.049,6210.712,609.387Z" transform="translate(-6187.712 -587.625)" fill="rgba(98,85,72,0.31)" stroke="#000" stroke-width="1"/>
        <path id="Path_6413" data-name="Path 6413" d="M6209.727,609.387a6.677,6.677,0,0,1,0,8.167c-1.662,1.816-4.6,1.433-6.646-.9s-3.218-6.631-1.556-8.446S6207.676,607.049,6209.727,609.387Z" transform="translate(-6200.734 -589.111)" fill="rgba(98,85,72,0.31)" stroke="#000" stroke-width="1"/>
        <path id="Path_6414" data-name="Path 6414" d="M6191.237,596.27c.173-2.322.914-4.113,3.08-7.28s4.969-5.366,4.027-5.366-6.826,2.052-6.826,2.052l-1.776,10.286S6191.065,598.592,6191.237,596.27Z" transform="translate(-6186.403 -583.624)"/>
        <path id="Path_6417" data-name="Path 6417" d="M6199.2,615.685l2.513.264" transform="translate(-6188.812 -591.867)" fill="none" stroke="#000" stroke-width="1"/>
        <path id="Path_6422" data-name="Path 6422" d="M6233.387,621.439c-.434.194-4.386-4.864-5.546-7.5s-.666-3.973,1.194-1.02S6233.821,621.246,6233.387,621.439Z" transform="translate(-6195.948 -590.726)" fill="#efc193"/>
      </g>
      <path id="Path_9289" data-name="Path 9289" d="M107.3,24.345s-2.373.847-2.479,2.692a64.462,64.462,0,0,0,.662,7.334l-2,5.368,1.336,9.295,8.951-6.891Z" fill="#bc907b"/>
      <path id="Path_9290" data-name="Path 9290" d="M99.434,43.6,104,45.988l32.727,8.447s-2.9,13.695-4.361,15.211-3.359,5.351-6,5.471a17.591,17.591,0,0,1-6.955-1.175c-1.1-.565-15.8-11.4-17.055-14.045a29.279,29.279,0,0,1-2.93-8.026,27.921,27.921,0,0,1,.008-8.276Z" fill="#bc907b"/>
    </g>
  </g>
</svg>
