<svg xmlns="http://www.w3.org/2000/svg" xmlns:xlink="http://www.w3.org/1999/xlink" width="714" height="628.349" viewBox="0 0 714 628.349">
  <defs>
    <filter id="Path_9224" x="0" y="0" width="703" height="504" filterUnits="userSpaceOnUse">
      <feOffset dy="4" input="SourceAlpha"/>
      <feGaussianBlur stdDeviation="15" result="blur"/>
      <feFlood flood-opacity="0.078"/>
      <feComposite operator="in" in2="blur"/>
      <feComposite in="SourceGraphic"/>
    </filter>
    <filter id="Path_9224-2" x="102" y="224.025" width="547.271" height="404.324" filterUnits="userSpaceOnUse">
      <feOffset dy="4" input="SourceAlpha"/>
      <feGaussianBlur stdDeviation="15" result="blur-2"/>
      <feFlood flood-opacity="0.078"/>
      <feComposite operator="in" in2="blur-2"/>
      <feComposite in="SourceGraphic"/>
    </filter>
    <clipPath id="clip-path">
      <rect id="Rectangle_366" data-name="Rectangle 366" width="244" height="138.826"/>
    </clipPath>
  </defs>
  <g id="low-fidelity" transform="translate(16.831 41)">
    <path id="Path_8300" data-name="Path 8300" d="M121.145,578.569c-27.806-27.681-43.993-54.113-22.152-90.094,16.094-26.49,44.806-31.795,70.246-29.124s51.109,11.242,76.174,4.782c46.1-11.91,76.464-70.158,98-125.971s308.379-90.041,349.176-55.106,80.058,64.367,80.71,129.166c4.4,86.114-80.71,166.348-80.71,166.348H209.905" transform="translate(-88.841 -49.149)" fill="#8ac4f7"/>
    <path id="Path_9225" data-name="Path 9225" d="M119.242,631.354C93.074,598.955,77.84,568.017,98.4,525.9c15.147-31.006,42.167-37.215,66.109-34.089s48.1,13.158,71.688,5.6c43.383-13.94,71.961-82.118,92.232-147.445s290.219-105.391,328.613-64.5,75.343,75.34,75.957,151.185c4.144,100.794-75.957,194.706-75.957,194.706H202.776" transform="translate(-54.678 -101.934)" fill="#69b4e6" opacity="0.751"/>
    <path id="Path_9222" data-name="Path 9222" d="M-599.661,864.833c5.638-.322,73.3,7.183,49.293,10.322s-60.854,5.08-49.293,6.4,93.223,8.279-143.329,8.27-465.562-.326-460.5-4.958c3.4-4.057,60.616-5.849,59.773-8.352-1.322-3.846-62.157-6.091-40.142-8.59,5.63-.639,40.867.572,69.734,0C-970.995,865.092-599.661,864.833-599.661,864.833Z" transform="translate(1211.159 -338.976)" fill="#aa976f"/>
    <path id="Path_9227" data-name="Path 9227" d="M25.169,2.11,49.475,79.352a2.979,2.979,0,0,1-2.894,3.787L3.226,84.446A3,3,0,0,1,.08,80.838L19.129,2.292A3.175,3.175,0,0,1,25.169,2.11Z" transform="matrix(1, 0.017, -0.017, 1, 83.11, 450.66)" fill="#88bf4a"/>
    <g id="prototype1" transform="translate(28.169)">
      <path id="Path_9226" data-name="Path 9226" d="M20.072,1.782,39.455,67.041a2.491,2.491,0,0,1-2.308,3.2l-34.574,1.1A2.491,2.491,0,0,1,.064,68.3L15.255,1.937A2.491,2.491,0,0,1,20.072,1.782Z" transform="matrix(1, 0.017, -0.017, 1, 74.755, 464.109)" fill="#71904e"/>
      <g transform="matrix(1, 0, 0, 1, -45, -41)" filter="url(#Path_9224)">
        <path id="Path_9224-3" data-name="Path 9224" d="M10,0H603a10,10,0,0,1,10,10V404a10,10,0,0,1-10,10H10A10,10,0,0,1,0,404V10A10,10,0,0,1,10,0Z" transform="translate(45 41)" fill="#101010"/>
      </g>
      <path id="Rectangle_617" data-name="Rectangle 617" d="M0,0H613a0,0,0,0,1,0,0V280a10,10,0,0,1-10,10H10A10,10,0,0,1,0,280V0A0,0,0,0,1,0,0Z" transform="translate(0 123.66)" fill="#fff"/>
      <rect id="Rectangle_618" data-name="Rectangle 618" width="44" height="19" transform="translate(19 13.66)" fill="#b9b9b9"/>
      <text id="Technology_university" data-name="Technology university" transform="translate(100 82.66)" fill="#fff" font-size="18" font-family="Lato-Regular, Lato" letter-spacing="-0.025em"><tspan x="-81.369" y="0">Technology university</tspan></text>
      <text id="Home_Applications_Students" data-name="Home      /     Applications       /        Students" transform="translate(85 49.66)" fill="#fff" font-size="8" font-family="Lato-Regular, Lato" letter-spacing="-0.025em"><tspan x="-65.984" y="0" xml:space="preserve">Home      /     Applications       /        Students</tspan></text>
      <text id="Username_Logout" data-name="Username      |    Logout" transform="translate(558 26.66)" fill="#fff" font-size="8" font-family="Lato-Regular, Lato" letter-spacing="-0.025em"><tspan x="-36.708" y="0" xml:space="preserve">Username      |    Logout</tspan></text>
      <path id="Path_9218" data-name="Path 9218" d="M9252.938,1400.027l-43.756,18.391" transform="translate(-9190.083 -1386.012)" fill="none" stroke="#909090" stroke-width="1"/>
      <path id="Path_9219" data-name="Path 9219" d="M9209.182,1400.027l43.757,18.391" transform="translate(-9190.083 -1386.012)" fill="none" stroke="#909090" stroke-width="1"/>
      <rect id="Rectangle_619" data-name="Rectangle 619" width="61" height="20" rx="3" transform="translate(535 89.66)" fill="#444"/>
      <rect id="Rectangle_620" data-name="Rectangle 620" width="84" height="20" rx="3" transform="translate(441 89.66)" fill="#444"/>
      <text id="Add_new_student" data-name="Add new student" transform="translate(483 102.66)" fill="#fff" font-size="8" font-family="Lato-Regular, Lato" letter-spacing="-0.025em"><tspan x="-28.22" y="0">Add new student</tspan></text>
      <text id="Bulk_Upload" data-name="Bulk Upload" transform="translate(566 102.66)" fill="#fff" font-size="8" font-family="Lato-Regular, Lato" letter-spacing="-0.025em"><tspan x="-20.344" y="0">Bulk Upload</tspan></text>
      <text id="Certification_Course_ID_Start_Date_End_Date" data-name="Certification              Course ID             Start Date             End Date" transform="translate(116 101.66)" fill="#fff" font-size="8" font-family="Lato-Regular, Lato" letter-spacing="-0.025em"><tspan x="-97.156" y="0" xml:space="preserve">Certification              Course ID             Start Date             End Date</tspan></text>
      <path id="Icon_awesome-user-circle" data-name="Icon awesome-user-circle" d="M4.614.563A4.614,4.614,0,1,0,9.229,5.177,4.614,4.614,0,0,0,4.614.563Zm0,1.786A1.637,1.637,0,1,1,2.977,3.986,1.637,1.637,0,0,1,4.614,2.349Zm0,6.4A3.566,3.566,0,0,1,1.889,7.48,2.075,2.075,0,0,1,3.721,6.368a.455.455,0,0,1,.132.02,2.464,2.464,0,0,0,.761.128,2.454,2.454,0,0,0,.761-.128.455.455,0,0,1,.132-.02A2.075,2.075,0,0,1,7.34,7.48,3.566,3.566,0,0,1,4.614,8.749Z" transform="translate(508 19.084)" fill="#b9b9b9"/>
      <g id="Rectangle_621" data-name="Rectangle 621" transform="translate(18 134.66)" fill="#fff" stroke="#ccc" stroke-width="1">
        <rect width="301" height="26" rx="4" stroke="none"/>
        <rect x="0.5" y="0.5" width="300" height="25" rx="3.5" fill="none"/>
      </g>
      <text id="Search_students.." data-name="Search students.." transform="translate(57 149.66)" fill="#9b9b9b" font-size="8" font-family="Lato-Regular, Lato" letter-spacing="-0.025em"><tspan x="-28.052" y="0">Search students..</tspan></text>
      <g id="Rectangle_622" data-name="Rectangle 622" transform="translate(543 134.66)" fill="#fff" stroke="#d3d3d3" stroke-width="1">
        <rect width="53" height="26" rx="4" stroke="none"/>
        <rect x="0.5" y="0.5" width="52" height="25" rx="3.5" fill="none"/>
      </g>
      <text id="Status" transform="translate(563 149.66)" fill="#9b9b9b" font-size="8" font-family="Lato-Regular, Lato" letter-spacing="-0.025em"><tspan x="-10.592" y="0">Status</tspan></text>
      <path id="Icon_ionic-ios-arrow-down" data-name="Icon ionic-ios-arrow-down" d="M9.6,13.969l2.577-2.579a.485.485,0,0,1,.688,0,.491.491,0,0,1,0,.69L9.942,15a.486.486,0,0,1-.672.014L6.33,12.082a.487.487,0,1,1,.688-.69Z" transform="translate(575.274 134.608)" fill="#a2a2a2"/>
      <text id="First_Name_Last_Name_Organization_type_Organization_name_Status" data-name="First Name                          Last Name                             Organization type                     Organization name                             Status" transform="translate(225 186.66)" fill="#666" font-size="8" font-family="Lato-Medium, Lato" font-weight="500" letter-spacing="-0.025em"><tspan x="-203.812" y="0" xml:space="preserve">First Name                          Last Name                             Organization type                     Organization name                             Status</tspan></text>
      <line id="Line_85" data-name="Line 85" x2="573" transform="translate(22.5 195.5)" fill="none" stroke="#b9b9b9" stroke-width="1" opacity="0.515"/>
      <text id="Madison_Kelly_High_School_ABC_Elementary_New_" data-name="Madison                                        Kelly                                                     High School                                            ABC Elementary                                               New             " transform="translate(21 212.66)" fill="#666" font-size="8" font-family="Lato-Regular, Lato" letter-spacing="-0.025em"><tspan x="0" y="0" xml:space="preserve">Madison                                        Kelly                                                     High School                                            ABC Elementary                                               New             </tspan></text>
      <line id="Line_86" data-name="Line 86" x2="573" transform="translate(22.5 225.5)" fill="none" stroke="#b9b9b9" stroke-width="1" opacity="0.515"/>
      <text id="Paul_Razer_High_School_GYX_Academy_Approved" data-name="Paul                                                   Razer                                                   High School                                           GYX Academy                                                     Approved" transform="translate(21 242.66)" fill="#666" font-size="8" font-family="Lato-Regular, Lato" letter-spacing="-0.025em"><tspan x="0" y="0" xml:space="preserve">Paul                                                   Razer                                                   High School                                           GYX Academy                                                     Approved</tspan></text>
      <line id="Line_87" data-name="Line 87" x2="573" transform="translate(22.5 255.5)" fill="none" stroke="#b9b9b9" stroke-width="1" opacity="0.515"/>
      <text id="John" transform="translate(21 272.66)" fill="#666" font-size="8" font-family="Lato-Regular, Lato" letter-spacing="-0.025em"><tspan x="0" y="0">John</tspan></text>
      <line id="Line_88" data-name="Line 88" x2="573" transform="translate(22.5 285.5)" fill="none" stroke="#b9b9b9" stroke-width="1" opacity="0.515"/>
      <text id="Mary" transform="translate(21 302.66)" fill="#666" font-size="8" font-family="Lato-Regular, Lato" letter-spacing="-0.025em"><tspan x="0" y="0">Mary</tspan></text>
      <line id="Line_89" data-name="Line 89" x2="573" transform="translate(22.5 315.5)" fill="none" stroke="#b9b9b9" stroke-width="1" opacity="0.515"/>
      <text id="Scarlette" transform="translate(21 332.66)" fill="#666" font-size="8" font-family="Lato-Regular, Lato" letter-spacing="-0.025em"><tspan x="0" y="0">Scarlette</tspan></text>
      <line id="Line_90" data-name="Line 90" x2="573" transform="translate(22.5 345.5)" fill="none" stroke="#b9b9b9" stroke-width="1" opacity="0.515"/>
      <g id="Icon_feather-edit-3" data-name="Icon feather-edit-3" transform="translate(570 206.509)">
        <path id="Path_9220" data-name="Path 9220" d="M18,30h4.3" transform="translate(-13.704 -21.827)" fill="none" stroke="#909090" stroke-linecap="round" stroke-linejoin="round" stroke-width="1"/>
        <path id="Path_9221" data-name="Path 9221" d="M10.945,4.615a1.013,1.013,0,1,1,1.432,1.432L6.41,12.014l-1.91.477.477-1.91Z" transform="translate(-4.5 -4.318)" fill="none" stroke="#909090" stroke-linecap="round" stroke-linejoin="round" stroke-width="1"/>
      </g>
      <g id="Icon_feather-edit-3-2" data-name="Icon feather-edit-3" transform="translate(570 236.509)">
        <path id="Path_9220-2" data-name="Path 9220" d="M18,30h4.3" transform="translate(-13.704 -21.827)" fill="none" stroke="#909090" stroke-linecap="round" stroke-linejoin="round" stroke-width="1"/>
        <path id="Path_9221-2" data-name="Path 9221" d="M10.945,4.615a1.013,1.013,0,1,1,1.432,1.432L6.41,12.014l-1.91.477.477-1.91Z" transform="translate(-4.5 -4.318)" fill="none" stroke="#909090" stroke-linecap="round" stroke-linejoin="round" stroke-width="1"/>
      </g>
    </g>
    <g id="prototype1-2" data-name="prototype1" transform="translate(130.169 224.025)">
      <g transform="matrix(1, 0, 0, 1, -147, -265.03)" filter="url(#Path_9224-2)">
        <path id="Path_9224-4" data-name="Path 9224" d="M7.46,0H449.812a7.527,7.527,0,0,1,7.46,7.592V306.732a7.527,7.527,0,0,1-7.46,7.592H7.46A7.527,7.527,0,0,1,0,306.732V7.592A7.527,7.527,0,0,1,7.46,0Z" transform="translate(147 265.03)" fill="#fff"/>
      </g>
      <rect id="Rectangle_618-2" data-name="Rectangle 618" width="33" height="16" transform="translate(14 11.635)" fill="#b9b9b9"/>
      <text id="Madison_Kelly" data-name="Madison Kelly" transform="translate(46 66.635)" fill="#666" font-size="11" font-family="Lato-Regular, Lato" letter-spacing="-0.025em"><tspan x="-32.406" y="0">Madison Kelly</tspan></text>
      <text id="Home_Applications_Students_Profile" data-name="Home      /     Applications       /        Students        /      Profile" transform="translate(14 40.635)" fill="#666" font-size="5" font-family="Lato-Regular, Lato" letter-spacing="-0.025em"><tspan x="0" y="0" xml:space="preserve">Home      /     Applications       /        Students        /      Profile</tspan></text>
      <path id="Path_9218-2" data-name="Path 9218" d="M9241.821,1400.027l-32.64,15.83" transform="translate(-9194.935 -1387.964)" fill="none" stroke="#fff" stroke-width="1"/>
      <path id="Path_9219-2" data-name="Path 9219" d="M9209.182,1400.027l32.641,15.83" transform="translate(-9194.935 -1387.964)" fill="none" stroke="#fff" stroke-width="1"/>
      <text id="Certification_Course_ID_Start_Date_End_Date-2" data-name="Certification              Course ID             Start Date             End Date" transform="translate(63 74.635)" fill="#fff" font-size="4" font-family="Lato-Regular, Lato" letter-spacing="-0.025em"><tspan x="-48.578" y="0" xml:space="preserve">Certification              Course ID             Start Date             End Date</tspan></text>
      <text id="Role:_Director_of_Innovation" data-name="Role:     Director of Innovation" transform="translate(27 86.635)" fill="#666" font-size="7" font-family="Lato-Medium, Lato" font-weight="500" letter-spacing="-0.025em"><tspan x="0" y="0" xml:space="preserve">Role:     Director of Innovation</tspan></text>
      <line id="Line_85-2" data-name="Line 85" x2="457" transform="translate(0.5 101.475)" fill="none" stroke="#b9b9b9" stroke-width="0.5" opacity="0.515"/>
      <text id="Username_Logout-2" data-name="Username      |    Logout" transform="translate(412 21.635)" fill="#868686" font-size="7" font-family="Lato-Regular, Lato" letter-spacing="-0.025em"><tspan x="-32.119" y="0" xml:space="preserve">Username      |    Logout</tspan></text>
      <path id="Icon_awesome-user-circle-2" data-name="Icon awesome-user-circle" d="M4.5.563A4.5,4.5,0,1,0,9,5.063,4.5,4.5,0,0,0,4.5.563ZM4.5,2.3A1.6,1.6,0,1,1,2.9,3.9,1.6,1.6,0,0,1,4.5,2.3Zm0,6.242A3.477,3.477,0,0,1,1.842,7.309,2.023,2.023,0,0,1,3.629,6.224a.444.444,0,0,1,.129.02,2.4,2.4,0,0,0,.742.125,2.393,2.393,0,0,0,.742-.125.444.444,0,0,1,.129-.02A2.023,2.023,0,0,1,7.158,7.309,3.477,3.477,0,0,1,4.5,8.546Z" transform="translate(365 15.084)" fill="#b9b9b9"/>
      <text id="Organization:_ABC_Elementary" data-name="Organization:   ABC Elementary" transform="translate(161 86.635)" fill="#666" font-size="7" font-family="Lato-Medium, Lato" font-weight="500" letter-spacing="-0.025em"><tspan x="0" y="0" xml:space="preserve">Organization:   ABC Elementary</tspan></text>
      <path id="Icon_awesome-university" data-name="Icon awesome-university" d="M10.125,4.179V4.5a.156.156,0,0,1-.15.161h-.45V4.9a.233.233,0,0,1-.225.241H1.95A.233.233,0,0,1,1.725,4.9V4.661h-.45a.156.156,0,0,1-.15-.161V4.179a.161.161,0,0,1,.093-.148l4.35-1.768a.141.141,0,0,1,.115,0l4.35,1.768A.161.161,0,0,1,10.125,4.179Zm-.45,6.107h-8.1a.467.467,0,0,0-.45.482v.321a.156.156,0,0,0,.15.161h8.7a.156.156,0,0,0,.15-.161v-.321A.467.467,0,0,0,9.675,10.286ZM2.625,5.464V9.321H1.95a.233.233,0,0,0-.225.241v.4h7.8v-.4A.233.233,0,0,0,9.3,9.321H8.625V5.464h-1.2V9.321h-1.2V5.464h-1.2V9.321h-1.2V5.464Z" transform="translate(148 77.725)" fill="#777474"/>
      <path id="Icon_awesome-user" data-name="Icon awesome-user" d="M4,4.571A2.286,2.286,0,1,0,1.714,2.286,2.286,2.286,0,0,0,4,4.571Zm1.6.571H5.3a3.108,3.108,0,0,1-2.6,0H2.4A2.4,2.4,0,0,0,0,7.543v.743a.857.857,0,0,0,.857.857H7.143A.857.857,0,0,0,8,8.286V7.543A2.4,2.4,0,0,0,5.6,5.143Z" transform="translate(14.175 78.975)" fill="#777474"/>
      <g id="Rectangle_623" data-name="Rectangle 623" transform="translate(14 111.635)" fill="#fff" stroke="#ccc" stroke-width="0.5">
        <rect width="427" height="183" rx="4" stroke="none"/>
        <rect x="0.25" y="0.25" width="426.5" height="182.5" rx="3.75" fill="none"/>
      </g>
      <text id="Profile_Information" data-name="Profile Information" transform="translate(27 127.635)" fill="#777474" font-size="7" font-family="Lato-Bold, Lato" font-weight="700" letter-spacing="-0.025em"><tspan x="0" y="0">Profile Information</tspan></text>
      <line id="Line_91" data-name="Line 91" x2="427" transform="translate(14.5 137.475)" fill="none" stroke="#b9b9b9" stroke-width="0.5" opacity="0.515"/>
      <line id="Line_92" data-name="Line 92" x2="427" transform="translate(14.5 238.475)" fill="none" stroke="#b9b9b9" stroke-width="0.5" opacity="0.515"/>
      <text id="Upcoming_Meetings" data-name="Upcoming Meetings" transform="translate(27 152.635)" fill="#777474" font-size="7" font-family="Lato-Medium, Lato" font-weight="500" letter-spacing="-0.025em"><tspan x="0" y="0">Upcoming Meetings</tspan></text>
      <text id="Enrollments" transform="translate(107 127.635)" fill="#777474" font-size="7" font-family="Lato-Medium, Lato" font-weight="500" letter-spacing="-0.025em"><tspan x="0" y="0">Enrollments</tspan></text>
      <text id="Contacts" transform="translate(167 127.635)" fill="#777474" font-size="7" font-family="Lato-Medium, Lato" font-weight="500" letter-spacing="-0.025em"><tspan x="0" y="0">Contacts</tspan></text>
      <text id="Meetings" transform="translate(220 127.635)" fill="#777474" font-size="7" font-family="Lato-Medium, Lato" font-weight="500" letter-spacing="-0.025em"><tspan x="0" y="0">Meetings</tspan></text>
    </g>
    <g id="camp" transform="translate(453.169 414.334)">
      <g id="Group_985" data-name="Group 985" transform="translate(0)">
        <g id="Group_2125" data-name="Group 2125" transform="translate(122.439 36.766)">
          <path id="Path_8302" data-name="Path 8302" d="M267.728,204.981,292.1,287.02a2.6,2.6,0,0,1-2.405,3.334l-43.467,1.384a2.6,2.6,0,0,1-2.614-3.173l19.1-83.422A2.6,2.6,0,0,1,267.728,204.981Z" transform="translate(-224.545 -203.125)" fill="#91b76d"/>
          <path id="Path_9228" data-name="Path 9228" d="M265,204.772l21.618,72.774a2.3,2.3,0,0,1-2.134,2.958l-38.558,1.227a2.3,2.3,0,0,1-2.319-2.815l16.94-74A2.3,2.3,0,0,1,265,204.772Z" transform="translate(-243.545 -193.118)" fill="#91b76d"/>
        </g>
        <g id="Group_2126" data-name="Group 2126" transform="translate(165.173 61.186)">
          <path id="Path_8303" data-name="Path 8303" d="M481.337,295.531l18.6,62.608a2.6,2.6,0,0,1-2.405,3.334l-33.174,1.058a2.6,2.6,0,0,1-2.614-3.173l14.576-63.666A2.6,2.6,0,0,1,481.337,295.531Z" transform="translate(-461.675 -293.675)" fill="#91b76d"/>
        </g>
        <g id="Group_2127" data-name="Group 2127" transform="translate(175.856 61.129)">
          <path id="Path_8304" data-name="Path 8304" d="M507.9,253.121l18.6,62.608c.483,1.633-.991,4.34-2.693,4.392H490.916a2.6,2.6,0,0,1-2.614-3.173l14.576-63.666A2.6,2.6,0,0,1,507.9,253.121Z" transform="translate(-488.235 -251.265)" fill="#71904e"/>
        </g>
        <g id="Group_2128" data-name="Group 2128" transform="translate(15.006 128.617)">
          <path id="Path_9223" data-name="Path 9223" d="M0,16.559Z" transform="translate(0 -13.919)" fill="#80a15e"/>
        </g>
        <g id="Group_975" data-name="Group 975" transform="translate(0 0)" clip-path="url(#clip-path)">
          <path id="Path_8305" data-name="Path 8305" d="M152.48,359.207s.768-6.049,6.649-5.1c-2.811-9.026,11.069-7.984,8.7,0,4.859-4.167,6.906-2.482,6.906-2.482s-7.159-12.022,3.322-16.953c-.511-8.861,15.855-9.022,15.087,1.46,8.181-6.138,12.529,1.022,12.529,1.022s11.487-10.317,19.551,1.874-4.629,19.234-4.629,19.234Z" transform="translate(-111.668 -234.092)" fill="#c1d55b"/>
        </g>
        <g id="Group_2129" data-name="Group 2129" transform="translate(176.452 91.482)">
          <path id="Path_8306" data-name="Path 8306" d="M495.279,333.914s4.6-7.143,9.207-5.611c.664-7.722,9.717-5.156,9.717-5.156s-2.047-10.924,5.627-11.322,13.273,10.578,8.929,21.027c4.879.563,4.348,7.98,4.348,7.98s7.1,1.913,4.409,9.153c-32.86,0-49.4-.538-49.4-.538S483.515,337.477,495.279,333.914Z" transform="translate(-487.232 -311.814)" fill="#c1d55b"/>
        </g>
        <g id="Group_2130" data-name="Group 2130" transform="translate(176.063 104.019)">
          <path id="Path_8307" data-name="Path 8307" d="M500.33,362.861s8.788-5.518,11.153-2.441c-3.049-5.8,4.175-9.886,8.032-5.9,4.074-5.321,10.136,5.824,7.107,12.666,6.061-1.1,1.112,11.425,1.112,11.425H513.172l-24.144-4.326S485.947,361.8,500.33,362.861Z" transform="translate(-488.751 -352.931)" fill="#aeb864"/>
        </g>
        <g id="Group_2131" data-name="Group 2131" transform="translate(71.758 104.019)">
          <path id="Path_8308" data-name="Path 8308" d="M236.32,362.861s8.788-5.518,11.153-2.441c-3.049-5.8,4.175-9.886,8.032-5.9,4.074-5.321,10.136,5.824,7.107,12.666,6.061-1.1,6.5,7.1,6.5,7.1h-41.3S221.937,361.8,236.32,362.861Z" transform="translate(-226.622 -352.931)" fill="#aeb864"/>
        </g>
        <g id="Group_979" data-name="Group 979" transform="translate(0 0)" clip-path="url(#clip-path)">
          <path id="Path_8309" data-name="Path 8309" d="M461.384,333.682a.171.171,0,0,1-.125-.056l-46.552-54.9-47.163,54.9a.163.163,0,0,1-.245-.213l47.288-55.046a.165.165,0,0,1,.125-.056h0a.165.165,0,0,1,.125.056l46.672,55.046a.164.164,0,0,1-.02.229A.142.142,0,0,1,461.384,333.682Z" transform="translate(-240.061 -204.304)" stroke="#010202" stroke-miterlimit="10" stroke-width="2"/>
        </g>
        <g id="Group_2132" data-name="Group 2132" transform="translate(110.024 74.167)">
          <path id="Path_8310" data-name="Path 8310" d="M420.367,334.34c-12.482,0-27.484-.148-39.843,0-11.952.144-20.94,0-20.94,0a52.263,52.263,0,0,1-12.979-7.7c-9.7-8.326-22.825-24.072-22.009-47.927h64.51s2.176,9.713,9.963,23.939C403.8,311.3,410.7,323.513,420.367,334.34Z" transform="translate(-324.56 -278.71)" fill="#f7c426"/>
        </g>
        <g id="Group_2133" data-name="Group 2133" transform="translate(76.709 74.167)">
          <path id="Path_8311" data-name="Path 8311" d="M241.73,333.756s26.433-23.537,33.351-55.046C282,311.715,310.133,334.4,310.133,334.4Z" transform="translate(-241.73 -278.71)" fill="#f7c426"/>
        </g>
        <g id="Group_2134" data-name="Group 2134" transform="translate(83.41 74.167)">
          <path id="Path_8312" data-name="Path 8312" d="M258.39,333.756s25.991-23.839,26.514-55.046c2.293,31.622,25.435,55.657,25.435,55.657Z" transform="translate(-258.39 -278.71)" fill="#e86b75"/>
        </g>
        <g id="Group_2135" data-name="Group 2135" transform="translate(105.643 74.167)">
          <path id="Path_8313" data-name="Path 8313" d="M318.972,278.71l7.341,55.394H314.691a135.945,135.945,0,0,0,2.563-18.938C317.681,306.189,318.972,278.71,318.972,278.71Z" transform="translate(-314.691 -278.71)" fill="#010203"/>
        </g>
        <g id="Group_984" data-name="Group 984" transform="translate(0 0)" clip-path="url(#clip-path)">
          <path id="Path_8314" data-name="Path 8314" d="M300.464,333.682a.171.171,0,0,1-.125-.056l-46.552-54.9-47.163,54.9a.163.163,0,1,1-.245-.213l47.284-55.046a.165.165,0,0,1,.125-.056h0a.165.165,0,0,1,.125.056l46.672,55.046a.164.164,0,0,1-.02.229A.14.14,0,0,1,300.464,333.682Z" transform="translate(-143.864 -204.304)" stroke="#010202" stroke-miterlimit="10" stroke-width="2"/>
        </g>
      </g>
    </g>
  </g>
</svg>
