<svg xmlns="http://www.w3.org/2000/svg" xmlns:xlink="http://www.w3.org/1999/xlink" width="727.47" height="181.4" viewBox="0 0 727.47 181.4">
  <defs>
    <clipPath id="clip-Custom_Size_1">
      <rect width="727.47" height="181.4"/>
    </clipPath>
  </defs>
  <g id="Custom_Size_1" data-name="Custom Size – 1" clip-path="url(#clip-Custom_Size_1)">
    <g id="SF" transform="translate(0 -14)">
      <path id="Path_8294" data-name="Path 8294" d="M95.076,96.087c19.7-9.545,64.649-24.608,74.01-24.947s77.543,18.064,79.742,18.222,64.27-16.8,74.784-18.222S433.1,109.183,433.1,109.183l86.977-13.1,62.164,35.445v37.5L433.1,131.533,28.278,141.7l-90.483-18.986S12.9,86.639,38.972,89.363C53.579,92.373,80.863,102.469,95.076,96.087Z" transform="translate(147.234 3.143)" fill="#b3d3e6"/>
      <path id="Path_8295" data-name="Path 8295" d="M190.6,119.518,88.846,98.719s-46.38-4.6-91.922,20.8c-.406-.349,0,50.265,0,50.265H190.6Z" transform="translate(0 14)" fill="#789fad"/>
      <g id="left-lawn1" transform="translate(174 100.808)">
        <path id="Path_7676" data-name="Path 7676" d="M11.448,663.354l181.415,17.136h41.072l210.75,40.718,18.391,5.986-137.843,5.684L-136.7,752.789Z" transform="translate(93.163 -671.085)" fill="#789fad"/>
        <path id="Path_7856" data-name="Path 7856" d="M336.526,682.791s14.662,7.781,8.73,11.071-47.193-2.854-47.193-2.854-46.7-4.441-91.074,0-50.655,6.86-92.934,16.6a683.439,683.439,0,0,0-76.183,22.367l-56.8,23.889L-77.47,736.831,9.745,696.706s69.087-36.137,114.25-31.5l171.161,17.583Z" transform="translate(-9.745 -673.368)" fill="#8cb3c1"/>
      </g>
      <g id="white-plants" transform="translate(72.963 103.229)">
        <path id="Path_8153" data-name="Path 8153" d="M30.952,13.652s-4.6-6.612-6-8.266S23.79,4.043,23.4,3.595s-1.982,1.083-1.982,1.083l.563-2.725L18.534,0l-.466,9.374,5.046.916-4.006,1.229s-.66,3.96-.3,3.96H23.4l-2.949,1.848V20.81s-8.811-5.213-11.669-6.4S6.8,13.653,6.8,13.653A22.9,22.9,0,0,1,3.749,14.79c.039-.179.979-1.993.979-1.993a44.449,44.449,0,0,0-4.52-.774c-1.158-.044,2.918,7.563,2.918,7.563l2.7-.689L3.749,21.856,6.271,25.89l3.678-.949L7.621,28.124S30.952,39.266,30.952,13.652Z" transform="translate(458.465 24.881) rotate(49)" fill="#1e3f53"/>
        <path id="Path_8154" data-name="Path 8154" d="M11.146,12.151,10.2,8.943l-1.376.235,1.121-.985L9.529,7.187H8.3l.526-.919a7.943,7.943,0,0,0-2.86-3.454A27.767,27.767,0,0,0,0,0L2.944,6.268H4.763L3.979,7.533l.785.66,1.5-.283L5.25,8.943Z" transform="matrix(0.799, 0.602, -0.602, 0.799, 455.53, 34.745)" fill="#1e3f53"/>
        <path id="Path_8155" data-name="Path 8155" d="M11.094,1.71.229,11.235s11.214-7.352,10.757-6.6S0,17.4,0,17.4,11.572,7.233,11.46,8.038a61.572,61.572,0,0,1-2.717,5.975l5.822-6.076-.819,11.55S19.014,8.671,19.1,8.892s.7,2.626.7,2.626,1.257-3.776,1.637-3.371S24.6,21.338,24.6,21.338L24.338,7.311l2.592,9.207.412-11.1,5.83,7.261L28.632,0Z" transform="translate(225.009 69.351) rotate(-166)" fill="#1e3f53"/>
        <path id="Path_8156" data-name="Path 8156" d="M3.858,0C3.672,3.048-.955,8.967.179,12.142a15.969,15.969,0,0,0,1.752,3.935s2.8-4.443,3.124-7.309a10.821,10.821,0,0,0-.135-4.24l3.03,8.526s-3.2,3.252-2.375,7.326,1.233,4.613,1.233,4.613a13.709,13.709,0,0,0,1.818-4.307,22.56,22.56,0,0,0,.327-5.434s2.883,4.406,4.771,6.619a34.1,34.1,0,0,1,2.943,3.854l-1.07,4.94,1.874,2.972.755-3.643s-.56-3.157-.776-3.764c-.467-1.315,3.483,3.4,4.2,4.089.544.523,1.961,4.622,1.961,4.622l4.759,2.119-2.653-4.717-2.72-2.3,3.163.567,4.539-.455L25.97,27.447l-4.237,1.477a28.667,28.667,0,0,1-4.212-3.829,29.643,29.643,0,0,1-3.268-4.731l6.053,2.161,3.382-.194-5.755-3.824-4.686.269A41.294,41.294,0,0,1,9.16,12.155c-1-2.492,2.7,2.94,6.387,3.456a41.116,41.116,0,0,0,7,.34s-3-3.5-6.191-4.208-7.089-1.263-7.089-1.263S6.858,6.982,6.543,4.91a15.343,15.343,0,0,0-1.75-4.5Z" transform="matrix(-0.891, -0.454, 0.454, -0.891, 152.67, 81.154)" fill="#1e3f53"/>
        <path id="Path_8159" data-name="Path 8159" d="M.56,16.126s2.926,4.247,3.807,5.314.732.868.976,1.157,1.174-.645,1.174-.645l-.28,1.705,2.128,1.293.077-5.893-3.07-.669,2.395-.7s.312-2.481.093-2.487l-2.776-.084,1.742-1.109-.076-2.194s5.44,3.444,7.193,4.243,1.218.515,1.218.515a12.651,12.651,0,0,1,1.818-.66c-.019.112-.548,1.237-.548,1.237a26.854,26.854,0,0,0,2.749.57c.7.049-1.929-4.815-1.929-4.815l-1.618.384,1.191-1.825L15.21,8.874l-2.2.53,1.338-1.961L11.884,4.262S14.054,0,13.389.14,0,0,0,0Z" transform="translate(175.273 67.963) rotate(167)" fill="#1e3f53"/>
        <path id="Path_8160" data-name="Path 8160" d="M6498.984,1102.672v-14.816s9.27,6.348,8.905,5.676-8.905-11.265-8.905-11.265,9.484,8.891,9.415,8.162a53.913,53.913,0,0,0-2.115-5.348l4.742,5.348-.331-10.47s4.123,9.671,4.2,9.467.674-2.406.674-2.406.946,3.394,1.28,3.014,3.1-12.078,3.1-12.078l-.663,12.752,2.485-8.442v10.074l5.167-6.77v13.586Z" transform="translate(-6031.722 -1043.363)" fill="#1e3f53"/>
        <path id="Path_8161" data-name="Path 8161" d="M6489.464,1092.594a15.633,15.633,0,0,0,5.187,2.341c1.722.244-.87-3.672-1.066-4-.4-.684,4.839.457,4.762-.284a52.2,52.2,0,0,0-2.348-5.442l5.265,5.442-.367-10.654s4.578,9.841,4.666,9.634.748-2.449.748-2.449,1.051,3.453,1.422,3.068,3.44-12.292,3.44-12.292l-.736,12.977,2.76-8.591v10.252l5.739-6.889-4.714,11.858-22.248-1.348Z" transform="translate(-6492.126 -1036.363)" fill="#1e3f53"/>
        <path id="Path_8162" data-name="Path 8162" d="M6078.432,1047.619s-2.063-5.488-1.728-5.924,1.728-2.316,1.728-2.316l.829,2.316v-3.308l2.249-1.651v3.36l1.12-4.142,1.965-1.383v2.165l1.632-2.956,3.727-1.953-.689,4.127-3.037,1.833h2.039v1.592l-4.423,1.646,3.9-.928-.735,2.21-4.375,1.121h3.6l-1.059,2.36-5.907,1.832S6074.448,1059.8,6078.432,1047.619Z" transform="translate(-5904.777 -989.902)" fill="#1e3f53"/>
        <path id="Path_8163" data-name="Path 8163" d="M6507.478,1091.485l-8.493-6.183s8.84,4.711,8.493,4.212-8.493-8.36-8.493-8.36,9.045,6.6,8.979,6.057a35.346,35.346,0,0,0-2.017-3.969l4.521,3.969-.315-7.769s3.933,7.176,4.008,7.026.643-1.786.643-1.786.9,2.518,1.221,2.237,2.955-8.963,2.955-8.963l-.633,9.463,2.37-6.264v7.476l4.929-5.024-4.049,8.647Z" transform="translate(-6485.417 -1030.409)" fill="#1e3f53"/>
        <path id="Path_8298" data-name="Path 8298" d="M6505.945,1089.044l-6.96-5.068s7.245,3.861,6.96,3.452-6.96-6.851-6.96-6.851,7.413,5.407,7.358,4.964a29.02,29.02,0,0,0-1.653-3.252l3.706,3.252-.258-6.367s3.223,5.881,3.285,5.758.526-1.464.526-1.464.74,2.064,1,1.833,2.422-7.346,2.422-7.346l-.519,7.755,1.942-5.134v6.127l4.039-4.117-3.318,7.086Z" transform="translate(-6428.185 -1021.681)" fill="#1e3f53"/>
        <path id="Path_8164" data-name="Path 8164" d="M6.211,0,5.677,2.39l-.761-.17.617.729L5.3,3.7l-.68,0,.288.682a6.115,6.115,0,0,1-1.6,2.578A14.117,14.117,0,0,1,0,9.073L1.651,4.4,2.658,4.4l-.43-.939.437-.493.828.206L2.937,2.4Z" transform="matrix(0.035, 0.999, -0.999, 0.035, 162.818, 49.012)" fill="#1e3f53"/>
        <path id="Path_8165" data-name="Path 8165" d="M-.013,1.988C1,2.957,1.122,18.871,1.122,18.871s1.6-9.56,2.42-7.794.58,7.956.58,7.956l2.311-7.511,1.724,2.836S9.186,8.8,9.8,10.229s2.238,4.34,2.238,4.34l1.943-2.638,1.5,4.714,3.211-5.935,1.935,3.279S22.3,12.074,22.7,12.4s3.9,7.846,3.9,7.846l-.455-7.66,3.944,5.821L29.664,11.3s1.6-4.657-.278-4.671S15.581.842,15.581.842Z" transform="translate(448.314 57.44) rotate(155)" fill="#1e3f53"/>
        <path id="Path_8170" data-name="Path 8170" d="M7208.07,901.586l-3.307-6.346s-.835,5.711-1.093,4.257-.659-6.068-.659-6.068-1.548,5.873-1.593,5.417-1.724-5.417-1.724-5.417-1.873,8.4-1.942,5.417a87.9,87.9,0,0,1,.954-9.883L7194.223,898v-4.575s-3.65,4.609-3.671,4,3.671-8.467,3.671-8.467-7.069,9.129-7.094,8.467.773-5.642.773-5.642l-5.042,4.69v5.108h25.209Z" transform="translate(-7010.389 -838.533)" fill="#1e3f53"/>
        <path id="Path_8171" data-name="Path 8171" d="M6263.265,837.079h-11.982s-11.079.4-14.854,0c-1.8-.19-11.514-4.577-22.028-5.243-11.467-.727-24.058,2.271-24.058,2.271l-3.619-2.271-18.905-1.563-15.274,3.834-32.363-2.271-35.406,5.243-20-2.972-6.534,2.972H6053.4l-10.453,2.359h-88.743l-40.93,4.575-36.618-9.906-27.189,2.972-96.417-11.7v46.749l739.607-.3V825.752l-24.229,6.084-21.023-1.563-47.062-2.259-37.748,2.259s-51.219,3.723-52.357,3.834-31.1,0-31.1,0Z" transform="translate(-5836.825 -777.653)" fill="#1e3f53"/>
        <path id="Path_8172" data-name="Path 8172" d="M7200.486,896.986l-.942-3.242s-.636,4.35-.833,3.242-.5-4.622-.5-4.622-1.179,4.473-1.214,4.126-1.313-4.126-1.313-4.126-1.426,6.395-1.479,4.126a66.931,66.931,0,0,1,.727-7.528l-3.414,6.887v-3.485s-2.78,3.51-2.8,3.048,2.8-6.449,2.8-6.449-5.384,6.953-5.4,6.449.589-4.3.589-4.3l-3.84,3.572.941,2.3,13.193,1.592Z" transform="translate(-7146.84 -835.914)" fill="#1e3f53"/>
        <path id="Path_8297" data-name="Path 8297" d="M7197.306,895.538l-.772-2.657s-.521,3.565-.683,2.657-.412-3.788-.412-3.788-.966,3.666-.995,3.382-1.076-3.382-1.076-3.382-1.169,5.241-1.212,3.382a54.79,54.79,0,0,1,.6-6.169l-2.8,5.644v-2.856s-2.279,2.877-2.292,2.5,2.292-5.286,2.292-5.286-4.413,5.7-4.429,5.286.483-3.522.483-3.522l-3.147,2.928.771,1.884,10.813,1.3Z" transform="translate(-7093.66 -828.179)" fill="#1e3f53"/>
        <path id="Path_8296" data-name="Path 8296" d="M7181.946,898.164l1.816-4.626s.609,4.162.8,3.1.48-4.423.48-4.423,1.128,4.281,1.162,3.949,1.256-3.949,1.256-3.949,1.365,6.119,1.416,3.949a64.086,64.086,0,0,0-.7-7.2l3.268,6.59v-3.335s2.66,3.359,2.676,2.917-2.676-6.172-2.676-6.172,5.152,6.654,5.171,6.172-.563-4.112-.563-4.112l6.306,5.619h-3.531l-12.626,1.523Z" transform="translate(-7058.224 -831.689)" fill="#1e3f53"/>
        <path id="Path_8173" data-name="Path 8173" d="M0,.04,1.782,5.192s.551-4.607.812-3.422.733,4.935.733,4.935,1.155-4.72,1.206-4.35S6.157,6.792,6.157,6.792s1.36-6.756,1.5-4.34a66.588,66.588,0,0,1-.536,7.985l3.568-7.212.129,3.708s2.984-3.641,3.018-3.148-2.893,6.767-2.893,6.767,5.772-7.215,5.813-6.679-.5,4.553-.5,4.553l4.168-3.671L19.289,2.278,4.457.135Z" transform="translate(318.225 56.585) rotate(167)" fill="#1e3f53"/>
        <path id="Path_8175" data-name="Path 8175" d="M0,.04,1.782,5.192s.551-4.607.812-3.422.733,4.935.733,4.935,1.155-4.72,1.206-4.35S6.157,6.792,6.157,6.792s1.36-6.756,1.5-4.34a66.588,66.588,0,0,1-.536,7.985l3.568-7.212.129,3.708s2.984-3.641,3.018-3.148-2.893,6.767-2.893,6.767,5.772-7.215,5.813-6.679-.5,4.553-.5,4.553l4.168-3.671L19.289,2.278,4.457.135Z" transform="translate(513.225 53.585) rotate(167)" fill="#1e3f53"/>
        <path id="Path_8174" data-name="Path 8174" d="M509.241,875.812l-3.493-3.239,1.357,5.545-3.11-3.542-1.062,4.281-1.865-.739H498.84v3.5l-2.826-2.766v3.667l-2.346-2.512L492.2,884.04v-4.028s-2.84,4.092-3.154,4.028-1.391-1.516-1.391-1.516l-1.975,2.723-1.493-1.207-1.646,2.3-2.1-1.094-2.656,3.32-13.533,2.6L435,888.566V884.04l-1.847,3.417v-4.933l-1.7,3.818-2.242-7.484v7.484l-3.587-3.818,1.386,3.818-3.117-2.3v3.417l-1.989-1.115v4.826l39.8,1.759,37.128-5.47,14.377-10.125Z" transform="translate(-94.569 -818.772)" fill="#1e3f53"/>
      </g>
    </g>
  </g>
</svg>
