<svg xmlns="http://www.w3.org/2000/svg" xmlns:xlink="http://www.w3.org/1999/xlink" width="260" height="386" viewBox="0 0 260 386">
  <defs>
    <clipPath id="clip-path">
      <rect id="Rectangle_656" data-name="Rectangle 656" width="260" height="386" transform="translate(-0.601)"/>
    </clipPath>
  </defs>
  <g id="Custom_Size_1" data-name="Custom Size – 1" transform="translate(0.601)" clip-path="url(#clip-path)">
    <g id="block1-right-illustration" transform="translate(-0.095 0.002)">
      <path id="Path_1992" data-name="Path 1992" d="M110.149,3327.448c-27.09,5.342-42.892,18.506,14.607,19.76s161.633,7.177,196.764,0c14.579-2.978,7.648-6.066,17.933-9.5,14.208-4.743-72.223-9.888-37.9-14.674s-31.152-8.416-93.186-7.387S110.149,3327.448,110.149,3327.448Z" transform="translate(-85.73 -2965.09)" fill="#bad0b4"/>
      <path id="Path_1993" data-name="Path 1993" d="M200.589,3342.264c56.738,4.1,141.561,17.741,177.77,10.567s35.657-14.789-15.406-20.55c-15.482-1.73-19.053-3.488-53.229-2.831C234.183,3330.9,161.5,3339.437,200.589,3342.264Z" transform="translate(-144.119 -2970.712)" fill="#bad0b4"/>
      <g id="man" transform="translate(20.184)">
        <g id="shoe" transform="translate(52.31 341.236)">
          <path id="Path_1683" data-name="Path 1683" d="M3088.561,3319.376s-1.106,4.571-.8,7.266,3.676,1.346,8.421,3.848,8.339,5.183,21.576,4.993,21.964-1.964,22.456-3.4-2.33-4.746-5.978-4.891c-1.7-.068-7.576-.509-11.6-2.637a21.558,21.558,0,0,1-8.7-9.22C3111.747,3310.46,3088.561,3319.376,3088.561,3319.376Z" transform="translate(-3087.531 -3313.879)" fill="#362821"/>
          <path id="Path_1688" data-name="Path 1688" d="M203.454,3370.921h0V3368.1l3.957,1.265" transform="translate(-193.111 -3348.56)"/>
          <path id="Path_1684" data-name="Path 1684" d="M3087.791,3337.411s5.921.626,8.461,2.054,7.55,5.052,13.647,5.412,15.965.01,21.06-1.19,9.03-2.591,9.03-2.591,1.016,2.3-.114,2.94-11.928,3.626-18.807,3.671-4.908.61-11.168,0-7.9-.973-14.01-5.218-5.317,3.312-7.342,2.042S3087.791,3337.411,3087.791,3337.411Z" transform="translate(-3087.399 -3323.974)" fill="#100804"/>
          <path id="Path_1685" data-name="Path 1685" d="M3087.608,3340.577a26.367,26.367,0,0,0,0,5.081c.3,1.97,10.168,2.035,10.168,2.035v-3.563l-5.834-3.236Z" transform="translate(-3087.433 -3325.333)" fill="#100804"/>
          <path id="Path_1687" data-name="Path 1687" d="M187.305,3343.722s2.485,6.813,3.386,7.888c.46.549-1.065.127-2.42-.113-.951-.058-2.128-.334-2.226-1.086-.2-1.538.742-6.94.742-6.94Z" transform="translate(-185.663 -3337.993)" fill="#4a352b"/>
          <path id="Path_1686" data-name="Path 1686" d="M3090.286,3320.379a43.867,43.867,0,0,0,.194,5.684c.18,1.58.171,2.158,1.945,2.778.973.342,3.337.615,5.307,1.782,4.759,2.82,10.251,7,24.225,5.174l3.277-.183,4.346-.433,2.725-.539,5.3-1.428c2.572-.355-22.172,1.082-29.9-3.469-4.07-2.4-7.218-7.032-5.405-12.966C3097.1,3314.948,3090.286,3320.379,3090.286,3320.379Z" transform="translate(-3088.623 -3314.962)" fill="#2e1a10"/>
          <path id="Path_1689" data-name="Path 1689" d="M3108.542,3317.939s6.812-4.609,9.77-1.434c-3.316,4.928,1.661,10.931,5.412,11.907,8.046,2.862,17.644,2.8,20.479,2.688,1.457-.059,2.071-.247,1.918.34-.013.231-.719.719-1.918,1.039-2.478.673-14.235,3.428-21.115,1.27s-10.995-5.578-12.911-8.685a13.562,13.562,0,0,1-1.634-7.126Z" transform="translate(-3096.424 -3314.528)" fill="#2e1a10"/>
        </g>
        <g id="shoe-2" data-name="shoe" transform="translate(21.95 347.517)">
          <path id="Path_1683-2" data-name="Path 1683" d="M3088.561,3319.376s-1.106,4.571-.8,7.266,3.676,1.346,8.421,3.848,8.339,5.183,21.576,4.993,21.964-1.964,22.456-3.4-2.33-4.746-5.978-4.891c-1.7-.068-7.576-.509-11.6-2.637a21.558,21.558,0,0,1-8.7-9.22C3111.747,3310.46,3088.561,3319.376,3088.561,3319.376Z" transform="translate(-3087.531 -3313.879)" fill="#362821"/>
          <path id="Path_1688-2" data-name="Path 1688" d="M203.454,3370.921h0V3368.1l3.791,1.14" transform="translate(-193.111 -3348.56)"/>
          <path id="Path_1684-2" data-name="Path 1684" d="M3087.791,3337.411s5.921.626,8.461,2.054,7.55,5.052,13.647,5.412,15.965.01,21.06-1.19,9.03-2.591,9.03-2.591,1.016,2.3-.114,2.94-11.928,3.626-18.807,3.671-4.908.61-11.168,0-7.9-.973-14.01-5.218-5.317,3.312-7.342,2.042S3087.791,3337.411,3087.791,3337.411Z" transform="translate(-3087.399 -3323.974)" fill="#1c0e07"/>
          <path id="Path_1685-2" data-name="Path 1685" d="M3087.608,3340.577a24.533,24.533,0,0,0,0,4.919c.3,1.97,10.168,2.2,10.168,2.2v-3.563l-5.834-3.236Z" transform="translate(-3087.433 -3325.333)" fill="#1c0e07"/>
          <path id="Path_1687-2" data-name="Path 1687" d="M187.305,3343.722s2.485,6.813,3.386,7.888c.46.549-1.065.127-2.42-.113-.951-.058-2.128-.334-2.226-1.086-.2-1.538.742-6.94.742-6.94Z" transform="translate(-185.663 -3337.993)" fill="#4a352b"/>
          <path id="Path_1686-2" data-name="Path 1686" d="M3090.286,3320.379a43.867,43.867,0,0,0,.194,5.684c.18,1.58.171,2.158,1.945,2.778.973.342,3.337.615,5.307,1.782,4.759,2.82,10.251,7,24.225,5.174l3.277-.183,4.346-.433,2.725-.539,5.3-1.428c2.572-.355-22.172,1.082-29.9-3.469-4.07-2.4-7.218-7.032-5.405-12.966C3097.1,3314.948,3090.286,3320.379,3090.286,3320.379Z" transform="translate(-3088.623 -3314.962)" fill="#342118"/>
          <path id="Path_1689-2" data-name="Path 1689" d="M3108.542,3317.939s6.812-4.609,9.77-1.434c-3.316,4.928,1.661,10.931,5.412,11.907,8.046,2.862,17.644,2.8,20.479,2.688,1.457-.059,2.071-.247,1.918.34-.013.231-.719.719-1.918,1.039-2.478.673-14.235,3.428-21.115,1.27s-10.995-5.578-12.911-8.685a13.562,13.562,0,0,1-1.634-7.126Z" transform="translate(-3096.424 -3314.528)" fill="#4a352b"/>
        </g>
        <g id="pant-man" transform="translate(20.661 154.968)">
          <path id="Path_1644" data-name="Path 1644" d="M3131.116,2976.668s13.666,4.745,21.668,3.465,11.542-3.465,11.542-3.465l3.981,19.01-2.2,15.2-22.581,9.775s-36.567-3.036-36.715-6.083-1.438-17.539-1.438-17.539Z" transform="translate(-3093.788 -2976.668)"/>
          <path id="Path_1645" data-name="Path 1645" d="M3179.358,2979.162s3.464,47.929,2.5,57.617-5.076,35.292-8.179,54.8-8.71,30.57-7.894,39.253c.4,4.235-.707,12.368,0,20.26.719,8.009,1.838,13.333,2.679,15.324,1.649,3.889-13.7,4.467-21.679,4.182s-9.169,2.364-8.3-13.384,2.571-44.134,4.235-53.5,7.243-25.111,7-38.142-2.126-41.33,0-45.784S3179.358,2979.162,3179.358,2979.162Z" transform="translate(-3107.83 -2977.738)"/>
          <path id="Path_1643" data-name="Path 1643" d="M3093.837,3039.134s1.044,20.089,1.862,30.822-2.422,17.072-1.862,22.491,1.656,7.911,0,10.892-1.022,7.048-1.469,7.538-7.074,42.6-7.213,48.427,2.034,22.32,1.6,29.779.171,10.857,0,12.03,9.9.713,13.477,0,15.809,1.379,15.852-1.918-4.582-17.9-4.129-21.15,5.238-21.985,4.721-28.483.64-26.306,2.078-30.259,11.043-34.493,12.634-42.782,5.841-28,5.64-32.889S3093.837,3039.134,3093.837,3039.134Z" transform="translate(-3085.149 -3003.463)"/>
          <path id="Path_1657" data-name="Path 1657" d="M3093.837,3039.14s1.044,20.088,1.862,30.822-2.422,17.071-1.862,22.491,1.656,7.911,0,10.892-1.022,7.048-1.469,7.537-7.074,42.6-7.213,48.427,2.034,22.32,1.6,29.779.171,10.857,0,12.03,6.687.713,10.265,0-.453-15.179,0-18.427-1.6-28.579-1.325-34.591,4.612-47.192,7.04-67.795S3093.837,3039.14,3093.837,3039.14Z" transform="translate(-3085.149 -3003.469)" fill="#2e2d2d"/>
          <path id="Path_1676" data-name="Path 1676" d="M3153.6,3013.417s-9.928,6.1-18.011,3.625" transform="translate(-3106.694 -2992.433)" fill="none" stroke="#2e2d2d" stroke-linecap="round" stroke-width="1"/>
          <path id="Path_1672" data-name="Path 1672" d="M3146.79,3229.052c-7.982-.285-9.169,2.364-8.3-13.384s2.571-44.134,4.236-53.505,7.243-25.111,7-38.142a24.9,24.9,0,0,1,1.491-8.057c.84-2.024,1.507,2.065,1.632,5.158.454,11.272-6.011,44.692-6.059,65.194C3146.735,3209.55,3150.158,3229.172,3146.79,3229.052Z" transform="translate(-3107.83 -3036.194)" fill="#2e2d2d"/>
          <path id="Path_1674" data-name="Path 1674" d="M3187.571,3041.709s-16.5,15.278-18.1,23.634,1.039,3.888,4.827-3.979S3187.571,3041.709,3187.571,3041.709Z" transform="translate(-3120.967 -3004.571)" fill="#1d1d1d"/>
          <path id="Path_1675" data-name="Path 1675" d="M3163.812,3041.709s-3.276,42.349-5.969,52.162" transform="translate(-3116.2 -3004.571)" fill="none" stroke="#2e2d2d" stroke-linecap="round" stroke-width="1"/>
          <path id="Path_2098" data-name="Path 2098" d="M9.267,0S.974,8.691.168,13.438c-.306,1.8-.2,2.663.349,2.811.4.212,1.653-1.518,2.837-4.3C5.26,7.481,9.267,0,9.267,0Z" transform="translate(56.399 33.497) rotate(25)" fill="#1d1d1d"/>
        </g>
        <path id="Path_1630" data-name="Path 1630" d="M3168.909,2788.485s2.02,12.023,1.992,14.165-18.692,3.122-19.006,0c-.08-.8-1.187-6.787-2.367-8.53-3.037-4.488-6.459-15.385-5.115-19.453a62.2,62.2,0,0,0,2.435-10.355l17.176,5.067Z" transform="translate(-3089.676 -2730.601)" fill="#9a7664"/>
        <path id="Path_1632" data-name="Path 1632" d="M3149.454,2814.074s11.563,7.24,15.454,6.09a11.02,11.02,0,0,0,5.527-3.333l7.418,18.566,3.623,9.969-3.623,26.385,1.923,32.792-3.538,5.5s-7.478,1.74-9.857,1.4-18.7-4.354-18.768-4.915-2.17-20.989-1.624-26.541.8-25.843,1.624-29.616S3149.454,2814.074,3149.454,2814.074Z" transform="translate(-3090.438 -2751.948)" fill="#fff"/>
        <path id="Path_1733" data-name="Path 1733" d="M3127.369,3410.755s-10.714,4.611-18.152,4.359-1.248,5.869-1.248,5.869,8.071,1.79,13.688-1.374,7.781-4.228,7.781-4.228Z" transform="translate(-3035.969 -3255.737)" fill="#261414"/>
        <path id="Path_1633" data-name="Path 1633" d="M3171.576,2810.485s.915,5.521-5.284,5.469c-6.77.684-15.576-8-15.678-9.655-.227-3.649,2.763,13.957,2.763,13.957l3.537,3s11.841,1.314,12.858.822,6.242-1.747,6.061-2.237S3171.576,2810.485,3171.576,2810.485Z" transform="translate(-3092.447 -2748.398)" fill="#fff"/>
        <path id="Path_1729" data-name="Path 1729" d="M302.32,2838.456s2.989,14.624,4.949,22.973a61.857,61.857,0,0,1,.936,7.013c.529,5.636,1.514-6.553,0-16.615s-1.351-9.042-2.573-10.628a12.519,12.519,0,0,0-3.312-2.743Z" transform="translate(-213.393 -2773.828)" fill="#1f4fac"/>
        <path id="Path_1728" data-name="Path 1728" d="M3189.678,2808.815s6.822,3.6,8.7,7.287,5.817,30.358,5.39,38.118,1.881,54.963,1.89,58.771,2.863,20.424,0,21.859-5.127,1.945-5.009-.479-2.988-30.034-2.988-30.034-3.583-29.633-2.145-36.159,2.194-25.564,1.007-27.071-6.842-23.054-6.842-23.054l-2.6-8.264Z" transform="translate(-3108.029 -2749.692)" fill="#1f4fac"/>
        <path id="Path_1631" data-name="Path 1631" d="M3183.7,2805.645s2.192,9.79,3.553,13.057,4.76,6.268,6.347,19.082-.667,25.013,0,32.178c.519,5.563,1.039,22.136,2.258,30.885.319,2.306,2.583-5.316,2.583-5.316s-.232-18.1-1.933-23.937.824-16.773,0-33.81c-.911-5.514-2.866-15.693-5.084-19.881-.484-.915-2.924-.7-2.851-1.155s3.969.942,3.147-.669c-1.932-3.793-6.135-9.368-6.069-10.434C3185.816,2802.924,3183.7,2805.645,3183.7,2805.645Z" transform="translate(-3106.584 -2747.813)" fill="#2c5dba"/>
        <g id="man-face" transform="translate(53.18)">
          <path id="Path_1623" data-name="Path 1623" d="M3183.8,2732.2a98.4,98.4,0,0,1,.063,11.152c-.342,7.293-1.624,17.074-5.548,24.17-7.241,13.091-21.2-2.478-21.2-2.478l-4.885-12.4s-1.527-8.134-1.353-8.791.451-6.59,2.739-8.578a67.078,67.078,0,0,1,9.36-6.393c.758-.185,8.642-1.1,8.642-1.1Z" transform="translate(-3145.738 -2714.925)" fill="#bc907b"/>
          <path id="Path_1624" data-name="Path 1624" d="M3155.658,2724.594c-2.8.484-1.9,2.557-1.559,5.017.216,1.539.633,4.963-.437,5.753-2.674,3.482-.682.874-1.737,3.7s-1.541.24-3.022-3.7-1.366-5.133-3.892-5.095-.927-14.4,0-17.6,4.123-5.924,8.651-6.633,11.976-1.292,16.394,0,12.366,9.749,13.316,14-1.552,12.657-2.536,13.886c-.594.741-.133-2.824,0-5.58.08-1.535.4-3.315-1.183-3.33-1.711-.017-1.654.548-8.279.77S3158.463,2724.11,3155.658,2724.594Z" transform="translate(-3142.658 -2705.272)" fill="#141212"/>
          <path id="Path_1629" data-name="Path 1629" d="M3145.011,2730.273c-2.525.038-.927-14.4,0-17.6s4.123-5.924,8.651-6.633,11.976-1.292,16.394,0c2.477.724-11.234.063-18.759,6.633C3145.609,2717.644,3146.12,2730.257,3145.011,2730.273Z" transform="translate(-3142.658 -2705.273)" fill="#242424"/>
          <path id="Path_1627" data-name="Path 1627" d="M3141.931,2750.159c.262,2.1.581,8.652,2.146,9.871s3.276,1.684,3.916,0,.54-3.367.392-6.6-.63-3.836-1.922-4.875S3141.669,2748.055,3141.931,2750.159Z" transform="translate(-3141.917 -2723.62)" fill="#bc907b"/>
          <path id="Path_1626" data-name="Path 1626" d="M3175.657,2789.456c1.551.685,3.528-2.69,5.534-3.117s7.841-1.023,8.588,2.492l1.352-1.7s-.95,3.608-1.352,4.621c-.805,2.025-1.885,4.327-1.885,4.327s-3.428-2.55-.651-3.982c.5-.938.922-3.037.455-3.265-1.8-.92-4.469-.985-5.834,0-1.584,1.141-1.856,2.694-2.811,2.921S3174.1,2788.77,3175.657,2789.456Z" transform="translate(-3156.178 -2739.909)"/>
          <path id="Path_1628" data-name="Path 1628" d="M3153.085,2758.4s-1.312,10.3,0,13.009,6.393,9.3,9.367,10.992,6.953,4.486,8.9,5.187,3.939.79,5.994-2.059a8.159,8.159,0,0,0,1.372-6s-5.123,1.6-8.671,0a39.532,39.532,0,0,1-11.451-8.12c-1.567-1.753-2.411-8.939-2.411-8.939s-.178-2.489.639-3.7S3153.085,2758.4,3153.085,2758.4Z" transform="translate(-3146.439 -2727.941)" fill="#141212"/>
          <path id="Path_1634" data-name="Path 1634" d="M3150.407,2770.039a35.8,35.8,0,0,0-1.986,10.083c-.112,3.989,1.471,10.389,1.588,11.639.256,2.744-3.6-10.3-3.368-13.312s1.236-10.195,1.236-10.195Z" transform="translate(-3144.504 -2733.433)" fill="#bc907b"/>
          <path id="Path_6420" data-name="Path 6420" d="M5.077,61.973s1.818.628,2.685-.225.046.7-.771.879a6.293,6.293,0,0,1-1.914,0Z" transform="translate(-2.053 -24.989)" fill="#9a7664"/>
        </g>
        <g id="belt" transform="translate(54.997 155.04)">
          <path id="Path_1730" data-name="Path 1730" d="M3107.543,3411.794s18.479,4.875,21.875,3.705a58,58,0,0,1-.754,7.229s-12.527-1.086-16.042-2.74a42.139,42.139,0,0,1-7.532-5.058Z" transform="translate(-3105.089 -3411.794)" fill="#412121"/>
          <path id="Path_1734" data-name="Path 1734" d="M3129.627,3415.832c.076,2.068.52,6.3.52,6.3a55.126,55.126,0,0,1-10.4,1.838,11.05,11.05,0,0,1-5.03-.879,19.9,19.9,0,0,1-6.13-4.914S3126.231,3417.005,3129.627,3415.832Z" transform="translate(-3095.126 -3413.527)" fill="#412121"/>
          <path id="Path_1731" data-name="Path 1731" d="M3145.045,3416.789c-.16-.166-5.467-.8-5.834,1.43a39.044,39.044,0,0,0-.308,6.03c0,1.038.215,1.575.9,1.793a5.218,5.218,0,0,0,2.742,0,21.864,21.864,0,0,0,3.2-.978,1.405,1.405,0,0,0,.267-.688s-4.476.781-5.149.193-.076-5.871,0-6.063a42.206,42.206,0,0,1,4.581-.937Z" transform="translate(-3117.239 -3414.418)" fill="#5a504a"/>
          <path id="Path_1732" data-name="Path 1732" d="M0,1.323H1.363L5.458,0" transform="translate(23.124 5.928) rotate(7)" fill="none" stroke="#74655c" stroke-linecap="round" stroke-width="2"/>
          <path id="Path_1735" data-name="Path 1735" d="M300.278,3000.933s-3.585,1.968-3.489,3.863a8.184,8.184,0,0,1-.639,3.479l4.534-1.057Z" transform="translate(-265.754 -2998.57)" fill="#331616"/>
        </g>
        <g id="left-blazer" transform="translate(0 39.378)">
          <path id="Path_1612" data-name="Path 1612" d="M3050.884,2924.9c3-9.611,20.832-67.876,22.5-83.614s0-49.2,0-49.2l27.231-10.1,18.468,84.43s-7.781,25.232-11.7,28.168c-2.947,2.208-11.455,25.056-15.815,35.206-1.347,3.136-1.346,6.873-11.517,5.649S3047.884,2934.508,3050.884,2924.9Z" transform="translate(-3049.733 -2777.559)" fill="#1f4fac"/>
          <path id="Path_1622" data-name="Path 1622" d="M3127.292,2921.141c1.315.016.494,14.45-4.253,24.625-7.561,16.21-23.027,47.708-23.027,47.708s-2.759,10.2-6.65,9.538c-2.4-.406-18.474-1.375-17.059-5.274,7.092-19.551,42.422-58.656,44.424-63.907C3123.751,2928.428,3123.849,2921.1,3127.292,2921.141Z" transform="translate(-3057.234 -2845.252)" fill="#1f4fac"/>
          <path id="Path_1620" data-name="Path 1620" d="M3098.263,2841.269c1.678-.573,6.595,21.369,12.1,53.312,2.435,42.105-30.412,94.469-35.994,95.37a51.247,51.247,0,0,1-6.6.869,39.523,39.523,0,0,1-12.9-1.931,4.578,4.578,0,0,1-2.91-5.914c.305-.455.733-2.712,1.838-5.942,1.851-6.26,6.792-20.329,10.794-32.731,7.666-23.774-1.781-69.125,6.061-90.506C3072.886,2847.72,3097.612,2841.492,3098.263,2841.269Z" transform="translate(-3050.768 -2835.534)" fill="#1f4fac"/>
          <path id="Path_1621" data-name="Path 1621" d="M1.483,55.91c-.459.012-1.817-.822-1.406-2.822C3.816,39.4,16.84,0,16.84,0s3.126,20.307,0,31.908S4.41,54.723,1.483,55.91Z" transform="translate(0 94.236) rotate(-0.974)" fill="#3d6abf"/>
          <path id="Path_1614" data-name="Path 1614" d="M3072.208,2858.427s.133,17.051,3.032,21.089,5.189,5.878,0,14.271.331,21.47,0,20.112-10.532-15.176-10.532-16.519-2.367-9.333,0-14.571S3072.208,2858.427,3072.208,2858.427Z" transform="translate(-3055.307 -2810.353)" fill="#5168ea"/>
          <path id="Path_6402" data-name="Path 6402" d="M3140.858,2774.235a54.5,54.5,0,0,0-.559,6.722c.143,1.546,1.985,8.05,4.137,14.754s9.677,31.293,10.191,40.122c.19,3.266,2.294,13.953,1.232,21.871-1.749,13.026-7.578,25.159-8.916,26.17-2.123,1.6,1.146-24.482.23-36.305s-11.234-36.554-11.234-36.554,4.209-3.19,5.044-5.115-6.968,3.769-7.651-3.348-.822-20.148.565-22.94S3140.858,2774.235,3140.858,2774.235Z" transform="translate(-3086.021 -2772.455)" fill="#1a48a2"/>
          <path id="Path_1611" data-name="Path 1611" d="M3140.391,2774.235a54.41,54.41,0,0,0-.56,6.722c.143,1.546,1.985,8.05,4.137,14.754s9.678,31.293,10.191,40.122c.19,3.266,2.294,13.953,1.232,21.871-1.749,13.026-8.8,27.1-10.138,28.113-2.123,1.6,2.369-26.426,1.453-38.249s-11.234-36.554-11.234-36.554,4.209-3.19,5.044-5.114-6.968,3.769-7.651-3.348-1.958-18.8-.572-21.592S3140.391,2774.235,3140.391,2774.235Z" transform="translate(-3084.362 -2774.235)" fill="#2c5dba"/>
        </g>
        <g id="left-wrist" transform="translate(46.506 156.392)">
          <path id="Path_1635" data-name="Path 1635" d="M3130.266,2989.985l1.476,10.229a23.143,23.143,0,0,0,7.032,1.175c3-.176,11.3-1.729,12-3.676a14.336,14.336,0,0,0,.746-4.005l1.156,1.237s3.485,3.744,6.18,2.383-1.157-2.923-1.983-4.358-.761-1.54-3.775-4.372-7.646-7.651-12.951-7.973S3130.266,2989.985,3130.266,2989.985Z" transform="translate(-3130.266 -2979.787)" fill="#9a7664"/>
          <path id="Path_1637" data-name="Path 1637" d="M3130.819,2992.644s7.586-5.319,9.95-11.889-10.3,9.315-10.3,9.315Z" transform="translate(-3130.352 -2979.162)" fill="#836354"/>
          <path id="Path_1636" data-name="Path 1636" d="M3165.143,2996.231a9.98,9.98,0,0,1,.334,5.46c-.657,3.087-1.134,2.415-.959.909S3165.143,2996.231,3165.143,2996.231Z" transform="translate(-3144.308 -2986.484)" fill="#836354"/>
        </g>
        <g id="left-hand" transform="translate(4.816 54.026)">
          <path id="Path_1638" data-name="Path 1638" d="M3076.447,2800.01c-2.2.706-8.177,3.17-10.973,16.022s-7.966,41.345-7.969,49.551,1.98,11.3,4.435,14.27,28.515,36.945,28.515,36.945a23.738,23.738,0,0,0,10.359-4.786,128.219,128.219,0,0,0,9.855-9.722s-6.457-7.008-13.585-16.02c-4.965-6.276-12.816-18.494-12.816-18.494s7.248-28.636,8.192-43.42S3078.648,2799.3,3076.447,2800.01Z" transform="translate(-3057.495 -2799.926)" fill="#2c5dba"/>
          <path id="Path_1639" data-name="Path 1639" d="M3076.621,2799.888s3.56,2.221,2.439,7.272c-.879,3.972-6.686,11.117-12.911,26.35-1.606,3.931-8.415,36.872-8.464,36.647-.919-4.171,1.41-32.691,6.753-49.182,1.279-5.553,2.008-9.875,3.6-13.022C3071.458,2801.212,3076.621,2799.888,3076.621,2799.888Z" transform="translate(-3057.489 -2799.888)" fill="#3d6abf"/>
          <path id="Path_1642" data-name="Path 1642" d="M7.626,0S2.616,2.451,2.29,5.4-.867,8.5.267,4.84,7.626,0,7.626,0Z" transform="translate(19.29 66.614) rotate(13)" fill="#1f4fac"/>
          <path id="Path_2097" data-name="Path 2097" d="M8.526,0s-5.6,3.228-5.964,7.1S-.972,11.173.3,6.371,8.526,0,8.526,0Z" transform="matrix(0.574, 0.819, -0.819, 0.574, 21.971, 61.559)" fill="#1f4fac"/>
        </g>
      </g>
      <g id="Girl" transform="translate(104.685 35.798)">
        <path id="Path_1677" data-name="Path 1677" d="M3252.995,2851.539s-7.663,2.608-9.011,6.983c-.24.775-3.574,8.144-4.215,13.419-1.174,9.658-23.372,28.024-23.372,28.024s25.8,22.535,40.3-22.51Z" transform="translate(-3204.48 -2794.682)" fill="#ff7361"/>
        <g id="girl-shoes" transform="translate(27.393 297.764)">
          <path id="Path_1724" data-name="Path 1724" d="M586.005,3296.006s-.67.033-.652-.351c0,0-.328-3.957-.756-6.153s-.959-2.637-.959-2.637l1.713-.555a9.781,9.781,0,0,0,.652,1.423c.228.3,1.624,5.56,1.637,5.764a24.288,24.288,0,0,1-1.635,2.509Z" transform="translate(-556.407 -3264.687)" fill="#483434"/>
          <path id="Path_1715" data-name="Path 1715" d="M3464.867,3231.5s2.035,4.4,1.119,8.4-5.282,13.494-7.381,14.97,6.012,1.966,8.893,0,9.417-8.657,10.685-12.227,2-4.875,1.7-5.428a42.43,42.43,0,0,1-2.828-8.131C3476.733,3226.751,3464.867,3231.5,3464.867,3231.5Z" transform="translate(-3449.184 -3228.442)" fill="#d6ad87"/>
          <path id="Path_1727" data-name="Path 1727" d="M3474.223,3255.253c2.877-1.967,9.417-8.656,10.685-12.222s2-4.875,1.7-5.429a42.414,42.414,0,0,1-2.828-8.131c-.17-1.24-.349,5.587-3.208,13.1C3478.131,3248.979,3472.868,3256.177,3474.223,3255.253Z" transform="translate(-3455.908 -3228.82)" fill="#af8e6f"/>
          <path id="Path_1716" data-name="Path 1716" d="M3442.457,3266.042s-.565-1.074,2.439-2.274,6.913-2.918,7.412-3.481,5.609,1.481,8.379,0,12.451-15.937,12.583-16.613,3.472,4.184,3.393,7.863-1.648,14.5-1.648,14.5-3.409.614-3.037,0,.312-8.3-1.021-8.555-6.569,3.948-7.9,7.208-2.284,3.485-3.49,3.571-7.251.257-10.974,0a11.7,11.7,0,0,1-6.13-2.224Z" transform="translate(-3442.414 -3234.948)" fill="#ac7777"/>
          <path id="Path_7013" data-name="Path 7013" d="M3470.917,3260.288c2.771-1.482,12.451-15.937,12.583-16.612s3.472,4.184,3.393,7.863-1.649,14.5-1.649,14.5-3.409.614-3.037,0,.312-8.3-1.021-8.556-6.569,3.948-7.9,7.208-2.284,3.485-3.491,3.571c-.647.047-2.252-1.415-2.061-3.571C3467.863,3263.169,3469.635,3260.974,3470.917,3260.288Z" transform="translate(-3452.646 -3234.949)" fill="#916262"/>
          <path id="Path_1717" data-name="Path 1717" d="M3503.8,3234s-6.559,20.949-8.128,22.642c-.459.5.122,1.252,1.549,1.784,2.895,1.08,9.355,1.613,10.568.427,1.714-1.678,2.95-5.555,3.585-8.509s.617-4.528,1.3-6.116.75-10.229.75-10.229Z" transform="translate(-3458.225 -3230.824)" fill="#d6ad87"/>
          <path id="Path_1726" data-name="Path 1726" d="M3516.869,3258.589c1.714-1.678,2.95-5.555,3.586-8.509s.547-3.413,1.229-5,.82-11.342.82-11.342-5.594-3.05-4.156,9.008C3519.861,3248.142,3516.141,3259.3,3516.869,3258.589Z" transform="translate(-3467.303 -3230.565)" fill="#af8e6f"/>
          <path id="Path_1718" data-name="Path 1718" d="M3494.467,3263.638s-.523,2.005,1.286,2.378,10.149.954,11.251-.618c.588-.841,1.826-4.605,2.778-8.157.741-2.767,1.629-5.537,1.629-5.537s1.627,3.224.485,6.037-3,7.692-3.164,9.529.525,4.928-1.729,5.5-10.86,1.265-12.537.619a3.423,3.423,0,0,1-2.293-4.281,30.953,30.953,0,0,1,2.292-5.471Z" transform="translate(-3456.736 -3238.42)" fill="#ac7777"/>
          <path id="Path_7014" data-name="Path 7014" d="M3516.29,3265.4c.588-.841,1.826-4.605,2.778-8.158.742-2.767,1.63-5.537,1.63-5.537s1.627,3.225.485,6.038-3,7.692-3.164,9.529.525,4.928-1.729,5.5S3515.191,3266.97,3516.29,3265.4Z" transform="translate(-3466.022 -3238.42)" fill="#916262"/>
        </g>
        <g id="girl-pant" transform="translate(24.686 143.591)">
          <path id="Path_1670" data-name="Path 1670" d="M3249.336,3031s-7.72,25.405-8.391,41.645-2.568,35.707-2.217,37.33,1.359,4.088,2.217,6.6-1.456,4.164,0,7.76,14.53,54.94,14.53,54.94,14.532-.362,16.572-2.661-2.12-47.337-5.29-56.64.739-21.878,2.2-26.342,13.016-33.412,13.016-33.412l2.191-29.222Z" transform="translate(-3238.685 -3015.261)" fill="#202a43"/>
          <path id="Path_1681" data-name="Path 1681" d="M3261.468,3116.623l3.7,62.652s14.532-.362,16.572-2.661-2.12-47.336-5.289-56.64.738-21.878,2.2-26.342,13.016-33.412,13.016-33.412l2.19-29.223s-14.606,25.125-24.388,48.633C3263.336,3094.385,3260.9,3115.228,3261.468,3116.623Z" transform="translate(-3248.385 -3015.261)" fill="#131929"/>
          <path id="Path_1671" data-name="Path 1671" d="M3303.472,3033.007s4.586,42.136,6.593,55.47,1.017,17.83,1.854,20.82-.668,4.587,0,9.909.585,41.665,0,44.411,8.73,7.064,14,5.4,9.651-35.9,10.491-40.958-2.148-22.392,0-37.046,11.649-46.313,10.975-59.8a154.134,154.134,0,0,0-3.985-26.518l-33.338,2.892Z" transform="translate(-3266.362 -3003.978)" fill="#202a43"/>
          <path id="Path_1696" data-name="Path 1696" d="M0,8.358S12.706-1.889,19.806.309c3.374,1.044-.879,1.391-6.493,3.117C7.465,5.224,0,8.358,0,8.358Z" transform="matrix(0.985, -0.174, 0.174, 0.985, 36.842, 21.335)" fill="#131929"/>
          <path id="Path_1698" data-name="Path 1698" d="M3255.618,3034.122s-1.729,4.221,5.935,4.875,39.938-5.583,39.938-5.583l-33.2-1.912-12.1-1.011Z" transform="translate(-3245.849 -3015.042)" fill="#131929"/>
          <path id="Path_1682" data-name="Path 1682" d="M3335.741,3159.032s-1.608,9.081,0,9.606,2.42.125,3.954-.306c5.274-1.66,9.476-35.665,9.978-40.807s-2.148-22.392,0-37.045,11.648-46.313,10.975-59.8c-.16-3.211,1.039-8.568,0-11.784a34.449,34.449,0,0,0-10.975-15.456s5.075,34.469-1.525,67.808c-.928,4.688-3.832,12.513-4.665,17.242-2.766,15.717-.585,29.168-1.758,41.1a140.745,140.745,0,0,1-5.986,29.448Z" transform="translate(-3279.622 -3003.437)" fill="#131929"/>
          <path id="Path_1697" data-name="Path 1697" d="M0,.034S18,1.842,20.55,7.211s7.148-1.5,0-4.6S0,.034,0,.034Z" transform="translate(38.175 29.774) rotate(-19)" fill="#131929"/>
        </g>
        <path id="Path_1649" data-name="Path 1649" d="M3248.417,2881.123Z" transform="translate(-3248.417 -2793.07)"/>
        <path id="Path_1693" data-name="Path 1693" d="M6.433,0S5.6,40.516,2.138,50.265s-1.854,3.88-1.127-.9.11-13.178,2.108-20.469S6.433,0,6.433,0Z" transform="translate(36.304 65.373) rotate(0.974)" fill="#ea6958"/>
        <path id="Path_1664" data-name="Path 1664" d="M3296,2929.559s2.661-64.936,5.544-73.589,4-15.636,4.581-16.708c.174-.32-.381-2.8,1.3-5.444,3.6-5.665,10.757-14.9,14.217-15.116,4.942-.312,26.567,7.3,26.567,7.3s-4.862,67.329-6.035,71.847,0,13.329,0,15.143,3.017,13.309,3.017,13.309a49.989,49.989,0,0,0-6.553-1.456c-1.569-.05-1.426-4.109-1.426-4.109l-1.227,4.109s-16.41,4.315-19.087,5.155-19.748,2.353-20.9,2.4S3296,2929.559,3296,2929.559Z" transform="translate(-3238.837 -2766.948)" fill="#ff7361"/>
        <path id="Path_1691" data-name="Path 1691" d="M3305.689,2878.3a31.178,31.178,0,0,1,0,6.217c-.282,1.805-2.637,6.617-2.929,12.211-.089,1.689.626,6.473.394,8.144-.913,6.539.517,10.087.517,10.087l-7.845,54.16" transform="translate(-3238.408 -2806.164)" fill="none" stroke="#ea6958" stroke-linecap="round" stroke-width="1"/>
        <path id="Path_1690" data-name="Path 1690" d="M3337.355,2882.448c.913-2.166-3.391-13.644-1.045-17,6.339-14.384,26.343-34.064,26.343-34.064s-5.183,65.737-6.356,70.255,0,14.9,0,16.715,3.017,13.309,3.017,13.309a50.112,50.112,0,0,0-6.553-1.456c-1.569-.05-1.426-4.109-1.426-4.109l-1.228,4.109s-16.41,4.315-19.087,5.155-2.284-.548-1.982-18.585S3333.028,2892.714,3337.355,2882.448Z" transform="translate(-3252.958 -2772.318)" fill="#ea6958"/>
        <path id="Path_1694" data-name="Path 1694" d="M0,31.11S8.827,45.342,16.892,51.552c1.864,1.574,10.051,2.981,11.285,1.508,4.931-6.917,3.483-15.647,3.483-15.647L30.8,0S16.934,47.04,14.858,45.292C8.644,40.06,0,31.11,0,31.11Z" transform="translate(21.807 66.134) rotate(18)" fill="#ea6958"/>
        <path id="Path_1665" data-name="Path 1665" d="M3330.75,2820.908s.225-.848,2.163-1.782,6.553-1.438,6.73-1.024l3.792,3.836s2.494,3.842,1.532,2.833-2.7-4.68-6.255-5.646S3330.75,2820.908,3330.75,2820.908Z" transform="translate(-3259.628 -2752.867)" fill="#e06252"/>
        <path id="Path_1667" data-name="Path 1667" d="M3286.658,2814.378a54.973,54.973,0,0,1,.758,10.6c-.244,5.537.219,8.456,0,9.19-.41,1.38-7.23,24.795-7.461,26.323s-4.241,68.695-4.241,68.695-20.035-1.119-23.01-2.521a25.714,25.714,0,0,1-5.316-3.446s11.839-45.5,12.907-51.7c.619-3.587-.479-11.038,0-19.729.332-6.036-2.2-26.878,7.041-30.328s13.851-5.325,13.851-5.325Z" transform="translate(-3218.292 -2765.09)" fill="#ff7361"/>
        <path id="Path_1721" data-name="Path 1721" d="M3291.535,2867.025c.8.126,6.655-2.677,8.054-2.146s4.51,6.809,4.51,6.809-1.359-6.528-4.2-7.7S3291.535,2867.025,3291.535,2867.025Z" transform="translate(-3236.576 -2799.936)" fill="#e06252"/>
        <path id="Path_1706" data-name="Path 1706" d="M3308.639,2870.286s-2.629,8.372-3.008,10.8c-.282,1.805-1.725,6.666-2.02,12.26-.089,1.689.233,5.918,0,7.586a32.485,32.485,0,0,0,0,10.6l-7.923,54.735" transform="translate(-3243.507 -2802.724)" fill="none" stroke="#ea6958" stroke-linecap="round" stroke-width="1"/>
        <path id="Path_6411" data-name="Path 6411" d="M106.353,91.524s-1.959,3.541-.777,5.374,1.466,7.76,1.918,7.258,1.577-.24,2.4-2.784,1.908-2.821,1.754-6.837a49.074,49.074,0,0,0-1.758-9.514Z" transform="translate(-42.903 -40.816)"/>
        <g id="girl-neck" transform="translate(66.843 35.511)">
          <path id="Path_1662" data-name="Path 1662" d="M3313.281,2798.813s3.264,11.418,1.707,17.609c-.974,3.875,1.119,4.715,1.119,4.715s3.643-4.223,5.379-6.689c4.642-6.592,15.184-12.584,14.719-16.137s-3.916-8.157-3.916-8.157Z" transform="translate(-3313.281 -2790.154)" fill="#efc193"/>
          <path id="Path_1723" data-name="Path 1723" d="M3327.547,2793.387s4.806,17.549,9.054,13.154,6.3-4.681,5.834-8.231-3.916-8.157-3.916-8.157Z" transform="translate(-3319.521 -2790.154)" fill="#d1a06f"/>
        </g>
        <path id="Path_6410" data-name="Path 6410" d="M399.6,2786.119s-9.51-2.213-14.157,2.266-8.364,13.6-7.1,17.487,1.482,4.564,1.132,7.183-4.343,6.6,0,11.812,5.527,4.714,5.3,7.633-2.8,2.837-1.678,6.814.959,5.4,1.678,5.792.137-2.667,1.213-4.235,2.477-1.94,3.889-4.978,1.913-6.227,1.537-6.831-10.827-23.246-10.733-23.791,0-5.035,0-5.035l.774-4.524,4.533.605a6.967,6.967,0,0,1,3.1,0c1.03.436,1.38-2.877,2.327-3.378S399.6,2786.119,399.6,2786.119Z" transform="translate(-324.757 -2785.572)"/>
        <path id="Path_1695" data-name="Path 1695" d="M3268.048,2885.761c1.719.46-3.175,39.557-2.527,56.161s-3.288,16.377-9.078,14.748a15.343,15.343,0,0,1-5.852-3.211l2.113-8.451S3268.267,2885.025,3268.048,2885.761Z" transform="translate(-3221.476 -2795.063)" fill="#ea6958"/>
        <path id="girl-face" d="M3294.378,2745.866s-.115,2.413-.209,5.783c-.126,4.5-.205,10.868.209,13.712.7,4.787,6.157,13.894,9.9,14.725s24.575-4.065,20.3-18.2-1.529-14.821-1.767-16.019-20.757-2.814-20.757-2.814Z" transform="translate(-3238.231 -2734.438)" fill="#f5d3b0"/>
        <path id="girl-face-2" data-name="girl-face" d="M3329.021,2778.4s4.475-1.624,6.7-4.635c3.186-4.315,4.347-11.713,1.744-20.308-4.28-14.136-2.574-7.352-2.814-8.551-.144-.719-3.072,15.594-2.722,22.841S3329.021,2778.4,3329.021,2778.4Z" transform="translate(-3252.367 -2734.945)" fill="#efc193"/>
        <g id="tablet" transform="translate(3.097 80.323)">
          <path id="Path_1711" data-name="Path 1711" d="M1.718,0l46.4.016a1.717,1.717,0,0,1,1.719,1.713l.01,29.693a1.714,1.714,0,0,1-1.718,1.713l-46.4-.015A1.717,1.717,0,0,1,.01,31.406L0,1.713A1.714,1.714,0,0,1,1.718,0Z" transform="matrix(0.994, -0.105, 0.105, 0.994, 0, 5.231)" fill="#978c9d"/>
          <rect id="Rectangle_41" data-name="Rectangle 41" width="49.273" height="31.994" rx="3" transform="matrix(0.994, -0.105, 0.105, 0.994, 0.34, 5.918)" fill="#312c2c"/>
          <path id="Path_1768" data-name="Path 1768" d="M1.319.027,23.654,0c.41,0-1.632,32.008-22.325,32A1.318,1.318,0,0,1,.01,30.687L0,1.342A1.315,1.315,0,0,1,1.319.027Z" transform="matrix(0.994, -0.105, 0.105, 0.994, 0.337, 5.891)" fill="#504848"/>
          <g id="Ellipse_20" data-name="Ellipse 20" transform="translate(3.476 7.295)" fill="#5d5d5d" stroke="#000" stroke-width="0.5">
            <ellipse cx="1.489" cy="1.484" rx="1.489" ry="1.484" stroke="none"/>
            <ellipse cx="1.489" cy="1.484" rx="1.239" ry="1.234" fill="none"/>
          </g>
        </g>
        <g id="girl-right-hand" transform="translate(35.336 56.307)">
          <path id="Path_1663" data-name="Path 1663" d="M3357.371,2826.724s9.094,4.676,10.458,6.485,4.349,9.85,3.484,19.528-10.1,40.373-11.39,43.763-2.442,6.447-4.488,7.067-19.267-4.7-25.126-6.016a5.414,5.414,0,0,1-1.781-.593c-.281-.23.566-.525.394-1.482-.731-3.98,3.2-12.5,4.351-12.372,3.495.393,12.735.746,12.735.746s3.832-35.311,6.412-40.7S3357.371,2826.724,3357.371,2826.724Z" transform="translate(-3288.263 -2826.724)" fill="#ff7361"/>
          <path id="Path_1658" data-name="Path 1658" d="M3268.121,2892.068c1.182-.13,1.536-.639,3.916.949s11.153,7.631,11.359,8.571,2.043,3.874,3.109,4.384-4.518,9.535-5.8,9.977-9.484-1.668-10.289-2.45-11.543-5.131-11.556-5.8.231-2.523,3.062-1.415-3.621-2.078-3.461-2.526-1.4-3.47,2.525-2.173,11.055,3.883,11.055,3.883-4.895-4.084-5.63-4.542-6.317-3.03-5.93-4.084.948-2.015,3.8-.757,10.149,5.8,10.52,5.834.77-.165-1.279-2.771-5.918-4.164-6.012-4.672S3266.939,2892.2,3268.121,2892.068Z" transform="translate(-3258.281 -2854.595)" fill="#efc193"/>
          <path id="Path_1699" data-name="Path 1699" d="M3297.64,2956.524a2.087,2.087,0,0,0,.368,2.256,5.107,5.107,0,0,0,1.414-.648,9.881,9.881,0,0,0,1.438-1.245S3298.285,2955.4,3297.64,2956.524Z" transform="translate(-3257.842 -2888.436)" fill="#d06254"/>
          <path id="Path_1705" data-name="Path 1705" d="M.278.075a7,7,0,0,0-.154,3.2S2.7,1.711,2.734,1.162.287-.262.278.075Z" transform="translate(44.707 56.202) rotate(39)" fill="#d06254"/>
          <path id="Path_1659" data-name="Path 1659" d="M3283.193,2922.232s1.778-.44,2.114-1.42.531-1.828,2.135-2.253,1.74-1.51,1.99-2.628,2.382-.991,2.6-1.439-.933-2.857-.422-3.6,2.247-1.184,2.785-.58,2.985,4.16,4.454,4.6c.782.233.089,3.276-1.592,5.906a14.6,14.6,0,0,1-3.645,3.6s-2.991-.433-5.594-.979S3283.193,2922.232,3283.193,2922.232Z" transform="translate(-3268.922 -2862.375)" fill="#d1a06f"/>
          <path id="Path_1704" data-name="Path 1704" d="M3306.718,2942.929c3.934,1.626,10.117,3.722,13.608,4.2a1.79,1.79,0,0,1,.75.218c.4.216.416.567.569,1.3.594,2.741-2.362,9.909-4.544,10.126-2.756.279-17.512-7.421-17.512-7.421l4.843-9.647s-2.175-.847.972.525C3305.462,2942.259,3306.454,2942.819,3306.718,2942.929Z" transform="translate(-3275.353 -2889.562)" fill="#d1a06f"/>
          <path id="Path_1660" data-name="Path 1660" d="M3265.953,2917.541s6.759,3.19,8.207,3.361-3.381-1.584-5.434-2.424A13.985,13.985,0,0,0,3265.953,2917.541Z" transform="translate(-3261.557 -2865.6)" fill="#d1a06f"/>
          <path id="Path_1661" data-name="Path 1661" d="M3285.539,2905.225l1.236,2.444s4.928,1.966,4.62,1.358S3285.539,2905.225,3285.539,2905.225Z" transform="translate(-3269.925 -2860.317)" fill="#d1a06f"/>
          <path id="Path_1707" data-name="Path 1707" d="M3348.906,2972.9s4.171-3.436,4.327-8.391" transform="translate(-3296.419 -2899.456)" fill="none" stroke="#ea6958" stroke-linecap="round" stroke-width="1"/>
          <path id="Path_1709" data-name="Path 1709" d="M3352.683,2950.47a15.087,15.087,0,0,1,.99,1.323,5.354,5.354,0,0,1,.879,1.927" transform="translate(-3298.032 -2894.002)" fill="none" stroke="#ea6958" stroke-linecap="round" stroke-width="1"/>
          <path id="Path_1844" data-name="Path 1844" d="M.217,0S.584,3.516.559,7C.54,9.4-.532,12.135.344,12.5s2.173-2.286,1.863-5.174A33.069,33.069,0,0,0,.217,0Z" transform="matrix(0.891, -0.454, 0.454, 0.891, 57.101, 56.868)" fill="#ea6958"/>
          <path id="Path_2096" data-name="Path 2096" d="M.039,0A38.757,38.757,0,0,1,.444,5.58C.422,7.489-.566,8.93.478,9.224s2.3-1.08,1.932-3.382A20.168,20.168,0,0,0,.039,0Z" transform="translate(57.627 57.08) rotate(-47)" fill="#ea6958"/>
          <path id="Path_6423" data-name="Path 6423" d="M68.488,106.812s.453.093.8.124a2.919,2.919,0,0,0,.581,0,6.739,6.739,0,0,0,1.227-1.231,14.534,14.534,0,0,0,1.918-3.537,13.618,13.618,0,0,0,1-3.6c-.006-.064.042-.4.042-.4s-.9,2.653-1.768,4.688C70.829,106.382,68.488,106.812,68.488,106.812Z" transform="translate(-27.698 -37.681)" fill="#ba8e62"/>
        </g>
        <g id="girl-watch" transform="translate(63.45 110.232)">
          <path id="Path_1712" data-name="Path 1712" d="M3508.237,2928.546s1.518.2,1.021,2.5a27.706,27.706,0,0,1-1.021,3.676l2.2,1.307s1.188-4.6.966-5.894a.988.988,0,0,0-.469-.771,6.846,6.846,0,0,0-2.407-.818" transform="translate(-3503.666 -2928.546)" fill="#1a3e5d"/>
          <path id="Path_1713" data-name="Path 1713" d="M3500.358,2944.83s.108-.01.733,0a1.332,1.332,0,0,0,.915-.333c.625-.6,2.268,1.184,2.268,1.184s.228.725-.953.719S3500.358,2944.83,3500.358,2944.83Z" transform="translate(-3500.358 -2935.032)" fill="#1a3e5d"/>
          <ellipse id="Ellipse_21" data-name="Ellipse 21" cx="3.574" cy="2.968" rx="3.574" ry="2.968" transform="translate(0.894 5.289)" fill="#e5e5e5"/>
          <path id="Path_1714" data-name="Path 1714" d="M3.436,0c.228,0,.2.5.507.772,1.141.937,1.164,4.938-.507,4.938A3.187,3.187,0,0,1,0,2.854,3.186,3.186,0,0,1,3.436,0Z" transform="translate(0.941 5.702)" fill="#a3a3a3"/>
          <ellipse id="Ellipse_22" data-name="Ellipse 22" cx="3.151" cy="2.569" rx="3.151" ry="2.569" transform="translate(1.055 6.273)" fill="#2e2e2e"/>
        </g>
        <g id="girl-specs" transform="translate(71.047 25.113)">
          <path id="Path_1720" data-name="Path 1720" d="M3318.488,2797.8l10.142-1.852.206.584-9.9,2.656Z" transform="translate(-3318.488 -2795.946)"/>
          <path id="Path_1769" data-name="Path 1769" d="M42.411,12.915l2.245-.47" transform="translate(-41.685 -10.512)" fill="none" stroke="#fff" stroke-linecap="round" stroke-width="1"/>
        </g>
      </g>
      <path id="Path_6405" data-name="Path 6405" d="M428.51,2839.65s2.777,5.107,0,9.844-1.685,5.152,0,8.626,1.853,3.794,0,7.313,1.746,9.861,2.788,10.639-1.684-3.444,1.378-7.531,5.084-3.719,4.466-9.063-.975-9.576,0-13.358S428.51,2839.65,428.51,2839.65Z" transform="translate(-242.409 -2772.341)"/>
      <path id="Path_6406" data-name="Path 6406" d="M440.054,2849.28s-2.921,6.6-2.115,9.533,2.012,5.141,1.152,7.291-3.1,7.153-2.477,11.44.708,5.62,1.328,5.375,1.081-4.155,2.115-6.519,3.576-3.429,4.326-8.208-.31-4.306,0-9.38S440.054,2849.28,440.054,2849.28Z" transform="translate(-245.732 -2780.41)"/>
      <path id="Path_6404" data-name="Path 6404" d="M386.712,2796.041a7.247,7.247,0,0,0,5.18,7.744c5.993,2.024,9.412,3.555,11.188,7.313s15.423,10.508,16.293,14.213-1.647,7,3.905,10.041c3.315,1.813,1.323,7.569.959,12.4-.225,2.963.448,3.249.975,4.81.834,2.472,1.474-1.371,4.47-6.585.845-1.47,3.916-3.9,3.916-3.9s.291-.383,1.079-.178c.223.154.524.276.992.545.408.228,1.028.588,1.028.588.544-2.037.654-7.78-2.563-11.383s-6.425-8.231-6.978-11.207.46-5.594-1.091-11.6-2.857-4.915-5.786-10.72-1.443-10.981-9.824-13.388-14.971-1.279-18.1.69S386.712,2796.041,386.712,2796.041Z" transform="translate(-223.793 -2748.882)"/>
      <path id="Path_6407" data-name="Path 6407" d="M447.524,2862.345s-4.362,7.485-2.865,10.761.548,6.088.832,9.181,2.309,8.01,2.6,5.045a34,34,0,0,1,2.722-10c1.315-2.709,3.836-5.308,3.058-8.241S447.524,2862.345,447.524,2862.345Z" transform="translate(-251.287 -2780.376)"/>
      <path id="Path_6409" data-name="Path 6409" d="M389.547,2798.81s-3.276,1.826-3.421,4.541.328,3.885.226,5.158a6.017,6.017,0,0,1-.9,2.472,18.943,18.943,0,0,0-.44-4.5c-.527-2.177-1.1-5.46-.6-6.623S389.547,2798.81,389.547,2798.81Z" transform="translate(-223.396 -2752.777)"/>
      <path id="Path_6416" data-name="Path 6416" d="M13.213,1.684S3.952,4.4,3.8,7.118s-2.121,5.067-2.4,6.514,0,6.818-.334,6.313A14,14,0,0,1,0,13.88,16.675,16.675,0,0,1,1.678,7.745,22.228,22.228,0,0,1,8.272.44C10.358-1.039,13.213,1.684,13.213,1.684Z" transform="translate(157.301 38.257) rotate(-2)"/>
      <g id="Group_683" data-name="Group 683" transform="translate(156.679 44.235)">
        <path id="Path_6412" data-name="Path 6412" d="M6208.707,608.941a4.924,4.924,0,0,1,0,6.526c-1.474,1.451-4.075,1.145-5.894-.719s-2.853-5.3-1.38-6.75S6206.889,607.072,6208.707,608.941Z" transform="translate(-6190.329 -591.55)" fill="rgba(98,85,72,0.31)" stroke="#000" stroke-width="1"/>
        <path id="Path_6413" data-name="Path 6413" d="M6207.921,608.941a5.335,5.335,0,0,1,0,6.526c-1.328,1.451-3.676,1.145-5.311-.719s-2.571-5.3-1.244-6.75S6206.282,607.072,6207.921,608.941Z" transform="translate(-6200.735 -592.737)" fill="rgba(98,85,72,0.31)" stroke="#000" stroke-width="1"/>
        <path id="Path_6414" data-name="Path 6414" d="M6190.937,593.73c.138-1.856.73-3.287,2.461-5.818s3.971-4.288,3.218-4.288a49.491,49.491,0,0,0-5.455,1.64l-1.419,8.22S6190.8,595.585,6190.937,593.73Z" transform="translate(-6187.075 -583.624)"/>
        <path id="Path_6417" data-name="Path 6417" d="M6199.2,615.685l2.009.211" transform="translate(-6190.9 -596.651)" fill="none" stroke="#000" stroke-width="1"/>
        <path id="Path_6422" data-name="Path 6422" d="M6232.148,619.391c-.347.155-3.505-3.887-4.432-5.993s-.532-3.175.954-.815S6232.5,619.237,6232.148,619.391Z" transform="translate(-6202.231 -594.847)" fill="#efc193"/>
      </g>
      <path id="Path_9289" data-name="Path 9289" d="M106.533,24.345s-1.9.677-1.981,2.151a51.512,51.512,0,0,0,.529,5.861l-1.6,4.29,1.068,7.428,7.153-5.507Z" transform="translate(-20.787 -4.892)" fill="#bc907b"/>
      <path id="Path_9290" data-name="Path 9290" d="M99.371,43.6l3.649,1.912,26.153,6.75s-2.317,10.944-3.485,12.156-2.684,4.276-4.795,4.372a14.057,14.057,0,0,1-5.558-.939c-.879-.452-12.626-9.11-13.629-11.224a23.4,23.4,0,0,1-2.341-6.414,22.313,22.313,0,0,1,.006-6.614Z" transform="translate(-19.911 -8.759)" fill="#bc907b"/>
    </g>
  </g>
</svg>
