<svg xmlns="http://www.w3.org/2000/svg" xmlns:xlink="http://www.w3.org/1999/xlink" width="727.47" height="181.4" viewBox="0 0 727.47 181.4">
  <defs>
    <clipPath id="clip-Custom_Size_1">
      <rect width="727.47" height="181.4"/>
    </clipPath>
  </defs>
  <g id="Custom_Size_1" data-name="Custom Size – 1" clip-path="url(#clip-Custom_Size_1)">
    <g id="UX" transform="translate(64.428 -39)">
      <path id="Path_8295" data-name="Path 8295" d="M155.416,137.1s90.872-35.969,107.1-32.43S386.246,137.1,386.246,137.1l92.263,30.823V218.2H174.353Z" transform="translate(6 -6)" fill="#e0ebdc"/>
      <path id="Path_8296" data-name="Path 8296" d="M447.113,103.7S620.864,54.941,668.941,59.652s176.3,50.816,176.3,50.816v33.4H512.555Z" transform="translate(-180.206 39)" fill="#d4e6cf"/>
      <path id="Path_8294" data-name="Path 8294" d="M0,143.67S133.289,80.029,170.258,80.492,403.167,113.143,439.3,113.448c.935-.06,0,49.37,0,49.37H0Z" transform="translate(-64.428 39)" fill="#d4e6cf"/>
      <g id="banner" transform="translate(144.569 124.486)">
        <path id="lawn2" d="M308.554,663.762,131.03,680.026H91L-143.216,713.92l123.527,20.66H391.206Z" transform="translate(-11.883 -661.086)" fill="#6b8464"/>
        <path id="lawn1" d="M12.311,682.349s-17.883,6.276-6.932,12.6c.639.737,4.486,1.445,4.584,1.425,9.881.447,41.11-5.553,41.11-5.553a324.721,324.721,0,0,1,80.206-2.288C174.53,692.86,322.1,737.67,322.1,737.67l106.711-11.176S263.493,660.688,219.472,665.21,52.636,682.349,12.311,682.349Z" transform="translate(67.11 -663.39)" fill="#709367"/>
      </g>
      <g id="bottomplatns" transform="translate(-0.428 99.728)">
        <path id="Path_8153" data-name="Path 8153" d="M6200,985.389s4.7-7.84,6.135-9.8,1.188-1.594,1.584-2.125,2.026,1.284,2.026,1.284l-.575-3.231,3.526-2.315.477,11.114-5.159,1.086,4.1,1.457s.674,4.695.3,4.695h-4.7l3.014,2.191v4.132s9.009-6.181,11.932-7.586,2.032-.9,2.032-.9a21.482,21.482,0,0,0,3.117,1.348c-.039-.212-1-2.363-1-2.363a39.79,39.79,0,0,1,4.622-.917c1.184-.052-2.984,8.967-2.984,8.967l-2.762-.816,2.125,3.508-2.58,4.783-3.761-1.126,2.381,3.774S6200,1015.757,6200,985.389Z" transform="translate(-6072.832 -916.04)" fill="#3d4b39"/>
        <path id="Path_8154" data-name="Path 8154" d="M6253.291,995.357l.965-3.8,1.408.278-1.146-1.167.427-1.193h1.257l-.538-1.09a9.4,9.4,0,0,1,2.925-4.1,26.748,26.748,0,0,1,6.1-3.336l-3.01,7.432h-1.86l.8,1.5-.8.782-1.531-.335,1.033,1.224Z" transform="translate(-6103.486 -904.513)" fill="#3d4b39"/>
        <path id="Path_8155" data-name="Path 8155" d="M15.1,32.843,0,17.834S15.713,29.269,15.1,28.057,0,7.765,0,7.765s16.077,16.015,15.959,14.7-3.584-9.634-3.584-9.634l8.037,9.634-.56-18.86s6.989,17.42,7.122,17.054,1.142-4.335,1.142-4.335,1.6,6.113,2.171,5.43S35.538,0,35.538,0L34.414,22.971,38.627,7.765V25.912l8.76-12.194-7.2,20.99Z" transform="translate(350.616 68.725) rotate(-14)" fill="#3d4b39"/>
        <path id="Path_8156" data-name="Path 8156" d="M3.8,50.125C3.8,46.167-1.283,38.8.308,34.576A24.8,24.8,0,0,1,2.7,29.318S5.7,34.9,5.882,38.609A15.794,15.794,0,0,1,5.4,44.144L9.661,32.807a11.1,11.1,0,0,1-2.29-9.37c1.292-5.372,1.818-6.1,1.818-6.1a16.549,16.549,0,0,1,1.85,5.477,31.816,31.816,0,0,1-.015,7.057s3.773-5.957,6.193-8.982a52.451,52.451,0,0,0,3.8-5.242l-.909-6.358,2.461-4.012.63,4.691S22.3,14.12,22,14.927c-.656,1.748,4.415-4.7,5.317-5.642C28,8.564,30,3.116,30,3.116L35.844,0,32.322,6.345,28.9,9.546l3.821-.976,5.389.255-5.846,3.88L27.313,11.1A42.3,42.3,0,0,0,22,16.4a45.822,45.822,0,0,0-4.258,6.409l7.393-3.268h4.025L22,24.955H16.418s-4,5.612-5.378,8.934,3.439-4.033,7.889-4.981a46.149,46.149,0,0,1,8.385-.965S23.47,32.735,19.6,33.889s-8.563,2.176-8.563,2.176S7.9,40.8,7.371,43.526a23.761,23.761,0,0,1-2.427,5.99Z" transform="matrix(0.891, -0.454, 0.454, 0.891, 456.648, 66.832)" fill="#3d4b39"/>
        <path id="Path_8159" data-name="Path 8159" d="M0,11.436S3.239,5.9,4.224,4.512s.818-1.126,1.091-1.5,1.4.907,1.4.907l-.4-2.282L8.743,0l.328,7.852-3.552.767,2.82,1.029s.464,3.317.209,3.317H5.315l2.076,1.548v2.919s6.2-4.367,8.215-5.36,1.4-.636,1.4-.636a14.6,14.6,0,0,0,2.146.953c-.027-.15-.689-1.669-.689-1.669a26.8,26.8,0,0,1,3.182-.648c.815-.037-2.054,6.335-2.054,6.335l-1.9-.577,1.463,2.478-1.776,3.379-2.589-.8,1.64,2.666L13.684,27.7s2.7,5.769,1.922,5.551S0,32.892,0,32.892Z" transform="translate(453.128 67.744) rotate(13)" fill="#3d4b39"/>
        <path id="Path_8160" data-name="Path 8160" d="M6520.8,1099.524l2.707-11.5s-8.132,6.458-7.813,5.774,7.813-11.46,7.813-11.46-8.32,9.045-8.26,8.3,1.855-5.44,1.855-5.44l-4.16,5.44.29-10.651s-3.617,9.838-3.686,9.631-.591-2.448-.591-2.448-.831,3.452-1.124,3.067-2.717-12.288-2.717-12.288l.582,12.973-2.181-8.588v10.249l-4.533-6.887v13.821Z" transform="translate(-6396.457 -1018.884)" fill="#3d4b39"/>
        <path id="Path_8161" data-name="Path 8161" d="M6521.212,1100s-.414-2.872,0-3.686-1.207-2.391-1.128-3.272a67.59,67.59,0,0,1,2.406-6.468l-5.4,6.468.376-12.662s-4.692,11.7-4.782,11.449-.767-2.91-.767-2.91-1.077,4.1-1.458,3.645-3.525-14.607-3.525-14.607l.755,15.422-2.828-10.209v12.183l-5.881-8.187,4.832,14.091Z" transform="translate(-5982.519 -1007.088)" fill="#3d4b39"/>
        <path id="Path_8162" data-name="Path 8162" d="M6089.993,1053.008s2.386-7.36,2-7.946-2-3.107-2-3.107l-.959,3.107v-4.436l-2.6-2.215v4.507l-1.3-5.555-2.272-1.855v2.9l-1.888-3.965-4.31-2.619.8,5.536,3.513,2.458h-2.358v2.135l5.116,2.207-4.508-1.245.849,2.964,5.062,1.5h-4.161l1.225,3.166,6.832,2.457S6094.6,1069.351,6089.993,1053.008Z" transform="translate(-5642.391 -966.959)" fill="#3d4b39"/>
        <path id="Path_8163" data-name="Path 8163" d="M6532.92,1107.262l15.865-13.393s-16.513,10.2-15.865,9.123,15.865-18.108,15.865-18.108-16.9,14.291-16.771,13.12,3.767-8.6,3.767-8.6l-8.447,8.6.589-16.829s-7.344,15.545-7.485,15.218-1.2-3.868-1.2-3.868-1.687,5.455-2.281,4.845-5.519-19.415-5.519-19.415l1.182,20.5-4.428-13.569v16.193l-9.206-10.881,7.563,18.729Z" transform="translate(-6016.254 -1009.776)" fill="#3d4b39"/>
        <path id="Path_8164" data-name="Path 8164" d="M8.271,10.456l-.7-2.761-1.021.2.832-.847-.31-.866H6.158l.39-.791A6.817,6.817,0,0,0,4.426,2.421,19.4,19.4,0,0,0,0,0L2.185,5.393h1.35L2.952,6.482l.582.568,1.111-.243-.75.888Z" transform="matrix(-0.035, 0.999, -0.999, -0.035, 470.622, 74.799)" fill="#3d4b39"/>
        <path id="Path_8165" data-name="Path 8165" d="M.52,16.576C1.381,15.668,0,0,0,0S1.02,9.286,1.668,7.577,2.7,0,2.7,0L5.186,7.577l1.4-2.722S7.816,10.423,8.3,9.042s1.787-4.186,1.787-4.186l1.895,2.722,1.1-4.6L16.29,9.042l1.57-3.15s1.612,1.99,1.957,1.686S22.914,0,22.914,0V7.577L26.16,2.012v7.03s2.463,7.228.767,7.141-12.913,2.483-12.913,2.483Z" transform="translate(163.088 69.951) rotate(2)" fill="#3d4b39"/>
        <path id="Path_8169" data-name="Path 8169" d="M6107.49,788.971c1-.341,10.417-5.945,10.417-5.945L6115.164,786Z" transform="translate(-5962.042 -717.462)" fill="#3d4b39"/>
        <path id="Path_8170" data-name="Path 8170" d="M7182.86,906.342l1.761-7.023s1.188,9.422,1.555,7.023.938-10.011.938-10.011,2.2,9.689,2.267,8.938,2.454-8.938,2.454-8.938,2.664,13.851,2.763,8.938-1.357-16.306-1.357-16.306l6.377,14.917v-7.549s5.195,7.6,5.223,6.6-5.223-13.97-5.223-13.97,10.058,15.061,10.1,13.97-1.1-9.308-1.1-9.308l7.173,7.738-1.758,4.98-24.645,3.448Z" transform="translate(-6782.553 -816.074)" fill="#3d4b39"/>
        <path id="Path_8171" data-name="Path 8171" d="M6016.809,843.739h7s21.524,10.713,26.363,10.12c2.3-.283,21.384-6.806,34.867-7.8,14.7-1.081,30.849,3.377,30.849,3.377l4.641-3.377,24.242-2.324,19.587,5.7,41.5-3.377,45.4,7.8,25.647-4.419,8.379,4.419h6.205l13.4,3.508h16.881l107.413-7.927,73.022-.085-.454,38.462-728.875,2.268V849.44l65.938-10.248,65.621,4.547s50.375-.056,50.872,0c1.458.165,42.211,2.324,42.211,2.324Z" transform="translate(-5838.572 -765.494)" fill="#3d4b39"/>
        <path id="Path_8172" data-name="Path 8172" d="M7182.86,906.342l1.761-7.023s1.188,9.422,1.555,7.023.938-10.011.938-10.011,2.2,9.689,2.267,8.938,2.454-8.938,2.454-8.938,2.664,13.851,2.763,8.938-1.357-16.306-1.357-16.306l6.377,14.917v-7.549s5.195,7.6,5.223,6.6-5.223-13.97-5.223-13.97,10.058,15.061,10.1,13.97-1.1-9.308-1.1-9.308l7.173,7.738-1.758,4.98-24.645,3.448Z" transform="translate(-6725.193 -808.865)" fill="#3d4b39"/>
        <path id="Path_8173" data-name="Path 8173" d="M0,15.032,2.071,7.5s.919,6.827,1.2,5.089S4,5.339,4,5.339s1.7,7.021,1.755,6.477,1.9-6.477,1.9-6.477,2.062,10.037,2.139,6.477A113.723,113.723,0,0,0,8.743,0l4.936,10.809V5.339s4.021,5.51,4.043,4.784S13.679,0,13.679,0s7.786,10.913,7.814,10.123-.852-6.745-.852-6.745l5.553,5.607-1.361,3.608-19.077,2.5Z" transform="translate(267.064 71.897) rotate(13)" fill="#3d4b39"/>
        <path id="Path_8174" data-name="Path 8174" d="M427.013,877.39l4.48-4.816-1.74,8.245,3.988-5.267,1.362,6.366,2.391-1.1h2.856v5.212l3.623-4.113v5.453l3.008-3.735,1.888,5.989v-5.989s3.641,6.085,4.044,5.989,1.784-2.254,1.784-2.254l2.533,4.049,1.915-1.795,2.111,3.422,2.692-1.627,3.405,4.936,17.354,3.867,37.5-3.867v-6.731l2.368,5.08v-7.335l2.174,5.677,4.2-13.4-1.32,13.4,4.6-5.677-1.778,5.677,4-3.422v5.08l2.55-1.658v7.176l-51.032,2.615L440.35,894.7l-18.436-15.055Z" transform="translate(-221.448 -794.93)" fill="#3d4b39"/>
      </g>
    </g>
  </g>
</svg>
