<svg xmlns="http://www.w3.org/2000/svg" xmlns:xlink="http://www.w3.org/1999/xlink" width="717.034" height="307.511" viewBox="0 0 717.034 307.511">
  <defs>
    <linearGradient id="linear-gradient" x1="0.068" y1="0.436" x2="1.887" y2="0.371" gradientUnits="objectBoundingBox">
      <stop offset="0" stop-color="#e6e4e4"/>
      <stop offset="1" stop-color="gray"/>
    </linearGradient>
  </defs>
  <g id="two-guys-working" transform="translate(-18.834 -0.005)">
    <g id="Plant_1_" transform="translate(628.305 175.798)">
      <path id="Path_983" data-name="Path 983" d="M658.935,504.158S677.21,493.193,692.561,491c0,0-5.848,18.275-19.737,31.432s-51.9,38.742-51.9,38.742L618,531.2Z" transform="translate(-614.345 -482.959)" fill="#264a25"/>
      <path id="Path_984" data-name="Path 984" d="M720.993,527s3.216,6.14-25.439,7.822-72.514,35.307-72.514,35.307L615,562.087l5.848-8.772s42.4-25.585,58.479-25.585,22.661-.731,32.9.731C712.222,528.462,718.8,529.193,720.993,527Z" transform="translate(-613.538 -492.643)" fill="#4c7f3c"/>
      <path id="Path_986" data-name="Path 986" d="M615,564.038s48.245-22.661,57.017-29.971,19.737-17.544,22.661-22.661c0,0,2.193-2.193,3.655-1.462s.731,16.813-4.386,22.661-5.117,8.772-16.813,13.158c-6.652,2.485-27.778,13.962-43.128,18.275C622.456,567.328,615,564.038,615,564.038Z" transform="translate(-613.538 -488.015)" fill="#4d8a2a"/>
      <path id="Path_987" data-name="Path 987" d="M627.666,577.593s23.3-14.148,33.534-16.342,19.006-4.386,29.971,3.655,10.971,4.3,17.544,5.117l-9.672,7.57Z" transform="translate(-615.152 -501.312)" fill="#579d37"/>
      <path id="Path_1272" data-name="Path 1272" d="M669.667,514.632c14.824.468-32.944,30.79-39.122,31.445s-3.112-5.175-3.112-5.175S654.843,514.164,669.667,514.632Z" transform="translate(-612.04 -477.569)" fill="#3a622d"/>
      <path id="Path_1273" data-name="Path 1273" d="M613,542.134s5.117-19.737,25.585-38.011c0,0,13.158-10.234,19.006-13.158S670.748,480,670.748,480s2.193,0-1.462,6.579-4.386,9.5-5.848,12.427-2.924,18.275-8.041,21.2-10.234,19.006-36.549,34.356Z" transform="translate(-613 -480)" fill="#4b8730"/>
      <path id="Path_1274" data-name="Path 1274" d="M627.1,547.96s27.609-20.549,30.964-32.866,11.3-30.893,11.3-30.893-7.306,7.457-10.24,14.974a110.054,110.054,0,0,1-8.564,17.677C646.429,524.139,627.1,547.96,627.1,547.96Z" transform="translate(-612.01 -479.705)" fill="#579d37"/>
      <path id="Path_1275" data-name="Path 1275" d="M4477.9,2639.265s12.072,6.693,9.385,7.052S4477.9,2639.265,4477.9,2639.265Z" transform="translate(-4407.374 -2578.488)" fill="#6fbc4c"/>
    </g>
    <g id="Group_464" data-name="Group 464" transform="translate(18.829 144.292)">
      <path id="Path_1277" data-name="Path 1277" d="M3870.135,2539.653c6.181-3.194,59.066-16.594,63.425-8.038s-41.782,104.545-41.782,104.545h-14.346S3863.952,2542.847,3870.135,2539.653Z" transform="translate(-3868.507 -2528.409)" fill="#3b474d"/>
      <path id="Path_1276" data-name="Path 1276" d="M3868,2537.658c3.7-4.047,50.32-14.578,54.278-6.022s-29.362,104.649-29.362,104.649l-19.182-.119S3864.3,2541.706,3868,2537.658Z" transform="translate(-3850.731 -2528.376)"/>
    </g>
    <g id="Left-notebook" transform="translate(81.235 261.835)">
      <path id="Path_995" data-name="Path 995" d="M61.777,606l45.09,11.735s-44.149-8.145-59.949-11.1Z" transform="translate(-46.919 -590.57)" fill="#1a2a38"/>
      <g id="Group_360" data-name="Group 360" transform="translate(13.935)">
        <path id="Path_996" data-name="Path 996" d="M62,600.3l46.014,12.2,63.939-10.349L127.695,589.3S111.8,595.583,62,600.3Z" transform="translate(-62 -589.3)" fill="#fff"/>
        <path id="Path_997" data-name="Path 997" d="M111.8,618.261l63.939-10.349V603.2L111.8,613.549Z" transform="translate(-65.786 -590.357)" fill="#c1b9be"/>
        <path id="Path_998" data-name="Path 998" d="M108.014,613.4,62,601.2v4.712l46.014,12.2Z" transform="translate(-62 -590.205)" fill="#8b8184"/>
      </g>
      <g id="Group_361" data-name="Group 361" transform="translate(14.859 11.735)">
        <path id="Path_999" data-name="Path 999" d="M63.37,606.9a3.164,3.164,0,0,1-.37-1.663A3.022,3.022,0,0,1,65.772,602" transform="translate(-63 -602)" fill="none" stroke="#0c1623" stroke-linecap="round" stroke-linejoin="round" stroke-miterlimit="10" stroke-width="1"/>
        <path id="Path_1000" data-name="Path 1000" d="M67.37,607.9a3.164,3.164,0,0,1-.37-1.663A3.022,3.022,0,0,1,69.772,603" transform="translate(-63.304 -602.076)" fill="none" stroke="#0c1623" stroke-linecap="round" stroke-linejoin="round" stroke-miterlimit="10" stroke-width="1"/>
        <path id="Path_1001" data-name="Path 1001" d="M71.37,608.9a3.164,3.164,0,0,1-.37-1.663A3.022,3.022,0,0,1,73.772,604" transform="translate(-63.608 -602.152)" fill="none" stroke="#0c1623" stroke-linecap="round" stroke-linejoin="round" stroke-miterlimit="10" stroke-width="1"/>
        <path id="Path_1002" data-name="Path 1002" d="M75.37,609.9a3.164,3.164,0,0,1-.37-1.663A3.022,3.022,0,0,1,77.772,605" transform="translate(-63.912 -602.228)" fill="none" stroke="#0c1623" stroke-linecap="round" stroke-linejoin="round" stroke-miterlimit="10" stroke-width="1"/>
        <path id="Path_1003" data-name="Path 1003" d="M79.37,610.9a3.164,3.164,0,0,1-.37-1.663A3.022,3.022,0,0,1,81.772,606" transform="translate(-64.216 -602.304)" fill="none" stroke="#0c1623" stroke-linecap="round" stroke-linejoin="round" stroke-miterlimit="10" stroke-width="1"/>
        <path id="Path_1004" data-name="Path 1004" d="M83.37,611.9a3.164,3.164,0,0,1-.37-1.663A3.022,3.022,0,0,1,85.772,607" transform="translate(-64.52 -602.38)" fill="none" stroke="#0c1623" stroke-linecap="round" stroke-linejoin="round" stroke-miterlimit="10" stroke-width="1"/>
        <path id="Path_1005" data-name="Path 1005" d="M87.37,612.9a3.165,3.165,0,0,1-.37-1.663A3.022,3.022,0,0,1,89.772,608" transform="translate(-64.825 -602.456)" fill="none" stroke="#0c1623" stroke-linecap="round" stroke-linejoin="round" stroke-miterlimit="10" stroke-width="1"/>
        <path id="Path_1006" data-name="Path 1006" d="M91.37,613.9a3.164,3.164,0,0,1-.37-1.663A3.022,3.022,0,0,1,93.772,609" transform="translate(-65.129 -602.532)" fill="none" stroke="#0c1623" stroke-linecap="round" stroke-linejoin="round" stroke-miterlimit="10" stroke-width="1"/>
        <path id="Path_1007" data-name="Path 1007" d="M95.37,614.9a3.164,3.164,0,0,1-.37-1.663A3.022,3.022,0,0,1,97.772,610" transform="translate(-65.433 -602.608)" fill="none" stroke="#0c1623" stroke-linecap="round" stroke-linejoin="round" stroke-miterlimit="10" stroke-width="1"/>
        <path id="Path_1008" data-name="Path 1008" d="M99.37,615.9a3.164,3.164,0,0,1-.37-1.663A3.022,3.022,0,0,1,101.772,611" transform="translate(-65.737 -602.684)" fill="none" stroke="#0c1623" stroke-linecap="round" stroke-linejoin="round" stroke-miterlimit="10" stroke-width="1"/>
        <path id="Path_1009" data-name="Path 1009" d="M103.37,616.9a3.164,3.164,0,0,1-.37-1.663A3.022,3.022,0,0,1,105.772,612" transform="translate(-66.041 -602.76)" fill="none" stroke="#0c1623" stroke-linecap="round" stroke-linejoin="round" stroke-miterlimit="10" stroke-width="1"/>
        <path id="Path_1010" data-name="Path 1010" d="M107.37,617.9a3.165,3.165,0,0,1-.37-1.663A3.022,3.022,0,0,1,109.772,613" transform="translate(-66.345 -602.836)" fill="none" stroke="#0c1623" stroke-linecap="round" stroke-linejoin="round" stroke-miterlimit="10" stroke-width="1"/>
      </g>
    </g>
    <g id="Papers" transform="translate(405.655 248.614)">
      <path id="Path_988" data-name="Path 988" d="M418,632.564h80.171L537.555,590.8H462.388Z" transform="translate(-370.905 -576.192)" fill="#ccdee9"/>
      <g id="Group_356" data-name="Group 356" transform="translate(66.498 21.26)">
        <line id="Line_16" data-name="Line 16" x1="52.667" transform="translate(0 27.719)" fill="none" stroke="#a0b0cb" stroke-linecap="round" stroke-miterlimit="10" stroke-width="1"/>
        <line id="Line_17" data-name="Line 17" x1="52.667" transform="translate(3.696 24.947)" fill="none" stroke="#a0b0cb" stroke-linecap="round" stroke-miterlimit="10" stroke-width="1"/>
        <line id="Line_18" data-name="Line 18" x1="52.667" transform="translate(6.468 22.175)" fill="none" stroke="#a0b0cb" stroke-linecap="round" stroke-miterlimit="10" stroke-width="1"/>
        <line id="Line_19" data-name="Line 19" x1="52.667" transform="translate(9.24 19.404)" fill="none" stroke="#a0b0cb" stroke-linecap="round" stroke-miterlimit="10" stroke-width="1"/>
        <line id="Line_20" data-name="Line 20" x1="52.667" transform="translate(12.936 16.632)" fill="none" stroke="#a0b0cb" stroke-linecap="round" stroke-miterlimit="10" stroke-width="1"/>
        <line id="Line_21" data-name="Line 21" x1="52.667" transform="translate(15.708 13.86)" fill="none" stroke="#a0b0cb" stroke-linecap="round" stroke-miterlimit="10" stroke-width="1"/>
        <line id="Line_22" data-name="Line 22" x1="52.667" transform="translate(22.175 8.316)" fill="none" stroke="#a0b0cb" stroke-linecap="round" stroke-miterlimit="10" stroke-width="1"/>
        <line id="Line_23" data-name="Line 23" x1="52.667" transform="translate(24.947 5.544)" fill="none" stroke="#a0b0cb" stroke-linecap="round" stroke-miterlimit="10" stroke-width="1"/>
        <line id="Line_24" data-name="Line 24" x1="52.667" transform="translate(27.719 2.772)" fill="none" stroke="#a0b0cb" stroke-linecap="round" stroke-miterlimit="10" stroke-width="1"/>
        <line id="Line_25" data-name="Line 25" x1="52.667" transform="translate(30.491)" fill="none" stroke="#a0b0cb" stroke-linecap="round" stroke-miterlimit="10" stroke-width="1"/>
        <line id="Line_26" data-name="Line 26" x1="52.667" transform="translate(19.404 11.088)" fill="none" stroke="#a0b0cb" stroke-linecap="round" stroke-miterlimit="10" stroke-width="1"/>
      </g>
      <g id="Group_357" data-name="Group 357">
        <path id="Path_989" data-name="Path 989" d="M409.633,631.99c13.583,0-25.04-1.663-29.013-4.99,0,0-3.7,2.772-4.62.924C376,627.924,375.815,631.99,409.633,631.99Z" transform="translate(-367.713 -578.945)" fill="#a1bacb"/>
        <path id="Path_990" data-name="Path 990" d="M367.031,574.991l62.8,4.629s21.251,33.263,43.427,45.275c0,0-81.31,8.316-93.322-1.848,0,0-3.7,2.772-4.62.924S369.8,607.33,367.031,574.991Z" transform="translate(-367.031 -574.991)" fill="#e4f1fa"/>
      </g>
      <line id="Line_27" data-name="Line 27" x1="47.123" transform="translate(10.597 18.026)" fill="none" stroke="#a0b0cb" stroke-linecap="round" stroke-miterlimit="10" stroke-width="1"/>
      <line id="Line_28" data-name="Line 28" x1="17.001" transform="translate(9.673 14.33)" fill="none" stroke="#a0b0cb" stroke-linecap="round" stroke-miterlimit="10" stroke-width="1"/>
      <line id="Line_29" data-name="Line 29" x1="20.79" transform="translate(36.007 14.33)" fill="none" stroke="#a0b0cb" stroke-linecap="round" stroke-miterlimit="10" stroke-width="1"/>
      <line id="Line_30" data-name="Line 30" x1="47.123" transform="translate(11.521 21.722)" fill="none" stroke="#a0b0cb" stroke-linecap="round" stroke-miterlimit="10" stroke-width="1"/>
      <line id="Line_31" data-name="Line 31" x1="52.667" transform="translate(12.445 25.418)" fill="none" stroke="#a0b0cb" stroke-linecap="round" stroke-miterlimit="10" stroke-width="1"/>
      <g id="Group_358" data-name="Group 358" transform="translate(13.369 31.424)">
        <path id="Path_991" data-name="Path 991" d="M388.506,613.158h-4.62A10.727,10.727,0,0,1,382.5,609h4.62A10.727,10.727,0,0,0,388.506,613.158Z" transform="translate(-381.576 -609)" fill="none" stroke="#a0b0cb" stroke-linecap="round" stroke-linejoin="round" stroke-miterlimit="10" stroke-width="1"/>
        <path id="Path_992" data-name="Path 992" d="M385.2,611.424l-1.848-.924-1.848,2.772" transform="translate(-381.5 -609.114)" fill="none" stroke="#a0b0cb" stroke-linecap="round" stroke-linejoin="round" stroke-miterlimit="10" stroke-width="1"/>
      </g>
      <g id="Group_359" data-name="Group 359" transform="translate(15.217 38.816)">
        <path id="Path_993" data-name="Path 993" d="M390.506,621.158h-4.62A10.728,10.728,0,0,1,384.5,617h4.62a10.728,10.728,0,0,0,1.386,4.158Z" transform="translate(-383.576 -617)" fill="none" stroke="#a0b0cb" stroke-linecap="round" stroke-linejoin="round" stroke-miterlimit="10" stroke-width="1"/>
        <path id="Path_994" data-name="Path 994" d="M387.2,619.424l-1.848-.924-1.848,2.772" transform="translate(-383.5 -617.114)" fill="none" stroke="#a0b0cb" stroke-linecap="round" stroke-linejoin="round" stroke-miterlimit="10" stroke-width="1"/>
      </g>
      <line id="Line_32" data-name="Line 32" y1="0.924" x2="42.503" transform="translate(26.767 32.348)" fill="none" stroke="#a0b0cb" stroke-linecap="round" stroke-miterlimit="10" stroke-width="1"/>
      <line id="Line_33" data-name="Line 33" y1="0.924" x2="50.819" transform="translate(28.615 39.74)" fill="none" stroke="#a0b0cb" stroke-linecap="round" stroke-miterlimit="10" stroke-width="1"/>
      <path id="Path_1239" data-name="Path 1239" d="M4253.046,2663.1s-12.745-3.407-25.373,0c-13.446,4.9.028,13.054-8.776,13.214-18.3.333-28.006,4.525-29.393,4.666a45.532,45.532,0,0,0-5.68,1.069c-.043-1.621-3.2-10.5-5.319-35.618h62.676Z" transform="translate(-4178.067 -2641.673)" fill="#97a6af" opacity="0.414"/>
    </g>
    <g id="left_man" data-name="left man" transform="translate(44.833)">
      <path id="Path_1165" data-name="Path 1165" d="M4053.154,2528.372c-7.2,5.939-27.918,29.2-42.078,2.022s-23.6-43.82-20.723-70.165-4.261-43.479,13.816-41.127,21.367,20.724,29.257,34.566,12.793,36.789,13.61,39.241,6.271,11.52,7.545,14.322S4053.154,2528.372,4053.154,2528.372Z" transform="translate(-3886.059 -2375.761)" fill="#bc907b"/>
      <path id="Path_1282" data-name="Path 1282" d="M1136.606,2519.6c-6.086,5.169-32.531-11.331-32.531-11.331s-7.554-8.139-11.132-10.064c-3.241-1.74-7.545,2.339-10.352,1.349-1.077-.36-1.322-4.533-1.861-7.113,0,0,5.375-33.81,7.049-23.246-.49,6.068,6.77,24.511,8.57,23.246,4.08-2.869,9.552-5.154,9.752-1.054.008.172.506,3.872.715,4.363C1108.37,2502.922,1149,2509.079,1136.606,2519.6Z" transform="translate(-978.583 -2398.178)" opacity="0.251"/>
      <path id="Path_1167" data-name="Path 1167" d="M3998.557,2510.469s35.6,30.807,44.775,13.979c2.587-4.746,4.7-5.723,6.707-4.405,4.3,2.786,6.634,19.578,9,23.281,3.288,5.156,20.61,35.75,17.945,46.677s-31.586,25.531-42.648,17.734-3.883,11.587-11.712-17.734S3998.557,2510.469,3998.557,2510.469Z" transform="translate(-3886.723 -2382.724)" fill="#fff"/>
      <path id="Path_1164" data-name="Path 1164" d="M4070.67,2495.476s16.063,3.436,18.028,8.257,17.564,76.012,18.838,78.761-24.967,12.561-28.368,4.5-20.551-59.285-20.551-59.919S4070.67,2495.476,4070.67,2495.476Z" transform="translate(-3891.289 -2381.584)" fill="#2c5dba"/>
      <path id="Path_1158" data-name="Path 1158" d="M3976.938,2468.405s-57.647,30.206-63.86,35.047-13.144-1.265-15.4,16.374-20.562,75.606-19.713,85.769,1.2,26.013,1.2,26.013l143.606,1.335s-19.934-102.877-23.434-110.584S3976.938,2468.405,3976.938,2468.405Z" transform="translate(-3877.553 -2379.526)" fill="#2c5dba"/>
      <path id="Path_1160" data-name="Path 1160" d="M3934.939,2519.336c-4.355-.334,30.567,15.263,14.835,65-5.711,18.053-2.914,53.672.141,52.438,1.641-.649,9.38-1.217,6.461-14.8-3.866-17.351,3.3-58.6,2.357-67.213C3956.448,2533.882,3939.293,2519.67,3934.939,2519.336Z" transform="translate(-3881.857 -2383.397)" fill="#1f4fac"/>
      <path id="Path_1163" data-name="Path 1163" d="M4045.666,2504.735s2.075,10.658,5.176,16.46,24.41,56.926,27.56,70.266.615-26.066,0-36.365c-.387-6.478,2.9-13.177,2.983-17.451.05-2.074-1.423-3.57-4.306-3.3-7.771.713-18.017.942-10.992-3.269s19.862,2.785,12.314-5.291-14.5-21.046-14.5-21.046Z" transform="translate(-3890.304 -2382.288)" fill="#3f6abc"/>
      <path id="Path_1170" data-name="Path 1170" d="M4033.3,2441.216l37.918,18.479-8.754,42.48h-6.4l-34.558-23.479.708-18.319,6.373-21.846Z" transform="translate(-3888.468 -2377.459)" fill="#bc907b"/>
      <path id="Path_1171" data-name="Path 1171" d="M4073.661,2478.142a102.585,102.585,0,0,0-2.728,12.671c-1,6.717-1.437,14.927-4.635,16.464-6.32,3.037-12.686-15.367-12.686-15.367l8.851-15.175Z" transform="translate(-3890.908 -2380.159)" fill="#bc907b"/>
      <path id="Path_1172" data-name="Path 1172" d="M4017.8,2458.588s-3.731,13.35-1.12,19c1.368,2.96,8.566,11.414,15.37,16.67a78.074,78.074,0,0,0,15.259,9.266c7.007,2.981,14.945,3.114,16.082,2.5s6.823-24.921,7.785-30.131-44.794,8.581-47.425,1.957-2.576-2.184-1.521-8.92a10.807,10.807,0,0,0-4.429-10.336Z" transform="translate(-3888.097 -2378.78)" fill="#bc907b"/>
      <path id="Path_1178" data-name="Path 1178" d="M4057.167,2486.931c3-4.685-2.255,7.814-2.255,7.814S4054.162,2491.616,4057.167,2486.931Z" transform="translate(-3891.001 -2380.854)"/>
      <path id="Path_1180" data-name="Path 1180" d="M4071.01,2473.113s9.679-22.771,5.116-55.758-54.946,12.733-54.946,12.733,25.288,24.783,37.745,35.539S4071.01,2473.113,4071.01,2473.113Z" transform="translate(-3888.443 -2374.736)" fill="#bc907b"/>
      <path id="Path_1184" data-name="Path 1184" d="M4076.577,2448.43s5.309,26.2,4.84,28.866-6.427,1.71-12.572,0S4076.577,2448.43,4076.577,2448.43Z" transform="translate(-3892.215 -2379.367)" fill="#bc907b"/>
      <path id="Path_1241" data-name="Path 1241" d="M4180.172,2682.029c.912.1-21.087,2.627-21.087,2.627l-1.84-1.4-8.487,3.711-14.259-5.818-2.567-34.966,43,.11S4179.259,2681.927,4180.172,2682.029Z" transform="translate(-3896.862 -2393.041)" opacity="0.31"/>
      <path id="Path_1246" data-name="Path 1246" d="M4076.357,2419.791a70.384,70.384,0,0,1-16.745,3.015c-9.539.439-23.054-5.315-24.479,1.348,1.514,10.562-3.836,11.875-13.394,18.838s.612,16.542,4.126,22.721,27.844,27.56,15.785,21.51-21.631-17.131-20.612-26.2a55.115,55.115,0,0,0-.135-8.377s-1.067-8.65,2.058-14.729c4.714-9.169,5.433-18.766,8.269-20.476s11.328-7.3,15.691-4.759c2.966,1.73,17.735-4.337,25.573-1.549C4075.8,2412.3,4076.357,2419.791,4076.357,2419.791Z" transform="translate(-3888.395 -2375.115)" fill="#9a7664"/>
      <path id="Path_1247" data-name="Path 1247" d="M4051.462,2488.21s-1.667-.2-5.989-.9-19.128-10.612-19.574-28.735c-.267-10.873-4.875-3.733-6.5,5.039-1.011,5.435.706,12.476.706,12.476l14.185,14.4,18.236,11.069,6.854,1.081s-5.532-12.466,0-16.975S4051.462,2488.21,4051.462,2488.21Z" transform="translate(-3888.283 -2378.36)" fill="#bc907b"/>
      <path id="Path_1254" data-name="Path 1254" d="M3972.936,2478.685s2.913,50.13,5.867,52.754,11.52,2.4,17.278-2.467,7.544,2.467,7.544,2.467-14.911,3.8-14.461,7.552,22.891,41,22.891,41-.258-51.639-4.463-58.666S3972.936,2478.685,3972.936,2478.685Z" transform="translate(-3884.774 -2380.307)" fill="#1f4fac"/>
      <path id="Path_1253" data-name="Path 1253" d="M4013.418,2454.365c-1.106,8.949,2.582-12.779,7.439-15.917s9.943-9.761,7.982-14.658-1.281-9.494,7.559-9.285,37.273,1.736,39.215-1.02,6.367-12.55-7.274-19.4-35.13-25.656-49.061-21.189-32.8,6.009-35.74,25.044,3.959,49.416,5.913,51.133-.388,1.52,4.207-10.625c1.489-3.935,7.027-3.326,10.393-1.759C4010.49,2437.791,4012.86,2444.691,4013.418,2454.365Z" transform="translate(-3885.526 -2372.213)"/>
      <path id="Path_1257" data-name="Path 1257" d="M4080.053,2532.026s1.314,1.609.4,2.178-13.46.153-14.151,1.482-3.22-1.5,3.165-3.383a24.077,24.077,0,0,1,4.454-.764,41.291,41.291,0,0,1,6.132.488Z" transform="translate(-3891.791 -2384.326)" fill="#3749af"/>
      <path id="Path_1258" data-name="Path 1258" d="M3906.413,2509.094s6.681,22.95,1.072,44.807-11.038,48.776-8.376,62.825,3.139,18.2,3.139,18.2l-23.119-.19s-2.363-22.044-1.4-28.362,21.162-84.563,21.381-90.723S3906.413,2509.094,3906.413,2509.094Z" transform="translate(-3877.522 -2382.619)" fill="#1f4fac"/>
      <path id="Path_1261" data-name="Path 1261" d="M3973.687,2476.921c-5.673-.542-18.67,5.64-18.67,5.64s16.169-13.023,26.972-14.954c0,0,.167-2.028.323-5.1s5.646-2.925,5.646-2.925c-.267,5.492.143,20.584-1.142,23.748C3984.567,2488.488,3979.36,2477.464,3973.687,2476.921Z" transform="translate(-3883.43 -2378.855)" fill="#0a2760"/>
      <path id="Path_1262" data-name="Path 1262" d="M3982.407,2459.074s-11.608,11.57-11.469,16.568,6.493,49.415,9.964,51.774,21.711-4.754,17.5,2.466-11.483,5.1-3.659,14.3,34.612,83.569,34.473,85.929-2.952-85.289-10.1-100.229S3975.988,2467.489,3982.407,2459.074Z" transform="translate(-3882.775 -2376.969)" fill="#3f6abc"/>
      <path id="Path_1280" data-name="Path 1280" d="M1104.45,2461.745c-7.255-1.6-11.042,19.859-11.679,21.718s-5.326-2.256-5.326-2.256l-2.953-18.055a36.126,36.126,0,0,1,11.581-3.711C1101.281,2458.89,1106.829,2461.912,1104.45,2461.745Z" transform="translate(-983.806 -2397.319)"/>
      <path id="Path_1281" data-name="Path 1281" d="M3906.343,2302.991s-9.388-1.808-8.522,8.365,2,10.644,2,10.644Z" transform="translate(-3787.587 -2238.509)" fill="#bc907b"/>
      <path id="Path_1601" data-name="Path 1601" d="M129.166,102.3s7.876-.256,8.084-1.73a1.893,1.893,0,0,0-1.244-1.991Z" transform="translate(-9.819 -7.494)" fill="#7c6051"/>
      <path id="Path_1283" data-name="Path 1283" d="M10.94,17.129S-.154,23.847,0,14.17,2.048,0,2.048,0Z" transform="translate(111.835 76.655) rotate(-13)" fill="#bc907b"/>
      <path id="Path_1284" data-name="Path 1284" d="M1105.576,2465.37s-8.76-3.245-9.227,3.775a30.924,30.924,0,0,0,1.491,12.08s-.3-8.836.257-11.527,4.255-3.345,6.01-2.986,1.469-.847,1.469-.847" transform="translate(-984.701 -2398.642)" fill="#9a7664"/>
      <path id="Path_1297" data-name="Path 1297" d="M1056.272,2652.112c2.413,11.4,27.917,12.858,27.917,12.858h-35.261l.811-16.573S1053.859,2640.715,1056.272,2652.112Z" transform="translate(-981.102 -2411.496)" fill="#3749af"/>
      <path id="Path_1589" data-name="Path 1589" d="M4031.92,2430.41c1.544-3.558-1.128-8.469-.342-11.381.371-1.437,2.621-1.936,6.149-1.852,8.841.209,38.981.625,40.922-2.131s6.367-12.549-7.275-19.4-28.054-2.063-40.387,3.215c-6.577,2.965-6.386,19.23-1.264,27.4a7.4,7.4,0,0,1,.306,7.647S4030.564,2433.625,4031.92,2430.41Z" transform="translate(-3888.564 -2373.774)" fill="#262626"/>
      <path id="Path_1590" data-name="Path 1590" d="M4051.867,2486.579c-1.711.763-1.893,1.07-6.011-.125s-19.432-12.246-19.877-30.368c-.267-10.873-5.126-11.36-6.757-2.589-1.01,5.435,1.941,10.066,4.885,18.851s11.676,15.467,11.676,15.467a91.043,91.043,0,0,0,9.736,6.075c5.622,3.037,11.754,5.231,13.407,4.707s-4.261-8.625.12-12.844c.259-.3,1.75-1.155,2.032-1.706,1.123-2.078-2.158-3.356-4.382-2.493C4054.776,2482.938,4053.563,2485.678,4051.867,2486.579Z" transform="translate(-3888.499 -2377.966)" fill="#bc907b"/>
      <path id="Path_6401" data-name="Path 6401" d="M92.724,89.9s-7.557,3.563-11.847,1.012-4.618-4.136-4.618-4.136-.179-1.581,3.355-6.567a52.658,52.658,0,0,1,4.332-5.357c.741-.835,1.516-1.875,3.423-3.752,0,0-.742.865-.551,3.34.21,2.738,2.022,7.416,3.383,9.956C92.5,88.678,92.724,89.9,92.724,89.9Z" transform="translate(12.044 11.229)" opacity="0.245"/>
      <path id="Path_9291" data-name="Path 9291" d="M132.806,69.3c-1.3,5.23,1.4,17.623,1.4,17.623l-6.527-2.678.4-9.453,3.13-2.513"/>
    </g>
    <g id="laptop" transform="translate(103.135 200.483)">
      <g id="Laptop_1_">
        <path id="Path_1056" data-name="Path 1056" d="M203.636,637.519c-22.686-.8-115.418-3.091-125.02-3.416-21.966-1.045.092-2.926,25.5-5.587,18.939-1.983,39.578-4.8,45.961-5.829l144.232,7.866h0c5.729.462,11.273,5.359,11.273,5.359Z" transform="translate(-69.621 -530.486)" fill="#0f2a3b"/>
        <path id="Path_1057" data-name="Path 1057" d="M319,634.632a8.449,8.449,0,0,0,8.316,0c6.468-3.7,23.1-14.784,23.1-14.784V618H322.6Z" transform="translate(-88.579 -530.13)" fill="#fff"/>
        <path id="Path_1058" data-name="Path 1058" d="M349.929,618v1.848s-16.632,11.088-23.1,14.784c-4.343,2.495-14.225,1.857-14.225,1.857l9.6-6.477Z" transform="translate(-88.093 -530.13)" fill="#b7b7b7"/>
        <path id="Path_1059" data-name="Path 1059" d="M303.3,629.25l-158.832-3.7a6.586,6.586,0,0,1-6.56-6.56L125.9,529.46a6.585,6.585,0,0,1,6.56-6.56H294.988a6.585,6.585,0,0,1,6.56,6.56l8.316,93.229A6.585,6.585,0,0,1,303.3,629.25Z" transform="translate(-73.899 -522.9)" fill="#e6e4e4"/>
        <path id="Path_1060" data-name="Path 1060" d="M132.56,523a6.586,6.586,0,0,0-6.56,6.56v.277a6.582,6.582,0,0,1,6.468-5.821H295a6.586,6.586,0,0,1,6.56,6.56l8.316,92.86v-.554l-8.316-93.229a6.586,6.586,0,0,0-6.56-6.56" transform="translate(-73.907 -522.908)" fill="#fff"/>
      </g>
      <path id="Path_1263" data-name="Path 1263" d="M3993.975,2590.373s6.05,84.681,91.676,100.076c23.038,4.142,29.863,5.26,18.666,5.133-13.3-.453-49.206-1.321-79.964-1.986-33.151-1-65.54-1.606-65.54-1.606l-12.239-101.31Z" transform="translate(-3885.634 -2589.281)" fill="url(#linear-gradient)"/>
    </g>
    <g id="LOGO" transform="translate(166.263 210.685) rotate(1)">
      <g id="Group_1" data-name="Group 1">
        <path id="Path_1" data-name="Path 1" d="M5.161,6.881,6.881,8.6l-1.72,1.72L3.44,8.6,1.72,6.881,0,5.161,1.72,3.44,3.44,1.72,5.161,0l1.72,1.72L3.44,5.161Z" fill="#153042"/>
        <path id="Path_2" data-name="Path 2" d="M6.881,3.44,5.161,5.16,3.44,6.881,0,3.44,1.72,1.72,3.44,0,5.16,1.72Z" transform="translate(6.881 1.72)" fill="#ffb11c"/>
        <path id="Path_3" data-name="Path 3" d="M6.881,5.161l-1.72,1.72L3.44,8.6,1.72,10.32,0,8.6,1.72,6.88,3.44,5.16,1.72,3.44,0,1.72,1.72,0,3.44,1.72,5.16,3.44Z" transform="translate(13.761)" fill="#153042"/>
      </g>
    </g>
    <g id="chair" transform="translate(423.91 129.433)">
      <path id="Path_1269" data-name="Path 1269" d="M4410.344,2636.09s1.812-19.942,6.36-42.7c4.461-22.32,11.657-47.45,11.808-49.073.3-3.251,6.451-31.725-75.61-32.023s-73.839,50.656-73.839,50.656l6.4,73.136Z" transform="translate(-4278.834 -2512.296)" fill="#5d257b"/>
    </g>
    <g id="violet_guy" data-name="violet guy" transform="translate(342.556 4.62)">
      <path id="Path_1291" data-name="Path 1291" d="M4513.476,2355.53s9.059-1.9,12.063-4.748,56.532,9.794,56.532,9.794,1.672,31.786,0,40.146-27.533,30.1-36.606,26.672-23.824-17.071-26.1-22.68S4513.476,2355.53,4513.476,2355.53Z" transform="translate(-4371.145 -2257.01)" fill="#d1a58a"/>
      <path id="Path_1288" data-name="Path 1288" d="M4410,2430.233s-4.009,1.793,4.849-11.559c.24-.363,25.6-49.917,50.348-55.412s60.9-11.386,60.9-11.386-5.146,32.3.218,41.116c3.874,6.363,5.525,3.536,8.438,5.465.79.526,2.613,6.295,3.82,7,4.342,2.554,3.229,17.807,11.345,13.211s0,30.922,0,30.922l-63.756-16.48-20.968,17.068-4.068,1.623a79.224,79.224,0,0,0-18.244-14.063C4432.359,2432.048,4410,2430.233,4410,2430.233Z" transform="translate(-4378.542 -2257.076)" fill="#00bcbe"/>
      <path id="Path_1289" data-name="Path 1289" d="M4453.719,2470.607c2.4,10.658-12.111,26.7-11.742,29.294.585,4.093,44.265,8,44.265,8h127.745s-5.119-19.163-1.96-26.5,5.036-16.7,6.2-20.037,3.476-14.937,3.476-14.937l2.971,8.948s3.036-11.169,18.918-17.908a52.471,52.471,0,0,1,21.052-4.607c2.949-.166-5.7-24.007-10.818-31.661s-9.991-13.276-14.113-20.263-53.25-22.9-53.25-22.9-8.937,5.448-8.547,10.469.273,14.411-1.529,19.354-6.562,17.436-12.567,20.493-16.94,40.142-16.94,40.142l-83.917-2.954S4453.971,2460.481,4453.719,2470.607Z" transform="translate(-4374.414 -2257.042)" fill="#00bcbe"/>
      <path id="Path_1290" data-name="Path 1290" d="M4463.885,2461.4s-6.259-42.99-4.825-44.821c1.083-1.383,70.35-.435,100.539-9.823,10.162.136,15.318,9.823,15.318,9.823l14.21,23.947-43.534,48.114H4493.87Z" transform="translate(-4375.472 -2250.447)" fill="#00bcbe"/>
      <path id="Path_1333" data-name="Path 1333" d="M1592.4,2684.37s-4.087,2.709-2.449-2.179,12.457-18.861,13.511-19.654,17.5-6.94,17.5-6.94.151,4.679-2.585,5.892S1592.4,2684.37,1592.4,2684.37Z" transform="translate(-1466.524 -2427.88)" fill="#b29280"/>
      <path id="Path_1330" data-name="Path 1330" d="M4296.627,2511.826s1.824.915-1.548,1.41c-3.913.576-14.054.588-21.137-1.41-12.3-3.469-30.662-2.718-30.662-2.718h-10.572l13.172-16.228h13.592l24.369,5.593Z" transform="translate(-4099.352 -2256.267)" fill="#84675d"/>
      <path id="Path_1292" data-name="Path 1292" d="M4655.66,2425.248a73.439,73.439,0,0,0-17.314,6.655c-6.793,3.7-16.937,9.777-16.638,12.136.667,5.231-.738,1.494,2.736,8.82a117.4,117.4,0,0,0,9.048,15.123s-45.263,12.969-51.232,13.278-11.634,1.232-14.49,1.128-37.608-6.639-40.72-4.581-15.224,6.294-15.848,7.631-14.914,22.074-14.6,24.544,6.881.872,7.514-.5,7.921-10.266,7.092-8.35-3.47,10.356-3.373,11.449,4.631.855,5.724-.731,7.562-10.718,7.562-10.718,3.555-4.192,6.617-5.784a7.236,7.236,0,0,1,5.629-.583,25.032,25.032,0,0,0-6.848,6.367,39.624,39.624,0,0,0-4.6,9.734s-1.687,4.8,4.6,2.205c2.635-1.087,4.1-4.453,6.846-7.037,3.264-3.071,7.5-5.382,8.245-5.468,1.285-.147,5.353-.757,13.371,2.538s14.341,6.677,28.474,2.3,61.71-2.01,64.439-2.3,21.039-1.986,21.355-5.657-24.564-57.375-24.564-57.375Z" transform="translate(-4372.149 -2250.304)" fill="#c8997d"/>
      <path id="Path_1329" data-name="Path 1329" d="M2067.734,2691.1c-.725,0-1.48-1.884,0-4.56s3.034-6.6,5.271-8.991,12.323-8.24,12.323-8.24a33.1,33.1,0,0,0-6.834,6.563c-1.815,2.347-3.374,6.615-3.836,7.259C2073.5,2684.739,2067.734,2691.1,2067.734,2691.1Z" transform="translate(-1935.383 -2432.731)" fill="#a7816b"/>
      <path id="Path_1331" data-name="Path 1331" d="M4541.091,2495a22.953,22.953,0,0,0-8.365,5.881c-3.65,4.156-12.525,13.337-6.237,10.743,2.722-1.123,5.054-5.675,7.6-7.852,2.809-2.4,6.271-4.29,7-4.373,1.284-.147,5.352-.757,13.371,2.537s14.055,6.756,28.188,2.383,62-2.088,64.725-2.383,21.038-1.986,21.354-5.657c.024-.27-26.693,2.966-40.923,3.12-26.671.287-57.5-4.107-69.861-6.134C4552.571,2491.925,4541.091,2495,4541.091,2495Z" transform="translate(-4371.635 -2249.14)" fill="#a7816b"/>
      <path id="Path_1332" data-name="Path 1332" d="M2067.721,2691.041c-.725,0,3.909-12.852,5.271-13.552.655-.336,3.563-3.741,7.632-4.292,1.547-.878,5.061.444,6.792.775,1.408.253-5.242.642-5.754.74-1.816,2.347-6.088,5.177-6.55,5.823C2073.958,2682.142,2067.721,2691.041,2067.721,2691.041Z" transform="translate(-1926.216 -2429.619)" fill="#a7816b"/>
      <path id="Path_1327" data-name="Path 1327" d="M4336.032,2507.759s40.237,3.135,49.307,2.176c9.221-.975,21.208-3.91,23.18-4.971,3.8-2.045,5.663-2.159,5.314-5.185s1.633-8.848,0-13.451-21.308-55.991-21.308-55.991-6.679.216-11.636,2.208c-9.369,3.765-20.841,11.289-20.27,14.622.849,4.952.11,7.614,3.981,17.455s10.041,25.549,10.041,25.549Z" transform="translate(-4097.59 -2257.333)" fill="#d19d8b"/>
      <path id="Path_1328" data-name="Path 1328" d="M4384.549,2509.934c9.221-.975,21.208-3.91,23.181-4.971,3.8-2.045,5.663-2.159,5.314-5.185s1.632-8.848,0-13.451c-.423-1.192-3.029-16.473-5.314-22.493-6.163-16.232-15.994-33.5-15.994-33.5s15.772,39.765,9.472,61.672C4397.2,2505.935,4375.479,2510.894,4384.549,2509.934Z" transform="translate(-4096.801 -2257.333)" fill="#d9aa99"/>
      <path id="Path_1366" data-name="Path 1366" d="M1552.319,2643.747c-.238-4.944,2.637-9.833,3.28-13.885a66.075,66.075,0,0,0,1.954-24.91c-1.73-17.99-2.525-28.139,1.427-16.992s23.565,80.822,23.87,84.108c.576,6.2.734,12.165-2.758,12.865-5.119,1.027-25.9-12.323-25.9-12.323Z" transform="translate(-1474.169 -2443.222)" fill="#06a5a7"/>
      <path id="Path_1763" data-name="Path 1763" d="M73.508,215.678l18.42,22.86,4.251,5.275" transform="translate(12.891 5.779)" fill="none" stroke="#d8a42f" stroke-linecap="round" stroke-width="1"/>
      <g id="lefthand" transform="translate(7.33 167.424)">
        <path id="Path_1326" data-name="Path 1326" d="M4638.341,2492.055s20.87-30.1,20.44-36.241c-.221-3.165-5.159-3.479-11.5-7.093a56.717,56.717,0,0,0-14.481-5.4c-6.437-1.572-14.613-3.835-15.747-1.76s-11.43,34.5-11.43,34.5l-1.817,6.6,20.86,7.725Z" transform="translate(-4588.538 -2434.75)" fill="#c8997d"/>
        <path id="Path_1325" data-name="Path 1325" d="M4639.175,2490.046s-15.5-20.091-26.152-18.671,5.435-.094,10.744,7.474-.71,2.139-1.55,2.86,7.286,6.006,10.372,6.151A17.469,17.469,0,0,1,4639.175,2490.046Z" transform="translate(-4587.425 -2436.263)" fill="#a7816b"/>
        <path id="Path_1324" data-name="Path 1324" d="M4619.676,2434.183s-25.686,35.748-28.91,48.729-2.322,29.343,0,32.231,7.58,3.6,22.36,4.056,35.531-1.281,35.531-1.281l5.812-26.985s-20.524-4.593-25.356-8.021-22.246-6.321-22.092-8.448S4619.676,2434.183,4619.676,2434.183Z" transform="translate(-4588.674 -2434.183)" fill="#c8997d"/>
        <path id="Path_1339" data-name="Path 1339" d="M1778.206,2688.472l4.361,3.271-1.668-5.222Z" transform="translate(-1674.048 -2599.39)" fill="#d1b38b"/>
        <path id="Path_1340" data-name="Path 1340" d="M1781.144,2690.631l1.372,1.052-.409-1.308-.121-.312-.356.44Z" transform="translate(-1673.998 -2599.33)" fill="#414141"/>
        <path id="Path_1322" data-name="Path 1322" d="M4637.144,2510.382c-9.912-1.277-27.2-9.917-33.225-8.6s-13.845,10.167-12.511,13.044c.558,1.2,2.594,2.569,10.631,3.3,10.491.961,30.071,1.774,36.654.043,5.149-.662,4.853,1.961,8.03,3.635s16.122,4.93,17.458,3.739-16.906-13.526-16.691-15.875S4647.057,2511.659,4637.144,2510.382Z" transform="translate(-4588.751 -2433.712)" fill="#a7816b"/>
        <path id="Path_1323" data-name="Path 1323" d="M4673.338,2496.886s.189-.753,1.687-.873,4.993,5.607,4.993,5.607l-1.509,1.341-1.282.6Z" transform="translate(-4573.115 -2414.484)" fill="#d5a231"/>
        <path id="Path_1320" data-name="Path 1320" d="M4655.108,2488.053a2.321,2.321,0,0,1-2.3,3.178c-3.262.184-5.524,5.254-6.075,7.312s-3.082,2.662-2.261,4.909.9,3.606-.7,5.562-1.332,8.416,1.889,10.784c1.622,1.233,5.953,2.514,9.751,4.484a15.5,15.5,0,0,0,5.082,1.641c1.336.079,20.294,2.588,22.366,1.5s3.448-2.285,3.335-3.473-11.783-1.9-14.389-9.392-5.711-16.344-7.1-17.45S4655.108,2488.053,4655.108,2488.053Z" transform="translate(-4587.837 -2433.943)" fill="#d6a689"/>
        <path id="Path_1321" data-name="Path 1321" d="M4676.154,2517.742c6.506,2.08,4.981-3.232,4.981-3.232s12.705,1.367,13.468,2.12-.422,5.3-4.024,6.953-13.608,0-13.608,0L4667,2522.26S4669.648,2515.662,4676.154,2517.742Z" transform="translate(-4594.933 -2430.441)" fill="#c1967c"/>
        <path id="Path_1305" data-name="Path 1305" d="M4649.828,2507.948l14.7,10.057,11.73,5.163,10.492,1.263a37.919,37.919,0,0,1-10.492,0c-4.988-.848-12.742-5.564-12.742-5.564Z" transform="translate(-4587.754 -2433.604)" fill="#816358"/>
        <path id="Path_1306" data-name="Path 1306" d="M4652.049,2510.464s.192.107,3.81,2.4,3.091,2.351,8.66,5.227a133.929,133.929,0,0,0,13.782,5.772l8.127,3.494h-9.7l-13.224-8.393-10.619-6.6Z" transform="translate(-4582.63 -2444.751)" fill="#916f63"/>
        <path id="Path_1309" data-name="Path 1309" d="M4656.868,2499.72s5.727,4.368,11.779,8.128,12.429,6.914,12.429,6.914,8.44,1.548,9.2,2.3,2.96,5.115-.643,6.772-12.725,0-12.725,0a73.767,73.767,0,0,1-13.451-6.118,113.273,113.273,0,0,1-13.633-9.869Z" transform="translate(-4587.754 -2433.744)" fill="#d6a689"/>
        <path id="Path_1310" data-name="Path 1310" d="M4676.7,2521.3c6.506,2.08,4.255-6.745,4.255-6.745s8.35,1.509,9.112,2.262,2.96,5.115-.642,6.771-6.177,1.461-12.726,0-13.287-5.993-13.287-5.993S4670.193,2519.217,4676.7,2521.3Z" transform="translate(-4587.542 -2433.496)" fill="#c1967c"/>
        <path id="Path_1312" data-name="Path 1312" d="M4666.142,2492.1c.038-3.8,10.778-1.439,11.674-1.073s4.522,3.151,7.457,4.9,7.5,3.749,7.76,5.614-2.077,9.793-2.077,9.793S4666.1,2495.9,4666.142,2492.1Z" transform="translate(-4587.301 -2433.922)" fill="#d6a689"/>
        <path id="Path_1316" data-name="Path 1316" d="M4673.025,2493.994s.577-.05,4.768,2.142,7.91.579,7.156,4.527,2.807,6.192-.9,5.389S4673.025,2493.994,4673.025,2493.994Z" transform="translate(-4587.358 -2433.842)" fill="#9f7a6d"/>
        <path id="Path_1318" data-name="Path 1318" d="M4652.277,2490.061c.768-2.191,4.15-3.358,6.853-3.418s7.1,2.24,8.552,4.521,8.86,7.87,11.575,9.712,14.959,8.966,15.354,10.563.15,5.666-1.428,5.929-18.055-6.764-19.933-7.865-14.12-9.671-14.12-9.671S4651.509,2492.252,4652.277,2490.061Z" transform="translate(-4587.712 -2433.967)" fill="#d6a689"/>
        <path id="Path_1319" data-name="Path 1319" d="M4675.72,2507.264c4.044-.9,5.9-4.119,7.95-3.453s10.628,6.484,11.023,8.081-.154,5.261-1.733,5.525-18.054-6.765-19.933-7.865c-.807-.472-2.337-1.141-4.108-2.289-1.732-1.122-3.67-2.712-3.67-2.712S4671.676,2508.161,4675.72,2507.264Z" transform="translate(-4587.491 -2434.016)" fill="#c1967c"/>
      </g>
      <path id="Path_1351" data-name="Path 1351" d="M1511.033,2697.583c.408-3.38-4.165-15.584-.68-20.266s7.922-13.019,9.907-13.706,8.129,2.187,8.129,2.187a63.139,63.139,0,0,0,5.276-5.14c2.11-2.414,6.6-4.621,9.826-10.313s5.278-13.222,5.507-16.909,5.178-8.286-11.7-14.6-20.348-14.693-26.267-14.784-15.448,14.078-21.95,25.072-20.644,31.4-21.17,39.75.073,22.933,2.917,24.188,11.327,4.314,16.119,4.523,23.405,0,23.405,0Z" transform="translate(-1467.741 -2444.8)" fill="#00bcbe"/>
      <path id="Path_1352" data-name="Path 1352" d="M4648.531,2467.186s1.051-2.1,2.549-2.221,29.676,37.66,29.676,37.66l-2.936-1.963-5.768-4.5Z" transform="translate(-4581.145 -2267.806)" fill="#f0b736"/>
      <path id="Path_1367" data-name="Path 1367" d="M1626.552,2537.318a8.482,8.482,0,0,0,2.421-.783c.73-.489,2.9-.894,3.976-2.017,0,0-.667-1.22-3.478-.52s-2.92.971-2.92.971Z" transform="translate(-1478.85 -2440.328)" fill="#d5d5d5"/>
      <path id="left-collar" d="M1626.218,2534.249c.224-.239.454-.32.618.561.731,3.714-.354,24.235,3.963,31.685,4.962,8.564,14.823,24.047,15.633,27.987,1.308,6.359-1.668,9.411-1.668,9.411s-7.861-21.11-11.236-23.022-19.308,17.974-18.969-6.04-.47-24.559,2.84-30.439S1624.5,2536.089,1626.218,2534.249Z" transform="translate(-1478.901 -2439.433)" fill="#fff"/>
      <path id="Path_1372" data-name="Path 1372" d="M1657.823,2603.081c.908-.121,25.42-7.977,29.231-9.923,13.139-5.7.169-7.178,2.638-7.865.841-.253,3.9-1.2,4.257.406,2.446,4.49-10.321-2-11.286-.406S1657.823,2603.081,1657.823,2603.081Z" transform="translate(-1482.191 -2443.335)" fill="#1aa5a7"/>
      <path id="right-collar" d="M1648.765,2598.869c5.591-4.843,35.57-17.068,33.2-28.062s1.742-14.972,2.543-16.383,7.026-13.9,7.026-13.9,15.187,45.006,10.023,51.773-7.194-8.521-12-7.513-7.345,4.511-16.7,8.315c-8.226,3.344-23.759,6.311-24.093,21.446C1647.917,2615.868,1643.173,2603.712,1648.765,2598.869Z" transform="translate(-1481.298 -2439.97)" fill="#fff"/>
      <path id="Path_6418" data-name="Path 6418" d="M271.447,98.279s-7.284,4.43-8.432,6.892-13.674,6.32-16.6,6.185-42.754-.681-47.262-6.185,29.676-16.721,34.006-17.5,28.393-5.511,28.393-5.511.788-.733,4.434-1.4c.034,0,.9-.077.9-.077Z" transform="translate(-114.318 12.742)" opacity="0.23"/>
      <g id="face" transform="translate(128.346 5.832) rotate(-3)">
        <path id="ear" d="M1.673,3s8.006-6.185,8.88-.791S6.509,25.6,5.9,28.734,3.018,32.591.8,27.659,1.673,3,1.673,3Z" transform="matrix(0.914, 0.407, -0.407, 0.914, 92.258, 68.867)" fill="#cca68f"/>
        <path id="face-2" data-name="face" d="M70.668,51.147a28.909,28.909,0,0,1,1.085,6c.649,7.134,1.071,19.878-.083,24.589-1.687,6.888-17.311,22.7-26.927,24.737s-17.353-2.344-21.461-4.648-13.027-16.143-13.9-24.3S4.061,62.416,4,54.111-1.311,24.366.3,21.311,32.987,1.692,34.664,1.2,55.307,0,55.307,0L63.56,8.214l3.7,20.259Z" transform="translate(45.22 4.933) rotate(25)" fill="#c8997d"/>
        <path id="ear-2" data-name="ear" d="M1.762,28.825s5.048,5.951,7.963,1.137S6.554,2.5,6.251,1.639,2-2.585.1,3.9C-.289,5.211.613,7.537.6,9.851.553,17.611,1.762,28.825,1.762,28.825Z" transform="translate(21.472 73.914) rotate(-162)" fill="#aa8c7a"/>
        <path id="ear-3" data-name="ear" d="M.307,3s8.006-6.185,8.88-.791c.2,1.239-3.148-1.337-4.573,1.755C2.908,7.673,2.717,17.052,1.06,16.625-.751,16.162.307,3,.307,3Z" transform="matrix(0.914, 0.407, -0.407, 0.914, 93.506, 69.422)" fill="#b18b78"/>
        <path id="hair" d="M.177,57.688C1.44,56.6,2.158,53.468,6.458,46.011c.484-.839,4.076-.626,4.413-3.1a71.741,71.741,0,0,1,3-11.365c1.058-3.057,2.48-5.908,6.2-7.59C27.383,19.2,50.687,61.445,60.783,62.092s10.007-9.244,5.741,1.387-.656,7.09-3.648,14.7c-.087.221-8.025,17.423,5.083-1.248s15.122-17.008,16.6-23.4,3.486-29.28-6.537-39.289S29.265-3.115,26.917,1.322c-.976,1.846-4.051,3.939-11.794,6.961C4.944,12.255,4.539,26.7,3.542,30.279c-.83,2.978,1.153,5.109.213,11.759C2.845,48.476-.843,58.563.177,57.688Z" transform="translate(19.89 5.984) rotate(-4.012)"/>
        <g id="beard" transform="matrix(0.999, 0.052, -0.052, 0.999, 19.458, 62.331)">
          <path id="Path_1354" data-name="Path 1354" d="M4.619,0s1.7,22.047,2.66,24.013S10.82,32.5,13.416,34.188,7.26,48.348,7.26,48.348,1.641,43.9.223,32.9,4.619,0,4.619,0Z" transform="translate(0 0.727) rotate(-3)" fill="#af8972"/>
          <path id="Path_1355" data-name="Path 1355" d="M5.619,0A40.382,40.382,0,0,0,4.474,5.668c-.235,3.343,1.63,6.789,2.994,7.524,1.815.893,3.547,2.3,5.767-1.978s3.7-7.508,3.7-7.508.713-.489.626.416c-.16,1.656-1.2,4.758-1.366,7.923-.07,1.274-.6,4.016,1.332,4.094a13.5,13.5,0,0,0,8.715-1.586,3.066,3.066,0,0,0,1.047-.744c3.732-3.409.751,3.757.751,3.757s-9.214,4.2-18.718,0S0,10.219,0,10.219Z" transform="translate(9.673 37.562)" fill="#af8972"/>
          <path id="Path_1356" data-name="Path 1356" d="M33.774.044c1.145-1.117-5.35,19.6-9.672,23.619S6.018,33.546,2.2,34.285s-1.717-2.518-.711-3.423A16.807,16.807,0,0,0,4.459,26.9a49.689,49.689,0,0,0,2.572-7.042s8.4-.9,12.254-3.4S32.63,1.161,33.774.044Z" transform="translate(34.201 21.197)" fill="#af8972"/>
          <path id="Path_1357" data-name="Path 1357" d="M1.231,6.42C-1.683,11.977,1.143.444,3.853.053s11.684,1.526,12.43,1.676,7.755,4.1,8.881,4.69a3.947,3.947,0,0,1,2.256,4.4c.092,1.117-.924.989-1.707,3.678-.9,3.661.21-4.57-2.247-6.037a55.285,55.285,0,0,0-7.7-3.825C14.715,4.347,4.146.862,1.231,6.42Z" transform="translate(14.694 29.522)" fill="#af8972"/>
          <path id="Path_1358" data-name="Path 1358" d="M0,0S6.893,2.546,7.9,2.588,1.964,4.3,0,0Z" transform="translate(23.424 39.355)" fill="#af8972"/>
        </g>
        <path id="Path_1373" data-name="Path 1373" d="M1.4.425Z" transform="translate(84.92 61.743)" fill="#fff"/>
        <path id="Path_1374" data-name="Path 1374" d="M.362.166C-2.214-2.435,9.09,26.4,30.052,29.8a26.131,26.131,0,0,1-11.509-5.475,49.377,49.377,0,0,1-8.984-9.791C5.511,8.346,3.013,2.52.362.166Z" transform="translate(56.885 36.773)"/>
        <path id="Path_1588" data-name="Path 1588" d="M3.138,30.726S17.821,52.465,28.2,49.62,48.9,37.53,48.9,31.8a78.315,78.315,0,0,0-2.5-18.46C44.642,7.05,41.417,1.685,38.729.437,33.164-2.148,1.743,7.186.3,16.571S3.138,30.726,3.138,30.726Z" transform="translate(59.537 13.916)" fill="#292828"/>
        <path id="hair-2" data-name="hair" d="M6.109,38.971c-4.266,10.631-.656,7.09-3.648,14.7-.087.221-8.025,17.423,5.083-1.248s15.122-17.008,16.6-23.4c.254-1.1,1.186-5.693.9-7.314-1.092-6.23-8.5-11.935-16.8-20.223C-.952-7.7,10.375,28.34,6.109,38.971Z" transform="translate(81.867 26.218) rotate(-4.012)" fill="#292828"/>
      </g>
      <path id="Path_1363" data-name="Path 1363" d="M11.642,23.882c.3-.131,5.023-5.438,1.413-13.087C9.737,3.766,2.9.313,1.048.1c-3.929-.936,4.1,5.116,9.012,13.125C14.747,20.869,11.027,24.234,11.642,23.882Z" transform="translate(16.147 213.119) rotate(-51)" fill="#06a5a7"/>
      <path id="Path_1365" data-name="Path 1365" d="M14.5,13.155A68.758,68.758,0,0,1,15.589,23.1s1.952-1.586,2.764-6.775S16.152,5.181,9.134,2.133s-11.8-2.433-7.5-.615S13.582,8.788,14.5,13.155Z" transform="translate(20.19 201.329) rotate(-8)" fill="#06a5a7"/>
      <path id="Path_1364" data-name="Path 1364" d="M1530.529,2670.406c1.035-.538.869-2.781-2.609-4.443s-14.859-3.623-21.191-2.306-17.359,16.365-15.552,27.34c.051,5.93,2.755,12.345,4.507,12.447,1.749.763,7.82,1.709,12.763,1.555,2.8-.087,5.5-1.874,6.162-1.993,1.672-.3,1.312-.841,1.312-.841h-1.576a25.133,25.133,0,0,1,.263-14.549c2.314-7.083,6.957-13.5,8.84-16.039S1529.494,2670.944,1530.529,2670.406Z" transform="translate(-1469.507 -2449.298)" fill="#fff"/>
      <path id="Path_1370" data-name="Path 1370" d="M1506.035,2664.8c-.937.235-9.891,7.8-12.646,16.7s-.007,19.959,2.294,20.174c1.1.1-.66-9.679,1.5-18.21C1499.4,2674.693,1506.525,2664.675,1506.035,2664.8Z" transform="translate(-1469.602 -2449.418)" fill="#e5e2e2"/>
      <path id="Path_1591" data-name="Path 1591" d="M207.111,34.71S205,43.682,212.793,51.854c5.934,6.227,15.9,14.631,19.277,13.136,3.944-.1,13.337-4.468,17.793-7.951,2.535-2.543,3.221-2.949,3.037-8.556-.154-4.777-.862-10.671-3.037-10.817-4.039-.272-21.025,15.519-31.921,9.263A17.391,17.391,0,0,1,207.111,34.71Z" transform="translate(-15.725 -2.639)" fill="#191818"/>
      <path id="Path_1369" data-name="Path 1369" d="M1459.945,2903.77l-6.878,41.158-8.593,31.138a12.134,12.134,0,0,1-3.362,1.08,7.445,7.445,0,0,0-3.884-.6,40.848,40.848,0,0,0-4.858,1l-3.593.822s5.042-33.172,6.485-27.492.722,20.985,7.642,2.963S1458.483,2904.822,1459.945,2903.77Z" transform="translate(-1206.064 -2753.571)" fill="#06a5a7"/>
      <path id="Path_1761" data-name="Path 1761" d="M73.508,215.678l18.42,22.86,4.553,5.631" transform="translate(-5.588 -16.396)" fill="none" stroke="#d8a42f" stroke-linecap="round" stroke-width="1"/>
      <path id="Path_1764" data-name="Path 1764" d="M4674.369,2497.878l2.6,3.12,2.766,2.166-6.021-4.694Z" transform="translate(-4583.06 -2270.308)" fill="#d8a42f"/>
    </g>
    <path id="Path_1603" data-name="Path 1603" d="M708.588,299.135c-1.578.094-54.287,2.619-70.432,1.4s-10.226-5.548,13.654-6.607S708.588,299.135,708.588,299.135Z" transform="translate(-47.824 -22.336)" fill="#0f2a3b"/>
    <path id="Path_1360" data-name="Path 1360" d="M1549.96,2633.212s7.7-2.312,14.3-4.4a114.651,114.651,0,0,1,12.6-3.171s-8.106-13.907-9.914-19.3,1.474-6.929,0-9.69,27.274-42.536,29.451-42.379c.875.063,15.716,24.628,15.564,26.5,2.309,1.966,19.188,36.794,19.713,44.008s2.679,28.852,1.943,32.394-10.222,7.087-25.776,7.069-45.565-1.639-47.79-1.077S1549.96,2633.212,1549.96,2633.212Z" transform="translate(-974.456 -2404.534)" fill="#00bcbe"/>
    <path id="Path_1359" data-name="Path 1359" d="M1526.883,2646.166s6.765.024,7.769,4.829.368,15.914,3.192,19.492,21.148,1.948,21.542-1.978-2.124-12.54-2.693-16.15-4.067-13.669-8.222-13.961-18.743,4.554-20.683,4.768S1526.883,2646.166,1526.883,2646.166Z" transform="translate(-972.583 -2410.927)" fill="#fff"/>
    <path id="Path_1361" data-name="Path 1361" d="M4622.657,2516.286s18.063.169,19.506-1.075,9.326-9.326,8.569-27.963-2.369-19.749-2.369-19.749l-25.707,2.607Z" transform="translate(-3981.017 -2238.857)"/>
    <path id="Path_1362" data-name="Path 1362" d="M4650.784,2516.291s-18.063.169-19.507-1.075-9.326-9.326-8.569-27.963,2.509-20.013,2.509-20.013l25.566,2.871Z" transform="translate(-4005.427 -2238.862)"/>
    <ellipse id="Ellipse_12" data-name="Ellipse 12" cx="23.5" cy="2" rx="23.5" ry="2" transform="translate(620 225.974)" fill="#fff"/>
    <g id="LOGO-2" data-name="LOGO" transform="translate(632.872 247.644) rotate(1)">
      <g id="Group_1-2" data-name="Group 1">
        <path id="Path_1-2" data-name="Path 1" d="M5.161,6.881,6.881,8.6l-1.72,1.72L3.44,8.6,1.72,6.881,0,5.161,1.72,3.44,3.44,1.72,5.161,0l1.72,1.72L3.44,5.161Z" fill="#fff"/>
        <path id="Path_2-2" data-name="Path 2" d="M6.881,3.44,5.161,5.16,3.44,6.881,0,3.44,1.72,1.72,3.44,0,5.16,1.72Z" transform="translate(6.881 1.72)" fill="#fff"/>
        <path id="Path_3-2" data-name="Path 3" d="M6.881,5.161l-1.72,1.72L3.44,8.6,1.72,10.32,0,8.6,1.72,6.88,3.44,5.16,1.72,3.44,0,1.72,1.72,0,3.44,1.72,5.16,3.44Z" transform="translate(13.761)" fill="#fff"/>
      </g>
    </g>
    <path id="Path_1375" data-name="Path 1375" d="M1647.8,2642.583c-.8-.8.042,1.515-1.97,1.515-.793,0,1.414,3.443,1.97,9.273.791,8.306.952,15.065,0,18.564-1.571,5.774-.577,9.287,1.159-2.651S1648.6,2643.387,1647.8,2642.583Z" transform="translate(-981.634 -2411.234)" fill="#a7a7a7"/>
    <path id="Path_1765" data-name="Path 1765" d="M652.093,239.159s13.411,4.715,14.3,11.752c.5,3.94-3.3-1.523-7.592-6.154a38.422,38.422,0,0,0-6.71-5.6" transform="translate(-49.573 -19.105)" fill="#1aa5a7"/>
    <path id="Path_1766" data-name="Path 1766" d="M0,0S13.411,4.715,14.3,11.752c.5,3.94-3.3-1.523-7.592-6.154A38.422,38.422,0,0,0,0,0" transform="matrix(0.914, 0.407, -0.407, 0.914, 603.034, 220.475)" fill="#1aa5a7"/>
  </g>
</svg>
