<svg xmlns="http://www.w3.org/2000/svg" xmlns:xlink="http://www.w3.org/1999/xlink" width="600" height="600" viewBox="0 0 600 600">
  <defs>
    <clipPath id="clip-Custom_Size_1">
      <rect width="600" height="600"/>
    </clipPath>
  </defs>
  <g id="Custom_Size_1" data-name="Custom Size – 1" clip-path="url(#clip-Custom_Size_1)">
    <g id="Group_1" data-name="Group 1" transform="translate(16.748 16.4)">
      <g id="Component_148_1" data-name="Component 148 – 1" transform="translate(-16 -9)">
        <g id="circle">
          <path id="Path_8404" data-name="Path 8404" d="M1035.877,648.231" transform="translate(-941.22 -345.774)" fill="none" stroke="#627783" stroke-linecap="round" stroke-width="2"/>
          <g id="circle-2" data-name="circle">
            <g id="ellipse1" transform="translate(168.454 161.743)">
              <path id="Ellipse_114" data-name="Ellipse 114" d="M1211.24,726.039a135.05,135.05,0,0,1-8.094-122.522" transform="translate(-1192.169 -522.098)" fill="none" stroke="#f5c113" stroke-linecap="round" stroke-width="1"/>
              <path id="Ellipse_114-2" data-name="Ellipse 114" d="M1386.862,717.572a134.88,134.88,0,0,1-147.37,8.018" transform="translate(-1172.278 -474.157)" fill="none" stroke="#f5c113" stroke-linecap="round" stroke-width="1"/>
              <path id="Ellipse_114-3" data-name="Ellipse 114" d="M1370.808,596.413a135.121,135.121,0,0,1,6.064,113.948" transform="translate(-1117.081 -525.084)" fill="none" stroke="#f5c113" stroke-linecap="round" stroke-width="1"/>
              <path id="Ellipse_114-4" data-name="Ellipse 114" d="M1244.792,560.271a135.09,135.09,0,0,1,117.892-1.067" transform="translate(-1170.05 -546.193)" fill="none" stroke="#f5c113" stroke-linecap="round" stroke-width="1"/>
              <g id="salesforcelogo" transform="translate(57.437 72.848)">
                <g id="SF-logo" transform="translate(9.555 7.53)">
                  <g id="Component_79_1" data-name="Component 79 1">
                    <ellipse id="Ellipse_98" data-name="Ellipse 98" cx="29.648" cy="29.648" rx="29.648" ry="29.648" transform="translate(9.884)" fill="#fff"/>
                    <ellipse id="Ellipse_99" data-name="Ellipse 99" cx="26.353" cy="26.353" rx="26.353" ry="26.353" transform="translate(56 4.393)" fill="#fff"/>
                    <ellipse id="Ellipse_100" data-name="Ellipse 100" cx="32.941" cy="32.941" rx="32.941" ry="32.941" transform="translate(87.846 15.373)" fill="#fff"/>
                    <ellipse id="Ellipse_101" data-name="Ellipse 101" cx="26.353" cy="26.353" rx="26.353" ry="26.353" transform="translate(65.884 40.628)" fill="#fff"/>
                    <ellipse id="Ellipse_102" data-name="Ellipse 102" cx="28.55" cy="28.55" rx="28.55" ry="28.55" transform="translate(27.452 50.51)" fill="#fff"/>
                    <ellipse id="Ellipse_103" data-name="Ellipse 103" cx="26.353" cy="26.353" rx="26.353" ry="26.353" transform="translate(0 38.432)" fill="#fff"/>
                    <ellipse id="Ellipse_104" data-name="Ellipse 104" cx="26.353" cy="26.353" rx="26.353" ry="26.353" transform="translate(31.843 29.648)" fill="#fff"/>
                  </g>
                </g>
                <path id="Icon_awesome-salesforce" data-name="Icon awesome-salesforce" d="M1306.052,665.383H1298.9a3.822,3.822,0,0,1,3.7-3.836c1.832,0,3.248,1.037,3.45,3.836Zm37.094-3.768c-.128,0-3.836-.48-3.836,5.435s3.693,5.435,3.836,5.435c3.528,0,3.837-3.677,3.837-5.435C1346.983,661.136,1343.269,661.615,1343.146,661.615Zm-66.019,6.448a2.341,2.341,0,0,0-.893,1.979,2.029,2.029,0,0,0,.893,1.907c1.279,1,4.091.576,5.681.259v-4.594c-1.438-.284-4.544-.532-5.681.448Zm135.076-6.384c0,23.772-21.716,41.9-44.885,37.031-4.986,8.952-19.2,19.2-35.882,11.307-11.172,26.065-48.288,25.014-58.038-1.41-32.5,6.485-48.537-37.557-20.426-54.091a33.753,33.753,0,0,1,17.626-44.361h0a33.753,33.753,0,0,1,40.153,10.456,30.5,30.5,0,0,1,43.117-1.01v0a30.5,30.5,0,0,1,5.723,7.464,37.545,37.545,0,0,1,52.622,34.608Zm-141.024,8.632c0-3.2-3.173-4.119-4.85-4.661-1.432-.568-3.64-.959-3.64-2.427,0-2.569,4.615-1.808,6.832-.575,0,0,.32.194.444-.128.066-.19.64-1.786.7-1.979a.308.308,0,0,0-.19-.382c-3.347-2.078-11.047-2.31-11.047,3.448,0,3.383,3.125,4.191,4.853,4.66,1.279.425,3.576.813,3.576,2.363,0,1.085-.959,1.918-2.489,1.918a8.65,8.65,0,0,1-5.154-1.726c-.128-.062-.385-.194-.448.193l-.652,2.027c-.128.256.062.32.062.382a10.892,10.892,0,0,0,6.19,1.793c3.576,0,5.808-1.918,5.808-4.915Zm8.686-11.557a11.462,11.462,0,0,0-5.807,1.407.27.27,0,0,0-.069.377h0l.7,1.918a.272.272,0,0,0,.32.19,10.7,10.7,0,0,1,4.6-1.085,4,4,0,0,1,2.492.639c.977.759.831,2.251.831,2.877-1.3-.082-5.187-.933-7.983,1.021a4.586,4.586,0,0,0-1.989,3.947,4.426,4.426,0,0,0,1.785,3.9c3.322,2.214,9.849.542,10.342.382.427-.086.958-.179.958-.51v-9.2c.011-1.252.086-5.873-6.183-5.873Zm12.641-5.694a.3.3,0,0,0-.281-.32h-2.718a.3.3,0,0,0-.32.28v21.475a.3.3,0,0,0,.281.32h2.718a.3.3,0,0,0,.318-.28l0,0a.134.134,0,0,0,0-.038Zm15.134,7.852a5.849,5.849,0,0,0-4.8-2.044,6.852,6.852,0,0,0-5.625,2.43,9.343,9.343,0,0,0-1.78,5.808,8.382,8.382,0,0,0,1.919,5.745,7.864,7.864,0,0,0,6.18,2.238,9.541,9.541,0,0,0,5.043-1.022c.128-.065.193-.193.066-.51l-.64-1.854a.338.338,0,0,0-.381-.19,9.759,9.759,0,0,1-4.156.766,4.167,4.167,0,0,1-4.592-3.691,4.1,4.1,0,0,1,0-.841h10.085a.336.336,0,0,0,.32-.256c-.078,0,.568-4-1.653-6.576Zm9.951,14.307c3.576,0,5.81-1.918,5.81-4.915,0-3.2-3.177-4.119-4.853-4.66-1.121-.451-3.64-.917-3.64-2.427,0-1.021.894-1.723,2.3-1.723a10.338,10.338,0,0,1,4.532,1.148s.319.193.448-.128c.062-.19.639-1.786.7-1.979a.307.307,0,0,0-.19-.382,10.358,10.358,0,0,0-5.491-1.341c-3.258,0-5.553,1.979-5.553,4.8,0,3.383,3.116,4.191,4.85,4.661,1.659.542,3.576.886,3.576,2.363,0,1.085-.959,1.918-2.489,1.918a8.639,8.639,0,0,1-5.157-1.723.271.271,0,0,0-.382.029v0a.259.259,0,0,0-.066.16l-.64,2.034c-.129.256.063.32.063.382a10.868,10.868,0,0,0,6.186,1.794Zm17.82-15.71c0-.193-.065-.32-.319-.32h-3.2a6.971,6.971,0,0,1,1.212-3.384c1.129-1.119,3.2-.444,3.258-.444.32.128.382,0,.444-.128l.768-2.11c.19-.255,0-.32-.065-.382a6.83,6.83,0,0,0-6.637,1.151,9.789,9.789,0,0,0-2.174,5.3h-2.3a.35.35,0,0,0-.319.32l-.392,2.107c0,.19.066.32.32.32h2.24c-2.31,13-2.377,13.629-2.811,15.071a3.11,3.11,0,0,1-1.6,2.105,3.946,3.946,0,0,1-2.618-.066s-.254-.128-.382.194c-.066.193-.7,1.846-.769,2.044s0,.382.128.382a7.861,7.861,0,0,0,4.853,0,5.5,5.5,0,0,0,3.127-3.517c.745-2.092.761-2.657,3.2-16.215h3.32a.35.35,0,0,0,.32-.32Zm14.491,4.346a7.206,7.206,0,0,0-9.121-4.542h0a7.2,7.2,0,0,0-4.542,4.542,11.678,11.678,0,0,0,0,6.384,7.2,7.2,0,0,0,13.656,0,11.58,11.58,0,0,0,.019-6.391Zm12.323-4.533c-1.357-.448-4.511-.516-6,1.469v-1.213a.3.3,0,0,0-.281-.32h-2.6a.3.3,0,0,0-.319.281v15.037a.3.3,0,0,0,.287.32h2.65a.306.306,0,0,0,.32-.288h0v-7.572c0-.79.015-3.087,1.21-4.086a3.981,3.981,0,0,1,3.64-.831.429.429,0,0,0,.382-.257,20.161,20.161,0,0,0,.831-2.172.322.322,0,0,0-.128-.382Zm12.705,14.684-.575-1.979c-.128-.32-.382-.193-.382-.193a8.859,8.859,0,0,1-3.064.513c-1.26,0-4.66-.307-4.66-5.363,0-1.691.5-5.363,4.476-5.363a9.429,9.429,0,0,1,3.125.448s.256.128.32-.194c.256-.7.444-1.213.7-2.044.062-.256-.128-.32-.194-.32a10.941,10.941,0,0,0-7.528,0,7.493,7.493,0,0,0-4.4,7.47c0,.787-.161,8.173,7.855,8.173a12.07,12.07,0,0,0,4.212-.769.352.352,0,0,0,.128-.385Zm14.622-10.728a5.958,5.958,0,0,0-6.075-4.4,6.713,6.713,0,0,0-6.96,5.045,10.466,10.466,0,0,0-.448,3.2c0,7.022,5.115,7.98,8.111,7.98a9.571,9.571,0,0,0,5.043-1.021c.128-.066.194-.193.065-.51l-.639-1.854a.34.34,0,0,0-.382-.19,9.783,9.783,0,0,1-4.156.766,4.158,4.158,0,0,1-4.588-3.677V668.6a4.009,4.009,0,0,1,0-.85h10.085a.345.345,0,0,0,.32-.256,13.739,13.739,0,0,0-.382-4.218Zm-6.329-1.728a3.814,3.814,0,0,0-3.7,3.836h7.158c-.238-3.235-2.068-3.836-3.456-3.836Z" transform="translate(-1238.484 -607.393)" fill="#0081c8"/>
              </g>
              <g id="salesforce" transform="translate(5.053 6.138)">
                <g id="LDS" transform="translate(220.085 186.721)">
                  <path id="Path_8092" data-name="Path 8092" d="M1363.4,671.864h14.82l-9.787,15.392h8.649l-22.544,29.094,10.028-25.951h-6.915Z" transform="translate(-1347.648 -671.864)" fill="#1181c8"/>
                  <g id="LDS-2" transform="translate(1.915 43.178)">
                    <g id="LDS-2-2" style="isolation: isolate">
                      <text id="LDS-2-2" data-name="LDS" transform="translate(0 13)" fill="#1181c8" font-size="13" font-family="SourceSansPro-Regular, Source Sans Pro" style="isolation: isolate"><tspan x="0" y="0">LDS</tspan></text>
                    </g>
                  </g>
                  <path id="Path_8398" data-name="Path 8398" d="M1356.577,706.875a16.909,16.909,0,0,1,4.1-30.237" transform="translate(-1348.942 -670.759)" fill="none" stroke="#477189" stroke-linecap="round" stroke-miterlimit="10" stroke-width="1"/>
                  <path id="Path_8399" data-name="Path 8399" d="M1378.295,684.466a16.913,16.913,0,0,1-15.625,23.363h0" transform="translate(-1345.766 -668.948)" fill="none" stroke="#477189" stroke-linecap="round" stroke-miterlimit="10" stroke-width="1"/>
                </g>
                <g id="mulesoft-vector-logo" transform="translate(190.169)">
                  <g id="Group_917" data-name="Group 917" transform="translate(14.19)">
                    <g id="Group_916" data-name="Group 916">
                      <path id="Path_8105" data-name="Path 8105" d="M1345.274,582.284a13.966,13.966,0,1,1,13.958-13.975h0a13.955,13.955,0,0,1-13.934,13.974h-.024Zm-.017-29.291a15.23,15.23,0,0,0-15.162,15.3h0a15.229,15.229,0,0,0,15.3,15.162h0a15.231,15.231,0,0,0-.134-30.462Z" transform="translate(-1330.095 -552.993)" fill="#1181c8"/>
                    </g>
                  </g>
                  <path id="Path_8106" data-name="Path 8106" d="M1340.69,574.041a6.989,6.989,0,0,1-3.906-6.37,7.148,7.148,0,0,1,1.2-4.009l5.025,7.5h3.046l5.025-7.5a7.238,7.238,0,0,1,1.2,4.009,7.044,7.044,0,0,1-3.448,6.126l.97,3.725a11.453,11.453,0,0,0,4.943-15.423h0a11.453,11.453,0,0,0-4.341-4.609l-5.851,9.017-5.787-9.052a11.444,11.444,0,0,0,.926,20.256l.985-3.666Z" transform="translate(-1315.21 -551.96)" fill="#1181c8"/>
                  <path id="Path_8107" data-name="Path 8107" d="M1324.285,589.169l-3.752-8.02h-1.962v12.873h1.962v-8.6l3.029,6.28h1.463l2.943-6.28v8.6h1.962V581.149h-1.962Z" transform="translate(-1318.571 -546.478)" fill="#1181c8"/>
                  <path id="Path_8108" data-name="Path 8108" d="M1334.8,589.746a1.826,1.826,0,0,1-1.586,2.035,1.951,1.951,0,0,1-.307.012c-1.033,0-1.847-.616-1.847-2.048v-5.593h-1.847v5.869a3.4,3.4,0,0,0,.93,2.6,3.237,3.237,0,0,0,2.255.826,3.277,3.277,0,0,0,2.444-1.033v.93h1.807V584.17H1334.8v5.576Z" transform="translate(-1316.111 -545.783)" fill="#1181c8"/>
                  <path id="Path_8109" data-name="Path 8109" d="M1338.532,591.389v-10.24h-1.847v10.344a2.332,2.332,0,0,0,2.118,2.528h0a2.318,2.318,0,0,0,.394,0h1.135v-1.565h-.809c-.739,0-1-.361-1-1.068Z" transform="translate(-1314.382 -546.478)" fill="#1181c8"/>
                  <path id="Path_8110" data-name="Path 8110" d="M1341.94,588.011a2.734,2.734,0,0,1,.246-1.239,1.914,1.914,0,0,1,1.824-1.153,1.893,1.893,0,0,1,1.808,1.153,3.005,3.005,0,0,1,.258,1.239Zm2.048-3.94c-2.339,0-3.89,1.724-3.89,4.679,0,3.493,1.824,4.7,4.13,4.7a4.232,4.232,0,0,0,3.424-1.428l-1.187-1.1a2.751,2.751,0,0,1-2.217.947,2.254,2.254,0,0,1-2.358-2.144v0a2.162,2.162,0,0,1,.019-.418h5.942v-.809c.017-2.6-1.411-4.423-3.873-4.423Z" transform="translate(-1313.59 -545.803)" fill="#1181c8"/>
                  <path id="Path_8111" data-name="Path 8111" d="M1355.338,587.733a4.435,4.435,0,0,0-2.41-.964l-1.463-.224a3.019,3.019,0,0,1-1.446-.585,1.53,1.53,0,0,1-.481-1.2,2.053,2.053,0,0,1,2.074-2.033,2.131,2.131,0,0,1,.266.02,3.852,3.852,0,0,1,2.805.985l1.239-1.221a5.4,5.4,0,0,0-3.992-1.463c-2.684,0-4.3,1.532-4.3,3.786a3.2,3.2,0,0,0,.947,2.463,4.381,4.381,0,0,0,2.444,1.033l1.515.224a2.2,2.2,0,0,1,1.411.55,1.738,1.738,0,0,1,.516,1.342c0,1.239-.985,1.962-2.65,1.962a4.275,4.275,0,0,1-3.286-1.221l-1.308,1.273a5.844,5.844,0,0,0,4.556,1.7c2.7,0,4.63-1.411,4.63-3.786a3.487,3.487,0,0,0-1.068-2.633Z" transform="translate(-1311.944 -546.505)" fill="#1181c8"/>
                  <path id="Path_8112" data-name="Path 8112" d="M1360.684,591.281a1.873,1.873,0,0,1-1.355.533,1.833,1.833,0,0,1-1.342-.533,5.279,5.279,0,0,1,0-5.025,1.979,1.979,0,0,1,2.7,0,3.579,3.579,0,0,1,.636,2.513,3.63,3.63,0,0,1-.636,2.512Zm-1.355-7.211a3.69,3.69,0,0,0-2.736,1.084,6.533,6.533,0,0,0,0,7.211,3.636,3.636,0,0,0,2.736,1.084,3.729,3.729,0,0,0,2.754-1.084,6.542,6.542,0,0,0,0-7.211,3.793,3.793,0,0,0-2.754-1.084Z" transform="translate(-1310.024 -545.803)" fill="#1181c8"/>
                  <path id="Path_8113" data-name="Path 8113" d="M1363.435,583.629v1.411h-1.051v1.411h1.051v7.589h1.847v-7.589h1.824V585.04h-1.824v-1.325a.93.93,0,0,1,.781-1.061h0a.859.859,0,0,1,.233-.006h.809v-1.582h-1.154a2.409,2.409,0,0,0-2.515,2.3v.263Z" transform="translate(-1308.433 -546.498)" fill="#1181c8"/>
                  <path id="Path_8114" data-name="Path 8114" d="M1370.042,582.031H1368.2v2.788h-1.044v1.411h1.051v5.042a2.378,2.378,0,0,0,2.2,2.544h0a2.606,2.606,0,0,0,.31,0h1.1v-1.565h-.757a.932.932,0,0,1-1.021-.834.917.917,0,0,1,0-.233V586.23h1.773v-1.411h-1.773v-2.788Z" transform="translate(-1307.331 -546.274)" fill="#1181c8"/>
                </g>
                <g id="einstein" transform="translate(11.478 9.37)">
                  <path id="Path_8339" data-name="Path 8339" d="M1213.844,552.911c.592.143,1.195.246,1.776.433a12.649,12.649,0,0,1,5.119,3.189,3.306,3.306,0,0,1,.308.416c.535-.442.977-.831,1.444-1.185a8.134,8.134,0,0,1,4.608-1.589,11.574,11.574,0,0,1,4.72.608,2.263,2.263,0,0,1,.327.133.573.573,0,0,1,.283.76v0h0a.6.6,0,0,1-.753.309,18.558,18.558,0,0,0-2.472-.591,7.813,7.813,0,0,0-7.173,2.354l5.2,8.234c.492-.465,1.007-.985,1.549-1.468.641-.58,1.3-1.141,1.955-1.7.355-.3.7-.305.936-.032s.149.639-.195.949c-1.155,1.045-2.3,2.1-3.448,3.154-.142.123-.239.246-.123.467,1.426,2.768,2.808,5.56,4.268,8.309a13.549,13.549,0,0,0,3.966,4.662,9.353,9.353,0,0,0,2.88,1.406.447.447,0,0,0,.594-.218h0l.009-.02a8.69,8.69,0,0,0,1.254-4.355A29.573,29.573,0,0,0,1239,566.928c-.123-.369-.254-.739-.369-1.117a.584.584,0,0,1,.3-.77l.02-.009a.575.575,0,0,1,.751.314h0a.83.83,0,0,1,.026.081c.616,2.08,1.305,4.145,1.782,6.257a27.342,27.342,0,0,1,.541,4.633,9.445,9.445,0,0,1-1.347,5.677c.559,0,1.048.039,1.53-.006a11.206,11.206,0,0,0,6.287-2.606,11.4,11.4,0,0,0,1.411-16.066h0a11.4,11.4,0,0,0-7.064-3.953c-.427-.067-.653-.305-.616-.66a.616.616,0,0,1,.694-.524.787.787,0,0,1,.093.021,12.567,12.567,0,0,1,4.4,23.37,12.362,12.362,0,0,1-7.142,1.6.69.69,0,0,0-.635.27,10.26,10.26,0,0,1-6.351,3.534,24.59,24.59,0,0,1-3.409.089c-.483,0-.965-.085-1.449-.1a.43.43,0,0,0-.335.172,9.349,9.349,0,0,1-6.853,4.893,10.94,10.94,0,0,1-9.3-2.138,10.742,10.742,0,0,1-2.811-3.448.44.44,0,0,0-.527-.3,9.9,9.9,0,0,1-10.692-8.032,4.186,4.186,0,0,0-.15-.507v-2.437c.036-.187.078-.369.108-.563a12.627,12.627,0,0,1,3.981-7.476.481.481,0,0,0,.123-.4,10.166,10.166,0,0,1-.293-3.886,10.883,10.883,0,0,1,3.034-6.649.616.616,0,0,0,.123-.464,2.047,2.047,0,0,1,.739-2.07,1.731,1.731,0,0,1,2.056-.246,1.594,1.594,0,0,0,1.656.049,1.484,1.484,0,0,1,.263-.075l2.13-.463Zm-10.734,13.243c.5-.246.995-.517,1.506-.746a12.654,12.654,0,0,1,5.039-.829,18.532,18.532,0,0,1,4.48.468.411.411,0,0,0,.511-.206,65.043,65.043,0,0,1,5.434-6.809c.205-.224.182-.361-.027-.542-.336-.292-.646-.616-.985-.9a9.338,9.338,0,0,0-8.038-2.346c-.722.142-1.428.361-2.126.539a2.1,2.1,0,0,1-.932,2.189,2.025,2.025,0,0,1-2.277-.047,9.84,9.84,0,0,0-2.586,9.223Zm-.652,2.055a3.5,3.5,0,0,0-.278.256c-.31.355-.639.7-.916,1.075a10.864,10.864,0,0,0-2.217,7.923,8.683,8.683,0,0,0,6.493,7.286,9.031,9.031,0,0,0,2.971.211c-.032-.123-.052-.209-.078-.3a10.124,10.124,0,0,1-.47-3.2,18.715,18.715,0,0,1,.682-4.368.6.6,0,0,0-.189-.681,11.578,11.578,0,0,1-1.1-1.175c-1.241-1.569-2.5-3.129-3.675-4.746a18.241,18.241,0,0,1-1.225-2.289Zm20.4,2.774c-.207-.177-.378-.318-.542-.468a18.637,18.637,0,0,0-7.11-3.963.3.3,0,0,0-.4.123l-.011.022c-.305.5-.638.985-.944,1.493a37.316,37.316,0,0,0-3.67,7.747.59.59,0,0,0,.186.739c.925.791,1.816,1.623,2.755,2.4.722.595,1.5,1.127,2.292,1.724.783-1,1.529-1.941,2.261-2.895a.378.378,0,0,0,.014-.339,2.066,2.066,0,0,1,2.2-3.057.584.584,0,0,0,.442-.191c.305-.357.572-.748.862-1.123.548-.73,1.1-1.458,1.675-2.216Zm-6.429,10.443a29.4,29.4,0,0,0,11.052,4.187,9.124,9.124,0,0,0,.512-3.9,18.589,18.589,0,0,0-3.694-9.245c-.168-.223-.369-.425-.581-.676-.862,1.138-1.679,2.217-2.484,3.317a.449.449,0,0,0,0,.381,2.017,2.017,0,0,1-.17,2.288,2.041,2.041,0,0,1-2.109.739.367.367,0,0,0-.3.078c-.753.925-1.477,1.864-2.23,2.831Zm10.575,5.295A31.034,31.034,0,0,1,1215.6,582.3a10.746,10.746,0,0,1-5.389,3.543c.031.086.066.171.106.255a10.116,10.116,0,0,0,14.5,3.157,7.61,7.61,0,0,0,2.185-2.527Zm11.536-3.9a3.183,3.183,0,0,1-.4-.14,23.418,23.418,0,0,1-2.471-1.266,14.419,14.419,0,0,1-4.664-5.418c-.921-1.715-1.74-3.486-2.619-5.225-.458-.908-.947-1.8-1.46-2.77l-2.426,2.816a1,1,0,0,0,.082.159,17.208,17.208,0,0,1,3.167,5.158,15.98,15.98,0,0,1,1.417,7.013c-.052.862-.255,1.724-.389,2.586,3.129.942,8.134-.527,9.762-2.912Zm-14.964-12.766c.862-.985,1.666-1.911,2.491-2.821a.445.445,0,0,0,.081-.622h0l-.012-.015c-1.333-2.144-2.645-4.3-3.976-6.444-.314-.506-.676-.985-1.056-1.529a68.733,68.733,0,0,0-5.45,6.8,19.571,19.571,0,0,1,7.922,4.635Zm-9.857-3.859c-.123-.038-.207-.072-.293-.089a20.1,20.1,0,0,0-5.2-.305,8.844,8.844,0,0,0-4.421,1.339c-.246.161-.354.3-.2.595a21.3,21.3,0,0,0,1.205,2.33c.914,1.308,1.925,2.548,2.917,3.8.418.527.9,1.01,1.393,1.562a40.691,40.691,0,0,1,4.6-9.223Zm-4,18.537a8.786,8.786,0,0,0,4.8-3.052l-4.834-3.928a11.354,11.354,0,0,0,.032,6.987Z" transform="translate(-1197.186 -552.911)" fill="#1181c8"/>
                  <path id="Path_8340" data-name="Path 8340" d="M1234.566,559.455a4.467,4.467,0,1,1-8.934-.121h0v-.075a4.466,4.466,0,0,1,4.6-4.329h0A4.466,4.466,0,0,1,1234.566,559.455Zm-6.477-.063a2.015,2.015,0,0,0,2,2.028h0a2.016,2.016,0,0,0,2.028-2h0a2.016,2.016,0,1,0-4.032-.026Z" transform="translate(-1190.743 -552.444)" fill="#1181c8"/>
                  <g id="Group_951-2" data-name="Group 951-2" transform="translate(0 44.277)">
                    <path id="Path_8341" data-name="Path 8341" d="M1234.58,599.517l.7,1.02c-.184.123-.339.238-.5.339a5.877,5.877,0,0,1-4.014.739,3.788,3.788,0,0,1-3.223-2.72,5.889,5.889,0,0,1,.394-5.009,3.643,3.643,0,0,1,3.1-1.847,3.845,3.845,0,0,1,3.465,1.206,5.513,5.513,0,0,1,1.076,4.187h-6.723a2.755,2.755,0,0,0,2.512,2.976h.02A4.732,4.732,0,0,0,1234.58,599.517Zm-.535-3.373a2.567,2.567,0,0,0-2.172-2.907c-.061-.009-.124-.016-.182-.02-1.71-.083-2.783.991-2.895,2.927Z" transform="translate(-1190.389 -588.147)" fill="#1181c8"/>
                    <path id="Path_8342" data-name="Path 8342" d="M1205.725,597.419h-6.7a2.7,2.7,0,0,0,2.31,2.966,4.678,4.678,0,0,0,3.374-.872l.7,1.023a5.3,5.3,0,0,1-2.709,1.09,7.752,7.752,0,0,1-1.9-.036,3.781,3.781,0,0,1-3.125-2.709,5.971,5.971,0,0,1,.306-4.839,3.658,3.658,0,0,1,3.154-2.01,3.818,3.818,0,0,1,3.755,1.515,4.982,4.982,0,0,1,.84,2.523C1205.753,596.5,1205.725,596.926,1205.725,597.419Zm-6.822-1.276h5.243a2.574,2.574,0,0,0-2.149-2.911c-1.757-.2-2.844.813-3.094,2.915Z" transform="translate(-1197.299 -588.15)" fill="#1181c8"/>
                    <path id="Path_8343" data-name="Path 8343" d="M1208.355,592.282h1.385l.145,1.075.155.18a1.583,1.583,0,0,1,.189-.43c1.291-1.469,4.349-1.384,5.345-.2a3.7,3.7,0,0,1,.911,2.37c.031,1.991.016,3.982.016,5.974a.608.608,0,0,1-.048.16h-1.5c-.009-.18-.022-.352-.023-.524v-4.945a4.075,4.075,0,0,0-.115-1.016,1.854,1.854,0,0,0-1.42-1.518,2.664,2.664,0,0,0-2.7.724,2.778,2.778,0,0,0-.75,1.961v5.315h-1.6Z" transform="translate(-1194.741 -588.141)" fill="#1181c8"/>
                    <path id="Path_8344" data-name="Path 8344" d="M1238.229,592.277h1.386l.138,1.108c.153-.133.33-.286.5-.442a4.4,4.4,0,0,1,4.433-.592,2.682,2.682,0,0,1,1.572,2.283c.093,2.243.029,4.494.029,6.773h-1.454c-.009-.166-.024-.337-.024-.509q0-2.473-.007-4.948a4.3,4.3,0,0,0-.123-1.064,1.847,1.847,0,0,0-1.495-1.5,2.659,2.659,0,0,0-2.6.739,2.759,2.759,0,0,0-.752,1.96V601.4h-1.592Z" transform="translate(-1187.828 -588.143)" fill="#1181c8"/>
                    <path id="Path_8345" data-name="Path 8345" d="M1215.983,600.584l.608-.828a19.642,19.642,0,0,0,2.243.648,3.364,3.364,0,0,0,1.437-.152,1.3,1.3,0,0,0,.939-1.339,1.252,1.252,0,0,0-.9-1.256c-.444-.16-.909-.262-1.355-.422a9.156,9.156,0,0,1-1.622-.659,2.374,2.374,0,0,1-.715-3.28,2.338,2.338,0,0,1,.462-.528,4.812,4.812,0,0,1,5.541.256l-.607.846a11.591,11.591,0,0,0-1.847-.581,4.366,4.366,0,0,0-1.581.136,1.014,1.014,0,0,0-.772,1.019,1.073,1.073,0,0,0,.634,1.118c.462.2.951.332,1.427.493a11.7,11.7,0,0,1,1.478.515,2.546,2.546,0,0,1,.24,4.5A5.157,5.157,0,0,1,1215.983,600.584Z" transform="translate(-1192.975 -588.141)" fill="#1181c8"/>
                    <path id="Path_8346" data-name="Path 8346" d="M1225.32,589.931V592.7h2.39v1.256h-2.349c-.013.22-.031.391-.031.564v4.653c0,1.431.532,1.881,1.945,1.65.078-.012.155-.03.283-.053l.237,1.09a2.649,2.649,0,0,1-4.044-2.271v-5.63h-1.574v-1.048l1.555-.2c0-.616.017-1.218-.008-1.816a.464.464,0,0,1,.363-.543l.038-.006C1224.5,590.25,1224.862,590.095,1225.32,589.931Z" transform="translate(-1191.542 -588.622)" fill="#1181c8"/>
                    <path id="Path_8347" data-name="Path 8347" d="M1205.542,592.226h1.511v9.126h-1.511Z" transform="translate(-1195.391 -588.091)" fill="#1181c8"/>
                    <path id="Path_8348" data-name="Path 8348" d="M1235.411,592.226h1.509v9.124h-1.509Z" transform="translate(-1188.48 -588.091)" fill="#1181c8"/>
                    <path id="Path_8349" data-name="Path 8349" d="M1236.237,590.81c-.7,0-1.015-.286-1.016-.946a.879.879,0,0,1,.759-.985h0a.861.861,0,0,1,.239,0,.9.9,0,0,1,1.025.747h0a.891.891,0,0,1,.006.214C1237.258,590.471,1236.9,590.807,1236.237,590.81Z" transform="translate(-1188.526 -588.868)" fill="#1181c8"/>
                    <path id="Path_8350" data-name="Path 8350" d="M1206.345,590.808c-.692,0-1-.3-1-.966s.346-.965,1.02-.965a.894.894,0,0,1,1.007.765h0a.94.94,0,0,1,0,.219Q1207.365,590.812,1206.345,590.808Z" transform="translate(-1195.437 -588.868)" fill="#1181c8"/>
                  </g>
                </g>
                <g id="tableau" transform="translate(0 188.613)">
                  <path id="Path_8352" data-name="Path 8352" d="M1212.53,708.21h1.877v4.531c.53-.117,1.036-.254,1.549-.335a4.031,4.031,0,0,1,4.669,3.269h0c.019.112.034.224.044.338a5.849,5.849,0,0,1-.231,2.609,3.936,3.936,0,0,1-3.2,2.6,8.882,8.882,0,0,1-4.44-.381c-.243-.076-.212-.226-.213-.393q-.027-3.387-.051-6.774c-.009-1.708-.009-3.416-.011-5.124Zm1.877,8.688v2.167c0,.193.053.3.254.339a11.223,11.223,0,0,0,1.281.226,2.411,2.411,0,0,0,2.645-1.634,5.062,5.062,0,0,0,.148-1.559,2.365,2.365,0,0,0-1.783-2.263,3.551,3.551,0,0,0-2.372.305.418.418,0,0,0-.156.324c-.024.7-.015,1.4-.015,2.1Z" transform="translate(-1176.506 -676.347)" fill="#1181c8"/>
                  <path id="Path_8353" data-name="Path 8353" d="M1251.719,711.958l.032-.514c.576,0,1.141,0,1.694.009.053,0,.14.127.147.209a5.69,5.69,0,0,1,0,.619q-.023,3.663-.045,7.328c0,.18,0,.321-.224.391a8.556,8.556,0,0,1-4.947.232,3.946,3.946,0,0,1-2.973-3.771,5.731,5.731,0,0,1,.365-2.561,3.961,3.961,0,0,1,4.37-2.368A11.358,11.358,0,0,1,1251.719,711.958Zm-.083,6.606a.571.571,0,0,0,.029-.115c.021-1.489.042-2.977.054-4.466a.345.345,0,0,0-.127-.254,2.605,2.605,0,0,0-4.135,1.405,4.228,4.228,0,0,0-.1,1.088,2.386,2.386,0,0,0,1.705,2.4,5,5,0,0,0,2.566-.055Z" transform="translate(-1167.685 -675.479)" fill="#1181c8"/>
                  <path id="Path_8354" data-name="Path 8354" d="M1205.316,711.951c.008-.127.016-.3.028-.491h1.864v.381q-.031,3.887-.066,7.776c0,.16.018.3-.2.373a8.2,8.2,0,0,1-5.138.18,3.825,3.825,0,0,1-2.737-3.406,4.934,4.934,0,0,1,.811-3.7,3.934,3.934,0,0,1,3.9-1.531A10.117,10.117,0,0,1,1205.316,711.951Zm.011,6.6v-4.026c0-.821-.008-.831-.787-1.123-.032-.011-.062-.029-.095-.04a2.462,2.462,0,0,0-3.221,1.323,2.435,2.435,0,0,0-.116.35,4.923,4.923,0,0,0-.094,1.464,2.322,2.322,0,0,0,1.969,2.2,5.821,5.821,0,0,0,2.343-.148Z" transform="translate(-1180.142 -675.475)" fill="#1181c8"/>
                  <path id="Path_8355" data-name="Path 8355" d="M1241.246,716.365h-6.26a2.259,2.259,0,0,0,1.8,2.335,6.26,6.26,0,0,0,3.7-.424c.09-.038.179-.08.321-.142,0,.568.009,1.091-.01,1.614,0,.079-.127.184-.209.224a6.208,6.208,0,0,1-3.281.557,6.776,6.776,0,0,1-1.508-.308,3.92,3.92,0,0,1-2.758-3.3,4.852,4.852,0,0,1,.872-3.874,4.025,4.025,0,0,1,3.71-1.534,3.849,3.849,0,0,1,3.621,3.912C1241.261,715.724,1241.246,716.015,1241.246,716.365Zm-2.015-1.383a1.612,1.612,0,0,0-1.473-1.74h-.114a2.385,2.385,0,0,0-2.57,1.745Z" transform="translate(-1171.025 -675.469)" fill="#1181c8"/>
                  <path id="Path_8356" data-name="Path 8356" d="M1184.132,715.626V713.9h4.979v-5.219h1.864v5.2h4.973v1.735H1191v5.659h-1.865v-5.649Z" transform="translate(-1184.132 -676.222)" fill="#1181c8"/>
                  <path id="Path_8357" data-name="Path 8357" d="M1259.884,711.661v5.422a1.691,1.691,0,0,0,1.142,1.809,2.584,2.584,0,0,0,1.624.014,1.709,1.709,0,0,0,1.159-1.83v-5.41h1.852a.865.865,0,0,1,.029.14c0,1.87.021,3.739-.008,5.608a2.747,2.747,0,0,1-2.1,2.735,5.475,5.475,0,0,1-3.71-.1,2.774,2.774,0,0,1-1.844-2.718v-5.368c0-.09.009-.179.014-.289Z" transform="translate(-1164.29 -675.421)" fill="#1181c8"/>
                  <path id="Path_8358" data-name="Path 8358" d="M1226.917,723.316h-1.807V706.825h1.813Z" transform="translate(-1173.128 -676.719)" fill="#1181c8"/>
                  <path id="Path_8359" data-name="Path 8359" d="M1221.922,695.222v4h-1.488v-3.969h-3.65v-1.44h3.623v-4.03h1.51v4.01h3.7v1.432Z" transform="translate(-1175.364 -681.296)" fill="#1181c8"/>
                  <path id="Path_8360" data-name="Path 8360" d="M1227.255,693.42h-1.285v-3.552h-3.336v-1.134h3.312v-3.581h1.283v3.561h3.3v1.133h-3.269Z" transform="translate(-1173.793 -682.539)" fill="#1181c8"/>
                  <path id="Path_8361" data-name="Path 8361" d="M1227.254,703.575h-1.285v-3.592h-3.335V698.87h3.313V695.3h1.286v3.552h3.287v1.115h-3.269Z" transform="translate(-1173.793 -679.813)" fill="#1181c8"/>
                  <path id="Path_8362" data-name="Path 8362" d="M1214.972,699.976h-3.3v-1.1h3.274V695.3h1.261v3.552h3.349v1.123h-3.338v3.593h-1.247Z" transform="translate(-1176.736 -679.814)" fill="#1181c8"/>
                  <path id="Path_8363" data-name="Path 8363" d="M1214.984,685.145h1.229v3.579h3.344v1.087h-3.343v3.613h-1.2V689.83h-3.33v-1.1h3.3Z" transform="translate(-1176.734 -682.541)" fill="#1181c8"/>
                  <path id="Path_8364" data-name="Path 8364" d="M1221.424,701.809h2.214v.979h-2.2v2.482h-1.08v-2.462h-2.27v-.994h2.241v-2.5h1.094Z" transform="translate(-1175.012 -678.735)" fill="#1181c8"/>
                  <path id="Path_8365" data-name="Path 8365" d="M1228.728,691.177h1.072v2.5h2.246v.984h-2.223v2.5h-1.08v-2.491h-2.283v-.969h2.264Z" transform="translate(-1172.766 -680.921)" fill="#1181c8"/>
                  <path id="Path_8366" data-name="Path 8366" d="M1211.849,696.928v-2.4h-2.23v-.789h2.221v-2.41h.825v2.389h2.21v.781h-2.2v2.422Z" transform="translate(-1177.288 -680.879)" fill="#1181c8"/>
                  <path id="Path_8367" data-name="Path 8367" d="M1223.442,685.534v.761h-2.168v2.451h-.813V686.3h-2.239v-.745h2.216v-2.465h.814v2.441Z" transform="translate(-1174.978 -683.092)" fill="#1181c8"/>
                </g>
              </g>
            </g>
          </g>
        </g>
      </g>
    </g>
  </g>
</svg>
