<?xml version="1.0" encoding="utf-8"?>
<!-- Generator: Adobe Illustrator 24.3.0, SVG Export Plug-In . SVG Version: 6.00 Build 0)  -->
<svg version="1.1" id="Layer_1" xmlns="http://www.w3.org/2000/svg" xmlns:xlink="http://www.w3.org/1999/xlink" x="0px" y="0px"
	 viewBox="0 0 640 640" style="enable-background:new 0 0 640 640;" xml:space="preserve">
<style type="text/css">
	.st0{fill:none;stroke:#627783;stroke-width:2;stroke-linecap:round;}
	.st1{fill:none;stroke:#907EB2;stroke-width:3;stroke-linecap:round;}
	.st2{fill:#627783;}
	.st3{font-family:'SourceSansPro-Regular';}
	.st4{font-size:13.2958px;}
	.st5{font-size:12.4648px;}
	.st6{fill:#FFFFFF;}
</style>
<path id="Path_8404" class="st0" d="M111.23,337.29"/>
<g id="ellipse4">
	<path id="Ellipse_111" class="st1" d="M94.55,154.17c9.48-12.03,19.9-23.28,31.16-33.66"/>
	<path id="Ellipse_111-2" class="st1" d="M51.69,229.89c3.97-10.47,8.55-20.71,13.73-30.64"/>
	<path id="Ellipse_111-3" class="st1" d="M34.32,357.26c-0.76-8.5-1.14-17.11-1.15-25.81c-0.01-19.27,1.91-38.5,5.74-57.38"/>
	<path id="Ellipse_111-4" class="st1" d="M66.61,465.93c-11.39-21.4-20-44.16-25.62-67.74"/>
	<path id="Ellipse_111-5" class="st1" d="M184.39,584.18c-35.52-19.1-66.64-45.45-91.33-77.34"/>
	<path id="Ellipse_111-6" class="st1" d="M284.2,615.95c-24.09-2.98-47.7-9.04-70.26-18.01"/>
	<path id="Ellipse_111-7" class="st1" d="M419.58,600.33c-19.28,7.15-39.28,12.2-59.65,15.04"/>
	<path id="Ellipse_111-8" class="st1" d="M548.39,504.6c-23.66,31.19-53.44,57.22-87.5,76.52"/>
	<path id="Ellipse_111-9" class="st1" d="M600.63,389.74c-6.74,32.63-19.16,63.82-36.68,92.17"/>
	<path id="Ellipse_111-10" class="st1" d="M600.41,272.13c3.56,16.93,5.58,34.15,6.04,51.45"/>
	<path id="Ellipse_111-11" class="st1" d="M573.28,197.26c4.59,8.65,8.74,17.54,12.41,26.62"/>
	<path id="Ellipse_111-12" class="st1" d="M513.39,119.93c10.92,10,21.06,20.82,30.32,32.37"/>
	<path id="Ellipse_111-13" class="st1" d="M163.13,91.36c94.82-61.85,217.16-62.15,312.29-0.77"/>
</g>
<g id="cloud-2">
	<g id="azure-logo">
		<g id="Azure">
			<g id="Azure-2">
				<text transform="matrix(1 0 0 1 131.8595 116.2665)" class="st2 st3 st4">Azure</text>
			</g>
		</g>
		<path id="Icon_simple-microsoftazure" class="st2" d="M140.17,102.78h20.49l-11.04-19.13l-3.36,9.23l6.46,7.68L140.17,102.78z
			 M148.74,82.2l-7.88,6.61l-6.76,11.7h6.09v0.02L148.74,82.2z"/>
	</g>
	<g id="AWS">
		<path id="Icon_simple-amazonaws" class="st2" d="M38.95,245.66c-0.01,0.32,0.03,0.65,0.12,0.96c0.1,0.27,0.21,0.53,0.34,0.78
			c0.05,0.07,0.07,0.16,0.08,0.25c-0.01,0.13-0.09,0.25-0.21,0.32l-0.68,0.45c-0.08,0.06-0.18,0.09-0.28,0.1
			c-0.12-0.01-0.24-0.06-0.32-0.15c-0.15-0.16-0.27-0.32-0.39-0.51c-0.12-0.21-0.23-0.42-0.33-0.63c-0.77,0.96-1.94,1.5-3.16,1.48
			c-0.79,0.04-1.57-0.24-2.15-0.77c-1.13-1.23-1.05-3.15,0.18-4.28c0.75-0.59,1.68-0.89,2.63-0.84c0.38,0,0.76,0.03,1.14,0.08
			c0.4,0.05,0.81,0.14,1.24,0.24v-0.79c0.06-0.62-0.12-1.24-0.51-1.72c-0.5-0.38-1.13-0.56-1.75-0.5c-0.39,0-0.78,0.05-1.16,0.14
			c-0.4,0.09-0.79,0.22-1.16,0.37c-0.12,0.05-0.25,0.1-0.38,0.14c-0.06,0.02-0.11,0.03-0.17,0.03c-0.15,0-0.23-0.11-0.23-0.33v-0.52
			c-0.01-0.13,0.01-0.26,0.08-0.38c0.08-0.1,0.18-0.18,0.3-0.23c0.43-0.21,0.89-0.38,1.35-0.49c0.55-0.14,1.11-0.21,1.68-0.2
			c1.02-0.09,2.03,0.23,2.82,0.87c0.65,0.72,0.97,1.68,0.9,2.65v3.49L38.95,245.66z M34.59,247.3c0.38,0,0.75-0.07,1.11-0.19
			c0.39-0.14,0.75-0.37,1.02-0.69c0.17-0.2,0.3-0.44,0.37-0.69c0.07-0.31,0.11-0.62,0.11-0.94v-0.45c-0.33-0.08-0.66-0.14-0.99-0.18
			c-0.34-0.04-0.67-0.06-1.01-0.07c-0.57-0.05-1.13,0.11-1.6,0.43c-0.69,0.5-0.83,1.46-0.33,2.15
			C33.56,247.09,34.06,247.33,34.59,247.3L34.59,247.3z M43.23,248.46c-0.15,0.02-0.29-0.02-0.41-0.11
			c-0.11-0.12-0.19-0.26-0.23-0.42l-2.53-8.32c-0.05-0.14-0.08-0.28-0.1-0.43c-0.02-0.13,0.07-0.25,0.2-0.27c0,0,0,0,0,0
			c0.02,0,0.04,0,0.06,0h1.06c0.15-0.02,0.3,0.02,0.42,0.11c0.11,0.12,0.19,0.26,0.22,0.42l1.81,7.12l1.68-7.12
			c0.02-0.16,0.09-0.3,0.2-0.42c0.13-0.08,0.28-0.12,0.43-0.11h0.86c0.15-0.01,0.3,0.02,0.43,0.11c0.11,0.11,0.18,0.26,0.2,0.42
			l1.7,7.21l1.86-7.21c0.03-0.16,0.11-0.3,0.22-0.42c0.12-0.08,0.27-0.12,0.42-0.11h1c0.13-0.02,0.25,0.08,0.27,0.21
			c0,0.02,0,0.04,0,0.06c0,0.06-0.01,0.12-0.02,0.17c-0.02,0.09-0.04,0.18-0.08,0.27l-2.59,8.32c-0.03,0.16-0.11,0.3-0.23,0.42
			c-0.12,0.08-0.27,0.12-0.41,0.11h-0.91c-0.15,0.02-0.3-0.02-0.43-0.11c-0.11-0.12-0.18-0.27-0.2-0.43l-1.67-6.94l-1.66,6.93
			c-0.03,0.16-0.1,0.31-0.2,0.43c-0.13,0.08-0.28,0.12-0.43,0.11L43.23,248.46z M57.05,248.75c-0.56,0-1.11-0.06-1.66-0.19
			c-0.43-0.09-0.85-0.23-1.24-0.43c-0.25-0.09-0.41-0.34-0.4-0.6v-0.55c0-0.23,0.08-0.33,0.25-0.33c0.07,0,0.13,0.01,0.19,0.03
			c0.06,0.02,0.17,0.06,0.27,0.11c0.38,0.17,0.78,0.29,1.18,0.38c0.42,0.09,0.85,0.13,1.28,0.13c0.55,0.03,1.09-0.09,1.57-0.36
			c0.36-0.22,0.57-0.61,0.56-1.02c0.01-0.28-0.1-0.55-0.29-0.75c-0.32-0.27-0.69-0.46-1.09-0.56l-1.56-0.49
			c-0.68-0.17-1.28-0.56-1.72-1.1c-0.35-0.45-0.54-1-0.54-1.56c-0.01-0.42,0.09-0.83,0.29-1.19c0.19-0.35,0.45-0.65,0.77-0.89
			c0.33-0.25,0.71-0.44,1.12-0.56c0.44-0.13,0.9-0.19,1.36-0.18c0.24,0,0.48,0.01,0.72,0.04c0.25,0.03,0.47,0.08,0.7,0.12
			c0.21,0.04,0.41,0.1,0.61,0.17c0.16,0.05,0.31,0.11,0.45,0.19c0.13,0.06,0.24,0.16,0.32,0.27c0.07,0.11,0.1,0.23,0.1,0.35v0.51
			c0,0.23-0.08,0.34-0.25,0.34c-0.14-0.02-0.28-0.06-0.41-0.13c-0.65-0.29-1.35-0.43-2.06-0.42c-0.5-0.03-0.99,0.07-1.43,0.3
			c-0.33,0.2-0.53,0.57-0.51,0.96c-0.01,0.29,0.11,0.57,0.32,0.76c0.35,0.28,0.75,0.48,1.18,0.59l1.53,0.48
			c0.65,0.17,1.23,0.53,1.67,1.03c0.33,0.43,0.5,0.96,0.5,1.51c0,0.43-0.09,0.86-0.28,1.25c-0.19,0.37-0.46,0.69-0.79,0.95
			c-0.36,0.28-0.76,0.48-1.19,0.6C58.09,248.68,57.58,248.76,57.05,248.75L57.05,248.75z M59.09,253.98c-3.54,2.62-8.68,4-13.11,4
			c-5.91,0.03-11.61-2.14-16-6.1c-0.33-0.3-0.03-0.71,0.37-0.47c8.62,4.97,19.06,5.62,28.22,1.76
			C59.16,252.9,59.67,253.55,59.09,253.98L59.09,253.98z M60.56,252.3c-0.45-0.58-2.99-0.28-4.14-0.14
			c-0.34,0.04-0.4-0.26-0.08-0.49c2.02-1.42,5.35-1.01,5.73-0.54c0.39,0.47-0.11,3.81-2,5.4c-0.29,0.25-0.57,0.12-0.44-0.2
			C60.06,255.27,61.02,252.87,60.56,252.3L60.56,252.3z"/>
	</g>
	<g id="gcloud">
		<g id="Google_Cloud">
			<g id="Google">
				<text transform="matrix(1 0 0 1 475.7511 115.3275)" class="st2 st3 st5">Google</text>
			</g>
			<g id="Cloud-2-2">
				<text transform="matrix(1 0 0 1 478.8048 130.285)" class="st2 st3 st5">Cloud</text>
			</g>
		</g>
		<path id="Icon_simple-googlecloud" class="st2" d="M495.06,81.95c-4.14-0.1-7.81,2.65-8.9,6.64c0.05-0.02-0.05,0.01,0,0
			c-2.96,1.99-3.74,6-1.75,8.96c0.41,0.61,0.92,1.14,1.51,1.58l0.01-0.01l-0.01,0.03c1.13,0.85,2.51,1.31,3.93,1.31h4.99l0.03,0.03
			h5c3.59,0.03,6.53-2.86,6.56-6.46l0,0c0.02-2.18-1.06-4.22-2.86-5.44c-0.46-1.7-1.41-3.22-2.72-4.39l-0.04,0.04l0.01-0.05
			C499.23,82.8,497.19,82,495.06,81.95L495.06,81.95z M494.72,85.95c1.22-0.04,2.41,0.35,3.36,1.11c1.16,0.97,1.82,2.42,1.79,3.93
			v0.5c3.4-0.07,3.4,5.07,0,5h-5l-0.01,0.01v-0.04h-5c-0.35,0-0.7-0.08-1.03-0.22l0,0c-1.26-0.57-1.82-2.05-1.25-3.31
			c0.57-1.26,2.05-1.82,3.31-1.25c0.55,0.25,1,0.69,1.25,1.25l2.9-2.9c-0.97-1.26-2.36-2.12-3.91-2.42
			c0.02-0.01,0.04-0.02,0.05-0.02C492.09,86.58,493.37,85.99,494.72,85.95L494.72,85.95z"/>
	</g>
	<g id="others">
		<g id="Ionic_Logo">
			<path id="Path_8101" class="st2" d="M534.9,487.43c-2.35,0-4.25,1.9-4.25,4.25v0l0,0c0,2.35,1.9,4.25,4.25,4.25c0,0,0,0,0,0l0,0
				c2.35,0,4.25-1.9,4.25-4.25v0l0,0C539.15,489.33,537.25,487.43,534.9,487.43L534.9,487.43L534.9,487.43z"/>
			<circle id="Ellipse_105" class="st2" cx="541" cy="485.87" r="1.94"/>
			<path id="Path_8102" class="st2" d="M543.39,487.82l-0.08-0.18l-0.13,0.15c-0.32,0.36-0.72,0.64-1.17,0.8l-0.13,0.05l0.05,0.13
				c1.62,3.89-0.22,8.34-4.11,9.96l0,0c-3.89,1.62-8.35-0.22-9.96-4.11c-1.62-3.89,0.22-8.35,4.11-9.96
				c1.99-0.83,4.24-0.77,6.19,0.15l0.12,0.06l0.05-0.13c0.19-0.44,0.48-0.83,0.86-1.13l0.15-0.13l-0.17-0.09
				c-1.32-0.69-2.79-1.04-4.27-1.04c-5.15,0-9.32,4.17-9.32,9.32l0,0c0,5.15,4.17,9.32,9.32,9.32c5.15,0,9.32-4.17,9.32-9.32
				c0-1.34-0.29-2.65-0.84-3.87L543.39,487.82z"/>
			<rect id="Rectangle_336" x="549.02" y="487.62" class="st2" width="1.97" height="8.12"/>
			<rect id="Rectangle_337" x="570.23" y="487.62" class="st2" width="1.97" height="8.12"/>
			<path id="Path_8103" class="st2" d="M565.69,487.43c-0.99,0.03-1.95,0.41-2.69,1.06l0,0l-0.13-0.87h-1.63v8.12h1.97v-4.91
				c0-0.96,1.31-1.75,2.27-1.75c1.02,0.09,1.76,0.99,1.68,2.01v4.66h1.97v-4.47C569.1,489.14,568.18,487.43,565.69,487.43z"/>
			<path id="Path_8104" class="st2" d="M577.36,494.26c-1.43-0.07-2.53-1.28-2.46-2.71c0.06-1.33,1.13-2.4,2.46-2.46
				c0.83,0.07,1.58,0.52,2.03,1.22l1.42-0.95c-0.39-0.59-0.92-1.07-1.54-1.41c-0.56-0.34-1.2-0.52-1.86-0.53
				c-2.35-0.05-4.29,1.81-4.34,4.15c-0.05,2.35,1.81,4.29,4.15,4.34c0.01,0,0.02,0,0.03,0h0.17c0.65-0.01,1.29-0.19,1.85-0.53
				c0.62-0.34,1.15-0.82,1.54-1.41l-1.42-0.95C578.93,493.74,578.19,494.19,577.36,494.26z"/>
			<path id="Path_8403" class="st2" d="M556.25,487.43h-0.14c-2.35,0-4.25,1.9-4.25,4.25c0,2.35,1.9,4.25,4.25,4.25
				c2.34,0,4.24-1.89,4.25-4.23C560.4,489.39,558.56,487.48,556.25,487.43z M556.15,493.94c-1.34,0.01-2.42-1.07-2.43-2.41
				c0,0,0,0,0,0v-0.01c0-1.34,1.08-2.42,2.42-2.43h0.01c1.34,0,2.42,1.08,2.43,2.42C558.57,492.85,557.49,493.94,556.15,493.94
				L556.15,493.94L556.15,493.94z"/>
		</g>
		<g id="apple">
			<path id="Icon_awesome-apple" class="st2" d="M204.23,584.97c-0.04-1.6,0.84-3.09,2.25-3.83c-0.89-1.23-2.3-1.98-3.82-2.01
				c-1.6-0.13-3.36,0.93-4,0.93c-0.68,0-2.23-0.89-3.45-0.89c-2.52,0.04-5.2,2.01-5.2,6.02c0.01,1.25,0.23,2.49,0.65,3.67
				c0.58,1.66,2.67,5.72,4.84,5.65c1.14-0.03,1.94-0.81,3.42-0.81c1.44,0,2.18,0.81,3.45,0.81c2.2-0.03,4.08-3.73,4.63-5.39
				C205.33,588.43,204.23,586.79,204.23,584.97L204.23,584.97z M201.67,577.55c0.81-0.89,1.2-2.08,1.08-3.27
				c-1.18,0.13-2.28,0.69-3.07,1.58c-0.82,0.88-1.24,2.05-1.16,3.25C199.77,579.13,200.94,578.55,201.67,577.55L201.67,577.55z"/>
			<g id="Ios">
				<text transform="matrix(1 0 0 1 190.8595 609.8734)" class="st2 st3 st4">Ios</text>
			</g>
		</g>
		<g id="swift">
			<path id="Icon_simple-swift" class="st2" d="M83.68,485.49c0.05-0.11,0.05-0.22,0.11-0.32c1.3-5.08-1.78-11.02-7.08-14.16
				c2.28,2.88,3.17,6.62,2.43,10.21c-0.07,0.3-0.16,0.58-0.27,0.86c-0.15-0.08-0.29-0.17-0.43-0.27c-3.93-2.58-7.56-5.57-10.86-8.92
				c1.97,2.93,4.17,5.69,6.59,8.26c-3.32-2.11-6.47-4.5-9.4-7.13c0.38,0.63,0.81,1.23,1.3,1.78c2.77,3.74,6,7.12,9.62,10.05
				c-2.76,1.68-6.59,1.78-10.48,0c-0.95-0.45-1.86-0.99-2.7-1.62c1.73,2.71,4.23,4.84,7.19,6.11c3.62,1.57,7.29,1.46,9.94,0h0.05
				c0.12-0.05,0.23-0.13,0.32-0.22c1.3-0.65,3.84-1.35,5.24,1.35C85.63,492.25,86.33,488.73,83.68,485.49z"/>
			<g id="Swift-2">
				<text transform="matrix(1 0 0 1 59.5626 507.6615)" class="st2 st3 st4">Swift</text>
			</g>
		</g>
		<g id="php">
			<path id="Icon_simple-php" class="st2" d="M27.19,371.39h-1.44l-0.79,4.04h1.27c0.67,0.05,1.33-0.12,1.89-0.48
				c0.47-0.41,0.76-0.98,0.84-1.6c0.17-0.51,0.1-1.07-0.19-1.52C28.33,371.48,27.76,371.32,27.19,371.39L27.19,371.39z M34.8,364.5
				c-10.1,0-18.29,4.31-18.29,9.62c0,5.31,8.19,9.62,18.29,9.62s18.29-4.31,18.29-9.62C53.09,368.81,44.9,364.5,34.8,364.5
				L34.8,364.5z M29.83,375.86c-0.4,0.38-0.88,0.67-1.4,0.84c-0.64,0.18-1.3,0.27-1.96,0.25h-1.8l-0.5,2.56h-2.1l1.87-9.64h4.04
				c0.98-0.09,1.96,0.26,2.66,0.96c0.58,0.76,0.77,1.75,0.5,2.67C30.98,374.41,30.51,375.24,29.83,375.86L29.83,375.86z
				 M35.96,376.95l0.83-4.27c0.12-0.33,0.08-0.69-0.1-0.99c-0.3-0.22-0.68-0.31-1.05-0.27h-1.66l-1.07,5.53h-2.09l1.87-9.65h2.08
				l-0.5,2.56h1.86c0.85-0.09,1.71,0.13,2.42,0.61c0.48,0.54,0.63,1.3,0.4,1.98l-0.87,4.49L35.96,376.95z M47.54,373.5
				c-0.08,0.45-0.24,0.89-0.47,1.29c-0.23,0.4-0.52,0.76-0.86,1.07c-0.4,0.38-0.88,0.67-1.4,0.84c-0.64,0.18-1.3,0.27-1.96,0.25
				h-1.8l-0.5,2.56h-2.1l1.87-9.64h4.04c0.98-0.09,1.96,0.26,2.66,0.96C47.62,371.59,47.81,372.58,47.54,373.5L47.54,373.5z
				 M43.59,371.39h-1.44l-0.79,4.04h1.28c0.67,0.05,1.33-0.12,1.89-0.48c0.47-0.41,0.76-0.98,0.84-1.6c0.17-0.51,0.1-1.07-0.19-1.52
				C44.73,371.48,44.16,371.32,43.59,371.39L43.59,371.39z"/>
		</g>
		<g id="android">
			<path id="Icon_awesome-android" class="st2" d="M435.72,576.96v6.77c0.01,0.88-0.7,1.61-1.58,1.62h-0.02
				c-0.92,0.01-1.69-0.7-1.76-1.62v-6.77c0.07-0.91,0.84-1.62,1.76-1.61C434.99,575.36,435.71,576.08,435.72,576.96z M436.35,586.14
				c0,0.95,0.77,1.73,1.72,1.73l0,0h1.17l0.02,3.57c0.02,0.89,0.76,1.6,1.65,1.58l0,0c0.86-0.02,1.56-0.71,1.58-1.58v-3.57h2.17
				v3.57c0.03,0.89,0.78,1.6,1.67,1.57c0.85-0.03,1.54-0.71,1.57-1.57v-3.57h1.18c0.95,0,1.72-0.78,1.72-1.73l0,0v-10.49h-14.45
				L436.35,586.14z M450.84,575.08h-14.56c0.04-2.48,1.48-4.73,3.72-5.81l-1.12-2.06c-0.07-0.11-0.04-0.24,0.07-0.31l0,0l0,0
				c0.1-0.07,0.24-0.04,0.31,0.07c0,0,0,0,0,0l0,0l0.01,0.02l1.13,2.08c2.02-0.88,4.31-0.88,6.33,0l1.13-2.08
				c0.06-0.11,0.19-0.16,0.3-0.1c0,0,0,0,0,0l0,0c0.11,0.06,0.16,0.19,0.1,0.3l0,0l-0.01,0.02l-1.12,2.07
				C449.37,570.36,450.8,572.61,450.84,575.08L450.84,575.08z M440.87,571.84c0-0.34-0.27-0.61-0.61-0.61l0,0l0,0
				c-0.34,0.01-0.6,0.3-0.59,0.63c0,0,0,0,0,0l0,0c0.01,0.33,0.28,0.59,0.61,0.59C440.61,572.45,440.87,572.17,440.87,571.84
				L440.87,571.84L440.87,571.84z M447.49,571.84c0-0.33-0.28-0.6-0.61-0.6c0,0,0,0,0,0l0,0c-0.33,0-0.6,0.28-0.6,0.61
				c0,0.33,0.28,0.6,0.61,0.6l0,0l0,0C447.23,572.45,447.49,572.17,447.49,571.84L447.49,571.84z M453.03,575.36
				c-0.88-0.01-1.61,0.71-1.61,1.59l0,0l0,0v6.78c0,0.89,0.72,1.61,1.61,1.62l0,0c0.92,0.01,1.69-0.7,1.76-1.62v-6.77
				C454.72,576.04,453.95,575.34,453.03,575.36L453.03,575.36z"/>
			<g id="Android-2">
				<text transform="matrix(1 0 0 1 423.5362 608.2123)" class="st2 st3 st4">Android</text>
			</g>
		</g>
		<g id="laravel">
			<g id="Group_953">
				<path id="Path_8351" class="st2" d="M588.98,340.57c0.07-0.18,0.2-0.32,0.37-0.39c1.68-0.96,3.36-1.93,5.03-2.9
					c0.18-0.12,0.42-0.12,0.61,0c1.71,0.99,3.42,1.97,5.13,2.96c0.18,0.1,0.29,0.29,0.27,0.5v11.19c0.12-0.07,0.22-0.12,0.32-0.18
					l3.97-2.29c0.08-0.03,0.12-0.11,0.11-0.2v-5.55c-0.01-0.21,0.1-0.4,0.29-0.5c1.72-0.98,3.43-1.97,5.14-2.96
					c0.17-0.11,0.38-0.11,0.55,0c1.72,0.99,3.43,1.98,5.15,2.96c0.18,0.09,0.29,0.28,0.28,0.48v5.87c0.01,0.21-0.1,0.4-0.29,0.49
					c-1.63,0.93-3.25,1.86-4.87,2.8c-0.07,0.03-0.12,0.11-0.11,0.19c0,1.85,0,3.7,0.01,5.55c0.01,0.22-0.1,0.42-0.3,0.52
					c-3.46,1.99-6.91,3.97-10.36,5.96c-0.19,0.13-0.44,0.13-0.63,0c-3.46-1.99-6.92-3.99-10.39-5.98c-0.13-0.07-0.22-0.19-0.27-0.33
					L588.98,340.57z M599.52,364.01v-4.92c0.01-0.1-0.04-0.19-0.13-0.23c-1.6-0.9-3.2-1.81-4.8-2.71c-0.22-0.1-0.36-0.34-0.34-0.58
					c0.01-3.84,0.01-7.67,0.01-11.51c0.01-0.08-0.04-0.16-0.11-0.2c-1.39-0.8-2.78-1.6-4.17-2.4c-0.03-0.02-0.07-0.04-0.13-0.07
					v16.87c-0.01,0.1,0.05,0.2,0.14,0.25c2.85,1.64,5.7,3.27,8.54,4.92L599.52,364.01z M600.38,364c0.06-0.03,0.1-0.05,0.14-0.07
					l9.43-5.43c0.07-0.03,0.12-0.11,0.11-0.19v-4.89c-0.06,0.03-0.09,0.05-0.13,0.07c-3.15,1.8-6.29,3.59-9.44,5.39
					c-0.07,0.03-0.12,0.11-0.11,0.19V364L600.38,364z M595.12,354.95c0.05-0.02,0.08-0.04,0.11-0.06l4.18-2.4
					c0.07-0.03,0.12-0.11,0.11-0.19v-10.77c0-0.04,0-0.08-0.01-0.13l-0.1,0.05l-4.18,2.4c-0.08,0.03-0.12,0.11-0.11,0.2v10.75
					L595.12,354.95z M595.57,355.71c0.04,0.03,0.07,0.05,0.11,0.07c1.4,0.79,2.79,1.58,4.19,2.37c0.06,0.04,0.14,0.03,0.2-0.01
					c3.12-1.78,6.23-3.56,9.35-5.34c0.06-0.04,0.13-0.08,0.21-0.12l-0.12-0.07l-4.16-2.4c-0.07-0.05-0.16-0.05-0.23,0
					c-3.14,1.81-6.29,3.62-9.43,5.43C595.64,355.66,595.6,355.68,595.57,355.71L595.57,355.71z M590.29,340.64l0.11,0.07
					c1.39,0.8,2.79,1.6,4.18,2.41c0.06,0.05,0.15,0.05,0.22,0c1.39-0.8,2.78-1.6,4.17-2.4c0.03-0.02,0.07-0.04,0.12-0.07l-0.11-0.07
					c-1.4-0.8-2.79-1.61-4.19-2.41c-0.06-0.04-0.14-0.04-0.2,0.01c-1.37,0.79-2.74,1.58-4.11,2.37L590.29,340.64z M606.09,343.62
					l0.12,0.07l4.17,2.4c0.06,0.05,0.15,0.05,0.22,0c1.37-0.79,2.75-1.59,4.12-2.38c0.05-0.03,0.1-0.06,0.17-0.1l-0.12-0.07
					c-1.4-0.8-2.79-1.61-4.19-2.41c-0.05-0.04-0.12-0.04-0.18,0c-1.31,0.75-2.61,1.51-3.92,2.26L606.09,343.62z M610.05,351.92
					c0-0.05,0.01-0.09,0.01-0.12v-4.78c0.01-0.07-0.03-0.14-0.09-0.17c-1.39-0.8-2.79-1.6-4.18-2.4c-0.04-0.02-0.08-0.04-0.13-0.07
					c0,0.05-0.01,0.09-0.01,0.13v4.77c-0.01,0.07,0.03,0.14,0.09,0.17c1.4,0.8,2.8,1.61,4.2,2.42
					C609.97,351.87,610,351.88,610.05,351.92L610.05,351.92z M615.32,344.38c-0.05,0.02-0.08,0.04-0.1,0.05
					c-1.4,0.81-2.8,1.61-4.2,2.42c-0.07,0.03-0.11,0.1-0.1,0.18v4.89c0.05-0.03,0.09-0.05,0.12-0.07c1.39-0.8,2.78-1.6,4.17-2.4
					c0.07-0.03,0.11-0.11,0.11-0.19L615.32,344.38L615.32,344.38z"/>
			</g>
			<g id="Laravel-2">
				<g id="Laravel-2-2_1_">
					<text transform="matrix(1 0 0 1 581.1085 378.5912)" class="st2 st3 st4">Laravel</text>
				</g>
			</g>
		</g>
		<g id="github">
			<path id="Icon_awesome-github" class="st2" d="M585.69,249.84c0,0.09-0.1,0.17-0.24,0.17c-0.15,0.01-0.25-0.06-0.25-0.17
				c0-0.09,0.1-0.17,0.24-0.17S585.69,249.73,585.69,249.84z M584.29,249.63c-0.03,0.09,0.06,0.19,0.19,0.22
				c0.1,0.05,0.23,0.01,0.28-0.09c0.03-0.09-0.06-0.19-0.19-0.24C584.46,249.49,584.34,249.54,584.29,249.63L584.29,249.63z
				 M586.28,249.56c-0.13,0.03-0.22,0.12-0.21,0.22c0.01,0.09,0.13,0.15,0.27,0.12c0.14-0.03,0.22-0.12,0.21-0.21
				C586.54,249.6,586.41,249.54,586.28,249.56L586.28,249.56z M589.26,232.25c-5.98-0.13-10.93,4.62-11.06,10.6v0.42
				c-0.04,4.87,3.05,9.22,7.66,10.8c0.58,0.1,0.78-0.25,0.78-0.55c0-0.28-0.01-1.83-0.01-2.77c0,0-3.16,0.68-3.82-1.35
				c0,0-0.52-1.31-1.26-1.65c0,0-1.03-0.71,0.07-0.7c0.73,0.1,1.37,0.53,1.75,1.16c0.62,1.16,2.07,1.6,3.23,0.98l0.06-0.03
				c0.06-0.58,0.31-1.11,0.72-1.52c-2.52-0.28-5.07-0.65-5.07-4.99c-0.05-1,0.34-1.97,1.07-2.66c-0.34-1-0.31-2.09,0.11-3.06
				c0.95-0.29,3.12,1.22,3.12,1.22c1.86-0.51,3.82-0.51,5.67,0c0,0,2.17-1.52,3.12-1.22c0.42,0.97,0.46,2.07,0.12,3.07
				c0.75,0.68,1.18,1.65,1.16,2.66c0,4.36-2.66,4.71-5.19,4.99c0.55,0.55,0.83,1.32,0.77,2.1c0,1.52-0.01,3.41-0.01,3.78
				c0,0.29,0.21,0.65,0.78,0.55c4.6-1.58,7.66-5.93,7.58-10.79c-0.03-6.12-5.01-11.05-11.13-11.02l0,0
				C589.4,232.25,589.33,232.25,589.26,232.25L589.26,232.25z M582.59,247.83c-0.06,0.04-0.04,0.15,0.03,0.24
				c0.07,0.07,0.18,0.1,0.24,0.04c0.06-0.04,0.04-0.15-0.03-0.24C582.75,247.8,582.65,247.77,582.59,247.83L582.59,247.83z
				 M582.1,247.46c-0.03,0.06,0.01,0.13,0.1,0.18c0.06,0.05,0.14,0.04,0.19-0.02l0,0l0.01-0.01c0.03-0.06-0.01-0.13-0.1-0.18
				C582.2,247.41,582.13,247.42,582.1,247.46L582.1,247.46z M583.56,249.07c-0.07,0.06-0.04,0.19,0.06,0.28
				c0.1,0.1,0.24,0.12,0.29,0.04c0.06-0.06,0.03-0.19-0.06-0.28C583.76,249.01,583.62,249,583.56,249.07z M583.05,248.4
				c-0.07,0.04-0.07,0.17,0,0.27s0.19,0.15,0.25,0.1c0.07-0.08,0.07-0.2,0-0.28C583.24,248.39,583.12,248.35,583.05,248.4
				L583.05,248.4z"/>
			<g id="GitHub_">
				<g id="GitHub-2">
					<text transform="matrix(1 0 0 1 572.4923 268.4276)" class="st2 st3 st4">GitHub</text>
				</g>
			</g>
		</g>
		<g id="node.js">
			<g id="Icon_ionic-logo-nodejs">
				<path id="Path_8436" class="st2" d="M80.89,176.13c-0.34,0-0.68-0.09-0.97-0.27l-3.1-1.89c-0.46-0.27-0.24-0.36-0.08-0.42
					c0.51-0.18,1-0.42,1.46-0.72c0.07-0.04,0.16-0.03,0.23,0.02l2.32,1.37c0.09,0.05,0.2,0.05,0.29,0l9.07-5.39
					c0.09-0.06,0.14-0.15,0.14-0.26v-10.92c0-0.11-0.05-0.21-0.14-0.26l-9.06-5.53c-0.09-0.05-0.2-0.05-0.29,0l-9.06,5.53
					c-0.09,0.06-0.15,0.16-0.15,0.26v10.92c0,0.11,0.05,0.2,0.14,0.26l2.33,1.4c1.38,0.71,2.2-0.01,2.2-0.85v-10.73
					c0-0.15,0.12-0.27,0.26-0.28c0,0,0,0,0,0h1.33c0.15,0,0.27,0.12,0.27,0.28v0l0,0v10.73c0.16,1.49-0.92,2.82-2.41,2.98
					c-0.15,0.02-0.31,0.02-0.46,0.01c-0.76,0.01-1.5-0.2-2.14-0.6l-2.43-1.45c-0.61-0.37-0.97-1.03-0.97-1.75V157.5
					c0-0.71,0.37-1.37,0.97-1.75l9.28-5.54c0.6-0.34,1.34-0.34,1.95,0l9.27,5.54c0.61,0.37,0.98,1.03,0.97,1.75v11.07
					c0,0.71-0.37,1.38-0.97,1.75l-9.27,5.54C81.57,176.04,81.24,176.13,80.89,176.13L80.89,176.13z"/>
				<path id="Path_8437" class="st2" d="M83.75,168.65c-3.78,0-4.91-1.85-4.91-3.46c0-0.15,0.11-0.27,0.26-0.28c0,0,0,0,0,0h1.2
					c0.13,0,0.25,0.1,0.27,0.23c0.18,1.26,0.98,1.82,3.17,1.82c1.95,0,2.75-0.6,2.75-1.68c0-0.62-0.2-1.08-3.24-1.38
					c-2.54-0.26-4.11-0.84-4.11-2.94c0-1.94,1.58-3.07,4.22-3.07c2.69,0,4.47,0.82,4.63,2.97c0,0.08-0.02,0.15-0.07,0.21
					c-0.05,0.06-0.12,0.09-0.19,0.09h-1.2c-0.13,0-0.24-0.09-0.26-0.22c-0.26-0.99-0.99-1.37-2.9-1.37c-2.13,0-2.38,0.75-2.38,1.32
					c0,0.7,0.29,0.9,3.17,1.3c2.85,0.39,4.2,0.94,4.2,3.01C88.37,167.3,86.69,168.65,83.75,168.65L83.75,168.65z"/>
			</g>
			<g id="Node.js-2">
				<text transform="matrix(1 0 0 1 59.4025 191.9769)" class="st2 st3 st4">Node.js</text>
			</g>
		</g>
		<g id="python">
			<g id="Icon_ionic-logo-python">
				<path id="Path_8438" class="st2" d="M551.26,163.08c0.22-0.04,0.45-0.06,0.68-0.06h5.89c0.25,0,0.51-0.03,0.75-0.1
					c1.15-0.31,1.95-1.36,1.95-2.55v-5.1c-0.1-1.46-1.24-2.64-2.7-2.78c-1.07-0.15-2.14-0.23-3.22-0.22c-0.87,0-1.73,0.07-2.59,0.22
					c-2.29,0.4-2.71,1.24-2.71,2.78v1.67h5.61v0.93h-7.43c-2.08,0-3.77,2.49-3.79,5.57v0.04c0,0.54,0.05,1.07,0.16,1.6
					c0.47,2.32,1.91,4.01,3.63,4.01h0.89v-2.69C548.42,164.75,549.63,163.35,551.26,163.08z M551.86,155.95
					c-0.56,0-1.02-0.45-1.02-1.02c0-0.56,0.45-1.02,1.02-1.02c0.56,0,1.02,0.45,1.02,1.02v0.01
					C552.88,155.49,552.42,155.95,551.86,155.95L551.86,155.95z"/>
				<path id="Path_8439" class="st2" d="M565.9,161.53c-0.54-2.13-1.92-3.66-3.55-3.66h-0.89v2.38c0.09,1.77-1.15,3.33-2.89,3.66
					c-0.16,0.02-0.32,0.04-0.49,0.04h-6.07c-0.26,0-0.51,0.03-0.76,0.1c-1.13,0.26-1.94,1.27-1.95,2.43v5.1
					c0,1.45,1.46,2.3,2.89,2.72c1.84,0.54,3.79,0.54,5.63,0c1.36-0.39,2.7-1.18,2.7-2.72v-1.54h-5.61v-0.93h7.43
					c1.48,0,2.75-1.25,3.38-3.07c0.27-0.82,0.41-1.68,0.41-2.54C566.14,162.82,566.06,162.17,565.9,161.53z M557.95,170.89
					c0.56,0,1.02,0.45,1.02,1.02c0,0.56-0.45,1.02-1.02,1.02c-0.56,0-1.02-0.45-1.02-1.02v-0.01
					C556.93,171.35,557.39,170.9,557.95,170.89C557.95,170.89,557.95,170.89,557.95,170.89z"/>
			</g>
			<g id="Python-2">
				<text transform="matrix(1 0 0 1 538.0519 191.9769)" class="st2 st3 st4">Python</text>
			</g>
		</g>
	</g>
	<g id="bhoomi">
		<circle id="Ellipse_115" class="st2" cx="352.73" cy="606.64" r="1.45"/>
		<path id="Path_8440" class="st2" d="M310,610.06c3.22,0.06,5.78,2.72,5.72,5.94c-0.06,3.22-2.72,5.78-5.94,5.72
			c-3.22-0.06-5.78-2.72-5.72-5.94c0.06-3.13,2.58-5.66,5.72-5.72C309.86,610.05,309.93,610.05,310,610.06z M310,619.65
			c2.05,0.02,3.72-1.63,3.73-3.68c0.02-2.05-1.63-3.72-3.68-3.73c-2.05-0.02-3.72,1.63-3.73,3.68v0.02
			c-0.06,1.99,1.5,3.65,3.48,3.71C309.88,619.65,309.94,619.66,310,619.65z"/>
		<path id="Path_8441" class="st2" d="M323.4,610.06c3.22,0.06,5.78,2.72,5.72,5.94c-0.06,3.22-2.72,5.78-5.94,5.72
			c-3.22-0.06-5.78-2.72-5.72-5.94c0.06-3.13,2.59-5.66,5.72-5.72C323.25,610.05,323.32,610.05,323.4,610.06z M323.4,619.65
			c2.04,0.01,3.71-1.63,3.72-3.67c0.01-2.04-1.63-3.71-3.67-3.72c-2.04-0.01-3.71,1.63-3.72,3.67v0.03c-0.06,1.99,1.51,3.64,3.5,3.7
			c0,0,0,0,0,0C323.28,619.65,323.34,619.65,323.4,619.65z"/>
		<path id="Path_8442" class="st2" d="M351.56,621.34v-11.03c0-0.14,0.11-0.25,0.25-0.26h1.82c0.14,0,0.25,0.11,0.26,0.25v11.04
			c0,0.14-0.11,0.25-0.25,0.25l0,0h-1.82C351.67,621.6,351.56,621.48,351.56,621.34L351.56,621.34L351.56,621.34z"/>
		<path id="Path_8443" class="st2" d="M344.75,610.06c-1.62-0.05-3.15,0.75-4.04,2.11c-0.83-1.41-2.39-2.23-4.03-2.11
			c-1.35-0.07-2.65,0.56-3.43,1.67v-1.8c0-0.14-0.12-0.26-0.26-0.26c-0.04,0-0.09,0.01-0.13,0.03l-1.89,1.09
			c-0.04,0.02-0.07,0.07-0.07,0.12v10.43c0,0.14,0.11,0.25,0.25,0.25l0,0H333c0.14,0,0.25-0.11,0.26-0.25v-6.12
			c-0.05-1.58,1.19-2.91,2.77-2.96c0.1,0,0.19,0,0.29,0.01c1.68,0,2.67,1.08,2.67,2.96v6.12c0,0.14,0.11,0.25,0.25,0.25l0,0h1.83
			c0.14,0,0.25-0.11,0.25-0.24c0,0,0,0,0,0v-6.27c0.02-1.58,1.32-2.85,2.9-2.83c0,0,0,0,0,0c0.05,0,0.1,0,0.15,0.01
			c1.65,0,2.66,1.08,2.66,2.96v6.12c0,0.14,0.11,0.25,0.25,0.25l0,0h1.83c0.14,0,0.25-0.11,0.25-0.25l0,0l0,0v-6.61
			C349.39,611.99,347.76,610.06,344.75,610.06z"/>
		<path id="Path_8444" class="st2" d="M296.45,610.06c-1.54-0.02-3.04,0.55-4.17,1.59v-7.8c0-0.14-0.11-0.25-0.26-0.25
			c-0.04,0-0.09,0.01-0.12,0.03l-1.88,1.08c-0.04,0.02-0.07,0.07-0.07,0.12v16.52c0,0.14,0.11,0.25,0.25,0.25l0,0h1.83
			c0.14,0,0.25-0.11,0.25-0.25v0l0,0v-1.1c1.14,1.04,2.63,1.61,4.17,1.59c3.25,0.07,5.94-2.51,6.01-5.77
			c0.07-3.25-2.51-5.94-5.77-6.01c-0.02,0-0.04,0-0.05,0C296.59,610.05,296.52,610.05,296.45,610.06z M296.45,619.65
			c-1.99,0.04-3.64-1.55-3.68-3.55c0,0,0,0,0,0c0-0.05,0-0.11,0-0.16c-0.05-1.99,1.52-3.65,3.51-3.7c0,0,0,0,0,0
			c0.05,0,0.11,0,0.17,0c1.99-0.04,3.64,1.54,3.68,3.54c0,0,0,0,0,0c0,0.05,0,0.11,0,0.17c0.06,1.99-1.51,3.65-3.5,3.71
			C296.57,619.65,296.51,619.65,296.45,619.65z"/>
	</g>
</g>
<g id="TECHNOLOGY">
	<g id="TECHNOLOGY-2">
		<text transform="matrix(1 0 0 1 278.4308 26.3568)" class="st6 st3 st5">TECHNOLOGY</text>
	</g>
</g>
<path id="Layer_1_1_" class="st2" d="M339.81,233.39"/>
</svg>
