<?xml version="1.0" encoding="utf-8"?>
<!-- Generator: Adobe Illustrator 24.3.0, SVG Export Plug-In . SVG Version: 6.00 Build 0)  -->
<svg version="1.1" id="Layer_1" xmlns="http://www.w3.org/2000/svg" xmlns:xlink="http://www.w3.org/1999/xlink" x="0px" y="0px"
	 viewBox="0 0 640 640" style="enable-background:new 0 0 640 640;" xml:space="preserve">
<style type="text/css">
	.st0{fill:none;stroke:#627783;stroke-width:2;stroke-linecap:round;}
	.st1{fill:none;stroke:#61A14D;stroke-width:3;stroke-linecap:round;}
	.st2{fill:#627783;}
	.st3{font-family:'SourceSansPro-Regular';}
	.st4{font-size:13.2958px;}
	.st5{fill:#FFFFFF;}
	.st6{font-size:12.4648px;}
</style>
<path id="Path_8404" class="st0" d="M111.23,337.29"/>
<g id="ellipse2">
	<path id="Ellipse_113" class="st1" d="M197.52,251.76c43.98-67.62,134.44-86.79,202.07-42.82c10.4,6.76,19.89,14.82,28.25,23.97"/>
	<path id="Ellipse_113-2" class="st1" d="M189.46,396.96c-10.24-20.35-15.56-42.82-15.53-65.6c0-8.7,0.76-17.38,2.3-25.94"/>
	<path id="Ellipse_113-3" class="st1" d="M294.11,475.11c-24.65-4.41-47.74-15.11-67.04-31.07"/>
	<path id="Ellipse_113-4" class="st1" d="M429.11,428.37c-22.15,24.96-52.2,41.57-85.12,47.05"/>
	<path id="Ellipse_113-5" class="st1" d="M460.17,290.39c9.38,32.29,7.39,66.82-5.65,97.81"/>
</g>
<g id="PM-1">
	<g id="jira">
		<g id="Jira-2">
			<g id="Jira-2-2_1_">
				<text transform="matrix(1 0 0 1 435.2686 443.767)" class="st2 st3 st4">Jira</text>
			</g>
		</g>
		<path id="Icon_awesome-jira" class="st2" d="M459.19,407.7c-4.26-4.25-9.9-9.93-14.11-14.12c-9.67,9.64-14.17,14.12-14.17,14.12
			c-0.46,0.46-0.46,1.21,0,1.68c7.76,7.73,3.61,3.59,14.17,14.12c22.17-22.09,0.91-0.98,14.11-14.12c0.46-0.45,0.47-1.19,0.01-1.66
			L459.19,407.7z M445.08,412.96l-4.44-4.42l4.44-4.42l4.44,4.42L445.08,412.96z"/>
	</g>
	<g id="asana">
		<g id="Asana-2">
			<g id="Asana-2-2_1_">
				<text transform="matrix(1 0 0 1 304.2208 492.7943)" class="st2 st3 st4">Asana</text>
			</g>
		</g>
		<path id="Icon_simple-asana" class="st2" d="M327.63,463.37c-3.59,0-6.51,2.91-6.51,6.51c0,3.59,2.91,6.51,6.51,6.51
			c3.59,0,6.51-2.91,6.51-6.51l0,0l0,0C334.14,466.28,331.22,463.37,327.63,463.37L327.63,463.37L327.63,463.37z M310.73,463.37
			c-3.59,0-6.51,2.91-6.51,6.51c0,3.59,2.91,6.51,6.51,6.51c3.59,0,6.51-2.91,6.51-6.51l0,0l0,0
			C317.23,466.28,314.32,463.37,310.73,463.37z M325.69,455.23c0,3.59-2.91,6.51-6.51,6.51l0,0c-3.59,0.01-6.51-2.9-6.52-6.49
			c-0.01-3.59,2.9-6.51,6.49-6.52c0.01,0,0.02,0,0.02,0l0,0C322.77,448.73,325.69,451.64,325.69,455.23L325.69,455.23L325.69,455.23
			L325.69,455.23z"/>
	</g>
	<g id="confluence">
		<g id="Confluence-2">
			<g id="Confluence-2-2_1_">
				<text transform="matrix(1 0 0 1 408.5919 283.4486)" class="st2 st3 st4">Confluence</text>
			</g>
		</g>
		<path id="Icon_awesome-confluence" class="st2" d="M422.53,263.16c-0.26,0.45-0.12,1.02,0.32,1.3l6.19,3.81
			c0.45,0.28,1.03,0.14,1.31-0.31l0,0c0,0,0-0.01,0.01-0.01c3.92-6.56,4.7-5.6,16.41-0.04c0.47,0.23,1.04,0.02,1.27-0.45
			c0.01-0.01,0.01-0.02,0.01-0.02l2.94-6.67c0.21-0.48,0-1.03-0.47-1.25c-1.3-0.61-3.87-1.82-6.19-2.94
			C429.84,249.54,425,259.25,422.53,263.16z M452.17,244.93c0.26-0.45,0.12-1.02-0.32-1.3l-6.18-3.8c-0.43-0.29-1.02-0.18-1.32,0.25
			c0,0,0,0,0,0l0,0c-0.01,0.02-0.03,0.04-0.03,0.06c-3.93,6.58-4.74,5.59-16.4,0.05c-0.47-0.23-1.04-0.02-1.27,0.45
			c-0.01,0.01-0.01,0.02-0.01,0.02l-2.95,6.67c-0.21,0.48,0,1.03,0.47,1.25c1.3,0.61,3.87,1.82,6.19,2.95
			C444.85,258.54,449.69,248.87,452.17,244.93L452.17,244.93z"/>
	</g>
	<g id="gantt">
		<g id="Group_954">
			<path id="Path_8370" class="st2" d="M177.21,272.96h24.46c0.25,0,0.58-0.09,0.75,0.03c0.31,0.22,0.72,0.56,0.72,0.86
				c0,0.28-0.43,0.61-0.75,0.82c-0.18,0.12-0.5,0.04-0.76,0.04h-24.61c-1.42,0-1.53-0.1-1.53-1.49v-23.86
				c0-0.25-0.09-0.58,0.04-0.75c0.19-0.31,0.5-0.54,0.85-0.63c0.25-0.02,0.6,0.33,0.78,0.6c0.12,0.18,0.04,0.5,0.04,0.75v22.48
				L177.21,272.96z"/>
			<path id="Path_8371" class="st2" d="M187.99,265.25c-1.56,0-3.13,0.01-4.69,0c-1.07-0.01-1.66-0.55-1.66-1.5
				c-0.04-0.82,0.6-1.52,1.42-1.55c0,0,0,0,0,0l0,0c0.08,0,0.15,0,0.23,0.01c3.16-0.02,6.32-0.02,9.47,0
				c0.85-0.08,1.61,0.55,1.69,1.41c0,0,0,0,0,0l0,0c0,0.04,0.01,0.08,0.01,0.13c0,0.84-0.68,1.52-1.52,1.52
				c-0.06,0-0.11,0-0.17-0.01C191.18,265.26,189.58,265.25,187.99,265.25z"/>
			<path id="Path_8372" class="st2" d="M195.74,267.44c1.59,0,3.18-0.01,4.78,0c1.04,0.01,1.62,0.53,1.66,1.43
				c0.08,0.81-0.52,1.53-1.33,1.61c-0.08,0.01-0.17,0.01-0.25,0c-3.21,0.03-6.43,0.03-9.64,0c-0.82,0.05-1.53-0.58-1.58-1.41v-0.14
				c0-0.92,0.63-1.49,1.69-1.5C192.61,267.43,194.18,267.44,195.74,267.44z"/>
			<path id="Path_8373" class="st2" d="M185.69,260.12c-0.85,0-1.7,0.02-2.56,0c-0.78,0.04-1.44-0.56-1.48-1.34c0,0,0,0,0,0v-0.08
				c-0.1-0.79,0.47-1.51,1.26-1.61c0,0,0,0,0,0l0,0c0.04-0.01,0.08-0.01,0.13-0.01c1.79-0.05,3.58-0.05,5.37,0
				c0.84,0.07,1.46,0.81,1.38,1.64c-0.07,0.78-0.71,1.38-1.49,1.39h-0.05C187.39,260.13,186.54,260.12,185.69,260.12z"/>
			<path id="Path_8374" class="st2" d="M183.55,254.82c-0.83,0-1.65,0.01-2.48,0c-0.77,0.05-1.44-0.54-1.5-1.31v-0.1
				c-0.1-0.78,0.45-1.49,1.22-1.59c0,0,0,0,0,0c0.03,0,0.06-0.01,0.09-0.01c1.82-0.06,3.65-0.06,5.47,0
				c0.78,0.05,1.38,0.72,1.34,1.5c0,0.03,0,0.06-0.01,0.09c0.01,0.78-0.63,1.42-1.41,1.43L183.55,254.82L183.55,254.82z"/>
		</g>
		<g id="GANTT-2">
			<g id="GANTT-2-2_1_">
				<text transform="matrix(1 0 0 1 170.5489 291.6952)" class="st2 st3 st4">GANTT</text>
			</g>
		</g>
	</g>
	<g id="slack">
		<path id="Icon_awesome-slack" class="st2" d="M199.97,428.83c0,1.76-1.42,3.18-3.18,3.18l0,0l0,0c-1.76,0-3.18-1.42-3.18-3.18v0
			l0,0c0-1.76,1.42-3.18,3.18-3.18c0,0,0,0,0,0h3.18V428.83z M201.57,428.83c0.03-1.76,1.48-3.16,3.23-3.13
			c1.72,0.03,3.1,1.41,3.13,3.13v7.96c-0.03,1.76-1.47,3.16-3.23,3.13l0,0c-1.72-0.03-3.1-1.41-3.13-3.13V428.83z M204.75,416.05
			c-1.76,0-3.18-1.42-3.18-3.18v0l0,0c0-1.76,1.42-3.18,3.18-3.18c0,0,0,0,0,0l0,0c1.76,0,3.18,1.42,3.18,3.18v0l0,0v3.18H204.75z
			 M204.75,417.66c1.76-0.03,3.2,1.37,3.23,3.13c0.03,1.76-1.37,3.2-3.13,3.23h-8.07c-1.76,0.03-3.2-1.37-3.23-3.13l0,0
			c-0.03-1.76,1.37-3.2,3.13-3.23c0,0,0,0,0,0H204.75z M217.52,420.84c0-1.76,1.42-3.18,3.18-3.18c1.76,0,3.18,1.42,3.18,3.18l0,0
			c0,1.76-1.42,3.18-3.18,3.18h-3.18L217.52,420.84z M215.92,420.84c-0.03,1.76-1.47,3.16-3.23,3.13l0,0
			c-1.72-0.03-3.1-1.41-3.13-3.13v-7.96c0.03-1.76,1.48-3.16,3.23-3.13c1.72,0.03,3.1,1.41,3.13,3.13V420.84z M212.74,433.61
			c1.76,0,3.18,1.42,3.18,3.18c0,0,0,0,0,0l0,0c0,1.76-1.42,3.18-3.18,3.18l0,0c-1.76,0-3.18-1.42-3.18-3.18c0,0,0,0,0,0l0,0v-3.18
			L212.74,433.61z M212.74,432c-1.76-0.03-3.16-1.47-3.13-3.23v0l0,0c0.03-1.72,1.41-3.1,3.13-3.13h7.96
			c1.76-0.03,3.2,1.37,3.23,3.13c0.03,1.76-1.37,3.2-3.13,3.23L212.74,432L212.74,432z"/>
		<g id="Slack-2">
			<g id="Slack-2-2_1_">
				<text transform="matrix(1 0 0 1 193.8556 457.0619)" class="st2 st3 st4">Slack</text>
			</g>
		</g>
	</g>
</g>
<g id="Project_Management">
	<g id="PROJECT_MANAGEMENT-2">
		<text transform="matrix(1 0 0 1 258.9542 162.7626)" class="st5 st3 st6">PROJECT MANAGEMENT</text>
	</g>
</g>
<path id="Layer_1_1_" class="st2" d="M339.81,233.39"/>
</svg>
