<?xml version="1.0" encoding="utf-8"?>
<!-- Generator: Adobe Illustrator 24.3.0, SVG Export Plug-In . SVG Version: 6.00 Build 0)  -->
<svg version="1.1" id="Layer_1" xmlns="http://www.w3.org/2000/svg" xmlns:xlink="http://www.w3.org/1999/xlink" x="0px" y="0px"
	 viewBox="0 0 640 640" style="enable-background:new 0 0 640 640;" xml:space="preserve">
<style type="text/css">
	.st0{fill:none;stroke:#627783;stroke-width:2;stroke-linecap:round;}
	.st1{fill:none;stroke:#F5C113;stroke-width:3;stroke-linecap:round;}
	.st2{fill:#627783;}
	.st3{font-family:'SourceSansPro-Regular';}
	.st4{font-size:13.2958px;}
	.st5{fill:none;stroke:#627783;stroke-linecap:round;stroke-miterlimit:10;}
	.st6{fill:#FFFFFF;}
	.st7{fill:#0D80C4;}
</style>
<path id="Path_8404" class="st0" d="M111.23,337.29"/>
<g id="ellipse1">
	<path id="Ellipse_114" class="st1" d="M252.27,371.82c-12.98-21.75-14.74-48.41-4.74-71.68"/>
	<path id="Ellipse_114-2" class="st1" d="M366.65,394.91c-25.26,18.54-59.1,20.38-86.22,4.69"/>
	<path id="Ellipse_114-3" class="st1" d="M389.55,294.23c10.97,20.61,12.27,45.01,3.55,66.67"/>
	<path id="Ellipse_114-4" class="st1" d="M284.84,260.73c21.68-10.76,47.1-10.99,68.97-0.62"/>
</g>
<g id="salesforce">
	<g id="LDS">
		<path id="Path_8092" class="st2" d="M379.52,358.59h10l-6.6,10.39h5.84l-15.21,19.63l6.77-17.51h-4.67L379.52,358.59z"/>
		<g id="LDS-2">
			<g id="LDS-2-2_1_">
				<text transform="matrix(1 0 0 1 370.1837 401.0268)" class="st2 st3 st4">LDS</text>
			</g>
		</g>
		<path id="Path_8398" class="st5" d="M374.04,382.96c-5.27-3.46-6.74-10.53-3.28-15.8c1.43-2.18,3.57-3.81,6.05-4.6"/>
		<path id="Path_8399" class="st5" d="M390.84,369.06c2.4,5.83-0.37,12.5-6.2,14.9c-1.38,0.57-2.85,0.86-4.35,0.86l0,0"/>
	</g>
	<g id="mulesoft-vector-logo">
		<g id="Group_917">
			<g id="Group_916">
				<path id="Path_8105" class="st2" d="M365.97,277.92c-5.21,0-9.43-4.21-9.43-9.42c0-5.21,4.21-9.43,9.42-9.43
					c5.21,0,9.43,4.21,9.43,9.42c0,0,0,0,0,0l0,0c0.01,5.2-4.2,9.42-9.4,9.43L365.97,277.92L365.97,277.92z M365.95,258.15
					c-5.68,0.03-10.26,4.65-10.23,10.32c0,0,0,0,0,0l0,0c0.03,5.68,4.65,10.26,10.32,10.23c0,0,0,0,0,0l0,0
					c5.68-0.03,10.26-4.65,10.23-10.32C376.25,262.71,371.63,258.13,365.95,258.15L365.95,258.15L365.95,258.15z"/>
			</g>
		</g>
		<path id="Path_8106" class="st2" d="M363.34,273.05c-1.64-0.8-2.66-2.48-2.64-4.3c-0.01-0.96,0.28-1.91,0.81-2.71l3.39,5.06h2.06
			l3.39-5.06c0.53,0.8,0.81,1.74,0.81,2.71c0.02,1.69-0.87,3.27-2.33,4.13l0.65,2.51c3.8-1.95,5.29-6.61,3.34-10.41c0,0,0,0,0,0l0,0
			c-0.66-1.29-1.68-2.37-2.93-3.11l-3.95,6.09l-3.91-6.11c-3.68,2.15-4.93,6.88-2.78,10.56c0.79,1.36,1.98,2.44,3.4,3.11
			L363.34,273.05L363.34,273.05z"/>
		<path id="Path_8107" class="st2" d="M350,286.96l-2.53-5.41h-1.32v8.68h1.32v-5.81l2.04,4.24h0.99l1.99-4.24v5.81h1.32v-8.68
			h-1.33L350,286.96z"/>
		<path id="Path_8108" class="st2" d="M358.76,287.82c0.08,0.67-0.4,1.29-1.07,1.37c-0.07,0.01-0.14,0.01-0.21,0.01
			c-0.7,0-1.25-0.42-1.25-1.38v-3.77h-1.25v3.96c-0.05,0.65,0.18,1.28,0.63,1.75c0.42,0.37,0.96,0.57,1.52,0.56
			c0.62,0.01,1.22-0.24,1.65-0.7v0.63h1.22v-6.19h-1.25L358.76,287.82L358.76,287.82z"/>
		<path id="Path_8109" class="st2" d="M362.44,288.46v-6.91h-1.25v6.98c-0.08,0.87,0.56,1.63,1.43,1.71l0,0
			c0.09,0.01,0.18,0.01,0.27,0h0.77v-1.06h-0.55C362.61,289.18,362.44,288.93,362.44,288.46L362.44,288.46z"/>
		<path id="Path_8110" class="st2" d="M365.28,286.63c-0.01-0.29,0.05-0.57,0.17-0.84c0.21-0.49,0.7-0.8,1.23-0.78
			c0.53-0.02,1.01,0.29,1.22,0.78c0.12,0.26,0.18,0.55,0.17,0.84H365.28z M366.66,283.97c-1.58,0-2.63,1.16-2.63,3.16
			c0,2.36,1.23,3.17,2.79,3.17c0.88,0.05,1.73-0.3,2.31-0.96l-0.8-0.75c-0.37,0.43-0.93,0.67-1.5,0.64
			c-0.84,0.04-1.55-0.61-1.59-1.45c0,0,0,0,0,0l0,0c0-0.09,0-0.19,0.01-0.28h4.01v-0.55C369.28,285.2,368.31,283.97,366.66,283.97
			L366.66,283.97z"/>
		<path id="Path_8111" class="st2" d="M375.43,285.97c-0.46-0.37-1.03-0.6-1.63-0.65l-0.99-0.15c-0.35-0.04-0.69-0.18-0.98-0.39
			c-0.22-0.21-0.34-0.51-0.32-0.81c0.01-0.77,0.63-1.38,1.4-1.37c0.06,0,0.12,0.01,0.18,0.01c0.69-0.04,1.38,0.2,1.89,0.66
			l0.84-0.82c-0.73-0.68-1.7-1.04-2.69-0.99c-1.81,0-2.9,1.03-2.9,2.56c-0.04,0.62,0.2,1.23,0.64,1.66c0.46,0.4,1.04,0.64,1.65,0.7
			l1.02,0.15c0.35,0.01,0.69,0.14,0.95,0.37c0.24,0.24,0.37,0.57,0.35,0.91c0,0.84-0.66,1.32-1.79,1.32
			c-0.82,0.05-1.63-0.25-2.22-0.82l-0.88,0.86c0.81,0.81,1.93,1.23,3.07,1.15c1.82,0,3.12-0.95,3.12-2.56
			C376.17,287.09,375.91,286.44,375.43,285.97L375.43,285.97z"/>
		<path id="Path_8112" class="st2" d="M380.33,288.84c-0.24,0.24-0.57,0.37-0.91,0.36c-0.34,0.01-0.67-0.12-0.91-0.36
			c-0.57-1.06-0.57-2.33,0-3.39c0.51-0.48,1.31-0.48,1.82,0c0.35,0.49,0.5,1.1,0.43,1.7C380.84,287.74,380.68,288.35,380.33,288.84
			L380.33,288.84z M379.42,283.97c-0.69-0.02-1.36,0.24-1.85,0.73c-0.98,1.47-0.98,3.39,0,4.87c0.48,0.49,1.16,0.76,1.85,0.73
			c0.69,0.02,1.37-0.24,1.86-0.73c0.97-1.48,0.97-3.39,0-4.87C380.78,284.22,380.11,283.96,379.42,283.97z"/>
		<path id="Path_8113" class="st2" d="M383.26,283.21v0.95h-0.71v0.95h0.71v5.12h1.25v-5.12h1.23v-0.95h-1.23v-0.89
			c-0.05-0.34,0.18-0.66,0.53-0.72c0,0,0,0,0,0l0,0c0.05-0.01,0.1-0.01,0.16,0h0.55v-1.07h-0.78c-0.9-0.04-1.66,0.66-1.7,1.55
			L383.26,283.21L383.26,283.21z"/>
		<path id="Path_8114" class="st2" d="M388.47,282.28h-1.25v1.88h-0.7v0.95h0.7v3.41c-0.06,0.88,0.6,1.65,1.49,1.72l0,0
			c0.07,0,0.14,0,0.21,0h0.74v-1.06h-0.51c-0.35,0.03-0.65-0.22-0.69-0.56c-0.01-0.05-0.01-0.1,0-0.16v-3.34h1.2v-0.95h-1.2
			L388.47,282.28L388.47,282.28z"/>
	</g>
	<g id="einstein">
		<path id="Path_8339" class="st2" d="M256.61,258.08c0.4,0.1,0.81,0.17,1.2,0.29c1.31,0.43,2.49,1.17,3.45,2.15
			c0.08,0.09,0.15,0.18,0.21,0.28c0.36-0.3,0.66-0.56,0.97-0.8c0.9-0.67,1.99-1.04,3.11-1.07c1.08-0.09,2.16,0.05,3.19,0.41
			c0.08,0.02,0.15,0.05,0.22,0.09c0.19,0.09,0.28,0.32,0.19,0.51c0,0,0,0,0,0l0,0l0,0c-0.09,0.19-0.31,0.28-0.51,0.21
			c-0.55-0.17-1.1-0.3-1.67-0.4c-1.78-0.34-3.61,0.26-4.84,1.59l3.51,5.56c0.33-0.31,0.68-0.66,1.05-0.99
			c0.43-0.39,0.88-0.77,1.32-1.15c0.24-0.2,0.48-0.21,0.63-0.02c0.16,0.18,0.1,0.43-0.13,0.64c-0.78,0.71-1.55,1.42-2.33,2.13
			c-0.1,0.08-0.16,0.17-0.08,0.31c0.96,1.87,1.89,3.75,2.88,5.61c0.64,1.24,1.56,2.32,2.68,3.15c0.59,0.43,1.25,0.75,1.94,0.95
			c0.15,0.07,0.33,0,0.4-0.15c0,0,0,0,0,0l0,0l0.01-0.01c0.54-0.89,0.83-1.9,0.85-2.94c-0.01-2.35-0.44-4.69-1.26-6.89
			c-0.08-0.25-0.17-0.5-0.25-0.75c-0.09-0.2,0-0.43,0.2-0.52c0,0,0,0,0,0l0.01-0.01c0.2-0.08,0.43,0.01,0.51,0.21c0,0,0,0,0,0l0,0
			c0.01,0.02,0.01,0.04,0.02,0.05c0.42,1.4,0.88,2.8,1.2,4.22c0.21,1.03,0.33,2.08,0.36,3.13c0.11,1.34-0.21,2.68-0.91,3.83
			c0.38,0,0.71,0.03,1.03,0c1.56-0.13,3.05-0.75,4.24-1.76c3.26-2.73,3.68-7.58,0.95-10.84l0,0c-1.21-1.44-2.91-2.39-4.77-2.67
			c-0.29-0.04-0.44-0.21-0.42-0.45c0.03-0.23,0.24-0.39,0.47-0.35c0.02,0,0.04,0.01,0.06,0.01c4.64,0.67,7.85,4.97,7.18,9.61
			c-0.38,2.59-1.93,4.87-4.21,6.16c-1.46,0.84-3.14,1.21-4.82,1.08c-0.17-0.02-0.33,0.05-0.43,0.18c-1.09,1.29-2.61,2.14-4.29,2.38
			c-0.76,0.07-1.53,0.09-2.3,0.06c-0.33,0-0.65-0.06-0.98-0.07c-0.09,0-0.17,0.04-0.23,0.12c-0.93,1.77-2.65,3-4.62,3.3
			c-2.2,0.5-4.51-0.03-6.27-1.44c-0.79-0.63-1.43-1.43-1.9-2.33c-0.05-0.15-0.2-0.24-0.36-0.2c-3.45,0.34-6.58-2.02-7.22-5.42
			c-0.03-0.12-0.06-0.23-0.1-0.34v-1.64c0.02-0.13,0.05-0.25,0.07-0.38c0.29-1.94,1.24-3.72,2.69-5.04c0.07-0.07,0.1-0.17,0.08-0.27
			c-0.23-0.85-0.3-1.74-0.2-2.62c0.14-1.69,0.87-3.27,2.05-4.49c0.07-0.09,0.1-0.2,0.08-0.31c-0.12-0.52,0.08-1.07,0.5-1.4
			c0.37-0.36,0.94-0.42,1.39-0.17c0.34,0.22,0.77,0.23,1.12,0.03c0.06-0.02,0.12-0.04,0.18-0.05l1.44-0.31L256.61,258.08z
			 M249.37,267.02c0.34-0.17,0.67-0.35,1.02-0.5c1.08-0.42,2.24-0.61,3.4-0.56c1.02-0.02,2.03,0.09,3.02,0.32
			c0.13,0.05,0.28-0.01,0.34-0.14c1.12-1.61,2.34-3.15,3.67-4.6c0.14-0.15,0.12-0.24-0.02-0.37c-0.23-0.2-0.44-0.42-0.66-0.6
			c-1.46-1.35-3.47-1.94-5.42-1.58c-0.49,0.1-0.96,0.24-1.43,0.36c0.12,0.58-0.13,1.16-0.63,1.48c-0.47,0.31-1.08,0.29-1.54-0.03
			C249.49,262.43,248.83,264.78,249.37,267.02L249.37,267.02z M248.93,268.41c-0.07,0.05-0.13,0.11-0.19,0.17
			c-0.21,0.24-0.43,0.47-0.62,0.73c-1.18,1.52-1.72,3.44-1.5,5.35c0.31,2.38,2.05,4.33,4.38,4.92c0.66,0.16,1.33,0.21,2.01,0.14
			c-0.02-0.08-0.03-0.14-0.05-0.2c-0.22-0.7-0.33-1.43-0.32-2.16c0.04-1,0.19-1.99,0.46-2.95c0.06-0.16,0.01-0.35-0.13-0.46
			c-0.27-0.25-0.51-0.51-0.74-0.79c-0.84-1.06-1.69-2.11-2.48-3.2C249.44,269.45,249.17,268.94,248.93,268.41L248.93,268.41z
			 M262.7,270.28c-0.14-0.12-0.26-0.21-0.37-0.32c-1.38-1.23-3.02-2.15-4.8-2.67c-0.1-0.05-0.22-0.02-0.27,0.08c0,0,0,0,0,0
			l-0.01,0.01c-0.21,0.34-0.43,0.66-0.64,1.01c-1.02,1.64-1.85,3.4-2.48,5.23c-0.09,0.17-0.03,0.39,0.13,0.5
			c0.62,0.53,1.23,1.1,1.86,1.62c0.49,0.4,1.01,0.76,1.55,1.16c0.53-0.67,1.03-1.31,1.53-1.95c0.04-0.07,0.04-0.16,0.01-0.23
			c-0.38-0.67-0.16-1.52,0.51-1.9c0.29-0.17,0.64-0.23,0.97-0.16c0.11,0,0.22-0.04,0.3-0.13c0.21-0.24,0.39-0.5,0.58-0.76
			C261.94,271.28,262.31,270.78,262.7,270.28L262.7,270.28z M258.36,277.33c2.27,1.44,4.81,2.4,7.46,2.83
			c0.31-0.84,0.42-1.74,0.35-2.63c-0.25-2.27-1.11-4.42-2.49-6.24c-0.11-0.15-0.25-0.29-0.39-0.46c-0.58,0.77-1.13,1.5-1.68,2.24
			c-0.04,0.08-0.04,0.18,0,0.26c0.29,0.49,0.24,1.1-0.11,1.54c-0.33,0.43-0.89,0.63-1.42,0.5c-0.07-0.01-0.14,0.01-0.2,0.05
			C259.35,276.04,258.86,276.67,258.36,277.33L258.36,277.33z M265.49,280.9c-2.74-0.48-5.36-1.49-7.7-2.99
			c-0.94,1.15-2.21,1.98-3.64,2.39c0.02,0.06,0.04,0.12,0.07,0.17c1.91,3.25,6.1,4.33,9.35,2.41c0.15-0.09,0.3-0.18,0.44-0.28
			C264.63,282.15,265.13,281.57,265.49,280.9L265.49,280.9z M273.28,278.27c-0.09-0.03-0.18-0.06-0.27-0.09
			c-0.57-0.25-1.13-0.54-1.67-0.85c-1.34-0.94-2.42-2.19-3.15-3.66c-0.62-1.16-1.17-2.35-1.77-3.53c-0.31-0.61-0.64-1.21-0.99-1.87
			l-1.64,1.9c0.02,0.04,0.03,0.07,0.06,0.11c0.91,1.02,1.64,2.2,2.14,3.48c0.67,1.49,1,3.11,0.96,4.74
			c-0.03,0.58-0.17,1.16-0.26,1.75C268.8,280.88,272.18,279.88,273.28,278.27L273.28,278.27z M263.18,269.66
			c0.58-0.66,1.12-1.29,1.68-1.9c0.13-0.1,0.16-0.29,0.05-0.42l0,0l-0.01-0.01c-0.9-1.45-1.78-2.9-2.68-4.35
			c-0.21-0.34-0.46-0.66-0.71-1.03c-1.32,1.45-2.55,2.98-3.68,4.59C259.84,267.14,261.67,268.21,263.18,269.66L263.18,269.66z
			 M256.53,267.05c-0.08-0.03-0.14-0.05-0.2-0.06c-1.16-0.22-2.34-0.29-3.51-0.21c-1.06,0.03-2.09,0.34-2.98,0.9
			c-0.17,0.11-0.24,0.2-0.14,0.4c0.24,0.54,0.51,1.07,0.81,1.57c0.62,0.88,1.3,1.72,1.97,2.56c0.28,0.36,0.6,0.68,0.94,1.05
			C254.19,271.08,255.23,268.99,256.53,267.05L256.53,267.05z M253.83,279.56c1.28-0.31,2.42-1.03,3.24-2.06l-3.26-2.65
			C253.32,276.38,253.33,278.03,253.83,279.56L253.83,279.56z"/>
		<path id="Path_8340" class="st2" d="M274.94,262.81c-0.01,1.67-1.36,3.01-3.03,3c-1.67-0.01-3.01-1.36-3-3.03
			c0-0.02,0-0.04,0-0.06l0,0v-0.05c0.05-1.66,1.44-2.97,3.1-2.92c0,0,0,0,0,0l0,0C273.67,259.8,274.97,261.16,274.94,262.81z
			 M270.57,262.77c0,0.75,0.6,1.36,1.35,1.37l0,0c0.75,0,1.36-0.6,1.37-1.35l0,0c0-0.75-0.6-1.36-1.35-1.37
			C271.19,261.41,270.58,262.02,270.57,262.77L270.57,262.77L270.57,262.77z"/>
		<g id="Group_951-2">
			<path id="Path_8341" class="st2" d="M275.19,295.63l0.48,0.69c-0.12,0.08-0.23,0.16-0.34,0.23c-0.81,0.48-1.78,0.66-2.71,0.5
				c-1.03-0.11-1.89-0.84-2.18-1.84c-0.42-1.11-0.32-2.35,0.27-3.38c0.43-0.76,1.22-1.23,2.09-1.25c0.87-0.14,1.75,0.16,2.34,0.81
				c0.62,0.8,0.88,1.82,0.73,2.83h-4.54c-0.09,1.02,0.67,1.92,1.7,2.01h0.01C273.81,296.3,274.57,296.09,275.19,295.63z
				 M274.83,293.36c0.14-0.95-0.52-1.82-1.47-1.96c-0.04-0.01-0.08-0.01-0.12-0.01c-1.15-0.06-1.88,0.66-1.95,1.98H274.83z"/>
			<path id="Path_8342" class="st2" d="M251.06,294.22h-4.52c-0.11,0.98,0.58,1.87,1.56,2c0.81,0.1,1.62-0.11,2.28-0.59l0.48,0.69
				c-0.53,0.41-1.16,0.67-1.83,0.74c-0.43,0.04-0.86,0.04-1.28-0.02c-1-0.14-1.83-0.85-2.11-1.83c-0.4-1.07-0.32-2.26,0.21-3.27
				c0.41-0.81,1.22-1.33,2.13-1.36c0.97-0.17,1.95,0.22,2.53,1.02c0.34,0.51,0.54,1.09,0.57,1.7
				C251.08,293.6,251.06,293.89,251.06,294.22z M246.45,293.36h3.54c0.14-0.94-0.51-1.82-1.45-1.96
				C247.36,291.26,246.62,291.94,246.45,293.36L246.45,293.36z"/>
			<path id="Path_8343" class="st2" d="M254.56,290.76h0.93l0.1,0.73l0.1,0.12c0.03-0.1,0.07-0.2,0.13-0.29
				c0.87-0.99,2.94-0.93,3.61-0.13c0.39,0.44,0.61,1.01,0.61,1.6c0.02,1.34,0.01,2.69,0.01,4.03c-0.01,0.04-0.02,0.07-0.03,0.11
				h-1.01c-0.01-0.12-0.01-0.24-0.02-0.35v-3.34c0-0.23-0.02-0.46-0.08-0.69c-0.08-0.51-0.46-0.91-0.96-1.02
				c-0.65-0.19-1.35,0-1.82,0.49c-0.34,0.36-0.52,0.83-0.51,1.32v3.59h-1.08L254.56,290.76z"/>
			<path id="Path_8344" class="st2" d="M279.38,290.75h0.94l0.09,0.75c0.1-0.09,0.22-0.19,0.34-0.3c0.85-0.67,2-0.82,2.99-0.4
				c0.61,0.28,1.02,0.87,1.06,1.54c0.06,1.51,0.02,3.03,0.02,4.57h-0.98c-0.01-0.11-0.02-0.23-0.02-0.34c0-1.11,0-2.23,0-3.34
				c0-0.24-0.03-0.48-0.08-0.72c-0.09-0.52-0.49-0.92-1.01-1.01c-0.63-0.17-1.31,0.02-1.76,0.5c-0.34,0.36-0.52,0.83-0.51,1.32v3.59
				h-1.07L279.38,290.75z"/>
			<path id="Path_8345" class="st2" d="M260.9,296.36l0.41-0.56c0.5,0.18,1,0.32,1.51,0.44c0.33,0.04,0.66,0,0.97-0.1
				c0.4-0.11,0.66-0.49,0.63-0.9c0.02-0.39-0.24-0.74-0.61-0.85c-0.3-0.11-0.61-0.18-0.91-0.29c-0.38-0.11-0.74-0.26-1.09-0.44
				c-0.74-0.48-0.96-1.47-0.48-2.21c0,0,0,0,0,0c0.09-0.13,0.19-0.25,0.31-0.36c1.16-0.74,2.65-0.67,3.74,0.17l-0.41,0.57
				c-0.4-0.17-0.82-0.3-1.25-0.39c-0.36-0.04-0.72,0-1.07,0.09c-0.31,0.08-0.53,0.36-0.52,0.69c-0.04,0.32,0.13,0.63,0.43,0.75
				c0.31,0.13,0.64,0.22,0.96,0.33c0.34,0.09,0.67,0.21,1,0.35c0.86,0.4,1.24,1.42,0.84,2.28c-0.14,0.31-0.38,0.58-0.68,0.76
				C263.47,297.34,261.98,297.21,260.9,296.36z"/>
			<path id="Path_8346" class="st2" d="M268.16,288.85v1.87h1.61v0.85h-1.59c-0.01,0.15-0.02,0.26-0.02,0.38v3.14
				c0,0.97,0.36,1.27,1.31,1.11c0.05-0.01,0.1-0.02,0.19-0.04l0.16,0.74c-0.84,0.52-1.94,0.26-2.46-0.58
				c-0.18-0.29-0.27-0.62-0.27-0.95v-3.8h-1.06v-0.71l1.05-0.14c0-0.42,0.01-0.82,0-1.23c-0.03-0.17,0.08-0.33,0.25-0.37
				c0,0,0,0,0,0h0.03C267.61,289.06,267.86,288.96,268.16,288.85z"/>
			<path id="Path_8347" class="st2" d="M252.22,290.75h1.02v6.16h-1.02V290.75z"/>
			<path id="Path_8348" class="st2" d="M277.04,290.75h1.02v6.16h-1.02V290.75z"/>
			<path id="Path_8349" class="st2" d="M277.57,289.27c-0.48,0-0.68-0.19-0.69-0.64c-0.04-0.32,0.19-0.62,0.51-0.66l0,0
				c0.05-0.01,0.11-0.01,0.16,0c0.33-0.05,0.64,0.17,0.69,0.5l0,0c0.01,0.05,0.01,0.1,0,0.14
				C278.26,289.04,278.02,289.27,277.57,289.27z"/>
			<path id="Path_8350" class="st2" d="M252.73,289.27c-0.47,0-0.68-0.21-0.67-0.65s0.23-0.65,0.69-0.65
				c0.33-0.05,0.63,0.19,0.68,0.52c0,0,0,0,0,0l0,0c0.01,0.05,0.01,0.1,0,0.15C253.42,289.06,253.19,289.27,252.73,289.27z"/>
		</g>
	</g>
	<g id="tableau">
		<path id="Path_8352" class="st2" d="M258.74,387.76h1.27v3.06c0.36-0.08,0.7-0.17,1.05-0.23c1.48-0.26,2.89,0.73,3.15,2.21
			c0,0,0,0,0,0l0,0c0.01,0.08,0.02,0.15,0.03,0.23c0.08,0.59,0.03,1.19-0.16,1.76c-0.33,0.94-1.16,1.62-2.16,1.76
			c-1,0.17-2.04,0.08-3-0.26c-0.17-0.05-0.14-0.15-0.14-0.27c-0.01-1.52-0.02-3.05-0.03-4.57c-0.01-1.15-0.01-2.31-0.01-3.46
			L258.74,387.76z M260.01,393.63v1.46c0,0.13,0.04,0.21,0.17,0.23c0.28,0.07,0.57,0.12,0.86,0.15c0.78,0.12,1.54-0.35,1.78-1.1
			c0.09-0.34,0.12-0.7,0.1-1.05c-0.01-0.72-0.5-1.35-1.2-1.53c-0.54-0.12-1.11-0.05-1.6,0.21c-0.07,0.05-0.11,0.13-0.11,0.22
			C260,392.68,260.01,393.15,260.01,393.63L260.01,393.63z"/>
		<path id="Path_8353" class="st2" d="M291.14,390.88l0.02-0.35c0.39,0,0.77,0,1.14,0.01c0.04,0,0.09,0.08,0.1,0.14
			c0.01,0.14,0.01,0.28,0,0.42c-0.01,1.65-0.02,3.3-0.03,4.95c0,0.12,0,0.22-0.15,0.26c-1.07,0.38-2.23,0.44-3.34,0.16
			c-1.17-0.3-1.99-1.34-2.01-2.55c-0.05-0.59,0.04-1.18,0.25-1.73c0.48-1.16,1.71-1.83,2.95-1.6
			C290.44,390.66,290.79,390.76,291.14,390.88z M291.08,395.34c0.01-0.03,0.02-0.05,0.02-0.08c0.01-1,0.03-2.01,0.04-3.01
			c0-0.07-0.03-0.13-0.08-0.17c-0.76-0.6-1.87-0.47-2.47,0.3c-0.15,0.19-0.26,0.41-0.32,0.65c-0.05,0.24-0.07,0.49-0.06,0.73
			c-0.03,0.74,0.44,1.41,1.15,1.62C289.92,395.51,290.52,395.5,291.08,395.34L291.08,395.34z"/>
		<path id="Path_8354" class="st2" d="M251.42,390.88c0-0.08,0.01-0.2,0.02-0.33h1.26v0.26c-0.01,1.75-0.03,3.5-0.04,5.25
			c0,0.11,0.01,0.21-0.13,0.25c-1.11,0.41-2.33,0.45-3.47,0.12c-1.04-0.3-1.77-1.22-1.85-2.3c-0.16-0.87,0.04-1.77,0.55-2.49
			c0.61-0.82,1.63-1.22,2.63-1.03C250.73,390.66,251.08,390.76,251.42,390.88z M251.42,395.33v-2.72c0-0.55,0-0.56-0.53-0.76
			c-0.02-0.01-0.04-0.02-0.06-0.03c-0.85-0.35-1.82,0.05-2.17,0.89c-0.03,0.08-0.06,0.16-0.08,0.24c-0.07,0.32-0.09,0.66-0.06,0.99
			c0.03,0.75,0.59,1.37,1.33,1.49C250.37,395.5,250.91,395.47,251.42,395.33L251.42,395.33z"/>
		<path id="Path_8355" class="st2" d="M281.82,393.86h-4.23c-0.04,0.75,0.47,1.43,1.21,1.58c0.84,0.16,1.71,0.06,2.5-0.29
			c0.06-0.03,0.12-0.05,0.22-0.1c0,0.38,0.01,0.74-0.01,1.09c0,0.05-0.08,0.12-0.14,0.15c-0.69,0.32-1.46,0.45-2.21,0.38
			c-0.35-0.03-0.69-0.1-1.02-0.21c-1.01-0.3-1.74-1.18-1.86-2.23c-0.19-0.92,0.03-1.87,0.59-2.61c0.59-0.77,1.54-1.16,2.5-1.03
			c1.39,0.08,2.47,1.25,2.44,2.64C281.83,393.43,281.82,393.62,281.82,393.86z M280.46,392.93c0.05-0.6-0.4-1.12-0.99-1.17
			c0,0,0,0,0,0h-0.08c-0.79-0.09-1.53,0.41-1.73,1.18L280.46,392.93z"/>
		<path id="Path_8356" class="st2" d="M234.43,392.85v-1.17h3.36v-3.52h1.26v3.51h3.36v1.17h-3.34v3.82h-1.25v-3.81L234.43,392.85z"
			/>
		<path id="Path_8357" class="st2" d="M298.94,390.72v3.66c-0.07,0.54,0.26,1.05,0.77,1.22c0.35,0.12,0.74,0.12,1.1,0.01
			c0.52-0.17,0.85-0.69,0.78-1.24v-3.65h1.25c0.01,0.03,0.02,0.06,0.02,0.09c0,1.26,0.01,2.52,0,3.78c0.02,0.87-0.57,1.64-1.42,1.85
			c-0.82,0.27-1.7,0.24-2.5-0.07c-0.77-0.27-1.28-1.02-1.25-1.83v-3.62c0-0.06,0.01-0.12,0.01-0.2L298.94,390.72z"/>
		<path id="Path_8358" class="st2" d="M270.73,397.71h-1.22v-11.13h1.22L270.73,397.71z"/>
		<path id="Path_8359" class="st2" d="M265.85,375.66v2.7h-1v-2.68h-2.46v-0.97h2.44v-2.72h1.02v2.71h2.49v0.97H265.85z"/>
		<path id="Path_8360" class="st2" d="M270.51,373.6h-0.87v-2.4h-2.25v-0.77h2.24v-2.42h0.87v2.4h2.23v0.76h-2.21L270.51,373.6z"/>
		<path id="Path_8361" class="st2" d="M270.51,382.3h-0.87v-2.43h-2.25v-0.75h2.24v-2.41h0.87v2.4h2.22v0.75h-2.21L270.51,382.3z"/>
		<path id="Path_8362" class="st2" d="M260.23,379.87h-2.23v-0.75h2.21v-2.41h0.85v2.4h2.26v0.76h-2.25v2.42h-0.84L260.23,379.87z"
			/>
		<path id="Path_8363" class="st2" d="M260.24,368.02h0.83v2.41h2.26v0.73h-2.26v2.44h-0.81v-2.42h-2.24v-0.74h2.23L260.24,368.02z"
			/>
		<path id="Path_8364" class="st2" d="M265.75,381.83h1.5v0.66h-1.48v1.68h-0.73v-1.66h-1.53v-0.67h1.51v-1.68h0.74L265.75,381.83z"
			/>
		<path id="Path_8365" class="st2" d="M272.19,373.18h0.72v1.69h1.52v0.66h-1.5v1.68h-0.73v-1.68h-1.54v-0.65h1.53L272.19,373.18z"
			/>
		<path id="Path_8366" class="st2" d="M257.75,377.09v-1.62h-1.5v-0.53h1.5v-1.63h0.56v1.61h1.5v0.53h-1.49v1.63L257.75,377.09z"/>
		<path id="Path_8367" class="st2" d="M267.13,367.91v0.51h-1.46v1.65h-0.55v-1.65h-1.51v-0.5h1.5v-1.66h0.55v1.65L267.13,367.91z"
			/>
	</g>
	<g id="salesforcelogo">
		<g id="SF-logo">
			<g id="Component_79_1">
				<circle id="Ellipse_98" class="st6" cx="305.11" cy="322.68" r="15.41"/>
				<circle id="Ellipse_99" class="st6" cx="327.37" cy="323.25" r="13.7"/>
				<circle id="Ellipse_100" class="st6" cx="347.35" cy="332.39" r="17.12"/>
				<circle id="Ellipse_101" class="st6" cx="332.51" cy="342.09" r="13.7"/>
				<circle id="Ellipse_102" class="st6" cx="313.67" cy="348.37" r="14.84"/>
				<circle id="Ellipse_103" class="st6" cx="298.26" cy="340.95" r="13.7"/>
				<circle id="Ellipse_104" class="st6" cx="314.82" cy="336.38" r="13.7"/>
			</g>
		</g>
		<path id="Icon_awesome-salesforce" class="st7" d="M314.72,333.5H311c0-1.08,0.85-1.96,1.93-1.99
			C313.88,331.51,314.62,332.05,314.72,333.5L314.72,333.5z M334,331.54c-0.07,0-1.99-0.25-1.99,2.83s1.92,2.83,1.99,2.83
			c1.83,0,1.99-1.91,1.99-2.83C336,331.29,334.07,331.54,334,331.54L334,331.54z M299.68,334.9c-0.31,0.25-0.49,0.63-0.46,1.03
			c-0.04,0.39,0.14,0.77,0.46,0.99c0.66,0.52,2.13,0.3,2.95,0.13v-2.39C301.88,334.51,300.27,334.38,299.68,334.9L299.68,334.9z
			 M369.9,331.58c0,12.36-11.29,21.78-23.33,19.25c-2.59,4.65-9.98,9.98-18.65,5.88c-5.81,13.55-25.1,13-30.17-0.73
			c-16.89,3.37-25.23-19.52-10.62-28.12c-3.84-8.9,0.26-19.22,9.16-23.06c0,0,0,0,0,0l0,0c7.38-3.18,15.98-0.94,20.87,5.44
			c6.04-6.33,16.08-6.57,22.41-0.53c0,0,0,0,0,0l0,0c1.19,1.13,2.19,2.44,2.97,3.88c9.87-4.33,21.38,0.16,25.71,10.04
			C369.36,326.13,369.92,328.84,369.9,331.58L369.9,331.58z M296.59,336.06c0-1.66-1.65-2.14-2.52-2.42
			c-0.75-0.29-1.89-0.5-1.89-1.26c0-1.34,2.4-0.94,3.55-0.3c0,0,0.17,0.1,0.23-0.07c0.03-0.1,0.33-0.93,0.37-1.03
			c0.03-0.08-0.02-0.17-0.1-0.2c-1.74-1.08-5.74-1.2-5.74,1.79c0,1.76,1.62,2.18,2.52,2.42c0.66,0.22,1.86,0.42,1.86,1.23
			c0,0.56-0.5,1-1.29,1c-0.97,0-1.91-0.32-2.68-0.9c-0.07-0.03-0.2-0.1-0.23,0.1l-0.34,1.05c-0.07,0.13,0.03,0.17,0.03,0.2
			c0.95,0.63,2.08,0.95,3.22,0.93C295.43,338.61,296.59,337.62,296.59,336.06L296.59,336.06z M301.1,330.06
			c-1.05-0.03-2.1,0.22-3.02,0.73c-0.06,0.04-0.08,0.13-0.04,0.2c0,0,0,0,0,0l0,0l0.37,1c0.02,0.07,0.09,0.11,0.17,0.1
			c0.74-0.36,1.56-0.56,2.39-0.56c0.46-0.04,0.91,0.08,1.3,0.33c0.51,0.39,0.43,1.17,0.43,1.5c-0.68-0.04-2.7-0.49-4.15,0.53
			c-0.67,0.46-1.06,1.24-1.03,2.05c-0.06,0.79,0.29,1.55,0.93,2.03c1.73,1.15,5.12,0.28,5.38,0.2c0.22-0.04,0.5-0.09,0.5-0.27v-4.78
			C304.32,332.45,304.36,330.05,301.1,330.06L301.1,330.06z M307.67,327.1c0.01-0.09-0.06-0.16-0.15-0.17h-1.41
			c-0.09-0.01-0.16,0.06-0.17,0.14c0,0,0,0,0,0v11.16c-0.01,0.09,0.06,0.16,0.15,0.17c0,0,0,0,0,0h1.41
			c0.09,0.01,0.16-0.06,0.17-0.14c0,0,0,0,0,0l0,0c0-0.01,0-0.01,0-0.02V327.1z M315.54,331.18c-0.62-0.73-1.54-1.12-2.49-1.06
			c-1.12-0.06-2.2,0.41-2.92,1.26c-0.64,0.88-0.96,1.94-0.92,3.02c-0.05,1.08,0.3,2.15,1,2.99c0.85,0.84,2.02,1.26,3.21,1.16
			c0.91,0.07,1.81-0.12,2.62-0.53c0.07-0.03,0.1-0.1,0.03-0.27l-0.33-0.96c-0.03-0.08-0.12-0.12-0.2-0.1
			c-0.68,0.29-1.42,0.42-2.16,0.4c-1.19,0.13-2.26-0.73-2.39-1.92c-0.02-0.15-0.02-0.29,0-0.44h5.24c0.08,0,0.15-0.06,0.17-0.13
			C316.35,334.6,316.69,332.52,315.54,331.18L315.54,331.18z M320.71,338.61c1.86,0,3.02-1,3.02-2.56c0-1.66-1.65-2.14-2.52-2.42
			c-0.58-0.23-1.89-0.48-1.89-1.26c0-0.53,0.46-0.9,1.2-0.9c0.82,0.02,1.63,0.22,2.36,0.6c0,0,0.17,0.1,0.23-0.07
			c0.03-0.1,0.33-0.93,0.36-1.03c0.03-0.08-0.02-0.17-0.1-0.2c-0.87-0.49-1.86-0.73-2.85-0.7c-1.69,0-2.89,1.03-2.89,2.49
			c0,1.76,1.62,2.18,2.52,2.42c0.86,0.28,1.86,0.46,1.86,1.23c0,0.56-0.5,1-1.29,1c-0.97,0-1.91-0.32-2.68-0.9
			c-0.06-0.05-0.15-0.04-0.2,0.01c0,0,0,0,0,0l0,0c-0.02,0.02-0.03,0.05-0.03,0.08l-0.33,1.06c-0.07,0.13,0.03,0.17,0.03,0.2
			C318.45,338.31,319.57,338.64,320.71,338.61L320.71,338.61z M329.98,330.45c0-0.1-0.03-0.17-0.17-0.17h-1.66
			c0.05-0.63,0.27-1.24,0.63-1.76c0.59-0.58,1.66-0.23,1.69-0.23c0.17,0.07,0.2,0,0.23-0.07l0.4-1.1c0.1-0.13,0-0.17-0.03-0.2
			c-1.18-0.42-2.49-0.19-3.45,0.6c-0.64,0.78-1.04,1.74-1.13,2.75h-1.19c-0.09,0.01-0.16,0.08-0.17,0.17l-0.2,1.1
			c0,0.1,0.03,0.17,0.17,0.17h1.16c-1.2,6.76-1.24,7.08-1.46,7.83c-0.1,0.47-0.41,0.87-0.83,1.09c-0.44,0.14-0.92,0.13-1.36-0.03
			c0,0-0.13-0.07-0.2,0.1c-0.03,0.1-0.37,0.96-0.4,1.06c-0.03,0.1,0,0.2,0.07,0.2c0.82,0.27,1.7,0.27,2.52,0
			c0.79-0.34,1.38-1.01,1.63-1.83c0.39-1.09,0.4-1.38,1.66-8.43h1.73c0.09-0.01,0.16-0.08,0.17-0.17L329.98,330.45z M337.51,332.71
			c-0.66-1.96-2.78-3.02-4.74-2.36l0,0c-1.11,0.37-1.99,1.25-2.36,2.36c-0.31,1.08-0.31,2.23,0,3.32c0.65,1.96,2.77,3.02,4.73,2.37
			c1.12-0.37,2-1.25,2.37-2.37C337.82,334.94,337.83,333.79,337.51,332.71L337.51,332.71z M343.92,330.35
			c-0.71-0.23-2.35-0.27-3.12,0.76v-0.63c0.01-0.09-0.06-0.16-0.15-0.17h-1.35c-0.09-0.01-0.16,0.06-0.17,0.14c0,0,0,0,0,0v7.82
			c0,0.09,0.06,0.16,0.15,0.17h1.38c0.09,0,0.16-0.06,0.17-0.15l0,0v-3.94c0-0.41,0.01-1.6,0.63-2.12c0.52-0.45,1.23-0.61,1.89-0.43
			c0.09,0,0.16-0.05,0.2-0.13c0.17-0.37,0.31-0.74,0.43-1.13c0.03-0.07,0-0.16-0.07-0.2L343.92,330.35z M350.52,337.98l-0.3-1.03
			c-0.07-0.17-0.2-0.1-0.2-0.1c-0.51,0.18-1.05,0.27-1.59,0.27c-0.65,0-2.42-0.16-2.42-2.79c0-0.88,0.26-2.79,2.33-2.79
			c0.55-0.01,1.1,0.06,1.62,0.23c0,0,0.13,0.07,0.17-0.1c0.13-0.37,0.23-0.63,0.37-1.06c0.03-0.13-0.07-0.17-0.1-0.17
			c-1.26-0.46-2.65-0.46-3.91,0c-1.51,0.68-2.43,2.23-2.29,3.88c0,0.41-0.08,4.25,4.08,4.25c0.75,0,1.49-0.14,2.19-0.4
			C350.52,338.14,350.55,338.05,350.52,337.98L350.52,337.98z M358.12,332.41c-0.38-1.41-1.7-2.37-3.16-2.29
			c-1.68-0.11-3.2,0.99-3.62,2.62c-0.16,0.54-0.24,1.1-0.23,1.66c0,3.65,2.66,4.15,4.22,4.15c0.91,0.07,1.81-0.12,2.62-0.53
			c0.07-0.03,0.1-0.1,0.03-0.27l-0.33-0.96c-0.03-0.08-0.12-0.12-0.2-0.1c-0.68,0.29-1.42,0.42-2.16,0.4
			c-1.19,0.13-2.25-0.72-2.38-1.91c0,0,0,0,0,0v0c-0.02-0.15-0.02-0.3,0-0.44h5.24c0.08,0,0.15-0.06,0.17-0.13
			C358.37,333.86,358.3,333.12,358.12,332.41L358.12,332.41z M354.83,331.51c-1.08,0.03-1.93,0.92-1.93,1.99h3.72
			C356.5,331.82,355.55,331.51,354.83,331.51L354.83,331.51z"/>
	</g>
</g>
<path id="Layer_1_1_" class="st2" d="M339.81,233.39"/>
</svg>
