<svg xmlns="http://www.w3.org/2000/svg" xmlns:xlink="http://www.w3.org/1999/xlink" width="600" height="600" viewBox="0 0 600 600">
  <defs>
    <clipPath id="clip-Custom_Size_1">
      <rect width="600" height="600"/>
    </clipPath>
  </defs>
  <g id="Custom_Size_1" data-name="Custom Size – 1" clip-path="url(#clip-Custom_Size_1)">
    <g id="Group_1" data-name="Group 1" transform="translate(16.748 16.4)">
      <g id="Component_148_1" data-name="Component 148 – 1" transform="translate(51.195 56.6)">
        <g id="circle" transform="translate(-67.195 -65.6)">
          <path id="Path_8404" data-name="Path 8404" d="M1035.877,648.231" transform="translate(-941.22 -345.774)" fill="none" stroke="#627783" stroke-linecap="round" stroke-width="2"/>
          <g id="circle-2" data-name="circle">
            <g id="ellipse3" transform="translate(67.195 65.347)">
              <path id="Ellipse_112" data-name="Ellipse 112" d="M1031.261,567.527a216.682,216.682,0,0,1,32.94-75.079" transform="translate(-1007.632 -384.697)" fill="none" stroke="#999" stroke-linecap="round" stroke-width="1"/>
              <path id="Ellipse_112-2" data-name="Ellipse 112" d="M1031.27,697.263a217.34,217.34,0,0,1-5.54-33.64" transform="translate(-1006.693 -413.732)" fill="none" stroke="#999" stroke-linecap="round" stroke-width="1"/>
              <path id="Ellipse_112-3" data-name="Ellipse 112" d="M1094.81,817.314a218.593,218.593,0,0,1-37.361-49.349" transform="translate(-1012.074 -431.431)" fill="none" stroke="#999" stroke-linecap="round" stroke-width="1"/>
              <path id="Ellipse_112-4" data-name="Ellipse 112" d="M1248.646,896.411a216.5,216.5,0,0,1-97.5-30.954" transform="translate(-1027.966 -447.968)" fill="none" stroke="#999" stroke-linecap="round" stroke-width="1"/>
              <path id="Ellipse_112-5" data-name="Ellipse 112" d="M1402.354,868.554a216.357,216.357,0,0,1-75.347,26.407" transform="translate(-1057.797 -448.493)" fill="none" stroke="#999" stroke-linecap="round" stroke-width="1"/>
              <path id="Ellipse_112-6" data-name="Ellipse 112" d="M1513.71,757.243a218.409,218.409,0,0,1-42.027,58.254" transform="translate(-1082.337 -429.612)" fill="none" stroke="#999" stroke-linecap="round" stroke-width="1"/>
              <path id="Ellipse_112-7" data-name="Ellipse 112" d="M1548.175,641.089q0,1.8-.03,3.6a218.177,218.177,0,0,1-5.733,46.379" transform="translate(-1094.334 -409.91)" fill="none" stroke="#999" stroke-linecap="round" stroke-width="1"/>
              <path id="Ellipse_112-8" data-name="Ellipse 112" d="M1517.309,515.359a216.435,216.435,0,0,1,19.008,47.164" transform="translate(-1090.076 -388.583)" fill="none" stroke="#999" stroke-linecap="round" stroke-width="1"/>
              <path id="Ellipse_112-9" data-name="Ellipse 112" d="M1093.311,449.794a217.8,217.8,0,0,1,310.473-11.5" transform="translate(-1018.157 -365.42)" fill="none" stroke="#999" stroke-linecap="round" stroke-width="1"/>
              <rect id="Rectangle_677" data-name="Rectangle 677" width="61" height="28" transform="translate(204.057 0.253)" fill="#153243"/>
              <text id="DESIGN" transform="translate(209.347 17.622)" fill="#fff" font-size="14" font-family="SourceSansPro-Bold, Source Sans Pro" font-weight="700" style="isolation: isolate"><tspan x="0" y="0">DESIGN</tspan></text>
              <g id="design-frontend" transform="translate(0 81.663)" style="isolation: isolate">
                <g id="aobecc" transform="translate(0 107.477)">
                  <path id="Icon_simple-adobecreativecloud" data-name="Icon simple-adobecreativecloud" d="M1036.968,601.179v1c-.01.055-.021.109-.027.162-.05.436-.083.873-.154,1.305a10.806,10.806,0,0,1-1.465,3.916,11.03,11.03,0,0,1-4.54,4.185,10.514,10.514,0,0,1-3.5,1.05c-.271.032-.542.061-.812.09h-10.5c-.053-.01-.106-.025-.159-.03a8.82,8.82,0,0,1-3.049-.747,9.373,9.373,0,0,1-4.722-4.567,9.093,9.093,0,0,1-.872-2.952l-.088-.742v-.971a1.656,1.656,0,0,0,.028-.166,9.07,9.07,0,0,1,.575-2.71,9.41,9.41,0,0,1,4.656-5.2,8.983,8.983,0,0,1,3.647-.959,9.873,9.873,0,0,1,1.872.089.235.235,0,0,0,.177-.059,11.062,11.062,0,0,1,3.062-2.254,10.564,10.564,0,0,1,3.519-1.056c.291-.034.581-.062.872-.092h.9c.057.008.117.02.174.026.444.053.891.087,1.329.166a10.41,10.41,0,0,1,3.828,1.477,11.071,11.071,0,0,1,4.134,4.624,10.914,10.914,0,0,1,1.034,3.565c.032.285.06.57.09.855m-16.714-6.477c.019.025.023.036.032.04a12.04,12.04,0,0,1,1.756,1.08.186.186,0,0,0,.166-.013,6.824,6.824,0,0,1,9.176,1.607,6.717,6.717,0,0,1,1.353,5.406,6.992,6.992,0,0,1-1.661,3.564,6.622,6.622,0,0,1-6.126,2.283,6.431,6.431,0,0,1-3.841-1.95c-1.368-1.4-2.745-2.8-4.117-4.2a1.113,1.113,0,0,0-.649-.37,1.029,1.029,0,0,0-1.08.6.977.977,0,0,0,.231,1.181c1.528,1.527,3.044,3.067,4.571,4.6a7.59,7.59,0,0,0,.839.725,7.955,7.955,0,0,0,3.737,1.462,8.867,8.867,0,0,0,8.165-3.238,8.979,8.979,0,0,0,1.963-4.567,9.093,9.093,0,0,0-.083-2.939,8.8,8.8,0,0,0-2.018-4.206,8.707,8.707,0,0,0-7.565-3.1,8.3,8.3,0,0,0-3.289.984,8.624,8.624,0,0,0-1.559,1.06m-.739,16.057-.125-.117c-.624-.6-1.253-1.2-1.871-1.805a.5.5,0,0,0-.4-.166,7.5,7.5,0,0,1-1.868-.125,5.353,5.353,0,0,1-3.9-6.49v0a5.268,5.268,0,0,1,5.971-3.924,5.039,5.039,0,0,1,2.832,1.495c.959,1.007,1.946,1.983,2.915,2.978a.862.862,0,0,0,.779.286.98.98,0,0,0,.85-.643.962.962,0,0,0-.216-1.051c-1.017-1.046-2.01-2.12-3.067-3.122a6.861,6.861,0,0,0-7.141-1.7,7.39,7.39,0,0,0,2.207,14.4h2.863c.047,0,.095-.005.166-.008" transform="translate(-1003.53 -590.463)" fill="#999"/>
                  <g id="Creative_Cloud" data-name="Creative Cloud" transform="translate(0 27.318)">
                    <g id="Creative_Cloud-2" data-name="Creative Cloud-2" style="isolation: isolate">
                      <text id="Creative" transform="translate(0 10)" fill="#999" font-size="10" font-family="SourceSansPro-Regular, Source Sans Pro" style="isolation: isolate"><tspan x="0" y="0">Creative</tspan></text>
                      <text id="Cloud" transform="translate(5.978 25.943)" fill="#999" font-size="10" font-family="SourceSansPro-Regular, Source Sans Pro" style="isolation: isolate"><tspan x="0" y="0">Cloud</tspan></text>
                    </g>
                  </g>
                </g>
                <g id="Invision" transform="translate(381.524)">
                  <path id="Icon_awesome-invision" data-name="Icon awesome-invision" d="M1496.272,461.031h-21.415a2.372,2.372,0,0,0-2.371,2.367v21.424a2.373,2.373,0,0,0,2.371,2.367h21.415a2.373,2.373,0,0,0,2.371-2.367V463.4A2.372,2.372,0,0,0,1496.272,461.031Zm-13.5,6.633a1.567,1.567,0,1,1-1.578-1.556A1.568,1.568,0,0,1,1482.768,467.664Zm9.149,13.51c-3.831,0-1.993-4.318-1.46-6.228.823-2.709-2.639-3.444-3.5.041l-1.506,6.031h-2.633l.473-1.9c-1.839,3.024-5.524,2.592-5.524-.249.006-.835.052-.817,1.343-6.078h-1.856l.566-2.076h4.462c-1.962,7.806-1.9,7.409-1.921,8.069,0,1.221,2.388.788,3.351-1.354l1.156-4.636h-1.887l.566-2.076h4.017l-.52,2.365c2.365-4.409,7.468-2.791,5.944,2.219-.83,2.984-.853,2.96-.87,3.433,0,.905,1.021,1.319,1.857-.986l1.045.391C1494.408,480.281,1493.3,481.174,1491.917,481.174Z" transform="translate(-1463.998 -461.031)" fill="#999"/>
                  <g id="Invision_" data-name="Invision " transform="translate(0 29.39)">
                    <g id="Invision-2" style="isolation: isolate">
                      <text id="Invision-2-2" data-name="Invision" transform="translate(0 10)" fill="#999" font-size="10" font-family="SourceSansPro-Regular, Source Sans Pro" style="isolation: isolate"><tspan x="0" y="0">Invision</tspan></text>
                    </g>
                  </g>
                </g>
                <g id="jquery" transform="translate(436.736 97.298)">
                  <g id="jquery-2" transform="translate(0 31.165)">
                    <g id="Jquery-3" style="isolation: isolate">
                      <text id="Jquery-2-2" data-name="Jquery" transform="translate(0 10)" fill="#999" font-size="10" font-family="SourceSansPro-Regular, Source Sans Pro" style="isolation: isolate"><tspan x="0" y="0">Jquery</tspan></text>
                    </g>
                  </g>
                  <path id="Icon_simple-jquery" data-name="Icon simple-jquery" d="M1533.844,584.957c-2.644,3.8-2.317,8.74-.3,12.774.047.1.1.192.147.286a1.86,1.86,0,0,0,.1.185.969.969,0,0,0,.058.1c.032.065.067.127.1.189l.2.332c.036.061.071.121.112.182.068.117.149.233.221.35.032.049.062.1.1.146q.18.284.386.553c.1.133.194.262.3.392.034.047.072.095.106.142l.276.332c.034.038.067.083.1.124.122.147.249.291.381.435,0,0,0,0,.007.008a3.937,3.937,0,0,0,.528.548c.1.1.2.2.3.3l.126.121c.139.13.277.259.423.384h.007l.071.062c.127.111.255.222.386.324l.156.13c.106.083.216.166.324.249l.166.13.358.257c.043.031.083.062.132.091l.036.029.35.231.149.1c.183.117.365.228.546.338.052.027.1.055.153.083.135.077.274.156.409.228.075.042.152.079.229.117.094.052.19.1.29.156a.353.353,0,0,1,.07.028c.041.019.083.039.12.059.149.075.305.145.467.217.031.013.063.027.095.042.179.079.359.154.545.227.042.013.083.034.131.05.166.063.341.128.511.189l.063.022c.19.065.379.127.572.187.045.012.09.029.139.041q.29.1.589.166c12.78,2.329,16.494-7.683,16.494-7.683-3.12,4.063-8.657,5.134-13.9,3.942-.194-.045-.389-.107-.581-.166q-.356-.1-.706-.225l-.077-.03c-.166-.057-.332-.121-.5-.184-.045-.019-.091-.037-.137-.051-.183-.073-.361-.149-.538-.228-.039-.012-.07-.03-.109-.045-.151-.07-.3-.14-.449-.212-.046-.02-.087-.041-.132-.065-.117-.055-.234-.117-.349-.177-.079-.038-.157-.078-.233-.12-.141-.075-.282-.155-.422-.233-.042-.03-.09-.055-.139-.083q-.277-.167-.545-.332c-.05-.032-.1-.064-.147-.1q-.2-.122-.389-.257c-.044-.029-.083-.06-.129-.091q-.185-.13-.366-.264c-.052-.042-.108-.083-.166-.125-.11-.083-.221-.166-.332-.259l-.147-.117q-.211-.172-.415-.35a.309.309,0,0,0-.046-.037l-.432-.394-.125-.117c-.1-.1-.207-.2-.311-.306l-.121-.125q-.2-.2-.385-.4l-.018-.02c-.132-.145-.26-.292-.39-.441-.034-.038-.065-.083-.1-.121l-.281-.345q-.216-.277-.423-.558c-2.906-3.971-3.961-9.451-1.633-13.95m6.15-.588a9.169,9.169,0,0,0-.316,9.353,11.337,11.337,0,0,0,.844,1.412,6.609,6.609,0,0,0,.983,1.227c.133.152.278.3.428.447l.112.112q.212.206.436.4l.019.017q.249.219.516.426c.042.029.078.062.12.091.174.135.349.264.531.392l.018.012c.077.056.159.107.249.162.035.022.075.052.112.075.132.083.261.166.4.249.021.008.04.02.06.029.112.069.234.135.351.2.041.025.083.043.124.067q.124.061.249.127l.04.017c.166.083.34.159.508.237.042.017.078.03.115.047.139.06.279.117.415.17.062.021.121.046.179.065.127.047.26.091.386.134l.174.056a4.174,4.174,0,0,0,.558.161c9.865,1.635,12.149-5.963,12.149-5.963-2.058,2.955-6.039,4.365-10.274,3.264q-.281-.074-.558-.162c-.06-.017-.112-.035-.166-.052-.13-.045-.263-.089-.389-.135l-.179-.067c-.14-.056-.281-.109-.415-.166a1.014,1.014,0,0,1-.113-.05c-.174-.078-.349-.155-.519-.239l-.256-.133-.148-.075c-.115-.06-.22-.122-.332-.187a.794.794,0,0,1-.086-.047c-.132-.083-.269-.166-.4-.249-.042-.023-.083-.052-.121-.077l-.259-.166c-.179-.125-.355-.259-.532-.389-.04-.036-.078-.066-.117-.1a11.842,11.842,0,0,1-4.033-5.74,8.916,8.916,0,0,1,.7-7.149m5.339-.183a5.749,5.749,0,0,0-.461,5.549,7.829,7.829,0,0,0,4.489,4.191c.083.031.159.057.243.083l.11.033c.115.036.231.078.349.1,5.451,1.051,6.925-2.8,7.323-3.365-1.3,1.863-3.474,2.311-6.145,1.661a6.117,6.117,0,0,1-.643-.2,7.906,7.906,0,0,1-.768-.316,8.1,8.1,0,0,1-1.345-.822c-2.39-1.809-3.87-5.266-2.312-8.083" transform="translate(-1529.296 -578.204)" fill="#999"/>
                </g>
                <g id="moqups" transform="translate(39.469 10.669)">
                  <path id="Path_8368" data-name="Path 8368" d="M1111.063,480.881a12.657,12.657,0,0,0,3.875-4.918c.9-1.819,1.246-2.036,3.353-1.91.492,1.641,1.039,3.247,1.451,4.888.939,3.742-1.677,6.536-5.581,5.936.006-1.007-.056-1.91,1.435-2.02a2.195,2.195,0,0,0,1.661-2.612,25.281,25.281,0,0,0-.586-2.574c-2.938,4.454-6.567,7.328-11.934,7.357a2.156,2.156,0,0,1-.039-.441c.1-.47.2-.938.3-1.4a5.384,5.384,0,0,0,3.382-6.051,1.468,1.468,0,0,0-1.179-.795,2.58,2.58,0,0,0-2.325,2.159q-.909,4.088-1.794,8.183c-.482,2.249-.567,2.331-3.161,2.481.332-1.622.664-3.21,1.024-4.971-1.949.932-3.68,1.241-5.112-.5-2.72,1.7-3.829,1.744-5.634.206a13.6,13.6,0,0,1-1.6.809,12.95,12.95,0,0,1-1.776.364c-.6,1.7-.109,4.442-3.517,4.014l1.036-5.027c-1.709.968-3.666,1.693-4.816-.01-.869-1.288-.737-3.245-1.1-5.148a4.731,4.731,0,0,0-.913,1.261c-.946,3.057-3.108,4.906-5.979,4.742a17.782,17.782,0,0,1-3.571-1.017,13.222,13.222,0,0,1-2.227,1.006c-1.993.551-3.23-.483-2.99-2.513.188-1.6.611-3.168.876-4.759a4.585,4.585,0,0,0-.125-1.221c-.494.065-1.149-.042-1.448.233a4.605,4.605,0,0,0-1.372,1.952c-.562,2-.927,4.064-1.376,6.127h-2.549c.489-2.28,1-4.479,1.412-6.694a5.883,5.883,0,0,0-.172-1.673,4.832,4.832,0,0,0-1.744.625,4.1,4.1,0,0,0-1.067,1.862,33.52,33.52,0,0,0-.94,4.484c-.166,1.218-.707,1.671-1.892,1.461a10.792,10.792,0,0,0-1.1-.083c.453-2.159.94-4.235,1.3-6.338a9.271,9.271,0,0,0-.139-2.2l-2.076.464c.151-.885.035-1.993,1.44-2.415a3.231,3.231,0,0,1,3.8,1.013,22.418,22.418,0,0,1,2.895-1.163,1.972,1.972,0,0,1,2.444,1.055,21.15,21.15,0,0,1,3.514-1.057,1.673,1.673,0,0,1,2.01,1.977c-.166,1.772-.562,3.522-.868,5.28-.1.581-.464,1.344.513,1.412a1.412,1.412,0,0,0,1.676-1.085h0a1.343,1.343,0,0,0,.025-.16,24.787,24.787,0,0,1,.286-2.464,6.048,6.048,0,0,1,6.145-5.035c2.215.038,3.147.9,3.785,3.761.959-.705,1.867-1.266,2.65-1.967,2.254-2.019,6.036-2.519,8.375-1.05-.446,2.05-.908,4.09-1.324,6.14-.147.727-.581,1.845.5,1.927a2.635,2.635,0,0,0,1.993-1.462,37.868,37.868,0,0,0,1.144-4.962c.511-2.287.57-2.325,3.209-2.313-.437,2.1-.867,4.164-1.3,6.228a1.518,1.518,0,0,0-.071.249c-.017.807-.708,1.775.367,2.34.658.345,2.18-.771,2.447-1.794.4-1.519.712-3.06,1.028-4.6.476-2.312.5-2.345,3.168-2.429-.409,1.932-.815,3.826-1.21,5.721a11.885,11.885,0,0,0-.337,1.931c-.041,1.069.615,1.515,1.495.942a3.464,3.464,0,0,0,1.495-1.682c.515-1.965.789-3.993,1.2-6.254l2.071-.815.427,1.424c.486-.289.941-.588,1.42-.84,2.369-1.246,4.528-.136,4.688,2.523A25.12,25.12,0,0,1,1111.063,480.881Zm-25.039-4.643c-1.418-.367-2.76-.27-3.315.992a13.681,13.681,0,0,0-1.039,4.484c-.083,1.152,1.1,1.6,2.057.886a3.051,3.051,0,0,0,1.134-1.383c.473-1.624.782-3.292,1.163-4.982Zm-14.893,2.27a26.038,26.038,0,0,0-.415,3.1,1.535,1.535,0,0,0,.717,1.226,1.715,1.715,0,0,0,1.54-.229,19.757,19.757,0,0,0,1.7-2.665Zm3.662-.312c.1-1.079.166-2.012-1.016-2.145-.4-.044-1.229.469-1.216.694.069,1.288,1.2,1.179,2.231,1.45Z" transform="translate(-1050.337 -473.88)" fill="#999"/>
                </g>
                <g id="Html5" transform="translate(15.094 208.141)">
                  <path id="Icon_awesome-html5" data-name="Icon awesome-html5" d="M1028.534,711.691l1.848,20.919,8.273,2.758,8.329-2.758,1.848-20.92Zm16.289,6.758h-9.715l.217,2.611h9.281l-.718,7.843-5.174,1.427v.016h-.058l-5.218-1.441-.317-4.006h2.521l.184,2.01,2.827.766,2.838-.766.317-3.287h-8.82l-.681-7.7h12.746Z" transform="translate(-1022.263 -711.689)" fill="#999"/>
                  <g id="Html_5" data-name="Html 5" transform="translate(0 28.061)">
                    <g id="Html_5-2" data-name="Html 5-2" style="isolation: isolate">
                      <text id="Html_5-2-2" data-name="Html 5" transform="translate(0 10)" fill="#999" font-size="10" font-family="SourceSansPro-Regular, Source Sans Pro" style="isolation: isolate"><tspan x="0" y="0">Html 5</tspan></text>
                    </g>
                  </g>
                </g>
                <g id="vue-logo" transform="translate(84.386 307.687)">
                  <g id="vuejs-seeklogo.com" transform="translate(3.678)">
                    <path id="Path_8094" data-name="Path 8094" d="M1126.466,831.57h4.4l-11,18.983-11-18.982h8.419l2.586,4.4,2.531-4.4Z" transform="translate(-1108.859 -831.57)" fill="#999"/>
                    <path id="Path_8095" data-name="Path 8095" d="M1108.863,831.57l11,18.983,11-18.982h-4.4l-6.6,11.389-6.658-11.389Z" transform="translate(-1108.86 -831.57)" fill="#999"/>
                    <path id="Path_8096" data-name="Path 8096" d="M1114.1,831.57l6.657,11.444,6.6-11.444h-4.069l-2.534,4.4-2.586-4.4Z" transform="translate(-1109.747 -831.57)" fill="#999"/>
                  </g>
                  <g id="Vue.js" transform="translate(0 17.07)">
                    <g id="Vue.js-2" style="isolation: isolate">
                      <text id="Vue.js-2-2" data-name="Vue.js" transform="translate(0 10)" fill="#999" font-size="10" font-family="SourceSansPro-Regular, Source Sans Pro" style="isolation: isolate"><tspan x="0" y="0">Vue.js</tspan></text>
                    </g>
                  </g>
                </g>
                <g id="angular" transform="translate(223.993 343.024)">
                  <path id="Icon_awesome-angular" data-name="Icon awesome-angular" d="M1290.306,887.909h4.449l-2.225-5.348Zm2.225-13.784-12.133,4.343,1.857,16.1,10.276,5.716,10.276-5.716,1.857-16.1Zm7.6,19.956h-2.838l-1.53-3.82h-6.457l-1.53,3.82h-2.844l7.6-17.068Z" transform="translate(-1273.884 -874.125)" fill="#999"/>
                  <g id="Angular-2" transform="translate(0 26.068)">
                    <g id="Angular-2-2" style="isolation: isolate">
                      <text id="Angular-2-2" data-name="Angular" transform="translate(0 10)" fill="#999" font-size="10" font-family="SourceSansPro-Regular, Source Sans Pro" style="isolation: isolate"><tspan x="0" y="0">Angular</tspan></text>
                    </g>
                  </g>
                </g>
                <g id="bootstrap" transform="translate(348.438 303.979)">
                  <g id="Bootstrap-2" transform="translate(0 20.973)">
                    <g id="Bootstrap-2-2" style="isolation: isolate">
                      <text id="Bootstrap-2-2" data-name="Bootstrap" transform="translate(0 10)" fill="#999" font-size="10" font-family="SourceSansPro-Regular, Source Sans Pro" style="isolation: isolate"><tspan x="0" y="0">Bootstrap</tspan></text>
                    </g>
                  </g>
                  <path id="Icon_awesome-bootstrap" data-name="Icon awesome-bootstrap" d="M1452.616,839.739a1.8,1.8,0,0,1-1.71,1.878h0a1.862,1.862,0,0,1-.273-.007h-3.654v-3.687h3.654c1.921,0,1.982,1.44,1.982,1.817Zm-2.264-3.3a1.622,1.622,0,0,0,1.731-1.5h0c0-.045,0-.09,0-.135,0-.7-.158-1.619-1.734-1.619h-3.373v3.258Zm9.291-5.964v13.479a3.382,3.382,0,0,1-3.371,3.37h-13.479a3.381,3.381,0,0,1-3.37-3.37V830.474a3.38,3.38,0,0,1,3.37-3.371h13.476a3.38,3.38,0,0,1,3.371,3.371Zm-4.963,9.532a2.824,2.824,0,0,0-2.214-3.04v-.033a2.587,2.587,0,0,0,1.686-2.511c0-.315.09-2.924-3.5-2.924h-5.73V843.29c5.788,0,6.311.076,7.384-.257a3.035,3.035,0,0,0,2.379-3.029Z" transform="translate(-1425.304 -827.104)" fill="#999"/>
                </g>
                <g id="react" transform="translate(437.665 207.806)">
                  <g id="react-seeklogo.com" transform="translate(2.125)">
                    <path id="Path_8400" data-name="Path 8400" d="M1553.059,718.512v.008c-.266-.091-.531-.174-.814-.258q.075-.274.125-.548c.615-2.964.216-5.356-1.146-6.145-1.312-.756-3.454.033-5.614,1.91q-.312.274-.623.573c-.142-.133-.282-.266-.415-.382-2.268-2.018-4.534-2.865-5.9-2.076-1.312.764-1.695,3.006-1.147,5.813.059.274.117.556.183.83-.316.091-.632.191-.93.3-2.658.922-4.351,2.375-4.351,3.878,0,1.553,1.827,3.114,4.592,4.061.216.075.44.141.673.208-.075.307-.142.606-.191.9-.524,2.765-.117,4.957,1.187,5.713,1.345.772,3.6-.025,5.8-1.951.174-.149.349-.307.523-.482.233.224.457.423.681.623,2.135,1.835,4.236,2.574,5.539,1.819,1.345-.781,1.786-3.131,1.22-6-.05-.216-.1-.44-.157-.673.166-.041.316-.091.473-.141,2.873-.955,4.742-2.491,4.742-4.069C1557.519,720.9,1555.767,719.442,1553.059,718.512Zm-6.751-4.218c1.852-1.611,3.587-2.25,4.376-1.794.839.482,1.162,2.433.639,5-.033.166-.074.332-.116.5a25.442,25.442,0,0,0-3.355-.531,25.884,25.884,0,0,0-2.117-2.649Q1546.022,714.543,1546.309,714.293Zm2.167,10.172c-.4.681-.8,1.329-1.2,1.943-.747.05-1.519.083-2.3.083s-1.536-.025-2.267-.075c-.432-.623-.839-1.27-1.23-1.943s-.746-1.345-1.071-2.026c.325-.673.681-1.345,1.063-2.018s.8-1.32,1.221-1.935c.747-.058,1.511-.083,2.283-.083s1.544.025,2.293.083c.415.606.814,1.254,1.2,1.926s.756,1.354,1.08,2.018c-.325.664-.682,1.345-1.08,2.026Zm-8.636-.756c.224.432.457.864.706,1.3s.515.872.789,1.287a21.914,21.914,0,0,1-2.308-.374A22.921,22.921,0,0,1,1539.84,723.71Zm-.008-2.524c-.307-.739-.581-1.47-.8-2.167.722-.158,1.478-.291,2.275-.39-.266.407-.515.83-.764,1.262s-.492.864-.714,1.3ZM1549.4,725c.257-.44.5-.88.731-1.329.315.722.6,1.461.839,2.209a22.672,22.672,0,0,1-2.334.4c.258-.415.515-.836.764-1.279Zm.723-3.811c-.233-.432-.474-.864-.723-1.3-.249-.423-.506-.847-.765-1.254a22.327,22.327,0,0,1,2.284.4c-.233.739-.5,1.453-.8,2.159Zm-5.14-5.588v-.008h.008l-.008.008a19.746,19.746,0,0,1,1.477,1.769c-.489-.025-.979-.033-1.486-.033s-.988.008-1.478.033c.491-.639.981-1.226,1.487-1.769Zm-5.772-3.072c.839-.482,2.69.208,4.65,1.943l.374.349a24.945,24.945,0,0,0-2.135,2.649,25.147,25.147,0,0,0-3.346.523c-.066-.266-.125-.523-.174-.781-.473-2.408-.158-4.224.631-4.683Zm-1.221,13.137c-.215-.066-.423-.125-.623-.191a9.171,9.171,0,0,1-2.931-1.561,2.221,2.221,0,0,1-.93-1.495c0-.913,1.363-2.076,3.629-2.865.274-.1.564-.191.863-.274a25.912,25.912,0,0,0,1.23,3.172,24.959,24.959,0,0,0-1.237,3.214Zm5.8,4.883a8.9,8.9,0,0,1-2.807,1.76,2.183,2.183,0,0,1-1.751.066c-.8-.457-1.121-2.217-.673-4.584.05-.266.108-.548.183-.83a24.533,24.533,0,0,0,3.38.49,26.386,26.386,0,0,0,2.15,2.657c-.157.158-.315.3-.481.44Zm1.23-1.212c-.507-.548-1.013-1.154-1.512-1.8q.722.025,1.469.025c.515,0,1.013-.008,1.511-.033a20.8,20.8,0,0,1-1.469,1.81Zm6.51,1.495a2.2,2.2,0,0,1-.814,1.553c-.8.465-2.482-.133-4.31-1.7-.208-.183-.415-.374-.631-.573a24.943,24.943,0,0,0,2.1-2.674,26.161,26.161,0,0,0,3.4-.523c.05.208.092.407.133.606a9.071,9.071,0,0,1,.117,3.313Zm.913-5.356s-.291-.482-.648-1.1-.789-1.387-1.046-1.935a27.221,27.221,0,0,0,1.221-3.131c.257.075.506.149.746.233,2.325.8,3.737,1.976,3.737,2.89,0,.971-1.529,2.225-4.01,3.047Z" transform="translate(-1532.433 -711.286)" fill="#999"/>
                    <path id="Path_8401" data-name="Path 8401" d="M1547.551,716.468l-.008.008v-.008Z" transform="translate(-1534.996 -712.165)" fill="#999"/>
                    <path id="Path_8402" data-name="Path 8402" d="M1549.317,724.24a2.243,2.243,0,1,1-2.242-2.242,2.242,2.242,0,0,1,2.242,2.242Z" transform="translate(-1534.536 -713.103)" fill="#999"/>
                  </g>
                  <g id="React-2" transform="translate(0 22.231)">
                    <g id="React-2-2" style="isolation: isolate">
                      <text id="React-2-2" data-name="React" transform="translate(0 10)" fill="#999" font-size="10" font-family="SourceSansPro-Regular, Source Sans Pro" style="isolation: isolate"><tspan x="0" y="0">React</tspan></text>
                    </g>
                  </g>
                </g>
              </g>
            </g>
          </g>
        </g>
      </g>
    </g>
  </g>
</svg>
