<?xml version="1.0" encoding="utf-8"?>
<!-- Generator: Adobe Illustrator 24.3.0, SVG Export Plug-In . SVG Version: 6.00 Build 0)  -->
<svg version="1.1" id="Layer_1" xmlns="http://www.w3.org/2000/svg" xmlns:xlink="http://www.w3.org/1999/xlink" x="0px" y="0px"
	 viewBox="0 0 640 640" style="enable-background:new 0 0 640 640;" xml:space="preserve">
<style type="text/css">
	.st0{fill:none;stroke:#627783;stroke-width:2;stroke-linecap:round;}
	.st1{fill:none;stroke:#6BC5D6;stroke-width:3;stroke-linecap:round;}
	.st2{fill:#627783;}
	.st3{font-family:'SourceSansPro-Regular';}
	.st4{font-size:12.4648px;}
	.st5{font-size:13.2958px;}
	.st6{fill:#439558;}
	.st7{fill:#2F4450;}
	.st8{fill:#FFFFFF;}
</style>
<path id="Path_8404" class="st0" d="M111.23,337.29"/>
<g id="ellipse3">
	<path id="Ellipse_112" class="st1" d="M107.39,282.97c6.11-26.91,17.3-52.42,32.96-75.13"/>
	<path id="Ellipse_112-2" class="st1" d="M108.34,383.75c-2.73-11.06-4.58-22.32-5.54-33.67"/>
	<path id="Ellipse_112-3" class="st1" d="M166.55,486.18c-14.74-14.61-27.33-31.23-37.39-49.39"/>
	<path id="Ellipse_112-4" class="st1" d="M304.59,548.78c-34.53-2.38-67.99-13.01-97.57-30.98"/>
	<path id="Ellipse_112-5" class="st1" d="M428.56,520.38c-23.28,13.41-48.85,22.37-75.4,26.43"/>
	<path id="Ellipse_112-6" class="st1" d="M515.44,427.88c-10.71,21.62-24.92,41.32-42.06,58.3"/>
	<path id="Ellipse_112-7" class="st1" d="M537.92,331.36c0,1.2-0.01,2.41-0.03,3.61c-0.24,15.63-2.17,31.19-5.73,46.41"/>
	<path id="Ellipse_112-8" class="st1" d="M511.29,226.88c8.17,14.93,14.56,30.77,19.02,47.2"/>
	<path id="Ellipse_112-9" class="st1" d="M158.96,184.45c81.14-88.92,219-95.23,307.92-14.09c0.93,0.85,1.86,1.71,2.78,2.58"/>
</g>
<g id="design-frontend">
	<g id="aobecc">
		<path id="Icon_simple-adobecreativecloud" class="st2" d="M117.21,300.01v1c-0.01,0.05-0.02,0.11-0.03,0.17
			c-0.05,0.44-0.08,0.87-0.15,1.31c-0.23,1.39-0.73,2.72-1.47,3.92c-1.08,1.8-2.66,3.25-4.54,4.19c-1.1,0.55-2.28,0.91-3.51,1.05
			c-0.27,0.03-0.54,0.06-0.81,0.09H96.19c-0.05-0.01-0.11-0.02-0.16-0.03c-1.05-0.06-2.09-0.32-3.05-0.75
			c-2.08-0.9-3.75-2.53-4.73-4.57c-0.46-0.93-0.75-1.93-0.87-2.95l-0.09-0.74v-0.97c0.01-0.05,0.02-0.11,0.03-0.17
			c0.05-0.93,0.25-1.84,0.58-2.71c0.83-2.27,2.5-4.13,4.66-5.21c1.13-0.57,2.38-0.9,3.65-0.96c0.63-0.03,1.25,0,1.87,0.09
			c0.06,0.01,0.13-0.02,0.18-0.06c0.88-0.92,1.92-1.69,3.06-2.26c1.1-0.56,2.3-0.91,3.52-1.06c0.29-0.03,0.58-0.06,0.87-0.09h0.9
			c0.06,0.01,0.12,0.02,0.17,0.03c0.44,0.05,0.89,0.08,1.33,0.17c1.36,0.23,2.66,0.74,3.83,1.48c1.79,1.12,3.23,2.72,4.14,4.63
			c0.55,1.12,0.9,2.33,1.03,3.57C117.15,299.44,117.18,299.73,117.21,300.01 M100.48,293.53c0.02,0.02,0.02,0.04,0.03,0.04
			c0.62,0.31,1.2,0.67,1.76,1.08c0.05,0.02,0.12,0.02,0.17-0.01c3.01-1.96,7.02-1.26,9.18,1.61c1.21,1.52,1.71,3.5,1.35,5.41
			c-0.2,1.32-0.78,2.56-1.66,3.57c-1.5,1.79-3.83,2.66-6.13,2.29c-1.47-0.19-2.82-0.88-3.84-1.95c-1.37-1.41-2.75-2.8-4.12-4.2
			c-0.17-0.19-0.4-0.32-0.65-0.37c-0.45-0.06-0.89,0.18-1.08,0.6c-0.2,0.4-0.11,0.89,0.23,1.18c1.53,1.53,3.05,3.07,4.57,4.6
			c0.26,0.26,0.54,0.5,0.84,0.73c1.1,0.8,2.39,1.3,3.74,1.46c3.11,0.44,6.21-0.79,8.17-3.24c1.07-1.31,1.75-2.89,1.96-4.57
			c0.13-0.98,0.1-1.97-0.08-2.94c-0.28-1.56-0.98-3.01-2.02-4.21c-1.85-2.23-4.69-3.39-7.57-3.1c-1.15,0.1-2.28,0.43-3.29,0.98
			C101.49,292.77,100.97,293.13,100.48,293.53 M99.75,309.6l-0.12-0.12c-0.62-0.6-1.25-1.2-1.87-1.81c-0.1-0.11-0.25-0.17-0.4-0.17
			c-0.63,0.04-1.25-0.01-1.87-0.12c-2.87-0.72-4.62-3.62-3.9-6.49l0,0c0.66-2.67,3.26-4.38,5.98-3.93c1.08,0.18,2.08,0.7,2.83,1.5
			c0.96,1.01,1.95,1.98,2.92,2.98c0.19,0.22,0.49,0.33,0.78,0.29c0.39-0.03,0.72-0.28,0.85-0.64c0.15-0.36,0.06-0.78-0.22-1.05
			c-1.02-1.05-2.01-2.12-3.07-3.12c-1.85-1.9-4.64-2.56-7.15-1.7c-3.88,1.29-5.97,5.48-4.68,9.35c0.99,2.98,3.75,5,6.89,5.06h2.87
			c0.05,0,0.09,0,0.17-0.01"/>
		<g id="Creative_Cloud">
			<g id="Creative_Cloud-2">
				<text transform="matrix(1 0 0 1 83.7491 329.0902)" class="st2 st3 st4">Creative</text>
				<text transform="matrix(1 0 0 1 89.7316 345.0443)" class="st2 st3 st4">Cloud</text>
			</g>
		</g>
	</g>
	<g id="Invision">
		<path id="Icon_awesome-invision" class="st2" d="M497.85,181.73h-21.43c-1.31,0-2.37,1.06-2.37,2.37v21.44
			c0,1.31,1.06,2.37,2.37,2.37h21.43c1.31,0,2.37-1.06,2.37-2.37V184.1C500.22,182.79,499.16,181.73,497.85,181.73z M484.34,188.37
			c0.01,0.87-0.69,1.57-1.56,1.58c-0.87,0.01-1.57-0.69-1.58-1.56c-0.01-0.87,0.69-1.57,1.56-1.58
			C483.62,186.81,484.33,187.5,484.34,188.37L484.34,188.37z M493.49,201.89c-3.83,0-1.99-4.32-1.46-6.23
			c0.82-2.71-2.64-3.45-3.5,0.04l-1.51,6.03h-2.64l0.47-1.9c-1.84,3.03-5.53,2.59-5.53-0.25c0.01-0.84,0.05-0.82,1.34-6.08h-1.86
			l0.57-2.08h4.46c-1.96,7.81-1.9,7.41-1.92,8.07c0,1.22,2.39,0.79,3.35-1.36l1.16-4.64h-1.89l0.57-2.08h4.02l-0.52,2.37
			c2.37-4.41,7.47-2.79,5.95,2.22c-0.83,2.99-0.85,2.96-0.87,3.44c0,0.91,1.02,1.32,1.86-0.99l1.05,0.39
			C495.99,200.99,494.88,201.89,493.49,201.89L493.49,201.89z"/>
		<g id="Invision_">
			<g id="Invision-2">
				<text transform="matrix(1 0 0 1 465.5538 224.4384)" class="st2 st3 st5">Invision</text>
			</g>
		</g>
	</g>
	<g id="jquery">
		<g id="jquery-2">
			<g id="Jquery-3">
				<text transform="matrix(1 0 0 1 520.8058 323.5834)" class="st2 st3 st5">Jquery</text>
			</g>
		</g>
		<path id="Icon_simple-jquery" class="st2" d="M525.36,285.86c-2.65,3.8-2.32,8.75-0.29,12.78c0.05,0.1,0.1,0.19,0.15,0.29
			c0.03,0.06,0.06,0.13,0.1,0.19c0.02,0.04,0.04,0.07,0.06,0.1c0.03,0.06,0.07,0.13,0.1,0.19l0.2,0.33
			c0.04,0.06,0.07,0.12,0.11,0.18c0.07,0.12,0.15,0.23,0.22,0.35c0.03,0.05,0.06,0.1,0.1,0.15c0.12,0.19,0.25,0.37,0.39,0.55
			c0.1,0.13,0.19,0.26,0.3,0.39c0.03,0.05,0.07,0.09,0.11,0.14l0.28,0.33c0.03,0.04,0.07,0.08,0.1,0.12
			c0.12,0.15,0.25,0.29,0.38,0.44c0,0,0,0.01,0.01,0.01c0.16,0.2,0.33,0.38,0.53,0.55c0.1,0.1,0.2,0.2,0.3,0.3l0.13,0.12
			c0.14,0.13,0.28,0.26,0.42,0.38h0.01l0.07,0.06c0.13,0.11,0.26,0.22,0.39,0.32l0.16,0.13c0.11,0.08,0.22,0.17,0.32,0.25l0.17,0.13
			l0.36,0.26c0.04,0.03,0.08,0.06,0.13,0.09l0.04,0.03l0.35,0.23l0.15,0.1c0.18,0.12,0.36,0.23,0.55,0.34
			c0.05,0.03,0.1,0.05,0.15,0.08c0.13,0.08,0.27,0.16,0.41,0.23c0.07,0.04,0.15,0.08,0.23,0.12c0.09,0.05,0.19,0.1,0.29,0.16
			c0.02,0.01,0.05,0.02,0.07,0.03c0.04,0.02,0.08,0.04,0.12,0.06c0.15,0.07,0.31,0.15,0.47,0.22c0.03,0.01,0.06,0.03,0.09,0.04
			c0.18,0.08,0.36,0.15,0.55,0.23c0.04,0.01,0.08,0.03,0.13,0.05c0.17,0.06,0.34,0.13,0.51,0.19l0.06,0.02
			c0.19,0.06,0.38,0.13,0.57,0.19c0.04,0.01,0.09,0.03,0.14,0.04c0.19,0.06,0.39,0.12,0.59,0.17c12.79,2.33,16.51-7.69,16.51-7.69
			c-3.12,4.07-8.66,5.14-13.91,3.94c-0.19-0.04-0.39-0.11-0.58-0.17c-0.24-0.07-0.47-0.15-0.71-0.23l-0.08-0.03
			c-0.17-0.06-0.33-0.12-0.5-0.18c-0.04-0.02-0.09-0.04-0.14-0.05c-0.18-0.07-0.36-0.15-0.54-0.23c-0.04-0.01-0.07-0.03-0.11-0.04
			c-0.15-0.07-0.3-0.14-0.45-0.21c-0.05-0.02-0.08-0.04-0.13-0.06c-0.12-0.05-0.23-0.12-0.35-0.18c-0.08-0.04-0.16-0.08-0.23-0.12
			c-0.14-0.07-0.28-0.16-0.42-0.23c-0.04-0.03-0.09-0.05-0.14-0.08c-0.18-0.11-0.37-0.22-0.55-0.33c-0.05-0.03-0.1-0.06-0.15-0.1
			c-0.13-0.08-0.26-0.17-0.39-0.26c-0.04-0.03-0.08-0.06-0.13-0.09c-0.12-0.09-0.25-0.17-0.37-0.26c-0.05-0.04-0.11-0.08-0.17-0.12
			c-0.11-0.08-0.22-0.17-0.33-0.26l-0.15-0.12c-0.14-0.11-0.28-0.23-0.42-0.35c-0.01-0.01-0.03-0.03-0.05-0.04l-0.43-0.39
			l-0.12-0.12c-0.1-0.1-0.21-0.2-0.31-0.31l-0.12-0.12c-0.13-0.13-0.26-0.27-0.39-0.4l-0.02-0.02c-0.13-0.14-0.26-0.29-0.39-0.44
			c-0.03-0.04-0.06-0.08-0.1-0.12l-0.28-0.35c-0.14-0.18-0.28-0.37-0.42-0.56c-2.91-3.97-3.96-9.46-1.63-13.96 M533.57,282.64
			c-1.81,2.83-1.93,6.42-0.32,9.36c0.25,0.49,0.53,0.96,0.84,1.41c0.28,0.45,0.61,0.86,0.98,1.23c0.13,0.15,0.28,0.3,0.43,0.45
			l0.11,0.11c0.14,0.14,0.29,0.27,0.44,0.4l0.02,0.02c0.17,0.15,0.34,0.29,0.52,0.43c0.04,0.03,0.08,0.06,0.12,0.09
			c0.17,0.13,0.35,0.26,0.53,0.39l0.02,0.01c0.08,0.06,0.16,0.11,0.25,0.17c0.03,0.02,0.07,0.05,0.11,0.07
			c0.13,0.08,0.26,0.17,0.4,0.25c0.02,0.01,0.04,0.02,0.06,0.03c0.11,0.07,0.23,0.13,0.35,0.2c0.04,0.02,0.08,0.04,0.12,0.07
			c0.08,0.04,0.17,0.08,0.25,0.13l0.04,0.02c0.17,0.08,0.34,0.16,0.51,0.24c0.04,0.02,0.08,0.03,0.11,0.05
			c0.14,0.06,0.28,0.12,0.42,0.17c0.06,0.02,0.12,0.05,0.18,0.06c0.13,0.05,0.26,0.09,0.39,0.13l0.17,0.06
			c0.18,0.07,0.37,0.12,0.56,0.16c9.87,1.64,12.16-5.97,12.16-5.97c-2.06,2.96-6.04,4.37-10.28,3.27c-0.19-0.05-0.37-0.1-0.56-0.17
			c-0.06-0.02-0.11-0.03-0.17-0.05c-0.13-0.04-0.26-0.09-0.39-0.14l-0.18-0.07c-0.14-0.06-0.28-0.11-0.42-0.17
			c-0.04-0.01-0.08-0.03-0.11-0.05c-0.17-0.08-0.35-0.16-0.52-0.24l-0.26-0.13l-0.15-0.07c-0.11-0.06-0.22-0.12-0.33-0.19
			c-0.03-0.01-0.06-0.03-0.08-0.05c-0.13-0.08-0.27-0.17-0.4-0.25c-0.04-0.02-0.08-0.05-0.12-0.08l-0.26-0.17
			c-0.18-0.12-0.35-0.26-0.53-0.39c-0.04-0.04-0.08-0.07-0.12-0.1c-1.89-1.46-3.3-3.47-4.04-5.74c-0.78-2.38-0.53-4.97,0.7-7.15
			 M540.48,280.26c-1.1,1.65-1.27,3.75-0.46,5.55c0.86,1.95,2.49,3.47,4.49,4.19c0.08,0.03,0.16,0.06,0.24,0.08l0.11,0.03
			c0.11,0.04,0.23,0.08,0.35,0.1c5.45,1.05,6.93-2.8,7.33-3.37c-1.3,1.86-3.48,2.31-6.15,1.66c-0.22-0.05-0.43-0.12-0.64-0.2
			c-0.26-0.09-0.52-0.2-0.77-0.32c-0.47-0.23-0.93-0.51-1.35-0.82c-2.39-1.81-3.87-5.27-2.31-8.09"/>
	</g>
	<g id="moqups">
		<path id="Path_8368" class="st2" d="M184.02,199.41c1.68-1.29,3.02-2.98,3.88-4.92c0.9-1.82,1.25-2.04,3.36-1.91
			c0.49,1.64,1.04,3.25,1.45,4.89c0.94,3.74-1.68,6.54-5.59,5.94c0.01-1.01-0.06-1.91,1.44-2.02c1.1-0.08,1.81-1.33,1.66-2.61
			c-0.15-0.87-0.35-1.73-0.59-2.58c-2.94,4.46-6.57,7.33-11.94,7.36c-0.03-0.15-0.04-0.29-0.04-0.44c0.1-0.47,0.2-0.94,0.3-1.4
			c2.45-0.93,3.88-3.48,3.38-6.06c-0.23-0.45-0.68-0.75-1.18-0.8c-1.18,0.1-2.14,0.99-2.33,2.16c-0.61,2.73-1.21,5.46-1.8,8.19
			c-0.48,2.25-0.57,2.33-3.16,2.48c0.33-1.62,0.66-3.21,1.03-4.98c-1.95,0.93-3.68,1.24-5.12-0.5c-2.72,1.7-3.83,1.75-5.64,0.21
			c-0.52,0.3-1.05,0.58-1.6,0.81c-0.58,0.16-1.18,0.28-1.78,0.36c-0.6,1.7-0.11,4.45-3.52,4.02l1.04-5.03
			c-1.71,0.97-3.67,1.69-4.82-0.01c-0.87-1.29-0.74-3.25-1.1-5.15c-0.37,0.37-0.68,0.79-0.91,1.26c-0.95,3.06-3.11,4.91-5.98,4.75
			c-1.22-0.21-2.42-0.55-3.57-1.02c-0.71,0.4-1.46,0.74-2.23,1.01c-1.99,0.55-3.23-0.48-2.99-2.51c0.19-1.6,0.61-3.17,0.88-4.76
			c0.01-0.41-0.03-0.82-0.13-1.22c-0.49,0.06-1.15-0.04-1.45,0.23c-0.62,0.52-1.09,1.19-1.37,1.95c-0.56,2.01-0.93,4.07-1.38,6.13
			h-2.55c0.49-2.28,1-4.48,1.41-6.7c0.02-0.56-0.03-1.13-0.17-1.67c-0.62,0.09-1.21,0.31-1.75,0.63c-0.51,0.52-0.88,1.16-1.07,1.86
			c-0.42,1.47-0.73,2.97-0.94,4.49c-0.17,1.22-0.71,1.67-1.89,1.46c-0.37-0.05-0.73-0.07-1.1-0.08c0.45-2.16,0.94-4.24,1.3-6.34
			c0.04-0.74-0.01-1.47-0.14-2.2l-2.08,0.46c0.15-0.89,0.03-1.99,1.44-2.42c1.35-0.56,2.91-0.15,3.8,1.01
			c0.94-0.45,1.91-0.84,2.9-1.16c0.97-0.33,2.03,0.12,2.45,1.06c1.14-0.45,2.32-0.81,3.52-1.06c0.9-0.21,1.8,0.36,2.01,1.26
			c0.05,0.24,0.06,0.48,0.01,0.72c-0.17,1.77-0.56,3.53-0.87,5.28c-0.1,0.58-0.46,1.34,0.51,1.41c0.76,0.16,1.51-0.32,1.68-1.09
			c0,0,0,0,0,0l0,0c0.01-0.05,0.02-0.11,0.02-0.16c0.06-0.83,0.15-1.65,0.29-2.47c0.51-2.98,3.13-5.13,6.15-5.04
			c2.22,0.04,3.15,0.9,3.79,3.76c0.96-0.71,1.87-1.27,2.65-1.97c2.26-2.02,6.04-2.52,8.38-1.05c-0.45,2.05-0.91,4.09-1.32,6.14
			c-0.15,0.73-0.58,1.85,0.5,1.93c0.87-0.13,1.61-0.67,1.99-1.46c0.49-1.63,0.88-3.29,1.15-4.97c0.51-2.29,0.57-2.33,3.21-2.31
			c-0.44,2.1-0.87,4.17-1.3,6.23c-0.03,0.08-0.05,0.16-0.07,0.25c-0.02,0.81-0.71,1.78,0.37,2.34c0.66,0.35,2.18-0.77,2.45-1.8
			c0.4-1.52,0.71-3.06,1.03-4.6c0.48-2.31,0.5-2.35,3.17-2.43c-0.41,1.93-0.82,3.83-1.21,5.73c-0.17,0.63-0.28,1.28-0.34,1.93
			c-0.04,1.07,0.62,1.52,1.5,0.94c0.67-0.38,1.2-0.97,1.5-1.68c0.52-1.97,0.79-4,1.21-6.26l2.07-0.82l0.43,1.43
			c0.49-0.29,0.94-0.59,1.42-0.84c2.37-1.25,4.53-0.14,4.69,2.52C184.37,196.83,184.24,198.13,184.02,199.41z M158.96,194.77
			c-1.42-0.37-2.76-0.27-3.32,1c-0.6,1.43-0.95,2.94-1.04,4.49c-0.08,1.15,1.1,1.6,2.06,0.89c0.51-0.34,0.9-0.82,1.13-1.38
			C158.27,198.13,158.58,196.46,158.96,194.77L158.96,194.77z M144.06,197.04c-0.2,1.02-0.34,2.06-0.42,3.1
			c0.02,0.5,0.29,0.96,0.72,1.23c0.52,0.17,1.09,0.09,1.54-0.23c0.64-0.84,1.21-1.73,1.7-2.67L144.06,197.04z M147.72,196.73
			c0.1-1.08,0.17-2.01-1.02-2.15c-0.4-0.04-1.23,0.47-1.22,0.69C145.56,196.56,146.69,196.46,147.72,196.73L147.72,196.73z"/>
	</g>
	<g id="Html5">
		<path id="Icon_awesome-html5" class="st2" d="M105.13,390.03l1.85,20.93l8.28,2.76l8.34-2.76l1.85-20.94L105.13,390.03z
			 M121.43,396.79h-9.72l0.22,2.61h9.29l-0.72,7.85l-5.18,1.43v0.02h-0.06l-5.22-1.44l-0.32-4.01h2.52l0.18,2.01l2.83,0.77
			l2.84-0.77l0.32-3.29h-8.82l-0.68-7.7h12.76L121.43,396.79z"/>
		<g id="Html_5">
			<g id="Html_5-2">
				<text transform="matrix(1 0 0 1 98.8536 431.4018)" class="st2 st3 st5">Html 5</text>
			</g>
		</g>
	</g>
	<g id="vue-logo">
		<g id="vuejs-seeklogo.com">
			<path id="Path_8094" class="st6" d="M189.5,489.64h4.4l-11.01,19l-11.01-19h8.43l2.59,4.4l2.53-4.4L189.5,489.64z"/>
			<path id="Path_8095" class="st2" d="M171.88,489.64l11.01,19l11.01-19h-4.4l-6.6,11.4l-6.66-11.4L171.88,489.64z"/>
			<path id="Path_8096" class="st7" d="M176.23,489.64l6.66,11.45l6.61-11.45h-4.07l-2.54,4.4l-2.59-4.4H176.23z"/>
		</g>
		<g id="Vue.js">
			<g id="Vue.js-2">
				<text transform="matrix(1 0 0 1 168.1974 520.0228)" class="st2 st3 st5">Vue.js</text>
			</g>
		</g>
	</g>
	<g id="angular">
		<path id="Icon_awesome-angular" class="st2" d="M324.34,538.8h4.45l-2.23-5.35L324.34,538.8z M326.57,525.01l-12.14,4.35
			l1.86,16.11l10.28,5.72l10.28-5.72l1.86-16.11L326.57,525.01z M334.17,544.98h-2.84l-1.53-3.82h-6.46l-1.53,3.82h-2.85l7.6-17.08
			L334.17,544.98z"/>
		<g id="Angular-2">
			<g id="Angular-2-2_1_">
				<text transform="matrix(1 0 0 1 307.9063 564.39)" class="st2 st3 st5">Angular</text>
			</g>
		</g>
	</g>
	<g id="bootstrap">
		<g id="Bootstrap-2">
			<g id="Bootstrap-2-2_1_">
				<text transform="matrix(1 0 0 1 432.4435 520.2181)" class="st2 st3 st5">Bootstrap</text>
			</g>
		</g>
		<path id="Icon_awesome-bootstrap" class="st2" d="M459.78,498.58c0.05,0.99-0.72,1.83-1.71,1.88c0,0,0,0,0,0l0,0
			c-0.09,0-0.18,0-0.27-0.01h-3.66v-3.69h3.66C459.71,496.76,459.77,498.2,459.78,498.58L459.78,498.58z M457.51,495.27
			c0.89,0.06,1.67-0.61,1.73-1.51l0,0c0-0.04,0-0.09,0-0.13c0-0.7-0.16-1.62-1.74-1.62h-3.38v3.26L457.51,495.27z M466.81,489.31
			v13.49c-0.01,1.86-1.51,3.37-3.37,3.37h-13.49c-1.86-0.01-3.37-1.51-3.37-3.37v-13.49c0-1.86,1.51-3.37,3.37-3.37h13.49
			C465.29,485.94,466.8,487.45,466.81,489.31L466.81,489.31z M461.84,498.85c0.14-1.43-0.81-2.74-2.22-3.04v-0.03
			c1.04-0.39,1.72-1.4,1.69-2.51c0-0.32,0.09-2.93-3.51-2.93h-5.73v11.8c5.79,0,6.32,0.08,7.39-0.26
			C460.88,501.56,461.88,500.29,461.84,498.85L461.84,498.85z"/>
	</g>
	<g id="react">
		<g id="react-seeklogo.com">
			<path id="Path_8400" class="st2" d="M544.5,396.92v0.01c-0.27-0.09-0.53-0.17-0.81-0.26c0.05-0.18,0.09-0.37,0.12-0.55
				c0.61-2.97,0.22-5.36-1.15-6.15c-1.31-0.76-3.46,0.03-5.62,1.91c-0.21,0.18-0.42,0.37-0.62,0.57c-0.14-0.13-0.28-0.27-0.42-0.38
				c-2.27-2.02-4.54-2.87-5.9-2.08c-1.31,0.76-1.7,3.01-1.15,5.82c0.06,0.27,0.12,0.56,0.18,0.83c-0.32,0.09-0.63,0.19-0.93,0.3
				c-2.66,0.92-4.35,2.38-4.35,3.88c0,1.55,1.83,3.12,4.6,4.06c0.22,0.07,0.44,0.14,0.67,0.21c-0.07,0.31-0.14,0.61-0.19,0.9
				c-0.52,2.77-0.12,4.96,1.19,5.72c1.35,0.77,3.61-0.02,5.81-1.95c0.17-0.15,0.35-0.31,0.52-0.48c0.23,0.22,0.46,0.42,0.68,0.62
				c2.14,1.84,4.24,2.58,5.54,1.82c1.35-0.78,1.79-3.13,1.22-6.01c-0.05-0.22-0.1-0.44-0.16-0.67c0.17-0.04,0.32-0.09,0.47-0.14
				c2.88-0.96,4.74-2.49,4.74-4.07C548.97,399.31,547.21,397.85,544.5,396.92z M537.75,392.7c1.85-1.61,3.59-2.25,4.38-1.79
				c0.84,0.48,1.16,2.43,0.64,5c-0.03,0.17-0.07,0.33-0.12,0.5c-1.11-0.25-2.23-0.43-3.36-0.53c-0.65-0.93-1.35-1.81-2.12-2.65
				C537.37,393.04,537.56,392.87,537.75,392.7L537.75,392.7z M539.92,402.88c-0.4,0.68-0.8,1.33-1.2,1.94
				c-0.75,0.05-1.52,0.08-2.3,0.08s-1.54-0.02-2.27-0.07c-0.43-0.62-0.84-1.27-1.23-1.94c-0.39-0.67-0.75-1.35-1.07-2.03
				c0.32-0.67,0.68-1.35,1.06-2.02c0.38-0.67,0.8-1.32,1.22-1.94c0.75-0.06,1.51-0.08,2.29-0.08c0.77,0,1.55,0.02,2.29,0.08
				c0.42,0.61,0.81,1.25,1.2,1.93s0.76,1.35,1.08,2.02C540.66,401.52,540.31,402.2,539.92,402.88L539.92,402.88z M531.28,402.12
				c0.22,0.43,0.46,0.86,0.71,1.3c0.25,0.43,0.52,0.87,0.79,1.29c-0.78-0.08-1.55-0.21-2.31-0.37
				C530.69,403.58,530.97,402.85,531.28,402.12L531.28,402.12z M531.27,399.6c-0.31-0.74-0.58-1.47-0.8-2.17
				c0.72-0.16,1.48-0.29,2.28-0.39c-0.27,0.41-0.52,0.83-0.76,1.26S531.49,399.16,531.27,399.6L531.27,399.6z M540.84,403.41
				c0.26-0.44,0.5-0.88,0.73-1.33c0.32,0.72,0.6,1.46,0.84,2.21c-0.77,0.17-1.55,0.31-2.34,0.4
				C540.33,404.28,540.59,403.85,540.84,403.41z M541.56,399.6c-0.23-0.43-0.47-0.86-0.72-1.3c-0.25-0.42-0.51-0.85-0.77-1.25
				c0.77,0.09,1.53,0.23,2.29,0.4C542.13,398.18,541.86,398.89,541.56,399.6L541.56,399.6z M536.42,394L536.42,394L536.42,394
				L536.42,394c0.53,0.56,1.02,1.15,1.48,1.77c-0.49-0.02-0.98-0.03-1.49-0.03c-0.51,0-0.99,0.01-1.48,0.03
				C535.42,395.13,535.91,394.55,536.42,394z M530.64,390.93c0.84-0.48,2.69,0.21,4.65,1.94l0.37,0.35
				c-0.77,0.83-1.49,1.72-2.14,2.65c-1.13,0.1-2.25,0.27-3.35,0.52c-0.07-0.27-0.12-0.52-0.17-0.78
				C529.54,393.21,529.85,391.39,530.64,390.93L530.64,390.93z M529.42,404.08c-0.22-0.07-0.42-0.12-0.62-0.19
				c-1.06-0.34-2.06-0.87-2.93-1.56c-0.5-0.35-0.84-0.89-0.93-1.5c0-0.91,1.36-2.08,3.63-2.87c0.27-0.1,0.57-0.19,0.86-0.27
				c0.34,1.08,0.75,2.14,1.23,3.17C530.17,401.9,529.76,402.98,529.42,404.08L529.42,404.08z M535.22,408.96
				c-0.82,0.76-1.77,1.36-2.81,1.76c-0.55,0.27-1.18,0.29-1.75,0.07c-0.8-0.46-1.12-2.22-0.67-4.59c0.05-0.27,0.11-0.55,0.18-0.83
				c1.11,0.24,2.24,0.41,3.38,0.49c0.66,0.93,1.38,1.82,2.15,2.66C535.55,408.68,535.39,408.82,535.22,408.96L535.22,408.96z
				 M536.45,407.75c-0.51-0.55-1.01-1.16-1.51-1.8c0.48,0.02,0.97,0.03,1.47,0.02c0.52,0,1.01-0.01,1.51-0.03
				C537.47,406.57,536.98,407.17,536.45,407.75L536.45,407.75z M542.97,409.24c-0.04,0.61-0.34,1.17-0.82,1.55
				c-0.8,0.47-2.48-0.13-4.31-1.7c-0.21-0.18-0.42-0.37-0.63-0.57c0.76-0.84,1.46-1.74,2.1-2.68c1.15-0.1,2.28-0.27,3.41-0.52
				c0.05,0.21,0.09,0.41,0.13,0.61C543.09,407.02,543.13,408.14,542.97,409.24L542.97,409.24z M543.88,403.88
				c0,0-0.29-0.48-0.65-1.11c-0.36-0.62-0.79-1.39-1.05-1.94c0.47-1.02,0.88-2.06,1.22-3.13c0.26,0.07,0.51,0.15,0.75,0.23
				c2.33,0.8,3.74,1.98,3.74,2.89C547.89,401.81,546.36,403.06,543.88,403.88L543.88,403.88z"/>
			<path id="Path_8401" class="st2" d="M536.43,394L536.43,394L536.43,394L536.43,394z"/>
			<path id="Path_8402" class="st2" d="M538.65,400.84c0,1.24-1,2.24-2.24,2.24c-1.24,0-2.24-1-2.24-2.24c0-1.24,1-2.24,2.24-2.24
				l0,0C537.65,398.59,538.65,399.6,538.65,400.84z"/>
		</g>
		<g id="React-2">
			<g id="React-2-2_1_">
				<text transform="matrix(1 0 0 1 521.7355 425.2328)" class="st2 st3 st5">React</text>
			</g>
		</g>
	</g>
</g>
<g id="DESIGN">
	<g id="DESIGN-2">
		<text transform="matrix(1 0 0 1 294.6583 94.4291)" class="st8 st3 st4">DESIGN</text>
	</g>
</g>
<path id="Layer_1_1_" class="st2" d="M339.81,233.39"/>
</svg>
