<svg xmlns="http://www.w3.org/2000/svg" xmlns:xlink="http://www.w3.org/1999/xlink" width="600" height="600" viewBox="0 0 600 600">
  <defs>
    <clipPath id="clip-Custom_Size_1">
      <rect width="600" height="600"/>
    </clipPath>
  </defs>
  <g id="Custom_Size_1" data-name="Custom Size – 1" clip-path="url(#clip-Custom_Size_1)">
    <g id="Group_1" data-name="Group 1" transform="translate(16.748 16.4)">
      <g id="Component_148_1" data-name="Component 148 – 1" transform="translate(51.195 56.6)">
        <g id="circle" transform="translate(-67.195 -65.6)">
          <path id="Path_8404" data-name="Path 8404" d="M1035.877,648.231" transform="translate(-941.22 -345.774)" fill="none" stroke="#627783" stroke-linecap="round" stroke-width="2"/>
          <g id="circle-2" data-name="circle">
            <g id="ellipse4">
              <path id="Ellipse_111" data-name="Ellipse 111" d="M1015.8,421a288.129,288.129,0,0,1,31.136-33.629" transform="translate(-937.814 -301.526)" fill="none" stroke="#999" stroke-linecap="round" stroke-width="1"/>
              <path id="Ellipse_111-2" data-name="Ellipse 111" d="M964.224,512.727a284.974,284.974,0,0,1,13.716-30.618" transform="translate(-929.066 -317.596)" fill="none" stroke="#999" stroke-linecap="round" stroke-width="1"/>
              <path id="Ellipse_111-3" data-name="Ellipse 111" d="M943.094,655.284q-1.137-12.743-1.145-25.792a287.762,287.762,0,0,1,5.74-57.341" transform="translate(-925.287 -332.869)" fill="none" stroke="#999" stroke-linecap="round" stroke-width="1"/>
              <path id="Ellipse_111-4" data-name="Ellipse 111" d="M976.951,789.208a284.555,284.555,0,0,1-25.6-67.691" transform="translate(-926.881 -358.205)" fill="none" stroke="#999" stroke-linecap="round" stroke-width="1"/>
              <path id="Ellipse_111-5" data-name="Ellipse 111" d="M1105.276,929.544a287.8,287.8,0,0,1-91.263-77.287" transform="translate(-937.511 -380.381)" fill="none" stroke="#999" stroke-linecap="round" stroke-width="1"/>
              <path id="Ellipse_111-6" data-name="Ellipse 111" d="M1229.679,979.884a284.59,284.59,0,0,1-70.207-18" transform="translate(-962.184 -398.977)" fill="none" stroke="#999" stroke-linecap="round" stroke-width="1"/>
              <path id="Ellipse_111-7" data-name="Ellipse 111" d="M1394.767,964.765a284.546,284.546,0,0,1-59.6,15.027" transform="translate(-991.985 -399.465)" fill="none" stroke="#999" stroke-linecap="round" stroke-width="1"/>
              <path id="Ellipse_111-8" data-name="Ellipse 111" d="M1544.089,849.562a287.887,287.887,0,0,1-87.433,76.466" transform="translate(-1012.593 -379.924)" fill="none" stroke="#999" stroke-linecap="round" stroke-width="1"/>
              <path id="Ellipse_111-9" data-name="Ellipse 111" d="M1617.328,711.347a284.747,284.747,0,0,1-36.649,92.1" transform="translate(-1033.631 -356.48)" fill="none" stroke="#999" stroke-linecap="round" stroke-width="1"/>
              <path id="Ellipse_111-10" data-name="Ellipse 111" d="M1624.554,569.818a287.085,287.085,0,0,1,6.034,51.414" transform="translate(-1041.073 -332.473)" fill="none" stroke="#999" stroke-linecap="round" stroke-width="1"/>
              <path id="Ellipse_111-11" data-name="Ellipse 111" d="M1591.9,479.717a285.006,285.006,0,0,1,12.405,26.6" transform="translate(-1035.533 -317.19)" fill="none" stroke="#999" stroke-linecap="round" stroke-width="1"/>
              <path id="Ellipse_111-12" data-name="Ellipse 111" d="M1519.828,386.659a288.273,288.273,0,0,1,30.294,32.35" transform="translate(-1023.309 -301.405)" fill="none" stroke="#999" stroke-linecap="round" stroke-width="1"/>
              <path id="Ellipse_111-13" data-name="Ellipse 111" d="M1098.334,342.769A286.688,286.688,0,0,1,1410.39,342" transform="translate(-951.814 -286.062)" fill="none" stroke="#999" stroke-linecap="round" stroke-width="1"/>
              <rect id="Rectangle_678" data-name="Rectangle 678" width="77" height="29" transform="translate(261.252 -0.4)" fill="#153243"/>
              <text id="DEVELOP" transform="translate(270.86 14.416)" fill="#fff" font-size="14" font-family="SourceSansPro-Bold, Source Sans Pro" font-weight="700" style="isolation: isolate"><tspan x="0" y="0">DEVELOP</tspan></text>
              <g id="cloud" transform="translate(0 47.305)" style="isolation: isolate">
                <g id="azure-logo" transform="translate(115.27 0.243)">
                  <g id="Azure" transform="translate(0 20.759)">
                    <g id="Azure-2" style="isolation: isolate">
                      <text id="Azure-2-2" data-name="Azure" transform="translate(0 10)" fill="#999" font-size="10" font-family="SourceSansPro-Regular, Source Sans Pro" style="isolation: isolate"><tspan x="0" y="0">Azure</tspan></text>
                    </g>
                  </g>
                  <path id="Icon_simple-microsoftazure" data-name="Icon simple-microsoftazure" d="M1069.46,361.816h20.473L1078.9,342.705l-3.359,9.227L1082,359.6Zm8.565-20.564-7.877,6.608-6.75,11.693h6.087v.016Z" transform="translate(-1061.158 -341.252)" fill="#999"/>
                </g>
                <g id="AWS" transform="translate(13.32 156.569)">
                  <path id="Icon_simple-amazonaws" data-name="Icon simple-amazonaws" d="M947.035,536.532a3.217,3.217,0,0,0,.119.957,5.79,5.79,0,0,0,.345.776.464.464,0,0,1,.076.249.43.43,0,0,1-.205.323l-.678.451a.517.517,0,0,1-.28.1.491.491,0,0,1-.322-.151,3.291,3.291,0,0,1-.387-.5c-.12-.207-.231-.415-.332-.635a3.975,3.975,0,0,1-3.161,1.483,2.949,2.949,0,0,1-2.15-.773,3.036,3.036,0,0,1,.184-4.28,3.911,3.911,0,0,1,2.631-.841,8.289,8.289,0,0,1,1.139.083c.4.054.808.14,1.237.237v-.786a2.375,2.375,0,0,0-.5-1.721,2.464,2.464,0,0,0-1.751-.5,4.857,4.857,0,0,0-1.162.143,8.342,8.342,0,0,0-1.163.366,3.291,3.291,0,0,1-.377.14.7.7,0,0,1-.171.031c-.151,0-.227-.108-.227-.332v-.524a.674.674,0,0,1,.076-.377.792.792,0,0,1,.3-.225,6.1,6.1,0,0,1,1.354-.485,6.5,6.5,0,0,1,1.678-.2,3.925,3.925,0,0,1,2.817.872,3.554,3.554,0,0,1,.9,2.647v3.488Zm-4.364,1.636a3.512,3.512,0,0,0,1.107-.194,2.4,2.4,0,0,0,1.021-.687,1.715,1.715,0,0,0,.366-.69,3.937,3.937,0,0,0,.108-.935v-.451a8.921,8.921,0,0,0-.99-.184,8.076,8.076,0,0,0-1.011-.066,2.476,2.476,0,0,0-1.6.431,1.537,1.537,0,0,0,1,2.773Zm8.636,1.163a.6.6,0,0,1-.409-.108.879.879,0,0,1-.227-.415l-2.527-8.318a1.876,1.876,0,0,1-.1-.431.236.236,0,0,1,.2-.268.232.232,0,0,1,.058,0h1.055a.6.6,0,0,1,.415.108.852.852,0,0,1,.216.42l1.808,7.118,1.677-7.118a.766.766,0,0,1,.2-.42.738.738,0,0,1,.432-.108h.859a.661.661,0,0,1,.431.108.728.728,0,0,1,.2.42l1.7,7.2,1.86-7.2a.922.922,0,0,1,.216-.42.7.7,0,0,1,.415-.108h1a.241.241,0,0,1,.269.208.36.36,0,0,1,0,.061,1.105,1.105,0,0,1-.023.173,1.589,1.589,0,0,1-.076.269l-2.591,8.311a.82.82,0,0,1-.227.415.693.693,0,0,1-.409.108h-.913a.652.652,0,0,1-.431-.108.775.775,0,0,1-.2-.431l-1.667-6.931-1.661,6.924a.851.851,0,0,1-.2.431.669.669,0,0,1-.431.108Zm13.816.29a7.213,7.213,0,0,1-1.656-.193A4.936,4.936,0,0,1,962.23,539a.615.615,0,0,1-.4-.6v-.548c0-.225.083-.332.249-.332a.6.6,0,0,1,.194.032c.065.022.166.065.269.108a5.889,5.889,0,0,0,1.182.376,6.492,6.492,0,0,0,1.28.13,2.906,2.906,0,0,0,1.57-.355,1.165,1.165,0,0,0,.559-1.021,1.044,1.044,0,0,0-.29-.753,2.723,2.723,0,0,0-1.087-.559l-1.558-.485a3.271,3.271,0,0,1-1.721-1.1,2.559,2.559,0,0,1-.539-1.56,2.4,2.4,0,0,1,.291-1.193,2.739,2.739,0,0,1,.771-.884,3.383,3.383,0,0,1,1.118-.559,4.679,4.679,0,0,1,1.355-.183,5.36,5.36,0,0,1,.721.043c.249.032.472.076.7.119a4.793,4.793,0,0,1,.613.171,2.312,2.312,0,0,1,.452.194.943.943,0,0,1,.323.269.588.588,0,0,1,.1.355v.5c0,.227-.083.344-.249.344a1.119,1.119,0,0,1-.409-.13,4.919,4.919,0,0,0-2.063-.415,2.767,2.767,0,0,0-1.431.3,1.035,1.035,0,0,0-.5.957,1.012,1.012,0,0,0,.323.764,3.183,3.183,0,0,0,1.182.593l1.528.482a3.276,3.276,0,0,1,1.667,1.033,2.435,2.435,0,0,1,.5,1.5,2.777,2.777,0,0,1-.279,1.246,2.914,2.914,0,0,1-.785.947,3.466,3.466,0,0,1-1.193.6,5.141,5.141,0,0,1-1.539.225Zm2.032,5.223a23.192,23.192,0,0,1-13.1,4,23.7,23.7,0,0,1-15.99-6.1c-.332-.3-.032-.71.366-.472a31.778,31.778,0,0,0,28.206,1.756c.585-.273,1.1.383.514.812Zm1.474-1.678c-.453-.581-2.989-.279-4.141-.139-.344.043-.4-.258-.083-.485,2.02-1.418,5.344-1.011,5.73-.537s-.108,3.807-2,5.4c-.29.249-.57.119-.44-.2.431-1.065,1.388-3.462.936-4.033Z" transform="translate(-937.925 -529.51)" fill="#999"/>
                </g>
                <g id="gcloud" transform="translate(458.91)">
                  <g id="Google_Cloud" data-name="Google Cloud" transform="translate(0 20.895)">
                    <g id="Google" style="isolation: isolate">
                      <text id="Google-2" data-name="Google" transform="translate(0 10)" fill="#999" font-size="10" font-family="SourceSansPro-Regular, Source Sans Pro" style="isolation: isolate"><tspan x="0" y="0">Google</tspan></text>
                    </g>
                    <g id="Cloud-2" transform="translate(3.051 14.947)" style="isolation: isolate">
                      <text id="Cloud-2-2" data-name="Cloud" transform="translate(0 10)" fill="#999" font-size="10" font-family="SourceSansPro-Regular, Source Sans Pro" style="isolation: isolate"><tspan x="0" y="0">Cloud</tspan></text>
                    </g>
                  </g>
                  <path id="Icon_simple-googlecloud" data-name="Icon simple-googlecloud" d="M1495.376,340.962a9,9,0,0,0-8.891,6.637c.051-.019-.053.012,0,0a6.451,6.451,0,0,0-.234,10.533l.006-.007-.007.029a6.473,6.473,0,0,0,3.926,1.305h4.982l.029.029h5a6.5,6.5,0,0,0,6.555-6.452h0a6.506,6.506,0,0,0-2.862-5.44,9.016,9.016,0,0,0-2.717-4.383l-.042.042.006-.048a9,9,0,0,0-5.745-2.247Zm-.344,3.992a5.144,5.144,0,0,1,3.356,1.107,4.994,4.994,0,0,1,1.793,3.927v.5a2.5,2.5,0,1,1,0,5h-5l-.007.008v-.038h-5a2.487,2.487,0,0,1-1.027-.222h0a2.5,2.5,0,1,1,3.309-3.309l2.9-2.9a6.5,6.5,0,0,0-3.911-2.421c.018-.01.038-.025.052-.022a4.992,4.992,0,0,1,3.534-1.628Z" transform="translate(-1476.081 -340.959)" fill="#999"/>
                </g>
                <g id="others" transform="translate(0 67.947)">
                  <g id="Ionic_Logo" data-name="Ionic Logo" transform="translate(508.702 332.157)">
                    <path id="Path_8101" data-name="Path 8101" d="M1544.852,828.9a4.245,4.245,0,0,0-4.245,4.245h0a4.244,4.244,0,0,0,4.244,4.245h0a4.245,4.245,0,0,0,4.245-4.245h0a4.245,4.245,0,0,0-4.245-4.245Z" transform="translate(-1535.535 -823.829)" fill="#999"/>
                    <ellipse id="Ellipse_105" data-name="Ellipse 105" cx="1.934" cy="1.934" rx="1.934" ry="1.934" transform="translate(13.477 1.583)" fill="#999"/>
                    <path id="Path_8102" data-name="Path 8102" d="M1552.292,828.254l-.083-.178-.127.147a2.921,2.921,0,0,1-1.167.8l-.127.046.051.127a7.615,7.615,0,0,1-4.106,9.954h0a7.614,7.614,0,1,1,.341-13.908l.119.057.052-.127a2.9,2.9,0,0,1,.859-1.127l.152-.127-.174-.09a9.193,9.193,0,0,0-4.27-1.038,9.313,9.313,0,0,0-9.313,9.314h0a9.314,9.314,0,1,0,17.788-3.866Z" transform="translate(-1534.499 -822.793)" fill="#999"/>
                    <rect id="Rectangle_336" data-name="Rectangle 336" width="1.964" height="8.109" transform="translate(23.423 5.264)" fill="#999"/>
                    <rect id="Rectangle_337" data-name="Rectangle 337" width="1.964" height="8.109" transform="translate(44.618 5.264)" fill="#999"/>
                    <path id="Path_8103" data-name="Path 8103" d="M1581.862,828.9a4.281,4.281,0,0,0-2.693,1.062h0l-.127-.872h-1.631V837.2h1.964v-4.91c0-.958,1.308-1.751,2.265-1.751a1.852,1.852,0,0,1,1.675,2V837.2h1.964v-4.462C1585.269,830.615,1584.351,828.9,1581.862,828.9Z" transform="translate(-1541.778 -823.829)" fill="#999"/>
                    <path id="Path_8104" data-name="Path 8104" d="M1595.938,835.729a2.584,2.584,0,0,1,0-5.162,2.688,2.688,0,0,1,2.028,1.221l1.423-.952a4.34,4.34,0,0,0-1.535-1.407A3.62,3.62,0,0,0,1596,828.9a4.246,4.246,0,1,0-.168,8.49H1596a3.631,3.631,0,0,0,1.848-.526,4.349,4.349,0,0,0,1.536-1.407l-1.423-.952A2.67,2.67,0,0,1,1595.938,835.729Z" transform="translate(-1544.196 -823.829)" fill="#999"/>
                    <path id="Path_8403" data-name="Path 8403" d="M1570.514,828.911h-.141a4.243,4.243,0,1,0,4.243,4.26A4.183,4.183,0,0,0,1570.514,828.911Zm-.108,6.5a2.416,2.416,0,0,1-2.425-2.406V833a2.425,2.425,0,0,1,2.417-2.425h.008a2.421,2.421,0,0,1,.007,4.841Z" transform="translate(-1539.863 -823.831)" fill="#999"/>
                  </g>
                  <g id="apple" transform="translate(173.384 424.018)">
                    <path id="Icon_awesome-apple" data-name="Icon awesome-apple" d="M1144.89,944.1a4.211,4.211,0,0,1,2.253-3.827,4.848,4.848,0,0,0-3.82-2.013c-1.6-.126-3.354.934-3.994.934-.677,0-2.229-.889-3.448-.889-2.522.041-5.195,2.008-5.195,6.012a11.241,11.241,0,0,0,.65,3.665c.581,1.656,2.663,5.719,4.839,5.646,1.137-.027,1.94-.808,3.421-.808,1.435,0,2.18.808,3.448.808,2.194-.032,4.081-3.723,4.631-5.385a4.475,4.475,0,0,1-2.785-4.152Zm-2.555-7.411a4.25,4.25,0,0,0,1.08-3.272,4.784,4.784,0,0,0-3.065,1.578,4.315,4.315,0,0,0-1.155,3.245,3.793,3.793,0,0,0,3.138-1.55Z" transform="translate(-1130.685 -933.418)" fill="#999"/>
                    <g id="Ios" transform="translate(0.843 22.282)" style="isolation: isolate">
                      <text id="Ios-2" data-name="Ios" transform="translate(0 10)" fill="#999" font-size="10" font-family="SourceSansPro-Regular, Source Sans Pro" style="isolation: isolate"><tspan x="0" y="0">Ios</tspan></text>
                    </g>
                  </g>
                  <g id="swift" transform="translate(43.027 320.822)">
                    <path id="Icon_simple-swift" data-name="Icon simple-swift" d="M998.4,823.613c.054-.108.054-.216.108-.324,1.3-5.079-1.782-11.015-7.077-14.147a12.414,12.414,0,0,1,2.431,10.205,5.337,5.337,0,0,1-.27.864,4.965,4.965,0,0,1-.433-.27,66.034,66.034,0,0,1-10.849-8.909,65.123,65.123,0,0,0,6.587,8.258,71.652,71.652,0,0,1-9.4-7.125,12.445,12.445,0,0,0,1.3,1.782,55.437,55.437,0,0,0,9.612,10.043c-2.754,1.676-6.588,1.782-10.476,0a15.548,15.548,0,0,1-2.7-1.619,15.939,15.939,0,0,0,7.182,6.1,11.388,11.388,0,0,0,9.935,0h.055a1.117,1.117,0,0,0,.324-.216c1.3-.648,3.834-1.35,5.238,1.35C1000.343,830.362,1001.046,826.853,998.4,823.613Z" transform="translate(-974.3 -809.142)" fill="#999"/>
                    <g id="Swift-2" transform="translate(0 23.342)" style="isolation: isolate">
                      <text id="Swift-2-2" data-name="Swift" transform="translate(0 10)" fill="#999" font-size="10" font-family="SourceSansPro-Regular, Source Sans Pro" style="isolation: isolate"><tspan x="0" y="0">Swift</tspan></text>
                    </g>
                  </g>
                  <g id="php" transform="translate(0 214.395)">
                    <path id="Icon_simple-php" data-name="Icon simple-php" d="M932.563,687.859h-1.439l-.785,4.034h1.276a3.094,3.094,0,0,0,1.893-.482,2.544,2.544,0,0,0,.838-1.6,1.746,1.746,0,0,0-.189-1.515,2.149,2.149,0,0,0-1.595-.442Zm7.6-6.884c-10.095,0-18.28,4.3-18.28,9.615s8.185,9.617,18.28,9.617,18.279-4.306,18.279-9.617S950.259,680.975,940.164,680.975Zm-4.966,11.35a3.708,3.708,0,0,1-1.4.839,6.522,6.522,0,0,1-1.957.249h-1.8l-.5,2.561h-2.1l1.873-9.632h4.037a3.348,3.348,0,0,1,2.657.957,2.989,2.989,0,0,1,.5,2.669A4.2,4.2,0,0,1,935.2,692.325Zm6.13,1.089.83-4.264a1.15,1.15,0,0,0-.1-.992,1.464,1.464,0,0,0-1.046-.265h-1.661l-1.072,5.522H936.19l1.873-9.638h2.083l-.5,2.563H941.5a3.609,3.609,0,0,1,2.416.611,2.021,2.021,0,0,1,.4,1.979l-.871,4.484Zm11.573-3.45a4.256,4.256,0,0,1-.465,1.29,4.365,4.365,0,0,1-.854,1.071,3.737,3.737,0,0,1-1.4.84,6.541,6.541,0,0,1-1.959.249h-1.8l-.5,2.563h-2.1l1.873-9.632h4.036a3.351,3.351,0,0,1,2.657.957A2.992,2.992,0,0,1,952.9,689.964Zm-3.953-2.1h-1.437l-.786,4.034H948a3.091,3.091,0,0,0,1.892-.478,2.552,2.552,0,0,0,.84-1.6,1.747,1.747,0,0,0-.19-1.516,2.146,2.146,0,0,0-1.6-.442Z" transform="translate(-921.884 -680.975)" fill="#999"/>
                  </g>
                  <g id="android" transform="translate(406.733 416.613)">
                    <path id="Icon_awesome-android" data-name="Icon awesome-android" d="M1425.671,934.588v6.761a1.6,1.6,0,0,1-1.583,1.618h-.023a1.744,1.744,0,0,1-1.757-1.618v-6.761a1.743,1.743,0,0,1,1.757-1.606A1.612,1.612,0,0,1,1425.671,934.588Zm.63,9.167a1.724,1.724,0,0,0,1.721,1.729h1.171l.017,3.571a1.611,1.611,0,0,0,1.645,1.578h0a1.611,1.611,0,0,0,1.577-1.578v-3.571h2.172v3.571a1.62,1.62,0,0,0,3.239,0v-3.571h1.179a1.723,1.723,0,0,0,1.716-1.728h0V933.277H1426.3Zm14.483-11.044h-14.547a6.558,6.558,0,0,1,3.713-5.8l-1.115-2.061a.225.225,0,0,1,.07-.311h0a.224.224,0,0,1,.31.07h0l.01.018,1.133,2.076a7.888,7.888,0,0,1,6.323,0l1.127-2.076a.223.223,0,0,1,.3-.1h0a.226.226,0,0,1,.1.3h0l-.011.018-1.115,2.061a6.578,6.578,0,0,1,3.7,5.807Zm-9.964-3.238a.613.613,0,0,0-.613-.613h0a.613.613,0,0,0-.59.636h0a.6.6,0,1,0,1.2-.025Zm6.62,0a.6.6,0,0,0-.613-.6h0a.6.6,0,1,0,.017,1.209h0a.61.61,0,0,0,.591-.614Zm5.535,3.509a1.6,1.6,0,0,0-1.61,1.592h0v6.773a1.611,1.611,0,0,0,1.6,1.618h0a1.745,1.745,0,0,0,1.757-1.618v-6.761a1.728,1.728,0,0,0-1.757-1.606Z" transform="translate(-1413.5 -924.501)" fill="#999"/>
                    <g id="Android-2" transform="translate(0 28.026)" style="isolation: isolate">
                      <text id="Android-2-2" data-name="Android" transform="translate(0 10)" fill="#999" font-size="10" font-family="SourceSansPro-Regular, Source Sans Pro" style="isolation: isolate"><tspan x="0" y="0">Android</tspan></text>
                    </g>
                  </g>
                  <g id="laravel" transform="translate(564.19 187.104)">
                    <g id="Group_953" data-name="Group 953" transform="translate(7.863)">
                      <path id="Path_8351" data-name="Path 8351" d="M1610.791,651.49a.686.686,0,0,1,.371-.392q2.516-1.445,5.026-2.9a.544.544,0,0,1,.606,0q2.56,1.482,5.126,2.953a.52.52,0,0,1,.272.5v11.181c.121-.068.22-.122.317-.178l3.971-2.284a.194.194,0,0,0,.111-.2V654.63a.524.524,0,0,1,.288-.5q2.573-1.475,5.136-2.956a.5.5,0,0,1,.546,0q2.573,1.485,5.148,2.963a.509.509,0,0,1,.278.483v5.865a.517.517,0,0,1-.285.489q-2.439,1.395-4.871,2.8a.187.187,0,0,0-.11.186q0,2.773,0,5.545a.54.54,0,0,1-.3.517q-5.179,2.976-10.352,5.96a.567.567,0,0,1-.627,0q-5.187-2.99-10.38-5.979a.615.615,0,0,1-.271-.332Zm10.534,23.417v-4.912a.226.226,0,0,0-.134-.231c-1.6-.9-3.193-1.808-4.794-2.705a.6.6,0,0,1-.341-.581q.01-5.751.007-11.5a.2.2,0,0,0-.112-.2q-2.085-1.2-4.169-2.4c-.035-.02-.071-.037-.127-.066v16.857a.247.247,0,0,0,.141.249q4.27,2.452,8.536,4.912Zm.864,0,.137-.074,9.422-5.421a.188.188,0,0,0,.109-.187v-4.888c-.057.029-.092.047-.128.066l-9.433,5.382a.186.186,0,0,0-.107.188V674.9Zm-5.265-9.044c.05-.025.083-.039.115-.057l4.178-2.4a.188.188,0,0,0,.11-.187V652.445c0-.04,0-.083-.008-.134l-.1.055-4.179,2.4a.191.191,0,0,0-.113.2v10.747Zm.449.753c.043.027.075.047.107.066l4.184,2.372a.173.173,0,0,0,.195-.009q4.671-2.669,9.343-5.334c.065-.037.129-.077.207-.123l-.118-.072-4.157-2.4a.194.194,0,0,0-.225,0q-4.711,2.715-9.422,5.427a.744.744,0,0,0-.114.069Zm-5.275-15.051.11.069q2.089,1.2,4.177,2.408a.187.187,0,0,0,.216,0q2.083-1.2,4.166-2.4c.034-.02.068-.042.115-.071l-.11-.071q-2.093-1.206-4.186-2.408a.166.166,0,0,0-.2.007q-2.053,1.185-4.108,2.367Zm15.792,2.978.117.074,4.167,2.4a.186.186,0,0,0,.215,0q2.058-1.191,4.116-2.374c.052-.03.1-.061.166-.1l-.116-.072q-2.093-1.206-4.186-2.408a.151.151,0,0,0-.175,0q-1.959,1.131-3.92,2.259Zm3.956,8.285c0-.051.008-.088.008-.124v-4.773a.168.168,0,0,0-.093-.162q-2.09-1.2-4.178-2.4c-.038-.021-.077-.041-.13-.069,0,.054-.008.091-.008.127v4.769a.166.166,0,0,0,.091.166q2.1,1.206,4.2,2.415c.032.014.066.028.112.051Zm5.266-7.527c-.048.025-.076.037-.1.052q-2.1,1.208-4.2,2.415a.174.174,0,0,0-.1.179v4.888c.054-.028.09-.047.125-.066q2.082-1.2,4.168-2.4a.188.188,0,0,0,.106-.189V655.3Z" transform="translate(-1610.791 -648.11)" fill="#999"/>
                    </g>
                    <g id="Laravel-2" transform="translate(0 28.082)">
                      <g id="Laravel-2-2" style="isolation: isolate">
                        <text id="Laravel-2-2" data-name="Laravel" transform="translate(0 10)" fill="#999" font-size="10" font-family="SourceSansPro-Regular, Source Sans Pro" style="isolation: isolate"><tspan x="0" y="0">Laravel</tspan></text>
                      </g>
                    </g>
                  </g>
                  <g id="github" transform="translate(555.58 82.237)">
                    <path id="Icon_awesome-github" data-name="Icon awesome-github" d="M1605.307,539.4c0,.091-.1.166-.235.166-.149.013-.249-.059-.249-.166,0-.09.1-.166.235-.166S1605.307,539.293,1605.307,539.4Zm-1.4-.2c-.031.091.059.194.194.221a.212.212,0,0,0,.28-.091c.028-.09-.059-.194-.194-.235a.232.232,0,0,0-.281.105Zm1.993-.076c-.131.032-.221.117-.208.221s.131.149.267.117.221-.117.208-.208-.135-.144-.265-.13Zm2.971-17.3a10.823,10.823,0,0,0-11.048,10.593v.419a11.317,11.317,0,0,0,7.65,10.795c.581.1.781-.249.781-.546,0-.28-.013-1.827-.013-2.771,0,0-3.156.677-3.82-1.345,0,0-.515-1.314-1.255-1.652,0,0-1.034-.708.072-.7a2.383,2.383,0,0,1,1.744,1.163,2.386,2.386,0,0,0,3.229.977l.06-.033a2.5,2.5,0,0,1,.723-1.521c-2.523-.28-5.065-.645-5.065-4.987a3.419,3.419,0,0,1,1.065-2.657,4.269,4.269,0,0,1,.109-3.062c.947-.294,3.114,1.218,3.114,1.218a10.663,10.663,0,0,1,5.669,0s2.171-1.516,3.114-1.219a4.261,4.261,0,0,1,.117,3.065,3.507,3.507,0,0,1,1.163,2.657c0,4.355-2.657,4.7-5.181,4.987a2.668,2.668,0,0,1,.767,2.094c0,1.521-.013,3.4-.013,3.773,0,.293.208.65.781.546a11.211,11.211,0,0,0,7.576-10.786,11.068,11.068,0,0,0-11.119-11.016h0c-.074,0-.148,0-.22,0Zm-6.662,15.567c-.059.045-.045.149.031.235s.176.1.235.045.045-.149-.032-.235S1602.265,537.332,1602.206,537.391Zm-.488-.365c-.031.059.013.131.1.176a.134.134,0,0,0,.188-.023h0l.005-.008c.031-.059-.013-.131-.1-.176-.09-.026-.166-.014-.191.031Zm1.462,1.6c-.072.059-.045.194.059.28.1.1.235.117.293.045s.032-.194-.059-.28-.234-.114-.293-.045Zm-.515-.664c-.072.045-.072.166,0,.267s.194.149.249.1a.206.206,0,0,0,0-.28c-.059-.1-.176-.144-.249-.083Z" transform="translate(-1592.118 -521.821)" fill="#999"/>
                    <g id="GitHub_" data-name="GitHub " transform="translate(0 22.869)">
                      <g id="GitHub-2" style="isolation: isolate">
                        <text id="GitHub-2-2" data-name="GitHub" transform="translate(0 10)" fill="#999" font-size="10" font-family="SourceSansPro-Regular, Source Sans Pro" style="isolation: isolate"><tspan x="0" y="0">GitHub</tspan></text>
                      </g>
                    </g>
                  </g>
                  <g id="node.js" transform="translate(42.867)">
                    <g id="Icon_ionic-logo-nodejs" data-name="Icon ionic-logo-nodejs" transform="translate(10.263)">
                      <path id="Path_8436" data-name="Path 8436" d="M997.072,448.943a1.9,1.9,0,0,1-.972-.268l-3.093-1.891c-.462-.267-.235-.362-.083-.415a6.725,6.725,0,0,0,1.454-.722.233.233,0,0,1,.231.019l2.318,1.373a.3.3,0,0,0,.288,0l9.062-5.387a.308.308,0,0,0,.141-.259V430.485a.315.315,0,0,0-.143-.264l-9.057-5.525a.28.28,0,0,0-.286,0l-9.051,5.527a.307.307,0,0,0-.147.262v10.907a.3.3,0,0,0,.145.257l2.332,1.4c1.378.712,2.195-.01,2.195-.853V431.469a.27.27,0,0,1,.265-.276H994a.272.272,0,0,1,.268.275h0v10.725a2.71,2.71,0,0,1-2.409,2.98,2.775,2.775,0,0,1-.463.009,3.864,3.864,0,0,1-2.134-.6l-2.428-1.446a2.038,2.038,0,0,1-.97-1.745V430.329a2.03,2.03,0,0,1,.973-1.744l9.264-5.542a1.966,1.966,0,0,1,1.946,0l9.263,5.539a2.037,2.037,0,0,1,.973,1.744v11.066a2.044,2.044,0,0,1-.973,1.749l-9.263,5.533a1.9,1.9,0,0,1-.975.27Z" transform="translate(-985.867 -422.785)" fill="#999"/>
                      <path id="Path_8437" data-name="Path 8437" d="M1001.806,443.091c-3.772,0-4.9-1.846-4.9-3.46a.27.27,0,0,1,.264-.277h1.2a.27.27,0,0,1,.266.234c.18,1.261.978,1.819,3.172,1.819,1.95,0,2.749-.6,2.749-1.675,0-.619-.2-1.079-3.239-1.383-2.535-.259-4.1-.84-4.1-2.936,0-1.935,1.578-3.065,4.218-3.065,2.693,0,4.464.817,4.623,2.968a.3.3,0,0,1-.072.213.265.265,0,0,1-.193.09h-1.2a.268.268,0,0,1-.261-.217c-.257-.99-.991-1.366-2.894-1.366-2.13,0-2.379.747-2.379,1.32,0,.7.294.9,3.17,1.295,2.847.389,4.2.941,4.2,3.01,0,2.089-1.682,3.432-4.617,3.432Z" transform="translate(-987.739 -424.408)" fill="#999"/>
                    </g>
                    <g id="Node.js-2" transform="translate(0 28.711)" style="isolation: isolate">
                      <text id="Node.js-2-2" data-name="Node.js" transform="translate(0 10)" fill="#999" font-size="10" font-family="SourceSansPro-Regular, Source Sans Pro" style="isolation: isolate"><tspan x="0" y="0">Node.js</tspan></text>
                    </g>
                  </g>
                  <g id="python" transform="translate(521.165 2.315)">
                    <g id="Icon_ionic-logo-python" data-name="Icon ionic-logo-python" transform="translate(5.648)">
                      <path id="Path_8438" data-name="Path 8438" d="M1563.865,436.379a3.77,3.77,0,0,1,.677-.061h5.883a2.829,2.829,0,0,0,.754-.1,2.628,2.628,0,0,0,1.947-2.549v-5.094a3,3,0,0,0-2.7-2.779,21.993,21.993,0,0,0-3.22-.219,15.577,15.577,0,0,0-2.585.219c-2.289.4-2.706,1.236-2.706,2.779v1.672h5.6v.934h-7.425c-2.08,0-3.768,2.485-3.784,5.564v.044a8.1,8.1,0,0,0,.157,1.6c.465,2.316,1.91,4,3.628,4h.886v-2.685A3.452,3.452,0,0,1,1563.865,436.379Zm.6-7.126a1.02,1.02,0,1,1,1.016-1.024v.007a1.017,1.017,0,0,1-1.015,1.016Z" transform="translate(-1556.309 -425.574)" fill="#999"/>
                      <path id="Path_8439" data-name="Path 8439" d="M1579.637,435.976c-.536-2.132-1.922-3.654-3.548-3.654h-.886V434.7a3.55,3.55,0,0,1-2.89,3.66,3.169,3.169,0,0,1-.485.037h-6.062a2.985,2.985,0,0,0-.762.1,2.506,2.506,0,0,0-1.946,2.426v5.093c0,1.45,1.458,2.3,2.889,2.718a9.9,9.9,0,0,0,5.627,0c1.36-.389,2.694-1.175,2.694-2.718v-1.543h-5.6v-.934h7.425c1.474,0,2.75-1.246,3.375-3.068a7.863,7.863,0,0,0,.409-2.537A8.067,8.067,0,0,0,1579.637,435.976Zm-7.945,9.358a1.02,1.02,0,1,1-1.016,1.024v-.008A1.015,1.015,0,0,1,1571.691,445.333Z" transform="translate(-1557.454 -426.718)" fill="#999"/>
                    </g>
                    <g id="Python-2" transform="translate(0 26.395)" style="isolation: isolate">
                      <text id="Python-2-2" data-name="Python" transform="translate(0 10)" fill="#999" font-size="10" font-family="SourceSansPro-Regular, Source Sans Pro" style="isolation: isolate"><tspan x="0" y="0">Python</tspan></text>
                    </g>
                  </g>
                </g>
                <g id="bhoomi" transform="translate(273.248 521.255)">
                  <ellipse id="Ellipse_115" data-name="Ellipse 115" cx="1.449" cy="1.449" rx="1.449" ry="1.449" transform="translate(61.277 1.593)" fill="#999"/>
                  <path id="Path_8440" data-name="Path 8440" d="M1273.853,976.471a5.823,5.823,0,1,1-.225,0C1273.7,976.468,1273.778,976.469,1273.853,976.471Zm0,9.591a3.7,3.7,0,1,0-3.674-3.728v.023a3.594,3.594,0,0,0,3.481,3.7C1273.724,986.063,1273.789,986.064,1273.853,986.062Z" transform="translate(-1253.816 -970.011)" fill="#999"/>
                  <path id="Path_8441" data-name="Path 8441" d="M1289.97,976.471a5.823,5.823,0,1,1-.223,0C1289.821,976.468,1289.895,976.469,1289.97,976.471Zm0,9.591a3.7,3.7,0,1,0-3.672-3.72v.026a3.594,3.594,0,0,0,3.494,3.694C1289.851,986.063,1289.91,986.063,1289.97,986.062Z" transform="translate(-1256.55 -970.011)" fill="#999"/>
                  <path id="Path_8442" data-name="Path 8442" d="M1325.084,987.752V976.728a.254.254,0,0,1,.249-.257h1.822a.255.255,0,0,1,.257.249v11.027a.254.254,0,0,1-.254.254h-1.822a.254.254,0,0,1-.254-.254Z" transform="translate(-1263.523 -970.012)" fill="#999"/>
                  <path id="Path_8443" data-name="Path 8443" d="M1314.062,976.394a4.671,4.671,0,0,0-4.036,2.107,4.292,4.292,0,0,0-4.026-2.107,3.948,3.948,0,0,0-3.423,1.668v-1.8a.256.256,0,0,0-.384-.221l-1.891,1.093a.134.134,0,0,0-.069.117V987.68a.254.254,0,0,0,.254.254h1.833a.255.255,0,0,0,.257-.249v-6.122a2.865,2.865,0,0,1,3.058-2.954c1.682,0,2.671,1.08,2.671,2.954v6.111a.254.254,0,0,0,.254.254h1.827a.25.25,0,0,0,.254-.244v-6.264a2.863,2.863,0,0,1,2.908-2.819c.051,0,.1,0,.153.007,1.647,0,2.657,1.079,2.657,2.954v6.113a.254.254,0,0,0,.254.254h1.833a.254.254,0,0,0,.254-.254h0v-6.607A4.311,4.311,0,0,0,1314.062,976.394Z" transform="translate(-1259.309 -969.934)" fill="#999"/>
                  <path id="Path_8444" data-name="Path 8444" d="M1257.446,975.152a6.044,6.044,0,0,0-4.172,1.589v-7.8a.254.254,0,0,0-.378-.221l-1.877,1.084a.134.134,0,0,0-.071.119v16.5a.254.254,0,0,0,.254.254h1.827a.254.254,0,0,0,.254-.254h0v-1.1a6.046,6.046,0,0,0,4.17,1.587,5.886,5.886,0,0,0,.189-11.77C1257.577,975.151,1257.511,975.151,1257.446,975.152Zm0,9.591a3.61,3.61,0,0,1-3.675-3.544c0-.054,0-.107,0-.161a3.6,3.6,0,0,1,3.506-3.7c.055,0,.11,0,.165,0a3.6,3.6,0,0,1,3.674,3.534c0,.054,0,.108,0,.163a3.6,3.6,0,0,1-3.5,3.7C1257.56,984.744,1257.5,984.744,1257.446,984.743Z" transform="translate(-1250.949 -968.692)" fill="#999"/>
                </g>
              </g>
            </g>
          </g>
        </g>
      </g>
    </g>
  </g>
</svg>
