<svg id="Component_33_1" data-name="Component 33 – 1" xmlns="http://www.w3.org/2000/svg" xmlns:xlink="http://www.w3.org/1999/xlink" width="600" height="600" viewBox="0 0 600 600">
  <defs>
    <clipPath id="clip-path">
      <rect id="Rectangle_641" data-name="Rectangle 641" width="600" height="600"/>
    </clipPath>
  </defs>
  <g id="Custom_Size_1" data-name="Custom Size – 1" clip-path="url(#clip-path)">
    <g id="Group_1" data-name="Group 1" transform="translate(16.748 16.4)">
      <g id="Component_148_1" data-name="Component 148 – 1" transform="translate(-16 -9)">
        <g id="circle">
          <path id="Path_8404" data-name="Path 8404" d="M1035.877,648.231" transform="translate(-941.22 -345.774)" fill="none" stroke="#627783" stroke-linecap="round" stroke-width="2"/>
          <g id="circle-2" data-name="circle">
            <g id="ellipse1" transform="translate(168.454 161.743)">
              <path id="Ellipse_114" data-name="Ellipse 114" d="M1211.24,726.039a135.05,135.05,0,0,1-8.094-122.522" transform="translate(-1192.169 -522.098)" fill="none" stroke="#f5c113" stroke-linecap="round" stroke-width="1"/>
              <path id="Ellipse_114-2" data-name="Ellipse 114" d="M1386.862,717.572a134.88,134.88,0,0,1-147.37,8.018" transform="translate(-1172.278 -474.157)" fill="none" stroke="#f5c113" stroke-linecap="round" stroke-width="1"/>
              <path id="Ellipse_114-3" data-name="Ellipse 114" d="M1370.808,596.413a135.121,135.121,0,0,1,6.064,113.948" transform="translate(-1117.081 -525.084)" fill="none" stroke="#f5c113" stroke-linecap="round" stroke-width="1"/>
              <path id="Ellipse_114-4" data-name="Ellipse 114" d="M1244.792,560.271a135.09,135.09,0,0,1,117.892-1.067" transform="translate(-1170.05 -546.193)" fill="none" stroke="#f5c113" stroke-linecap="round" stroke-width="1"/>
              <g id="salesforcelogo" transform="translate(57.437 72.848)">
                <g id="SF-logo" transform="translate(9.555 7.53)">
                  <g id="Component_79_1" data-name="Component 79 1">
                    <circle id="Ellipse_98" data-name="Ellipse 98" cx="29.648" cy="29.648" r="29.648" transform="translate(9.884 0)" fill="#fff"/>
                    <circle id="Ellipse_99" data-name="Ellipse 99" cx="26.353" cy="26.353" r="26.353" transform="translate(56 4.393)" fill="#fff"/>
                    <circle id="Ellipse_100" data-name="Ellipse 100" cx="32.941" cy="32.941" r="32.941" transform="translate(87.846 15.373)" fill="#fff"/>
                    <circle id="Ellipse_101" data-name="Ellipse 101" cx="26.353" cy="26.353" r="26.353" transform="translate(65.884 40.628)" fill="#fff"/>
                    <circle id="Ellipse_102" data-name="Ellipse 102" cx="28.55" cy="28.55" r="28.55" transform="translate(27.452 50.51)" fill="#fff"/>
                    <circle id="Ellipse_103" data-name="Ellipse 103" cx="26.353" cy="26.353" r="26.353" transform="translate(0 38.432)" fill="#fff"/>
                    <circle id="Ellipse_104" data-name="Ellipse 104" cx="26.353" cy="26.353" r="26.353" transform="translate(31.843 29.648)" fill="#fff"/>
                  </g>
                </g>
                <path id="Icon_awesome-salesforce" data-name="Icon awesome-salesforce" d="M1306.052,665.383H1298.9a3.822,3.822,0,0,1,3.7-3.836c1.832,0,3.248,1.037,3.45,3.836Zm37.094-3.768c-.128,0-3.836-.48-3.836,5.435s3.693,5.435,3.836,5.435c3.528,0,3.837-3.677,3.837-5.435C1346.983,661.136,1343.269,661.615,1343.146,661.615Zm-66.019,6.448a2.341,2.341,0,0,0-.893,1.979,2.029,2.029,0,0,0,.893,1.907c1.279,1,4.091.576,5.681.259v-4.594c-1.438-.284-4.544-.532-5.681.448Zm135.076-6.384c0,23.772-21.716,41.9-44.885,37.031-4.986,8.952-19.2,19.2-35.882,11.307-11.172,26.065-48.288,25.014-58.038-1.41-32.5,6.485-48.537-37.557-20.426-54.091a33.753,33.753,0,0,1,17.626-44.361h0a33.753,33.753,0,0,1,40.153,10.456,30.5,30.5,0,0,1,43.117-1.01h0a30.5,30.5,0,0,1,5.723,7.464,37.545,37.545,0,0,1,52.622,34.608Zm-141.024,8.632c0-3.2-3.173-4.119-4.85-4.661-1.432-.568-3.64-.959-3.64-2.427,0-2.569,4.615-1.808,6.832-.575,0,0,.32.194.444-.128.066-.19.64-1.786.7-1.979a.308.308,0,0,0-.19-.382c-3.347-2.078-11.047-2.31-11.047,3.448,0,3.383,3.125,4.191,4.853,4.66,1.279.425,3.576.813,3.576,2.363,0,1.085-.959,1.918-2.489,1.918a8.65,8.65,0,0,1-5.154-1.726c-.128-.062-.385-.194-.448.193l-.652,2.027c-.128.256.062.32.062.382a10.892,10.892,0,0,0,6.19,1.793c3.576,0,5.808-1.918,5.808-4.915Zm8.686-11.557a11.462,11.462,0,0,0-5.807,1.407.27.27,0,0,0-.069.377h0l.7,1.918a.272.272,0,0,0,.32.19,10.7,10.7,0,0,1,4.6-1.085,4,4,0,0,1,2.492.639c.977.759.831,2.251.831,2.877-1.3-.082-5.187-.933-7.983,1.021a4.586,4.586,0,0,0-1.989,3.947,4.426,4.426,0,0,0,1.785,3.9c3.322,2.214,9.849.542,10.342.382.427-.086.958-.179.958-.51v-9.2c.011-1.252.086-5.873-6.183-5.873Zm12.641-5.694a.3.3,0,0,0-.281-.32h-2.718a.3.3,0,0,0-.32.28V674.5a.3.3,0,0,0,.281.32h2.718a.3.3,0,0,0,.318-.28h0a.137.137,0,0,0,0-.038Zm15.134,7.852a5.849,5.849,0,0,0-4.8-2.044,6.852,6.852,0,0,0-5.625,2.43,9.343,9.343,0,0,0-1.78,5.808,8.382,8.382,0,0,0,1.919,5.745,7.864,7.864,0,0,0,6.18,2.238,9.541,9.541,0,0,0,5.043-1.022c.128-.065.193-.193.066-.51L1308,671.7a.338.338,0,0,0-.381-.19,9.758,9.758,0,0,1-4.156.766,4.167,4.167,0,0,1-4.592-3.691,4.1,4.1,0,0,1,0-.841h10.085a.336.336,0,0,0,.32-.256c-.078,0,.568-4-1.653-6.576Zm9.951,14.307c3.576,0,5.81-1.918,5.81-4.915,0-3.2-3.177-4.119-4.853-4.66-1.121-.451-3.64-.917-3.64-2.427,0-1.021.894-1.723,2.3-1.723a10.339,10.339,0,0,1,4.532,1.148s.319.193.448-.128c.062-.19.639-1.786.7-1.979a.307.307,0,0,0-.19-.382,10.358,10.358,0,0,0-5.491-1.341c-3.258,0-5.553,1.979-5.553,4.8,0,3.383,3.116,4.191,4.85,4.661,1.659.542,3.576.886,3.576,2.363,0,1.085-.959,1.918-2.489,1.918a8.639,8.639,0,0,1-5.157-1.723.271.271,0,0,0-.382.029h0a.259.259,0,0,0-.066.16l-.64,2.034c-.129.256.063.32.063.382a10.868,10.868,0,0,0,6.186,1.794Zm17.82-15.71c0-.193-.065-.32-.319-.32h-3.2a6.972,6.972,0,0,1,1.212-3.384c1.129-1.119,3.2-.444,3.258-.444.32.128.382,0,.444-.128l.768-2.11c.19-.255,0-.32-.065-.382a6.83,6.83,0,0,0-6.637,1.151,9.789,9.789,0,0,0-2.174,5.3h-2.3a.35.35,0,0,0-.319.32l-.392,2.107c0,.19.066.32.32.32h2.24c-2.31,13-2.377,13.629-2.811,15.071a3.11,3.11,0,0,1-1.6,2.1,3.946,3.946,0,0,1-2.618-.066s-.254-.128-.382.194c-.066.193-.7,1.846-.769,2.044s0,.382.128.382a7.861,7.861,0,0,0,4.853,0,5.5,5.5,0,0,0,3.127-3.517c.745-2.092.761-2.657,3.2-16.215h3.32a.35.35,0,0,0,.32-.32Zm14.491,4.346a7.206,7.206,0,0,0-9.121-4.542h0a7.2,7.2,0,0,0-4.542,4.542,11.677,11.677,0,0,0,0,6.384,7.2,7.2,0,0,0,13.656,0,11.579,11.579,0,0,0,.019-6.391Zm12.323-4.533c-1.357-.448-4.511-.516-6,1.469v-1.213a.3.3,0,0,0-.281-.32h-2.6a.3.3,0,0,0-.319.281v15.037a.3.3,0,0,0,.287.32h2.65a.306.306,0,0,0,.32-.288h0v-7.572c0-.79.015-3.087,1.21-4.086a3.981,3.981,0,0,1,3.64-.831.429.429,0,0,0,.382-.257,20.127,20.127,0,0,0,.831-2.172.322.322,0,0,0-.128-.382Zm12.7,14.684-.575-1.979c-.128-.32-.382-.193-.382-.193a8.859,8.859,0,0,1-3.064.513c-1.26,0-4.66-.307-4.66-5.363,0-1.691.5-5.363,4.476-5.363a9.43,9.43,0,0,1,3.125.448s.256.128.32-.194c.256-.7.444-1.213.7-2.044.062-.256-.128-.32-.194-.32a10.941,10.941,0,0,0-7.528,0,7.493,7.493,0,0,0-4.4,7.47c0,.787-.161,8.173,7.855,8.173a12.067,12.067,0,0,0,4.212-.769.352.352,0,0,0,.128-.385Zm14.622-10.728a5.958,5.958,0,0,0-6.075-4.4,6.713,6.713,0,0,0-6.96,5.045,10.467,10.467,0,0,0-.448,3.2c0,7.022,5.115,7.98,8.111,7.98a9.571,9.571,0,0,0,5.043-1.021c.128-.066.194-.193.065-.51l-.639-1.854a.34.34,0,0,0-.382-.19,9.782,9.782,0,0,1-4.156.766,4.158,4.158,0,0,1-4.588-3.677V668.6a4.013,4.013,0,0,1,0-.85h10.085a.345.345,0,0,0,.32-.256,13.739,13.739,0,0,0-.382-4.218Zm-6.329-1.728a3.814,3.814,0,0,0-3.7,3.836h7.158c-.238-3.235-2.068-3.836-3.456-3.836Z" transform="translate(-1238.484 -607.393)" fill="#0081c8"/>
              </g>
              <g id="salesforce" transform="translate(5.053 6.138)">
                <g id="LDS" transform="translate(220.085 186.721)">
                  <path id="Path_8092" data-name="Path 8092" d="M1363.4,671.864h14.82l-9.787,15.392h8.649l-22.544,29.094,10.028-25.951h-6.915Z" transform="translate(-1347.648 -671.864)" fill="#1181c8"/>
                  <g id="LDS-2" transform="translate(1.915 43.178)">
                    <g id="LDS-2-2" style="isolation: isolate">
                      <text id="LDS-2-2" data-name="LDS" transform="translate(0 13)" fill="#1181c8" font-size="13" font-family="SourceSansPro-Regular, Source Sans Pro" style="isolation: isolate"><tspan x="0" y="0">LDS</tspan></text>
                    </g>
                  </g>
                  <path id="Path_8398" data-name="Path 8398" d="M1356.577,706.875a16.909,16.909,0,0,1,4.1-30.237" transform="translate(-1348.942 -670.759)" fill="none" stroke="#477189" stroke-linecap="round" stroke-miterlimit="10" stroke-width="1"/>
                  <path id="Path_8399" data-name="Path 8399" d="M1378.3,684.466a16.913,16.913,0,0,1-15.625,23.363h0" transform="translate(-1345.766 -668.948)" fill="none" stroke="#477189" stroke-linecap="round" stroke-miterlimit="10" stroke-width="1"/>
                </g>
                <g id="mulesoft-vector-logo" transform="translate(190.169)">
                  <g id="Group_917" data-name="Group 917" transform="translate(14.19)">
                    <g id="Group_916" data-name="Group 916">
                      <path id="Path_8105" data-name="Path 8105" d="M1345.274,582.284a13.966,13.966,0,1,1,13.958-13.975h0a13.955,13.955,0,0,1-13.934,13.974h-.024Zm-.017-29.291a15.23,15.23,0,0,0-15.162,15.3h0a15.229,15.229,0,0,0,15.3,15.162h0a15.231,15.231,0,1,0-.134-30.462Z" transform="translate(-1330.095 -552.993)" fill="#1181c8"/>
                    </g>
                  </g>
                  <path id="Path_8106" data-name="Path 8106" d="M1340.69,574.041a6.989,6.989,0,0,1-3.906-6.37,7.148,7.148,0,0,1,1.2-4.009l5.025,7.5h3.046l5.025-7.5a7.238,7.238,0,0,1,1.2,4.009,7.044,7.044,0,0,1-3.448,6.126l.97,3.725a11.453,11.453,0,0,0,4.943-15.423h0a11.453,11.453,0,0,0-4.341-4.609l-5.851,9.017-5.787-9.052a11.444,11.444,0,0,0,.926,20.256l.985-3.666Z" transform="translate(-1315.21 -551.96)" fill="#1181c8"/>
                  <path id="Path_8107" data-name="Path 8107" d="M1324.285,589.169l-3.752-8.02h-1.962v12.873h1.962v-8.6l3.029,6.28h1.463l2.943-6.28v8.6h1.962V581.149h-1.962Z" transform="translate(-1318.571 -546.478)" fill="#1181c8"/>
                  <path id="Path_8108" data-name="Path 8108" d="M1334.8,589.746a1.826,1.826,0,0,1-1.586,2.035,1.954,1.954,0,0,1-.307.012c-1.033,0-1.847-.616-1.847-2.048v-5.593h-1.847v5.869a3.4,3.4,0,0,0,.93,2.6,3.238,3.238,0,0,0,2.255.826,3.277,3.277,0,0,0,2.444-1.033v.93h1.807V584.17H1334.8Z" transform="translate(-1316.111 -545.783)" fill="#1181c8"/>
                  <path id="Path_8109" data-name="Path 8109" d="M1338.532,591.389v-10.24h-1.847v10.344a2.332,2.332,0,0,0,2.118,2.528h0a2.321,2.321,0,0,0,.394,0h1.135v-1.565h-.809c-.739,0-1-.361-1-1.068Z" transform="translate(-1314.382 -546.478)" fill="#1181c8"/>
                  <path id="Path_8110" data-name="Path 8110" d="M1341.94,588.011a2.733,2.733,0,0,1,.246-1.239,1.914,1.914,0,0,1,1.824-1.153,1.893,1.893,0,0,1,1.808,1.153,3,3,0,0,1,.258,1.239Zm2.048-3.94c-2.339,0-3.89,1.724-3.89,4.679,0,3.493,1.824,4.7,4.13,4.7a4.232,4.232,0,0,0,3.424-1.428l-1.187-1.1a2.751,2.751,0,0,1-2.217.947,2.254,2.254,0,0,1-2.358-2.144h0a2.157,2.157,0,0,1,.019-.418h5.942V588.5c.017-2.6-1.411-4.423-3.873-4.423Z" transform="translate(-1313.59 -545.803)" fill="#1181c8"/>
                  <path id="Path_8111" data-name="Path 8111" d="M1355.338,587.733a4.436,4.436,0,0,0-2.41-.964l-1.463-.224a3.019,3.019,0,0,1-1.446-.585,1.53,1.53,0,0,1-.481-1.2,2.053,2.053,0,0,1,2.074-2.033,2.118,2.118,0,0,1,.266.02,3.852,3.852,0,0,1,2.805.985l1.239-1.221a5.4,5.4,0,0,0-3.992-1.463c-2.684,0-4.3,1.532-4.3,3.786a3.2,3.2,0,0,0,.947,2.463,4.38,4.38,0,0,0,2.444,1.033l1.515.224a2.2,2.2,0,0,1,1.411.55,1.739,1.739,0,0,1,.516,1.342c0,1.239-.985,1.962-2.65,1.962a4.275,4.275,0,0,1-3.286-1.221l-1.308,1.273a5.844,5.844,0,0,0,4.556,1.7c2.7,0,4.63-1.411,4.63-3.786a3.487,3.487,0,0,0-1.068-2.633Z" transform="translate(-1311.944 -546.505)" fill="#1181c8"/>
                  <path id="Path_8112" data-name="Path 8112" d="M1360.684,591.281a1.873,1.873,0,0,1-1.355.533,1.833,1.833,0,0,1-1.342-.533,5.279,5.279,0,0,1,0-5.025,1.979,1.979,0,0,1,2.7,0,3.579,3.579,0,0,1,.636,2.513,3.628,3.628,0,0,1-.636,2.512Zm-1.355-7.211a3.69,3.69,0,0,0-2.736,1.084,6.533,6.533,0,0,0,0,7.211,3.636,3.636,0,0,0,2.736,1.084,3.729,3.729,0,0,0,2.754-1.084,6.542,6.542,0,0,0,0-7.211A3.793,3.793,0,0,0,1359.329,584.07Z" transform="translate(-1310.024 -545.803)" fill="#1181c8"/>
                  <path id="Path_8113" data-name="Path 8113" d="M1363.435,583.629v1.411h-1.051v1.411h1.051v7.589h1.847v-7.589h1.824V585.04h-1.824v-1.325a.93.93,0,0,1,.781-1.061h0a.859.859,0,0,1,.233-.006h.809v-1.582h-1.154a2.409,2.409,0,0,0-2.515,2.3v.263Z" transform="translate(-1308.433 -546.498)" fill="#1181c8"/>
                  <path id="Path_8114" data-name="Path 8114" d="M1370.042,582.031H1368.2v2.788h-1.044v1.411h1.051v5.042a2.378,2.378,0,0,0,2.2,2.544h0a2.6,2.6,0,0,0,.31,0h1.1v-1.565h-.757a.953.953,0,0,1-1.021-1.067V586.23h1.773v-1.411h-1.773v-2.788Z" transform="translate(-1307.331 -546.274)" fill="#1181c8"/>
                </g>
                <g id="einstein" transform="translate(11.478 9.37)">
                  <path id="Path_8339" data-name="Path 8339" d="M1213.844,552.911c.592.143,1.195.246,1.776.433a12.649,12.649,0,0,1,5.119,3.189,3.314,3.314,0,0,1,.308.416c.535-.442.977-.831,1.444-1.185a8.135,8.135,0,0,1,4.608-1.589,11.574,11.574,0,0,1,4.72.608,2.261,2.261,0,0,1,.327.133.573.573,0,0,1,.283.76h0a.6.6,0,0,1-.753.309,18.556,18.556,0,0,0-2.472-.591,7.813,7.813,0,0,0-7.173,2.354l5.2,8.234c.492-.465,1.007-.985,1.549-1.468.641-.58,1.3-1.141,1.955-1.7.355-.3.7-.3.936-.032s.149.639-.195.949c-1.155,1.045-2.3,2.1-3.448,3.154-.142.123-.239.246-.123.467,1.426,2.768,2.808,5.56,4.268,8.309a13.548,13.548,0,0,0,3.966,4.662,9.351,9.351,0,0,0,2.88,1.406.447.447,0,0,0,.594-.218h0l.009-.02a8.691,8.691,0,0,0,1.254-4.355A29.571,29.571,0,0,0,1239,566.928c-.123-.369-.254-.739-.369-1.117a.584.584,0,0,1,.3-.77l.02-.009a.575.575,0,0,1,.751.314h0c.01.027.019.054.026.081.616,2.08,1.305,4.145,1.782,6.257a27.333,27.333,0,0,1,.541,4.633,9.443,9.443,0,0,1-1.347,5.677c.559,0,1.048.039,1.53-.006a11.206,11.206,0,0,0,6.287-2.606,11.4,11.4,0,0,0,1.411-16.066h0a11.4,11.4,0,0,0-7.064-3.953c-.427-.067-.653-.3-.616-.66a.616.616,0,0,1,.694-.524.8.8,0,0,1,.093.021,12.567,12.567,0,0,1,4.4,23.37,12.362,12.362,0,0,1-7.142,1.6.69.69,0,0,0-.635.27,10.26,10.26,0,0,1-6.351,3.534,24.593,24.593,0,0,1-3.409.089c-.483,0-.965-.085-1.449-.1a.43.43,0,0,0-.335.172,9.349,9.349,0,0,1-6.853,4.893,10.94,10.94,0,0,1-9.3-2.138,10.742,10.742,0,0,1-2.811-3.448.44.44,0,0,0-.527-.3,9.9,9.9,0,0,1-10.692-8.032,4.189,4.189,0,0,0-.15-.507v-2.437c.036-.187.078-.369.108-.563a12.626,12.626,0,0,1,3.981-7.476.48.48,0,0,0,.123-.4,10.163,10.163,0,0,1-.293-3.886,10.883,10.883,0,0,1,3.034-6.649.616.616,0,0,0,.123-.464,2.047,2.047,0,0,1,.739-2.07,1.731,1.731,0,0,1,2.056-.246,1.594,1.594,0,0,0,1.656.049,1.487,1.487,0,0,1,.263-.075l2.13-.463Zm-10.734,13.243c.5-.246.995-.517,1.506-.746a12.653,12.653,0,0,1,5.039-.829,18.533,18.533,0,0,1,4.48.468.411.411,0,0,0,.511-.206,65.03,65.03,0,0,1,5.434-6.809c.2-.224.182-.361-.027-.542-.336-.292-.646-.616-.985-.9a9.338,9.338,0,0,0-8.038-2.346c-.722.142-1.428.361-2.126.539a2.1,2.1,0,0,1-.932,2.189,2.025,2.025,0,0,1-2.277-.047,9.84,9.84,0,0,0-2.586,9.223Zm-.652,2.055a3.511,3.511,0,0,0-.278.256c-.31.355-.639.7-.916,1.075a10.864,10.864,0,0,0-2.217,7.923,8.683,8.683,0,0,0,6.493,7.286,9.031,9.031,0,0,0,2.971.211c-.032-.123-.052-.209-.078-.3a10.126,10.126,0,0,1-.47-3.2,18.712,18.712,0,0,1,.682-4.368.6.6,0,0,0-.189-.681,11.581,11.581,0,0,1-1.1-1.175c-1.241-1.569-2.5-3.129-3.675-4.746a18.258,18.258,0,0,1-1.225-2.289Zm20.4,2.774c-.207-.177-.378-.318-.542-.468a18.638,18.638,0,0,0-7.11-3.963.3.3,0,0,0-.4.123l-.011.022c-.305.5-.638.985-.944,1.493a37.315,37.315,0,0,0-3.67,7.747.59.59,0,0,0,.186.739c.925.791,1.816,1.623,2.755,2.4.722.595,1.5,1.127,2.292,1.724.783-1,1.529-1.941,2.261-2.9a.378.378,0,0,0,.014-.339,2.066,2.066,0,0,1,2.2-3.057.584.584,0,0,0,.442-.191c.305-.357.572-.748.862-1.123.548-.73,1.1-1.458,1.675-2.216Zm-6.429,10.443a29.4,29.4,0,0,0,11.052,4.187,9.126,9.126,0,0,0,.512-3.9,18.59,18.59,0,0,0-3.694-9.245c-.168-.223-.369-.425-.581-.676-.862,1.138-1.679,2.217-2.484,3.317a.449.449,0,0,0,0,.381,2.017,2.017,0,0,1-.17,2.288,2.041,2.041,0,0,1-2.109.739.367.367,0,0,0-.3.078c-.753.925-1.477,1.864-2.23,2.831ZM1227,586.721a31.035,31.035,0,0,1-11.4-4.421,10.746,10.746,0,0,1-5.389,3.543c.031.086.066.171.106.255a10.116,10.116,0,0,0,14.5,3.157,7.611,7.611,0,0,0,2.185-2.527Zm11.536-3.9a3.185,3.185,0,0,1-.4-.14,23.424,23.424,0,0,1-2.471-1.266,14.419,14.419,0,0,1-4.664-5.418c-.921-1.715-1.74-3.486-2.619-5.225-.458-.908-.947-1.8-1.46-2.77l-2.426,2.816a1.009,1.009,0,0,0,.082.159,17.206,17.206,0,0,1,3.167,5.158,15.982,15.982,0,0,1,1.417,7.013c-.052.862-.255,1.724-.389,2.586,3.129.942,8.134-.527,9.762-2.912Zm-14.964-12.766c.862-.985,1.666-1.911,2.491-2.821a.445.445,0,0,0,.081-.622h0l-.012-.015c-1.333-2.144-2.645-4.3-3.976-6.444-.314-.506-.676-.985-1.056-1.529a68.747,68.747,0,0,0-5.45,6.8,19.571,19.571,0,0,1,7.922,4.635Zm-9.857-3.859c-.123-.038-.207-.072-.293-.089a20.1,20.1,0,0,0-5.2-.3,8.844,8.844,0,0,0-4.421,1.339c-.246.161-.354.3-.2.6a21.286,21.286,0,0,0,1.2,2.33c.914,1.308,1.925,2.548,2.917,3.8.418.527.9,1.01,1.393,1.562a40.684,40.684,0,0,1,4.6-9.223Zm-4,18.537a8.786,8.786,0,0,0,4.8-3.052l-4.834-3.928a11.354,11.354,0,0,0,.032,6.987Z" transform="translate(-1197.186 -552.911)" fill="#1181c8"/>
                  <path id="Path_8340" data-name="Path 8340" d="M1234.566,559.455a4.467,4.467,0,0,1-8.934-.121h0v-.075a4.466,4.466,0,0,1,4.6-4.329h0A4.466,4.466,0,0,1,1234.566,559.455Zm-6.477-.063a2.015,2.015,0,0,0,2,2.028h0a2.016,2.016,0,0,0,2.028-2h0a2.016,2.016,0,0,0-4.032-.026Z" transform="translate(-1190.743 -552.444)" fill="#1181c8"/>
                  <g id="Group_951-2" data-name="Group 951-2" transform="translate(0 44.277)">
                    <path id="Path_8341" data-name="Path 8341" d="M1234.58,599.517l.7,1.02c-.184.123-.339.238-.5.339a5.877,5.877,0,0,1-4.014.739,3.788,3.788,0,0,1-3.223-2.72,5.889,5.889,0,0,1,.394-5.009,3.643,3.643,0,0,1,3.1-1.847,3.845,3.845,0,0,1,3.465,1.206,5.513,5.513,0,0,1,1.076,4.187h-6.723a2.755,2.755,0,0,0,2.512,2.976h.02a4.732,4.732,0,0,0,3.193-.891Zm-.535-3.373a2.567,2.567,0,0,0-2.172-2.907c-.061-.009-.124-.016-.182-.02-1.71-.083-2.783.991-2.9,2.927Z" transform="translate(-1190.389 -588.147)" fill="#1181c8"/>
                    <path id="Path_8342" data-name="Path 8342" d="M1205.725,597.419h-6.7a2.7,2.7,0,0,0,2.31,2.966,4.678,4.678,0,0,0,3.374-.872l.7,1.023a5.3,5.3,0,0,1-2.709,1.09,7.753,7.753,0,0,1-1.9-.036,3.781,3.781,0,0,1-3.125-2.709,5.971,5.971,0,0,1,.306-4.839,3.658,3.658,0,0,1,3.154-2.01,3.818,3.818,0,0,1,3.755,1.515,4.981,4.981,0,0,1,.84,2.523C1205.753,596.5,1205.725,596.926,1205.725,597.419Zm-6.822-1.276h5.243a2.574,2.574,0,0,0-2.149-2.911c-1.757-.2-2.844.813-3.094,2.915Z" transform="translate(-1197.299 -588.15)" fill="#1181c8"/>
                    <path id="Path_8343" data-name="Path 8343" d="M1208.355,592.282h1.385l.145,1.075.155.18a1.581,1.581,0,0,1,.189-.43c1.291-1.469,4.349-1.384,5.345-.2a3.7,3.7,0,0,1,.911,2.37c.031,1.991.016,3.982.016,5.974a.616.616,0,0,1-.048.16h-1.5c-.009-.18-.022-.352-.023-.524v-4.945a4.075,4.075,0,0,0-.115-1.016,1.854,1.854,0,0,0-1.42-1.518,2.664,2.664,0,0,0-2.7.724,2.779,2.779,0,0,0-.75,1.961v5.315h-1.6Z" transform="translate(-1194.741 -588.141)" fill="#1181c8"/>
                    <path id="Path_8344" data-name="Path 8344" d="M1238.229,592.277h1.386l.138,1.108c.153-.133.33-.286.5-.442a4.4,4.4,0,0,1,4.433-.592,2.682,2.682,0,0,1,1.572,2.283c.093,2.243.029,4.494.029,6.773h-1.454c-.009-.166-.024-.337-.024-.509q0-2.473-.007-4.948a4.3,4.3,0,0,0-.123-1.064,1.847,1.847,0,0,0-1.5-1.5,2.659,2.659,0,0,0-2.6.739,2.759,2.759,0,0,0-.752,1.96V601.4h-1.592Z" transform="translate(-1187.828 -588.143)" fill="#1181c8"/>
                    <path id="Path_8345" data-name="Path 8345" d="M1215.983,600.584l.608-.828a19.648,19.648,0,0,0,2.243.648,3.366,3.366,0,0,0,1.437-.152,1.3,1.3,0,0,0,.939-1.339,1.252,1.252,0,0,0-.9-1.256c-.444-.16-.909-.262-1.355-.422a9.155,9.155,0,0,1-1.622-.659,2.374,2.374,0,0,1-.715-3.28,2.339,2.339,0,0,1,.462-.528,4.812,4.812,0,0,1,5.541.256l-.607.846a11.584,11.584,0,0,0-1.847-.581,4.364,4.364,0,0,0-1.581.136,1.014,1.014,0,0,0-.772,1.019,1.073,1.073,0,0,0,.634,1.118c.462.2.951.332,1.427.493a11.7,11.7,0,0,1,1.478.515,2.546,2.546,0,0,1,.24,4.5,5.157,5.157,0,0,1-5.61-.486Z" transform="translate(-1192.975 -588.141)" fill="#1181c8"/>
                    <path id="Path_8346" data-name="Path 8346" d="M1225.32,589.931V592.7h2.39v1.256h-2.349c-.013.22-.031.391-.031.564v4.653c0,1.431.532,1.881,1.945,1.65.078-.012.155-.03.283-.053l.237,1.09a2.649,2.649,0,0,1-4.044-2.271v-5.63h-1.574v-1.048l1.555-.2c0-.616.017-1.218-.008-1.816a.464.464,0,0,1,.363-.543l.038-.006C1224.5,590.25,1224.862,590.095,1225.32,589.931Z" transform="translate(-1191.542 -588.622)" fill="#1181c8"/>
                    <path id="Path_8347" data-name="Path 8347" d="M1205.542,592.226h1.511v9.126h-1.511Z" transform="translate(-1195.391 -588.091)" fill="#1181c8"/>
                    <path id="Path_8348" data-name="Path 8348" d="M1235.411,592.226h1.509v9.124h-1.509Z" transform="translate(-1188.48 -588.091)" fill="#1181c8"/>
                    <path id="Path_8349" data-name="Path 8349" d="M1236.237,590.81c-.7,0-1.015-.286-1.016-.946a.879.879,0,0,1,.759-.985h0a.861.861,0,0,1,.239,0,.9.9,0,0,1,1.025.747h0a.884.884,0,0,1,.006.214C1237.258,590.471,1236.9,590.807,1236.237,590.81Z" transform="translate(-1188.526 -588.868)" fill="#1181c8"/>
                    <path id="Path_8350" data-name="Path 8350" d="M1206.345,590.808c-.692,0-1-.3-1-.966s.346-.965,1.02-.965a.894.894,0,0,1,1.007.765h0a.939.939,0,0,1,0,.219Q1207.365,590.812,1206.345,590.808Z" transform="translate(-1195.437 -588.868)" fill="#1181c8"/>
                  </g>
                </g>
                <g id="tableau" transform="translate(0 188.613)">
                  <path id="Path_8352" data-name="Path 8352" d="M1212.53,708.21h1.877v4.531c.53-.117,1.036-.254,1.549-.335a4.031,4.031,0,0,1,4.669,3.269h0c.019.112.034.224.044.338a5.85,5.85,0,0,1-.231,2.609,3.936,3.936,0,0,1-3.2,2.6,8.883,8.883,0,0,1-4.44-.381c-.243-.076-.212-.226-.213-.393q-.027-3.387-.051-6.774c-.009-1.708-.009-3.416-.011-5.124Zm1.877,8.688v2.167c0,.193.053.3.254.339a11.228,11.228,0,0,0,1.281.226,2.411,2.411,0,0,0,2.645-1.634,5.062,5.062,0,0,0,.148-1.559,2.365,2.365,0,0,0-1.783-2.263,3.551,3.551,0,0,0-2.372.305.418.418,0,0,0-.156.324c-.024.7-.015,1.4-.015,2.1Z" transform="translate(-1176.506 -676.347)" fill="#1181c8"/>
                  <path id="Path_8353" data-name="Path 8353" d="M1251.719,711.958l.032-.514c.576,0,1.141,0,1.694.009.053,0,.14.127.147.209a5.722,5.722,0,0,1,0,.619q-.023,3.663-.045,7.328c0,.18,0,.321-.224.391a8.557,8.557,0,0,1-4.947.232,3.946,3.946,0,0,1-2.973-3.771,5.729,5.729,0,0,1,.365-2.561,3.961,3.961,0,0,1,4.37-2.368,11.358,11.358,0,0,1,1.581.426Zm-.083,6.606a.566.566,0,0,0,.029-.115c.021-1.489.042-2.977.054-4.466a.345.345,0,0,0-.127-.254,2.605,2.605,0,0,0-4.135,1.4,4.239,4.239,0,0,0-.1,1.088,2.386,2.386,0,0,0,1.7,2.4,5,5,0,0,0,2.566-.055Z" transform="translate(-1167.685 -675.479)" fill="#1181c8"/>
                  <path id="Path_8354" data-name="Path 8354" d="M1205.316,711.951c.008-.127.016-.3.028-.491h1.864v.381q-.031,3.887-.066,7.776c0,.16.018.3-.2.373a8.2,8.2,0,0,1-5.138.18,3.825,3.825,0,0,1-2.737-3.406,4.933,4.933,0,0,1,.811-3.7,3.934,3.934,0,0,1,3.9-1.531,10.126,10.126,0,0,1,1.538.418Zm.011,6.6v-4.026c0-.821-.008-.831-.787-1.123-.032-.011-.062-.029-.095-.04a2.462,2.462,0,0,0-3.221,1.323,2.421,2.421,0,0,0-.116.35,4.923,4.923,0,0,0-.094,1.464,2.322,2.322,0,0,0,1.969,2.2,5.82,5.82,0,0,0,2.343-.148Z" transform="translate(-1180.142 -675.475)" fill="#1181c8"/>
                  <path id="Path_8355" data-name="Path 8355" d="M1241.246,716.365h-6.26a2.259,2.259,0,0,0,1.8,2.335,6.26,6.26,0,0,0,3.7-.424c.09-.038.179-.08.321-.142,0,.568.009,1.091-.01,1.614,0,.079-.127.184-.209.224a6.208,6.208,0,0,1-3.281.557,6.774,6.774,0,0,1-1.508-.308,3.92,3.92,0,0,1-2.758-3.3,4.852,4.852,0,0,1,.872-3.874,4.025,4.025,0,0,1,3.71-1.534,3.849,3.849,0,0,1,3.621,3.912C1241.261,715.724,1241.246,716.015,1241.246,716.365Zm-2.015-1.383a1.612,1.612,0,0,0-1.473-1.74h-.114a2.385,2.385,0,0,0-2.57,1.745Z" transform="translate(-1171.025 -675.469)" fill="#1181c8"/>
                  <path id="Path_8356" data-name="Path 8356" d="M1184.132,715.626V713.9h4.979v-5.219h1.864v5.2h4.973v1.735H1191v5.659h-1.865v-5.649Z" transform="translate(-1184.132 -676.222)" fill="#1181c8"/>
                  <path id="Path_8357" data-name="Path 8357" d="M1259.884,711.661v5.422a1.691,1.691,0,0,0,1.142,1.809,2.584,2.584,0,0,0,1.624.014,1.709,1.709,0,0,0,1.159-1.83v-5.41h1.852a.858.858,0,0,1,.029.14c0,1.87.021,3.739-.008,5.608a2.747,2.747,0,0,1-2.1,2.735,5.475,5.475,0,0,1-3.71-.1,2.774,2.774,0,0,1-1.844-2.718v-5.368c0-.09.009-.179.014-.289Z" transform="translate(-1164.29 -675.421)" fill="#1181c8"/>
                  <path id="Path_8358" data-name="Path 8358" d="M1226.917,723.316h-1.807V706.825h1.813Z" transform="translate(-1173.128 -676.719)" fill="#1181c8"/>
                  <path id="Path_8359" data-name="Path 8359" d="M1221.922,695.222v4h-1.488v-3.969h-3.65v-1.44h3.623v-4.03h1.51v4.01h3.7v1.432Z" transform="translate(-1175.364 -681.296)" fill="#1181c8"/>
                  <path id="Path_8360" data-name="Path 8360" d="M1227.255,693.42h-1.285v-3.552h-3.336v-1.134h3.312v-3.581h1.283v3.561h3.3v1.133h-3.269Z" transform="translate(-1173.793 -682.539)" fill="#1181c8"/>
                  <path id="Path_8361" data-name="Path 8361" d="M1227.254,703.575h-1.285v-3.592h-3.335V698.87h3.313V695.3h1.286v3.552h3.287v1.115h-3.269Z" transform="translate(-1173.793 -679.813)" fill="#1181c8"/>
                  <path id="Path_8362" data-name="Path 8362" d="M1214.972,699.976h-3.3v-1.1h3.274V695.3h1.261v3.552h3.349v1.123h-3.338v3.593h-1.247Z" transform="translate(-1176.736 -679.814)" fill="#1181c8"/>
                  <path id="Path_8363" data-name="Path 8363" d="M1214.984,685.145h1.229v3.579h3.344v1.087h-3.343v3.613h-1.2V689.83h-3.33v-1.1h3.3Z" transform="translate(-1176.734 -682.541)" fill="#1181c8"/>
                  <path id="Path_8364" data-name="Path 8364" d="M1221.424,701.809h2.214v.979h-2.2v2.482h-1.08v-2.462h-2.27v-.994h2.241v-2.5h1.094Z" transform="translate(-1175.012 -678.735)" fill="#1181c8"/>
                  <path id="Path_8365" data-name="Path 8365" d="M1228.728,691.177h1.072v2.5h2.246v.984h-2.223v2.5h-1.08V694.67h-2.283V693.7h2.264Z" transform="translate(-1172.766 -680.921)" fill="#1181c8"/>
                  <path id="Path_8366" data-name="Path 8366" d="M1211.849,696.928v-2.4h-2.23v-.789h2.221v-2.41h.825v2.389h2.21v.781h-2.2v2.422Z" transform="translate(-1177.288 -680.879)" fill="#1181c8"/>
                  <path id="Path_8367" data-name="Path 8367" d="M1223.442,685.534v.761h-2.168v2.451h-.813V686.3h-2.239v-.745h2.216V683.09h.814v2.441Z" transform="translate(-1174.978 -683.092)" fill="#1181c8"/>
                </g>
              </g>
            </g>
          </g>
        </g>
      </g>
    </g>
  </g>
  <g id="Custom_Size_1-2" data-name="Custom Size – 1" clip-path="url(#clip-path)">
    <g id="Group_1-2" data-name="Group 1" transform="translate(16.748 16.4)">
      <g id="Component_148_1-2" data-name="Component 148 – 1" transform="translate(51.195 56.6)">
        <g id="circle-3" data-name="circle" transform="translate(-67.195 -65.6)">
          <path id="Path_8404-2" data-name="Path 8404" d="M1035.877,648.231" transform="translate(-941.22 -345.774)" fill="none" stroke="#627783" stroke-linecap="round" stroke-width="2"/>
          <g id="circle-4" data-name="circle">
            <g id="ellipse3" transform="translate(67.195 65.347)">
              <path id="Ellipse_112" data-name="Ellipse 112" d="M1031.261,567.527a216.679,216.679,0,0,1,32.94-75.079" transform="translate(-1007.632 -384.697)" fill="none" stroke="#999" stroke-linecap="round" stroke-width="1"/>
              <path id="Ellipse_112-2" data-name="Ellipse 112" d="M1031.27,697.263a217.319,217.319,0,0,1-5.54-33.64" transform="translate(-1006.693 -413.732)" fill="none" stroke="#999" stroke-linecap="round" stroke-width="1"/>
              <path id="Ellipse_112-3" data-name="Ellipse 112" d="M1094.81,817.314a218.589,218.589,0,0,1-37.361-49.349" transform="translate(-1012.074 -431.431)" fill="none" stroke="#999" stroke-linecap="round" stroke-width="1"/>
              <path id="Ellipse_112-4" data-name="Ellipse 112" d="M1248.646,896.411a216.5,216.5,0,0,1-97.5-30.954" transform="translate(-1027.966 -447.968)" fill="none" stroke="#999" stroke-linecap="round" stroke-width="1"/>
              <path id="Ellipse_112-5" data-name="Ellipse 112" d="M1402.354,868.554a216.362,216.362,0,0,1-75.347,26.407" transform="translate(-1057.797 -448.493)" fill="none" stroke="#999" stroke-linecap="round" stroke-width="1"/>
              <path id="Ellipse_112-6" data-name="Ellipse 112" d="M1513.71,757.243a218.4,218.4,0,0,1-42.027,58.254" transform="translate(-1082.337 -429.612)" fill="none" stroke="#999" stroke-linecap="round" stroke-width="1"/>
              <path id="Ellipse_112-7" data-name="Ellipse 112" d="M1548.175,641.089q0,1.8-.03,3.6a218.175,218.175,0,0,1-5.733,46.379" transform="translate(-1094.334 -409.91)" fill="none" stroke="#999" stroke-linecap="round" stroke-width="1"/>
              <path id="Ellipse_112-8" data-name="Ellipse 112" d="M1517.309,515.359a216.439,216.439,0,0,1,19.008,47.164" transform="translate(-1090.076 -388.583)" fill="none" stroke="#999" stroke-linecap="round" stroke-width="1"/>
              <path id="Ellipse_112-9" data-name="Ellipse 112" d="M1093.311,449.794a217.8,217.8,0,0,1,310.473-11.5" transform="translate(-1018.157 -365.42)" fill="none" stroke="#999" stroke-linecap="round" stroke-width="1"/>
              <rect id="Rectangle_677" data-name="Rectangle 677" width="61" height="28" transform="translate(204.057 0.253)" fill="#153243"/>
              <text id="DESIGN" transform="translate(209.347 17.622)" fill="#fff" font-size="14" font-family="SourceSansPro-Bold, Source Sans Pro" font-weight="700" style="isolation: isolate"><tspan x="0" y="0">DESIGN</tspan></text>
              <g id="design-frontend" transform="translate(0 81.663)" style="isolation: isolate">
                <g id="aobecc" transform="translate(0 107.477)">
                  <path id="Icon_simple-adobecreativecloud" data-name="Icon simple-adobecreativecloud" d="M1036.968,601.179v1c-.01.055-.021.109-.027.162-.05.436-.083.873-.154,1.3a10.809,10.809,0,0,1-1.465,3.916,11.029,11.029,0,0,1-4.54,4.185,10.514,10.514,0,0,1-3.5,1.05c-.271.032-.542.061-.812.09h-10.5c-.053-.01-.106-.025-.159-.03a8.819,8.819,0,0,1-3.049-.747,9.373,9.373,0,0,1-4.722-4.567,9.094,9.094,0,0,1-.872-2.952l-.088-.742v-.971a1.642,1.642,0,0,0,.028-.166,9.07,9.07,0,0,1,.575-2.71,9.41,9.41,0,0,1,4.656-5.2,8.984,8.984,0,0,1,3.647-.959,9.874,9.874,0,0,1,1.872.089.236.236,0,0,0,.177-.059,11.062,11.062,0,0,1,3.062-2.254,10.564,10.564,0,0,1,3.519-1.056c.291-.034.581-.062.872-.092h.9c.057.008.117.02.174.026.444.053.891.087,1.329.166a10.411,10.411,0,0,1,3.828,1.477,11.071,11.071,0,0,1,4.134,4.624,10.913,10.913,0,0,1,1.034,3.565c.032.285.06.57.09.855m-16.714-6.477c.019.025.023.036.032.04a12.036,12.036,0,0,1,1.756,1.08.186.186,0,0,0,.166-.013,6.824,6.824,0,0,1,9.176,1.607,6.717,6.717,0,0,1,1.353,5.406,6.992,6.992,0,0,1-1.661,3.564,6.622,6.622,0,0,1-6.126,2.283,6.431,6.431,0,0,1-3.841-1.95c-1.368-1.4-2.745-2.8-4.117-4.2a1.113,1.113,0,0,0-.649-.37,1.029,1.029,0,0,0-1.08.6.977.977,0,0,0,.231,1.181c1.528,1.527,3.044,3.067,4.571,4.6a7.592,7.592,0,0,0,.839.725,7.955,7.955,0,0,0,3.737,1.462,8.867,8.867,0,0,0,8.165-3.238,8.98,8.98,0,0,0,1.963-4.567,9.087,9.087,0,0,0-.083-2.939,8.8,8.8,0,0,0-2.018-4.206,8.707,8.707,0,0,0-7.565-3.1,8.3,8.3,0,0,0-3.289.984,8.634,8.634,0,0,0-1.559,1.06m-.739,16.057-.125-.117c-.624-.6-1.253-1.2-1.871-1.8a.5.5,0,0,0-.4-.166,7.5,7.5,0,0,1-1.868-.125,5.353,5.353,0,0,1-3.9-6.49h0a5.268,5.268,0,0,1,5.971-3.924,5.039,5.039,0,0,1,2.832,1.5c.959,1.007,1.946,1.983,2.915,2.978a.862.862,0,0,0,.779.286.98.98,0,0,0,.85-.643.962.962,0,0,0-.216-1.051c-1.017-1.046-2.01-2.12-3.067-3.122a6.861,6.861,0,0,0-7.141-1.7,7.39,7.39,0,0,0,2.207,14.4h2.863c.047,0,.095-.005.166-.008" transform="translate(-1003.53 -590.463)" fill="#999"/>
                  <g id="Creative_Cloud" data-name="Creative Cloud" transform="translate(0 27.318)">
                    <g id="Creative_Cloud-2" data-name="Creative Cloud-2" style="isolation: isolate">
                      <text id="Creative" transform="translate(0 10)" fill="#999" font-size="10" font-family="SourceSansPro-Regular, Source Sans Pro" style="isolation: isolate"><tspan x="0" y="0">Creative</tspan></text>
                      <text id="Cloud" transform="translate(5.978 25.943)" fill="#999" font-size="10" font-family="SourceSansPro-Regular, Source Sans Pro" style="isolation: isolate"><tspan x="0" y="0">Cloud</tspan></text>
                    </g>
                  </g>
                </g>
                <g id="Invision" transform="translate(381.524)">
                  <path id="Icon_awesome-invision" data-name="Icon awesome-invision" d="M1496.272,461.031h-21.415a2.372,2.372,0,0,0-2.371,2.367v21.424a2.373,2.373,0,0,0,2.371,2.367h21.415a2.373,2.373,0,0,0,2.371-2.367V463.4a2.372,2.372,0,0,0-2.371-2.369Zm-13.5,6.633a1.567,1.567,0,1,1-1.578-1.556,1.567,1.567,0,0,1,1.578,1.556Zm9.149,13.51c-3.831,0-1.993-4.318-1.46-6.228.823-2.709-2.639-3.444-3.5.041l-1.506,6.031h-2.633l.473-1.9c-1.839,3.024-5.524,2.592-5.524-.249.006-.835.052-.817,1.343-6.078h-1.856l.566-2.076h4.462c-1.962,7.806-1.9,7.409-1.921,8.069,0,1.221,2.388.788,3.351-1.354l1.156-4.636h-1.887l.566-2.076h4.017l-.52,2.365c2.365-4.409,7.468-2.791,5.944,2.219-.83,2.984-.853,2.96-.87,3.433,0,.9,1.021,1.319,1.857-.986l1.045.391c-.616,2.141-1.724,3.034-3.107,3.034Z" transform="translate(-1463.998 -461.031)" fill="#999"/>
                  <g id="Invision_" data-name="Invision " transform="translate(0 29.39)">
                    <g id="Invision-2" style="isolation: isolate">
                      <text id="Invision-2-2" data-name="Invision" transform="translate(0 10)" fill="#999" font-size="10" font-family="SourceSansPro-Regular, Source Sans Pro" style="isolation: isolate"><tspan x="0" y="0">Invision</tspan></text>
                    </g>
                  </g>
                </g>
                <g id="jquery" transform="translate(436.736 97.298)">
                  <g id="jquery-2" transform="translate(0 31.165)">
                    <g id="Jquery-3" style="isolation: isolate">
                      <text id="Jquery-2-2" data-name="Jquery" transform="translate(0 10)" fill="#999" font-size="10" font-family="SourceSansPro-Regular, Source Sans Pro" style="isolation: isolate"><tspan x="0" y="0">Jquery</tspan></text>
                    </g>
                  </g>
                  <path id="Icon_simple-jquery" data-name="Icon simple-jquery" d="M1533.844,584.957c-2.644,3.8-2.317,8.74-.3,12.774.047.1.1.192.147.286a1.864,1.864,0,0,0,.1.185.939.939,0,0,0,.058.1c.032.065.067.127.1.189l.2.332c.036.061.071.121.112.182.068.117.149.233.221.35a1.577,1.577,0,0,0,.1.146q.18.284.386.553c.1.133.194.262.3.392.034.047.072.095.106.142l.276.332c.034.038.067.083.1.124.122.147.249.291.381.435l.007.008a3.942,3.942,0,0,0,.528.548l.3.3.126.121c.139.13.277.259.423.384h.007l.071.062c.127.111.255.222.386.324l.156.13c.106.083.216.166.324.249l.166.13.358.257c.043.031.083.062.132.091l.036.029.35.231.149.1c.183.117.365.228.546.338.052.027.1.055.153.083.135.077.274.156.409.228.075.042.152.079.229.117.094.052.19.1.29.156a.351.351,0,0,1,.07.028c.041.019.083.039.12.059.149.075.305.145.467.217l.095.042c.179.079.359.154.545.227.042.013.083.034.131.05.166.063.341.128.511.189l.063.022c.19.065.379.127.572.187.045.012.09.029.139.041a5.335,5.335,0,0,0,.589.166c12.78,2.329,16.494-7.683,16.494-7.683-3.12,4.063-8.657,5.134-13.9,3.942-.194-.045-.389-.107-.581-.166q-.356-.1-.706-.225l-.077-.03c-.166-.057-.332-.121-.5-.184a1.433,1.433,0,0,0-.137-.051c-.183-.073-.361-.149-.538-.228-.039-.012-.07-.03-.109-.045-.151-.07-.3-.14-.449-.212-.046-.02-.087-.041-.132-.065-.117-.055-.234-.117-.349-.177-.079-.038-.157-.078-.233-.12-.141-.075-.282-.155-.422-.233-.042-.03-.09-.055-.139-.083q-.277-.167-.545-.332c-.05-.032-.1-.064-.147-.1q-.2-.122-.389-.257c-.044-.029-.083-.06-.129-.091q-.185-.13-.366-.264c-.052-.042-.108-.083-.166-.125-.11-.083-.221-.166-.332-.259l-.147-.117q-.211-.172-.415-.35a.3.3,0,0,0-.046-.037l-.432-.394-.125-.117c-.1-.1-.207-.2-.311-.306l-.121-.125q-.2-.2-.385-.4l-.018-.02c-.132-.145-.26-.292-.39-.441-.034-.038-.065-.083-.1-.121l-.281-.345q-.216-.277-.423-.558c-2.906-3.971-3.961-9.451-1.633-13.95m6.15-.588a9.169,9.169,0,0,0-.316,9.353,11.329,11.329,0,0,0,.844,1.412,6.608,6.608,0,0,0,.983,1.227c.133.152.278.3.428.447l.112.112q.212.206.436.4l.019.017q.249.219.516.426c.042.029.078.062.12.091.174.135.349.264.531.392l.018.012c.077.056.159.107.249.162.035.022.075.052.112.075.132.083.261.166.4.249.021.008.04.02.06.029.112.069.234.135.351.2.041.025.083.043.124.067q.124.061.249.127l.04.017c.166.083.34.159.508.237.042.017.078.03.115.047.139.06.279.117.415.17.062.021.121.046.179.065.127.047.26.091.386.134l.174.056a4.185,4.185,0,0,0,.558.161c9.865,1.635,12.149-5.963,12.149-5.963-2.058,2.955-6.039,4.365-10.274,3.264q-.281-.074-.558-.162c-.06-.017-.112-.035-.166-.052-.13-.045-.263-.089-.389-.135l-.179-.067c-.14-.056-.281-.109-.415-.166a1.026,1.026,0,0,1-.113-.05c-.174-.078-.349-.155-.519-.239l-.256-.133-.148-.075c-.115-.06-.22-.122-.332-.187a.794.794,0,0,1-.086-.047c-.132-.083-.269-.166-.4-.249-.042-.023-.083-.052-.121-.077l-.259-.166c-.179-.125-.355-.259-.532-.389-.04-.036-.078-.066-.117-.1a11.841,11.841,0,0,1-4.033-5.74,8.915,8.915,0,0,1,.7-7.149m5.339-.183a5.749,5.749,0,0,0-.461,5.549,7.829,7.829,0,0,0,4.489,4.191c.083.031.159.057.243.083l.11.033a3.067,3.067,0,0,0,.349.1c5.451,1.051,6.925-2.8,7.323-3.365-1.3,1.863-3.474,2.311-6.145,1.661a6.118,6.118,0,0,1-.643-.2,7.908,7.908,0,0,1-.768-.316,8.107,8.107,0,0,1-1.345-.822c-2.39-1.809-3.87-5.266-2.312-8.083" transform="translate(-1529.296 -578.204)" fill="#999"/>
                </g>
                <g id="moqups" transform="translate(39.469 10.669)">
                  <path id="Path_8368" data-name="Path 8368" d="M1111.063,480.881a12.657,12.657,0,0,0,3.875-4.918c.9-1.819,1.246-2.036,3.353-1.91.492,1.641,1.039,3.247,1.451,4.888.939,3.742-1.677,6.536-5.581,5.936.006-1.007-.056-1.91,1.435-2.02a2.2,2.2,0,0,0,1.661-2.612,25.328,25.328,0,0,0-.586-2.574c-2.938,4.454-6.567,7.328-11.934,7.357a2.147,2.147,0,0,1-.039-.441c.1-.47.2-.938.3-1.4a5.384,5.384,0,0,0,3.382-6.051,1.468,1.468,0,0,0-1.179-.8,2.58,2.58,0,0,0-2.325,2.159q-.909,4.088-1.794,8.183c-.482,2.249-.567,2.331-3.161,2.481.332-1.622.664-3.21,1.024-4.971-1.949.932-3.68,1.241-5.112-.5-2.72,1.7-3.829,1.744-5.634.206a13.6,13.6,0,0,1-1.6.809,12.952,12.952,0,0,1-1.776.364c-.6,1.7-.109,4.442-3.517,4.014l1.036-5.027c-1.709.968-3.666,1.693-4.816-.01-.869-1.288-.737-3.245-1.1-5.148a4.733,4.733,0,0,0-.913,1.261c-.946,3.057-3.108,4.906-5.979,4.742a17.785,17.785,0,0,1-3.571-1.017,13.22,13.22,0,0,1-2.227,1.006c-1.993.551-3.23-.483-2.99-2.513.188-1.6.611-3.168.876-4.759a4.588,4.588,0,0,0-.125-1.221c-.494.065-1.149-.042-1.448.233a4.606,4.606,0,0,0-1.372,1.952c-.562,2-.927,4.064-1.376,6.127h-2.549c.489-2.28,1-4.479,1.412-6.694a5.882,5.882,0,0,0-.172-1.673,4.831,4.831,0,0,0-1.744.625,4.1,4.1,0,0,0-1.067,1.862,33.51,33.51,0,0,0-.94,4.484c-.166,1.218-.707,1.671-1.892,1.461a10.789,10.789,0,0,0-1.1-.083c.453-2.159.94-4.235,1.3-6.338a9.268,9.268,0,0,0-.139-2.2l-2.076.464c.151-.885.035-1.993,1.44-2.415a3.231,3.231,0,0,1,3.8,1.013,22.419,22.419,0,0,1,2.9-1.163,1.972,1.972,0,0,1,2.444,1.055,21.155,21.155,0,0,1,3.514-1.057,1.673,1.673,0,0,1,2.01,1.977c-.166,1.772-.562,3.522-.868,5.28-.1.581-.464,1.344.513,1.412a1.412,1.412,0,0,0,1.676-1.085h0a1.36,1.36,0,0,0,.025-.16,24.779,24.779,0,0,1,.286-2.464,6.048,6.048,0,0,1,6.145-5.035c2.215.038,3.147.9,3.785,3.761.959-.7,1.867-1.266,2.65-1.967,2.254-2.019,6.036-2.519,8.375-1.05-.446,2.05-.908,4.09-1.324,6.14-.147.727-.581,1.845.5,1.927a2.635,2.635,0,0,0,1.993-1.462,37.87,37.87,0,0,0,1.144-4.962c.511-2.287.57-2.325,3.209-2.313-.437,2.1-.867,4.164-1.3,6.228a1.508,1.508,0,0,0-.071.249c-.017.807-.708,1.775.367,2.34.658.345,2.18-.771,2.447-1.794.4-1.519.712-3.06,1.028-4.6.476-2.312.5-2.345,3.168-2.429-.409,1.932-.815,3.826-1.21,5.721a11.887,11.887,0,0,0-.337,1.931c-.041,1.069.615,1.515,1.495.942a3.464,3.464,0,0,0,1.495-1.682c.515-1.965.789-3.993,1.2-6.254l2.071-.815.427,1.424c.486-.289.941-.588,1.42-.84,2.369-1.246,4.528-.136,4.688,2.523a25.131,25.131,0,0,1-.371,3.885Zm-25.039-4.643c-1.418-.367-2.76-.27-3.315.992a13.681,13.681,0,0,0-1.039,4.484c-.083,1.152,1.1,1.6,2.057.886a3.05,3.05,0,0,0,1.134-1.383c.473-1.624.782-3.292,1.163-4.982Zm-14.893,2.27a26.057,26.057,0,0,0-.415,3.1,1.535,1.535,0,0,0,.717,1.226,1.715,1.715,0,0,0,1.54-.229,19.775,19.775,0,0,0,1.7-2.665Zm3.662-.312c.1-1.079.166-2.012-1.016-2.145-.4-.044-1.229.469-1.216.694.069,1.288,1.2,1.179,2.231,1.45Z" transform="translate(-1050.337 -473.88)" fill="#999"/>
                </g>
                <g id="Html5" transform="translate(15.094 208.141)">
                  <path id="Icon_awesome-html5" data-name="Icon awesome-html5" d="M1028.534,711.691l1.848,20.919,8.273,2.758,8.329-2.758,1.848-20.92Zm16.289,6.758h-9.715l.217,2.611h9.281l-.718,7.843-5.174,1.427v.016h-.058l-5.218-1.441-.317-4.006h2.521l.184,2.01,2.827.766,2.838-.766.317-3.287h-8.82l-.681-7.7h12.746Z" transform="translate(-1022.263 -711.689)" fill="#999"/>
                  <g id="Html_5" data-name="Html 5" transform="translate(0 28.061)">
                    <g id="Html_5-2" data-name="Html 5-2" style="isolation: isolate">
                      <text id="Html_5-2-2" data-name="Html 5" transform="translate(0 10)" fill="#999" font-size="10" font-family="SourceSansPro-Regular, Source Sans Pro" style="isolation: isolate"><tspan x="0" y="0">Html 5</tspan></text>
                    </g>
                  </g>
                </g>
                <g id="vue-logo" transform="translate(84.386 307.687)">
                  <g id="vuejs-seeklogo.com" transform="translate(3.678)">
                    <path id="Path_8094" data-name="Path 8094" d="M1126.466,831.57h4.4l-11,18.983-11-18.982h8.419l2.586,4.4,2.531-4.4Z" transform="translate(-1108.859 -831.57)" fill="#999"/>
                    <path id="Path_8095" data-name="Path 8095" d="M1108.863,831.57l11,18.983,11-18.982h-4.4l-6.6,11.389-6.658-11.389Z" transform="translate(-1108.86 -831.57)" fill="#999"/>
                    <path id="Path_8096" data-name="Path 8096" d="M1114.1,831.57l6.657,11.444,6.6-11.444h-4.069l-2.534,4.4-2.586-4.4Z" transform="translate(-1109.747 -831.57)" fill="#999"/>
                  </g>
                  <g id="Vue.js" transform="translate(0 17.07)">
                    <g id="Vue.js-2" style="isolation: isolate">
                      <text id="Vue.js-2-2" data-name="Vue.js" transform="translate(0 10)" fill="#999" font-size="10" font-family="SourceSansPro-Regular, Source Sans Pro" style="isolation: isolate"><tspan x="0" y="0">Vue.js</tspan></text>
                    </g>
                  </g>
                </g>
                <g id="angular" transform="translate(223.993 343.024)">
                  <path id="Icon_awesome-angular" data-name="Icon awesome-angular" d="M1290.306,887.909h4.449l-2.225-5.348Zm2.225-13.784-12.133,4.343,1.857,16.1,10.276,5.716,10.276-5.716,1.857-16.1Zm7.6,19.956h-2.838l-1.53-3.82h-6.457l-1.53,3.82h-2.844l7.6-17.068Z" transform="translate(-1273.884 -874.125)" fill="#999"/>
                  <g id="Angular-2" transform="translate(0 26.068)">
                    <g id="Angular-2-2" style="isolation: isolate">
                      <text id="Angular-2-2" data-name="Angular" transform="translate(0 10)" fill="#999" font-size="10" font-family="SourceSansPro-Regular, Source Sans Pro" style="isolation: isolate"><tspan x="0" y="0">Angular</tspan></text>
                    </g>
                  </g>
                </g>
                <g id="bootstrap" transform="translate(348.438 303.979)">
                  <g id="Bootstrap-2" transform="translate(0 20.973)">
                    <g id="Bootstrap-2-2" style="isolation: isolate">
                      <text id="Bootstrap-2-2" data-name="Bootstrap" transform="translate(0 10)" fill="#999" font-size="10" font-family="SourceSansPro-Regular, Source Sans Pro" style="isolation: isolate"><tspan x="0" y="0">Bootstrap</tspan></text>
                    </g>
                  </g>
                  <path id="Icon_awesome-bootstrap" data-name="Icon awesome-bootstrap" d="M1452.616,839.739a1.8,1.8,0,0,1-1.71,1.878h0a1.861,1.861,0,0,1-.273-.007h-3.654v-3.687h3.654c1.921,0,1.982,1.44,1.982,1.817Zm-2.264-3.3a1.622,1.622,0,0,0,1.731-1.5h0V834.8c0-.7-.158-1.619-1.734-1.619h-3.373v3.258Zm9.291-5.964v13.479a3.382,3.382,0,0,1-3.371,3.37h-13.479a3.381,3.381,0,0,1-3.37-3.37v-13.48a3.38,3.38,0,0,1,3.37-3.371h13.476a3.38,3.38,0,0,1,3.371,3.371Zm-4.963,9.532a2.824,2.824,0,0,0-2.214-3.04v-.033a2.587,2.587,0,0,0,1.686-2.511c0-.315.09-2.924-3.5-2.924h-5.73V843.29c5.788,0,6.311.076,7.384-.257a3.035,3.035,0,0,0,2.379-3.029Z" transform="translate(-1425.304 -827.104)" fill="#999"/>
                </g>
                <g id="react" transform="translate(437.665 207.806)">
                  <g id="react-seeklogo.com" transform="translate(2.125)">
                    <path id="Path_8400" data-name="Path 8400" d="M1553.059,718.512v.008c-.266-.091-.531-.174-.814-.258q.075-.274.125-.548c.615-2.964.216-5.356-1.146-6.145-1.312-.756-3.454.033-5.614,1.91q-.312.274-.623.573c-.142-.133-.282-.266-.415-.382-2.268-2.018-4.534-2.865-5.9-2.076-1.312.764-1.695,3.006-1.147,5.813.059.274.117.556.183.83-.316.091-.632.191-.93.3-2.658.922-4.351,2.375-4.351,3.878,0,1.553,1.827,3.114,4.592,4.061.216.075.44.141.673.208-.075.307-.142.606-.191.9-.524,2.765-.117,4.957,1.187,5.713,1.345.772,3.6-.025,5.8-1.951.174-.149.349-.307.523-.482.233.224.457.423.681.623,2.135,1.835,4.236,2.574,5.539,1.819,1.345-.781,1.786-3.131,1.22-6-.05-.216-.1-.44-.157-.673.166-.041.316-.091.473-.141,2.873-.955,4.742-2.491,4.742-4.069C1557.519,720.9,1555.767,719.442,1553.059,718.512Zm-6.751-4.218c1.852-1.611,3.587-2.25,4.376-1.794.839.482,1.162,2.433.639,5-.033.166-.074.332-.116.5a25.431,25.431,0,0,0-3.355-.531,25.894,25.894,0,0,0-2.117-2.649q.287-.277.574-.527Zm2.167,10.172q-.6,1.022-1.2,1.943c-.747.05-1.519.083-2.3.083s-1.536-.025-2.267-.075c-.432-.623-.839-1.27-1.23-1.943s-.746-1.345-1.071-2.026c.325-.673.681-1.345,1.063-2.018s.8-1.32,1.221-1.935c.747-.058,1.511-.083,2.283-.083s1.544.025,2.293.083c.415.606.814,1.254,1.2,1.926s.756,1.354,1.08,2.018c-.325.664-.682,1.345-1.08,2.026Zm-8.636-.756c.224.432.457.864.706,1.3s.515.872.789,1.287a21.916,21.916,0,0,1-2.308-.374,22.92,22.92,0,0,1,.814-2.213Zm-.008-2.524c-.307-.739-.581-1.47-.8-2.167.722-.158,1.478-.291,2.275-.39-.266.407-.515.83-.764,1.262s-.492.864-.714,1.3ZM1549.4,725c.257-.44.5-.88.731-1.329a23.218,23.218,0,0,1,.839,2.209,22.677,22.677,0,0,1-2.334.4c.258-.415.515-.836.764-1.279Zm.723-3.811c-.233-.432-.474-.864-.723-1.3s-.506-.847-.765-1.254a22.331,22.331,0,0,1,2.284.4c-.233.739-.5,1.453-.8,2.159Zm-5.14-5.588v-.008h.008l-.008.008a19.754,19.754,0,0,1,1.477,1.769c-.489-.025-.979-.033-1.486-.033s-.988.008-1.478.033c.491-.639.981-1.226,1.487-1.769Zm-5.772-3.072c.839-.482,2.69.208,4.65,1.943l.374.349a24.957,24.957,0,0,0-2.135,2.649,25.144,25.144,0,0,0-3.346.523c-.066-.266-.125-.523-.174-.781-.473-2.408-.158-4.224.631-4.683Zm-1.221,13.137c-.215-.066-.423-.125-.623-.191a9.171,9.171,0,0,1-2.931-1.561,2.221,2.221,0,0,1-.93-1.495c0-.913,1.363-2.076,3.629-2.865.274-.1.564-.191.863-.274a25.9,25.9,0,0,0,1.23,3.172,24.963,24.963,0,0,0-1.237,3.214Zm5.8,4.883a8.9,8.9,0,0,1-2.807,1.76,2.183,2.183,0,0,1-1.751.066c-.8-.457-1.121-2.217-.673-4.584.05-.266.108-.548.183-.83a24.536,24.536,0,0,0,3.38.49,26.4,26.4,0,0,0,2.15,2.657c-.157.158-.315.3-.481.44Zm1.23-1.212c-.507-.548-1.013-1.154-1.512-1.8q.722.025,1.469.025c.515,0,1.013-.008,1.511-.033a20.806,20.806,0,0,1-1.469,1.81Zm6.51,1.495a2.2,2.2,0,0,1-.814,1.553c-.8.465-2.482-.133-4.31-1.7-.208-.183-.415-.374-.631-.573a24.936,24.936,0,0,0,2.1-2.674,26.164,26.164,0,0,0,3.4-.523c.05.208.092.407.133.606a9.069,9.069,0,0,1,.117,3.313Zm.913-5.356s-.291-.482-.648-1.1-.789-1.387-1.046-1.935a27.206,27.206,0,0,0,1.221-3.131c.257.075.506.149.746.233,2.325.8,3.737,1.976,3.737,2.89,0,.971-1.529,2.225-4.01,3.047Z" transform="translate(-1532.433 -711.286)" fill="#999"/>
                    <path id="Path_8401" data-name="Path 8401" d="M1547.551,716.468l-.008.008v-.008Z" transform="translate(-1534.996 -712.165)" fill="#999"/>
                    <path id="Path_8402" data-name="Path 8402" d="M1549.317,724.24a2.243,2.243,0,1,1-2.242-2.242,2.243,2.243,0,0,1,2.242,2.242Z" transform="translate(-1534.536 -713.103)" fill="#999"/>
                  </g>
                  <g id="React-2" transform="translate(0 22.231)">
                    <g id="React-2-2" style="isolation: isolate">
                      <text id="React-2-2" data-name="React" transform="translate(0 10)" fill="#999" font-size="10" font-family="SourceSansPro-Regular, Source Sans Pro" style="isolation: isolate"><tspan x="0" y="0">React</tspan></text>
                    </g>
                  </g>
                </g>
              </g>
            </g>
          </g>
        </g>
      </g>
    </g>
  </g>
  <g id="Custom_Size_1-3" data-name="Custom Size – 1" clip-path="url(#clip-path)">
    <g id="Group_1-3" data-name="Group 1" transform="translate(16.748 16.4)">
      <g id="Component_148_1-3" data-name="Component 148 – 1" transform="translate(51.195 56.6)">
        <g id="circle-5" data-name="circle" transform="translate(-67.195 -65.6)">
          <path id="Path_8404-3" data-name="Path 8404" d="M1035.877,648.231" transform="translate(-941.22 -345.774)" fill="none" stroke="#627783" stroke-linecap="round" stroke-width="2"/>
          <g id="circle-6" data-name="circle">
            <g id="ellipse4">
              <path id="Ellipse_111" data-name="Ellipse 111" d="M1015.8,421a288.126,288.126,0,0,1,31.136-33.629" transform="translate(-937.814 -301.526)" fill="none" stroke="#999" stroke-linecap="round" stroke-width="1"/>
              <path id="Ellipse_111-2" data-name="Ellipse 111" d="M964.224,512.727a284.949,284.949,0,0,1,13.716-30.618" transform="translate(-929.066 -317.596)" fill="none" stroke="#999" stroke-linecap="round" stroke-width="1"/>
              <path id="Ellipse_111-3" data-name="Ellipse 111" d="M943.094,655.284q-1.137-12.743-1.145-25.792a287.76,287.76,0,0,1,5.74-57.341" transform="translate(-925.287 -332.869)" fill="none" stroke="#999" stroke-linecap="round" stroke-width="1"/>
              <path id="Ellipse_111-4" data-name="Ellipse 111" d="M976.951,789.208a284.552,284.552,0,0,1-25.6-67.691" transform="translate(-926.881 -358.205)" fill="none" stroke="#999" stroke-linecap="round" stroke-width="1"/>
              <path id="Ellipse_111-5" data-name="Ellipse 111" d="M1105.276,929.544a287.8,287.8,0,0,1-91.263-77.287" transform="translate(-937.511 -380.381)" fill="none" stroke="#999" stroke-linecap="round" stroke-width="1"/>
              <path id="Ellipse_111-6" data-name="Ellipse 111" d="M1229.679,979.884a284.6,284.6,0,0,1-70.207-18" transform="translate(-962.184 -398.977)" fill="none" stroke="#999" stroke-linecap="round" stroke-width="1"/>
              <path id="Ellipse_111-7" data-name="Ellipse 111" d="M1394.767,964.765a284.543,284.543,0,0,1-59.6,15.027" transform="translate(-991.985 -399.465)" fill="none" stroke="#999" stroke-linecap="round" stroke-width="1"/>
              <path id="Ellipse_111-8" data-name="Ellipse 111" d="M1544.089,849.562a287.887,287.887,0,0,1-87.433,76.466" transform="translate(-1012.593 -379.924)" fill="none" stroke="#999" stroke-linecap="round" stroke-width="1"/>
              <path id="Ellipse_111-9" data-name="Ellipse 111" d="M1617.328,711.347a284.744,284.744,0,0,1-36.649,92.1" transform="translate(-1033.631 -356.48)" fill="none" stroke="#999" stroke-linecap="round" stroke-width="1"/>
              <path id="Ellipse_111-10" data-name="Ellipse 111" d="M1624.554,569.818a287.09,287.09,0,0,1,6.034,51.414" transform="translate(-1041.073 -332.473)" fill="none" stroke="#999" stroke-linecap="round" stroke-width="1"/>
              <path id="Ellipse_111-11" data-name="Ellipse 111" d="M1591.9,479.717a285.047,285.047,0,0,1,12.4,26.6" transform="translate(-1035.533 -317.19)" fill="none" stroke="#999" stroke-linecap="round" stroke-width="1"/>
              <path id="Ellipse_111-12" data-name="Ellipse 111" d="M1519.828,386.659a288.28,288.28,0,0,1,30.294,32.35" transform="translate(-1023.309 -301.405)" fill="none" stroke="#999" stroke-linecap="round" stroke-width="1"/>
              <path id="Ellipse_111-13" data-name="Ellipse 111" d="M1098.334,342.769A286.688,286.688,0,0,1,1410.39,342" transform="translate(-951.814 -286.062)" fill="none" stroke="#999" stroke-linecap="round" stroke-width="1"/>
              <rect id="Rectangle_678" data-name="Rectangle 678" width="77" height="29" transform="translate(261.252 -0.4)" fill="#153243"/>
              <text id="DEVELOP" transform="translate(270.86 14.416)" fill="#fff" font-size="14" font-family="SourceSansPro-Bold, Source Sans Pro" font-weight="700" style="isolation: isolate"><tspan x="0" y="0">DEVELOP</tspan></text>
              <g id="cloud-2" data-name="cloud" transform="translate(0 47.305)" style="isolation: isolate">
                <g id="azure-logo" transform="translate(115.27 0.243)">
                  <g id="Azure" transform="translate(0 20.759)">
                    <g id="Azure-2" style="isolation: isolate">
                      <text id="Azure-2-2" data-name="Azure" transform="translate(0 10)" fill="#999" font-size="10" font-family="SourceSansPro-Regular, Source Sans Pro" style="isolation: isolate"><tspan x="0" y="0">Azure</tspan></text>
                    </g>
                  </g>
                  <path id="Icon_simple-microsoftazure" data-name="Icon simple-microsoftazure" d="M1069.46,361.816h20.473L1078.9,342.7l-3.359,9.227L1082,359.6Zm8.565-20.564-7.877,6.608-6.75,11.693h6.087v.016Z" transform="translate(-1061.158 -341.252)" fill="#999"/>
                </g>
                <g id="AWS" transform="translate(13.32 156.569)">
                  <path id="Icon_simple-amazonaws" data-name="Icon simple-amazonaws" d="M947.035,536.532a3.218,3.218,0,0,0,.119.957,5.772,5.772,0,0,0,.345.776.464.464,0,0,1,.076.249.43.43,0,0,1-.205.323l-.678.451a.518.518,0,0,1-.28.1.491.491,0,0,1-.322-.151,3.284,3.284,0,0,1-.387-.5c-.12-.207-.231-.415-.332-.635a3.975,3.975,0,0,1-3.161,1.483,2.949,2.949,0,0,1-2.15-.773,3.036,3.036,0,0,1,.184-4.28,3.911,3.911,0,0,1,2.631-.841,8.3,8.3,0,0,1,1.139.083c.4.054.808.14,1.237.237v-.786a2.375,2.375,0,0,0-.5-1.721A2.464,2.464,0,0,0,943,531a4.858,4.858,0,0,0-1.162.143,8.337,8.337,0,0,0-1.163.366,3.288,3.288,0,0,1-.377.14.7.7,0,0,1-.171.031c-.151,0-.227-.108-.227-.332v-.524a.674.674,0,0,1,.076-.377.792.792,0,0,1,.3-.225,6.1,6.1,0,0,1,1.354-.485,6.5,6.5,0,0,1,1.678-.2,3.925,3.925,0,0,1,2.817.872,3.554,3.554,0,0,1,.9,2.647v3.488Zm-4.364,1.636a3.513,3.513,0,0,0,1.107-.194,2.4,2.4,0,0,0,1.021-.687,1.716,1.716,0,0,0,.366-.69,3.933,3.933,0,0,0,.108-.935v-.451a8.933,8.933,0,0,0-.99-.184,8.079,8.079,0,0,0-1.011-.066,2.476,2.476,0,0,0-1.6.431,1.537,1.537,0,0,0,1,2.773Zm8.636,1.163a.6.6,0,0,1-.409-.108.88.88,0,0,1-.227-.415l-2.527-8.318a1.876,1.876,0,0,1-.1-.431.236.236,0,0,1,.2-.268.231.231,0,0,1,.058,0h1.055a.6.6,0,0,1,.415.108.852.852,0,0,1,.216.42l1.808,7.118,1.677-7.118a.766.766,0,0,1,.2-.42.737.737,0,0,1,.432-.108h.859a.661.661,0,0,1,.431.108.728.728,0,0,1,.2.42l1.7,7.2,1.86-7.2a.92.92,0,0,1,.216-.42.7.7,0,0,1,.415-.108h1a.241.241,0,0,1,.269.208.362.362,0,0,1,0,.061,1.1,1.1,0,0,1-.023.173,1.581,1.581,0,0,1-.076.269l-2.591,8.311a.82.82,0,0,1-.227.415.693.693,0,0,1-.409.108h-.913a.652.652,0,0,1-.431-.108.775.775,0,0,1-.2-.431l-1.667-6.931-1.661,6.924a.851.851,0,0,1-.2.431.669.669,0,0,1-.431.108Zm13.816.29a7.209,7.209,0,0,1-1.655-.193A4.939,4.939,0,0,1,962.23,539a.615.615,0,0,1-.4-.6v-.548c0-.225.083-.332.249-.332a.6.6,0,0,1,.194.032c.065.022.166.065.269.108a5.892,5.892,0,0,0,1.182.376,6.5,6.5,0,0,0,1.28.13,2.905,2.905,0,0,0,1.57-.355,1.165,1.165,0,0,0,.559-1.021,1.044,1.044,0,0,0-.29-.753,2.723,2.723,0,0,0-1.087-.559l-1.558-.485a3.271,3.271,0,0,1-1.721-1.1,2.559,2.559,0,0,1-.539-1.56,2.4,2.4,0,0,1,.291-1.193,2.74,2.74,0,0,1,.771-.884,3.384,3.384,0,0,1,1.118-.559,4.678,4.678,0,0,1,1.355-.183,5.361,5.361,0,0,1,.721.043c.249.032.472.076.7.119a4.789,4.789,0,0,1,.613.171,2.308,2.308,0,0,1,.452.194.943.943,0,0,1,.323.269.588.588,0,0,1,.1.355v.5c0,.227-.083.344-.249.344a1.12,1.12,0,0,1-.409-.13,4.919,4.919,0,0,0-2.063-.415,2.767,2.767,0,0,0-1.431.3,1.035,1.035,0,0,0-.5.957,1.011,1.011,0,0,0,.323.764,3.182,3.182,0,0,0,1.182.593l1.528.482a3.277,3.277,0,0,1,1.667,1.033,2.434,2.434,0,0,1,.5,1.5,2.775,2.775,0,0,1-.279,1.246,2.915,2.915,0,0,1-.785.947,3.466,3.466,0,0,1-1.193.6,5.139,5.139,0,0,1-1.539.225Zm2.032,5.223a23.193,23.193,0,0,1-13.1,4,23.7,23.7,0,0,1-15.99-6.1c-.332-.3-.032-.71.366-.472a31.778,31.778,0,0,0,28.206,1.756c.585-.273,1.1.383.514.812Zm1.474-1.678c-.453-.581-2.989-.279-4.141-.139-.344.043-.4-.258-.083-.485,2.02-1.418,5.344-1.011,5.73-.537s-.108,3.807-2,5.4c-.29.249-.57.119-.44-.2.431-1.065,1.388-3.462.936-4.033Z" transform="translate(-937.925 -529.51)" fill="#999"/>
                </g>
                <g id="gcloud" transform="translate(458.91)">
                  <g id="Google_Cloud" data-name="Google Cloud" transform="translate(0 20.895)">
                    <g id="Google" style="isolation: isolate">
                      <text id="Google-2" data-name="Google" transform="translate(0 10)" fill="#999" font-size="10" font-family="SourceSansPro-Regular, Source Sans Pro" style="isolation: isolate"><tspan x="0" y="0">Google</tspan></text>
                    </g>
                    <g id="Cloud-2-2" data-name="Cloud-2" transform="translate(3.051 14.947)" style="isolation: isolate">
                      <text id="Cloud-3" data-name="Cloud" transform="translate(0 10)" fill="#999" font-size="10" font-family="SourceSansPro-Regular, Source Sans Pro" style="isolation: isolate"><tspan x="0" y="0">Cloud</tspan></text>
                    </g>
                  </g>
                  <path id="Icon_simple-googlecloud" data-name="Icon simple-googlecloud" d="M1495.376,340.962a9,9,0,0,0-8.891,6.637c.051-.019-.053.012,0,0a6.451,6.451,0,0,0-.234,10.533l.006-.007-.007.029a6.473,6.473,0,0,0,3.926,1.3h4.982l.029.029h5a6.5,6.5,0,0,0,6.555-6.452h0a6.506,6.506,0,0,0-2.862-5.44,9.017,9.017,0,0,0-2.717-4.383l-.042.042.006-.048a9,9,0,0,0-5.745-2.247Zm-.344,3.992a5.144,5.144,0,0,1,3.356,1.107,4.994,4.994,0,0,1,1.793,3.927v.5a2.5,2.5,0,0,1,0,5h-5l-.007.008v-.038h-5a2.487,2.487,0,0,1-1.027-.222h0a2.5,2.5,0,1,1,3.309-3.309l2.9-2.9a6.5,6.5,0,0,0-3.911-2.421c.018-.01.038-.025.052-.022a4.992,4.992,0,0,1,3.534-1.628Z" transform="translate(-1476.081 -340.959)" fill="#999"/>
                </g>
                <g id="others" transform="translate(0 67.947)">
                  <g id="Ionic_Logo" data-name="Ionic Logo" transform="translate(508.702 332.157)">
                    <path id="Path_8101" data-name="Path 8101" d="M1544.852,828.9a4.245,4.245,0,0,0-4.245,4.245h0a4.244,4.244,0,0,0,4.244,4.245h0a4.245,4.245,0,0,0,4.245-4.245h0a4.245,4.245,0,0,0-4.245-4.245Z" transform="translate(-1535.535 -823.829)" fill="#999"/>
                    <circle id="Ellipse_105" data-name="Ellipse 105" cx="1.934" cy="1.934" r="1.934" transform="translate(13.477 1.583)" fill="#999"/>
                    <path id="Path_8102" data-name="Path 8102" d="M1552.292,828.254l-.083-.178-.127.147a2.922,2.922,0,0,1-1.167.8l-.127.046.051.127a7.615,7.615,0,0,1-4.106,9.954h0a7.614,7.614,0,1,1,.341-13.908l.119.057.052-.127a2.9,2.9,0,0,1,.859-1.127l.152-.127-.174-.09a9.192,9.192,0,0,0-4.27-1.038,9.313,9.313,0,0,0-9.313,9.314h0a9.314,9.314,0,1,0,17.788-3.866Z" transform="translate(-1534.499 -822.793)" fill="#999"/>
                    <rect id="Rectangle_336" data-name="Rectangle 336" width="1.964" height="8.109" transform="translate(23.423 5.264)" fill="#999"/>
                    <rect id="Rectangle_337" data-name="Rectangle 337" width="1.964" height="8.109" transform="translate(44.618 5.264)" fill="#999"/>
                    <path id="Path_8103" data-name="Path 8103" d="M1581.862,828.9a4.281,4.281,0,0,0-2.693,1.062h0l-.127-.872h-1.631v8.11h1.964v-4.91c0-.958,1.308-1.751,2.265-1.751a1.852,1.852,0,0,1,1.675,2V837.2h1.964v-4.462C1585.269,830.615,1584.351,828.9,1581.862,828.9Z" transform="translate(-1541.778 -823.829)" fill="#999"/>
                    <path id="Path_8104" data-name="Path 8104" d="M1595.938,835.729a2.584,2.584,0,0,1,0-5.162,2.688,2.688,0,0,1,2.028,1.221l1.423-.952a4.341,4.341,0,0,0-1.535-1.407A3.62,3.62,0,0,0,1596,828.9a4.246,4.246,0,1,0-.168,8.49H1596a3.631,3.631,0,0,0,1.848-.526,4.349,4.349,0,0,0,1.536-1.407l-1.423-.952a2.669,2.669,0,0,1-2.023,1.224Z" transform="translate(-1544.196 -823.829)" fill="#999"/>
                    <path id="Path_8403" data-name="Path 8403" d="M1570.514,828.911h-.141a4.243,4.243,0,1,0,4.243,4.26,4.183,4.183,0,0,0-4.1-4.26Zm-.108,6.5a2.416,2.416,0,0,1-2.425-2.406v0a2.425,2.425,0,0,1,2.417-2.425h.008a2.421,2.421,0,1,1,.007,4.842Z" transform="translate(-1539.863 -823.831)" fill="#999"/>
                  </g>
                  <g id="apple" transform="translate(173.384 424.018)">
                    <path id="Icon_awesome-apple" data-name="Icon awesome-apple" d="M1144.89,944.1a4.211,4.211,0,0,1,2.253-3.827,4.848,4.848,0,0,0-3.82-2.013c-1.6-.126-3.354.934-3.994.934-.677,0-2.229-.889-3.448-.889-2.522.041-5.195,2.008-5.195,6.012a11.244,11.244,0,0,0,.65,3.665c.581,1.656,2.663,5.719,4.839,5.646,1.137-.027,1.94-.808,3.421-.808,1.435,0,2.18.808,3.448.808,2.194-.032,4.081-3.723,4.631-5.385a4.475,4.475,0,0,1-2.785-4.152Zm-2.555-7.411a4.25,4.25,0,0,0,1.08-3.272A4.785,4.785,0,0,0,1140.35,935a4.315,4.315,0,0,0-1.155,3.245,3.793,3.793,0,0,0,3.138-1.55Z" transform="translate(-1130.685 -933.418)" fill="#999"/>
                    <g id="Ios" transform="translate(0.843 22.282)" style="isolation: isolate">
                      <text id="Ios-2" data-name="Ios" transform="translate(0 10)" fill="#999" font-size="10" font-family="SourceSansPro-Regular, Source Sans Pro" style="isolation: isolate"><tspan x="0" y="0">Ios</tspan></text>
                    </g>
                  </g>
                  <g id="swift" transform="translate(43.027 320.822)">
                    <path id="Icon_simple-swift" data-name="Icon simple-swift" d="M998.4,823.613c.054-.108.054-.216.108-.324,1.3-5.079-1.782-11.015-7.077-14.147a12.414,12.414,0,0,1,2.431,10.205,5.336,5.336,0,0,1-.27.864,4.965,4.965,0,0,1-.433-.27,66.035,66.035,0,0,1-10.849-8.909,65.125,65.125,0,0,0,6.587,8.258,71.652,71.652,0,0,1-9.4-7.125,12.443,12.443,0,0,0,1.3,1.782,55.444,55.444,0,0,0,9.612,10.043c-2.754,1.676-6.588,1.782-10.476,0a15.546,15.546,0,0,1-2.7-1.619,15.94,15.94,0,0,0,7.182,6.1,11.388,11.388,0,0,0,9.935,0h.055a1.119,1.119,0,0,0,.324-.216c1.3-.648,3.834-1.35,5.238,1.35C1000.343,830.362,1001.046,826.853,998.4,823.613Z" transform="translate(-974.3 -809.142)" fill="#999"/>
                    <g id="Swift-2" transform="translate(0 23.342)" style="isolation: isolate">
                      <text id="Swift-2-2" data-name="Swift" transform="translate(0 10)" fill="#999" font-size="10" font-family="SourceSansPro-Regular, Source Sans Pro" style="isolation: isolate"><tspan x="0" y="0">Swift</tspan></text>
                    </g>
                  </g>
                  <g id="php" transform="translate(0 214.395)">
                    <path id="Icon_simple-php" data-name="Icon simple-php" d="M932.563,687.859h-1.439l-.785,4.034h1.276a3.094,3.094,0,0,0,1.893-.482,2.544,2.544,0,0,0,.838-1.6,1.746,1.746,0,0,0-.189-1.515,2.149,2.149,0,0,0-1.595-.442Zm7.6-6.884c-10.095,0-18.28,4.3-18.28,9.615s8.185,9.617,18.28,9.617,18.279-4.306,18.279-9.617-8.183-9.615-18.278-9.615Zm-4.966,11.35a3.706,3.706,0,0,1-1.4.839,6.524,6.524,0,0,1-1.957.249h-1.8l-.5,2.561h-2.1l1.873-9.632h4.037a3.348,3.348,0,0,1,2.657.957,2.989,2.989,0,0,1,.5,2.669,4.2,4.2,0,0,1-1.307,2.357Zm6.13,1.089.83-4.264a1.15,1.15,0,0,0-.1-.992,1.464,1.464,0,0,0-1.046-.265H939.35l-1.072,5.522H936.19l1.873-9.638h2.083l-.5,2.563H941.5a3.609,3.609,0,0,1,2.416.611,2.021,2.021,0,0,1,.4,1.979l-.871,4.484Zm11.573-3.45a4.257,4.257,0,0,1-.465,1.29,4.368,4.368,0,0,1-.854,1.071,3.737,3.737,0,0,1-1.4.84,6.539,6.539,0,0,1-1.959.249h-1.8l-.5,2.563h-2.1l1.873-9.632h4.036a3.351,3.351,0,0,1,2.657.957,2.992,2.992,0,0,1,.512,2.662Zm-3.953-2.1H947.51l-.786,4.034H948a3.091,3.091,0,0,0,1.892-.478,2.552,2.552,0,0,0,.84-1.6,1.747,1.747,0,0,0-.19-1.516,2.146,2.146,0,0,0-1.6-.442Z" transform="translate(-921.884 -680.975)" fill="#999"/>
                  </g>
                  <g id="android" transform="translate(406.733 416.613)">
                    <path id="Icon_awesome-android" data-name="Icon awesome-android" d="M1425.671,934.588v6.761a1.6,1.6,0,0,1-1.583,1.618h-.023a1.744,1.744,0,0,1-1.757-1.618v-6.761a1.743,1.743,0,0,1,1.757-1.606,1.612,1.612,0,0,1,1.606,1.606Zm.63,9.167a1.724,1.724,0,0,0,1.721,1.729h1.171l.017,3.571a1.611,1.611,0,0,0,1.645,1.578h0a1.611,1.611,0,0,0,1.577-1.578v-3.571h2.172v3.571a1.62,1.62,0,0,0,3.239,0v-3.571h1.179a1.723,1.723,0,0,0,1.716-1.728h0V933.277H1426.3Zm14.483-11.044h-14.547a6.558,6.558,0,0,1,3.713-5.8l-1.115-2.061a.225.225,0,0,1,.07-.311h0a.224.224,0,0,1,.31.07h0l.01.018,1.133,2.076a7.888,7.888,0,0,1,6.323,0l1.127-2.076a.223.223,0,0,1,.3-.1h0a.226.226,0,0,1,.1.3h0l-.011.018-1.115,2.061a6.578,6.578,0,0,1,3.7,5.807Zm-9.964-3.238a.613.613,0,0,0-.613-.613h0a.613.613,0,0,0-.59.636h0a.6.6,0,1,0,1.2-.025Zm6.62,0a.6.6,0,0,0-.613-.6h0a.6.6,0,1,0,.017,1.209h0a.61.61,0,0,0,.591-.614Zm5.535,3.509a1.6,1.6,0,0,0-1.61,1.592h0v6.773a1.611,1.611,0,0,0,1.6,1.618h0a1.745,1.745,0,0,0,1.757-1.618v-6.761a1.728,1.728,0,0,0-1.757-1.606Z" transform="translate(-1413.5 -924.501)" fill="#999"/>
                    <g id="Android-2" transform="translate(0 28.026)" style="isolation: isolate">
                      <text id="Android-2-2" data-name="Android" transform="translate(0 10)" fill="#999" font-size="10" font-family="SourceSansPro-Regular, Source Sans Pro" style="isolation: isolate"><tspan x="0" y="0">Android</tspan></text>
                    </g>
                  </g>
                  <g id="laravel" transform="translate(564.19 187.104)">
                    <g id="Group_953" data-name="Group 953" transform="translate(7.863)">
                      <path id="Path_8351" data-name="Path 8351" d="M1610.791,651.49a.686.686,0,0,1,.371-.392q2.516-1.445,5.026-2.9a.544.544,0,0,1,.606,0q2.56,1.482,5.126,2.953a.52.52,0,0,1,.272.5v11.181c.121-.068.22-.122.317-.178l3.971-2.284a.194.194,0,0,0,.111-.2v-5.54a.524.524,0,0,1,.288-.5q2.573-1.475,5.136-2.956a.5.5,0,0,1,.546,0q2.573,1.485,5.148,2.963a.509.509,0,0,1,.278.483v5.865a.517.517,0,0,1-.285.489q-2.439,1.395-4.871,2.8a.187.187,0,0,0-.11.186q0,2.773,0,5.545a.539.539,0,0,1-.3.517q-5.179,2.976-10.352,5.96a.567.567,0,0,1-.627,0q-5.187-2.99-10.38-5.979a.615.615,0,0,1-.271-.332Zm10.534,23.417v-4.912a.226.226,0,0,0-.134-.231c-1.6-.9-3.193-1.808-4.794-2.705a.6.6,0,0,1-.341-.581q.01-5.751.007-11.5a.2.2,0,0,0-.112-.2l-4.169-2.4c-.035-.02-.071-.037-.127-.066v16.857a.247.247,0,0,0,.141.249q4.27,2.452,8.536,4.912Zm.864,0,.137-.074,9.422-5.421a.188.188,0,0,0,.109-.187v-4.888l-.128.066-9.433,5.382a.186.186,0,0,0-.107.188V674.9Zm-5.265-9.044c.05-.025.083-.039.115-.057l4.178-2.4a.188.188,0,0,0,.11-.187V652.445a.811.811,0,0,0-.008-.134l-.1.055-4.179,2.4a.191.191,0,0,0-.113.2v10.747Zm.449.753.107.066,4.184,2.372a.173.173,0,0,0,.195-.009q4.671-2.669,9.343-5.334c.065-.037.129-.077.207-.123l-.118-.072-4.157-2.4a.194.194,0,0,0-.225,0l-9.422,5.427a.736.736,0,0,0-.114.069Zm-5.275-15.051.11.069q2.089,1.2,4.177,2.408a.187.187,0,0,0,.216,0l4.166-2.4c.034-.02.068-.042.115-.071l-.11-.071q-2.093-1.206-4.186-2.408a.166.166,0,0,0-.2.007q-2.053,1.185-4.108,2.367Zm15.792,2.978.117.074,4.167,2.4a.186.186,0,0,0,.215,0q2.058-1.191,4.116-2.374c.052-.03.1-.061.166-.1l-.116-.072q-2.093-1.206-4.186-2.408a.151.151,0,0,0-.175,0q-1.959,1.131-3.92,2.259Zm3.956,8.285c0-.051.008-.088.008-.124v-4.773a.168.168,0,0,0-.093-.162l-4.178-2.4-.13-.069c0,.054-.008.091-.008.127V660.2a.166.166,0,0,0,.091.166q2.1,1.206,4.2,2.415c.032.014.066.028.112.051Zm5.266-7.527c-.048.025-.076.037-.1.052l-4.2,2.415a.174.174,0,0,0-.1.179v4.888l.125-.066,4.168-2.4a.188.188,0,0,0,.106-.189V655.3Z" transform="translate(-1610.791 -648.11)" fill="#999"/>
                    </g>
                    <g id="Laravel-2" transform="translate(0 28.082)">
                      <g id="Laravel-2-2" style="isolation: isolate">
                        <text id="Laravel-2-2" data-name="Laravel" transform="translate(0 10)" fill="#999" font-size="10" font-family="SourceSansPro-Regular, Source Sans Pro" style="isolation: isolate"><tspan x="0" y="0">Laravel</tspan></text>
                      </g>
                    </g>
                  </g>
                  <g id="github" transform="translate(555.58 82.237)">
                    <path id="Icon_awesome-github" data-name="Icon awesome-github" d="M1605.307,539.4c0,.091-.1.166-.235.166s-.249-.059-.249-.166c0-.09.1-.166.235-.166S1605.307,539.293,1605.307,539.4Zm-1.4-.2c-.031.091.059.194.194.221a.212.212,0,0,0,.28-.091c.028-.09-.059-.194-.194-.235a.232.232,0,0,0-.281.105Zm1.993-.076c-.131.032-.221.117-.208.221s.131.149.267.117.221-.117.208-.208-.135-.144-.265-.13Zm2.971-17.3a10.823,10.823,0,0,0-11.048,10.593v.419a11.317,11.317,0,0,0,7.65,10.795c.581.1.781-.249.781-.546,0-.28-.013-1.827-.013-2.771,0,0-3.156.677-3.82-1.345,0,0-.515-1.314-1.255-1.652,0,0-1.034-.708.072-.7a2.383,2.383,0,0,1,1.744,1.163,2.386,2.386,0,0,0,3.229.977l.06-.033a2.5,2.5,0,0,1,.723-1.521c-2.523-.28-5.065-.645-5.065-4.987a3.419,3.419,0,0,1,1.065-2.657,4.269,4.269,0,0,1,.109-3.062c.947-.294,3.114,1.218,3.114,1.218a10.663,10.663,0,0,1,5.669,0s2.171-1.516,3.114-1.219a4.261,4.261,0,0,1,.117,3.065,3.507,3.507,0,0,1,1.163,2.657c0,4.355-2.657,4.7-5.181,4.987a2.668,2.668,0,0,1,.767,2.094c0,1.521-.013,3.4-.013,3.773,0,.293.208.65.781.546a11.211,11.211,0,0,0,7.576-10.786,11.068,11.068,0,0,0-11.119-11.016h-.22Zm-6.662,15.567c-.059.045-.045.149.031.235s.176.1.235.045.045-.149-.032-.235-.178-.1-.237-.045Zm-.488-.365c-.031.059.013.131.1.176a.134.134,0,0,0,.188-.023h0l.005-.008c.031-.059-.013-.131-.1-.176-.09-.026-.166-.014-.191.031Zm1.462,1.6c-.072.059-.045.194.059.28s.235.117.293.045a.216.216,0,0,0-.059-.28C1603.385,538.585,1603.242,538.557,1603.183,538.626Zm-.515-.664c-.072.045-.072.166,0,.267s.194.149.249.1a.206.206,0,0,0,0-.28.175.175,0,0,0-.249-.083Z" transform="translate(-1592.118 -521.821)" fill="#999"/>
                    <g id="GitHub_" data-name="GitHub " transform="translate(0 22.869)">
                      <g id="GitHub-2" style="isolation: isolate">
                        <text id="GitHub-2-2" data-name="GitHub" transform="translate(0 10)" fill="#999" font-size="10" font-family="SourceSansPro-Regular, Source Sans Pro" style="isolation: isolate"><tspan x="0" y="0">GitHub</tspan></text>
                      </g>
                    </g>
                  </g>
                  <g id="node.js" transform="translate(42.867)">
                    <g id="Icon_ionic-logo-nodejs" data-name="Icon ionic-logo-nodejs" transform="translate(10.263)">
                      <path id="Path_8436" data-name="Path 8436" d="M997.072,448.943a1.9,1.9,0,0,1-.972-.268l-3.093-1.891c-.462-.267-.235-.362-.083-.415a6.724,6.724,0,0,0,1.454-.722.233.233,0,0,1,.231.019l2.318,1.373a.3.3,0,0,0,.288,0l9.062-5.387a.308.308,0,0,0,.141-.259V430.485a.315.315,0,0,0-.143-.264l-9.057-5.525a.28.28,0,0,0-.286,0l-9.051,5.527a.307.307,0,0,0-.147.262v10.907a.3.3,0,0,0,.145.257l2.332,1.4c1.378.712,2.2-.01,2.2-.853V431.469a.27.27,0,0,1,.265-.276H994a.272.272,0,0,1,.268.275h0v10.725a2.71,2.71,0,0,1-2.409,2.98,2.78,2.78,0,0,1-.463.009,3.864,3.864,0,0,1-2.134-.6l-2.428-1.446a2.038,2.038,0,0,1-.97-1.745V430.329a2.03,2.03,0,0,1,.973-1.744l9.264-5.542a1.966,1.966,0,0,1,1.946,0l9.263,5.539a2.037,2.037,0,0,1,.973,1.744v11.066a2.044,2.044,0,0,1-.973,1.749l-9.263,5.533a1.9,1.9,0,0,1-.975.27Z" transform="translate(-985.867 -422.785)" fill="#999"/>
                      <path id="Path_8437" data-name="Path 8437" d="M1001.806,443.091c-3.772,0-4.9-1.846-4.9-3.46a.27.27,0,0,1,.264-.277h1.2a.27.27,0,0,1,.266.234c.18,1.261.978,1.819,3.172,1.819,1.95,0,2.749-.6,2.749-1.675,0-.619-.2-1.079-3.239-1.383-2.535-.259-4.1-.84-4.1-2.936,0-1.935,1.578-3.065,4.218-3.065,2.693,0,4.464.817,4.623,2.968a.3.3,0,0,1-.072.213.265.265,0,0,1-.193.09h-1.2a.268.268,0,0,1-.261-.217c-.257-.99-.991-1.366-2.894-1.366-2.13,0-2.379.747-2.379,1.32,0,.7.294.9,3.17,1.3,2.847.389,4.2.941,4.2,3.01,0,2.089-1.682,3.432-4.617,3.432Z" transform="translate(-987.739 -424.408)" fill="#999"/>
                    </g>
                    <g id="Node.js-2" transform="translate(0 28.711)" style="isolation: isolate">
                      <text id="Node.js-2-2" data-name="Node.js" transform="translate(0 10)" fill="#999" font-size="10" font-family="SourceSansPro-Regular, Source Sans Pro" style="isolation: isolate"><tspan x="0" y="0">Node.js</tspan></text>
                    </g>
                  </g>
                  <g id="python" transform="translate(521.165 2.315)">
                    <g id="Icon_ionic-logo-python" data-name="Icon ionic-logo-python" transform="translate(5.648)">
                      <path id="Path_8438" data-name="Path 8438" d="M1563.865,436.379a3.767,3.767,0,0,1,.677-.061h5.883a2.828,2.828,0,0,0,.754-.1,2.628,2.628,0,0,0,1.947-2.549v-5.094a3,3,0,0,0-2.7-2.779,22,22,0,0,0-3.22-.219,15.574,15.574,0,0,0-2.585.219c-2.289.4-2.706,1.236-2.706,2.779v1.672h5.6v.934h-7.425c-2.08,0-3.768,2.485-3.784,5.564v.044a8.1,8.1,0,0,0,.157,1.6c.465,2.316,1.91,4,3.628,4h.886V439.7a3.452,3.452,0,0,1,2.888-3.325Zm.6-7.126a1.02,1.02,0,1,1,1.016-1.024v.007a1.017,1.017,0,0,1-1.015,1.016Z" transform="translate(-1556.309 -425.574)" fill="#999"/>
                      <path id="Path_8439" data-name="Path 8439" d="M1579.637,435.976c-.536-2.132-1.922-3.654-3.548-3.654h-.886V434.7a3.55,3.55,0,0,1-2.89,3.66,3.165,3.165,0,0,1-.485.037h-6.062a2.985,2.985,0,0,0-.762.1,2.506,2.506,0,0,0-1.946,2.426v5.093c0,1.45,1.458,2.3,2.889,2.718a9.9,9.9,0,0,0,5.627,0c1.36-.389,2.694-1.175,2.694-2.718v-1.543h-5.6v-.934h7.425c1.474,0,2.75-1.246,3.375-3.068a7.861,7.861,0,0,0,.409-2.537,8.058,8.058,0,0,0-.24-1.958Zm-7.945,9.358a1.02,1.02,0,1,1-1.016,1.024v-.008a1.015,1.015,0,0,1,1.015-1.017Z" transform="translate(-1557.454 -426.718)" fill="#999"/>
                    </g>
                    <g id="Python-2" transform="translate(0 26.395)" style="isolation: isolate">
                      <text id="Python-2-2" data-name="Python" transform="translate(0 10)" fill="#999" font-size="10" font-family="SourceSansPro-Regular, Source Sans Pro" style="isolation: isolate"><tspan x="0" y="0">Python</tspan></text>
                    </g>
                  </g>
                </g>
                <g id="bhoomi" transform="translate(273.248 521.255)">
                  <circle id="Ellipse_115" data-name="Ellipse 115" cx="1.449" cy="1.449" r="1.449" transform="translate(61.277 1.593)" fill="#999"/>
                  <path id="Path_8440" data-name="Path 8440" d="M1273.853,976.471a5.823,5.823,0,1,1-.225,0C1273.7,976.468,1273.778,976.469,1273.853,976.471Zm0,9.591a3.7,3.7,0,1,0-3.674-3.728v.023a3.594,3.594,0,0,0,3.481,3.7A1.555,1.555,0,0,0,1273.853,986.062Z" transform="translate(-1253.816 -970.011)" fill="#999"/>
                  <path id="Path_8441" data-name="Path 8441" d="M1289.97,976.471a5.821,5.821,0,1,1-.223,0C1289.821,976.468,1289.9,976.469,1289.97,976.471Zm0,9.591a3.7,3.7,0,1,0-3.672-3.72v.026a3.594,3.594,0,0,0,3.494,3.694Z" transform="translate(-1256.55 -970.011)" fill="#999"/>
                  <path id="Path_8442" data-name="Path 8442" d="M1325.084,987.752V976.728a.254.254,0,0,1,.249-.257h1.822a.255.255,0,0,1,.257.249v11.027a.254.254,0,0,1-.254.254h-1.822a.254.254,0,0,1-.254-.254Z" transform="translate(-1263.523 -970.012)" fill="#999"/>
                  <path id="Path_8443" data-name="Path 8443" d="M1314.062,976.394a4.671,4.671,0,0,0-4.036,2.107,4.292,4.292,0,0,0-4.026-2.107,3.948,3.948,0,0,0-3.423,1.668v-1.8a.256.256,0,0,0-.384-.221l-1.891,1.093a.134.134,0,0,0-.069.117V987.68a.254.254,0,0,0,.254.254h1.833a.255.255,0,0,0,.257-.249v-6.122a2.865,2.865,0,0,1,3.058-2.954c1.682,0,2.671,1.08,2.671,2.954v6.111a.254.254,0,0,0,.254.254h1.827a.25.25,0,0,0,.254-.244V981.42a2.863,2.863,0,0,1,2.908-2.819,1.141,1.141,0,0,1,.153.007c1.647,0,2.657,1.079,2.657,2.954v6.113a.254.254,0,0,0,.254.254h1.833a.254.254,0,0,0,.254-.254h0v-6.607a4.311,4.311,0,0,0-4.638-4.674Z" transform="translate(-1259.309 -969.934)" fill="#999"/>
                  <path id="Path_8444" data-name="Path 8444" d="M1257.446,975.152a6.044,6.044,0,0,0-4.172,1.589v-7.8a.254.254,0,0,0-.378-.221l-1.877,1.084a.134.134,0,0,0-.071.119v16.5a.254.254,0,0,0,.254.254h1.827a.254.254,0,0,0,.254-.254h0v-1.1a6.046,6.046,0,0,0,4.17,1.587,5.886,5.886,0,1,0,.189-11.77A1.262,1.262,0,0,1,1257.446,975.152Zm0,9.591a3.61,3.61,0,0,1-3.675-3.544c0-.054,0-.107,0-.161a3.6,3.6,0,0,1,3.506-3.7h.165a3.6,3.6,0,0,1,3.674,3.534v.163a3.6,3.6,0,0,1-3.5,3.7A.964.964,0,0,1,1257.446,984.743Z" transform="translate(-1250.949 -968.692)" fill="#999"/>
                </g>
              </g>
            </g>
          </g>
        </g>
      </g>
    </g>
  </g>
</svg>
