<svg id="ellipse3" xmlns="http://www.w3.org/2000/svg" width="495.475" height="490.951" viewBox="0 0 495.475 490.951">
  <path id="Ellipse_112" data-name="Ellipse 112" d="M1031.261,571.724a228.792,228.792,0,0,1,34.782-79.276" transform="translate(-1006.311 -378.674)" fill="none" stroke="#999" stroke-linecap="round" stroke-width="1"/>
  <path id="Ellipse_112-2" data-name="Ellipse 112" d="M1031.58,699.144a229.487,229.487,0,0,1-5.85-35.521" transform="translate(-1005.629 -399.764)" fill="none" stroke="#999" stroke-linecap="round" stroke-width="1"/>
  <path id="Ellipse_112-3" data-name="Ellipse 112" d="M1096.9,820.073a230.812,230.812,0,0,1-39.45-52.108" transform="translate(-1009.537 -412.62)" fill="none" stroke="#999" stroke-linecap="round" stroke-width="1"/>
  <path id="Ellipse_112-4" data-name="Ellipse 112" d="M1254.1,898.141a228.6,228.6,0,0,1-102.952-32.684" transform="translate(-1021.081 -424.631)" fill="none" stroke="#999" stroke-linecap="round" stroke-width="1"/>
  <path id="Ellipse_112-5" data-name="Ellipse 112" d="M1406.565,868.554a228.448,228.448,0,0,1-79.559,27.883" transform="translate(-1042.749 -425.013)" fill="none" stroke="#999" stroke-linecap="round" stroke-width="1"/>
  <path id="Ellipse_112-6" data-name="Ellipse 112" d="M1516.059,757.243a230.618,230.618,0,0,1-44.376,61.51" transform="translate(-1060.574 -411.299)" fill="none" stroke="#999" stroke-linecap="round" stroke-width="1"/>
  <path id="Ellipse_112-7" data-name="Ellipse 112" d="M1548.5,641.089q0,1.906-.032,3.805a230.37,230.37,0,0,1-6.053,48.971" transform="translate(-1069.288 -396.988)" fill="none" stroke="#999" stroke-linecap="round" stroke-width="1"/>
  <path id="Ellipse_112-8" data-name="Ellipse 112" d="M1517.309,515.359a228.539,228.539,0,0,1,20.071,49.8" transform="translate(-1066.195 -381.497)" fill="none" stroke="#999" stroke-linecap="round" stroke-width="1"/>
  <path id="Ellipse_112-9" data-name="Ellipse 112" d="M1093.311,453.762a229.975,229.975,0,0,1,327.828-12.143" transform="translate(-1013.956 -364.672)" fill="none" stroke="#999" stroke-linecap="round" stroke-width="1"/>
  <rect id="Rectangle_677" data-name="Rectangle 677" width="65" height="30" transform="translate(215.049)" fill="#153243"/>
  <text id="DESIGN" transform="translate(221.049 19.824)" fill="#fff" font-size="16" font-family="SourceSansPro-Bold, Source Sans Pro" font-weight="700" style="isolation: isolate"><tspan x="0" y="0">DESIGN</tspan></text>
  <g id="design-frontend" transform="translate(0 86.228)" style="isolation: isolate">
    <g id="aobecc" transform="translate(0 113.485)">
      <path id="Icon_simple-adobecreativecloud" data-name="Icon simple-adobecreativecloud" d="M1038.639,601.778v1.052c-.01.058-.023.115-.029.171-.052.46-.088.922-.163,1.378a11.409,11.409,0,0,1-1.547,4.135,11.646,11.646,0,0,1-4.794,4.419,11.1,11.1,0,0,1-3.7,1.109c-.286.034-.573.064-.857.1h-11.089c-.056-.01-.111-.026-.168-.032a9.312,9.312,0,0,1-3.22-.789,9.9,9.9,0,0,1-4.986-4.822,9.6,9.6,0,0,1-.921-3.117l-.093-.783v-1.026a1.734,1.734,0,0,0,.03-.175,9.577,9.577,0,0,1,.607-2.861,9.937,9.937,0,0,1,4.916-5.5,9.485,9.485,0,0,1,3.851-1.013,10.424,10.424,0,0,1,1.976.094.248.248,0,0,0,.187-.062,11.68,11.68,0,0,1,3.233-2.38,11.155,11.155,0,0,1,3.716-1.115c.308-.036.614-.066.921-.1h.947c.061.009.124.021.184.027.469.056.941.092,1.4.175a10.991,10.991,0,0,1,4.042,1.56,11.689,11.689,0,0,1,4.365,4.883,11.525,11.525,0,0,1,1.092,3.764c.034.3.063.6.095.9m-17.648-6.839c.02.026.025.038.033.042a12.714,12.714,0,0,1,1.854,1.14.2.2,0,0,0,.175-.013,7.205,7.205,0,0,1,9.689,1.7,7.092,7.092,0,0,1,1.428,5.708,7.382,7.382,0,0,1-1.754,3.763,6.993,6.993,0,0,1-6.468,2.411,6.79,6.79,0,0,1-4.055-2.059c-1.444-1.483-2.9-2.956-4.347-4.436a1.175,1.175,0,0,0-.685-.39,1.087,1.087,0,0,0-1.14.631,1.032,1.032,0,0,0,.244,1.247c1.613,1.612,3.214,3.238,4.827,4.853a8.019,8.019,0,0,0,.886.765,8.4,8.4,0,0,0,3.945,1.544,9.363,9.363,0,0,0,8.622-3.419,9.481,9.481,0,0,0,2.073-4.822,9.6,9.6,0,0,0-.088-3.1,9.3,9.3,0,0,0-2.131-4.441,9.194,9.194,0,0,0-7.988-3.271,8.76,8.76,0,0,0-3.473,1.039,9.1,9.1,0,0,0-1.646,1.12m-.78,16.955-.132-.124c-.659-.634-1.323-1.263-1.976-1.906a.526.526,0,0,0-.421-.175,7.919,7.919,0,0,1-1.973-.132,5.652,5.652,0,0,1-4.116-6.853v0a5.562,5.562,0,0,1,6.3-4.144,5.322,5.322,0,0,1,2.991,1.578c1.013,1.063,2.054,2.094,3.078,3.144a.91.91,0,0,0,.823.3,1.035,1.035,0,0,0,.9-.679,1.016,1.016,0,0,0-.228-1.11c-1.073-1.1-2.122-2.238-3.238-3.3a7.244,7.244,0,0,0-7.541-1.791,7.8,7.8,0,0,0,2.331,15.206h3.023c.05,0,.1-.005.175-.009" transform="translate(-1003.331 -590.463)" fill="#999"/>
      <g id="Creative_Cloud" data-name="Creative Cloud" transform="translate(0 28.845)">
        <g id="Creative_Cloud-2" data-name="Creative Cloud-2" style="isolation: isolate">
          <text id="Creative" transform="translate(0 11)" fill="#999" font-size="11" font-family="SourceSansPro-Regular, Source Sans Pro" style="isolation: isolate"><tspan x="0" y="0">Creative</tspan></text>
          <text id="Cloud" transform="translate(6.312 27.834)" fill="#999" font-size="11" font-family="SourceSansPro-Regular, Source Sans Pro" style="isolation: isolate"><tspan x="0" y="0">Cloud</tspan></text>
        </g>
      </g>
    </g>
    <g id="Invision" transform="translate(402.85)">
      <path id="Icon_awesome-invision" data-name="Icon awesome-invision" d="M1497.6,461.031h-22.612a2.5,2.5,0,0,0-2.5,2.5v22.621a2.505,2.505,0,0,0,2.5,2.5H1497.6a2.505,2.505,0,0,0,2.5-2.5V463.53A2.5,2.5,0,0,0,1497.6,461.031Zm-14.259,7a1.655,1.655,0,1,1-1.666-1.643A1.656,1.656,0,0,1,1483.342,468.035ZM1493,482.3c-4.045,0-2.1-4.559-1.541-6.576.869-2.86-2.786-3.637-3.693.043l-1.59,6.368h-2.78l.5-2c-1.942,3.193-5.832,2.737-5.832-.263.006-.881.055-.863,1.418-6.418h-1.96l.6-2.192h4.711c-2.072,8.242-2.01,7.824-2.028,8.52,0,1.289,2.521.832,3.539-1.43l1.22-4.9h-1.993l.6-2.192h4.241l-.549,2.5c2.5-4.655,7.885-2.947,6.276,2.343-.877,3.15-.9,3.126-.919,3.625,0,.956,1.078,1.393,1.96-1.042l1.1.413C1495.633,481.357,1494.467,482.3,1493,482.3Z" transform="translate(-1463.524 -461.031)" fill="#999"/>
      <g id="Invision_" data-name="Invision " transform="translate(0 31.033)">
        <g id="Invision-2" style="isolation: isolate">
          <text id="Invision-2-2" data-name="Invision" transform="translate(0 11)" fill="#999" font-size="11" font-family="SourceSansPro-Regular, Source Sans Pro" style="isolation: isolate"><tspan x="0" y="0">Invision</tspan></text>
        </g>
      </g>
    </g>
    <g id="jquery" transform="translate(461.148 102.736)">
      <g id="jquery-2" transform="translate(0 32.907)">
        <g id="Jquery-3" style="isolation: isolate">
          <text id="Jquery-2-2" data-name="Jquery" transform="translate(0 11)" fill="#999" font-size="11" font-family="SourceSansPro-Regular, Source Sans Pro" style="isolation: isolate"><tspan x="0" y="0">Jquery</tspan></text>
        </g>
      </g>
      <path id="Icon_simple-jquery" data-name="Icon simple-jquery" d="M1533.951,585.334c-2.792,4.011-2.446,9.229-.312,13.489.049.1.1.2.155.3a1.944,1.944,0,0,0,.1.2,1,1,0,0,0,.061.11c.034.068.071.134.107.2l.207.351c.038.064.075.128.118.192.072.124.158.246.233.369.034.052.066.1.1.154q.19.3.408.584c.1.14.205.277.316.414.036.05.075.1.112.15l.291.351c.036.04.071.088.109.131.129.155.263.307.4.459a.011.011,0,0,0,.007.009,4.156,4.156,0,0,0,.558.579c.105.108.21.216.322.321l.133.128c.146.137.292.273.446.405h.007l.075.066c.134.117.269.234.408.342l.165.138c.112.088.228.175.342.263l.175.137.378.272c.046.033.088.066.14.1l.038.031.37.244.158.105c.193.124.385.241.576.357.055.028.11.058.161.088.142.082.29.165.432.241.079.045.161.083.242.124.1.055.2.11.306.165a.378.378,0,0,1,.074.03c.043.02.088.041.126.062.158.079.323.153.494.229q.05.02.1.045c.189.083.379.162.575.239.045.013.088.036.139.053.175.067.36.135.54.2l.066.024c.2.068.4.134.6.2.047.013.1.031.146.043q.306.1.622.175c13.494,2.459,17.416-8.113,17.416-8.113-3.294,4.29-9.141,5.421-14.678,4.162-.205-.047-.41-.113-.614-.175-.251-.074-.5-.153-.745-.238l-.082-.032c-.175-.06-.351-.128-.526-.195-.047-.02-.1-.039-.145-.054-.193-.077-.381-.158-.568-.24-.041-.013-.074-.032-.115-.047q-.24-.111-.475-.224c-.049-.021-.092-.043-.139-.068-.124-.058-.247-.124-.368-.187-.083-.04-.166-.082-.246-.126-.148-.079-.3-.164-.446-.246-.045-.032-.1-.058-.147-.088q-.292-.176-.576-.351c-.053-.033-.1-.068-.155-.1q-.211-.129-.41-.271c-.047-.031-.088-.063-.136-.1q-.2-.137-.387-.279c-.055-.045-.114-.088-.175-.132-.116-.088-.233-.175-.351-.273l-.155-.124q-.223-.181-.438-.369a.331.331,0,0,0-.049-.039l-.457-.416-.132-.124c-.108-.11-.218-.214-.329-.323l-.128-.131q-.209-.208-.407-.425l-.019-.021c-.139-.153-.275-.308-.412-.466-.036-.04-.068-.088-.105-.128l-.3-.365q-.227-.292-.447-.589c-3.069-4.193-4.182-9.98-1.725-14.73m6.494-.621a9.681,9.681,0,0,0-.333,9.875,11.985,11.985,0,0,0,.891,1.49,6.98,6.98,0,0,0,1.038,1.3c.141.16.294.316.453.472l.118.118q.224.217.46.427l.02.018q.263.231.545.45c.045.031.082.066.126.1.184.142.369.279.561.414l.019.012c.082.059.168.113.263.171.037.024.079.055.118.079.139.088.276.175.417.263.022.009.042.021.063.031.118.073.247.142.371.207.043.026.088.045.131.071q.131.064.263.134l.042.018c.175.088.359.168.536.25.045.017.082.032.121.05.146.063.295.124.438.18.066.022.128.049.189.068.134.05.274.1.408.142l.184.059a4.4,4.4,0,0,0,.589.17c10.416,1.726,12.828-6.3,12.828-6.3-2.173,3.12-6.377,4.609-10.849,3.447q-.3-.078-.589-.171c-.063-.018-.119-.037-.175-.055-.137-.047-.277-.094-.41-.143l-.189-.071c-.147-.059-.3-.115-.438-.175a1.078,1.078,0,0,1-.119-.053c-.184-.082-.369-.164-.548-.253l-.271-.14-.156-.079c-.121-.063-.233-.129-.351-.2a.85.85,0,0,1-.091-.049c-.139-.088-.284-.175-.417-.263-.045-.025-.088-.055-.128-.082l-.274-.175c-.189-.132-.375-.274-.561-.41-.042-.039-.082-.07-.124-.1a12.5,12.5,0,0,1-4.259-6.06,9.415,9.415,0,0,1,.736-7.548m5.638-.193a6.07,6.07,0,0,0-.487,5.86,8.266,8.266,0,0,0,4.74,4.425c.088.033.168.06.256.088l.116.035c.121.038.244.082.368.11,5.755,1.11,7.313-2.956,7.732-3.553-1.371,1.968-3.669,2.44-6.488,1.754a6.472,6.472,0,0,1-.679-.21,8.342,8.342,0,0,1-.811-.334,8.546,8.546,0,0,1-1.421-.868c-2.523-1.91-4.087-5.561-2.441-8.535" transform="translate(-1529.148 -578.204)" fill="#999"/>
    </g>
    <g id="moqups" transform="translate(41.675 11.266)">
      <path id="Path_8368" data-name="Path 8368" d="M1114.457,481.272a13.363,13.363,0,0,0,4.092-5.193c.952-1.92,1.315-2.15,3.54-2.017.519,1.732,1.1,3.428,1.532,5.161.992,3.951-1.77,6.9-5.893,6.267.006-1.064-.059-2.017,1.515-2.133,1.159-.088,1.906-1.4,1.754-2.758a26.661,26.661,0,0,0-.619-2.718c-3.1,4.7-6.934,7.738-12.6,7.768a2.293,2.293,0,0,1-.041-.466c.1-.5.214-.99.321-1.476a5.685,5.685,0,0,0,3.571-6.389,1.549,1.549,0,0,0-1.245-.839,2.724,2.724,0,0,0-2.455,2.28q-.96,4.316-1.895,8.64c-.51,2.374-.6,2.461-3.338,2.62.351-1.713.7-3.39,1.082-5.249-2.058.984-3.886,1.311-5.4-.526-2.872,1.792-4.043,1.841-5.949.217a14.365,14.365,0,0,1-1.692.854,13.68,13.68,0,0,1-1.876.384c-.63,1.8-.116,4.691-3.714,4.238l1.093-5.308c-1.8,1.022-3.87,1.788-5.085-.011-.918-1.36-.779-3.426-1.158-5.436a4.992,4.992,0,0,0-.964,1.331c-1,3.228-3.282,5.18-6.313,5.007a18.774,18.774,0,0,1-3.77-1.074,13.959,13.959,0,0,1-2.352,1.062c-2.1.581-3.411-.51-3.156-2.653.2-1.688.645-3.345.925-5.025a4.842,4.842,0,0,0-.132-1.29c-.522.068-1.213-.045-1.529.246a4.863,4.863,0,0,0-1.448,2.061c-.594,2.117-.979,4.291-1.453,6.47h-2.692c.516-2.408,1.052-4.729,1.491-7.068a6.209,6.209,0,0,0-.182-1.767,5.1,5.1,0,0,0-1.841.66,4.33,4.33,0,0,0-1.127,1.966,35.406,35.406,0,0,0-.993,4.735c-.175,1.286-.746,1.764-2,1.542a11.4,11.4,0,0,0-1.161-.088c.478-2.28.993-4.472,1.373-6.693a9.8,9.8,0,0,0-.147-2.32l-2.192.49c.16-.935.037-2.1,1.52-2.55a3.412,3.412,0,0,1,4.012,1.07,23.666,23.666,0,0,1,3.057-1.228,2.082,2.082,0,0,1,2.58,1.114,22.335,22.335,0,0,1,3.711-1.116,1.766,1.766,0,0,1,2.123,2.088c-.175,1.871-.593,3.719-.916,5.576-.107.614-.49,1.419.542,1.49a1.491,1.491,0,0,0,1.769-1.146h0a1.394,1.394,0,0,0,.026-.169q.086-1.307.3-2.6a6.387,6.387,0,0,1,6.488-5.316c2.338.04,3.323.95,4,3.971,1.013-.744,1.971-1.337,2.8-2.077,2.38-2.131,6.374-2.659,8.843-1.109-.471,2.165-.959,4.318-1.4,6.483-.155.768-.614,1.948.526,2.035a2.782,2.782,0,0,0,2.1-1.544,40.025,40.025,0,0,0,1.208-5.24c.539-2.415.6-2.455,3.388-2.442-.461,2.215-.916,4.4-1.371,6.576a1.609,1.609,0,0,0-.075.263c-.018.852-.747,1.875.387,2.471.694.365,2.3-.815,2.584-1.895.418-1.6.751-3.231,1.086-4.855.5-2.441.526-2.476,3.345-2.565-.432,2.04-.861,4.039-1.277,6.041a12.559,12.559,0,0,0-.356,2.039c-.043,1.129.65,1.6,1.578,1a3.656,3.656,0,0,0,1.578-1.776c.544-2.075.833-4.216,1.272-6.6l2.187-.861.451,1.5c.513-.305.994-.621,1.5-.887,2.5-1.315,4.781-.144,4.95,2.664A26.539,26.539,0,0,1,1114.457,481.272Zm-26.439-4.9c-1.5-.388-2.915-.285-3.5,1.048a14.442,14.442,0,0,0-1.1,4.735c-.088,1.216,1.161,1.691,2.172.936a3.223,3.223,0,0,0,1.2-1.46c.5-1.715.826-3.477,1.227-5.261Zm-15.725,2.4a27.511,27.511,0,0,0-.438,3.269,1.622,1.622,0,0,0,.758,1.294,1.811,1.811,0,0,0,1.626-.242,20.848,20.848,0,0,0,1.8-2.814Zm3.867-.33c.107-1.14.176-2.124-1.072-2.265-.417-.046-1.3.5-1.284.733.073,1.36,1.269,1.245,2.356,1.531Z" transform="translate(-1050.337 -473.88)" fill="#999"/>
    </g>
    <g id="Html5" transform="translate(15.937 219.775)">
      <path id="Icon_awesome-html5" data-name="Icon awesome-html5" d="M1028.534,711.691l1.951,22.088,8.736,2.912,8.795-2.913,1.951-22.089Zm17.2,7.135h-10.259l.229,2.757h9.8l-.758,8.281-5.463,1.507v.017h-.061l-5.51-1.521-.335-4.23h2.662l.194,2.122,2.985.809,3-.809.335-3.471h-9.313l-.719-8.125h13.459Z" transform="translate(-1021.913 -711.689)" fill="#999"/>
      <g id="Html_5" data-name="Html 5" transform="translate(0 29.629)">
        <g id="Html_5-2" data-name="Html 5-2" style="isolation: isolate">
          <text id="Html_5-2-2" data-name="Html 5" transform="translate(0 11)" fill="#999" font-size="11" font-family="SourceSansPro-Regular, Source Sans Pro" style="isolation: isolate"><tspan x="0" y="0">Html 5</tspan></text>
        </g>
      </g>
    </g>
    <g id="vue-logo" transform="translate(89.103 324.886)">
      <g id="vuejs-seeklogo.com" transform="translate(3.884)">
        <path id="Path_8094" data-name="Path 8094" d="M1127.451,831.57h4.647l-11.619,20.044-11.619-20.043h8.889l2.73,4.647,2.673-4.647Z" transform="translate(-1108.859 -831.57)" fill="#999"/>
        <path id="Path_8095" data-name="Path 8095" d="M1108.863,831.57l11.616,20.044,11.616-20.043h-4.647l-6.969,12.025-7.03-12.025Z" transform="translate(-1108.859 -831.57)" fill="#999"/>
        <path id="Path_8096" data-name="Path 8096" d="M1114.1,831.57l7.029,12.084,6.971-12.084h-4.3l-2.676,4.647-2.73-4.647Z" transform="translate(-1109.504 -831.57)" fill="#999"/>
      </g>
      <g id="Vue.js" transform="translate(0 18.024)">
        <g id="Vue.js-2" style="isolation: isolate">
          <text id="Vue.js-2-2" data-name="Vue.js" transform="translate(0 11)" fill="#999" font-size="11" font-family="SourceSansPro-Regular, Source Sans Pro" style="isolation: isolate"><tspan x="0" y="0">Vue.js</tspan></text>
        </g>
      </g>
    </g>
    <g id="angular" transform="translate(236.513 362.198)">
      <path id="Icon_awesome-angular" data-name="Icon awesome-angular" d="M1290.86,888.68h4.7l-2.349-5.647Zm2.349-14.555-12.811,4.586,1.961,17,10.85,6.036,10.85-6.036,1.96-17Zm8.027,21.072h-3l-1.615-4.033h-6.818l-1.615,4.033h-3l8.021-18.022Z" transform="translate(-1273.52 -874.125)" fill="#999"/>
      <g id="Angular-2" transform="translate(0 27.525)">
        <g id="Angular-2-2" style="isolation: isolate">
          <text id="Angular-2-2" data-name="Angular" transform="translate(0 11)" fill="#999" font-size="11" font-family="SourceSansPro-Regular, Source Sans Pro" style="isolation: isolate"><tspan x="0" y="0">Angular</tspan></text>
        </g>
      </g>
    </g>
    <g id="bootstrap" transform="translate(367.915 320.97)">
      <g id="Bootstrap-2" transform="translate(0 22.145)">
        <g id="Bootstrap-2-2" style="isolation: isolate">
          <text id="Bootstrap-2-2" data-name="Bootstrap" transform="translate(0 11)" fill="#999" font-size="11" font-family="SourceSansPro-Regular, Source Sans Pro" style="isolation: isolate"><tspan x="0" y="0">Bootstrap</tspan></text>
        </g>
      </g>
      <path id="Icon_awesome-bootstrap" data-name="Icon awesome-bootstrap" d="M1453.353,840.445a1.9,1.9,0,0,1-1.805,1.982h0a1.96,1.96,0,0,1-.288-.008H1447.4v-3.893h3.858c2.028,0,2.093,1.52,2.093,1.918Zm-2.39-3.485a1.713,1.713,0,0,0,1.828-1.589h0c0-.047,0-.095,0-.142,0-.74-.167-1.71-1.831-1.71H1447.4v3.44Zm9.811-6.3V844.9a3.57,3.57,0,0,1-3.559,3.558h-14.233a3.57,3.57,0,0,1-3.559-3.558V830.663a3.569,3.569,0,0,1,3.559-3.559h14.229a3.569,3.569,0,0,1,3.56,3.559Zm-5.24,10.065a2.982,2.982,0,0,0-2.338-3.21v-.035a2.731,2.731,0,0,0,1.78-2.651c0-.333.1-3.087-3.7-3.087h-6.05v12.451c6.111,0,6.664.08,7.8-.272a3.2,3.2,0,0,0,2.512-3.2Z" transform="translate(-1424.514 -827.104)" fill="#999"/>
    </g>
    <g id="react" transform="translate(462.13 219.421)">
      <g id="react-seeklogo.com" transform="translate(2.244)">
        <path id="Path_8400" data-name="Path 8400" d="M1554.212,718.916v.009c-.28-.1-.561-.184-.859-.272q.079-.289.131-.579c.649-3.13.228-5.655-1.21-6.488-1.385-.8-3.647.035-5.927,2.017q-.329.289-.657.6c-.15-.14-.3-.281-.438-.4-2.394-2.131-4.787-3.025-6.225-2.192-1.385.807-1.79,3.174-1.211,6.138.062.289.124.587.194.877-.334.1-.667.2-.982.316-2.807.973-4.594,2.508-4.594,4.095,0,1.64,1.929,3.288,4.849,4.288.228.079.465.149.71.219-.079.324-.15.64-.2.947-.553,2.92-.124,5.234,1.253,6.032,1.421.815,3.805-.026,6.129-2.061.184-.158.368-.324.552-.509.245.237.482.447.719.658,2.254,1.938,4.473,2.718,5.849,1.92,1.421-.824,1.885-3.306,1.289-6.339-.052-.228-.1-.465-.166-.71.175-.044.333-.1.5-.149,3.034-1.008,5.007-2.63,5.007-4.3C1558.921,721.441,1557.071,719.9,1554.212,718.916Zm-7.128-4.454c1.955-1.7,3.788-2.376,4.621-1.894.885.508,1.227,2.569.675,5.278-.035.175-.079.351-.123.526a26.853,26.853,0,0,0-3.543-.561,27.329,27.329,0,0,0-2.235-2.8Q1546.782,714.725,1547.084,714.462Zm2.289,10.741c-.421.719-.842,1.4-1.272,2.052-.789.053-1.6.088-2.429.088s-1.622-.026-2.394-.079c-.456-.658-.886-1.341-1.3-2.052s-.788-1.421-1.131-2.139c.343-.71.719-1.42,1.122-2.131s.842-1.394,1.289-2.043c.789-.061,1.6-.088,2.411-.088s1.631.026,2.421.088c.438.64.859,1.324,1.271,2.034s.8,1.429,1.14,2.131c-.343.7-.72,1.42-1.14,2.139Zm-9.119-.8c.237.456.482.912.745,1.368s.544.921.833,1.359a23.127,23.127,0,0,1-2.437-.395A24.187,24.187,0,0,1,1540.254,724.4Zm-.008-2.665c-.325-.78-.614-1.552-.842-2.288.763-.167,1.561-.307,2.4-.412-.281.43-.544.877-.807,1.333s-.519.912-.754,1.368Zm10.1,4.024c.272-.465.526-.929.772-1.4.333.763.631,1.543.886,2.332a23.925,23.925,0,0,1-2.464.421c.272-.438.544-.883.807-1.35Zm.763-4.024c-.246-.456-.5-.912-.763-1.377-.263-.447-.535-.894-.807-1.324a23.6,23.6,0,0,1,2.411.421c-.246.78-.525,1.534-.841,2.28Zm-5.427-5.9v-.009h.009l-.009.009a20.837,20.837,0,0,1,1.56,1.867c-.516-.026-1.034-.035-1.569-.035s-1.043.009-1.561.035c.518-.675,1.036-1.3,1.57-1.867Zm-6.094-3.244c.886-.509,2.841.219,4.91,2.052l.4.368a26.321,26.321,0,0,0-2.254,2.8,26.552,26.552,0,0,0-3.533.552c-.07-.281-.132-.552-.184-.824-.5-2.543-.166-4.46.666-4.945Zm-1.289,13.871c-.228-.07-.447-.132-.657-.2a9.683,9.683,0,0,1-3.095-1.648,2.345,2.345,0,0,1-.982-1.578c0-.964,1.439-2.192,3.832-3.025.289-.105.6-.2.912-.289a27.339,27.339,0,0,0,1.3,3.349,26.347,26.347,0,0,0-1.306,3.393Zm6.12,5.156a9.392,9.392,0,0,1-2.964,1.859,2.3,2.3,0,0,1-1.849.07c-.842-.482-1.184-2.341-.71-4.84.053-.281.114-.579.193-.877a25.912,25.912,0,0,0,3.569.517,27.878,27.878,0,0,0,2.271,2.806c-.166.167-.333.316-.508.465Zm1.3-1.28c-.535-.579-1.07-1.219-1.6-1.9q.763.026,1.551.026c.543,0,1.07-.009,1.6-.035a21.968,21.968,0,0,1-1.551,1.911Zm6.874,1.578a2.324,2.324,0,0,1-.86,1.64c-.841.491-2.621-.14-4.551-1.8-.219-.193-.438-.395-.667-.6a26.357,26.357,0,0,0,2.219-2.823,27.625,27.625,0,0,0,3.595-.552c.053.219.1.43.14.64a9.579,9.579,0,0,1,.124,3.5Zm.964-5.655s-.307-.508-.684-1.166-.833-1.464-1.1-2.043a28.767,28.767,0,0,0,1.289-3.306c.272.079.534.158.788.246,2.455.842,3.946,2.087,3.946,3.051,0,1.026-1.614,2.35-4.234,3.218Z" transform="translate(-1532.433 -711.286)" fill="#999"/>
        <path id="Path_8401" data-name="Path 8401" d="M1547.552,716.468l-.009.009v-.009Z" transform="translate(-1534.295 -711.924)" fill="#999"/>
        <path id="Path_8402" data-name="Path 8402" d="M1549.568,724.365A2.368,2.368,0,1,1,1547.2,722a2.367,2.367,0,0,1,2.367,2.367Z" transform="translate(-1533.961 -712.605)" fill="#999"/>
      </g>
      <g id="React-2" transform="translate(0 23.474)">
        <g id="React-2-2" style="isolation: isolate">
          <text id="React-2-2" data-name="React" transform="translate(0 11)" fill="#999" font-size="11" font-family="SourceSansPro-Regular, Source Sans Pro" style="isolation: isolate"><tspan x="0" y="0">React</tspan></text>
        </g>
      </g>
    </g>
  </g>
</svg>
