<svg id="ellipse4" xmlns="http://www.w3.org/2000/svg" width="632.748" height="619.591" viewBox="0 0 632.748 619.591">
  <path id="Ellipse_111" data-name="Ellipse 111" d="M1015.8,422.879a304.238,304.238,0,0,1,32.876-35.508" transform="translate(-933.455 -296.728)" fill="none" stroke="#999" stroke-linecap="round" stroke-width="1"/>
  <path id="Ellipse_111-2" data-name="Ellipse 111" d="M964.224,514.439a300.911,300.911,0,0,1,14.483-32.33" transform="translate(-927.101 -308.4)" fill="none" stroke="#999" stroke-linecap="round" stroke-width="1"/>
  <path id="Ellipse_111-3" data-name="Ellipse 111" d="M943.158,659.931q-1.2-13.456-1.209-27.234a303.844,303.844,0,0,1,6.06-60.546" transform="translate(-924.356 -319.494)" fill="none" stroke="#999" stroke-linecap="round" stroke-width="1"/>
  <path id="Ellipse_111-4" data-name="Ellipse 111" d="M978.382,792.992a300.461,300.461,0,0,1-27.036-71.475" transform="translate(-925.514 -337.897)" fill="none" stroke="#999" stroke-linecap="round" stroke-width="1"/>
  <path id="Ellipse_111-5" data-name="Ellipse 111" d="M1110.378,933.864a303.887,303.887,0,0,1-96.364-81.607" transform="translate(-933.235 -354.005)" fill="none" stroke="#999" stroke-linecap="round" stroke-width="1"/>
  <path id="Ellipse_111-6" data-name="Ellipse 111" d="M1233.6,980.89a300.5,300.5,0,0,1-74.131-19" transform="translate(-951.156 -367.512)" fill="none" stroke="#999" stroke-linecap="round" stroke-width="1"/>
  <path id="Ellipse_111-7" data-name="Ellipse 111" d="M1398.1,964.765a300.452,300.452,0,0,1-62.935,15.867" transform="translate(-972.803 -367.867)" fill="none" stroke="#999" stroke-linecap="round" stroke-width="1"/>
  <path id="Ellipse_111-8" data-name="Ellipse 111" d="M1548.976,849.562a303.979,303.979,0,0,1-92.32,80.74" transform="translate(-987.772 -353.673)" fill="none" stroke="#999" stroke-linecap="round" stroke-width="1"/>
  <path id="Ellipse_111-9" data-name="Ellipse 111" d="M1619.376,711.347a300.662,300.662,0,0,1-38.7,97.247" transform="translate(-1003.052 -336.644)" fill="none" stroke="#999" stroke-linecap="round" stroke-width="1"/>
  <path id="Ellipse_111-10" data-name="Ellipse 111" d="M1624.554,569.818a303.127,303.127,0,0,1,6.372,54.288" transform="translate(-1008.458 -319.207)" fill="none" stroke="#999" stroke-linecap="round" stroke-width="1"/>
  <path id="Ellipse_111-11" data-name="Ellipse 111" d="M1591.9,479.717A300.93,300.93,0,0,1,1605,507.8" transform="translate(-1004.434 -308.105)" fill="none" stroke="#999" stroke-linecap="round" stroke-width="1"/>
  <path id="Ellipse_111-12" data-name="Ellipse 111" d="M1519.828,386.659a304.384,304.384,0,0,1,31.987,34.158" transform="translate(-995.555 -296.64)" fill="none" stroke="#999" stroke-linecap="round" stroke-width="1"/>
  <path id="Ellipse_111-13" data-name="Ellipse 111" d="M1098.334,345.372a302.713,302.713,0,0,1,329.5-.815" transform="translate(-943.624 -285.495)" fill="none" stroke="#999" stroke-linecap="round" stroke-width="1"/>
  <rect id="Rectangle_678" data-name="Rectangle 678" width="81" height="30" transform="translate(276)" fill="#153243"/>
  <text id="DEVELOP" transform="translate(286 16.439)" fill="#fff" font-size="16" font-family="SourceSansPro-Bold, Source Sans Pro" font-weight="700" style="isolation: isolate"><tspan x="0" y="0">DEVELOP</tspan></text>
  <g id="cloud" transform="translate(0 49.95)" style="isolation: isolate">
    <g id="azure-logo" transform="translate(121.713 0.257)">
      <g id="Azure" transform="translate(0 21.92)">
        <g id="Azure-2" style="isolation: isolate">
          <text id="Azure-2-2" data-name="Azure" transform="translate(0 11)" fill="#999" font-size="11" font-family="SourceSansPro-Regular, Source Sans Pro" style="isolation: isolate"><tspan x="0" y="0">Azure</tspan></text>
        </g>
      </g>
      <path id="Icon_simple-microsoftazure" data-name="Icon simple-microsoftazure" d="M1069.8,362.966h21.617l-11.645-20.179-3.547,9.743,6.814,8.1Zm9.044-21.714-8.317,6.977-7.127,12.347h6.427v.017Z" transform="translate(-1061.033 -341.252)" fill="#999"/>
    </g>
    <g id="AWS" transform="translate(14.065 165.321)">
      <path id="Icon_simple-amazonaws" data-name="Icon simple-amazonaws" d="M947.544,536.924a3.4,3.4,0,0,0,.125,1.01,6.11,6.11,0,0,0,.364.819.49.49,0,0,1,.08.263.454.454,0,0,1-.217.341l-.716.476a.546.546,0,0,1-.3.1.518.518,0,0,1-.34-.16,3.473,3.473,0,0,1-.408-.533c-.127-.218-.244-.438-.351-.67a4.2,4.2,0,0,1-3.338,1.566,3.114,3.114,0,0,1-2.27-.816,3.205,3.205,0,0,1,.194-4.519,4.129,4.129,0,0,1,2.779-.888,8.752,8.752,0,0,1,1.2.088c.421.057.853.148,1.306.251v-.829a2.508,2.508,0,0,0-.533-1.817,2.6,2.6,0,0,0-1.849-.526,5.129,5.129,0,0,0-1.227.151,8.816,8.816,0,0,0-1.227.387,3.481,3.481,0,0,1-.4.148.744.744,0,0,1-.181.033c-.159,0-.239-.114-.239-.351V530.9a.712.712,0,0,1,.08-.4.836.836,0,0,1,.318-.238,6.449,6.449,0,0,1,1.429-.512,6.862,6.862,0,0,1,1.772-.215,4.145,4.145,0,0,1,2.974.921,3.753,3.753,0,0,1,.948,2.8v3.682Zm-4.608,1.727a3.711,3.711,0,0,0,1.169-.205,2.531,2.531,0,0,0,1.078-.725,1.811,1.811,0,0,0,.387-.729,4.158,4.158,0,0,0,.114-.987v-.476a9.423,9.423,0,0,0-1.045-.194,8.535,8.535,0,0,0-1.067-.069,2.614,2.614,0,0,0-1.692.455,1.622,1.622,0,0,0,1.057,2.929Zm9.119,1.228a.632.632,0,0,1-.432-.114.928.928,0,0,1-.239-.438l-2.668-8.783a1.978,1.978,0,0,1-.1-.455.249.249,0,0,1,.21-.283.246.246,0,0,1,.061,0H950a.63.63,0,0,1,.438.114.9.9,0,0,1,.228.444l1.909,7.516,1.771-7.516a.809.809,0,0,1,.214-.444.779.779,0,0,1,.456-.114h.907a.7.7,0,0,1,.455.114.769.769,0,0,1,.215.444l1.794,7.607,1.964-7.607a.974.974,0,0,1,.228-.444.734.734,0,0,1,.438-.114h1.052a.255.255,0,0,1,.284.22.374.374,0,0,1,0,.064,1.17,1.17,0,0,1-.024.182,1.682,1.682,0,0,1-.08.284l-2.736,8.776a.866.866,0,0,1-.239.438.731.731,0,0,1-.432.114h-.964a.688.688,0,0,1-.455-.114.819.819,0,0,1-.213-.455L955.447,532l-1.754,7.311a.9.9,0,0,1-.213.455.707.707,0,0,1-.455.114Zm14.588.306a7.617,7.617,0,0,1-1.748-.2,5.211,5.211,0,0,1-1.306-.455.649.649,0,0,1-.42-.636v-.579c0-.238.088-.351.263-.351a.633.633,0,0,1,.205.034c.068.023.175.068.284.114a6.224,6.224,0,0,0,1.249.4,6.853,6.853,0,0,0,1.351.137,3.068,3.068,0,0,0,1.657-.375,1.23,1.23,0,0,0,.59-1.079,1.1,1.1,0,0,0-.306-.8,2.875,2.875,0,0,0-1.148-.59l-1.646-.512a3.454,3.454,0,0,1-1.817-1.156,2.7,2.7,0,0,1-.569-1.648,2.536,2.536,0,0,1,.307-1.26,2.891,2.891,0,0,1,.814-.934,3.572,3.572,0,0,1,1.18-.59,4.938,4.938,0,0,1,1.431-.194,5.656,5.656,0,0,1,.761.046c.263.034.5.08.737.125a5.052,5.052,0,0,1,.647.181,2.444,2.444,0,0,1,.478.205,1,1,0,0,1,.341.284.621.621,0,0,1,.1.374v.533c0,.239-.088.364-.263.364a1.182,1.182,0,0,1-.431-.137,5.193,5.193,0,0,0-2.179-.438,2.921,2.921,0,0,0-1.511.318,1.093,1.093,0,0,0-.533,1.01,1.068,1.068,0,0,0,.341.807,3.362,3.362,0,0,0,1.248.626l1.613.509a3.459,3.459,0,0,1,1.76,1.091A2.571,2.571,0,0,1,970.65,537a2.931,2.931,0,0,1-.295,1.315,3.076,3.076,0,0,1-.829,1,3.66,3.66,0,0,1-1.26.636,5.43,5.43,0,0,1-1.625.238Zm2.146,5.515a24.488,24.488,0,0,1-13.829,4.223,25.021,25.021,0,0,1-16.884-6.436c-.351-.317-.034-.75.387-.5a33.554,33.554,0,0,0,29.783,1.854c.618-.288,1.157.4.543.857Zm1.556-1.772c-.478-.614-3.157-.295-4.373-.146-.363.046-.42-.273-.088-.512,2.133-1.5,5.642-1.067,6.05-.567s-.114,4.019-2.112,5.7c-.306.263-.6.125-.465-.215.455-1.124,1.465-3.655.988-4.258Z" transform="translate(-937.925 -529.511)" fill="#999"/>
    </g>
    <g id="gcloud" transform="translate(484.562)">
      <g id="Google_Cloud" data-name="Google Cloud" transform="translate(0 22.063)">
        <g id="Google" style="isolation: isolate">
          <text id="Google-2" data-name="Google" transform="translate(0 11)" fill="#999" font-size="11" font-family="SourceSansPro-Regular, Source Sans Pro" style="isolation: isolate"><tspan x="0" y="0">Google</tspan></text>
        </g>
        <g id="Cloud-2" transform="translate(3.221 15.782)" style="isolation: isolate">
          <text id="Cloud-2-2" data-name="Cloud" transform="translate(0 11)" fill="#999" font-size="11" font-family="SourceSansPro-Regular, Source Sans Pro" style="isolation: isolate"><tspan x="0" y="0">Cloud</tspan></text>
        </g>
      </g>
      <path id="Icon_simple-googlecloud" data-name="Icon simple-googlecloud" d="M1496.032,340.962a9.5,9.5,0,0,0-9.388,7.008c.053-.02-.056.013,0,0a6.811,6.811,0,0,0-.247,11.122l.006-.007-.007.031a6.835,6.835,0,0,0,4.146,1.378h5.261l.031.031h5.279a6.868,6.868,0,0,0,6.922-6.813h0a6.87,6.87,0,0,0-3.022-5.744,9.521,9.521,0,0,0-2.869-4.628l-.044.044.006-.051a9.5,9.5,0,0,0-6.067-2.373Zm-.364,4.216a5.431,5.431,0,0,1,3.544,1.169,5.273,5.273,0,0,1,1.893,4.146v.526c3.588-.071,3.588,5.348,0,5.28h-5.279l-.008.009v-.04h-5.277a2.627,2.627,0,0,1-1.085-.234h0a2.64,2.64,0,1,1,3.494-3.494l3.063-3.063a6.861,6.861,0,0,0-4.13-2.557c.019-.011.041-.026.055-.024a5.271,5.271,0,0,1,3.732-1.719Z" transform="translate(-1475.658 -340.959)" fill="#999"/>
    </g>
    <g id="others" transform="translate(0 71.745)">
      <g id="Ionic_Logo" data-name="Ionic Logo" transform="translate(537.137 350.724)">
        <path id="Path_8101" data-name="Path 8101" d="M1545.089,828.9a4.482,4.482,0,0,0-4.482,4.482h0a4.481,4.481,0,0,0,4.481,4.482h0a4.482,4.482,0,0,0,4.482-4.482h0a4.482,4.482,0,0,0-4.482-4.482Z" transform="translate(-1535.251 -823.546)" fill="#999"/>
        <ellipse id="Ellipse_105" data-name="Ellipse 105" cx="2.042" cy="2.042" rx="2.042" ry="2.042" transform="translate(14.231 1.672)" fill="#999"/>
        <path id="Path_8102" data-name="Path 8102" d="M1553.286,828.559l-.088-.188-.134.155a3.084,3.084,0,0,1-1.232.848l-.134.048.054.134a8.041,8.041,0,0,1-4.336,10.51h0a8.039,8.039,0,1,1,.36-14.685l.126.06.055-.134a3.063,3.063,0,0,1,.906-1.19l.16-.134-.183-.095a9.707,9.707,0,0,0-4.508-1.1,9.834,9.834,0,0,0-9.833,9.835h0a9.835,9.835,0,1,0,18.782-4.082Z" transform="translate(-1534.499 -822.793)" fill="#999"/>
        <rect id="Rectangle_336" data-name="Rectangle 336" width="2.074" height="8.563" transform="translate(24.732 5.559)" fill="#999"/>
        <rect id="Rectangle_337" data-name="Rectangle 337" width="2.074" height="8.563" transform="translate(47.112 5.559)" fill="#999"/>
        <path id="Path_8103" data-name="Path 8103" d="M1582.11,828.9a4.52,4.52,0,0,0-2.844,1.121h0l-.134-.921h-1.722v8.563h2.074v-5.184c0-1.012,1.381-1.849,2.391-1.849a1.955,1.955,0,0,1,1.768,2.117v4.917h2.073v-4.712C1585.708,830.71,1584.739,828.9,1582.11,828.9Z" transform="translate(-1539.786 -823.546)" fill="#999"/>
        <path id="Path_8104" data-name="Path 8104" d="M1596.177,836.111a2.729,2.729,0,0,1,0-5.451,2.838,2.838,0,0,1,2.141,1.289l1.5-1a4.584,4.584,0,0,0-1.621-1.485,3.822,3.822,0,0,0-1.961-.555,4.483,4.483,0,1,0-.177,8.964h.175a3.835,3.835,0,0,0,1.952-.555,4.592,4.592,0,0,0,1.621-1.485l-1.5-1A2.819,2.819,0,0,1,1596.177,836.111Z" transform="translate(-1541.542 -823.546)" fill="#999"/>
        <path id="Path_8403" data-name="Path 8403" d="M1570.759,828.911h-.149a4.48,4.48,0,1,0,4.481,4.5A4.417,4.417,0,0,0,1570.759,828.911Zm-.114,6.865a2.551,2.551,0,0,1-2.56-2.541v-.011a2.56,2.56,0,0,1,2.552-2.56h.009a2.556,2.556,0,0,1,.007,5.112Z" transform="translate(-1538.395 -823.547)" fill="#999"/>
      </g>
      <g id="apple" transform="translate(183.075 447.719)">
        <path id="Icon_awesome-apple" data-name="Icon awesome-apple" d="M1145.683,944.7a4.446,4.446,0,0,1,2.379-4.041,5.12,5.12,0,0,0-4.033-2.125c-1.692-.133-3.541.986-4.217.986-.714,0-2.354-.939-3.641-.939-2.663.043-5.485,2.12-5.485,6.348a11.869,11.869,0,0,0,.687,3.87c.614,1.749,2.812,6.038,5.109,5.962,1.2-.029,2.049-.853,3.612-.853,1.515,0,2.3.853,3.641.853,2.316-.033,4.309-3.931,4.89-5.686a4.725,4.725,0,0,1-2.941-4.384Zm-2.7-7.825a4.488,4.488,0,0,0,1.14-3.455,5.051,5.051,0,0,0-3.236,1.666,4.556,4.556,0,0,0-1.22,3.427,4.005,4.005,0,0,0,3.313-1.637Z" transform="translate(-1130.685 -933.418)" fill="#999"/>
        <g id="Ios" transform="translate(0.89 23.528)" style="isolation: isolate">
          <text id="Ios-2" data-name="Ios" transform="translate(0 11)" fill="#999" font-size="11" font-family="SourceSansPro-Regular, Source Sans Pro" style="isolation: isolate"><tspan x="0" y="0">Ios</tspan></text>
        </g>
      </g>
      <g id="swift" transform="translate(45.432 338.755)">
        <path id="Icon_simple-swift" data-name="Icon simple-swift" d="M999.583,824.422c.057-.114.057-.228.114-.342,1.369-5.363-1.882-11.631-7.472-14.938a13.108,13.108,0,0,1,2.566,10.776,5.623,5.623,0,0,1-.285.912,5.254,5.254,0,0,1-.458-.285,69.727,69.727,0,0,1-11.455-9.407,68.764,68.764,0,0,0,6.955,8.719,75.654,75.654,0,0,1-9.921-7.523A13.139,13.139,0,0,0,981,814.216a58.54,58.54,0,0,0,10.15,10.6c-2.908,1.769-6.957,1.882-11.062,0a16.412,16.412,0,0,1-2.852-1.71,16.83,16.83,0,0,0,7.583,6.443c3.82,1.654,7.7,1.541,10.49,0h.058a1.179,1.179,0,0,0,.342-.228c1.369-.684,4.048-1.425,5.531,1.426C1001.635,831.548,1002.378,827.843,999.583,824.422Z" transform="translate(-974.136 -809.142)" fill="#999"/>
        <g id="Swift-2" transform="translate(0 24.646)" style="isolation: isolate">
          <text id="Swift-2-2" data-name="Swift" transform="translate(0 11)" fill="#999" font-size="11" font-family="SourceSansPro-Regular, Source Sans Pro" style="isolation: isolate"><tspan x="0" y="0">Swift</tspan></text>
        </g>
      </g>
      <g id="php" transform="translate(0 226.379)">
        <path id="Icon_simple-php" data-name="Icon simple-php" d="M933.16,688.244h-1.52l-.828,4.259h1.348a3.267,3.267,0,0,0,2-.508,2.686,2.686,0,0,0,.885-1.687,1.844,1.844,0,0,0-.2-1.6,2.27,2.27,0,0,0-1.684-.466Zm8.026-7.269c-10.659,0-19.3,4.545-19.3,10.152s8.643,10.154,19.3,10.154,19.3-4.547,19.3-10.154S951.845,680.975,941.186,680.975Zm-5.244,11.984a3.916,3.916,0,0,1-1.475.886,6.888,6.888,0,0,1-2.067.263h-1.9l-.526,2.7h-2.216l1.978-10.171H934a3.535,3.535,0,0,1,2.806,1.01,3.156,3.156,0,0,1,.526,2.818A4.437,4.437,0,0,1,935.942,692.959Zm6.473,1.15.877-4.5a1.214,1.214,0,0,0-.109-1.047,1.545,1.545,0,0,0-1.1-.28h-1.754l-1.132,5.831h-2.2l1.978-10.177h2.2l-.526,2.706H942.6a3.811,3.811,0,0,1,2.551.645,2.134,2.134,0,0,1,.422,2.089l-.92,4.735Zm12.22-3.643a4.493,4.493,0,0,1-.491,1.363,4.609,4.609,0,0,1-.9,1.131,3.946,3.946,0,0,1-1.475.887,6.906,6.906,0,0,1-2.068.263h-1.9l-.526,2.706h-2.218l1.978-10.171h4.261a3.538,3.538,0,0,1,2.806,1.01A3.159,3.159,0,0,1,954.634,690.466Zm-4.173-2.223h-1.517l-.83,4.259h1.347a3.264,3.264,0,0,0,2-.505,2.694,2.694,0,0,0,.887-1.687,1.845,1.845,0,0,0-.2-1.6,2.267,2.267,0,0,0-1.684-.466Z" transform="translate(-921.884 -680.975)" fill="#999"/>
      </g>
      <g id="android" transform="translate(429.468 439.901)">
        <path id="Icon_awesome-android" data-name="Icon awesome-android" d="M1425.859,935.152v7.139a1.691,1.691,0,0,1-1.671,1.708h-.025a1.841,1.841,0,0,1-1.855-1.708v-7.139a1.84,1.84,0,0,1,1.855-1.7A1.7,1.7,0,0,1,1425.859,935.152Zm.665,9.679a1.821,1.821,0,0,0,1.817,1.825h1.236l.018,3.77a1.7,1.7,0,0,0,1.737,1.666h0a1.7,1.7,0,0,0,1.666-1.666v-3.77h2.294v3.77a1.711,1.711,0,0,0,3.42,0v-3.77h1.245a1.82,1.82,0,0,0,1.812-1.825h0V933.768h-15.245Zm15.292-11.661h-15.36a6.925,6.925,0,0,1,3.921-6.128l-1.177-2.176a.238.238,0,0,1,.074-.328h0a.237.237,0,0,1,.327.074h0l.01.019,1.2,2.192a8.328,8.328,0,0,1,6.677,0l1.19-2.192a.236.236,0,0,1,.317-.105h0a.238.238,0,0,1,.105.319h0l-.011.019-1.178,2.176a6.945,6.945,0,0,1,3.905,6.132ZM1431.3,929.75a.647.647,0,0,0-.647-.647h0a.647.647,0,0,0-.624.672h0a.633.633,0,1,0,1.266-.026Zm6.991,0a.638.638,0,0,0-.647-.629h0a.638.638,0,1,0,.018,1.277h0a.644.644,0,0,0,.624-.649Zm5.845,3.705a1.69,1.69,0,0,0-1.7,1.681h0v7.151a1.7,1.7,0,0,0,1.694,1.708h0a1.842,1.842,0,0,0,1.855-1.708v-7.139a1.825,1.825,0,0,0-1.855-1.7Z" transform="translate(-1413.007 -924.501)" fill="#999"/>
        <g id="Android-2" transform="translate(0 29.592)" style="isolation: isolate">
          <text id="Android-2-2" data-name="Android" transform="translate(0 11)" fill="#999" font-size="11" font-family="SourceSansPro-Regular, Source Sans Pro" style="isolation: isolate"><tspan x="0" y="0">Android</tspan></text>
        </g>
      </g>
      <g id="laravel" transform="translate(595.726 197.563)">
        <g id="Group_953" data-name="Group 953" transform="translate(8.303)">
          <path id="Path_8351" data-name="Path 8351" d="M1610.791,651.678a.724.724,0,0,1,.392-.414q2.657-1.526,5.307-3.057a.574.574,0,0,1,.64,0q2.7,1.565,5.412,3.118a.549.549,0,0,1,.288.526v11.806c.128-.072.232-.129.335-.188l4.193-2.412a.2.2,0,0,0,.117-.208v-5.855a.554.554,0,0,1,.3-.526q2.717-1.557,5.423-3.121a.526.526,0,0,1,.577,0q2.717,1.568,5.436,3.128a.537.537,0,0,1,.294.51v6.193a.545.545,0,0,1-.3.516q-2.575,1.473-5.143,2.957a.2.2,0,0,0-.116.2q0,2.928.005,5.855a.57.57,0,0,1-.315.545q-5.469,3.142-10.93,6.294a.6.6,0,0,1-.662,0q-5.477-3.157-10.96-6.313a.649.649,0,0,1-.286-.351Zm11.123,24.726v-5.187a.238.238,0,0,0-.141-.244c-1.688-.95-3.371-1.909-5.062-2.857a.628.628,0,0,1-.36-.614q.011-6.072.007-12.144a.207.207,0,0,0-.118-.209q-2.2-1.263-4.4-2.531c-.037-.021-.075-.039-.134-.069v17.8a.261.261,0,0,0,.149.263q4.508,2.589,9.013,5.186Zm.913,0c.063-.034.1-.055.145-.078l9.949-5.724a.2.2,0,0,0,.115-.2v-5.161c-.06.031-.1.049-.135.07l-9.96,5.683a.2.2,0,0,0-.113.2v5.21Zm-5.559-9.549c.053-.026.088-.041.121-.061l4.411-2.537a.2.2,0,0,0,.116-.2V652.688c0-.042-.005-.088-.009-.141l-.109.058-4.413,2.537a.2.2,0,0,0-.119.207V666.7Zm.474.8c.046.028.079.05.113.069l4.418,2.5a.182.182,0,0,0,.206-.01q4.932-2.819,9.865-5.633c.068-.039.136-.082.218-.13l-.125-.076-4.389-2.529a.2.2,0,0,0-.238,0q-4.974,2.867-9.949,5.731a.791.791,0,0,0-.12.073Zm-5.569-15.892.116.073q2.206,1.268,4.41,2.543a.2.2,0,0,0,.228,0q2.2-1.27,4.4-2.536c.036-.021.072-.044.122-.075l-.117-.075q-2.21-1.273-4.42-2.543a.175.175,0,0,0-.207.007q-2.168,1.251-4.338,2.5Zm16.675,3.144.124.078,4.4,2.536a.2.2,0,0,0,.227,0q2.173-1.257,4.346-2.507c.055-.032.109-.065.175-.106l-.123-.076q-2.21-1.273-4.42-2.543a.159.159,0,0,0-.185,0q-2.069,1.194-4.139,2.385Zm4.177,8.748c0-.054.008-.093.008-.131v-5.04a.177.177,0,0,0-.1-.171q-2.207-1.268-4.411-2.538c-.04-.023-.082-.044-.138-.073,0,.057-.008.1-.008.134v5.035a.175.175,0,0,0,.1.175q2.218,1.273,4.433,2.55c.034.015.069.03.119.053Zm5.561-7.948c-.051.026-.08.039-.106.055q-2.215,1.276-4.433,2.55a.184.184,0,0,0-.106.189v5.162c.057-.03.095-.049.132-.07q2.2-1.268,4.4-2.53a.2.2,0,0,0,.112-.2V655.7Z" transform="translate(-1610.791 -648.11)" fill="#999"/>
        </g>
        <g id="Laravel-2" transform="translate(0 29.652)">
          <g id="Laravel-2-2" style="isolation: isolate">
            <text id="Laravel-2-2" data-name="Laravel" transform="translate(0 11)" fill="#999" font-size="11" font-family="SourceSansPro-Regular, Source Sans Pro" style="isolation: isolate"><tspan x="0" y="0">Laravel</tspan></text>
          </g>
        </g>
      </g>
      <g id="github" transform="translate(586.636 86.833)">
        <path id="Icon_awesome-github" data-name="Icon awesome-github" d="M1605.726,540.382c0,.1-.11.175-.248.175-.157.014-.263-.062-.263-.175,0-.1.11-.175.248-.175S1605.726,540.27,1605.726,540.382Zm-1.482-.215c-.033.1.062.205.205.233a.224.224,0,0,0,.3-.1c.029-.1-.062-.205-.205-.248a.245.245,0,0,0-.3.111Zm2.1-.081c-.138.033-.233.124-.219.233s.138.157.281.124.233-.124.219-.219-.142-.152-.28-.138Zm3.137-18.262a11.428,11.428,0,0,0-11.666,11.185v.443a11.95,11.95,0,0,0,8.078,11.4c.614.11.824-.263.824-.577,0-.3-.014-1.929-.014-2.926,0,0-3.332.715-4.033-1.42,0,0-.544-1.387-1.325-1.744,0,0-1.092-.748.076-.734a2.516,2.516,0,0,1,1.841,1.227,2.52,2.52,0,0,0,3.41,1.031l.064-.035a2.643,2.643,0,0,1,.763-1.606c-2.664-.3-5.349-.681-5.349-5.266a3.61,3.61,0,0,1,1.125-2.806,4.507,4.507,0,0,1,.116-3.234c1-.31,3.288,1.286,3.288,1.286a11.259,11.259,0,0,1,5.986,0s2.292-1.6,3.288-1.287a4.5,4.5,0,0,1,.124,3.236,3.7,3.7,0,0,1,1.228,2.806c0,4.6-2.806,4.966-5.471,5.266a2.817,2.817,0,0,1,.81,2.211c0,1.606-.014,3.595-.014,3.984,0,.31.219.687.824.577a11.838,11.838,0,0,0,8-11.389,11.687,11.687,0,0,0-11.74-11.631h0c-.078,0-.157,0-.232,0Zm-7.034,16.437c-.062.047-.048.157.033.248s.186.11.248.047.047-.157-.033-.248S1602.513,538.2,1602.451,538.262Zm-.515-.386c-.033.062.014.138.11.186a.142.142,0,0,0,.2-.025h0l.005-.008c.033-.062-.014-.139-.11-.186-.1-.028-.176-.015-.2.032Zm1.544,1.692c-.076.062-.047.205.062.3.11.11.248.124.309.047s.033-.205-.062-.3c-.1-.105-.247-.12-.31-.047Zm-.543-.7c-.076.047-.076.175,0,.281s.205.157.263.11a.218.218,0,0,0,0-.3c-.062-.105-.186-.153-.263-.088Z" transform="translate(-1591.799 -521.821)" fill="#999"/>
        <g id="GitHub_" data-name="GitHub " transform="translate(0 24.147)">
          <g id="GitHub-2" style="isolation: isolate">
            <text id="GitHub-2-2" data-name="GitHub" transform="translate(0 11)" fill="#999" font-size="11" font-family="SourceSansPro-Regular, Source Sans Pro" style="isolation: isolate"><tspan x="0" y="0">GitHub</tspan></text>
          </g>
        </g>
      </g>
      <g id="node.js" transform="translate(45.263)">
        <g id="Icon_ionic-logo-nodejs" data-name="Icon ionic-logo-nodejs" transform="translate(10.837)">
          <path id="Path_8436" data-name="Path 8436" d="M997.7,450.4a2.009,2.009,0,0,1-1.026-.283l-3.266-2c-.488-.281-.248-.382-.088-.438a7.1,7.1,0,0,0,1.535-.763.246.246,0,0,1,.244.02l2.448,1.449a.313.313,0,0,0,.3,0l9.568-5.688a.325.325,0,0,0,.149-.274V430.915a.333.333,0,0,0-.151-.279l-9.563-5.834a.3.3,0,0,0-.3,0l-9.557,5.836a.324.324,0,0,0-.155.277v11.517a.313.313,0,0,0,.153.271l2.462,1.477c1.456.752,2.317-.011,2.317-.9V431.954a.285.285,0,0,1,.28-.291h1.406a.287.287,0,0,1,.283.29h0v11.325a2.861,2.861,0,0,1-2.544,3.147,2.93,2.93,0,0,1-.489.01,4.079,4.079,0,0,1-2.253-.634l-2.564-1.527a2.152,2.152,0,0,1-1.024-1.843V430.751a2.144,2.144,0,0,1,1.028-1.841l9.782-5.852a2.076,2.076,0,0,1,2.055,0l9.781,5.848a2.151,2.151,0,0,1,1.028,1.841v11.684a2.159,2.159,0,0,1-1.028,1.847l-9.781,5.842a2.009,2.009,0,0,1-1.029.285Z" transform="translate(-985.867 -422.785)" fill="#999"/>
          <path id="Path_8437" data-name="Path 8437" d="M1002.08,443.692c-3.983,0-5.179-1.949-5.179-3.654a.285.285,0,0,1,.279-.292h1.268a.286.286,0,0,1,.281.247c.19,1.332,1.033,1.92,3.349,1.92,2.059,0,2.9-.637,2.9-1.768,0-.653-.213-1.14-3.42-1.461-2.677-.274-4.333-.886-4.333-3.1,0-2.043,1.666-3.236,4.453-3.236,2.843,0,4.714.863,4.881,3.134a.315.315,0,0,1-.076.224.28.28,0,0,1-.2.095h-1.27a.283.283,0,0,1-.275-.229c-.271-1.045-1.046-1.442-3.056-1.442-2.249,0-2.512.789-2.512,1.394,0,.737.31.952,3.348,1.367,3.006.41,4.435.993,4.435,3.178,0,2.206-1.776,3.624-4.875,3.624Z" transform="translate(-987.226 -423.964)" fill="#999"/>
        </g>
        <g id="Node.js-2" transform="translate(0 30.315)" style="isolation: isolate">
          <text id="Node.js-2-2" data-name="Node.js" transform="translate(0 11)" fill="#999" font-size="11" font-family="SourceSansPro-Regular, Source Sans Pro" style="isolation: isolate"><tspan x="0" y="0">Node.js</tspan></text>
        </g>
      </g>
      <g id="python" transform="translate(550.296 2.445)">
        <g id="Icon_ionic-logo-python" data-name="Icon ionic-logo-python" transform="translate(5.963)">
          <path id="Path_8438" data-name="Path 8438" d="M1564.287,436.983a3.978,3.978,0,0,1,.715-.064h6.212a2.987,2.987,0,0,0,.8-.108,2.775,2.775,0,0,0,2.056-2.692V428.74a3.164,3.164,0,0,0-2.852-2.935,23.225,23.225,0,0,0-3.4-.232,16.449,16.449,0,0,0-2.73.232c-2.417.421-2.857,1.306-2.857,2.935v1.766h5.918v.986H1560.3c-2.2,0-3.979,2.624-4,5.874v.046a8.539,8.539,0,0,0,.166,1.69c.491,2.445,2.017,4.229,3.831,4.229h.936V440.5A3.644,3.644,0,0,1,1564.287,436.983Zm.631-7.525a1.077,1.077,0,1,1,1.072-1.081v.008a1.073,1.073,0,0,1-1.071,1.073Z" transform="translate(-1556.309 -425.574)" fill="#999"/>
          <path id="Path_8439" data-name="Path 8439" d="M1580.563,436.18c-.565-2.252-2.03-3.858-3.747-3.858h-.935v2.508a3.748,3.748,0,0,1-3.051,3.864,3.347,3.347,0,0,1-.512.039h-6.4a3.151,3.151,0,0,0-.8.1,2.646,2.646,0,0,0-2.054,2.562v5.377c0,1.531,1.54,2.431,3.05,2.87a10.458,10.458,0,0,0,5.941,0c1.436-.41,2.845-1.241,2.845-2.87v-1.629h-5.918v-.986h7.84c1.556,0,2.9-1.315,3.564-3.24a8.3,8.3,0,0,0,.432-2.679A8.511,8.511,0,0,0,1580.563,436.18Zm-8.389,9.881a1.077,1.077,0,1,1-1.072,1.081v-.009A1.072,1.072,0,0,1,1572.174,446.06Z" transform="translate(-1557.141 -426.405)" fill="#999"/>
        </g>
        <g id="Python-2" transform="translate(0 27.871)" style="isolation: isolate">
          <text id="Python-2-2" data-name="Python" transform="translate(0 11)" fill="#999" font-size="11" font-family="SourceSansPro-Regular, Source Sans Pro" style="isolation: isolate"><tspan x="0" y="0">Python</tspan></text>
        </g>
      </g>
    </g>
    <g id="bhoomi" transform="translate(288.522 550.392)">
      <ellipse id="Ellipse_115" data-name="Ellipse 115" cx="1.53" cy="1.53" rx="1.53" ry="1.53" transform="translate(64.702 1.682)" fill="#999"/>
      <path id="Path_8440" data-name="Path 8440" d="M1274.188,976.472a6.149,6.149,0,1,1-.238,0C1274.03,976.468,1274.109,976.469,1274.188,976.472Zm0,10.127a3.908,3.908,0,1,0-3.879-3.937v.025a3.8,3.8,0,0,0,3.675,3.911C1274.052,986.6,1274.121,986.6,1274.188,986.6Z" transform="translate(-1253.031 -969.65)" fill="#999"/>
      <path id="Path_8441" data-name="Path 8441" d="M1290.305,976.472a6.149,6.149,0,1,1-.236,0C1290.148,976.468,1290.226,976.469,1290.305,976.472Zm0,10.127a3.9,3.9,0,1,0-3.877-3.928v.027a3.8,3.8,0,0,0,3.69,3.9C1290.18,986.6,1290.242,986.6,1290.305,986.6Z" transform="translate(-1255.017 -969.65)" fill="#999"/>
      <path id="Path_8442" data-name="Path 8442" d="M1325.084,988.382V976.743a.268.268,0,0,1,.263-.271h1.924a.269.269,0,0,1,.271.263v11.644a.268.268,0,0,1-.268.268h-1.924a.268.268,0,0,1-.268-.268Z" transform="translate(-1260.083 -969.651)" fill="#999"/>
      <path id="Path_8443" data-name="Path 8443" d="M1314.835,976.415a4.933,4.933,0,0,0-4.262,2.225,4.532,4.532,0,0,0-4.251-2.225,4.169,4.169,0,0,0-3.615,1.761v-1.9a.27.27,0,0,0-.405-.233l-2,1.154a.142.142,0,0,0-.073.124v11.006a.268.268,0,0,0,.268.268h1.935a.269.269,0,0,0,.271-.263v-6.465a3.025,3.025,0,0,1,3.229-3.12c1.776,0,2.82,1.14,2.82,3.12v6.452a.268.268,0,0,0,.268.268h1.929a.264.264,0,0,0,.268-.258v-6.615a3.023,3.023,0,0,1,3.07-2.977c.054,0,.107,0,.161.007,1.74,0,2.806,1.14,2.806,3.12v6.455a.268.268,0,0,0,.268.268h1.935a.268.268,0,0,0,.268-.268h0v-6.977C1319.731,978.454,1318.016,976.415,1314.835,976.415Z" transform="translate(-1257.021 -969.594)" fill="#999"/>
      <path id="Path_8444" data-name="Path 8444" d="M1257.809,975.513a6.382,6.382,0,0,0-4.4,1.677v-8.231a.268.268,0,0,0-.4-.233l-1.981,1.144a.141.141,0,0,0-.075.125v17.427a.268.268,0,0,0,.268.268h1.929a.268.268,0,0,0,.268-.268h0v-1.157a6.385,6.385,0,0,0,4.4,1.676,6.215,6.215,0,0,0,.2-12.428C1257.947,975.512,1257.878,975.512,1257.809,975.513Zm0,10.127a3.812,3.812,0,0,1-3.88-3.742c0-.057,0-.113,0-.17a3.8,3.8,0,0,1,3.7-3.9c.058,0,.116,0,.174,0a3.805,3.805,0,0,1,3.879,3.732c0,.057,0,.114,0,.172a3.806,3.806,0,0,1-3.7,3.911C1257.929,985.641,1257.868,985.641,1257.809,985.64Z" transform="translate(-1250.949 -968.692)" fill="#999"/>
    </g>
  </g>
</svg>
