<svg xmlns="http://www.w3.org/2000/svg" width="285.636" height="285.636" viewBox="0 0 285.636 285.636">
  <g id="ellipse1" transform="translate(0.5 0.5)">
    <path id="Ellipse_114" data-name="Ellipse 114" d="M1212.306,732.888a142.6,142.6,0,0,1-8.547-129.371" transform="translate(-1192.169 -517.547)" fill="none" stroke="#f5c113" stroke-linecap="round" stroke-width="1"/>
    <path id="Ellipse_114-2" data-name="Ellipse 114" d="M1395.1,717.572a142.419,142.419,0,0,1-155.607,8.466" transform="translate(-1168.521 -460.55)" fill="none" stroke="#f5c113" stroke-linecap="round" stroke-width="1"/>
    <path id="Ellipse_114-3" data-name="Ellipse 114" d="M1370.808,596.413a142.674,142.674,0,0,1,6.4,120.317" transform="translate(-1102.898 -521.097)" fill="none" stroke="#f5c113" stroke-linecap="round" stroke-width="1"/>
    <path id="Ellipse_114-4" data-name="Ellipse 114" d="M1244.792,561.058a142.642,142.642,0,0,1,124.482-1.126" transform="translate(-1165.872 -546.193)" fill="none" stroke="#f5c113" stroke-linecap="round" stroke-width="1"/>
    <g id="salesforcelogo" transform="translate(60.647 76.92)">
      <g id="SF-logo" transform="translate(10.089 7.951)">
        <g id="Component_79_1" data-name="Component 79 1">
          <ellipse id="Ellipse_98" data-name="Ellipse 98" cx="31.305" cy="31.305" rx="31.305" ry="31.305" transform="translate(10.436)" fill="#fff"/>
          <ellipse id="Ellipse_99" data-name="Ellipse 99" cx="27.826" cy="27.826" rx="27.826" ry="27.826" transform="translate(59.13 4.638)" fill="#fff"/>
          <ellipse id="Ellipse_100" data-name="Ellipse 100" cx="34.782" cy="34.782" rx="34.782" ry="34.782" transform="translate(92.756 16.232)" fill="#fff"/>
          <ellipse id="Ellipse_101" data-name="Ellipse 101" cx="27.826" cy="27.826" rx="27.826" ry="27.826" transform="translate(69.566 42.899)" fill="#fff"/>
          <ellipse id="Ellipse_102" data-name="Ellipse 102" cx="30.146" cy="30.146" rx="30.146" ry="30.146" transform="translate(28.986 53.334)" fill="#fff"/>
          <ellipse id="Ellipse_103" data-name="Ellipse 103" cx="27.826" cy="27.826" rx="27.826" ry="27.826" transform="translate(0 40.58)" fill="#fff"/>
          <ellipse id="Ellipse_104" data-name="Ellipse 104" cx="27.826" cy="27.826" rx="27.826" ry="27.826" transform="translate(33.623 31.305)" fill="#fff"/>
        </g>
      </g>
      <path id="Icon_awesome-salesforce" data-name="Icon awesome-salesforce" d="M1309.829,668.624h-7.551a4.036,4.036,0,0,1,3.911-4.051c1.934,0,3.43,1.1,3.642,4.051ZM1349,664.646c-.135,0-4.051-.506-4.051,5.739s3.9,5.739,4.051,5.739c3.725,0,4.051-3.882,4.051-5.739C1353.047,664.14,1349.126,664.646,1349,664.646Zm-69.709,6.809a2.472,2.472,0,0,0-.943,2.09,2.143,2.143,0,0,0,.943,2.013c1.35,1.06,4.319.608,6,.274V670.98c-1.519-.3-4.8-.562-6,.473Zm142.626-6.741c0,25.1-22.93,44.244-47.394,39.1-5.265,9.452-20.27,20.278-37.888,11.939-11.8,27.522-50.988,26.412-61.282-1.489-34.316,6.848-51.251-39.657-21.568-57.115a35.64,35.64,0,0,1,18.611-46.84h0a35.64,35.64,0,0,1,42.4,11.04,32.2,32.2,0,0,1,45.528-1.067v0a32.208,32.208,0,0,1,6.043,7.881,39.644,39.644,0,0,1,55.563,36.543Zm-148.906,9.114c0-3.376-3.35-4.35-5.121-4.922-1.512-.6-3.843-1.013-3.843-2.562,0-2.712,4.873-1.909,7.214-.608,0,0,.338.2.469-.135.069-.2.675-1.885.743-2.09a.325.325,0,0,0-.2-.4c-3.534-2.194-11.665-2.439-11.665,3.641,0,3.572,3.3,4.426,5.125,4.92,1.35.449,3.776.859,3.776,2.495,0,1.146-1.013,2.025-2.628,2.025a9.133,9.133,0,0,1-5.442-1.823c-.135-.066-.407-.2-.473.2l-.689,2.141c-.135.27.066.337.066.4a11.5,11.5,0,0,0,6.536,1.894c3.776,0,6.132-2.025,6.132-5.19Zm9.172-12.2a12.1,12.1,0,0,0-6.132,1.485.285.285,0,0,0-.073.4h0l.743,2.025a.287.287,0,0,0,.338.2,11.3,11.3,0,0,1,4.852-1.146,4.221,4.221,0,0,1,2.632.675c1.031.8.877,2.377.877,3.038-1.372-.086-5.477-.986-8.429,1.079a4.843,4.843,0,0,0-2.1,4.167,4.674,4.674,0,0,0,1.885,4.113c3.507,2.338,10.4.572,10.92.4.451-.091,1.011-.189,1.011-.538v-9.712c.012-1.322.091-6.2-6.529-6.2Zm13.348-6.012a.319.319,0,0,0-.3-.338h-2.87a.317.317,0,0,0-.338.3v22.675a.317.317,0,0,0,.3.338h2.87a.315.315,0,0,0,.336-.3l0,0a.15.15,0,0,0,0-.04Zm15.979,8.291a6.176,6.176,0,0,0-5.064-2.159,7.235,7.235,0,0,0-5.939,2.565,9.866,9.866,0,0,0-1.879,6.132,8.851,8.851,0,0,0,2.026,6.066,8.3,8.3,0,0,0,6.525,2.363,10.075,10.075,0,0,0,5.325-1.079c.135-.069.2-.2.069-.538l-.676-1.958a.357.357,0,0,0-.4-.2,10.3,10.3,0,0,1-4.389.808,4.4,4.4,0,0,1-4.849-3.9,4.317,4.317,0,0,1,0-.888H1312.9a.355.355,0,0,0,.338-.27c-.083,0,.6-4.22-1.745-6.944Zm10.507,15.106c3.775,0,6.135-2.025,6.135-5.19,0-3.376-3.354-4.35-5.124-4.92-1.183-.476-3.844-.969-3.844-2.562,0-1.079.944-1.819,2.429-1.819a10.916,10.916,0,0,1,4.785,1.212s.337.2.473-.135c.066-.2.675-1.885.739-2.089a.324.324,0,0,0-.2-.4,10.937,10.937,0,0,0-5.8-1.416c-3.44,0-5.864,2.09-5.864,5.064,0,3.572,3.29,4.426,5.121,4.922,1.752.572,3.776.935,3.776,2.495,0,1.146-1.013,2.026-2.628,2.026a9.122,9.122,0,0,1-5.445-1.82.286.286,0,0,0-.4.03v0a.273.273,0,0,0-.069.169l-.676,2.147c-.136.27.066.337.066.4a11.476,11.476,0,0,0,6.532,1.894Zm18.816-16.588c0-.2-.069-.338-.337-.338h-3.376a7.36,7.36,0,0,1,1.28-3.573c1.192-1.182,3.376-.469,3.44-.469.338.135.4,0,.469-.135l.811-2.228c.2-.27,0-.337-.069-.4a7.212,7.212,0,0,0-7.008,1.215,10.336,10.336,0,0,0-2.3,5.594h-2.426a.37.37,0,0,0-.337.338l-.414,2.225c0,.2.069.338.338.338h2.365c-2.439,13.728-2.51,14.391-2.968,15.913a3.283,3.283,0,0,1-1.688,2.223,4.166,4.166,0,0,1-2.765-.069s-.268-.135-.4.2c-.07.2-.743,1.949-.812,2.159s0,.4.135.4a8.3,8.3,0,0,0,5.124,0,5.808,5.808,0,0,0,3.3-3.713c.786-2.209.8-2.805,3.375-17.122h3.506a.37.37,0,0,0,.338-.338Zm15.3,4.589a7.609,7.609,0,0,0-9.631-4.8h0a7.6,7.6,0,0,0-4.8,4.8,12.332,12.332,0,0,0,0,6.741,7.6,7.6,0,0,0,14.42,0,12.228,12.228,0,0,0,.02-6.748Zm13.012-4.787c-1.433-.473-4.763-.545-6.336,1.551v-1.281a.319.319,0,0,0-.3-.338h-2.742a.316.316,0,0,0-.337.3v15.878a.322.322,0,0,0,.3.338h2.8a.323.323,0,0,0,.338-.3h0v-8c0-.834.016-3.259,1.277-4.314a4.2,4.2,0,0,1,3.844-.878.453.453,0,0,0,.4-.272,21.287,21.287,0,0,0,.878-2.294.34.34,0,0,0-.135-.4Zm13.415,15.5-.608-2.09c-.135-.338-.4-.2-.4-.2a9.356,9.356,0,0,1-3.236.542c-1.33,0-4.92-.324-4.92-5.663,0-1.786.531-5.663,4.726-5.663a9.958,9.958,0,0,1,3.3.473s.27.135.338-.2c.27-.743.469-1.281.743-2.159.066-.27-.135-.338-.2-.338a11.553,11.553,0,0,0-7.948,0,7.911,7.911,0,0,0-4.65,7.888c0,.831-.17,8.63,8.294,8.63a12.744,12.744,0,0,0,4.448-.812.371.371,0,0,0,.135-.407ZM1398,666.4a6.291,6.291,0,0,0-6.414-4.65,7.088,7.088,0,0,0-7.349,5.327,11.048,11.048,0,0,0-.473,3.376c0,7.415,5.4,8.426,8.565,8.426a10.106,10.106,0,0,0,5.325-1.079c.135-.069.2-.2.069-.538l-.675-1.958a.359.359,0,0,0-.4-.2,10.33,10.33,0,0,1-4.389.809,4.39,4.39,0,0,1-4.844-3.882v-.01a4.23,4.23,0,0,1,0-.9h10.649a.364.364,0,0,0,.338-.27,14.5,14.5,0,0,0-.4-4.454Zm-6.682-1.825a4.028,4.028,0,0,0-3.911,4.051h7.558c-.251-3.416-2.184-4.051-3.649-4.051Z" transform="translate(-1238.484 -607.393)" fill="#0081c8"/>
    </g>
    <g id="salesforce" transform="translate(5.336 6.481)">
      <g id="LDS" transform="translate(232.387 197.158)">
        <path id="Path_8092" data-name="Path 8092" d="M1363.892,671.864h15.648l-10.334,16.253h9.132l-23.8,30.72,10.589-27.4h-7.3Z" transform="translate(-1347.263 -671.864)" fill="#1181c8"/>
        <g id="LDS-2" transform="translate(2.023 45.592)">
          <g id="LDS-2-2" style="isolation: isolate">
            <text id="LDS-2-2" data-name="LDS" transform="translate(0 14)" fill="#1181c8" font-size="14" font-family="SourceSansPro-Regular, Source Sans Pro" style="isolation: isolate"><tspan x="0" y="0">LDS</tspan></text>
          </g>
        </g>
        <path id="Path_8398" data-name="Path 8398" d="M1357,708.565a17.854,17.854,0,0,1,4.329-31.927" transform="translate(-1348.942 -670.431)" fill="none" stroke="#477189" stroke-linecap="round" stroke-miterlimit="10" stroke-width="1"/>
        <path id="Path_8399" data-name="Path 8399" d="M1379.168,684.466a17.858,17.858,0,0,1-16.5,24.669h0" transform="translate(-1344.821 -668.081)" fill="none" stroke="#477189" stroke-linecap="round" stroke-miterlimit="10" stroke-width="1"/>
      </g>
      <g id="mulesoft-vector-logo" transform="translate(200.799)">
        <g id="Group_917" data-name="Group 917" transform="translate(14.983)">
          <g id="Group_916" data-name="Group 916">
            <path id="Path_8105" data-name="Path 8105" d="M1346.123,583.921a14.747,14.747,0,1,1,14.738-14.756h0a14.735,14.735,0,0,1-14.713,14.755h-.025Zm-.018-30.928a16.081,16.081,0,0,0-16.01,16.155h0a16.081,16.081,0,0,0,16.154,16.009h0a16.082,16.082,0,0,0-.142-32.165Z" transform="translate(-1330.095 -552.993)" fill="#1181c8"/>
          </g>
        </g>
        <path id="Path_8106" data-name="Path 8106" d="M1341.115,574.968a7.38,7.38,0,0,1-4.124-6.726,7.547,7.547,0,0,1,1.272-4.233l5.306,7.923h3.217l5.306-7.923a7.642,7.642,0,0,1,1.272,4.233,7.438,7.438,0,0,1-3.64,6.469l1.025,3.933a12.093,12.093,0,0,0,5.219-16.285h0a12.1,12.1,0,0,0-4.584-4.867l-6.178,9.521-6.111-9.558a12.084,12.084,0,0,0,.977,21.388l1.041-3.871Z" transform="translate(-1314.211 -551.653)" fill="#1181c8"/>
        <path id="Path_8107" data-name="Path 8107" d="M1324.6,589.617l-3.962-8.468h-2.071v13.592h2.071v-9.086l3.2,6.631h1.545l3.107-6.631v9.086h2.071V581.149h-2.071Z" transform="translate(-1318.571 -544.54)" fill="#1181c8"/>
        <path id="Path_8108" data-name="Path 8108" d="M1335.112,590.059a1.928,1.928,0,0,1-1.675,2.149,2.06,2.06,0,0,1-.324.013c-1.091,0-1.95-.65-1.95-2.162v-5.906h-1.95v6.2a3.586,3.586,0,0,0,.982,2.743,3.418,3.418,0,0,0,2.381.872,3.46,3.46,0,0,0,2.581-1.091v.982h1.908v-9.685h-1.95v5.887Z" transform="translate(-1315.379 -543.638)" fill="#1181c8"/>
        <path id="Path_8109" data-name="Path 8109" d="M1338.635,591.962V581.149h-1.95v10.922a2.462,2.462,0,0,0,2.236,2.669h0a2.45,2.45,0,0,0,.416,0h1.2v-1.653h-.854c-.78,0-1.054-.381-1.054-1.127Z" transform="translate(-1313.136 -544.54)" fill="#1181c8"/>
        <path id="Path_8110" data-name="Path 8110" d="M1342.043,588.231a2.886,2.886,0,0,1,.26-1.308,2.021,2.021,0,0,1,1.926-1.217,2,2,0,0,1,1.909,1.217,3.174,3.174,0,0,1,.273,1.308Zm2.162-4.161c-2.47,0-4.107,1.82-4.107,4.941,0,3.689,1.926,4.96,4.361,4.96a4.468,4.468,0,0,0,3.616-1.508l-1.253-1.164a2.9,2.9,0,0,1-2.341,1,2.38,2.38,0,0,1-2.49-2.264v0a2.286,2.286,0,0,1,.02-.441h6.274v-.854c.018-2.743-1.49-4.67-4.089-4.67Z" transform="translate(-1312.108 -543.664)" fill="#1181c8"/>
        <path id="Path_8111" data-name="Path 8111" d="M1355.792,588.107a4.684,4.684,0,0,0-2.545-1.018l-1.544-.237a3.187,3.187,0,0,1-1.526-.618,1.615,1.615,0,0,1-.508-1.272,2.168,2.168,0,0,1,2.19-2.147,2.251,2.251,0,0,1,.281.021,4.067,4.067,0,0,1,2.962,1.04l1.308-1.29a5.7,5.7,0,0,0-4.215-1.545c-2.834,0-4.543,1.617-4.543,4a3.38,3.38,0,0,0,1,2.6,4.627,4.627,0,0,0,2.581,1.091l1.6.237a2.328,2.328,0,0,1,1.49.581,1.835,1.835,0,0,1,.545,1.417c0,1.308-1.04,2.071-2.8,2.071a4.514,4.514,0,0,1-3.47-1.29l-1.381,1.344a6.171,6.171,0,0,0,4.811,1.8c2.853,0,4.889-1.49,4.889-4a3.682,3.682,0,0,0-1.127-2.78Z" transform="translate(-1309.972 -544.574)" fill="#1181c8"/>
        <path id="Path_8112" data-name="Path 8112" d="M1360.973,591.685a1.978,1.978,0,0,1-1.43.563,1.935,1.935,0,0,1-1.417-.563,5.574,5.574,0,0,1,0-5.306,2.09,2.09,0,0,1,2.853,0,3.778,3.778,0,0,1,.672,2.654,3.833,3.833,0,0,1-.672,2.653Zm-1.43-7.614a3.9,3.9,0,0,0-2.889,1.144,6.9,6.9,0,0,0,0,7.614,3.84,3.84,0,0,0,2.889,1.144,3.938,3.938,0,0,0,2.907-1.144,6.908,6.908,0,0,0,0-7.614,4,4,0,0,0-2.907-1.144Z" transform="translate(-1307.482 -543.664)" fill="#1181c8"/>
        <path id="Path_8113" data-name="Path 8113" d="M1363.494,583.773v1.49h-1.109v1.49h1.109v8.013h1.95v-8.013h1.926v-1.49h-1.926v-1.4a.982.982,0,0,1,.824-1.121h0a.905.905,0,0,1,.246-.007h.854v-1.671h-1.219a2.544,2.544,0,0,0-2.655,2.429v.278Z" transform="translate(-1305.417 -544.566)" fill="#1181c8"/>
        <path id="Path_8114" data-name="Path 8114" d="M1370.2,582.031h-1.95v2.944h-1.1v1.49h1.109v5.324a2.511,2.511,0,0,0,2.325,2.686h0a2.77,2.77,0,0,0,.328,0h1.162v-1.653h-.8a.984.984,0,0,1-1.078-.88.974.974,0,0,1,0-.246v-5.232h1.872v-1.49H1370.2v-2.944Z" transform="translate(-1303.987 -544.276)" fill="#1181c8"/>
      </g>
      <g id="einstein" transform="translate(12.12 9.893)">
        <path id="Path_8339" data-name="Path 8339" d="M1214.741,552.911c.625.151,1.261.26,1.875.458a13.356,13.356,0,0,1,5.405,3.367,3.482,3.482,0,0,1,.325.44c.565-.467,1.031-.878,1.525-1.251a8.588,8.588,0,0,1,4.865-1.677,12.22,12.22,0,0,1,4.984.642,2.379,2.379,0,0,1,.345.141.605.605,0,0,1,.3.8v0h0a.629.629,0,0,1-.8.326,19.6,19.6,0,0,0-2.61-.624,8.25,8.25,0,0,0-7.574,2.486l5.488,8.695c.52-.492,1.063-1.04,1.635-1.55.677-.612,1.371-1.205,2.065-1.8.375-.32.744-.323.988-.034s.157.675-.205,1c-1.219,1.1-2.43,2.219-3.64,3.33-.15.13-.252.26-.13.493,1.506,2.923,2.965,5.87,4.506,8.774a14.308,14.308,0,0,0,4.188,4.923,9.878,9.878,0,0,0,3.041,1.485.472.472,0,0,0,.627-.23h0l.009-.021a9.176,9.176,0,0,0,1.324-4.6,31.227,31.227,0,0,0-1.977-10.781c-.13-.39-.268-.78-.39-1.179a.616.616,0,0,1,.319-.813l.021-.009a.608.608,0,0,1,.793.331h0a.848.848,0,0,1,.027.086c.65,2.2,1.378,4.377,1.881,6.606a28.868,28.868,0,0,1,.571,4.892,9.974,9.974,0,0,1-1.422,5.994c.59,0,1.107.042,1.615-.006a11.832,11.832,0,0,0,6.639-2.751,12.042,12.042,0,0,0,1.49-16.964h0a12.036,12.036,0,0,0-7.459-4.174c-.451-.07-.689-.322-.65-.7a.65.65,0,0,1,.733-.554.825.825,0,0,1,.1.022,13.269,13.269,0,0,1,4.643,24.677,13.053,13.053,0,0,1-7.541,1.69.729.729,0,0,0-.671.285,10.833,10.833,0,0,1-6.706,3.732,25.958,25.958,0,0,1-3.6.094c-.51,0-1.019-.09-1.53-.108a.454.454,0,0,0-.354.182,9.872,9.872,0,0,1-7.236,5.167,11.552,11.552,0,0,1-9.817-2.257,11.344,11.344,0,0,1-2.968-3.641.465.465,0,0,0-.556-.313,10.448,10.448,0,0,1-11.29-8.481,4.415,4.415,0,0,0-.159-.536v-2.573c.038-.2.082-.39.115-.594a13.332,13.332,0,0,1,4.2-7.894.507.507,0,0,0,.13-.417,10.733,10.733,0,0,1-.309-4.1,11.492,11.492,0,0,1,3.2-7.021.651.651,0,0,0,.13-.49,2.161,2.161,0,0,1,.78-2.186,1.828,1.828,0,0,1,2.171-.26,1.683,1.683,0,0,0,1.749.052,1.569,1.569,0,0,1,.278-.079l2.249-.489Zm-11.334,13.984c.53-.26,1.051-.546,1.59-.788a13.36,13.36,0,0,1,5.321-.875,19.566,19.566,0,0,1,4.73.494.434.434,0,0,0,.54-.217,68.666,68.666,0,0,1,5.738-7.19c.217-.237.192-.381-.029-.572-.355-.308-.682-.65-1.04-.945a9.86,9.86,0,0,0-8.488-2.477c-.762.149-1.508.381-2.244.569a2.213,2.213,0,0,1-.984,2.312,2.138,2.138,0,0,1-2.4-.049,10.39,10.39,0,0,0-2.73,9.739Zm-.688,2.17a3.688,3.688,0,0,0-.293.27c-.328.374-.675.734-.967,1.135a11.471,11.471,0,0,0-2.34,8.366,9.168,9.168,0,0,0,6.856,7.693,9.538,9.538,0,0,0,3.137.222c-.034-.13-.055-.221-.082-.312a10.687,10.687,0,0,1-.5-3.38,19.767,19.767,0,0,1,.72-4.612.629.629,0,0,0-.2-.719,12.23,12.23,0,0,1-1.161-1.24c-1.311-1.657-2.637-3.3-3.88-5.011a19.262,19.262,0,0,1-1.294-2.417Zm21.541,2.929c-.218-.187-.4-.335-.572-.494a19.68,19.68,0,0,0-7.508-4.184.315.315,0,0,0-.426.13l-.012.023c-.323.532-.674,1.04-1,1.576a39.4,39.4,0,0,0-3.875,8.18.623.623,0,0,0,.2.78c.976.835,1.918,1.714,2.909,2.53.762.628,1.581,1.19,2.42,1.82.827-1.055,1.615-2.049,2.387-3.057a.4.4,0,0,0,.014-.358,2.181,2.181,0,0,1,2.32-3.228.616.616,0,0,0,.467-.2c.322-.377.6-.789.91-1.186.579-.771,1.162-1.539,1.769-2.34Zm-6.788,11.027a31.045,31.045,0,0,0,11.67,4.421,9.633,9.633,0,0,0,.541-4.116,19.628,19.628,0,0,0-3.9-9.762c-.178-.235-.39-.449-.614-.714-.91,1.2-1.772,2.34-2.623,3.5a.474.474,0,0,0,0,.4,2.129,2.129,0,0,1-.179,2.416,2.155,2.155,0,0,1-2.227.78.388.388,0,0,0-.313.082c-.795.977-1.559,1.969-2.355,2.989Zm11.166,5.591a32.768,32.768,0,0,1-12.044-4.674,11.347,11.347,0,0,1-5.69,3.741c.032.091.07.181.112.269a10.681,10.681,0,0,0,15.314,3.334,8.034,8.034,0,0,0,2.307-2.668Zm12.181-4.114a3.366,3.366,0,0,1-.422-.148,24.731,24.731,0,0,1-2.609-1.337,15.225,15.225,0,0,1-4.925-5.721c-.973-1.811-1.837-3.681-2.766-5.517-.484-.958-1-1.9-1.542-2.924l-2.562,2.974a1.048,1.048,0,0,0,.087.168,18.17,18.17,0,0,1,3.344,5.447,16.873,16.873,0,0,1,1.5,7.4c-.055.91-.269,1.82-.411,2.73,3.3.995,8.589-.556,10.308-3.075Zm-15.8-13.479c.91-1.04,1.759-2.018,2.63-2.979a.469.469,0,0,0,.086-.657h0l-.013-.016c-1.407-2.264-2.793-4.539-4.2-6.8-.331-.534-.714-1.04-1.115-1.615a72.58,72.58,0,0,0-5.755,7.182,20.666,20.666,0,0,1,8.364,4.894Zm-10.408-4.075c-.13-.04-.219-.076-.309-.094a21.218,21.218,0,0,0-5.495-.323,9.339,9.339,0,0,0-4.668,1.413c-.26.17-.374.318-.213.628a22.482,22.482,0,0,0,1.273,2.46c.965,1.381,2.032,2.69,3.081,4.01.442.556.946,1.066,1.47,1.65a42.964,42.964,0,0,1,4.861-9.738Zm-4.226,19.573a9.277,9.277,0,0,0,5.071-3.223l-5.1-4.148a11.989,11.989,0,0,0,.034,7.377Z" transform="translate(-1197.152 -552.911)" fill="#1181c8"/>
        <path id="Path_8340" data-name="Path 8340" d="M1235.065,559.708a4.717,4.717,0,1,1-9.433-.127h0V559.5a4.716,4.716,0,0,1,4.858-4.571h0A4.716,4.716,0,0,1,1235.065,559.708Zm-6.839-.066a2.128,2.128,0,0,0,2.116,2.141h0a2.129,2.129,0,0,0,2.141-2.113h0a2.129,2.129,0,1,0-4.257-.027Z" transform="translate(-1188.793 -552.306)" fill="#1181c8"/>
        <g id="Group_951-2" data-name="Group 951-2" transform="translate(0 46.752)">
          <path id="Path_8341" data-name="Path 8341" d="M1234.994,599.938l.744,1.077c-.194.13-.358.251-.529.358a6.205,6.205,0,0,1-4.239.78,4,4,0,0,1-3.4-2.872,6.218,6.218,0,0,1,.416-5.289,3.847,3.847,0,0,1,3.275-1.95,4.06,4.06,0,0,1,3.659,1.273,5.82,5.82,0,0,1,1.136,4.421h-7.1a2.908,2.908,0,0,0,2.652,3.143h.021A5,5,0,0,0,1234.994,599.938Zm-.565-3.561a2.711,2.711,0,0,0-2.294-3.07c-.064-.009-.13-.017-.193-.021-1.806-.087-2.938,1.047-3.057,3.091Z" transform="translate(-1188.333 -587.932)" fill="#1181c8"/>
          <path id="Path_8342" data-name="Path 8342" d="M1206.2,597.724h-7.08a2.847,2.847,0,0,0,2.439,3.132,4.94,4.94,0,0,0,3.563-.92l.744,1.081a5.6,5.6,0,0,1-2.861,1.151,8.187,8.187,0,0,1-2.01-.038,3.992,3.992,0,0,1-3.3-2.861,6.3,6.3,0,0,1,.324-5.11,3.863,3.863,0,0,1,3.33-2.122,4.032,4.032,0,0,1,3.964,1.6,5.261,5.261,0,0,1,.887,2.664C1206.225,596.752,1206.2,597.2,1206.2,597.724Zm-7.2-1.347h5.536a2.718,2.718,0,0,0-2.269-3.074c-1.855-.207-3,.858-3.267,3.078Z" transform="translate(-1197.299 -587.936)" fill="#1181c8"/>
          <path id="Path_8343" data-name="Path 8343" d="M1208.356,592.3h1.463l.153,1.135.164.19a1.674,1.674,0,0,1,.2-.454c1.363-1.551,4.593-1.462,5.644-.208a3.907,3.907,0,0,1,.962,2.5c.032,2.1.017,4.2.017,6.308a.637.637,0,0,1-.05.169h-1.581c-.009-.19-.023-.372-.025-.554v-5.222a4.308,4.308,0,0,0-.121-1.073,1.958,1.958,0,0,0-1.5-1.6,2.813,2.813,0,0,0-2.846.765,2.933,2.933,0,0,0-.792,2.071v5.612h-1.69Z" transform="translate(-1193.98 -587.925)" fill="#1181c8"/>
          <path id="Path_8344" data-name="Path 8344" d="M1238.229,592.293h1.464l.146,1.17c.161-.141.348-.3.532-.467a4.647,4.647,0,0,1,4.681-.625,2.832,2.832,0,0,1,1.659,2.411c.1,2.369.031,4.746.031,7.151h-1.536c-.009-.176-.026-.356-.026-.537q0-2.612-.008-5.224a4.537,4.537,0,0,0-.13-1.123,1.95,1.95,0,0,0-1.578-1.585,2.807,2.807,0,0,0-2.75.78,2.913,2.913,0,0,0-.794,2.07v5.616h-1.681Z" transform="translate(-1185.011 -587.927)" fill="#1181c8"/>
          <path id="Path_8345" data-name="Path 8345" d="M1215.983,601.063l.642-.874a20.738,20.738,0,0,0,2.369.684,3.553,3.553,0,0,0,1.517-.16,1.367,1.367,0,0,0,.992-1.414,1.322,1.322,0,0,0-.955-1.326c-.468-.169-.96-.277-1.43-.446a9.668,9.668,0,0,1-1.712-.7,2.506,2.506,0,0,1-.755-3.464,2.469,2.469,0,0,1,.488-.558,5.081,5.081,0,0,1,5.851.27l-.641.893a12.235,12.235,0,0,0-1.95-.614,4.608,4.608,0,0,0-1.67.143,1.07,1.07,0,0,0-.815,1.076,1.133,1.133,0,0,0,.67,1.18c.488.209,1,.351,1.507.52a12.355,12.355,0,0,1,1.56.544,2.689,2.689,0,0,1,.254,4.748A5.446,5.446,0,0,1,1215.983,601.063Z" transform="translate(-1191.689 -587.925)" fill="#1181c8"/>
          <path id="Path_8346" data-name="Path 8346" d="M1225.5,589.931v2.927h2.523v1.326h-2.481c-.013.233-.032.413-.032.6v4.914c0,1.511.562,1.987,2.054,1.742.082-.013.163-.031.3-.056l.25,1.151a2.8,2.8,0,0,1-4.27-2.4v-5.945h-1.661v-1.106l1.642-.216c0-.65.018-1.286-.008-1.918a.49.49,0,0,1,.384-.574l.04-.006C1224.631,590.268,1225.012,590.1,1225.5,589.931Z" transform="translate(-1189.83 -588.549)" fill="#1181c8"/>
          <path id="Path_8347" data-name="Path 8347" d="M1205.542,592.226h1.6v9.636h-1.6Z" transform="translate(-1194.824 -587.86)" fill="#1181c8"/>
          <path id="Path_8348" data-name="Path 8348" d="M1235.411,592.226H1237v9.634h-1.593Z" transform="translate(-1185.857 -587.86)" fill="#1181c8"/>
          <path id="Path_8349" data-name="Path 8349" d="M1236.295,590.918c-.744,0-1.072-.3-1.073-1a.928.928,0,0,1,.8-1.04h0a.91.91,0,0,1,.252,0,.947.947,0,0,1,1.082.789h0a.947.947,0,0,1,.006.226C1237.373,590.561,1237,590.916,1236.295,590.918Z" transform="translate(-1185.916 -588.868)" fill="#1181c8"/>
          <path id="Path_8350" data-name="Path 8350" d="M1206.4,590.917c-.731,0-1.061-.321-1.054-1.019s.365-1.019,1.077-1.019a.944.944,0,0,1,1.063.807h0a.992.992,0,0,1,0,.231Q1207.478,590.92,1206.4,590.917Z" transform="translate(-1194.883 -588.868)" fill="#1181c8"/>
        </g>
      </g>
      <g id="tableau" transform="translate(0 199.156)">
        <path id="Path_8352" data-name="Path 8352" d="M1212.53,708.21h1.982v4.785c.56-.123,1.094-.268,1.635-.354a4.256,4.256,0,0,1,4.93,3.452h0c.02.118.036.237.047.356a6.175,6.175,0,0,1-.244,2.755,4.155,4.155,0,0,1-3.374,2.748,9.379,9.379,0,0,1-4.688-.4c-.256-.081-.223-.239-.225-.415q-.029-3.577-.054-7.153c-.01-1.8-.01-3.607-.012-5.41Zm1.982,9.174v2.288c0,.2.056.321.268.358a11.851,11.851,0,0,0,1.353.238,2.546,2.546,0,0,0,2.793-1.725,5.349,5.349,0,0,0,.156-1.646,2.5,2.5,0,0,0-1.883-2.389,3.75,3.75,0,0,0-2.5.323.441.441,0,0,0-.165.342c-.025.737-.016,1.475-.016,2.213Z" transform="translate(-1174.493 -674.566)" fill="#1181c8"/>
        <path id="Path_8353" data-name="Path 8353" d="M1252.073,711.987l.033-.542c.608,0,1.2,0,1.789.009.056,0,.147.134.156.221a5.954,5.954,0,0,1,0,.654q-.024,3.867-.047,7.738c0,.19,0,.339-.237.413a9.035,9.035,0,0,1-5.224.245,4.167,4.167,0,0,1-3.139-3.982,6.051,6.051,0,0,1,.386-2.7,4.182,4.182,0,0,1,4.615-2.5A11.992,11.992,0,0,1,1252.073,711.987Zm-.087,6.976a.606.606,0,0,0,.03-.122c.022-1.573.045-3.144.057-4.716a.365.365,0,0,0-.134-.268,2.751,2.751,0,0,0-4.367,1.484,4.465,4.465,0,0,0-.1,1.149,2.519,2.519,0,0,0,1.8,2.53,5.277,5.277,0,0,0,2.709-.058Z" transform="translate(-1163.342 -673.468)" fill="#1181c8"/>
        <path id="Path_8354" data-name="Path 8354" d="M1205.67,711.978c.008-.134.017-.316.029-.518h1.968v.4q-.033,4.1-.07,8.211c0,.169.019.321-.209.394a8.662,8.662,0,0,1-5.425.19,4.039,4.039,0,0,1-2.89-3.6,5.21,5.21,0,0,1,.856-3.9,4.154,4.154,0,0,1,4.113-1.617A10.678,10.678,0,0,1,1205.67,711.978Zm.012,6.965v-4.251c0-.867-.008-.877-.831-1.186-.033-.012-.065-.031-.1-.043a2.6,2.6,0,0,0-3.4,1.4,2.574,2.574,0,0,0-.123.37,5.2,5.2,0,0,0-.1,1.546,2.452,2.452,0,0,0,2.079,2.327,6.146,6.146,0,0,0,2.474-.157Z" transform="translate(-1179.088 -673.463)" fill="#1181c8"/>
        <path id="Path_8355" data-name="Path 8355" d="M1241.71,716.638h-6.61a2.386,2.386,0,0,0,1.9,2.466,6.61,6.61,0,0,0,3.907-.447c.1-.04.189-.084.339-.15,0,.6.009,1.152-.011,1.7,0,.083-.134.194-.221.237a6.555,6.555,0,0,1-3.465.588,7.158,7.158,0,0,1-1.593-.325,4.139,4.139,0,0,1-2.912-3.483,5.124,5.124,0,0,1,.92-4.091,4.25,4.25,0,0,1,3.918-1.619,4.065,4.065,0,0,1,3.824,4.131C1241.726,715.961,1241.71,716.268,1241.71,716.638Zm-2.127-1.46a1.7,1.7,0,0,0-1.555-1.838h-.12a2.519,2.519,0,0,0-2.714,1.843Z" transform="translate(-1167.564 -673.456)" fill="#1181c8"/>
        <path id="Path_8356" data-name="Path 8356" d="M1184.132,716.014v-1.827h5.257v-5.51h1.968v5.492h5.251V716h-5.224v5.975h-1.969v-5.965Z" transform="translate(-1184.132 -674.408)" fill="#1181c8"/>
        <path id="Path_8357" data-name="Path 8357" d="M1259.988,711.661v5.725a1.786,1.786,0,0,0,1.206,1.91,2.728,2.728,0,0,0,1.714.015,1.8,1.8,0,0,0,1.224-1.933v-5.713h1.956a.908.908,0,0,1,.031.147c0,1.974.023,3.948-.008,5.922a2.9,2.9,0,0,1-2.218,2.888,5.782,5.782,0,0,1-3.918-.11,2.93,2.93,0,0,1-1.948-2.87v-5.669c0-.1.009-.189.015-.305Z" transform="translate(-1159.051 -673.395)" fill="#1181c8"/>
        <path id="Path_8358" data-name="Path 8358" d="M1227.018,724.238h-1.908V706.825h1.914Z" transform="translate(-1170.222 -675.036)" fill="#1181c8"/>
        <path id="Path_8359" data-name="Path 8359" d="M1222.209,695.527v4.219h-1.571v-4.191h-3.854v-1.52h3.826v-4.255h1.594v4.234h3.9v1.512Z" transform="translate(-1173.048 -680.822)" fill="#1181c8"/>
        <path id="Path_8360" data-name="Path 8360" d="M1227.514,693.882h-1.357v-3.75h-3.522v-1.2h3.5v-3.781h1.355v3.76h3.482v1.2h-3.451Z" transform="translate(-1171.063 -682.393)" fill="#1181c8"/>
        <path id="Path_8361" data-name="Path 8361" d="M1227.512,704.038h-1.357v-3.793h-3.521V699.07h3.5V695.3h1.358v3.751h3.47v1.177h-3.452Z" transform="translate(-1171.063 -678.948)" fill="#1181c8"/>
        <path id="Path_8362" data-name="Path 8362" d="M1215.157,700.237h-3.483v-1.165h3.457V695.3h1.332v3.75H1220v1.185h-3.524v3.793h-1.317Z" transform="translate(-1174.783 -678.949)" fill="#1181c8"/>
        <path id="Path_8363" data-name="Path 8363" d="M1215.169,685.145h1.3v3.779H1220v1.148h-3.529v3.815H1215.2v-3.794h-3.516v-1.163h3.482Z" transform="translate(-1174.781 -682.395)" fill="#1181c8"/>
        <path id="Path_8364" data-name="Path 8364" d="M1221.61,701.948h2.337v1.034h-2.318V705.6h-1.14V703h-2.4v-1.05h2.367v-2.635h1.155Z" transform="translate(-1172.604 -677.584)" fill="#1181c8"/>
        <path id="Path_8365" data-name="Path 8365" d="M1228.855,691.177h1.132v2.637h2.372v1.039h-2.348v2.635h-1.14v-2.631h-2.411v-1.023h2.391Z" transform="translate(-1169.764 -680.348)" fill="#1181c8"/>
        <path id="Path_8366" data-name="Path 8366" d="M1211.974,697.241v-2.529h-2.355v-.833h2.345v-2.545h.871v2.522h2.334v.825h-2.321v2.557Z" transform="translate(-1175.481 -680.294)" fill="#1181c8"/>
        <path id="Path_8367" data-name="Path 8367" d="M1223.734,685.67v.8h-2.289v2.588h-.859v-2.581h-2.364v-.786h2.34v-2.6h.86v2.577Z" transform="translate(-1172.561 -683.092)" fill="#1181c8"/>
      </g>
    </g>
  </g>
</svg>
