<svg id="Component_151_1" data-name="Component 151 – 1" xmlns="http://www.w3.org/2000/svg" width="32" height="32" viewBox="0 0 32 32">
  <circle id="Ellipse_1204" data-name="Ellipse 1204" cx="16" cy="16" r="16" fill="#1e3f53"/>
  <g id="Icon_feather-instagram" data-name="Icon feather-instagram" transform="translate(5.282 5.625)">
    <path id="Path_9623" data-name="Path 9623" d="M6.859,3h7.718a3.859,3.859,0,0,1,3.859,3.859v7.718a3.859,3.859,0,0,1-3.859,3.859H6.859A3.859,3.859,0,0,1,3,14.576V6.859A3.859,3.859,0,0,1,6.859,3Z" fill="none" stroke="#fff" stroke-linecap="round" stroke-linejoin="round" stroke-width="2"/>
    <path id="Path_9624" data-name="Path 9624" d="M18.206,14.569a3.087,3.087,0,1,1-2.6-2.6,3.087,3.087,0,0,1,2.6,2.6Z" transform="translate(-4.401 -4.338)" fill="none" stroke="#fff" stroke-linecap="round" stroke-linejoin="round" stroke-width="2"/>
    <path id="Path_9625" data-name="Path 9625" d="M26.25,9.75h0" transform="translate(-11.288 -3.277)" fill="none" stroke="#fff" stroke-linecap="round" stroke-linejoin="round" stroke-width="2"/>
  </g>
</svg>
