<svg id="Component_150_1" data-name="Component 150 – 1" xmlns="http://www.w3.org/2000/svg" width="32" height="32" viewBox="0 0 32 32">
  <circle id="Ellipse_1205" data-name="Ellipse 1205" cx="16" cy="16" r="16" fill="#1e3f53"/>
  <path id="Icon_awesome-linkedin-in" data-name="Icon awesome-linkedin-in" d="M3.5,15.626H.258V5.194H3.5ZM1.876,3.771A1.885,1.885,0,1,1,3.752,1.877,1.892,1.892,0,0,1,1.876,3.771ZM15.622,15.626H12.39V10.548c0-1.21-.024-2.762-1.684-2.762-1.684,0-1.942,1.315-1.942,2.675v5.166H5.527V5.194H8.634V6.617h.045a3.4,3.4,0,0,1,3.065-1.685c3.279,0,3.881,2.159,3.881,4.963v5.731Z" transform="translate(8.35 6.687)" fill="#fff"/>
</svg>
