<svg xmlns="http://www.w3.org/2000/svg" width="1953.4" height="183.473" viewBox="0 0 1953.4 183.473">
  <g id="_1" data-name="1" transform="translate(6 -9.527)">
    <g id="left-lawn1" transform="translate(95.745 15.227)">
      <path id="Path_7676" d="M536.9,51.79,743.787,14.433,1303.1,73.3l363.7,45L418.5,140.8Z" fill="#97b6c3"/>
      <path id="Path_7856" d="M419.4,135.2,2,119.8,457.2-5.7,740.854,53.448l461.008,76.193Z" fill="#839da7"/>
      <path id="Path_7552" data-name="Path 7552" d="M81.2,109.964c10.666-2.341,255.04-78.207,255.04-78.207L320.4,43.922,454.686.871,179.172,109.964Z" fill="#93b3bf"/>
    </g>
    <g id="Group_691" data-name="Group 691">
      <path id="Path_7520" data-name="Path 7520" d="M-6,121.3c31.8,1.2,92.9-2.8,115.6-2.2,0,0,155.1,2.7,251.9,12.2,25.9,4.6,104,6.5,155.3,4.5s102.8-15.4,122-12.6c38.1,2.4,70,8.2,85.7,9.6s54.1,7.8,108.9,3.1,78.1-8.7,93.6-8.8c15.4-.2,292.3-1.5,340.6-3.4,48.3-2,177.4-.4,177.4-.4s113.3-12.6,183.8-15.9,149.8-12.5,194.4-9.6,123.5,3.6,123.5,3.6l.7,91.6H-6Z" fill="#1e3f53" fill-rule="evenodd"/>
      <path id="Path_7521" data-name="Path 7521" d="M922.3,132.6s-12.4-60.5-7.1-26.2-3.8,30.8-10.3,4.3,3.4,14.9.9,18c-2.6,3.1-5-12.8-5-12.8l-.5,11.7s-7.2-12.8-6.7-6.6a21.224,21.224,0,0,1-1.5,10.5Z" fill="#1e3f53" fill-rule="evenodd"/>
      <path id="Path_7522" data-name="Path 7522" d="M13.6,118.4s3.2-8.8,2.9-6.8a18.293,18.293,0,0,0,.7,5.2,46.542,46.542,0,0,0,2.9-6.8c.4-1.9.6,7.8.6,7.8l2.8-3.4,1.7,2.6,2.8-3.4.8,1.8s2.5.9,4.6-3.3,1.5,7,1.5,7L38,105.4l-.4,10.4,2.6.9.2-5.2,2.5,4.4s4.8-1.6,2.8-5.1c-1.9-3.5,2.5,5.3,2.5,5.3s4.2-2.9,5.4-1.6,3,1.2,4.5.1c1.5-1,2.4-5,4.5-1.6s4.4,1.9,4.4,1.9a21.707,21.707,0,0,0,1.9-4.3c.6-2,.7,6.1.7,6.1s3.7-12,3-8.5a33.146,33.146,0,0,0-.3,8.6s5.8-.2,5.6-7.6-.3,9.5-.3,9.5,1-7.3,1.9-4.3c1,3.1,1,.6,3.5,1a10.62,10.62,0,0,1,4.4,1.9l9.4,9.8s-93.1-3.9-91.6-3.8C6.9,123.4,13.6,118.4,13.6,118.4Z" fill="#1e3f53" fill-rule="evenodd"/>
      <path id="Path_7523" data-name="Path 7523" d="M87.1,118.3s4.1-9.7,3.7-7.4a17.872,17.872,0,0,0,.5,5.8s3.1-5.3,3.7-7.4.2,8.7.2,8.7l3.3-3.6,1.7,3,3.3-3.6.8,2s2.7,1.2,5.3-3.4,1.3,7.8,1.3,7.8l4.4-15.1-1.1,11.5,2.9,1.2.5-5.8,2.5,5.1s5.4-1.5,3.5-5.5,2.4,6,2.4,6,4.9-3,6.1-1.4c1.2,1.5,3.2,1.5,4.9.4,1.7-1,2.9-5.4,5.1-1.5s4.8,2.3,4.8,2.3a25.9,25.9,0,0,0,2.4-4.6c.8-2.2.4,6.8.4,6.8s4.9-13.2,3.8-9.3a38.192,38.192,0,0,0-.9,9.6s6.5.1,6.7-8.1c.3-8.3-1,10.5-1,10.5s1.5-8.1,2.4-4.6,1.1.7,3.9,1.3a12.116,12.116,0,0,1,4.8,2.3l9.2,6.8s-102.7-5.3-101.1-5C79.4,123.5,87.1,118.3,87.1,118.3Z" fill="#1e3f53" fill-rule="evenodd"/>
      <path id="Path_7524" data-name="Path 7524" d="M348,127.9s-2.5-9.1-2.4-7a17.139,17.139,0,0,1-1.1,5.2,52.949,52.949,0,0,1-2.4-7c-.3-1.9-1.2,7.8-1.2,7.8l-2.5-3.6-1.9,2.5-2.5-3.6-1,1.7s-2.5.7-4.3-3.6c-1.8-4.4-2,6.9-2,6.9l-2.2-13.9-.4,10.4-2.7.8.2-5.2-2.8,4.2s-4.7-1.9-2.5-5.3-2.9,5.1-2.9,5.1-4-3.2-5.3-1.9a3.272,3.272,0,0,1-4.5-.2c-1.4-1.1-2-5.2-4.4-1.9s-4.5,1.6-4.5,1.6a19.017,19.017,0,0,1-1.6-4.4c-.5-2.1-1.1,6-1.1,6s-2.9-12.3-2.4-8.7a37.2,37.2,0,0,1-.3,8.7s-5.8-.6-5.1-8-.4,9.5-.4,9.5-.4-7.4-1.6-4.4-1.1.5-3.6.7a10.181,10.181,0,0,0-4.5,1.6l-3.7,3.3a295.621,295.621,0,0,0,42,7.7,289.721,289.721,0,0,0,43.5.5C354.3,133.4,348,127.9,348,127.9Z" fill="#1e3f53" fill-rule="evenodd"/>
      <path id="Path_7525" data-name="Path 7525" d="M170.3,117.6s1.5-19.3,1.6-7.3.3,11.2,2,6.1c1.7-5,1.4-10,2.4-1.9s1,8.6,2.8,1.9.8-11.1.8-11.1l3.2,12.3s-.5-1,2-5-2.4,5.4,1.2,5.8-2.8,6.5-2.8,6.5l-12.7-1.5Z" fill="#1e3f53" fill-rule="evenodd"/>
      <path id="Path_7526" data-name="Path 7526" d="M184.5,117.2l.5-3.2s1.6,4.7,3.4,3.8c1.9-.9,2.2-3.8,4-.6s3.1,1.5,3.1,1.5l4.2.3a1.379,1.379,0,0,1,1.9,0c1,.9,4.8,1.9,6.9.8s1.9-2.1,3.4-1a24.282,24.282,0,0,0,5.2,2.5l.5-5.3s-.3,8.3,1.7,5.8a70.353,70.353,0,0,0,4.5-6.8l-1.5,7s6.2-.8,6.3-2.2,4,1.3,4,1.3l6.9,1,2.7-.7,2.8,2.9-60.7-3.1Z" fill="#1e3f53" fill-rule="evenodd"/>
      <path id="Path_7527" data-name="Path 7527" d="M262.2,111.7c-12.7-4.1-16.7-1.6-16.7-1.6l-5.3,5.1s-2.1,8.7,5.7,8.3l2,3.6,17.6,1.2,6.5-5.5C272.1,122.8,277.5,115.3,262.2,111.7Z" fill="#1e3f53" fill-rule="evenodd"/>
      <path id="Path_7528" data-name="Path 7528" d="M431,137.3l-.6-4.8s-3.9,2.9-6.6,1.5-3-5.7-5.9-1.1-4.7,2-4.7,2l-6.3.2a2.109,2.109,0,0,0-2.9-.1c-1.5,1.3-2.4-2-5.5-3.7s-2.7-3.3-5-1.6-5.8-.3-5.8-.3l-.5-7.9s-.1,12.3-2.9,8.4-6.3-10.2-6.3-10.2l1.9,10.4s-9.1-1.5-9.2-3.6-6,1.6-6,1.6l-10.2,1.1-4-1.1-4.3,4.1,83.1,6.9Z" fill="#1e3f53" fill-rule="evenodd"/>
      <path id="Path_7529" data-name="Path 7529" d="M618.5,118.7s7.9-11.2,17.3-2.3c0,0,7.4-12,18.9-8.2s17.8,9.1,17.8,9.1,11.1,11.5-6.5,10.1-49.3-3.5-49.3-3.5Z" fill="#1e3f53" fill-rule="evenodd"/>
      <path id="Path_7530" data-name="Path 7530" d="M784.6,133.7l.1-5.7s4,7.9,7,5.9,2.9-7.1,6.8-2,5.8,1.8,5.8,1.8l7.4-.6a2.549,2.549,0,0,1,3.4-.5c1.9,1.3,8.8,2.1,12.2-.2,3.4-2.4,2.8-4.2,5.7-2.5,3,1.7,9.7,3.2,9.7,3.2l-.4-9.4s1.7,14.6,4.5,9.6c2.8-4.9,6.1-12.8,6.1-12.8L852,133s10.5-2.9,10.4-5.4c-.2-2.5,7.3,1.2,7.3,1.2l12.2.1,4.6-1.8,5.6,4.3-106.4,9.1Z" fill="#1e3f53" fill-rule="evenodd"/>
      <path id="Path_7531" data-name="Path 7531" d="M429.1,134.7s4.3-11,3.9-8.5.7,6.6.7,6.6,3.3-6.1,3.9-8.5.5,9.8.5,9.8l3.6-4.1,2,3.4,3.6-4.1,1,2.2s3.1,1.2,5.9-4,1.7,8.8,1.7,8.8l4.5-17.2-.8,13,3.3,1.3.4-6.5,3,5.6s6.1-1.8,3.8-6.3,2.9,6.7,2.9,6.7,5.4-3.5,6.9-1.8,3.7,1.6,5.6.3c1.9-1.2,3.2-6.2,5.7-1.8,2.6,4.4,5.5,2.5,5.5,2.5a24.145,24.145,0,0,0,2.6-5.3c.8-2.5.6,7.7.6,7.7s5.2-15,4.1-10.7-.7,10.9-.7,10.9,7.3,0,7.3-9.4c0-9.3-.8,11.9-.8,11.9s1.5-9.2,2.6-5.3,1.3.8,4.4,1.4a14.3,14.3,0,0,1,5.5,2.5l4.2,4.6s-109.8-.2-107.9,0C420.5,140.8,429.1,134.7,429.1,134.7Z" fill="#1e3f53" fill-rule="evenodd"/>
      <path id="Path_7532" data-name="Path 7532" d="M513.3,137.8s-3.7-7,4.2-5.3l7-.7,2.7-4.3,4,3.2,5.5,3-1.2-11.8,3.8,11.4,1.4-6.2,1.3,4.7s2.5-6.8,6.1-5.4,12.6-1.2,12.6-1.2l.1-7.8,2.8,10.6,3.1-1.8,7.6-2.8.3-6,4.4,9.7,2.7-4.3s3.6-4.6,10.9-2.8,3.8,2.2,3.8,2.2l2-5.1,1.1,6.1,4.1-3.9,1.9,2.3,4-2.8,2,2s1-3.4,2.4-1.5,2.8-2.6,2.6-.1,2-1,3.2,1,4.3-.8,3.9,1.4c-.4,2.3-37.6,8.7-39,8.5-1.3-.2-69.1,9.5-69.1,9.5Z" fill="#1e3f53" fill-rule="evenodd"/>
      <path id="Path_7533" data-name="Path 7533" d="M1195.2,116.4s2.4-31.6,2.6-11.9.5,18.3,3.2,10.1,2.2-16.4,3.9-3.1,1.7,14.1,4.5,3.1c2.9-10.9,1.3-18.2,1.3-18.2l5.2,20.1s-.9-1.7,3.2-8.2-4,8.8,1.9,9.4-4.5,10.7-4.5,10.7l-20.7-2.5Z" fill="#1e3f53" fill-rule="evenodd"/>
      <path id="Path_7534" data-name="Path 7534" d="M785.7,136.1s-3.3-13.6-3.3-10.5c.1,3-1.8,7.6-1.8,7.6s-3-7.7-3.3-10.5c-.3-2.9-2.1,11.5-2.1,11.5l-3.6-5.4-2.9,3.7L765,127l-1.5,2.5s-3.8,1-6.3-5.6c-2.5-6.5-3.3,10.1-3.3,10.1l-2.6-20.8-1,15.4-4.1,1,.5-7.7-4.4,6.2s-6.9-3-3.5-8-4.5,7.5-4.5,7.5-5.8-4.9-7.8-3.1-4.6,1.3-6.6-.4-2.7-7.8-6.5-3c-3.7,4.8-6.8,2.1-6.8,2.1a34.874,34.874,0,0,1-2.2-6.6c-.6-3.1-1.9,8.9-1.9,8.9s-3.7-18.4-3.1-13.1-.9,12.8-.9,12.8-8.6-1.1-7.2-12.1-1,14.1-1,14.1-.3-11-2.2-6.6-1.6.7-5.4.9a15.642,15.642,0,0,0-6.8,2.1l-5.6,4.8S799.2,144.2,797,144.2C794.8,144.5,785.7,136.1,785.7,136.1Z" fill="#1e3f53" fill-rule="evenodd"/>
      <path id="Path_7535" data-name="Path 7535" d="M1438,126.7s-.5-55.4,1.3-24.3c1.8,31.2,9.1,26.4,9.9,1.9s-.2,13.7,2.6,16c2.9,2.3,2-12.1,2-12.1l2.6,10.2s3.9-12.6,4.6-7a50.047,50.047,0,0,0,3.3,11.5Z" fill="#1e3f53" fill-rule="evenodd"/>
      <path id="Path_7536" data-name="Path 7536" d="M1446.4,127.5c1.5-.1-91.6,3.8-91.6,3.8l9.4-9.8a10.621,10.621,0,0,1,4.4-1.9c2.5-.4,2.6,2.1,3.5-1s1.9,4.3,1.9,4.3-.1-16.9-.3-9.5,5.6,7.6,5.6,7.6a33.166,33.166,0,0,0-.3-8.6c-.8-3.5,3,8.5,3,8.5s.1-8.1.7-6.1a25.342,25.342,0,0,0,1.9,4.3s2.2,1.6,4.4-1.9c2.1-3.4,3,.6,4.5,1.6s3.3,1.2,4.5-.1,5.4,1.6,5.4,1.6,4.4-8.8,2.5-5.3,2.8,5.1,2.8,5.1l2.5-4.4.2,5.2,2.6-.9-.4-10.4,3.1,13.7s-.6-11.2,1.5-7,4.6,3.3,4.6,3.3l.8-1.8,2.8,3.4,1.7-2.6,2.8,3.4s.2-9.7.6-7.8a46.544,46.544,0,0,0,2.9,6.8,15.135,15.135,0,0,0,.7-5.2c-.2-2,2.9,6.8,2.9,6.8S1444.9,127.6,1446.4,127.5Z" fill="#1e3f53" fill-rule="evenodd"/>
      <path id="Path_7537" data-name="Path 7537" d="M1368.8,123.1c1.7-.2-101.1,5-101.1,5l9.2-6.8a12.116,12.116,0,0,1,4.8-2.3c2.8-.6,3,2.2,3.9-1.3s2.4,4.6,2.4,4.6-1.2-18.8-1-10.5c.3,8.3,6.7,8.1,6.7,8.1a38.194,38.194,0,0,0-.9-9.6c-1.1-3.8,3.8,9.3,3.8,9.3s-.4-9,.4-6.8a25.9,25.9,0,0,0,2.4,4.6s2.6,1.6,4.8-2.3,3.4.4,5.1,1.5c1.7,1,3.7,1.1,4.9-.4s6.1,1.4,6.1,1.4,4.4-10,2.4-6c-1.9,4,3.5,5.5,3.5,5.5l2.5-5.1.5,5.8,2.9-1.2-1.1-11.5,4.4,15.1s-1.3-12.4,1.3-7.8,5.3,3.4,5.3,3.4l.8-2,3.3,3.6,1.7-3,3.3,3.6s-.4-10.8.2-8.7,3.7,7.4,3.7,7.4a17.871,17.871,0,0,0,.5-5.8c-.4-2.2,3.7,7.4,3.7,7.4S1367.2,123.3,1368.8,123.1Z" fill="#1e3f53" fill-rule="evenodd"/>
      <path id="Path_7538" data-name="Path 7538" d="M1620.2,104.6s-3-6.5-2.7-5a13.255,13.255,0,0,1-.2,4,46.033,46.033,0,0,1-2.7-5c-.4-1.4.1,5.9.1,5.9l-2.3-2.4-1.1,2.1-2.3-2.4-.5,1.4s-1.8.8-3.7-2.2c-1.9-3.1-.7,5.4-.7,5.4l-3.3-10.2,1,7.8-1.9.9-.5-3.9-1.6,3.5s-3.7-.9-2.5-3.7-1.5,4.1-1.5,4.1-3.4-1.9-4.2-.8a2.471,2.471,0,0,1-3.4.4c-1.2-.7-2.1-3.6-3.5-.9s-3.2,1.7-3.2,1.7a13.194,13.194,0,0,1-1.7-3.1c-.6-1.5-.1,4.6-.1,4.6s-3.6-8.9-2.8-6.3a27.293,27.293,0,0,1,.8,6.5s-4.4.2-4.8-5.4.9,7.2.9,7.2-1.2-5.5-1.7-3.1-.7.5-2.6,1a8.32,8.32,0,0,0-3.2,1.7l-2.4,2.9a235.3,235.3,0,0,0,32.3,1,230.433,230.433,0,0,0,32.6-4.5C1625.6,108,1620.2,104.6,1620.2,104.6Z" fill="#1e3f53" fill-rule="evenodd"/>
      <path id="Path_7539" data-name="Path 7539" d="M1278.5,125.7l-12.7,1.5s-6.4-6.1-2.8-6.5-1.3-9.7,1.2-5.8c2.5,4,2,5,2,5l3.2-12.3a25.232,25.232,0,0,0,.8,11.1c1.8,6.7,1.8,6.2,2.8-1.9s.7-3.1,2.4,1.9,1.9,5.9,2-6.1,1.6,7.3,1.6,7.3Z" fill="#1e3f53" fill-rule="evenodd"/>
      <path id="Path_7540" data-name="Path 7540" d="M1563.7,112.5,1551,114s-6.4-6.1-2.8-6.5-1.3-9.7,1.2-5.8c2.5,4,2,5,2,5l3.2-12.3a25.232,25.232,0,0,0,.8,11.1c1.8,6.7,1.8,6.2,2.8-1.9s.7-3.1,2.4,1.9,1.9,5.9,2-6.1,1.6,7.3,1.6,7.3Z" fill="#1e3f53" fill-rule="evenodd"/>
      <path id="Path_7541" data-name="Path 7541" d="M1267.3,124.2l-72.2,6,5.7-5.7,3,.8,7.6-1.1s4.3-2.9,4.4-1.4c.1,1.6,6.9,2.5,6.9,2.5l-1.7-7.7s2.8,4.6,5,7.5c2.2,2.8,1.9-6.4,1.9-6.4l.6,5.8a30.217,30.217,0,0,0,5.8-2.8c1.7-1.3,1.4-.1,3.8,1,2.4,1.2,6.5.1,7.6-.9a1.489,1.489,0,0,1,2.1,0l4.7-.3s1.4,1.8,3.4-1.6c2-3.5,2.4-.3,4.4.7s3.8-4.2,3.8-4.2l.6,3.6Z" fill="#1e3f53" fill-rule="evenodd"/>
      <path id="Path_7542" data-name="Path 7542" d="M1963.6,102.3l-.8-4.8s-3.7,3.1-6.5,1.8-3.4-5.5-5.9-.8c-2.6,4.7-4.5,2.3-4.5,2.3l-6.3.5a2.182,2.182,0,0,0-2.9,0c-1.4,1.4-2.5-1.9-5.7-3.4s-2.9-3.1-5.1-1.3-5.8.1-5.8.1l-1-7.8s.6,12.3-2.4,8.6-6.9-9.9-6.9-9.9l2.5,10.2s-9.1-1-9.4-3.1c-.2-2.1-5.9,2-5.9,2l-10.1,1.7-4.1-.9-4,4.3,83.3,2.3Z" transform="translate(-22)" fill="#1e3f53" fill-rule="evenodd"/>
      <path id="Path_7543" data-name="Path 7543" d="M1689.5,100.1s3.5-11.3,3.3-8.7,1.2,6.5,1.2,6.5,2.9-6.3,3.3-8.7,1.2,9.8,1.2,9.8l3.3-4.4,2.3,3.3,3.3-4.4,1.1,2.2s3.1,1,5.6-4.4c2.4-5.4,2.3,8.7,2.3,8.7l3.3-17.4.1,13.1,3.4,1.1V90.3l3.4,5.4s5.9-2.2,3.3-6.5,3.4,6.5,3.4,6.5,5.2-3.8,6.7-2.2c1.6,1.6,3.8,1.3,5.6,0s2.7-6.4,5.6-2.2,5.6,2.2,5.6,2.2a26.205,26.205,0,0,0,2.2-5.4c.7-2.6,1.2,7.6,1.2,7.6s4.1-15.3,3.3-10.9.1,10.9.1,10.9,7.3-.5,6.7-9.8.1,12,.1,12,.9-9.2,2.2-5.4c1.4,3.8,1.3.7,4.5,1.1a13.033,13.033,0,0,1,5.6,2.2l4.5,4.3s-109.5,6.9-107.6,7C1681.4,106.8,1689.5,100.1,1689.5,100.1Z" fill="#1e3f53" fill-rule="evenodd"/>
      <path id="Path_7544" data-name="Path 7544" d="M1772.5,98.5s-2.6-7.5,5-4.6l7.1.3,3.3-3.9,3.5,3.8,5,3.8L1797,86l2,11.8,2.4-6,.5,4.9s3.5-6.3,6.9-4.4,12.6.7,12.6.7l1.3-7.7,1.2,10.9,3.4-1.3,8-1.6,1.2-5.9,2.9,10.2,3.3-3.9s4.3-4,11.2-1.1,3.4,2.7,3.4,2.7l2.8-4.8.2,6.2,4.6-3.2,1.6,2.6,4.4-2.2,1.6,2.2s1.5-3.3,2.6-1.2,3.1-2.1,2.6.3c-.6,2.4,2.1-.7,3,1.5.9,2.1,4.4-.2,3.6,2s-38.5,2.9-39.8,2.6c-1.3-.4-69.7-1.1-69.7-1.1Z" fill="#1e3f53" fill-rule="evenodd"/>
      <path id="Path_7545" data-name="Path 7545" d="M1551.5,114.9s-55.4,6.1-56.4,6.5-31.7,2.9-32.5,1.2,2.2-.1,2.7-1.9,3,.5,2.3-1.5c-.7-1.9,1.4,1.3,2-.4.7-1.8,2.2.7,2.2.7l1.1-2,3.7,1.4,1-2.2,4,2.2-.4-5.1,2.7,3.6s-2.8.4,2.5-2.5c5.4-2.9,9.2,0,9.2,0l3,2.9,1.4-8.5,1.5,4.7,6.6.7,2.8.8v-8.9l1.8,6.1s7.6.2,10.2-1.6,5.9,3,5.9,3v-4l2.4,4.6.6-9.8,1.5,9.6,3.7-3.5,2.5-3.4,3,2.9,5.7-.9c5.9-3,4.5,3.3,4.5,3.3Z" fill="#1e3f53" fill-rule="evenodd"/>
      <path id="Path_7546" data-name="Path 7546" d="M1192.1,118.3s-4.2-9.1-3.7-7a19.017,19.017,0,0,1-.3,5.6s-3.1-5-3.7-7,.1,8.3.1,8.3l-3.3-3.3-1.5,3-3.3-3.3-.7,1.9s-2.5,1.2-5.2-3.1c-2.6-4.3-1,7.5-1,7.5l-4.6-14.3,1.4,11-2.7,1.2-.7-5.5-2.3,4.9s-5.2-1.2-3.5-5.1-2.1,5.8-2.1,5.8-4.7-2.7-5.9-1.2c-1.1,1.5-3.1,1.5-4.7.5-1.7-.9-3-5.1-4.9-1.3-2,3.8-4.5,2.4-4.5,2.4a22.1,22.1,0,0,1-2.4-4.3c-.8-2.1-.2,6.5-.2,6.5s-5.1-12.4-4-8.8a33.644,33.644,0,0,1,1.1,9.1s-6.2.3-6.7-7.6,1.2,10,1.2,10-1.7-7.7-2.4-4.3c-.7,3.3-1,.7-3.7,1.4a12.333,12.333,0,0,0-4.5,2.4l-3.3,4.1s23.2,2.6,45.3,1.3c9.7-.5,29.2.3,37.1-.9,11.4-1.7,9.1-5.5,8.7-5.4C1199.7,123,1192.1,118.3,1192.1,118.3Z" fill="#1e3f53" fill-rule="evenodd"/>
      <path id="Path_7547" data-name="Path 7547" d="M913.9,134a303.627,303.627,0,0,0,46.2-.8c22-2.2,44.5-8.4,44.5-8.4l-4-3.5a11.073,11.073,0,0,0-4.8-1.6c-2.7-.2-2.6,2.4-3.8-.8-1.3-3.2-1.7,4.7-1.7,4.7s-1.3-17.9-.5-10.1-5.3,8.5-5.3,8.5a33.661,33.661,0,0,1-.4-9.2c.5-3.7-2.4,9.3-2.4,9.3s-.8-8.6-1.2-6.4a26.626,26.626,0,0,1-1.7,4.7s-2.2,1.8-4.8-1.6c-2.6-3.5-3.2.8-4.7,2s-3.4,1.5-4.7.2c-1.4-1.3-5.6,2.1-5.6,2.1s-5.4-9-3.1-5.4c2.4,3.6-2.6,5.6-2.6,5.6l-3.1-4.5.3,5.5-2.9-.8-.5-11-2.2,14.8s-.3-11.9-2.2-7.3-4.6,3.9-4.6,3.9l-1-1.8-2.7,3.8-2-2.7-2.7,3.8s-1.1-10.3-1.3-8.2a57.82,57.82,0,0,1-2.5,7.5,17.268,17.268,0,0,1-1.2-5.5c.1-2.2-2.5,7.5-2.5,7.5S915.5,134,913.9,134Z" fill="#1e3f53" fill-rule="evenodd"/>
      <path id="Path_7548" data-name="Path 7548" d="M1114.2,126l-15.4,1.9s-7.7-7.4-3.4-7.9c4.4-.5-1.6-11.8,1.4-7,3.1,4.8,2.4,6.1,2.4,6.1l3.8-14.9s-1.2,5.4,1,13.5c2.1,8.1,2.1,7.5,3.4-2.3,1.2-9.8.9-3.8,2.9,2.3s2.3,7.1,2.4-7.4c.1-14.6,1.9,8.8,1.9,8.8Z" fill="#1e3f53" fill-rule="evenodd"/>
      <path id="Path_7549" data-name="Path 7549" d="M1099.1,127.5s-67.6,2.1-68.8,2.5c-1.3.4-38.6.4-39.4-1.7s2.7.1,3.5-2.1c.8-2.1,3.6.8,2.9-1.5-.6-2.4,1.5,1.7,2.5-.3,1-2.1,2.6,1.1,2.6,1.1l1.6-2.3,4.4,2.1,1.5-2.6,4.7,3.1v-6.2l2.9,4.6s-3.5.3,3.3-2.7,11.1.9,11.1.9l3.4,3.8,2.5-10.2,1.4,5.8,7.9,1.4,3.4,1.2.9-10.8,1.5,7.6s9.1,1,12.4-.9,6.9,4.3,6.9,4.3l.4-4.8,2.5,5.8,1.7-11.7.9,11.7,4.8-3.9,3.3-3.8,3.4,3.8,7-.5c7.5-3.1,5.1,4.4,5.1,4.4Z" fill="#1e3f53" fill-rule="evenodd"/>
      <path id="Path_7550" data-name="Path 7550" d="M1631.9,103.6l11.8,10,31.7-2.1,3.7-6.4c14.2.6,10.3-15,10.3-15l-9.6-9.3s-7.3-4.6-30.2,2.9C1621.3,76.8,1631.9,103.6,1631.9,103.6Z" fill="#1e3f53" fill-rule="evenodd"/>
      <path id="Path_7551" data-name="Path 7551" d="M1628.6,101.7s-8.5-.6-7.4,5c1.2,5.6,18.1,2.8,18.1,2.8Z" fill="#1e3f53" fill-rule="evenodd"/>
    </g>
  </g>
</svg>
