<svg id="Salesforce_service" data-name="Salesforce service" xmlns="http://www.w3.org/2000/svg" width="544.278" height="494.364" viewBox="0 0 544.278 494.364">
  <defs>
    <style>
      .cls-1, .cls-15, .cls-37, .cls-48, .cls-52, .cls-53, .cls-66, .cls-67 {
        fill: none;
      }

      .cls-2 {
        fill: #272323;
      }

      .cls-3 {
        fill: #575756;
      }

      .cls-4 {
        fill: #9a9a95;
      }

      .cls-5 {
        fill: #696967;
      }

      .cls-6 {
        fill: #585855;
      }

      .cls-7 {
        fill: #192d4d;
      }

      .cls-8 {
        fill: #e6e5e5;
      }

      .cls-9 {
        fill: #343433;
      }

      .cls-10 {
        fill: #8f8f8b;
      }

      .cls-11 {
        fill: #c7c7c7;
      }

      .cls-12 {
        fill: #253f6a;
      }

      .cls-13 {
        fill: #ddd;
      }

      .cls-14 {
        fill: #ad9510;
      }

      .cls-15 {
        stroke: #b4a263;
        stroke-dasharray: 2;
      }

      .cls-15, .cls-37, .cls-52, .cls-53, .cls-67 {
        stroke-linecap: round;
      }

      .cls-16 {
        opacity: 0.162;
      }

      .cls-17 {
        fill: #b4a263;
      }

      .cls-18 {
        fill: #887a48;
      }

      .cls-19 {
        fill: #4b4924;
      }

      .cls-20 {
        fill: #3e3d20;
      }

      .cls-21 {
        fill: #414022;
      }

      .cls-22 {
        fill: #525027;
      }

      .cls-23 {
        fill: #959595;
      }

      .cls-24 {
        fill: #1c1c1c;
      }

      .cls-25 {
        fill: #505050;
      }

      .cls-26 {
        opacity: 0.125;
      }

      .cls-27 {
        fill: #90a7aa;
      }

      .cls-28 {
        fill: #b1c2c4;
      }

      .cls-29 {
        fill: #d1ddde;
      }

      .cls-30 {
        fill: #e1eaeb;
      }

      .cls-31 {
        fill: #afc8cb;
      }

      .cls-32 {
        fill: #c6d3d5;
      }

      .cls-33 {
        fill: #87999b;
      }

      .cls-34 {
        fill: #b98362;
      }

      .cls-35 {
        fill: #966a4f;
      }

      .cls-36 {
        fill: #343434;
      }

      .cls-37 {
        stroke: #000;
        stroke-width: 2px;
      }

      .cls-38 {
        fill: #1a1a1a;
      }

      .cls-39 {
        fill: #535353;
      }

      .cls-40 {
        fill: #7c7b7b;
      }

      .cls-41 {
        fill: #5f5d5d;
      }

      .cls-42 {
        fill: #555;
      }

      .cls-43 {
        fill: #393939;
      }

      .cls-44 {
        fill: #101010;
      }

      .cls-45 {
        fill: #3d5a80;
      }

      .cls-46 {
        fill: #edebeb;
      }

      .cls-47 {
        fill: #898787;
      }

      .cls-48 {
        stroke: #5d5d5d;
      }

      .cls-49 {
        fill: #1f1e1e;
      }

      .cls-50 {
        fill: #c8997d;
      }

      .cls-51 {
        fill: #1d1d1d;
      }

      .cls-52 {
        stroke: #1d1d1d;
      }

      .cls-53 {
        stroke: #2c2c2c;
      }

      .cls-54 {
        fill: #fff;
      }

      .cls-55 {
        fill: #ffb11c;
      }

      .cls-56 {
        fill: #5c5c5c;
      }

      .cls-57 {
        fill: #b2886f;
      }

      .cls-58 {
        fill: #d9b39b;
      }

      .cls-59 {
        fill: #beced0;
      }

      .cls-60 {
        fill: #edc158;
      }

      .cls-61 {
        fill: #be9534;
      }

      .cls-62 {
        fill: #cfa236;
      }

      .cls-63 {
        fill: #b12424;
      }

      .cls-64 {
        fill: #980809;
      }

      .cls-65 {
        fill: #b02424;
      }

      .cls-66, .cls-67 {
        stroke: #980809;
        stroke-width: 0.3px;
      }

      .cls-68 {
        fill: #890a0b;
      }

      .cls-69 {
        fill: #211709;
      }

      .cls-70 {
        fill: #137c1c;
      }

      .cls-71 {
        fill: #0b450f;
      }

      .cls-72 {
        fill: #1fb72b;
      }

      .cls-73 {
        fill: #199623;
      }

      .cls-74 {
        fill: #1cac26;
      }

      .cls-75 {
        fill: #02800b;
      }

      .cls-76 {
        fill: #1aac26;
      }

      .cls-77 {
        fill: #d1774f;
      }

      .cls-78 {
        fill: #af5831;
      }

      .cls-79 {
        fill: #e0aa92;
      }

      .cls-80 {
        fill: #13800b;
      }

      .cls-81 {
        fill: #1dac26;
      }
    </style>
  </defs>
  <g id="Illustration" transform="translate(0)">
    <g id="stand" transform="translate(307.266 410.309)">
      <path id="Path_7956" data-name="Path 7956" class="cls-2" d="M3.5,16.057c1.933,0,4.361-3.994,4.361-8.412,0-2.3-.363-5.045-1.807-7.005C5.608-.269,4.428.057,3.5.057c-1.933,0-3.5,3.582-3.5,8S1.567,16.057,3.5,16.057Z" transform="matrix(-0.999, -0.052, 0.052, -0.999, 16.85, 28.737)"/>
      <path id="Path_7957" data-name="Path 7957" class="cls-2" d="M2.959,16.232c1.634,0,3.686-3.994,3.686-8.412,0-2.3-1.7-7.567-1.7-7.567A4.911,4.911,0,0,0,3.809,0,9.625,9.625,0,0,0,2.373.117,16.8,16.8,0,0,0,0,8.232C0,12.65,1.325,16.232,2.959,16.232Z" transform="translate(7.485 27.563) rotate(177)"/>
      <path id="Path_7955" data-name="Path 7955" class="cls-3" d="M3418.857,1843.418h0c-.006,0-3.139,2.078-3.3,7.439a24.681,24.681,0,0,0,.331,3.894s-3.44-.168-10.525-.168c0,0-2.383-8.346,1.419-11.541s9.722-.726,9.722-.726" transform="translate(-3403.21 -1831.466)"/>
      <path id="Path_7953" data-name="Path 7953" class="cls-4" d="M3416.549,1833l-82.975-1.529-2.173,2.747,85.994.848Z" transform="translate(-3328.519 -1831.466)"/>
      <path id="Path_7954" data-name="Path 7954" class="cls-5" d="M3397.811,1845.9c-4.074-.6-66.164-2.582-66.164-2.582l-.545-9.2,85.945.8s.73,2.694,0,3.03S3397.811,1845.9,3397.811,1845.9Z" transform="translate(-3328.198 -1831.466)"/>
      <path id="Path_7958" data-name="Path 7958" class="cls-6" d="M3378.505,1845.9c-4.074-.6-47.4-1.8-47.4-1.8s28.538-1.516,45.2-3.813,21.443-5.378,21.443-5.378.73,2.694,0,3.03S3378.505,1845.9,3378.505,1845.9Z" transform="translate(-3308.893 -1831.466)"/>
    </g>
    <g id="Group_919" data-name="Group 919" transform="translate(342.437 348.169)">
      <path id="Path_7944" data-name="Path 7944" d="M630.574,3046.038c1.09,1,10,7.062,10,7.062s8.488,12.318,5.469,20.638-15.467,12.12-15.467,12.12l-14.1-16.4Z" transform="translate(-616.478 -3046.038)"/>
      <path id="Path_7945" data-name="Path 7945" class="cls-7" d="M634.932,3054.465l-5.983-1.354s-18.694-4.9-23.7-.45c-.316.281.606-.808,2.3,2.68s6.007,11.584,2.194,18.25c-3.409,8.982-15.822,11.811-15.822,11.811s13.856,23.134,13.358,30.832-3.583,21-2.435,24.9,5.661,8.082,9.4,6S631.433,3113,631.1,3111.046s-1.32-21.391-1.1-25.644a29.024,29.024,0,0,1,1.1-6.927Z" transform="translate(-582.169 -3046.038)"/>
      <path id="Path_7946" data-name="Path 7946" class="cls-8" d="M604.7,3052.76s5.927-2.259,7.241,1.065,1.076,13.485.848,16.151-1.713,8.981-1.713,8.981l-2.35-.554a30.263,30.263,0,0,0-.9,15.085c1.744,7.685.76,15.267.335,18.514-.311,2.371-6.908,17.749-11.505,26.775a38.178,38.178,0,0,1-3.494,5.986c-2.02,2.011,8.77-30.07,9.554-33.3a41.493,41.493,0,0,0,.473-12.153c-.605-6.528-2.352-14.911,0-20.349C607.534,3068.906,604.7,3052.76,604.7,3052.76Z" transform="translate(-559.189 -3046.038)"/>
      <path id="Path_8003" data-name="Path 8003" class="cls-7" d="M633.5,3085.418s-.379-.446,0-2.289c.022,0,1.6,1.863,1.6,1.863Z" transform="translate(-621.743 -3046.038)"/>
    </g>
    <g id="chair-stand" transform="translate(356.339 414.785)">
      <ellipse id="Ellipse_87" data-name="Ellipse 87" class="cls-2" cx="7" cy="8.5" rx="7" ry="8.5" transform="translate(19.891 45.806) rotate(-172)"/>
      <path id="Path_7951" data-name="Path 7951" class="cls-2" d="M7,17.2c3.866,0,7-3.806,7-8.5S10.866.2,7,.2C6.382-.156.12.073.12.073S0,4.717,0,8.7C0,13.393,3.134,17.2,7,17.2Z" transform="translate(13.864 45.002) rotate(-172)"/>
      <path id="Path_7950" data-name="Path 7950" class="cls-3" d="M3370.43,1870.694c-.783-.069-2.084-6.518-5.506-6.207s-6.749,3.811-8.843,8.595-6.615,1.376-6.735,1.022-1-9.323,1.7-11.04,13.088-.591,13.088-.591a5.609,5.609,0,0,1,4.125,2.014C3369.825,1866.512,3370.43,1870.694,3370.43,1870.694Z" transform="translate(-3348.342 -1835.942)"/>
      <path id="Path_7952" data-name="Path 7952" class="cls-9" d="M3362.689,1865.509s-6.4-1.094-4.8-2.233,11.165-1.011,11.165-1.011Z" transform="translate(-3355.481 -1835.942)"/>
      <path id="Path_7949" data-name="Path 7949" class="cls-5" d="M3369.03,1864.578c-.138-.074-6.058-1.565-6.058-1.565s.036-10.52,0-10.9,2.147-2.6,3.656-2.009,3.193,4.027,3.193,4.027Z" transform="translate(-3361.588 -1835.942)"/>
      <path id="Path_7947" data-name="Path 7947" class="cls-10" d="M3363.872,1835.942a2.875,2.875,0,0,1,2.768,2.743c.437,2.8,0,9.9,0,9.9l-40.256,16v-11.147a11.674,11.674,0,0,0-1.49-2.583,2.281,2.281,0,0,0-1.574-.852Z" transform="translate(-3318.953 -1835.942)"/>
      <path id="Path_7948" data-name="Path 7948" class="cls-11" d="M3360.443,1836.092a3.786,3.786,0,0,1,1.586.805,2.787,2.787,0,0,1,.657,1.473s-39.033,14.526-38.723,14.149,33.044-13.085,35.088-14.149S3360.443,1836.092,3360.443,1836.092Z" transform="translate(-3315.443 -1835.942)"/>
    </g>
    <g id="Group_920" data-name="Group 920" transform="translate(208.727 424.037)">
      <path id="Path_7967" data-name="Path 7967" d="M741.842,861.422l-10.566,11.217,11.034,16.627s12.39,1.1,13.1,0,8.76-7.884,8.76-7.884l-.935-10.271Z" transform="translate(-686.626 -861.422)"/>
      <path id="Path_7966" data-name="Path 7966" class="cls-12" d="M808.4,883.457s-8.735,6.352-13.63,2.232-2.743-4.464-4.525-7.261-3.8-6.6-8.3-6.867-5.787.586-5.787.586-12.384,14.971-16.495,16.66-18.124,3.167-22.527,7.636-3.832,6.892-2.119,9.28c4.671,6.024,3.649,4.744,14.886,8.615,7.457,2.677,17.356,3.5,22.353,2.477,10.156-2.073,12.558-6.418,15.552-8.266s9.1-6.076,14.085-7.132,5.574-3.472,6.5-7.708S808.4,883.457,808.4,883.457Z" transform="translate(-733.749 -861.422)"/>
      <path id="Path_8004" data-name="Path 8004" class="cls-7" d="M770.35,883.457s-8.735,6.352-13.63,2.232-2.743-4.464-4.525-7.261c-.7-1.105,1.664,9.913-2.434,17.692-5.907,11.211-18.575,21.313-15.552,20.7,10.156-2.073,12.558-6.418,15.552-8.266s9.1-6.076,14.085-7.132,5.574-3.472,6.5-7.708S770.35,883.457,770.35,883.457Z" transform="translate(-695.697 -861.422)"/>
      <path id="Path_7968" data-name="Path 7968" class="cls-13" d="M807.964,898.961s.269,4.2-.515,6.049,0,1.333,0,1.333-9.125,3.77-10.548,4a26.719,26.719,0,0,1-4.441,0s-7.561,5.978-12.3,7.429c-6.091,1.733-12.839,2.067-22.632,0-11.085-2.775-16.03-6.724-18.646-9.057a9.478,9.478,0,0,1-2.612-3.76c.011.022.3,1.3,4.9,4.486a41.632,41.632,0,0,0,12.1,4.939c3.171.874,16.069,3.431,26.891-.387a32.63,32.63,0,0,0,9.778-6.131C793.548,904.745,807.964,898.961,807.964,898.961Z" transform="translate(-735.459 -861.422)"/>
    </g>
    <g id="Pant" transform="translate(251.592 248.84)">
      <path id="Path_7941" data-name="Path 7941" class="cls-14" d="M0,9.162S37.529-3.164,65.916.778s58.23,2.647,52.136,6.891S0,31.653,0,31.653Z" transform="translate(212.571 70.387) rotate(177)"/>
      <path id="Path_6602" data-name="Path 6602" class="cls-15" d="M651.947,2992.139l-20.28,15.074-1.214,9.162" transform="translate(-544.865 -2946.708)"/>
      <path id="Path_6600" data-name="Path 6600" class="cls-16" d="M3449.018,2894.361c1.781-4.524,2.024-2.689,2.024-2.689h70.813l-49.509,33.646S3447.237,2898.884,3449.018,2894.361Z" transform="translate(-3368.796 -2870.137)"/>
      <path id="Path_6601" data-name="Path 6601" class="cls-17" d="M2.757,29.113c-2.949,2.969-4.165-5.884-.418-10.071S20.178-7.316,15.718,2.47,5.706,26.144,2.757,29.113Z" transform="translate(56.194 62.056) rotate(160)"/>
      <path id="Path_6603" data-name="Path 6603" class="cls-18" d="M676.353,3017.962s-11.219-2.394-15.55-1.818-3.594-4.511,3.1-3.011A49.917,49.917,0,0,1,676.353,3017.962Z" transform="translate(-582.91 -2954.348)"/>
      <path id="Path_6604" data-name="Path 6604" class="cls-18" d="M0,0S6.394,2.1,8.862,1.6,10.91,5.56,7.094,4.242A24.192,24.192,0,0,1,0,0Z" transform="matrix(-0.848, -0.53, 0.53, -0.848, 93.409, 63.625)"/>
      <path id="Path_7940" data-name="Path 7940" class="cls-19" d="M105.675,784.725a38.711,38.711,0,0,1-1.364,15.739c-.876,2.856-4.713,6.46-5.922,9.179a18.317,18.317,0,0,1-13.642,10.725S39.112,770.374,30.73,762.984.791,734.828-3.722,730.026s-4.353-16.377-4.461-19.315-2.586-9.705,4.461-14.416,11.645-8.3,17.535-9.888S49.99,681,49.99,681l50.64,2.814s5.7,23.28,5.044,26.9-36,22.207-36,22.207l-15.72-2.892s34.47,41.226,39.225,43.61S105.675,784.725,105.675,784.725Z" transform="translate(8.692 -680.997)"/>
      <path id="Path_8002" data-name="Path 8002" class="cls-20" d="M.065,0s1.61.629.488,2.309C.463,2.24,0,1.667,0,1.667Z" transform="translate(31.887 198.531) rotate(-7)"/>
      <path id="Path_7960" data-name="Path 7960" class="cls-21" d="M38.579,784.725s1.824,7.089,0,13.738c-1.127,4.109-5.537,7.246-7.286,11.179a18.244,18.244,0,0,1-13.537,10.731S-13.92,737.417-22.3,730.026,3.1,700.6,53.739,703.411c0,0-14.506,3.681-15.16,7.3s-36,22.207-36,22.207l-15.72-2.892s34.47,41.226,39.225,43.61S38.579,784.725,38.579,784.725Z" transform="translate(75.788 -680.997)"/>
      <path id="Path_8001" data-name="Path 8001" class="cls-20" d="M4.65,4.2S4.812,3.281,2.621,0C2.445.136,0,3.552,0,3.552Z" transform="translate(9.5 181.37) rotate(-173)"/>
      <path id="Path_7939" data-name="Path 7939" class="cls-22" d="M45.459,762.386s-7.89,13.886-8.657,19.434-19.684,37.46-24.406,46.7c-4.2,8.21-30.718,42.587-37.109,50.055-.567.663-2.573,3.169-2.573,3.169s-4.418-12.1-7.908-14.595-11.312-3.011-19.436-9.5c2.459-4.738,25.006-31.693,27.344-37.661S-3.8,776.733-1.958,767.026s8.112-29.6,10.009-33.233,7.56-10.479,12.037-12.408,67.376-28.075,67.376-28.075,12.211,13.144,12.966,24.411-1.687,22.016-4.969,24.867-39.471,14.46-39.471,14.46Z" transform="translate(60.013 -680.997)"/>
      <path id="Path_7959" data-name="Path 7959" class="cls-20" d="M18.115,762.386s-7.89,13.886-8.657,19.434-19.684,37.46-24.406,46.7c-4.2,8.21-31.857,42.274-38.248,49.742a16.969,16.969,0,0,0-1.435,3.482s27.161-39.345,47.376-75.116c9.86-17.449,13.788-35.167,19.828-48.409,6.1-13.384,45.666-28.305,46.141-30.8,17.692-5.9,1.407-34.106,1.407-34.106s12.211,13.144,12.966,24.411-1.687,22.016-4.969,24.867-39.471,14.46-39.471,14.46Z" transform="translate(87.356 -680.997)"/>
      <path id="Path_7942" data-name="Path 7942" class="cls-23" d="M586.889,3020.162v66.79a39.031,39.031,0,0,1-7.483,1.18c-2.9,0-4.121-1.18-4.121-1.18v-66.79a10.753,10.753,0,0,1,4.6-.884A41.517,41.517,0,0,1,586.889,3020.162Z" transform="translate(-424.639 -2934.5)"/>
      <path id="Path_7964" data-name="Path 7964" class="cls-24" d="M586.889,3019.347v5.16s-4.582.091-7.483.091a5.226,5.226,0,0,1-4.121-1.576v-2.855a10.7,10.7,0,0,1,4.6-.889C582.788,3019.279,586.889,3019.347,586.889,3019.347Z" transform="translate(-424.639 -2934.5)"/>
      <path id="Path_7963" data-name="Path 7963" class="cls-25" d="M584.476,3020.162V3034.1a39.816,39.816,0,0,1-5.829.674,6.707,6.707,0,0,1-3.362-.674v-13.941Z" transform="translate(-422.227 -2946.828)"/>
      <path id="Path_7961" data-name="Path 7961" class="cls-26" d="M700.406,2995.7s-19.262-11.6-20.432-16.322-8.809-2.954-2.13,3.742,21.033,11.915,21.033,11.915" transform="translate(-638.008 -2946.708)"/>
      <path id="Path_7962" data-name="Path 7962" class="cls-26" d="M.09.39S12.533,9.416,13.468,12.382s8.625,0,3.289-4.209S0,0,0,0" transform="matrix(-0.899, 0.438, -0.438, -0.899, 62.863, 49.348)"/>
    </g>
    <g id="Table" transform="translate(0 201.514)">
      <path id="Path_7965" data-name="Path 7965" class="cls-27" d="M3326.621,3107.173c.236-7.623,0-226.068,0-226.068l101.976-26.543v212.96Z" transform="translate(-3285.073 -2848.125)"/>
      <path id="Path_2021" data-name="Path 2021" class="cls-28" d="M12.35,5.465-.052,0,.41,216.852l11.762-4.843Z" transform="translate(33.83 53.191)"/>
      <g id="Draw" transform="translate(39.827 55.511)">
        <g id="Group_925" data-name="Group 925" transform="translate(116.414 176.213)">
          <path id="Path_7978" data-name="Path 7978" class="cls-2" d="M3.5,16c1.933,0,4.361-3.994,4.361-8.412,0-2.3-.363-5.045-1.807-7.005C5.61.049,4.428,0,3.5,0,1.567,0,0,3.582,0,8S1.567,16,3.5,16Z" transform="matrix(-0.999, -0.052, 0.052, -0.999, 16.878, 18.752)"/>
          <path id="Path_7979" data-name="Path 7979" class="cls-2" d="M2.959,16.3c1.634,0,3.686-3.994,3.686-8.412A13.086,13.086,0,0,0,5.091.591,3.05,3.05,0,0,0,3.809.068C2.7-.135,2.373.182,2.373.182A16.8,16.8,0,0,0,0,8.3C0,12.714,1.325,16.3,2.959,16.3Z" transform="translate(7.514 17.7) rotate(177)"/>
          <path id="Path_7980" data-name="Path 7980" class="cls-3" d="M3418.944,1843.418h0c-.006,0-3.139,2.078-3.3,7.439a24.681,24.681,0,0,0,.331,3.894s-3.516-.365-10.726-1.035c0,0-2.182-7.478,1.62-10.674s9.053-.715,12.071-.954" transform="translate(-3403.272 -1841.394)"/>
        </g>
        <g id="Group_926" data-name="Group 926" transform="translate(47 200.818)">
          <path id="Path_7978-2" data-name="Path 7978" class="cls-2" d="M3.5,16c1.933,0,4.361-3.994,4.361-8.412,0-2.3-.363-5.045-1.807-7.005C5.61.049,4.428,0,3.5,0,1.567,0,0,3.582,0,8S1.567,16,3.5,16Z" transform="matrix(-0.999, -0.052, 0.052, -0.999, 16.878, 18.752)"/>
          <path id="Path_7979-2" data-name="Path 7979" class="cls-2" d="M2.959,16.3c1.634,0,3.686-3.994,3.686-8.412A13.086,13.086,0,0,0,5.091.591,3.05,3.05,0,0,0,3.809.068C2.7-.135,2.373.182,2.373.182A16.8,16.8,0,0,0,0,8.3C0,12.714,1.325,16.3,2.959,16.3Z" transform="translate(7.514 17.7) rotate(177)"/>
          <path id="Path_7980-2" data-name="Path 7980" class="cls-3" d="M3418.944,1843.418h0c-.006,0-3.139,2.078-3.3,7.439a24.681,24.681,0,0,0,.331,3.894s-3.516-.365-10.726-1.035c0,0-2.182-7.478,1.62-10.674s9.053-.715,12.071-.954" transform="translate(-3403.272 -1841.394)"/>
        </g>
        <g id="Group_927" data-name="Group 927" transform="translate(0 197.818)">
          <path id="Path_7978-3" data-name="Path 7978" class="cls-2" d="M3.5,16c1.933,0,4.361-3.994,4.361-8.412,0-2.3-.363-5.045-1.807-7.005C5.61.049,4.428,0,3.5,0,1.567,0,0,3.582,0,8S1.567,16,3.5,16Z" transform="matrix(-0.999, -0.052, 0.052, -0.999, 16.878, 18.752)"/>
          <path id="Path_7979-3" data-name="Path 7979" class="cls-2" d="M2.959,16.3c1.634,0,3.686-3.994,3.686-8.412A13.086,13.086,0,0,0,5.091.591,3.05,3.05,0,0,0,3.809.068C2.7-.135,2.373.182,2.373.182A16.8,16.8,0,0,0,0,8.3C0,12.714,1.325,16.3,2.959,16.3Z" transform="translate(7.514 17.7) rotate(177)"/>
          <path id="Path_7980-3" data-name="Path 7980" class="cls-3" d="M3418.944,1843.418h0c-.006,0-3.139,2.078-3.3,7.439a24.681,24.681,0,0,0,.331,3.894s-3.516-.365-10.726-1.035c0,0-2.182-7.478,1.62-10.674s9.053-.715,12.071-.954" transform="translate(-3403.272 -1841.394)"/>
        </g>
        <g id="Group_928" data-name="Group 928" transform="translate(1.261)">
          <path id="Path_7970" data-name="Path 7970" class="cls-29" d="M3560.393,1755.288l-72.161,25.814-3.862-182.108,76.008-16.237Z" transform="translate(-3427.308 -1579.115)"/>
          <path id="Path_7971" data-name="Path 7971" class="cls-30" d="M3556.493,1777.6l-.043-181.543,61.005,3.329-.048,181.477Z" transform="translate(-3556.449 -1578.867)"/>
          <path id="Path_7972" data-name="Path 7972" class="cls-31" d="M3617.445,1582.824l-51.57-3.642-81.49,17.194,60.94,3.724Z" transform="translate(-3484.376 -1579.182)"/>
        </g>
      </g>
      <path id="Path_2017" data-name="Path 2017" class="cls-32" d="M3421.189,2861.7l393.232,26.159v15.7l-393.232-23.186Z" transform="translate(-3402.772 -2816.366)"/>
      <path id="Path_2016" data-name="Path 2016" class="cls-32" d="M15.2,0H0L.08,239.359l14.58.909Z" transform="translate(406.907 52.582)"/>
      <path id="Path_2015" data-name="Path 2015" class="cls-30" d="M3326.467,3110.672c.236-7.735.031-229.177.031-229.177l102.13-26.416-.154,215.575Z" transform="translate(-2904.95 -2817.841)"/>
      <path id="Path_2013" data-name="Path 2013" class="cls-27" d="M3424.774,2860.655l408.063,23.5v17.966l-408.063-23.3s-3.291-1.991-3.281-8.663S3424.774,2860.655,3424.774,2860.655Z" transform="translate(-3421.493 -2829.026)"/>
      <path id="Path_2012" data-name="Path 2012" class="cls-30" d="M3856.772,2859.11l-129.929,31.066-407.9-23.693,135.005-31.62Z" transform="translate(-3315.618 -2834.864)"/>
      <path id="Path_2014" data-name="Path 2014" class="cls-33" d="M3318.915,2898.455c.11-1.316-3.066-4.293-3.066-9.026s3.066-8.957,3.066-8.957l130.138-31.208a10.386,10.386,0,0,1,2.865,6.748c0,3.947-2.865,9.041-2.865,9.041Z" transform="translate(-2907.64 -2825.048)"/>
      <path id="Path_2018" data-name="Path 2018" class="cls-32" d="M14.907,0H-.5L.034,217.068l15.37.916Z" transform="translate(18.891 52.061)"/>
    </g>
    <g id="Coder-illustration" transform="translate(168.633)">
      <g id="Right-hand" transform="translate(121.974 147.198)">
        <path id="Path_2010" data-name="Path 2010" class="cls-34" d="M3510.127,2805.715s-12.915,18.737-17.236,22.294a38.318,38.318,0,0,0-5.542,5.175,26.883,26.883,0,0,1,0,6.589c-.5,2.478-8.707,7.591-13.748,9.8a27.956,27.956,0,0,0-7.467,4.509l-16.991-12.964s8.712-6.876,10.1-11.31,24.675-42.6,24.675-42.6,9.377-.057,16.223,5.674A39.712,39.712,0,0,1,3510.127,2805.715Z" transform="translate(-3424.357 -2787.212)"/>
        <path id="Path_2035" data-name="Path 2035" class="cls-34" d="M3525.356,2838.813a31.494,31.494,0,0,1,.907,5.035c.124,2.106-3.88,5.958-3.88,5.958-.192.959-40.186-1.744-40.186-1.744s-1.891-8.242,2-9.25,2.912-8.209,6.649-6.832,8.755-2.626,12.129-1.594,6.271-1.541,6.271-1.541Z" transform="translate(-3481.738 -2776.15)"/>
        <path id="Path_6594" data-name="Path 6594" class="cls-35" d="M3478.68,2805.715s-12.915,18.737-17.236,22.294a38.318,38.318,0,0,0-5.542,5.175,26.883,26.883,0,0,1,0,6.589c-.2,1-6.024,9.058-6.679-1.5-.933-15.018,6.679-48.386,6.679-48.386s5.946-2.732,12.792,3A39.712,39.712,0,0,1,3478.68,2805.715Z" transform="translate(-3392.91 -2787.212)"/>
      </g>
      <g id="Computer" transform="translate(0 63.555)">
        <path id="Path_2033" data-name="Path 2033" class="cls-36" d="M3577.912,2848.271c-10.174-1.307-120.518-5.431-120.518-5.431v5.431l119.619,6.762Z" transform="translate(-3380.607 -2695.794)"/>
        <path id="Path_2034" data-name="Path 2034" d="M3443.333,2853.808l18.906-1.883v-2.38l-18.055-2.09Z" transform="translate(-3247.144 -2694.569)"/>
        <path id="Path_2041" data-name="Path 2041" class="cls-37" d="M3564.919,2789.771s-10.418,7.942-6.4,21.315,13.248,24.371,12.027,28.337" transform="translate(-3489.352 -2697.423)"/>
        <path id="Path_2028" data-name="Path 2028" class="cls-38" d="M3563.936,2864.161l-38.994-2.61-1.357-3.491,25.238-1.46,52.861,2.033v2.918Z" transform="translate(-3480.539 -2702.265)"/>
        <path id="Path_2027" data-name="Path 2027" class="cls-38" d="M3580.76,2823.5l-10.6,35.788-6.641.313-30.264-2.809,13.939-36.326Z" transform="translate(-3473.116 -2701.731)"/>
        <path id="Path_2026" data-name="Path 2026" class="cls-39" d="M3580.134,2823.459l-11.855,36.188-35.725-2.847,13.127-36.334Z" transform="translate(-3477.931 -2701.731)"/>
        <path id="Path_2025" data-name="Path 2025" class="cls-36" d="M118.021,4.628-21.532,5.757l-6.4,2.845L12.7,120.814l133,9.421,4.979-2.4Z" transform="translate(28.054 -4.628)"/>
        <path id="Path_2011" data-name="Path 2011" class="cls-40" d="M112.768,5.565l-140.7.39,35.7,114.611,137.98,7.022Z" transform="translate(27.934 -1.849)"/>
        <path id="Path_2088" data-name="Path 2088" class="cls-41" d="M23.911,5.565-27.934,75.658l13.285,48.22,71.535,3.709Z" transform="translate(116.791 -1.849)"/>
        <path id="Path_2089" data-name="Path 2089" class="cls-42" d="M143.074,75.664l-62.9-70.1,35.591,115.113,29.543,1.531Z" transform="translate(-79.74 -1.849)"/>
        <path id="Path_2030" data-name="Path 2030" class="cls-43" d="M3542.926,2831.8l-12.014-45.12,3.631-3.02,25.7-.342,13.391,48.339-2.025,5.389Z" transform="translate(-3471.26 -2709.588)"/>
        <path id="Path_2044" data-name="Path 2044" class="cls-44" d="M-22.545,4.628l-5.389,3.882L5.141,130.236l4.979-2.4Z" transform="translate(168.62 -4.628)"/>
        <path id="Path_2029" data-name="Path 2029" class="cls-40" d="M3534.362,2834.816l-5.486-48.67,25.818-.334,14.731,50.622Z" transform="translate(-3469.176 -2708.959)"/>
        <path id="Path_6577" data-name="Path 6577" class="cls-45" d="M8.225,18.98c4.542,0,8.225-4.249,8.225-9.49S12.767,0,8.225,0,0,4.249,0,9.49,3.682,18.98,8.225,18.98Z" transform="translate(78.836 150.463) rotate(-140)"/>
        <path id="Path_6578" data-name="Path 6578" class="cls-46" d="M2.953,1.634A9.494,9.494,0,0,0,0,6.106L7.488,0A7.16,7.16,0,0,0,5.141.455,11.97,11.97,0,0,0,2.953,1.634Z" transform="translate(78.389 150.083) rotate(-140)"/>
        <path id="Path_2042" data-name="Path 2042" class="cls-37" d="M3561.5,2831.58" transform="translate(-3484.084 -2697.423)"/>
        <path id="Path_2031" data-name="Path 2031" class="cls-36" d="M.121,18.98c4.626,0,8.375-4.249,8.375-9.49S4.747,0,.121,0c-.54,0,.9.742.9.742s5.5,4.1,5.581,8.224c.05,2.791-1.731,6.643-1.731,6.643S-.611,18.98.121,18.98Z" transform="translate(72.627 145.253) rotate(-140)"/>
        <path id="Path_2032" data-name="Path 2032" class="cls-36" d="M3547.575,2844.75a15.5,15.5,0,0,1,3.116-10.654c1.557-1.927,4.459-3.692,9.083-3.906,1.04-.048-4.219-.649-3.645-1.091,2.775.058-3.868.007-3.974,0-.229-.015-4.361,4.064-4.361,4.064l-1.665,5.809.747,4.723Z" transform="translate(-3474.886 -2699.439)"/>
        <path id="Path_2038" data-name="Path 2038" class="cls-47" d="M3546.881,2786.793l3.808-3.477h25.6l-3.429,3.477Z" transform="translate(-3487.299 -2709.588)"/>
        <path id="Path_2039" data-name="Path 2039" class="cls-40" d="M706.044,2917.276c.238-.005,39.278,2.885,39.278,2.885l1.357,3.192-38.995-2.658Z" transform="translate(-663.228 -2761.423)"/>
        <path id="Path_6586" data-name="Path 6586" class="cls-48" d="M740.089,2782.685h-45.1" transform="translate(-645.581 -2761.423)"/>
        <path id="Path_6587" data-name="Path 6587" class="cls-48" d="M740.089,2782.685h-45.1" transform="translate(-645.581 -2758.423)"/>
        <path id="Path_6588" data-name="Path 6588" class="cls-48" d="M740.089,2782.685h-45.1" transform="translate(-645.581 -2755.423)"/>
        <g id="Group_570" data-name="Group 570" transform="translate(66.799 83.891)">
          <ellipse id="Ellipse_30" data-name="Ellipse 30" class="cls-49" cx="6" cy="7" rx="6" ry="7" transform="translate(16.22 13.07) rotate(159)"/>
          <path id="Path_2040" data-name="Path 2040" class="cls-37" d="M3561.882,2790.161s-9.378,7.552-5.355,20.926,15.982,28.115,13.991,32.8" transform="translate(-3554.154 -2781.315)"/>
          <path id="Path_2043" data-name="Path 2043" class="cls-39" d="M3558.073,2841.178a15.058,15.058,0,0,1-1.318,1.1c-.721.528-1.568,1.017-1.568,1.017s-2.588,5.46.71,4.756S3558.073,2841.178,3558.073,2841.178Z" transform="translate(-3540.369 -2781.315)"/>
        </g>
      </g>
      <g id="Face_and_neck" data-name="Face and neck" transform="translate(217.137)">
        <path id="Path_2003" data-name="Path 2003" class="cls-50" d="M3388.537,2744.867s1.5,7.488,2.1,12.2a34.933,34.933,0,0,1,0,8.635s.65,19.931,1.552,19.776,41.131-35.869,41.131-35.869l-8.012-14.6-9.354-5.591-19.653,5.591Z" transform="translate(-3366.025 -2655.333)"/>
        <path id="Path_1999" data-name="Path 1999" class="cls-50" d="M3452.278,2747.822s-2.7-6.137-2.415-16.375,3.652-29,2.415-34.139-23.247-11.438-30.516-12.135-23.706,5.558-24.926,12.135-3.609,14.5-1.83,19.826-1.253,9.4,0,11.692,4.408,25.537,7.442,27.761,11.652,3.333,14.723,2.58,22.557-9.649,23.783-12.285,6.956.939,6.956.939Z" transform="translate(-3392.636 -2667.087)"/>
        <path id="Path_2001" data-name="Path 2001" d="M3421.056,2697.208c8.006,2.424,3.569,5.584,3.688,10.941s1.014,5.734,1.014,5.734a8.419,8.419,0,0,1,5.22,8.422c-.21,4.351-3.35,11.406-2.58,13.061.028.3,1.911-.692,3.848-2.073.73-.509,1.807-.884,1.987-2.137.374-2.608-.605-3.88-.574-6.146.079-5.613-.979-8.424,4.539-9.471,4.562-.865.61,24.917,2.446,26.215.332.243,3.578-.792,5.4-6.388.569-1.746-.253-4.908,0-7.13.445-3.875,2.227-9.042,2.281-9.845.173-2.564-.33-5.368,0-8.275.348-3.06,1.474-6.087.983-7.841-.871-3.11-3.307-2.76-2.593-7.441s2.154-4.015,0-7.141-3.783-4.357-6.83-8.029-.505-2.951-7.349-4.61-4.5-3.822-7.793-4.153-1.8,2.039-7.3,1.226-8.928-2.011-12.281,0-10.91,4.792-12.448,7.537,1.356,13.181-1.446,15.17-2.09,3.2-2.09,3.2S3413.05,2694.785,3421.056,2697.208Z" transform="translate(-3382.846 -2670.869)"/>
        <path id="Path_2002" data-name="Path 2002" d="M3436.981,2697.47a57.788,57.788,0,0,0-1.736,5.691,10.433,10.433,0,0,1-3.325-7.05c-.148-4.357,3.185-3.668,2.936-7.812s-4.176-4.634,1.056-6.047a64.829,64.829,0,0,0,9.675-3.52,35.866,35.866,0,0,1-2.7,11.592C3441.245,2693.853,3437.486,2696.067,3436.981,2697.47Z" transform="translate(-3431.915 -2668.783)"/>
        <path id="Path_2000" data-name="Path 2000" class="cls-50" d="M3393.327,2708.108s7.391-4.61,9.1-1.2-.272,15.008-1.666,16.105-4.243,4.217-6.252,1.866S3393.327,2708.108,3393.327,2708.108Z" transform="translate(-3341.108 -2661.97)"/>
        <path id="Path_6582" data-name="Path 6582" class="cls-34" d="M508.133,2780.63c1.247,1.15,14.41-8.659,20.99-4.109s8.088,6.164,8.088,6.164l2.541-3.324s-2.969-5.363-4.554-8.713-2.559-16.866-2.559-16.866a6.838,6.838,0,0,1-4.468,1.087c-2.184-.446,1.02,11.77-3.328,15.779S508.133,2780.63,508.133,2780.63Z" transform="translate(-475.529 -2690.869)"/>
        <path id="Path_6605" data-name="Path 6605" class="cls-51" d="M3438.541,2697.208c8.006,2.424,3.569,5.584,3.688,10.941s1.014,5.734,1.014,5.734a8.419,8.419,0,0,1,5.22,8.422c-.21,4.351-3.35,11.406-2.58,13.061.028.3.643-3.32,2.58-4.7.73-.509,1.236-3.013,1.268-5.279.079-5.613-2.1-16.19,3.414-17.237,1.227-.233-2.61-4.1-3.414-10.116-.3-2.29,3.3-5.977,1.413-8.63-2.521-3.54-5.5,1.2-7.9,0-1.91-.962-1.672-4.16-3.378-4.827-2.21-.869-5.843-.564-6.783,0-3.353,2.011-11.59,2.448-13.127,5.193-.9,1.608,3.732-5.128,0-5.193-1.449-.026-6.275,4.816-8.832,6.972-.833.7-4.089-.259-4.453,0-1.384.983-4.414,4.76-3.994,6.4.077.314.176,7.125.98,7.157l1.758-5.8,1.256-1.361S3430.535,2694.785,3438.541,2697.208Z" transform="translate(-3400.331 -2670.869)"/>
      </g>
      <g id="T-shirt" transform="translate(181.344 88.13)">
        <path id="Path_2006" data-name="Path 2006" d="M3405.568,2756.89l-18.133,25.918-12.146-24.735v-3.367l-1.661-9.047s-14.181,4.881-16.889,6.675-15.217,30.955-14.208,39.934,1.3,21.215,2.739,30.522,3.764,14.165,4.011,27.687c.142,7.775.121,13.567.073,17.392,0-.379,34.415,2.625,104.827,3.655l21.68-58.885s-7.642-35.634-10.166-39.751-8.815-9.341-15.7-10.315S3405.568,2756.89,3405.568,2756.89Z" transform="translate(-3314.489 -2739.623)"/>
        <path id="Path_2007" data-name="Path 2007" d="M3433.41,2740.227s-5.878,12.418-14.4,18.615c-12.4,8.575-19.659,5.919-25.106-.728-10.638-12.982-5.6,27.333-5.6,27.333s55.529,7.277,53.939,4.409S3433.41,2740.227,3433.41,2740.227Z" transform="translate(-3333.397 -2739.533)"/>
        <path id="Path_2008" data-name="Path 2008" d="M3369.514,2740.164l-10.736,18.715,51.579,6.105s-23.6-13.124-29.154-16.465c-1.022-.615-5.577-3.3-6.663-3.982A19.532,19.532,0,0,1,3369.514,2740.164Z" transform="translate(-3269.684 -2740.164)"/>
        <path id="Path_2009" data-name="Path 2009" d="M3478.572,2750.826s-12.641,4.745-16.006,6.874-8.562,6.576-9.844,8.7-17.249,30.848-17.249,30.848,3.382,2.446,9.771,6.65,13.133,7.126,15.362,11.3,10.391-13.407,11.075-23.511S3478.572,2750.826,3478.572,2750.826Z" transform="translate(-3435.472 -2738.249)"/>
        <path id="Path_6584" data-name="Path 6584" class="cls-52" d="M550.169,2784.457s-7.454,14.308-10.888,17.813-13.394,9.391-19.917,9.706-13.5-3.906-15.176-6.633" transform="translate(-446.207 -2778.999)"/>
        <path id="Path_6585" data-name="Path 6585" class="cls-53" d="M3401.05,2704.875s-3.952,6.6-3.373,11.281" transform="translate(-3342.103 -2694.999)"/>
        <g id="LOGO" transform="translate(47.465 69.677)">
          <g id="Group_1" data-name="Group 1" transform="translate(0)">
            <path id="Path_1" data-name="Path 1" class="cls-54" d="M191.064,308.86l-2.794,3.632,2.794,3.633,2.794-3.633,2.794-3.632,2.794-3.633-2.794-3.633-2.794-3.632-2.794-3.633-2.794,3.633,5.588,7.264Z" transform="translate(-165.918 -294.33)"/>
            <path id="Path_2" data-name="Path 2" class="cls-55" d="M329.69,336.955l2.794,3.633,2.794,3.632,5.588-7.265-2.794-3.633-2.794-3.632-2.794,3.632Z" transform="translate(-318.514 -326.057)"/>
            <path id="Path_3" data-name="Path 3" class="cls-54" d="M471.11,305.227l2.793,3.633,2.794,3.632,2.794,3.633,2.795-3.633-2.795-3.632-2.794-3.633,2.794-3.633,2.795-3.632-2.795-3.633-2.794,3.633-2.794,3.632Z" transform="translate(-471.11 -294.33)"/>
          </g>
        </g>
      </g>
      <g id="left-hand" transform="translate(230.486 158.249)">
        <path id="mouse" class="cls-56" d="M3408.424,2855.366s-16.866,1.63-21.972,1.671-14.945,1.109-16.9,0-5.194-.061-5.633-1.671-2.938-3.251,0-5.458,25.694-7.8,25.694-7.8h12.16Z" transform="translate(-3362.513 -2785.118)"/>
        <path id="Path_1998" data-name="Path 1998" class="cls-50" d="M3427.461,2834.452s-7.352,1.715-12.943.922-21.378-.954-23.373-.922-7.192,5.5-7.773,6.346-4.879,6.963-4.925,8.563-.042,3.045,1.21,3.541-.637.787,0,2.376,1.552,3.412,3.715,2.639,1.56-.8,2.7,0,2.758,1.24,6.433,0,3.929-2.887,4.587-1.861,1.225,2.728,3.234,2.507,13.336-3.721,15.206-3.285,10.062,2.331,14.21,0,2.5-2.657,8.2-4.105,7.538-5.4,5.373-8.587-3.011-7.709-6.995-8.133A54.606,54.606,0,0,0,3427.461,2834.452Z" transform="translate(-3377.46 -2785.764)"/>
        <path id="Path_1995" data-name="Path 1995" class="cls-57" d="M3415.4,2844.725s-7.855,2.152-12.928,5.263,2.128-3.25,6.939-4.354S3415.4,2844.725,3415.4,2844.725Z" transform="translate(-3376.886 -2782.992)"/>
        <path id="Path_1996" data-name="Path 1996" class="cls-57" d="M3422.465,2844.725s-7.855,2.152-12.928,5.263c-.335.205-7.812,5.1-8.4,5.413-2.931,1.613,10.843-8.736,15.336-9.768C3421.287,2844.529,3422.465,2844.725,3422.465,2844.725Z" transform="translate(-3389.015 -2788.053)"/>
        <path id="Path_1997" data-name="Path 1997" class="cls-57" d="M3421.83,2844.781c-1.506.641-6.349.428-12.171,4.277-.335.206-8.055,8.562-8.642,8.873-2.93,1.613,7.924-11.158,12.418-12.19C3418.246,2844.637,3423.335,2844.14,3421.83,2844.781Z" transform="translate(-3397.237 -2791.906)"/>
        <path id="Path_2004" data-name="Path 2004" class="cls-50" d="M3342.845,2854.207c1.053.441,8.941.968,28.98.756s22.952-.518,23.911-1.871,11.181-15.4,4.578-26.291-23.178-4.543-27.282-2.508-19.636,11.091-22.526,11.578-11.734,2.259-11.734,2.259l-1.976,4.628Z" transform="translate(-3283.149 -2788.797)"/>
        <path id="Path_2005" data-name="Path 2005" class="cls-50" d="M3381.758,2839.729s-3.753-28.586-6.666-39.352-34.134,1.417-34.134,1.417-3.938,1.686-4,4.508,4.283,21.187,6.194,24.534a17.192,17.192,0,0,0,3.481,4.608Z" transform="translate(-3262.548 -2795.934)"/>
        <path id="Path_6579" data-name="Path 6579" class="cls-34" d="M3336.865,2854.235c1.053.441,8.444.94,28.483.728s22.952-.518,23.911-1.871c.9-1.274,9.452-12.43,5.825-25.144,0,0,1.441,15.582-11.272,20.391C3368.16,2854.259,3374.029,2841.721,3336.865,2854.235Z" transform="translate(-3276.672 -2788.797)"/>
        <path id="Path_6580" data-name="Path 6580" class="cls-58" d="M3373.305,2801.794s-3.938,1.686-4,4.508,4.283,21.187,6.194,24.534c.856,1.5,1.858,3.5,3.075,3.924.473.177,3.18-1.322,3.18-1.322a90.119,90.119,0,0,1-4.019-9.4C3374.935,2815.42,3373.305,2801.794,3373.305,2801.794Z" transform="translate(-3294.895 -2795.934)"/>
        <path id="Path_6581" data-name="Path 6581" class="cls-34" d="M468.374,2887.667s7.347-3.645,11.023-3.333-15.934,6.145-15.934,6.145Z" transform="translate(-384.312 -2849.118)"/>
      </g>
    </g>
    <g id="Ironman" transform="translate(84.143 146.554)">
      <path id="shadow" class="cls-59" d="M3682.6,2859l8.448-3.877,7.691-2.678,6.174-3.8,2.927-.708s.787-.529,1.823-1.141c1.839-.671,7.913-3,7.913-3l-7.347,6.221-.566,1.6-2.421.83.6,1.16,4.791-1.99.675-1.6,17.306-10.231-21.435-1.295-11.489,2.787-4.05.738-1.97,1.139-.62,1.412,3.966-1.553-.542.782h.542l1.8-.782,10.154-1.736-5.015,1.877a22.781,22.781,0,0,0-2.765.431,10.75,10.75,0,0,0-2.105.74l-13.68,2.98s-4.086,1.83-6.969,2.711c-3.818,1.167-10.342,3.592-10.342,3.592l-5.231,1.519s-7.841,4.34-7.047,3.877c1.245-.725,5.246,0,5.246,0s35.359-9.722,36.384-10.357c.281-.174-7.4,4.137-7.4,4.137s-9.467,4.566-15.521,7.57Z" transform="translate(-3653.139 -2783.423)"/>
      <path id="Path_6589" data-name="Path 6589" class="cls-60" d="M817.827,2840.905s-.245,1.592-1.052,4.678-3.931,11.628-3.931,11.628-2.017,2.254-2.409,2.087-1.651.692-1.857-.889.957-10.383.957-10.383a8.257,8.257,0,0,1-.585-2.146c.028-.63,2.259-7.19,2.259-7.19l.972-.808Z" transform="translate(-801.982 -2803.423)"/>
      <path id="Path_6590" data-name="Path 6590" class="cls-61" d="M815.955,2840.905s-.245,1.592-1.052,4.678-3.931,11.628-3.931,11.628-2.017,2.254-2.409,2.087c-.218-.093,3.372-11.189,3.372-11.189l1.918-7.2A4.618,4.618,0,0,1,815.955,2840.905Z" transform="translate(-800.11 -2803.423)"/>
      <path id="Path_2054" data-name="Path 2054" class="cls-62" d="M3723.047,2803.291s-2.242,5.241-2.5,5.88a2.588,2.588,0,0,1-1.036,1.065l-2.267-2.079a24.469,24.469,0,0,1,.953-6.922,3.935,3.935,0,0,1,.955-1.557c2-1.832,3.894,1.607,3.894,1.607Z" transform="translate(-3713.893 -2783.423)"/>
      <path id="Path_2090" data-name="Path 2090" class="cls-60" d="M3718.378,2808.158a24.469,24.469,0,0,1,.953-6.922,3.935,3.935,0,0,1,.955-1.557c2-1.832,2.76,1.15,2.76,1.15Z" transform="translate(-3715.026 -2783.423)"/>
      <path id="Path_2051" data-name="Path 2051" class="cls-63" d="M3722.89,2799.963c.023-.546-.618-6.759-4.219-6.622s-3.914.815-3.914.815l-2.447-1.209h-5.155l-2.784,1.209s-2.832-.42-3.908,0a4.806,4.806,0,0,0-2.246,3.161,27.971,27.971,0,0,0,1.234,3.889l3.021.358s3.042,5.478,3.167,7.767-1.27,7.21-1.27,7.21l.348,2.342s.387-.06,1.308.507a29.088,29.088,0,0,1,2.375,1.759h3l7.265-1.161s1.809-1.741.682-3.446-1.406-1.29-1.406-1.29l-1.07-1.619-.764-5.782,1.079-4.42,3.922-4.431Z" transform="translate(-3694.71 -2783.423)"/>
      <path id="Path_2057" data-name="Path 2057" class="cls-64" d="M3708.99,2799.963c.023-.546-.618-6.759-4.219-6.622-2.24.085-4.173,2.837-4.173,2.837s.534,2.835.89,5.834l-3.27,7.711,2.38,5.032.648,4.181,3.526,1.049s1.809-1.741.682-3.446-1.406-1.29-1.406-1.29l-1.07-1.619-.764-5.782,1.079-4.42,3.922-4.431Z" transform="translate(-3680.81 -2783.423)"/>
      <path id="Path_2056" data-name="Path 2056" class="cls-62" d="M3709.169,2838.283s1.157-2.06.938-2.957c-.129-.527.052-4.894-.384-9.349a31.261,31.261,0,0,0-1.387-6.329c-.722-1.909-3.86-.749-3.86-.749l-4.144,2.321a39.2,39.2,0,0,0,.581,7.6c.763,5.24,1.529,10.279,1.535,10.915s1.351,1.87,1.562,1.349a25.141,25.141,0,0,1,2.394-2.8l1.932.548Z" transform="translate(-3684.049 -2783.423)"/>
      <path id="Path_2048" data-name="Path 2048" class="cls-60" d="M3707.683,2818.9l-4.144,2.321a39.2,39.2,0,0,0,.581,7.6c.763,5.24,1.529,10.279,1.535,10.915s1.351,1.87,1.562,1.349a25.141,25.141,0,0,1,2.394-2.8l.523-2.634Z" transform="translate(-3687.256 -2783.423)"/>
      <path id="Path_2045" data-name="Path 2045" class="cls-63" d="M3708.939,2857.825l-1.287-1.066-2.73-.616c-.182-.312-1.945-7.611-1.925-9.93s.826-7.992.826-7.992a14,14,0,0,0-2.025-2.271c-.381-.1-3.4,3.685-3.4,3.685h-1.134l-.188-1.413a26.048,26.048,0,0,0-1.15,3.568c-.018.634.128,5.343,1.536,7.252s.865,6.444.865,6.444l.517.657h-1.381l-.485,1.5-.452,2.039.937.783,4.333.3,1.2-.581,1.135.581,4.234-.876.926-.925Z" transform="translate(-3678.818 -2783.423)"/>
      <path id="Path_2046" data-name="Path 2046" class="cls-64" d="M3705.417,2856.143c-.182-.312-1.945-7.611-1.925-9.93s.826-7.992.826-7.992a14,14,0,0,0-2.025-2.271l-2,7.966,2,13.286S3705.6,2856.455,3705.417,2856.143Z" transform="translate(-3679.314 -2783.423)"/>
      <path id="Path_2047" data-name="Path 2047" class="cls-62" d="M3708.187,2844.025h-2.108a10.36,10.36,0,0,0,.385,2.106,13.107,13.107,0,0,0,.743,1.751h1.544Z" transform="translate(-3688.43 -2783.423)"/>
      <path id="Path_2050" data-name="Path 2050" class="cls-62" d="M3705.138,2805.642c-.2-.6-1.92-6.385-2.682-6.927s-5.064-.762-5.077.476.015,3.721.8,5.116,5,4.919,5,4.919Z" transform="translate(-3676.116 -2783.423)"/>
      <path id="Path_2059" data-name="Path 2059" class="cls-60" d="M3704.351,2806.772c-.2-.6-4.995-8.82-5.007-7.582s.015,3.721.8,5.116,5,4.919,5,4.919Z" transform="translate(-3678.08 -2783.423)"/>
      <path id="Path_2049" data-name="Path 2049" class="cls-65" d="M3700.274,2817.411s-2.088-7.124-2.719-8.729-1.469-3.173-2.146-3.44-3.3.9-3.3.9.014,2.964,0,4.077,5.448,9.008,5.448,9.008Z" transform="translate(-3665.983 -2783.423)"/>
      <path id="Path_2060" data-name="Path 2060" class="cls-64" d="M3700.274,2817.411s-2.088-7.124-2.719-8.729-1.469-3.173-2.146-3.44-3.3.9-3.3.9,3.317,2.77,3.3,3.882,3.725,8.07,3.725,8.07Z" transform="translate(-3665.983 -2783.423)"/>
      <path id="Path_2052" data-name="Path 2052" class="cls-63" d="M3725.1,2836.633a11.536,11.536,0,0,1,.6,2.212c-.059.357-3.471,7.776-3.471,7.776l-.653.394v7.711h-.719l.719,1.674v1.663l-1.466.352v.613H3714.8l.342-3.625h.535s1.907-8.138,1.747-8.387.022-7.283,1.148-9.184a10.085,10.085,0,0,1,2.282-2.77v2.77l1.734.561Z" transform="translate(-3714.11 -2783.423)"/>
      <path id="Path_2053" data-name="Path 2053" class="cls-63" d="M3706.377,2792.736l1.183-2.349s-2.514-2.788-1.265-4.925,4.458-2.259,5.84-1.858,2.266,2.958,2.357,3.634a2.818,2.818,0,0,1,0,1.01l-1.774,5.406-6.2-.682Z" transform="translate(-3694.078 -2783.423)"/>
      <path id="Path_2064" data-name="Path 2064" class="cls-60" d="M3706.276,2790.092l1.129-1.843-1.418,4.526Z" transform="translate(-3686.992 -2783.423)"/>
      <path id="Path_2055" data-name="Path 2055" class="cls-63" d="M3725.038,2812.214a5.3,5.3,0,0,0-1.489-2.5v-.943s-2.276-1.416-2.437-1.948-2.139,1.543-2.017,5.4,0,3.129,0,3.129h-.588a27.908,27.908,0,0,0-.346,3.909,5.3,5.3,0,0,0,.346,1.2l.588.44-.163,2.511h.555l.47-1.035v1.035l.585,1.023h.57l-.171-1.023v-1.591l1.5,2.614s.734-.024.525-.327a9.984,9.984,0,0,1-.716-1.731c-.008-.121,0-1.3,0-1.3h.351l.365.741.983,1.174s.549-.176.447-.319-.977-2.052-.977-2.052l.128-1.359,1.358.441.554.342.844-.52-2.2-1.906-1.141-.533a.83.83,0,0,1,0-1.275A27.022,27.022,0,0,0,3725.038,2812.214Z" transform="translate(-3718.046 -2783.423)"/>
      <path id="Path_2058" data-name="Path 2058" class="cls-64" d="M3718.455,2795.389h0l-1.526,5.9s1.576,2.824,1.526,2.587.316-7.786.316-7.786" transform="translate(-3709.301 -2783.423)"/>
      <path id="Path_2061" data-name="Path 2061" class="cls-66" d="M3711.081,2793.546l-1.883,2.7-1.343,13" transform="translate(-3692.538 -2783.423)"/>
      <path id="Path_2062" data-name="Path 2062" class="cls-66" d="M3708.929,2793.383l-.678,2.643,2.342,13.594" transform="translate(-3697.445 -2783.423)"/>
      <path id="Path_2063" data-name="Path 2063" d="M3713.271,2793.339c-.184-.394-2.863-3.236-3.35-3.314a5.268,5.268,0,0,0-1.606.282l-.457.984h2.063Z" transform="translate(-3694.73 -2783.423)"/>
      <path id="Path_2065" data-name="Path 2065" class="cls-66" d="M3714.331,2787.427l-1.827-1.711-4.045.519" transform="translate(-3696.39 -2783.423)"/>
      <path id="Path_2066" data-name="Path 2066" class="cls-60" d="M3711.116,2801.071l-2.113-.592-1.145,9.172Z" transform="translate(-3692.575 -2783.423)"/>
      <path id="Path_2067" data-name="Path 2067" class="cls-60" d="M3708.594,2801.564l1.4-.6,1.358,8.256Z" transform="translate(-3698.547 -2783.423)"/>
      <path id="Path_2068" data-name="Path 2068" class="cls-66" d="M3713.2,2805.69H3711.4" transform="translate(-3698.197 -2783.423)"/>
      <path id="Path_2069" data-name="Path 2069" class="cls-66" d="M3713.2,2805.69H3711.4" transform="translate(-3698.197 -2782.423)"/>
      <path id="Path_2070" data-name="Path 2070" class="cls-66" d="M3713.2,2805.69H3711.4" transform="translate(-3698.197 -2781.423)"/>
      <path id="Path_2071" data-name="Path 2071" class="cls-66" d="M3713.2,2805.69H3711.4" transform="translate(-3698.197 -2780.423)"/>
      <path id="Path_2072" data-name="Path 2072" class="cls-66" d="M3716.19,2796.12h-5.951" transform="translate(-3699.433 -2783.423)"/>
      <path id="Path_2073" data-name="Path 2073" class="cls-67" d="M3703.936,2821s.211-3.445,1.143-4.136,5.056-1.56,5.056-1.56" transform="translate(-3687.672 -2783.423)"/>
      <path id="Path_2075" data-name="Path 2075" class="cls-64" d="M3719.074,2816l-.934,3.257a5.3,5.3,0,0,0,.346,1.2l.588.44-.163,2.511h.555l.47-1.035v1.035l.585,1.023h.57l-.171-1.023v-1.591l1.5,2.614s.734-.024.525-.327a9.984,9.984,0,0,1-.716-1.731c-.008-.121,0-1.3,0-1.3h.351l.365.741.983,1.174s.549-.176.447-.319-.977-2.052-.977-2.052l.128-1.359,1.358.441.554.342.844-.52-2.2-1.906-1.506-.933-1.492,1.159S3720.406,2814.117,3719.074,2816Z" transform="translate(-3718.027 -2783.423)"/>
      <path id="Path_2074" data-name="Path 2074" class="cls-68" d="M3726.4,2815.3l-.322,2.818.322,2.783-.849-.562-.23-1.234c-.017-.387.23-3.805.23-3.805Z" transform="translate(-3725.319 -2783.423)"/>
      <path id="Path_2076" data-name="Path 2076" class="cls-64" d="M3723.685,2809.791c-.215.052-2.809,2.157-2.809,2.157l.974-4.318,1.835,1.073Z" transform="translate(-3718.161 -2783.423)"/>
      <path id="Path_6591" data-name="Path 6591" class="cls-65" d="M791.11,2837.032l1.424,3.829-.39,3.678h-.61v1.042l-1.627,1.825-.466-.348-.68.348v-1.177l-.545-.648,1.225-1.619-1.225-1.8-.389-3.388,2.081-1.743Z" transform="translate(-755.962 -2803.423)"/>
      <path id="Path_6592" data-name="Path 6592" class="cls-60" d="M819.831,2863.423l-1.272,3.236-1.6-.358.966-3.711Z" transform="translate(-812.393 -2803.423)"/>
      <path id="Path_6593" data-name="Path 6593" class="cls-64" d="M789.029,2837.032l1.424,3.829-.39,3.678h-.61v1.042l-1.627,1.825,1.015-2.424.853-3.464-.853-4.485Z" transform="translate(-753.881 -2803.423)"/>
      <path id="Path_6610" data-name="Path 6610" class="cls-67" d="M3708.369,2821.038s-.206-3.519-1.138-4.209a9.28,9.28,0,0,0-2.562-1.127" transform="translate(-3694.638 -2783.423)"/>
      <path id="Path_6611" data-name="Path 6611" class="cls-60" d="M811.758,2830.66h-3.52l.73,5h2.79v-4.187" transform="translate(-795.597 -2803.423)"/>
    </g>
    <g id="plant" transform="translate(266.594 164.333)">
      <path id="Path_6630" data-name="Path 6630" class="cls-69" d="M28,0C12.536,0,0,1.246,0,2.783S12.536,5.566,28,5.566,56,4.32,56,2.783,43.464,0,28,0Z" transform="translate(5.948 38.799)"/>
      <g id="leaves" transform="translate(0 0)">
        <path id="Path_6620" data-name="Path 6620" class="cls-70" d="M841.508,642.644c2.248-3.041,11.553-11.891,11.112-15.007s-.981,1.2-5.638,2.678-14.266,8.01-14.693,10.11-2.962,3.7,1.132,3.369A78.3,78.3,0,0,0,841.508,642.644Z" transform="translate(-793.793 -594.445)"/>
        <path id="Path_6625" data-name="Path 6625" class="cls-71" d="M0,24.569S11.48,5.24,15.352,2.66,27.836-3.331,19.96,7.165,0,24.569,0,24.569Z" transform="translate(55.587 38.86) rotate(171)"/>
        <path id="Path_6617" data-name="Path 6617" class="cls-72" d="M878.469,634.627s.815-5.619-2.2-7.384a25.759,25.759,0,0,1-6.872-6.1c-.625-1.062-1.923,4.177-.926,7.277s3.706,11.069,6.347,11.83,3.858.779,3.656-.74A37.248,37.248,0,0,1,878.469,634.627Z" transform="translate(-844.098 -592.561)"/>
        <path id="Path_6619" data-name="Path 6619" class="cls-73" d="M835.6,634.858c.114-2.91-4.56-5.523,9.415-14.84s17.288-14.967,14.049-7.457-13.293,20.25-16.373,21.695S835.6,634.858,835.6,634.858Z" transform="translate(-802.886 -588.495)"/>
        <path id="Path_6628" data-name="Path 6628" class="cls-74" d="M836.29,638.347c.114-2.91-5.091,3.12,7.381-7.883s19.612-25.414,16.373-17.9-13.293,20.25-16.373,21.695S836.29,638.347,836.29,638.347Z" transform="translate(-803.863 -588.495)"/>
        <path id="Path_6621" data-name="Path 6621" class="cls-73" d="M902.711,610.413c-1.058-1.477-7.453-6.585-15.89-14.229s-17.187-17.312-10.845-8.214,25.051,31.7,27.331,31.569S902.711,610.413,902.711,610.413Z" transform="translate(-873.474 -580.04)"/>
        <path id="Path_6627" data-name="Path 6627" class="cls-74" d="M902.286,616.245c-1.058-1.477-8.566-11.936-17-19.58s-15.17-17.794-8.827-8.695,25.051,31.7,27.331,31.569S902.286,616.245,902.286,616.245Z" transform="translate(-873.953 -580.04)"/>
        <path id="Path_6622" data-name="Path 6622" class="cls-75" d="M893.477,645.739c-.068-.029-.143-.061-.409-.18-2.726-1.205-13.549-6.96-13.759-8.939-.216-2.034-1.5-.74,4.771,1.595s13.253,4.582,13.963,5.648,2.431,3.919,0,3.672A10.751,10.751,0,0,1,893.477,645.739Z" transform="translate(-871.049 -600.54)"/>
        <path id="Path_6623" data-name="Path 6623" class="cls-73" d="M909.494,631.851a16.652,16.652,0,0,0-7.818-11.719c-7.049-4.168-16.039-6.18-18.461-9.026s-1.073,3.724,5.041,8.153S909.494,631.851,909.494,631.851Z" transform="translate(-880.235 -584.949)"/>
        <path id="Path_6624" data-name="Path 6624" class="cls-74" d="M0,43.2c-.1-.506,9.931-32.21,14.123-37.662S25.338-3.089,21.6,4.481,0,43.2,0,43.2Z" transform="matrix(-0.998, 0.07, -0.07, -0.998, 50.951, 45.047)"/>
        <path id="Path_6618" data-name="Path 6618" class="cls-73" d="M.2,45.361c.12-2.614-.512-23.78,0-31.029S1.67-.641,4.037.042,9.843,6.89,9.3,14.332.2,45.361.2,45.361Z" transform="translate(38.652 44.802) rotate(171)"/>
        <path id="Path_6626" data-name="Path 6626" class="cls-76" d="M0,37.358C.12,34.744,5.907,13.153,6.419,5.9S7.935-2.72,9.1,6.329,0,37.358,0,37.358Z" transform="translate(37.2 36.93) rotate(171)"/>
      </g>
      <path id="Path_6629" data-name="Path 6629" class="cls-59" d="M31.8-.019c-16.1,0-29.861,2.5-29.861,5.737s13.759,6,29.861,6S59.086,7.207,59.086,3.967c0-2.073-5.007-3.536-13.16-3.986C41.823-.247,37.6-.019,31.8-.019Z" transform="translate(15.389 62.183)"/>
      <path id="Path_2037" data-name="Path 2037" class="cls-77" d="M3482.524,2835.5l1.265,30.828h52.343l.868-27.875h-7.45s-14.719.1-24.955,0S3482.524,2835.5,3482.524,2835.5Z" transform="translate(-3476.576 -2794.201)"/>
      <path id="Path_6615" data-name="Path 6615" class="cls-77" d="M25.625,0C11.541,0-.493,1.064-.493,2.445S11.541,5,25.625,5,51.618,3.826,51.618,2.445,39.708,0,25.625,0Z" transform="translate(7.823 69.799)"/>
      <path id="Path_2086" data-name="Path 2086" class="cls-78" d="M3504.558,2866.281l2.406-30.347a73.778,73.778,0,0,1-25.869,2.431s8.836.7,14.645,7.781c2.451,2.986,3.154,9.131,4.268,13.164A12.728,12.728,0,0,0,3504.558,2866.281Z" transform="translate(-3445.111 -2794.201)"/>
      <path id="Path_6616" data-name="Path 6616" class="cls-79" d="M630.911,3168.248s.834,28.4,1.567,26.922,2.553-21.245,2.055-24.613A2.646,2.646,0,0,0,630.911,3168.248Z" transform="translate(-623.58 -3124.201)"/>
    </g>
    <g id="plant-2" data-name="plant" transform="translate(17.99 317.129)">
      <path id="Path_7997" data-name="Path 7997" class="cls-4" d="M681.732,540.186a12.393,12.393,0,0,1,2.5-.817,58.182,58.182,0,0,1,7.16-1.058c6.695-.66,15.5-1.023,24.8-1.023,8.053,0,15.777.267,21.75.75a86.035,86.035,0,0,1,9.359,1.157,16.326,16.326,0,0,1,3.021.845c2.308.964,2.653,2.526,2.653,3.372a3.555,3.555,0,0,1-2.375,3.251,13.063,13.063,0,0,1-2.593.821,64.382,64.382,0,0,1-7.63,1.09c-6.476.62-15.065.961-24.185.961s-17.709-.341-24.185-.961a64.315,64.315,0,0,1-7.63-1.09,13.041,13.041,0,0,1-2.593-.821,3.407,3.407,0,0,1-.057-6.476Zm34.465,6.459c18.658,0,33.783-1.448,33.783-3.234,0-.991-4.659-1.878-12.284-2.494-5.593-.453-13.2-.74-21.5-.74-9.5,0-18.079.376-24.5,1.007-5.639.555-9.286,1.35-9.286,2.227C682.413,545.2,697.539,546.645,716.2,546.645Z" transform="translate(-661.427 -430.574)"/>
      <path id="Path_6630-2" data-name="Path 6630" class="cls-69" d="M33.783,0C15.125,0,0,1.5,0,3.358S15.125,6.716,33.783,6.716s33.783-1.5,33.783-3.358S52.441,0,33.783,0Z" transform="translate(20.956 109.444)"/>
      <path id="Path_7982" data-name="Path 7982" class="cls-80" d="M950.2,746.656s.92,9.97,2.23,20.479-2.6,32.241-5.7,46.166-5.333,33.559-3.015,51.415c-.019-.027-11.005,1.326-11.005,1.326s1.208-30.937,1.5-52.741,4.8-47.351,4.8-47.351S944.672,744.577,950.2,746.656Z" transform="translate(-870.857 -746.513)"/>
      <path id="Path_8000" data-name="Path 8000" class="cls-81" d="M952.694,746.656A79.383,79.383,0,0,0,943.2,770c-3.479,14.339-4.619,37.018-4.783,47.807a140.366,140.366,0,0,0-1.71,48.231c-.019-.027-1.5,0-1.5,0s1.208-30.937,1.5-52.741,4.8-47.351,4.8-47.351S947.162,744.577,952.694,746.656Z" transform="translate(-873.348 -746.513)"/>
      <g id="Group_929" data-name="Group 929" transform="translate(69.553 31.379)">
        <path id="Path_7981" data-name="Path 7981" class="cls-70" d="M904.152,863.342s-2.026-21.3,9.326-39.948c11.021-16.7,11.044-6.859,29.521-46.5-.19-.38-37.911,18.293-43.284,55.1s0,33.3,0,33.3Z" transform="translate(-897.327 -776.892)"/>
        <path id="Path_7991" data-name="Path 7991" class="cls-81" d="M899.715,864.055s-3.937-27.426,7.415-46.071c11.021-16.7,14.438-20.412,35.869-41.086-.19-.38-37.911,18.293-43.284,55.1s0,33.3,0,33.3Z" transform="translate(-897.327 -776.892)"/>
      </g>
      <g id="Group_930" data-name="Group 930" transform="translate(46.929 4.784)">
        <path id="Path_7983" data-name="Path 7983" class="cls-73" d="M954.628,751.3s17.414,24.9,10.28,62.067-5.11,53.406-5.11,53.406h-9.405s4.013-44.351,4.235-57.474S958.543,769.983,954.628,751.3Z" transform="translate(-950.392 -751.297)"/>
        <path id="Path_7993" data-name="Path 7993" class="cls-81" d="M962.551,751.3s7.307,24.559,2.347,62.19-2.347,53.283-2.347,53.283h-4.235s4.013-44.351,4.235-57.474S966.466,769.983,962.551,751.3Z" transform="translate(-958.316 -751.297)"/>
      </g>
      <g id="Group_931" data-name="Group 931" transform="translate(53.96 64.632)">
        <path id="Path_7987" data-name="Path 7987" class="cls-73" d="M953.3,811.145s8.721,20,5.625,31.979-5.625,24.3-5.625,24.3h-6.6a130.233,130.233,0,0,0-1.326-19.261C943.879,838.323,946.036,819.242,953.3,811.145Z" transform="translate(-944.926 -811.145)"/>
        <path id="Path_7992" data-name="Path 7992" class="cls-81" d="M959.593,811.145s-2.045,9.288-5.14,21.27,1.561,35.011,1.561,35.011h-3.024a130.233,130.233,0,0,0-1.326-19.261C950.169,838.323,952.326,819.242,959.593,811.145Z" transform="translate(-951.216 -811.145)"/>
      </g>
      <g id="Group_933" data-name="Group 933" transform="translate(0 11.76)">
        <path id="Path_7985" data-name="Path 7985" class="cls-73" d="M971.008,758.274s34.637,21.555,40.111,61.142,0,46.878,0,46.878l-4.887-1.679s.9-20.06-1.057-33-13.9-26.086-16.91-31.509S969.16,763.6,971.008,758.274Z" transform="translate(-970.861 -758.274)"/>
        <path id="Path_7994" data-name="Path 7994" class="cls-81" d="M975.616,758.274s7.227,16.245,17.258,34.183c7.787,13.925,18.658,28.711,19.669,39.162,2.271,23.484,0,34.3,0,34.3l-1.7-1.3s.9-20.06-1.057-33-13.9-26.086-16.91-31.509S973.768,763.6,975.616,758.274Z" transform="translate(-975.469 -758.274)"/>
      </g>
      <g id="Group_932" data-name="Group 932" transform="translate(33.055 1.966)">
        <path id="Path_7984" data-name="Path 7984" class="cls-70" d="M964.746,748.479s10.374,10,10.861,31.685,4.545,25.287,4.546,32.448-4.546,54.19-4.546,54.19h-5.734s-1.585-43.7-6.772-65.2C961.725,784.9,960.455,769.051,964.746,748.479Z" transform="translate(-961.452 -748.479)"/>
        <path id="Path_7995" data-name="Path 7995" class="cls-81" d="M974.232,748.479s-.487,8.578,0,30.265-1.34,19.79,2.348,34.349S980.5,865.68,980.5,865.68h-1.922s-.036-39.706-5.989-64.081C970.346,784,969.941,769.051,974.232,748.479Z" transform="translate(-970.938 -748.479)"/>
      </g>
      <path id="Path_7986" data-name="Path 7986" class="cls-73" d="M979.773,807.64s5.49,13.672,9.712,18.773,9.189,20.579,8.7,37.936l-5.517-1.286s-2.087-12.446-6.359-17.669c-.462-.208-6.67-7.031-9.212-14.935S979.773,807.64,979.773,807.64Z" transform="translate(-961.06 -746.513)"/>
      <path id="Path_7989" data-name="Path 7989" class="cls-80" d="M3645.22,1783.306c4.476,1.745-1.159-12.077-5.945-16.482s-14.711-13.719-14.5-11.529S3640.744,1781.561,3645.22,1783.306Z" transform="translate(-3613.069 -1665.285)"/>
      <path id="Path_7990" data-name="Path 7990" class="cls-80" d="M29.334,49.712c6.872,2.679-3.2-15.595-10.548-22.359S-.119-3.037.2.326C.359,1.98-1.824,16.4,5.21,26.554,12.021,36.39,25.843,48.351,29.334,49.712Z" transform="matrix(0.454, 0.891, -0.891, 0.454, 104.688, 67.748)"/>
      <path id="Path_6629-2" data-name="Path 6629" class="cls-59" d="M37.97.014C18.542.014,1.941,3.34,1.941,7.654s16.6,7.985,36.028,7.985,32.919-6,32.919-10.316c0-2.761-6.041-4.709-15.878-5.309C50.06-.289,44.963.014,37.97.014Z" transform="translate(32.748 157.633)"/>
      <path id="Path_2037-2" data-name="Path 2037" class="cls-10" d="M3482.525,2836.5l1.672,57.331,62.868-.029,1.187-54.74h-8.989s-17.759,1.122-30.109,1S3482.525,2836.5,3482.525,2836.5Z" transform="translate(-3461.568 -2723.04)"/>
      <path id="Path_6615-2" data-name="Path 6615" class="cls-10" d="M31.019,0C14.027,0-.493,2.446-.493,5.621s14.52,5.874,31.512,5.874,31.361-2.7,31.361-5.874S48.011,0,31.019,0Z" transform="translate(23.117 165.115)"/>
      <path id="Path_2086-2" data-name="Path 2086" class="cls-3" d="M3509.571,2893.813l2.735-55.756a76.576,76.576,0,0,1-31.042,1.856s10.659.828,17.667,14.63c2.958,5.825,3.8,17.81,5.15,25.675C3505.7,2889.671,3509.571,2893.813,3509.571,2893.813Z" transform="translate(-3424.065 -2722.95)"/>
      <path id="Path_7999" data-name="Path 7999" class="cls-3" d="M3637.555,1784.736s-8.972,2.73-33.364,2.449-27.837-1.381-33.833-2.449c-.069-.016,12.856,4.441,33.833,4.149,3.692-.051,9.864.252,13.27,0C3631.891,1787.82,3637.555,1784.736,3637.555,1784.736Z" transform="translate(-3549.36 -1668.285)"/>
      <path id="Path_6616-2" data-name="Path 6616" class="cls-11" d="M630.91,3168.334s1.006,43.88,1.891,41.6,3.081-32.826,2.479-38.03S630.91,3168.334,630.91,3168.334Z" transform="translate(-608.286 -3049.505)"/>
      <g id="Path_7988" data-name="Path 7988" transform="translate(20.985 108.715)">
        <path id="Path_7996" data-name="Path 7996" class="cls-1" d="M674.916,518.639c-9.5,0-18.078.389-24.5,1.046-5.639.576-9.285,1.4-9.285,2.312,0,1.855,15.125,3.358,33.783,3.358S708.7,523.851,708.7,522c0-1.029-4.659-1.95-12.284-2.59C690.822,518.939,683.219,518.639,674.916,518.639Z" transform="translate(-641.131 -518.639)"/>
      </g>
      <path id="Path_7998" data-name="Path 7998" class="cls-4" d="M681.732,540.186v4.094l11.008,2,17.59.728h25.748l16.9-3.6a3.555,3.555,0,0,1-2.375,3.251,13.063,13.063,0,0,1-2.593.821,64.382,64.382,0,0,1-7.63,1.09c-6.476.62-15.065.961-24.185.961s-17.709-.341-24.185-.961a64.315,64.315,0,0,1-7.63-1.09,13.041,13.041,0,0,1-2.593-.821,3.407,3.407,0,0,1-.057-6.476Zm34.465,6.459c18.658,0,33.783-1.448,33.783-3.234v1.742l-11.26,1.854-40.291,1.007-16.64-2.861.624-1.742C682.413,545.2,697.539,546.645,716.2,546.645Z" transform="translate(-661.427 -430.574)"/>
    </g>
  </g>
</svg>
