<svg xmlns="http://www.w3.org/2000/svg" xmlns:xlink="http://www.w3.org/1999/xlink" width="75" height="75" viewBox="0 0 75 75">
  <defs>
    <clipPath id="clip-Custom_Size_1">
      <rect width="75" height="75"/>
    </clipPath>
  </defs>
  <g id="Custom_Size_1" data-name="Custom Size – 1" clip-path="url(#clip-Custom_Size_1)">
    <g id="Group_1" data-name="Group 1" transform="translate(-1019 -2968)">
      <circle id="Ellipse_124" data-name="Ellipse 124" cx="37.5" cy="37.5" r="37.5" transform="translate(1019 2968)" fill="#d0b2a5"/>
      <g id="Icon_feather-settings" data-name="Icon feather-settings" transform="translate(1038.5 2987.5)">
        <path id="Path_8341" data-name="Path 8341" d="M22.5,18A4.5,4.5,0,1,1,18,13.5,4.5,4.5,0,0,1,22.5,18Z" fill="none" stroke="#89746b" stroke-linecap="round" stroke-linejoin="round" stroke-width="3"/>
        <path id="Path_8342" data-name="Path 8342" d="M29.1,22.5a2.475,2.475,0,0,0,.495,2.73l.09.09a3,3,0,1,1-4.245,4.245l-.09-.09a2.5,2.5,0,0,0-4.23,1.77V31.5a3,3,0,1,1-6,0v-.135A2.475,2.475,0,0,0,13.5,29.1a2.475,2.475,0,0,0-2.73.495l-.09.09A3,3,0,1,1,6.435,25.44l.09-.09a2.5,2.5,0,0,0-1.77-4.23H4.5a3,3,0,1,1,0-6h.135A2.475,2.475,0,0,0,6.9,13.5a2.475,2.475,0,0,0-.5-2.73l-.09-.09A3,3,0,1,1,10.56,6.435l.09.09a2.475,2.475,0,0,0,2.73.495h.12A2.475,2.475,0,0,0,15,4.755V4.5a3,3,0,0,1,6,0v.135a2.5,2.5,0,0,0,4.23,1.77l.09-.09a3,3,0,1,1,4.245,4.245l-.09.09a2.475,2.475,0,0,0-.5,2.73v.12A2.475,2.475,0,0,0,31.245,15H31.5a3,3,0,0,1,0,6h-.135A2.475,2.475,0,0,0,29.1,22.5Z" fill="none" stroke="#89746b" stroke-linecap="round" stroke-linejoin="round" stroke-width="3"/>
      </g>
    </g>
  </g>
</svg>
