<svg xmlns="http://www.w3.org/2000/svg" xmlns:xlink="http://www.w3.org/1999/xlink" width="75" height="75" viewBox="0 0 75 75">
  <defs>
    <clipPath id="clip-Custom_Size_1">
      <rect width="75" height="75"/>
    </clipPath>
  </defs>
  <g id="Custom_Size_1" data-name="Custom Size – 1" clip-path="url(#clip-Custom_Size_1)">
    <g id="Group_1" data-name="Group 1" transform="translate(-1107 -2272)">
      <circle id="Ellipse_123" data-name="Ellipse 123" cx="37.5" cy="37.5" r="37.5" transform="translate(1107 2272)" fill="#ded0b2"/>
      <path id="Icon_metro-file-code" data-name="Icon metro-file-code" d="M28.324,8.87a4.082,4.082,0,0,1,.842,1.333,4.049,4.049,0,0,1,.351,1.544v20.21a1.677,1.677,0,0,1-1.684,1.684H4.255a1.677,1.677,0,0,1-1.684-1.684V3.888A1.677,1.677,0,0,1,4.255,2.2H19.974a4.05,4.05,0,0,1,1.544.351,4.082,4.082,0,0,1,1.333.842ZM20.535,4.589v6.6h6.6a1.917,1.917,0,0,0-.386-.719L21.254,4.975a1.916,1.916,0,0,0-.719-.386ZM27.272,31.4V13.431h-7.3a1.677,1.677,0,0,1-1.684-1.684v-7.3H4.816V31.4H27.272ZM10.992,15.677a.512.512,0,0,1,.368-.219.581.581,0,0,1,.421.114l.895.667a.512.512,0,0,1,.219.368.581.581,0,0,1-.114.421L9.588,21.291l3.193,4.263a.581.581,0,0,1,.114.421.512.512,0,0,1-.219.368l-.895.667a.581.581,0,0,1-.421.114.512.512,0,0,1-.368-.219L7.027,21.624a.514.514,0,0,1,0-.667Zm14.07,5.281a.514.514,0,0,1,0,.667L21.1,26.9a.512.512,0,0,1-.368.219.581.581,0,0,1-.421-.114l-.895-.667a.512.512,0,0,1-.219-.368.581.581,0,0,1,.114-.421L22.5,21.291l-3.193-4.263a.581.581,0,0,1-.114-.421.512.512,0,0,1,.219-.368l.895-.667a.581.581,0,0,1,.421-.114.512.512,0,0,1,.368.219ZM14.184,29.045a.513.513,0,0,1-.36-.228.569.569,0,0,1-.1-.421l2.421-14.578a.513.513,0,0,1,.228-.36.569.569,0,0,1,.421-.1l1.105.175a.513.513,0,0,1,.36.228.569.569,0,0,1,.1.421L15.939,28.764a.513.513,0,0,1-.228.36.569.569,0,0,1-.421.1Z" transform="translate(1128.43 2291.588)" fill="#897a5b"/>
    </g>
  </g>
</svg>
