<svg xmlns="http://www.w3.org/2000/svg" width="1920" height="158.141" viewBox="0 0 1920 158.141">
  <defs>
    <style>
      .cls-1 {
        fill: #1e3f53;
      }
    </style>
  </defs>
  <g id="white-plants" transform="translate(-7.428 -98.191)">
    <path id="Path_8153" data-name="Path 8153" class="cls-1" d="M6255.519,997.6s-8.253-13.753-10.763-17.192-2.084-2.8-2.779-3.728-3.554,2.253-3.554,2.253l1.008-5.667-6.187-4.062-.836,19.5,9.05,1.905-7.186,2.555s-1.183,8.236-.534,8.236h8.238l-5.289,3.843v7.249s-15.8-10.843-20.931-13.308-3.565-1.579-3.565-1.579-5.538,2.738-5.469,2.365,1.755-4.146,1.755-4.146a69.828,69.828,0,0,0-8.107-1.61c-2.077-.091,5.234,15.731,5.234,15.731l4.846-1.432-3.728,6.154,4.525,8.391,6.6-1.975-4.177,6.621S6255.519,1050.874,6255.519,997.6Z" transform="translate(-4729.387 -799.468)"/>
    <path id="Path_8154" data-name="Path 8154" class="cls-1" d="M6273.283,1006.224l-1.694-6.674-2.469.489,2.011-2.048-.749-2.092h-2.206l.943-1.912a16.479,16.479,0,0,0-5.131-7.184c-3.958-3.259-10.7-5.853-10.7-5.853l5.281,13.037h3.264l-1.408,2.632,1.408,1.372,2.686-.588-1.812,2.147Z" transform="translate(-4786.862 -770.386)"/>
    <path id="Path_8155" data-name="Path 8155" class="cls-1" d="M29.588,3.691,0,33.408s30.8-22.64,29.588-20.242S0,53.344,0,53.344,31.509,21.635,31.279,24.233s-7.024,19.074-7.024,19.074L40.006,24.233l-1.1,37.341s13.7-34.491,13.959-33.766,2.238,8.582,2.238,8.582,3.145-12.1,4.255-10.751S69.652,68.717,69.652,68.717l-2.2-45.481,8.257,30.108V17.414L92.876,41.558,78.771,0Z" transform="translate(585.04 247.379) rotate(-166)"/>
    <path id="Path_8156" data-name="Path 8156" class="cls-1" d="M9.215,0C9.228,9.6-3.113,27.486.748,37.732S6.541,50.494,6.541,50.494s7.3-13.543,7.733-22.548-1.159-13.432-1.159-13.432L23.446,42.027s-8.693,9.7-5.557,22.738S22.3,79.577,22.3,79.577a40.16,40.16,0,0,0,4.49-13.291c1.114-7.6-.036-17.126-.036-17.126s9.157,14.456,15.03,21.8a127.26,127.26,0,0,1,9.231,12.721L48.809,99.106l5.973,9.737L56.311,97.46s-2.2-10.084-2.932-12.044c-1.592-4.243,10.714,11.4,12.9,13.691,1.673,1.752,6.522,14.971,6.522,14.971l14.18,7.563-8.547-15.4-8.3-7.767,9.272,2.368,13.077-.618L78.3,90.807l-12.015,3.9a102.637,102.637,0,0,1-12.9-12.872A111.186,111.186,0,0,1,43.046,66.286l17.941,7.93h9.769L53.378,61.08H39.841S30.141,47.461,26.79,39.4s8.346,9.787,19.144,12.087a111.993,111.993,0,0,0,20.348,2.343S56.955,42.2,47.571,39.4,26.79,34.121,26.79,34.121s-7.612-11.5-8.9-18.107S12,1.478,12,1.478Z" transform="matrix(-0.891, -0.454, 0.454, -0.891, 352.064, 248.56)"/>
    <path id="Path_8159" data-name="Path 8159" class="cls-1" d="M0,50.928s7.562,12.93,9.861,16.163,1.91,2.628,2.546,3.5,3.257-2.118,3.257-2.118l-.924,5.328,5.669,3.819L21.174,59.3,12.882,57.5l6.584-2.4s1.084-7.743.489-7.743H12.407l4.845-3.613V36.932S31.733,47.126,36.43,49.444,39.7,50.928,39.7,50.928s5.074-2.574,5.011-2.224S43.1,52.6,43.1,52.6a62.553,62.553,0,0,0,7.429,1.513c1.9.086-4.8-14.789-4.8-14.789l-4.439,1.347,3.415-5.785L40.561,27l-6.045,1.857,3.827-6.225-6.4-9.657S38.254-.495,36.43.014,0,.843,0,.843Z" transform="translate(440.51 238.347) rotate(167)"/>
    <path id="Path_8160" data-name="Path 8160" class="cls-1" d="M6503.539,1114.249l-4.555-19.346s13.685,10.867,13.147,9.715-13.147-19.284-13.147-19.284,14,15.219,13.9,13.973-3.121-9.155-3.121-9.155l7,9.155-.488-17.922s6.086,16.555,6.2,16.207.994-4.119.994-4.119,1.4,5.809,1.891,5.16,4.573-20.677,4.573-20.677l-.979,21.829,3.669-14.451v17.246l7.628-11.589-8.729,23.257Z" transform="translate(-4964.096 -886.757)"/>
    <path id="Path_8161" data-name="Path 8161" class="cls-1" d="M6513.018,1141s-2.309-17.717-2.532-20.218,0-21.818,0-21.818l8.488,21.818-1.068-35.952s13.323,33.208,13.578,32.51,2.176-8.263,2.176-8.263,3.059,11.653,4.138,10.351,10.01-41.476,10.01-41.476l-2.143,43.789,8.031-28.987v34.594l16.7-23.246-13.719,40.012Z" transform="translate(-6462.984 -908.244)"/>
    <path id="Path_8162" data-name="Path 8162" class="cls-1" d="M6080.741,1074.128s-4.765-14.7-3.989-15.868,3.989-6.2,3.989-6.2l1.916,6.2v-8.86l5.193-4.423v9l2.587-11.094,4.538-3.7v5.8l3.771-7.919,8.607-5.231-1.593,11.056-7.015,4.909h4.709v4.263l-10.217,4.408,9-2.486-1.7,5.92-10.107,3h8.31l-2.446,6.322-13.644,4.907S6071.542,1106.766,6080.741,1074.128Z" transform="translate(-5645.482 -866.234)"/>
    <path id="Path_8163" data-name="Path 8163" class="cls-1" d="M6540.838,1155.272l-41.854-35.334s43.564,26.919,41.854,24.067-41.854-47.771-41.854-47.771,44.572,37.7,44.246,34.613-9.937-22.679-9.937-22.679l22.283,22.679-1.554-44.4s19.377,41.009,19.747,40.148,3.165-10.2,3.165-10.2,4.449,14.391,6.019,12.783,14.56-51.221,14.56-51.221l-3.115,54.076,11.681-35.8v42.721l24.287-28.707-19.954,49.412Z" transform="translate(-6367.208 -927.106)"/>
    <path id="Path_8164" data-name="Path 8164" class="cls-1" d="M19.307,0,17.671,6.445l-2.384-.472,1.942,1.978-.724,2.02h-2.13l.911,1.847a15.913,15.913,0,0,1-4.955,6.938C6.51,21.9,0,24.408,0,24.408l5.1-12.59H8.251L6.891,9.276l1.36-1.325,2.594.568L9.095,6.445Z" transform="matrix(0.035, 0.999, -0.999, 0.035, 406.604, 178.328)"/>
    <path id="Path_8168" data-name="Path 8168" class="cls-1" d="M6077.773,777.367l-4.457,19.826-2.434-19.826-10.6-29.565Z" transform="translate(-4530.913 -561.668)"/>
    <path id="Path_8169" data-name="Path 8169" class="cls-1" d="M6147.661,805.95c-3.851-1.315-40.171-22.924-40.171-22.924l10.578,11.458Z" transform="translate(-4589.008 -576.668)"/>
    <path id="Path_8170" data-name="Path 8170" class="cls-1" d="M7269.721,934.812l-4.646-18.529s-3.134,24.856-4.1,18.529S7258.5,908.4,7258.5,908.4s-5.809,25.563-5.98,23.581-6.472-23.581-6.472-23.581-7.027,36.542-7.29,23.581,3.581-43.018,3.581-43.018l-16.824,39.353V908.4s-13.7,20.06-13.778,17.417,13.778-36.855,13.778-36.855-26.534,39.734-26.631,36.855,2.9-24.557,2.9-24.557l-18.924,20.414,4.639,13.137,65.018,9.1Z" transform="translate(-6745.439 -697.668)"/>
    <path id="Path_8172" data-name="Path 8172" class="cls-1" d="M7269.721,934.812l-4.646-18.529s-3.134,24.856-4.1,18.529S7258.5,908.4,7258.5,908.4s-5.809,25.563-5.98,23.581-6.472-23.581-6.472-23.581-7.027,36.542-7.29,23.581,3.581-43.018,3.581-43.018l-16.824,39.353V908.4s-13.7,20.06-13.778,17.417,13.778-36.855,13.778-36.855-26.534,39.734-26.631,36.855,2.9-24.557,2.9-24.557l-18.924,20.414,4.639,13.137,65.018,9.1Z" transform="translate(-6944.439 -710.668)"/>
    <path id="Path_8173" data-name="Path 8173" class="cls-1" d="M0,.156,5.463,20.017S7.889,2.006,8.638,6.591s1.917,19.138,1.917,19.138,4.5-18.523,4.629-17.087,5.01,17.087,5.01,17.087S25.633-.75,25.836,8.642s-2.772,31.171-2.772,31.171L36.087,11.3V25.729S46.7,11.193,46.753,13.108,36.087,39.813,36.087,39.813,56.627,11.022,56.7,13.108,54.455,30.9,54.455,30.9L69.1,16.11,65.512,6.591,15.184,0Z" transform="translate(1397.717 229.747) rotate(167)"/>
    <path id="Path_8174" data-name="Path 8174" class="cls-1" d="M704.986,909.578l-5.117,9.765-6.883-12.412-8.764,10.624-2.073-10.624-8.413,10.624-9.081-15.8-4.981,15.8v-15.8s-9.606,16.053-10.669,15.8-4.707-5.948-4.707-5.948l-6.683,10.683-5.051-4.735L627,926.583l-7.1-4.294-8.984,13.022-45.783,10.2-98.93-10.2V917.555l-6.248,13.4v-19.35l-5.734,14.976-11.068-35.345,3.483,35.345L434.5,911.607l4.69,14.976-10.543-9.028v13.4l-6.728-4.374v18.931l134.633,6.9,125.6-21.457,22.837,4.355Z" transform="translate(773.441 -704.668)"/>
    <path id="Path_9404" data-name="Path 9404" class="cls-1" d="M0,0,327.831-3.722,581.248,8.712l48.335-7.059,58.7-14.883L704.5-7.336l4.733,8.99,52.8,3.974,49.19,7.412,76.875-4.327,61.36,4.327,48.969-4.327,87.832,4.327L1124.3,8.712s19.5-5.383,30.415-5.383c311.862,0,92.728-3.329,92.728-3.329l29.392,3.329L1307.949,0l423.265-7.336,56.1,10.666,77.011,2.3L1920,0V34H0Z" transform="translate(7.428 222.332)"/>
  </g>
</svg>
