<svg xmlns="http://www.w3.org/2000/svg" xmlns:xlink="http://www.w3.org/1999/xlink" width="359" height="311" viewBox="0 0 359 311">
  <defs>
    <clipPath id="clip-path">
      <path id="Path_101" data-name="Path 101" d="M0,0H1920V311H0Z" transform="translate(0 153)" fill="#eaeaea"/>
    </clipPath>
    <clipPath id="clip-Custom_Size_1">
      <rect width="359" height="311"/>
    </clipPath>
  </defs>
  <g id="Custom_Size_1" data-name="Custom Size – 1" clip-path="url(#clip-Custom_Size_1)">
    <g id="Mask_Group_1" data-name="Mask Group 1" transform="translate(0 -153)" clip-path="url(#clip-path)">
      <g id="testimonial-illustration" transform="translate(9.785 136.808)">
        <g id="man" transform="translate(-2.338 0)">
          <g id="Face" transform="translate(51.227)">
            <path id="ear" d="M.031,1.034s4.267-2.1,4.4-.307c.339,4.693-1.566,20.349-1.8,23.077S1.509,27.158.65,22.868.031,1.034.031,1.034Z" transform="translate(77.722 58.415) rotate(4)" fill="#d5ac93"/>
            <path id="ear-2" data-name="ear" d="M2.245,26.4S6.73,31.881,9.32,27.45,6.5,2.171,6.234,1.378,1.77-2.267.082,3.7c-.341,1.206.5,3.27.485,5.4A124.894,124.894,0,0,0,2.245,26.4Z" transform="matrix(-0.999, 0.035, -0.035, -0.999, 22.453, 89.566)" fill="#c8997d"/>
            <path id="neck" d="M3471.574,4953.438l-.922,12.716s6.222,19.647,7.435,20.9,5.8,8.413,5.8,8.413,4.329,5.664,5.375,5.976,11.1,11.423,12.73,10.123,16.223-22.264,18.191-24.511,7.168-13.073,7.023-17.436-5.952,1.234-5.841-10.4S3520.591,4951.67,3471.574,4953.438Z" transform="translate(-3447.021 -4854.34)" fill="#b2886f"/>
            <path id="neck-2" data-name="neck" d="M3524.579,4987.586c1.968-2.248,7.168-13.073,7.023-17.436s-11.182-1.345-11.072-12.975a85.784,85.784,0,0,0-.385,18.427C3520.963,4983.6,3523.634,4988.665,3524.579,4987.586Z" transform="translate(-3451.414 -4854.866)" fill="#c39e88"/>
            <path id="Path_2" data-name="Path 2" d="M81.307,111.109s-.586,9.733.9,10.626,1.558.939,1.558.939v1.506s-6.415-1.6-6.538-1.811-1.244-2.337-1.1-3.012,3.585-7.939,3.585-7.939Z" transform="translate(-6.804 -9.931)" fill="#c39e88"/>
            <path id="Path_3" data-name="Path 3" d="M23.174,90.442S24.6,102.45,25.8,104.061s12.817,12.56,15.41,13.961,11.822,6,18.318,3.851,15.8-12.494,16.818-15.576,3.253-17.5,2.46-32.037,2.526-22.981-4.05-25.813S51.78,40.1,39.542,41.152,27.1,35.574,23.174,44.188s-2.631,24.2-1.924,27.031S23.174,90.442,23.174,90.442Z" transform="translate(-1.829 -3.548)" fill="#c8997d"/>
            <path id="Path_4" data-name="Path 4" d="M81.238,107.152c1.02-3.082,3.253-17.5,2.46-32.037s2.526-22.981-4.05-25.813c-2.691-1.159.44,18.226,0,36.358.8,18.594-4.474,29.35-4.474,29.35S80.289,109.722,81.238,107.152Z" transform="translate(-6.719 -4.402)" fill="#d5ac93"/>
            <path id="hair" d="M.434,53.441c1.1-.944.46-4.047,4.2-10.534.93-2.409,9.082-5.123,8.735-9.636.92-2.66.315-9.969,3.551-11.432,6.363-4.142,27.64,28.668,36.424,29.23s7.306-8.619,3.6.629S53.714,67.377,51.3,73.31c-.012.031,4.993-7.505,5.283-7.276-.054.337-1.917.408,7.651-13.22,11.4-16.243,6.9-25-1.824-33.708S19.917-3.186,17.875.675c-.849,1.606-2.415,5.974-8.294,7C.726,11.13.994,21.159.127,24.273c-.722,2.591,1.9,8.038,1.087,13.824C.422,43.7-.453,54.2.434,53.441Z" transform="translate(0 28.897) rotate(-24)"/>
            <path id="Path_10" data-name="Path 10" d="M.315.144C-1.927-2.118,7.908,22.968,26.144,25.923a22.733,22.733,0,0,1-10.012-4.763,42.957,42.957,0,0,1-7.816-8.518C4.794,7.261,2.621,2.192.315.144Z" transform="matrix(0.94, -0.342, 0.342, 0.94, 37.856, 40.624)"/>
            <path id="hair-2" data-name="hair" d="M2.112,34.22c8.784.562,7.306-8.619,3.6.629S2.482,50.529.064,56.463c-.012.031,5.283-7.276,5.283-7.276S3.431,49.594,13,35.966c11.4-16.243,7.429-24.491-1.291-33.2C2.637-5.665,6.842,7.087,4.382,15.439,1.671,24.641-2.605,33.919,2.112,34.22Z" transform="translate(53.656 23.451) rotate(-24)" fill="#2e2c2c"/>
          </g>
          <g id="belt" transform="translate(23.692 312.668)">
            <path id="Path_11" data-name="Path 11" d="M4013.219,5248.181s-4.054,19.149-4.8,33.7-1.955,26.482-1.955,26.482H4138.4s1.162-26.033,1.532-30.477,5.5-15.962,1.6-18-22.114-5.542-42.8-5.249-47.667,2.666-58.32,0S4013.219,5248.181,4013.219,5248.181Z" transform="translate(-4006.464 -5248.181)" fill="#f0cf85"/>
            <path id="Path_12" data-name="Path 12" d="M4017.578,5249.875s8.754,6.8,17.54,9.235c3.646,1.01,32.363,6.9,53.565,7.706,29.339,1.119,57.356-4.17,57.356-4.17s-2.288-10.212-3.823-10.212S4017.578,5249.875,4017.578,5249.875Z" transform="translate(-4007.457 -5248.333)"/>
            <path id="Path_13" data-name="Path 13" d="M4026.784,5256.667a68.057,68.057,0,0,0,21.006,6.845c11.509,1.6,37.977,6.531,43.924,6.33,3.414-.116,7.647-.731,12.133-.864,2.853-.084,25.958-2.436,25.958-2.436" transform="translate(-4008.28 -5248.94)" fill="none" stroke="#e5c57f" stroke-width="1"/>
            <path id="Path_14" data-name="Path 14" d="M4134.371,5260.12s.291.085.469,1.121c.144.837.733,9.09.733,9.09l-.136.555a6.271,6.271,0,0,0,1.468,0,2.325,2.325,0,0,0,1-.414l-1.391-10.057Z" transform="translate(-4017.896 -5249.249)" fill="#e5c57f"/>
            <path id="Path_15" data-name="Path 15" d="M4087.543,5213.625a12.717,12.717,0,0,0-.4,3.829v4.924a5,5,0,0,0,4.215,2.828,23.131,23.131,0,0,0,3.133-.021,54.851,54.851,0,0,0,11.078-2l.139-.439-15.983-.372v-8.586Z" transform="translate(-4012.764 -5204.115)" fill="#b5afae"/>
            <path id="Path_16" data-name="Path 16" d="M4135.527,5268.424l.142,2.788-.142.362-.39-3.077Z" transform="translate(-4017.965 -5249.991)" fill="#959595"/>
            <path id="Path_17" data-name="Path 17" d="M4137.556,5261.644s-.174.714-.352,1.75c-.144.837-.5,7.074-.5,7.074l.136.555a6.271,6.271,0,0,1-1.468,0,2.329,2.329,0,0,1-1-.414l1.269-8.964Z" transform="translate(-4088.014 -5251.206)" fill="#e5c57f"/>
            <path id="Path_18" data-name="Path 18" d="M4135.46,5266.543l-.323,4.5.141.362.369-4.862Z" transform="translate(-4086.476 -5251.644)" fill="#959595"/>
            <path id="Path_19" data-name="Path 19" d="M4099.166,5236.443s2.313,24.781,2.248,29.106c-.056,3.736-.015,6.127,0,7.805,0-.065,0,1.121,0,1.121a5.157,5.157,0,0,0,2.493-.363c2.142-.9,5.575-3.107,6.225-6.02.928-4.156-.577-7.286-.687-13.324s0-19.719,0-19.719l-4.855,1.395Z" transform="translate(-4020.213 -5214.673)" fill="#f0cf85" stroke="#e5c57f" stroke-width="1" opacity="0.676"/>
            <path id="Path_20" data-name="Path 20" d="M4017.5,5256.354c-2.344-4.454.357,20.209,5.937,29.079s2.054,23.132,2.054,23.132l66.993.277,45.32.187.552-18.091,7.486-30.1a34.99,34.99,0,0,1-26.26,16.888c-18.683,2.2-32.972,4.769-22.6,9.589s28.284,2.518,22.6,7.6-23.722,18.912-53.126,0S4019.839,5260.808,4017.5,5256.354Z" transform="translate(-4007.374 -5248.864)" fill="#d5b877" opacity="0.431"/>
          </g>
          <g id="Shirt" transform="translate(0 105.45)">
            <path id="Path_21" data-name="Path 21" d="M4012.766,5124.77c1.386,10.251,4.92,77.615,0,86.192s-6.8,10.729-4.426,13.82-6.35,5.492,4.426,10.352,17.374,11.126,41.178,10.568,24.8-2.01,34.659,0,14.119-.25,29.61,0,32.955,11.574,32.661-6.95.992-34.329,0-46.889,3.821-18.013,4.862-34.691-4.109-44.031-42.685-49.221-51.973-5.9-65.463-3.442S4012.766,5124.77,4012.766,5124.77Z" transform="translate(-3982.84 -5028)" fill="#166cac"/>
            <path id="Path_22" data-name="Path 22" d="M4014.46,5214.352c-.7,1.92-.417,3.889-1.352,5.9-1.606,3.463-5.651,13.135-4.767,14.286,2.372,3.091-6.35,5.492,4.426,10.352s17.374,11.126,41.178,10.568,24.8-2.01,34.659,0,14.119-.25,29.61,0,32.955,11.574,32.661-6.95S4017.86,5205.03,4014.46,5214.352Z" transform="translate(-3982.84 -5037.759)" fill="#1b6ca8" opacity="0.641"/>
            <path id="Path_23" data-name="Path 23" d="M4015.082,5214.446c-.7,1.92.123-1.108-.812.906-1.606,3.463,21.2,17.636,45,17.078,8.284-.194,22.929-1.379,37.707,0,27.1,2.529,56.062,7.075,55.871-5C4152.657,5215.387,4016.271,5211.183,4015.082,5214.446Z" transform="translate(-3983.462 -5037.853)" fill="#154b72" opacity="0.641"/>
            <path id="Path_24" data-name="Path 24" d="M4157.381,5040.046c4.278,9.44,2.213,5.857,4.557,16.23s4.366,17.608,4.258,25.88,2.151,20.8,2.151,20.8,28.858-47.9,29.832-57.81-3.688-53.49-5.484-62.095-10.588-22.26-15.972-24.03-53.532-22.731-53.532-22.731-1.419,14.813-7.173,22.731-17.7,10.5-18.247,19.545-29.9-44.151-33.23-42.277-19.649,8.862-24.774,10.961-34.762,15.052-39.21,20.938-8.749,28.439-9.07,49.455,1.309,41.262,5.4,54.54,9.079,27.713,13.295,30.771,6.65,6.265,33.528,5.155c31.179-3.724,14.177-27.178,11.544-31.689s-14.709-9.109-15.488-11.908-16.171-24.865-9.409-40.417,31.647-17.034,63.16-3.762,34.445,6.75,41.741,5.905S4153.1,5030.606,4157.381,5040.046Z" transform="translate(-3991.446 -4929.305)" fill="#1b6ca8"/>
            <path id="Path_25" data-name="Path 25" d="M4086.459,4956.683a77.6,77.6,0,0,0,5.224,7.674,14.219,14.219,0,0,0,1.826,1.924c1.008.833,2.819,4.8,5.744,8.41,4.449,5.487,2.611,9.107-1.783,3.455-4.074-4.2-11.464-9.5-13.244-9.479-4.073.055-10.85,11.667-9.679,4.874S4086.459,4956.683,4086.459,4956.683Z" transform="translate(-3998.862 -4931.132)" fill="#155787"/>
            <path id="Path_26" data-name="Path 26" d="M4072.869,4932.007c.361-.1-.2,2.832,1.606,6.795.853,1.878,16.219,23,22.287,29.616s6.888,12.57,7.025,15.4c0,.085-18.944-28.482-23.75-21.775s-1.93,15.638-6.16,14.266-7.975-26.527-7.333-31.138S4071.787,4932.309,4072.869,4932.007Z" transform="translate(-3998.152 -4928.926)" fill="#1b6ca8" stroke="#19649b" stroke-width="1"/>
            <path id="Path_28" data-name="Path 28" d="M3996.044,5079.247c-.52-2.636,11.47,22.985,15.322,24.981s38.252,20.766,55.654,7.919,17.573,14.77,17.554,16.061c-.022,1.589-20.575.67-20.575.67s-14.178-2.332-28.481-5.189c-5.865-1.172-11.476-2.982-16.686-3.9-6.227-1.8-9.224-4.766-9.988-5.993C4002.455,5106.022,3998.947,5093.973,3996.044,5079.247Z" transform="translate(-3991.855 -4942.07)" fill="#196095"/>
            <path id="Path_30" data-name="Path 30" d="M4093.268,4956.683a77.525,77.525,0,0,1-5.224,7.674,14.219,14.219,0,0,1-1.826,1.924c-1.009.833-2.836,4-5.76,7.612-4.449,5.487,6.867-4.239,12.131-2.853,2.673,1.6,4.991,6.579,6.873,8.306.45.451,3.138,1.77,3.285-.37C4103.258,4971.519,4093.268,4956.683,4093.268,4956.683Z" transform="translate(-3967.439 -4932.042)" fill="#196095"/>
            <g id="Group_1" data-name="Group 1" transform="translate(85.475)">
              <path id="Path_31" data-name="Path 31" d="M4402.249,5242.378c-.108-.1-6.792,1.494-9.437-3.371S4402.357,5242.475,4402.249,5242.378Z" transform="translate(-4355.896 -5047.292)" fill="#f8c59f"/>
              <path id="Path_32" data-name="Path 32" d="M4402.249,5242.378c-.108-.1-6.792,1.494-9.437-3.371S4402.357,5242.475,4402.249,5242.378Z" transform="translate(-4359.539 -5049.113)" fill="#cca78b"/>
              <path id="Path_33" data-name="Path 33" d="M4103.246,5189.3a33.424,33.424,0,0,0,8.993-1.586c5.793-1.55,9.856-3.166,12.778-3.583,1.628-.4,3.744.773,13.305,4.417s7.97,2.357,7.636,8.568-20.563-2.473-20.563-2.473l13.114,12.445,7.449,9.416,10.365,4.368a10.629,10.629,0,0,1-4.741,3.831,53.514,53.514,0,0,1-8.658,1.4s-7.964.878-8.688,4.144,2.779,6.3.84,6.913c-.752.239-1.932-.663-3.818-1.483-2.317-1.005-5.442-2.23-5.442-2.23s-17.508-13.859-21.5-16.329c-1.788-1.106-7.775-5.372-7.748-11.926C4096.6,5197.675,4101.933,5189.375,4103.246,5189.3Z" transform="translate(-4076.3 -5035.231)" fill="#be8d70"/>
              <path id="Path_34" data-name="Path 34" d="M4096.406,5073.952l-1.575,103.579Z" transform="translate(-4076.145 -5025.391)" fill="#166cac" stroke="#196095" stroke-width="1"/>
              <path id="Path_35" data-name="Path 35" d="M4097.252,5198.873a61.4,61.4,0,0,0,1.366,17.356c.056,2.165,5.835,3.25,3.633,3.758a21.4,21.4,0,0,1-4.811.535c.106,0-11.5,1.245-15.632,1.288-.244,0-2.955.3-3.429,0-3.7-2.181-5.3-22.837-3-28.861,2.435-6.4,21.9-5.435,23.837-4.945s4.2,1.047,4.2,1.047S4097.617,5190.04,4097.252,5198.873Z" transform="translate(-4074.311 -5035.552)" fill="#166cac" stroke="#196095" stroke-linecap="round" stroke-linejoin="round" stroke-width="1"/>
              <path id="Path_36" data-name="Path 36" d="M4118.748,5020.624c-.737.017-.3.991-.325,3.984.38,1.975.626,2.186,1.557,2.681a2.873,2.873,0,0,0,1.472.431C4123,5027.7,4119.937,5020.6,4118.748,5020.624Z" transform="translate(-4078.244 -5020.624)"/>
              <path id="Path_37" data-name="Path 37" d="M4096.818,5072.745c-.733.7-.987-7.5,4.7-12.818s13.021-12,15.578-16.127,3.375-14.776,2.081-18.211a14.6,14.6,0,0,0-2.363-4.552s5.14,5.1,6.632,7.942,2.335,19.942,2.377,24.043,1.559,12.712,0,14.872-6.139-13.619-10.576-11.473-6.294,3.788-8.78,5.265S4097.551,5072.043,4096.818,5072.745Z" transform="translate(-4076.288 -5020.661)" fill="#1b6ca8" stroke="#196095" stroke-linecap="round" stroke-linejoin="round" stroke-width="1"/>
              <path id="Path_38" data-name="Path 38" d="M4100.735,5214.842s.979.679,3.179,2.063a33.2,33.2,0,0,1,3.226,2.332c1.122.907,2.811,4.136,4.463,5.4,2.608,1.993,13.1,8.879,19.524,11.188a3.035,3.035,0,0,1,.837.273c.766.455,1.288,1.331,1.518,1.188,3.3-2.036,13.481-9.21,9.691-15.908s-25.862-12.981-29.437-18.246-1.827-11.893,3.542-11.838,26.946,9.152,25.9,4.13-14.621-9.171-16.964-8.759-22.571,3.594-22.811,4.091a9.022,9.022,0,0,0-2.663,3.772,21.608,21.608,0,0,0-.624,8.6c.106.81-.051,2.609,0,4.045a52.148,52.148,0,0,0,.624,5.922C4101.171,5215.994,4100.735,5214.842,4100.735,5214.842Z" transform="translate(-4076.602 -5035.462)" fill="#be8d70"/>
              <path id="Path_39" data-name="Path 39" d="M4088.124,5216.755c3.671,3.828,10.432,4.669,10.432,4.669s-5.142.5-9.805.9c-3.887.335-8.211.8-9.275.417-.79-.047-1.917-2.29-2.5-5.985-.632-4.016-1.429-9.694-1.083-11.419C4076.029,5205.081,4084.333,5212.564,4088.124,5216.755Z" transform="translate(-4074.444 -5038.043)" fill="#196095"/>
              <path id="Path_40" data-name="Path 40" d="M4396.179,5231.5c1.589-.467,2.291-.875,2.545-4.659s1.578-4,3.943-4.846-.406-5.645,1.211-5.838c.62-.073,2.515-.891,4.436,0,2.537.7,3.925,5.324,9.84,8.892,4.612,1.913,9.078,1.117,10.466,3.075.379.535-5.384,4.429-5.384,4.429s-4.692,9.323-7.549,9.271c-1.722-.032-9.436-.72-14.077-3.277C4398.966,5237.09,4394.589,5231.966,4396.179,5231.5Z" transform="translate(-4351.648 -5039.885)" fill="#a77f68"/>
            </g>
            <path id="Path_42" data-name="Path 42" d="M1200.439,5294.168c1.512,1.123,3.1,2.3,3.1,2.3s.439-1.531-.308-1.979-4.217-2.718-4.217-2.718A3.008,3.008,0,0,0,1200.439,5294.168Z" transform="translate(-1089.222 -5112.245)" fill="#184565"/>
            <path id="Path_43" data-name="Path 43" d="M24.01,71.032s15.124,30.436,17.708,57.849,35.941,34.137,35.941,34.137l-6.742,3.513-5.343-1.085L55.044,162.11,47.175,158.5s-6.149-3.4-11.543-6.814c.058-.412-2.706-1.469-3.463-3.1a6.925,6.925,0,0,1-.353-3.193c.041-.645.359-1.813,0-2.336-1.648-2.394.141-12.839-1.121-17.339-.483-1.723.115-3.623,0-5.825-.251-4.746-.382-9.622-.382-9.622L29.5,98.4,27.064,79.665Z" transform="translate(15.464 -9.991)" fill="#196095"/>
          </g>
          <path id="Path_44" data-name="Path 44" d="M4085.991,5155.169s.129,1.062,0,7.531" transform="translate(-3982.594 -4863.457)" fill="none" stroke="#134c76" stroke-linecap="round" stroke-width="1"/>
          <path id="Path_45" data-name="Path 45" d="M4183.246,5001.133a263.038,263.038,0,0,0,0,52.3c.583,5.32.021-19,1.821-42.841,1.125-14.909,3.972-30.3,6.119-37.345C4188.449,4973.407,4184.972,4990.438,4183.246,5001.133Z" transform="translate(-4011.204 -4813.157)" fill="#196095"/>
          <g id="Group_2" data-name="Group 2" transform="translate(33.4 166.494)">
            <path id="Path_46" data-name="Path 46" d="M50.128,266.867s-5.678,11.689-5.912,18.425-4.639,6.564-3.259,0S50.128,266.867,50.128,266.867Z" transform="translate(-35.818 -190.347)" fill="#196095"/>
            <path id="Path_47" data-name="Path 47" d="M9.812,0S3.947,6.674,3.437,10.316s-4.664,3.846-3.079.22S9.812,0,9.812,0Z" transform="matrix(0.891, 0.454, -0.454, 0.891, 5.971, 72.571)" fill="#196095"/>
            <path id="Path_48" data-name="Path 48" d="M40.689,182.836s3.549,7.571,4.9,20.188c2.028,18.935,3.095,57.385,3.095,57.385A90.267,90.267,0,0,0,66.34,271.593a122.353,122.353,0,0,0,21.741,7.253" transform="translate(-34.907 -182.836)" fill="none" stroke="#196095" stroke-linecap="round" stroke-width="1"/>
            <path id="Path_49" data-name="Path 49" d="M4085.878,5164.04c.985,8.174-.983,14.754-1.15,18.846a7.883,7.883,0,0,0,.293,3.52" transform="translate(-4015.878 -5030.744)" fill="none" stroke="#196095" stroke-linecap="round" stroke-width="1"/>
            <path id="Path_50" data-name="Path 50" d="M139.016,212.984s8.292.231,16.919,0,17.056-.924,17.056-.924" transform="translate(-45.517 -185.448)" fill="none" stroke="#19649b" stroke-linecap="round" stroke-width="1"/>
            <path id="Path_51" data-name="Path 51" d="M136.65,214.309s8.242.322,16.756,0,17.766-1.287,17.766-1.287a64.943,64.943,0,0,0-15.833,4.559c-7.888,3.507-16.479.653-17.2-.747A28.145,28.145,0,0,0,136.65,214.309Z" transform="translate(-43.484 -185.534)" fill="#196095"/>
            <path id="Path_52" data-name="Path 52" d="M.44-.079c.851-1.078,1.581-1.078,2.432,0s.679,3.415.679,3.415H-.132S-.411,1,.44-.079Z" transform="translate(98.354 23.848)" fill="#292121"/>
            <path id="Path_53" data-name="Path 53" d="M142.2,211.177a17.338,17.338,0,0,0,2.075.161,7.11,7.11,0,0,0,1.587-.161s-.939.92-3.236.229" transform="translate(-43.98 -185.369)" fill="#ccc"/>
            <path id="Path_54" data-name="Path 54" d="M.837.1h.745a87.543,87.543,0,0,1,0,9.573c-.1.749-.494,1.667-.727,0A88.285,88.285,0,0,1,.837.1Z" transform="translate(99.082 25.877)" fill="#b5b5b5"/>
            <path id="Path_55" data-name="Path 55" d="M144.527,210.4c-.291,8.314.188,6.544.25,6.544a47.694,47.694,0,0,0-.066-6.544" transform="translate(-44.18 -184.389)" fill="#f5f5f4"/>
            <path id="Path_56" data-name="Path 56" d="M9.438,23.413S3.76,11.724,3.526,4.988s-4.639-6.564-3.259,0S9.438,23.413,9.438,23.413Z" transform="matrix(0.829, 0.559, -0.559, 0.829, 144.264, 47.653)" fill="#196095"/>
            <path id="Path_57" data-name="Path 57" d="M8.132,15.574S3.24,7.8,3.038,3.318s-4-4.366-2.808,0S8.132,15.574,8.132,15.574Z" transform="translate(145.476 57.164) rotate(49)" fill="#196095"/>
          </g>
          <path id="Path_58" data-name="Path 58" d="M75.768,64.071c-.01,1.263.929,26.609,3.312,36.055s4.262,9.843,2.588,14.621S77.306,129.173,74.56,131.9s-31.522,8.766-38.7,8.554-9.65-.771-4.05-3.52S71.319,119.3,71.319,119.3a53.265,53.265,0,0,1,3.007-4.919c.86-1.02,1.227-.407,1.227-.407l.541-7.21a3.558,3.558,0,0,1-.541-.648,3.288,3.288,0,0,1-.328-.756L74.9,104.1c-.5-.724-2.055-12.54-2.055-12.54s1.41,1.771-.8,3.328a3.071,3.071,0,0,1-3.736-.2,1.773,1.773,0,0,1-.448-.542S66.03,88.05,64.775,82.3a77.54,77.54,0,0,1-1.525-9.437c-.01-2.184.036-3.682.915-5.172a2.536,2.536,0,0,1,3.407-1C68.208,67.235,75.768,64.071,75.768,64.071Z" transform="translate(-0.439 -5.727)" opacity="0.188"/>
        </g>
        <g id="woman" transform="translate(112.778 43.758)">
          <g id="woman-2" data-name="woman" transform="translate(0 27.259)">
            <path id="Path_59" data-name="Path 59" d="M4228.04,5011.617s-4.31.331-4.615-1.027-.857-9.518.055-11.425,10.716-.21,10.716-.21" transform="translate(-4122.704 -4980.55)" fill="#c4e0e8" stroke="#000" stroke-width="2"/>
            <path id="Path_60" data-name="Path 60" d="M4232.3,4982.812s-7.53,11.465-7.281,12.927a21.741,21.741,0,0,0,.426,3.044c.438,1.657,1.148,3.812,0,6.046-1.774,3.454-5.612,9.685-4.074,15.3s4.486,13.761,4.074,18.042-4.792,10.395,6.854,13.39c.968.31,7.375-.344,10.2,2.95,4.534,5.292,6.1,16.023,6.339,17.862.475,3.736,28.207-10.532,34.634-12.387s16.911-24.589,19.814-29.49S4232.3,4982.812,4232.3,4982.812Z" transform="translate(-4117.064 -4982.812)" fill="#fad8c0"/>
            <path id="Path_61" data-name="Path 61" d="M4246.186,5049.753c4.468,7.484,4.469,20.937,4.7,22.776.475,3.736,27.7-10.593,34.126-12.448s-35.757-70.59-32.854-75.491c1.968-3.323,16.425,5.91-5.306,13.394-4.921,1.7-8.683,13.376-8.52,24.537A57.7,57.7,0,0,0,4246.186,5049.753Z" transform="translate(-4118.612 -4982.909)" fill="#d6ab92"/>
            <path id="Path_62" data-name="Path 62" d="M4222.846,5002.222l34.616,1.21" transform="translate(-4122.692 -4980.904)" fill="none" stroke="#000" stroke-width="2"/>
            <path id="Path_64" data-name="Path 64" d="M1612.786,5163.45s17.911-19.656,29.227-22.279,23.628-2.366,32.75,2.569,14.47,12.333,14.763,17.3,18.309,14.868,18.484,42.307-10.1,55.216-23.463,91.95c-6.146,16.9-7.555,40.646-6.259,50.87a89.072,89.072,0,0,1,0,21.39h-104.6Z" transform="translate(-1491.89 -5064.205)" fill="#d58498"/>
            <path id="Path_65" data-name="Path 65" d="M1637.166,5222.976s13.39-42.126,19.268-34.769,12.3,32.778,22.7,18.663,18.293-2.6,11.223,60.968c-1.848,16.613-9.513,52.443-11.223,76.926-1.145,16.395,0,26.233,0,26.233h-87.686l6.951-90.346Z" transform="translate(-1493.478 -5068.479)" fill="#d58498"/>
            <path id="Path_66" data-name="Path 66" d="M3663.9,5021.181a15.554,15.554,0,0,1,11.691,5.081c4.88,5.5,24,14.815,39.415,5.41s7.168-26.234,6.119-26.234S3663.9,5021.181,3663.9,5021.181Z" transform="translate(-3509.059 -4866.454)" fill="#c47588"/>
            <path id="Path_67" data-name="Path 67" d="M4385.941,5195.007s2.7-3.956,6.013-5,14.39-2.051,16.959-.7,10.875,6.276,13.307,6.938,20.979,6.278,20.979,6.278l-.76,24.734s-20.26-12.552-23.159-16.3-13.423-8.79-13.717-11.049-6.787-2.208-9.447-2.466-2.992,1.277-4.162,1.386a7.346,7.346,0,0,1-4.357-.965A5.424,5.424,0,0,1,4385.941,5195.007Z" transform="translate(-4385.869 -5001.211)" fill="#ffeadb"/>
            <path id="Path_68" data-name="Path 68" d="M4412.148,5202.776c-.857-1.193-7.6-10.928,2.818-1.39,3.836,3.558,30.04,11,30.04,11v15.464s-8.027-4.129-15.743-9.176c-2.908-1.9-5.627-4.423-8.136-6.289C4414.854,5207.724,4413.848,5205.139,4412.148,5202.776Z" transform="translate(-4387.948 -5001.977)" fill="#f7c5a8"/>
            <path id="Path_69" data-name="Path 69" d="M4390.409,5196.288c2.639-1.09,3.17-1.431,5.393-1.765s11.63,1.067,13.3,3.685c.323.505,9.581,13.6,9.581,13.6s-11.556-8.855-12.876-10.741-4.471-2.123-5.9-2.767-5.331.812-8.3,1.218-5.319-1.05-5.705-3.229S4387.771,5197.378,4390.409,5196.288Z" transform="translate(-4385.861 -5001.73)" fill="#f7c5a8"/>
            <path id="Path_70" data-name="Path 70" d="M4452.361,5241.95V5258.4s12.5,9.659,13.4,7.151,8.712-46.542,8.712-46.542l11.929-71.751-9.256-1.97s-10.77,14.37-11.385,15.418-9.556,15.464-9.556,15.464l-3.849,31.311Z" transform="translate(-4391.805 -4997.334)" fill="#d58498"/>
            <path id="Path_71" data-name="Path 71" d="M1627.614,5202.012c9.524.524.327,141.972,58.574,93.068-11.656,36.784-7.225,77.253-7.225,77.253s-101.408,1.62-100.224,0S1627.614,5202.012,1627.614,5202.012Z" transform="translate(-1492.341 -5069.79)" fill="#c47588"/>
            <path id="Path_72" data-name="Path 72" d="M4477.661,5141.233s-32.488,35.28-33.783,66.588c-5.5,23.284-14.442,58.523-14.967,74.945a67.649,67.649,0,0,0-.3,15.988l15.3.143c16.941.158,42.763-.127,42.872-4.349.038-1.479-25.974-41.372-26.851-46.8-1.275-7.907-3.361-16.455-6.08-30.532C4448.232,5190.184,4477.661,5141.233,4477.661,5141.233Z" transform="translate(-4389.652 -4996.972)" fill="#c47588"/>
            <path id="Path_73" data-name="Path 73" d="M59.179.081c15.63-3.495-9.884,106.994-25.745,144.512-.252.6-.586,1.363-.915,2.095C16.856,181.506-1.128,171.018.055,169.4S59.179.081,59.179.081Z" transform="matrix(0.998, 0.07, -0.07, 0.998, 87.495, 122.243)" fill="#a26372"/>
            <path id="Path_74" data-name="Path 74" d="M4152.354,5265.473s-8.268,3.633-9.219,0a40.453,40.453,0,0,0-3.372-8.222c-1-2.043-.062-3.21-1-5.763s-3.679-1.483-2.442-5.8,1.78-5.307,1.328-8.093.853-5.276,5.484-5.952,9.287-3.246,10.6-4.7,4.893-1.759,5.84,0,3.7,2.7,3.784,6.256.148,5.671,0,7.375,6.538,11.447,7.8,12.489-6.506,3.966-11.584,8.712S4152.354,5265.473,4152.354,5265.473Z" transform="translate(-4112.198 -5003.614)" fill="#ffeadb"/>
            <path id="Path_75" data-name="Path 75" d="M4152.354,5266.624s-8.268,3.633-9.219,0a40.453,40.453,0,0,0-3.372-8.222c-1-2.043-.062-3.21-1-5.763s-3.679-1.483-2.442-5.8,1.78-5.307,1.328-8.093c-.236-1.454,1.149,9.475,10.03,13.892,7.678,3.818,8.859,5.266,9.463,5.763,1.262,1.042,7.512-.225,2.433,4.521S4152.354,5266.624,4152.354,5266.624Z" transform="translate(-4112.198 -5004.765)" fill="#f7c5a8"/>
            <path id="Path_76" data-name="Path 76" d="M4282.185,5085.61s-45.028,3.984-49.3,5.592-24.954,10.254-29.1,24.121-8.139,35.645-8.861,45.614-2.769,35.147-4.73,50.153a275.559,275.559,0,0,0-2.036,30.045s-12.9-6.368-20.449-9.643c-4.008-.156-18.492,12.775-13.123,22.863,4.5,8.464,22.9,22.453,34.758,29.51a59.883,59.883,0,0,0,5.58,2.984c9.863,4.469,16.936-6.369,22.376-15.985s1.7-8.871,15.588-50.911,27.624-82.841,39.949-117.249S4282.185,5085.61,4282.185,5085.61Z" transform="translate(-4112.842 -4988.879)" fill="#efa5b7"/>
            <path id="Path_77" data-name="Path 77" d="M4241.234,5092.934s18.759-14.816,47.337-14.5c18.09.2,3.536,1.315-16.615,5.569C4260.685,5086.382,4241.234,5092.934,4241.234,5092.934Z" transform="translate(-4118.872 -4991.358)" fill="#c47588"/>
            <path id="Path_78" data-name="Path 78" d="M98.86,140.57c-.809,16.461,22.741-8.419,27.642-15.675,14.21-14.944,29.079-13.274,29.128-15.046.107-3.283-23.7.961-25.663,1.706-1.127.094-10.351,3.886-18.525,9.842C104.926,126.142,99.23,133.031,98.86,140.57Z" transform="translate(-8.761 -9.708)" fill="#f0c7d1"/>
            <path id="Path_79" data-name="Path 79" d="M4156.1,5256.942c-2.475,3.9-3.825,8.752-1.522,13.08,5.368,10.088,30.284,27.843,40.147,32.313S4159.711,5251.248,4156.1,5256.942Z" transform="translate(-4112.842 -5004.545)" fill="#d58498"/>
            <path id="Path_80" data-name="Path 80" d="M82.544,277.043s-.689,16.8,1.54,20.828S82.544,277.043,82.544,277.043Z" transform="translate(-7.296 -24.762)" fill="#c47588"/>
            <path id="Path_81" data-name="Path 81" d="M.2,0S-1.183,15.858,3.3,19.657.2,0,.2,0Z" transform="translate(75.392 252.331) rotate(-19)" fill="#c47588"/>
          </g>
          <g id="finger" transform="translate(1.225 246.762)">
            <path id="Path_82" data-name="Path 82" d="M4396.212,5241.079c-.108-.1-.8,3.149-2.522-.45-1.372-2.052.548-1.881,1.11-1.605A4.382,4.382,0,0,1,4396.212,5241.079Z" transform="translate(-4393.206 -5238.86)" fill="#a88971"/>
            <path id="Path_83" data-name="Path 83" d="M4397.563,5240.952a1.569,1.569,0,0,1-1.588.778c-.529,0-2.016-.644-3.183-2.79-1.693-3.113.674-2.433,2.81-.983A10.168,10.168,0,0,1,4397.563,5240.952Z" transform="translate(-4386.743 -5232.295)" fill="#f8c59f"/>
            <path id="Path_84" data-name="Path 84" d="M4396.28,5240.872c-.108-.1-1.4,2.517-3.12-1.082-1.372-2.052.62-2.307,1.762-1.279A5.073,5.073,0,0,1,4396.28,5240.872Z" transform="translate(-4391.339 -5236.044)" fill="#cca78b"/>
            <path id="Path_85" data-name="Path 85" d="M4400.444,5242.725a5.654,5.654,0,0,1-1.876-.084c-.652-.018-.8-.161-1.289-.191l-1.761-.663c-.262-1.289-.173-2.335.7-1.744C4397.057,5240.609,4400.483,5242.759,4400.444,5242.725Z" transform="translate(-4387.026 -5232.576)" fill="#c49e82"/>
          </g>
          <g id="hair_and_ear-woman" data-name="hair and ear-woman" transform="translate(114.537)">
            <path id="Path_86" data-name="Path 86" d="M4408.5,5027.11s-4.687,2.69-2.252,2.52c1.948-.134,5.664-2.041,6.366-2.956,1.378-1.8,5.432-4.7,4.219-10.9a32.442,32.442,0,0,0-3.252-9.613Z" transform="translate(-4394.705 -4954.907)" fill="#7e695a"/>
            <path id="Path_87" data-name="Path 87" d="M4407.649,5003.448c3.4-.542,5.868.76,5.886,3.1s-3.061,18.094-7.223,21.444-4.828.263-4.828.263a7.532,7.532,0,0,0,.418-.7,19.5,19.5,0,0,0,1.063-2.5c2.109-4.009,3.242-11.943,3.346-12.137,1.42-7.926,4.2-1.138,4.218-4.809C4410.54,5006.376,4404.25,5003.99,4407.649,5003.448Z" transform="translate(-4392.521 -4954.654)" fill="#bf9881"/>
            <path id="Path_88" data-name="Path 88" d="M4121.993,4983.447C4122.164,4984.147,4121.822,4982.747,4121.993,4983.447Z" transform="translate(-4112.562 -4926.452)" fill="#2e1d1d"/>
            <path id="Path_89" data-name="Path 89" d="M4273.174,5066.464s-2.988,22.005,10.771,36.592" transform="translate(-4236.24 -4963.029)" fill="none" stroke="#2e1d1d" stroke-width="1"/>
            <path id="Path_90" data-name="Path 90" d="M4275.882,5058.287" transform="translate(-4236.506 -4962.299)" fill="none" stroke="#707070" stroke-width="1"/>
            <path id="Path_91" data-name="Path 91" d="M1619.9,5075.644s1.3,13.938,3.217,14.281,1.584-6.954,4.2-8.17S1619.9,5075.644,1619.9,5075.644Z" transform="translate(-1610.558 -5031.236)" fill="#1d0808"/>
            <path id="Path_92" data-name="Path 92" d="M1336.7,5050.136a28.769,28.769,0,0,1,15.409-19.4c13.155-6.375,32.937-14.1,49.12.357s18.668,54.6,20.829,62.951,27.706,51.7,28.072,67.65,1.583,30.9-7.72,38.722-39.064,15.763-51.9,5.713-14.237-22.406-7.164-41.272-17.566-67.215-32.957-75.788S1336.7,5050.136,1336.7,5050.136Z" transform="translate(-1336.641 -5022.877)" fill="#241818"/>
            <path id="Path_95" data-name="Path 95" d="M3596.605,4939.916c24.207-3.827,37.85,13.095,38.641,18.5s4.257,29.479-10.259,40.889-33.537,11.738-43.6,7.662-4.571-5.58-17.076-4.845-31.792-15.484-18.944-44.585c17.58-37.8.719-59.293-2.338-66.892C3542.622,4883.3,3572.4,4943.742,3596.605,4939.916Z" transform="translate(-3521.561 -4819.772)" fill="#241818"/>
            <path id="Path_96" data-name="Path 96" d="M3613.292,4895.566c6.383,14.685,27.216,49.875,24.821,61.917C3630.988,4973.816,3611.226,4890.813,3613.292,4895.566Z" transform="translate(-3528.909 -4821.161)" fill="#d3b1b1" opacity="0.157"/>
            <path id="Path_97" data-name="Path 97" d="M3573.013,5004.906c1.429-.841,12.413-19.812,13.5-38.39s-3.032-19.181-3.032-19.181a73.326,73.326,0,0,1,0,26.208C3580.864,4987.936,3573.013,5004.906,3573.013,5004.906Z" transform="translate(-3525.322 -4825.806)" fill="#151212"/>
            <path id="Path_98" data-name="Path 98" d="M3660.619,6483.82s-.652-26.18,41.876-24.879" transform="translate(-3659.729 -6458.185)" fill="none" stroke="#2e1d1d" stroke-linecap="round" stroke-width="2"/>
            <path id="Path_99" data-name="Path 99" d="M3688.492,6562.379" transform="translate(-3662.22 -6467.435)" fill="none" stroke="#2e1d1d" stroke-width="2"/>
            <path id="Path_100" data-name="Path 100" d="M23.486,64.315S15.969,81.1,20.763,100.537s6.858,25.222,1.311,36.674,6.183,13.725,10.37,10.524S47.975,89.011,43.757,80.912,23.486,64.315,23.486,64.315Z" transform="translate(-1.657 -5.615)" fill="#241818"/>
          </g>
        </g>
      </g>
    </g>
  </g>
</svg>
