<svg xmlns="http://www.w3.org/2000/svg" width="476.558" height="285.449" viewBox="0 0 476.558 285.449">
  <g id="brain-storm-illustration" transform="translate(1.204)">
    <path id="Path_8624" d="M43.564,382.136c56.1,1.37,243.061,0,243.061,0H475.354L459.3,377.6s-2.272-1.23-14.135-1.738c-48.22-2.065-125.224-6.478-200.315-6.478H54.327a126.1,126.1,0,0,0-24.7,0C7.614,371.428-1.2,382.136-1.2,382.136S30.285,381.81,43.564,382.136Z" transform="translate(0 -97.296)" fill="#605138"/>
    <g id="devpixel_illustrations-06" transform="translate(119.48 248.655)">
      <path id="Path_8324" d="M0,25.015s.589-4.859,5.374-4.123c-2.282-7.288,8.908-6.4,6.994,0,3.9-3.386,5.595-1.988,5.595-1.988s-5.816-9.718,2.65-13.693C20.171-1.93,33.349-2.077,32.76,6.389c6.552-4.932,10.086.883,10.086.883S52.122-1.046,58.6,8.745,54.845,24.2,54.845,24.2Z" transform="translate(0 0.059)" fill="#c1d55b"/>
      <path id="Path_8325" d="M75.142,17.235s7.067-4.417,8.981-1.988C81.694,10.61,87.51,7.3,90.6,10.536c3.313-4.27,8.172,4.712,5.742,10.233,4.859-.883,5.227,5.742,5.227,5.742H84.123l-18.773.442C65.277,26.879,63.51,16.352,75.142,17.235Z" transform="translate(-17.205 -2.395)" fill="#aeb864"/>
    </g>
    <g id="devpixel_illustrations-03" transform="translate(22.998)">
      <g id="Path_8199" transform="translate(54.307)">
        <path id="Path_9284" data-name="Path 9284" d="M181.308,219.014H77.212a3.425,3.425,0,0,1-3.313-3.46V3.46A3.427,3.427,0,0,1,77.212,0h104.1a3.425,3.425,0,0,1,3.313,3.46V215.48a3.443,3.443,0,0,1-3.317,3.534Z" transform="translate(-73.897)" fill="#366480"/>
      </g>
      <g id="Path_8200" transform="translate(179.387)">
        <path id="Path_9285" data-name="Path 9285" d="M345.761,122.869h-97.47c-2.5,0-4.491-2.356-4.491-5.153V5.153C243.8,2.282,245.861,0,248.291,0h97.47c2.5,0,4.491,2.356,4.491,5.153V117.642C350.252,120.586,348.264,122.869,345.761,122.869Z" transform="translate(-243.8)" fill="#366480"/>
      </g>
      <g id="Path_8201" transform="translate(301.296)">
        <path id="Path_9286" data-name="Path 9286" d="M514.379,207.971H413.6a4.373,4.373,0,0,1-4.2-4.564V4.564A4.418,4.418,0,0,1,413.6,0H514.379a4.373,4.373,0,0,1,4.2,4.564V203.48a4.4,4.4,0,0,1-4.2,4.491Z" transform="translate(-409.397)" fill="#366480"/>
      </g>
      <g id="Group_953" transform="translate(60.587 27.786)">
        <g id="Path_8203">
          <path id="Path_9287" data-name="Path 9287" d="M96.145,50.208H3.313A3.3,3.3,0,0,1,0,46.9V3.313A3.3,3.3,0,0,1,3.313,0H96.145a3.3,3.3,0,0,1,3.313,3.313V46.9a3.347,3.347,0,0,1-3.313,3.313Z" fill="#608398"/>
        </g>
        <g id="Path_8204" transform="translate(11.632 22.159)">
          <path id="Path_9288" data-name="Path 9288" d="M64.535,32.382H16.389a.581.581,0,0,1-.589-.589v-1.1a.581.581,0,0,1,.589-.589H64.535a.581.581,0,0,1,.589.589v1.1a.581.581,0,0,1-.589.589Z" transform="translate(-15.8 -30.1)" fill="#366480"/>
        </g>
        <g id="Path_8205" transform="translate(11.632 28.932)">
          <path id="Path_9289" data-name="Path 9289" d="M64.535,41.582H16.389a.581.581,0,0,1-.589-.589v-1.1a.581.581,0,0,1,.589-.589H64.535a.581.581,0,0,1,.589.589v1.1a.542.542,0,0,1-.589.589Z" transform="translate(-15.8 -39.3)" fill="#366480"/>
        </g>
        <g id="Path_8206" transform="translate(11.632 35.778)">
          <path id="Path_9290" data-name="Path 9290" d="M49.664,50.882H16.389a.581.581,0,0,1-.589-.589v-1.1a.581.581,0,0,1,.589-.589H49.664a.581.581,0,0,1,.589.589v1.1a.633.633,0,0,1-.589.589Z" transform="translate(-15.8 -48.6)" fill="#366480"/>
        </g>
        <g id="Path_8207" transform="translate(11.632 10.012)">
          <path id="Path_9291" data-name="Path 9291" d="M39.8,19.342H17.272A1.477,1.477,0,0,1,15.8,17.87v-2.8a1.477,1.477,0,0,1,1.472-1.47H39.8a1.477,1.477,0,0,1,1.472,1.472v2.8a1.527,1.527,0,0,1-1.472,1.47Z" transform="translate(-15.8 -13.6)" fill="#366480"/>
        </g>
        <g id="Path_8208" transform="translate(42.183 10.012)">
          <path id="Path_9292" data-name="Path 9292" d="M80.637,19.342H58.772A1.477,1.477,0,0,1,57.3,17.87v-2.8a1.477,1.477,0,0,1,1.472-1.47H80.637a1.477,1.477,0,0,1,1.472,1.472v2.8a1.477,1.477,0,0,1-1.472,1.47Z" transform="translate(-57.3 -13.6)" fill="#366480"/>
        </g>
      </g>
      <g id="Path_8209" transform="translate(60.567 84.145)">
        <path id="Path_9293" data-name="Path 9293" d="M178.545,178.348H85.713a3.3,3.3,0,0,1-3.313-3.313V117.613a3.3,3.3,0,0,1,3.313-3.313h92.832a3.3,3.3,0,0,1,3.313,3.313v57.422a3.347,3.347,0,0,1-3.313,3.313Z" transform="translate(-82.4 -114.3)" fill="#84cee2"/>
      </g>
      <g id="Path_8210" transform="translate(59.978 153.788)">
        <path id="Path_9294" data-name="Path 9294" d="M177.672,239.525H84.913c-1.84,0-3.313-1.178-3.313-2.65V211.55c0-1.472,1.472-2.65,3.313-2.65h92.832c1.84,0,3.313,1.178,3.313,2.65v25.325C181.058,238.347,179.512,239.525,177.672,239.525Z" transform="translate(-81.6 -208.9)" fill="#608398"/>
      </g>
      <g id="Path_8211" transform="translate(187.482 27.754)">
        <path id="Path_9295" data-name="Path 9295" d="M340.638,74.288H257.744a3.049,3.049,0,0,1-2.945-3.166V40.866a3.049,3.049,0,0,1,2.945-3.166h82.894a3.049,3.049,0,0,1,2.945,3.166V71.123a3.049,3.049,0,0,1-2.945,3.165Z" transform="translate(-254.796 -37.7)" fill="#608398"/>
      </g>
      <g id="Path_8212" transform="translate(187.629 72.808)">
        <path id="Path_9296" data-name="Path 9296" d="M340.543,137.476h-82.6A3.23,3.23,0,0,1,255,134.163v-31.95a3.23,3.23,0,0,1,2.945-3.313h82.6a3.23,3.23,0,0,1,2.945,3.313v31.95a3.125,3.125,0,0,1-2.947,3.313Z" transform="translate(-254.996 -98.9)" fill="#608398"/>
      </g>
      <g id="Path_8213" transform="translate(194.994 43.214)">
        <path id="Path_9297" data-name="Path 9297" d="M306.447,60.982H265.515a.569.569,0,0,1-.515-.589v-1.1a.625.625,0,0,1,.515-.589h40.932a.569.569,0,0,1,.515.589v1.1a.625.625,0,0,1-.515.589Z" transform="translate(-265 -58.7)" fill="#366480"/>
      </g>
      <g id="Path_8214" transform="translate(194.994 50.06)">
        <path id="Path_9298" data-name="Path 9298" d="M306.447,70.282H265.515a.569.569,0,0,1-.515-.589v-1.1a.625.625,0,0,1,.515-.589h40.932a.569.569,0,0,1,.515.589v1.1A.625.625,0,0,1,306.447,70.282Z" transform="translate(-265 -68)" fill="#366480"/>
      </g>
      <g id="Path_8215" transform="translate(194.994 56.833)">
        <path id="Path_9299" data-name="Path 9299" d="M298.864,79.482H265.589a.581.581,0,0,1-.589-.589v-1.1a.581.581,0,0,1,.589-.589h33.275a.581.581,0,0,1,.589.589v1.1a.542.542,0,0,1-.589.589Z" transform="translate(-265 -77.2)" fill="#366480"/>
      </g>
      <g id="Path_8216" transform="translate(194.994 32.981)">
        <path id="Path_9300" data-name="Path 9300" d="M289,50.542H266.472A1.477,1.477,0,0,1,265,49.07v-2.8a1.477,1.477,0,0,1,1.472-1.472H289a1.477,1.477,0,0,1,1.472,1.472v2.8A1.477,1.477,0,0,1,289,50.542Z" transform="translate(-265 -44.8)" fill="#366480"/>
      </g>
      <g id="Path_8217" transform="translate(195.288 87.532)">
        <path id="Path_9301" data-name="Path 9301" d="M306.553,121.182H265.915a.569.569,0,0,1-.515-.589v-1.1a.625.625,0,0,1,.515-.589h40.637a.569.569,0,0,1,.515.589v1.1a.569.569,0,0,1-.514.589Z" transform="translate(-265.4 -118.9)" fill="#366480"/>
      </g>
      <g id="Path_8218" transform="translate(195.288 80.465)">
        <path id="Path_9302" data-name="Path 9302" d="M306.553,111.582H265.915a.569.569,0,0,1-.515-.589v-1.1a.625.625,0,0,1,.515-.589h40.637a.569.569,0,0,1,.515.589v1.1a.569.569,0,0,1-.514.589Z" transform="translate(-265.4 -109.3)" fill="#366480"/>
      </g>
      <g id="Path_8219" transform="translate(195.288 94.378)">
        <path id="Path_9303" data-name="Path 9303" d="M306.553,130.482H265.915a.569.569,0,0,1-.515-.589v-1.1a.625.625,0,0,1,.515-.589h40.637a.569.569,0,0,1,.515.589v1.1A.625.625,0,0,1,306.553,130.482Z" transform="translate(-265.4 -128.2)" fill="#366480"/>
      </g>
      <g id="Path_8220" transform="translate(195.362 101.225)">
        <path id="Path_9304" data-name="Path 9304" d="M299.364,139.782H266.089a.581.581,0,0,1-.589-.589v-1.1a.581.581,0,0,1,.589-.589h33.275a.581.581,0,0,1,.589.589v1.1C299.88,139.488,299.659,139.782,299.364,139.782Z" transform="translate(-265.5 -137.5)" fill="#366480"/>
      </g>
      <g id="Path_8221" transform="translate(252.563 79.213)">
        <path id="Path_9305" data-name="Path 9305" d="M359.322,117.17h-14.65c-.81,0-1.472-1.1-1.472-2.429v-4.712c0-1.325.663-2.429,1.472-2.429h14.65c.81,0,1.472,1.1,1.472,2.429v4.712C360.8,116.14,360.132,117.17,359.322,117.17Z" transform="translate(-343.2 -107.6)" fill="#366480"/>
      </g>
      <g id="Path_8222" transform="translate(244.907 37.03)">
        <path id="Path_9306" data-name="Path 9306" d="M353.339,68.042H337.291a4.509,4.509,0,0,1-4.491-4.491v-8.76a4.509,4.509,0,0,1,4.491-4.491H353.34a4.509,4.509,0,0,1,4.491,4.491v8.761a4.416,4.416,0,0,1-4.492,4.49Z" transform="translate(-332.8 -50.3)" fill="#366480"/>
      </g>
      <g id="Group_954" transform="translate(309.791 25.152)">
        <g id="Path_8223">
          <path id="Path_9307" data-name="Path 9307" d="M92.023,38.208H3.166A3.319,3.319,0,0,1,0,34.9V3.313A3.319,3.319,0,0,1,3.166,0H92.023a3.268,3.268,0,0,1,3.166,3.313V34.821a3.336,3.336,0,0,1-3.166,3.387Z" fill="#608398"/>
        </g>
        <g id="Path_8225" transform="translate(8.392 19.73)">
          <path id="Path_9308" data-name="Path 9308" d="M60.209,29.082H11.989a.581.581,0,0,1-.589-.589v-1.1a.581.581,0,0,1,.589-.589h48.22a.581.581,0,0,1,.589.589v1.1C60.724,28.861,60.5,29.082,60.209,29.082Z" transform="translate(-11.4 -26.8)" fill="#366480"/>
        </g>
        <g id="Path_8226" transform="translate(8.392 26.576)">
          <path id="Path_9309" data-name="Path 9309" d="M45.264,38.382H11.989a.581.581,0,0,1-.589-.589v-1.1a.581.581,0,0,1,.589-.589H45.264a.581.581,0,0,1,.589.589v1.1a.581.581,0,0,1-.589.589Z" transform="translate(-11.4 -36.1)" fill="#366480"/>
        </g>
        <g id="Path_8227" transform="translate(7.73 8.834)">
          <path id="Path_9310" data-name="Path 9310" d="M34.5,17.742H11.972A1.477,1.477,0,0,1,10.5,16.27v-2.8A1.477,1.477,0,0,1,11.972,12H34.5a1.477,1.477,0,0,1,1.472,1.472v2.8A1.527,1.527,0,0,1,34.5,17.742Z" transform="translate(-10.5 -12)" fill="#366480"/>
        </g>
        <g id="Path_8228" transform="translate(34.601 8.834)">
          <path id="Path_9311" data-name="Path 9311" d="M70.337,17.742H48.472A1.477,1.477,0,0,1,47,16.27v-2.8A1.477,1.477,0,0,1,48.472,12H70.337a1.477,1.477,0,0,1,1.472,1.472v2.8A1.646,1.646,0,0,1,70.337,17.742Z" transform="translate(-47 -12)" fill="#366480"/>
        </g>
      </g>
      <g id="Group_955" transform="translate(303.528 72.765)">
        <g id="Path_8229">
          <path id="Path_9312" data-name="Path 9312" d="M95.923,39.017l-92.759-3.9A3.3,3.3,0,0,1,0,31.655L1.177,3.165A3.4,3.4,0,0,1,4.637,0L97.4,3.9a3.3,3.3,0,0,1,3.166,3.46L99.388,35.85a3.3,3.3,0,0,1-3.465,3.167Z" transform="translate(0.004 0.004)" fill="#608398"/>
        </g>
        <g id="Path_8230" transform="translate(15.702 9.527)">
          <path id="Path_9313" data-name="Path 9313" d="M22.043,32.271a1.046,1.046,0,0,1-.442-.147.792.792,0,0,1-.147-1.031l7.435-9.276A8.7,8.7,0,0,1,40.447,19.9l8.981,5.963A7.123,7.123,0,0,0,58.7,24.615l6.331-6.92a8.6,8.6,0,0,1,12.073-.81l8.319,7.141a7.062,7.062,0,0,0,6.331,1.546,7.441,7.441,0,0,0,5.153-4.564l3.018-7.583a.746.746,0,1,1,1.4.515l-3.018,7.583a8.829,8.829,0,0,1-6.184,5.448,8.375,8.375,0,0,1-7.583-1.84L76.226,17.99a7.1,7.1,0,0,0-10.012.663l-6.331,6.92a8.656,8.656,0,0,1-11.19,1.472l-9.129-5.963a7.2,7.2,0,0,0-9.57,1.546l-7.435,9.349a.745.745,0,0,1-.516.294Z" transform="translate(-21.326 -12.937)" fill="#366480"/>
        </g>
      </g>
      <g id="Group_956" transform="translate(309.79 116.749)">
        <g id="Path_8231">
          <path id="Path_9314" data-name="Path 9314" d="M92.612,38.208H3.166A3.319,3.319,0,0,1,0,34.9V3.313A3.319,3.319,0,0,1,3.166,0H92.612a3.268,3.268,0,0,1,3.166,3.313V34.821a3.238,3.238,0,0,1-3.166,3.387Z" fill="#608398"/>
        </g>
        <g id="Path_8232" transform="translate(7.141 9.865)">
          <path id="Path_9315" data-name="Path 9315" d="M58.509,15.682H10.289a.581.581,0,0,1-.589-.589v-1.1a.581.581,0,0,1,.589-.589h48.22a.581.581,0,0,1,.589.589v1.1a.633.633,0,0,1-.589.589Z" transform="translate(-9.7 -13.4)" fill="#366480"/>
        </g>
        <g id="Path_8233" transform="translate(7.141 16.638)">
          <path id="Path_9316" data-name="Path 9316" d="M58.509,24.882H10.289a.581.581,0,0,1-.589-.589v-1.1a.581.581,0,0,1,.589-.589h48.22a.581.581,0,0,1,.589.589v1.178a.569.569,0,0,1-.589.511Z" transform="translate(-9.7 -22.6)" fill="#366480"/>
        </g>
        <g id="Path_8234" transform="translate(7.141 23.484)">
          <path id="Path_9317" data-name="Path 9317" d="M43.638,34.182H10.289a.581.581,0,0,1-.589-.589v-1.1a.581.581,0,0,1,.589-.589H43.564a.581.581,0,0,1,.589.589v1.1a.525.525,0,0,1-.515.589Z" transform="translate(-9.7 -31.9)" fill="#366480"/>
        </g>
        <g id="Path_8235" transform="translate(65.962 8.098)">
          <path id="Path_9318" data-name="Path 9318" d="M113.6,16.742H91.072A1.477,1.477,0,0,1,89.6,15.27v-2.8A1.477,1.477,0,0,1,91.072,11H113.6a1.477,1.477,0,0,1,1.472,1.472v2.8A1.477,1.477,0,0,1,113.6,16.742Z" transform="translate(-89.6 -11)" fill="#366480"/>
        </g>
      </g>
      <g id="Group_957" transform="translate(309.79 162.544)">
        <g id="Path_8236">
          <path id="Path_9319" data-name="Path 9319" d="M92.612,38.208H3.166A3.319,3.319,0,0,1,0,34.9V3.313A3.319,3.319,0,0,1,3.166,0H92.612a3.268,3.268,0,0,1,3.166,3.313V34.821a3.238,3.238,0,0,1-3.166,3.387Z" fill="#608398"/>
        </g>
        <g id="Path_8237" transform="translate(5.963 15.975)">
          <path id="Path_9320" data-name="Path 9320" d="M56.835,23.982H8.689a.581.581,0,0,1-.589-.589v-1.1a.581.581,0,0,1,.589-.589h48.22a.581.581,0,0,1,.589.589v1.1a.708.708,0,0,1-.663.589Z" transform="translate(-8.1 -21.7)" fill="#608398"/>
        </g>
        <g id="Path_8238" transform="translate(5.963 22.822)">
          <path id="Path_9321" data-name="Path 9321" d="M56.835,33.282H8.689a.581.581,0,0,1-.589-.589v-1.1A.581.581,0,0,1,8.689,31h48.22a.581.581,0,0,1,.589.589v1.1A.708.708,0,0,1,56.835,33.282Z" transform="translate(-8.1 -31)" fill="#608398"/>
        </g>
        <g id="Path_8239" transform="translate(5.963 29.594)">
          <path id="Path_9322" data-name="Path 9322" d="M41.964,42.482H8.689a.581.581,0,0,1-.589-.589v-1.1a.581.581,0,0,1,.589-.589H41.964a.581.581,0,0,1,.589.589v1.1a.581.581,0,0,1-.589.589Z" transform="translate(-8.1 -40.2)" fill="#608398"/>
        </g>
        <g id="Path_8240" transform="translate(7.73 3.902)">
          <path id="Path_9323" data-name="Path 9323" d="M34.5,11.042H11.972A1.477,1.477,0,0,1,10.5,9.57V6.77A1.477,1.477,0,0,1,11.972,5.3H34.5a1.477,1.477,0,0,1,1.472,1.472v2.8a1.477,1.477,0,0,1-1.472,1.47Z" transform="translate(-10.5 -5.3)" fill="#608398"/>
        </g>
      </g>
      <g id="Path_8241" transform="translate(70.653 122.132)">
        <path id="Path_9324" data-name="Path 9324" d="M119.216,165.9,96.1,182.464h46.232Z" transform="translate(-96.1 -165.9)" fill="#addce9"/>
      </g>
      <g id="Path_8242" transform="translate(86.26 113.372)">
        <path id="Path_9325" data-name="Path 9325" d="M148.514,154,117.3,179.251h62.428Z" transform="translate(-117.3 -154)" fill="#3861ab"/>
      </g>
      <g id="Ellipse_114" transform="translate(85.524 99.164)">
        <circle id="Ellipse_177" data-name="Ellipse 177" cx="5.669" cy="5.669" r="5.669" transform="translate(0 0)" fill="#fff"/>
      </g>
      <g id="Path_8625" transform="translate(374.099 255.08)">
        <path id="Path_9326" data-name="Path 9326" d="M567.919,371.048s-1.316-5.112-5.88-4.376c2.208-6.994-8.613-6.258-6.773,0-3.755-3.239-5.374-1.914-5.374-1.914s5.595-9.35-2.577-13.178c.368-6.92-12.368-6.994-11.779,1.1-6.4-4.785-9.791.81-9.791.81s-8.981-8.024-15.239,1.472,2.724,13.325,2.724,13.325Z" transform="translate(-508.29 -346.491)" fill="#269a1d"/>
      </g>
      <g id="Path_8244" transform="translate(67.782 160.267)">
        <path id="Path_9327" data-name="Path 9327" d="M140.935,219.982H92.789a.581.581,0,0,1-.589-.589v-1.1a.581.581,0,0,1,.589-.589h48.22a.581.581,0,0,1,.589.589v1.1A.645.645,0,0,1,140.935,219.982Z" transform="translate(-92.2 -217.7)" fill="#366480"/>
      </g>
      <g id="Path_8246" transform="translate(67.782 165.935)">
        <path id="Path_9328" data-name="Path 9328" d="M140.935,227.682H92.789a.581.581,0,0,1-.589-.589v-1.1a.581.581,0,0,1,.589-.589h48.22a.581.581,0,0,1,.589.589v1.1A.645.645,0,0,1,140.935,227.682Z" transform="translate(-92.2 -225.4)" fill="#366480"/>
      </g>
      <g id="Path_8247" transform="translate(67.782 172.782)">
        <path id="Path_9329" data-name="Path 9329" d="M140.935,236.982H92.789a.581.581,0,0,1-.589-.589v-1.1a.581.581,0,0,1,.589-.589h48.22a.581.581,0,0,1,.589.589v1.1a.645.645,0,0,1-.663.589Z" transform="translate(-92.2 -234.7)" fill="#366480"/>
      </g>
      <g id="Path_8248" transform="translate(67.782 199.873)">
        <path id="Path_9330" data-name="Path 9330" d="M140.935,273.782H92.789a.581.581,0,0,1-.589-.589v-1.1a.581.581,0,0,1,.589-.589h48.22a.581.581,0,0,1,.589.589v1.1A.645.645,0,0,1,140.935,273.782Z" transform="translate(-92.2 -271.5)" fill="#366480"/>
      </g>
      <g id="Path_8249" transform="translate(67.782 206.72)">
        <path id="Path_9331" data-name="Path 9331" d="M140.935,283.082H92.789a.581.581,0,0,1-.589-.589v-1.1a.581.581,0,0,1,.589-.589h48.22a.581.581,0,0,1,.589.589v1.1a.708.708,0,0,1-.663.589Z" transform="translate(-92.2 -280.8)" fill="#366480"/>
      </g>
      <g id="Path_8250" transform="translate(75.364 174.917)">
        <path id="Path_9332" data-name="Path 9332" d="M123.039,270.066H106.991a4.509,4.509,0,0,1-4.491-4.491V242.091a4.509,4.509,0,0,1,4.491-4.491H123.04a4.509,4.509,0,0,1,4.491,4.491v23.484a4.462,4.462,0,0,1-4.492,4.491Z" transform="translate(-102.5 -237.6)" fill="#84cee2"/>
      </g>
      <g id="Path_8693" transform="translate(0 189.101)">
        <path id="Path_9333" data-name="Path 9333" d="M26.242,259.247,50.02,340.669H46.855s-26.723.663-37.913,0-8.54,0-8.54,0L19.911,259.4a3.184,3.184,0,0,1,3.9-2.429,3.315,3.315,0,0,1,2.431,2.281Z" transform="translate(-0.128 -256.868)" fill="#617e40"/>
      </g>
      <g id="Path_8322" transform="translate(11.048 167.617)">
        <path id="Path_9334" data-name="Path 9334" d="M47.8,230.641,77.464,332.234H73.488s-33.349.81-47.336,0-10.675,0-10.675,0L39.919,230.862a4.1,4.1,0,0,1,4.859-3.092,4.383,4.383,0,0,1,3.022,2.871Z" transform="translate(-15.135 -227.685)" fill="#71904e"/>
      </g>
      <g id="Group_960" transform="translate(257.982 65.343)">
        <g id="Group_958" transform="translate(0 39.601)">
          <g id="Line_53" transform="translate(38.797 3.681)">
            <path id="Path_9335" data-name="Path 9335" d="M52.3,178.708h-.22a1.211,1.211,0,0,1-.883-1.325l36.662-173a1.126,1.126,0,0,1,2.209.442l-36.588,173a1.26,1.26,0,0,1-1.18.883Z" transform="translate(-51.187 -3.487)" fill="#8fba5c"/>
          </g>
          <g id="Path_8251">
            <path id="Path_9336" data-name="Path 9336" d="M-.4,173.708H-.62a1.211,1.211,0,0,1-.883-1.325l3.166-15.092L35.158-.62a1.211,1.211,0,0,1,1.326-.88,1.211,1.211,0,0,1,.883,1.325L3.871,157.733.7,172.824a1.172,1.172,0,0,1-1.1.884Z" transform="translate(1.513 1.513)" fill="#8fba5c"/>
          </g>
          <g id="Line_54" transform="translate(2.954 158.362)">
            <path id="Path_9337" data-name="Path 9337" d="M42.4,215.809H3.6a1.1,1.1,0,1,1,0-2.209H42.4a1.1,1.1,0,0,1,0,2.209Z" transform="translate(-2.5 -213.6)" fill="#8fba5c"/>
          </g>
          <g id="Line_55" transform="translate(7.813 142.019)">
            <path id="Path_9338" data-name="Path 9338" d="M48.044,193.609H10.2a1.1,1.1,0,1,1,0-2.209H48.04a1.1,1.1,0,0,1,0,2.209Z" transform="translate(-9.1 -191.4)" fill="#8fba5c"/>
          </g>
        </g>
        <g id="Line_56" transform="translate(10.978 165.284)">
          <path id="Path_9339" data-name="Path 9339" d="M52.418,226.709H14.5a1.1,1.1,0,1,1,0-2.209H52.34a1.132,1.132,0,0,1,1.1,1.1,1.07,1.07,0,0,1-1.022,1.109Z" transform="translate(-13.4 -224.5)" fill="#8fba5c"/>
        </g>
        <g id="Line_57" transform="translate(14.218 148.941)">
          <path id="Path_9340" data-name="Path 9340" d="M56.744,204.509H18.9a1.1,1.1,0,1,1,0-2.209H56.74a1.132,1.132,0,0,1,1.1,1.1,1.084,1.084,0,0,1-1.1,1.109Z" transform="translate(-17.8 -202.3)" fill="#8fba5c"/>
        </g>
        <g id="Line_58" transform="translate(17.457 132.598)">
          <path id="Path_9341" data-name="Path 9341" d="M61.144,182.309H23.3a1.1,1.1,0,1,1,0-2.209H61.14a1.1,1.1,0,0,1,0,2.209Z" transform="translate(-22.2 -180.1)" fill="#8fba5c"/>
        </g>
        <g id="Line_59" transform="translate(20.622 116.254)">
          <path id="Path_9342" data-name="Path 9342" d="M67.284,160.109H27.6a1.1,1.1,0,1,1,0-2.209H67.28a1.1,1.1,0,1,1,0,2.209Z" transform="translate(-26.5 -157.9)" fill="#8fba5c"/>
        </g>
        <g id="Line_60" transform="translate(24.009 99.911)">
          <path id="Path_9343" data-name="Path 9343" d="M71.884,137.909H32.2a1.1,1.1,0,1,1,0-2.209H71.88a1.1,1.1,0,1,1,0,2.209Z" transform="translate(-31.1 -135.7)" fill="#8fba5c"/>
        </g>
        <g id="Line_61" transform="translate(27.322 83.642)">
          <path id="Path_9344" data-name="Path 9344" d="M76.384,115.809H36.7a1.1,1.1,0,1,1,0-2.209H76.38a1.1,1.1,0,0,1,0,2.209Z" transform="translate(-35.6 -113.6)" fill="#8fba5c"/>
        </g>
        <g id="Line_62" transform="translate(30.708 67.298)">
          <path id="Path_9345" data-name="Path 9345" d="M80.984,93.609H41.3a1.1,1.1,0,1,1,0-2.209H80.98a1.1,1.1,0,0,1,0,2.209Z" transform="translate(-40.2 -91.4)" fill="#8fba5c"/>
        </g>
        <g id="Line_63" transform="translate(33.137 50.955)">
          <path id="Path_9346" data-name="Path 9346" d="M85.315,71.409H44.6a1.1,1.1,0,1,1,0-2.209H85.241a1.132,1.132,0,0,1,1.1,1.1,1.07,1.07,0,0,1-1.026,1.109Z" transform="translate(-43.5 -69.2)" fill="#8fba5c"/>
        </g>
        <g id="Group_959" transform="translate(29.722)">
          <g id="Head_x2F_Front_x2F_Short-2" transform="translate(3.121)">
            <g id="Head_6_" transform="translate(1.378 1.799)">
              <g id="Path_8252">
                <path id="Path_9347" data-name="Path 9347" d="M2.57,9.2A6.736,6.736,0,0,1-.007,4.566C-.448-.881,7.208-.881,9.122,1.622s2.8,9.423.957,10.233c-.736.294-2.429.074-4.2-.663l2.135,7.067-6.037.957Z" transform="translate(0.025 -0.008)" fill="#b18b67" fill-rule="evenodd"/>
              </g>
            </g>
            <g id="Hair_2_">
              <path id="Path_9348" data-name="Path 9348" d="M3.754,12.29C2.429,8.977-.074,7.063,0,5.444A2.311,2.311,0,0,1,1.472,3.309C1.619,1.247,3.091.143,5.815,0c4.123-.147,6.846,1.1,6.331,4.932a8.461,8.461,0,0,0-3.755.883c-.515.294-.736.957-.81,1.988l-.736.147c-.883-1.1-1.62-1.472-2.282-1.031S3.9,8.168,4.417,9.272l.074,2.871Z" transform="translate(0.002 0.016)" fill="#0c0c0c" fill-rule="evenodd"/>
            </g>
          </g>
          <g id="humaaan-10" transform="translate(0 6.553)">
            <g id="Bottom_x2F_Standing_x2F_Sprint" transform="translate(0 30.768)">
              <g id="Leg_7_" transform="translate(6.697)">
                <path id="Path_9349" data-name="Path 9349" d="M9.1,0C8.8,5.669,33.393,25.693,33.467,26.208c.074.221-3.534,6.4-10.748,18.625l2.209,1.178c10.307-12.589,15.313-19.656,15.092-21.2q-.552-3.2-18.11-23.19Z" transform="translate(-9.096)" fill="#b18b67" fill-rule="evenodd"/>
              </g>
              <g id="Pant_7_" transform="translate(6.436)">
                <path id="Path_9350" data-name="Path 9350" d="M23.655,42.036l3.607,1.84c9.2-8.024,13.251-15.165,13.178-18.993-.073-2.577-6.11-10.307-18.04-23.116L8.785,0c-1.178,13.178,22.306,25.987,22.6,26.576S27.7,32.245,23.655,42.036Z" transform="translate(-8.742)" fill="#0f1626" fill-rule="evenodd"/>
              </g>
              <g id="Accessories_x2F_Shoe_x2F_Flat-Sneaker" transform="translate(21.007 41.867) rotate(19.993)">
                <g id="shoe_5_">
                  <path id="Path_9351" data-name="Path 9351" d="M.055,2.429a5.439,5.439,0,0,0,0,1.546A8.632,8.632,0,0,0,.718,5.742C1.159,5.595,5.429,4.564,13.38,2.65c.074-1.178-.294-1.693-1.031-1.62s-1.325.147-1.84.147L4.031,0c-.147,0-.294.074-.294.221h0l-.147.957a6.018,6.018,0,0,1-1.472.883A3.269,3.269,0,0,1,.644,1.988h0C.35,1.914.129,2.135.055,2.43Z" fill="#5b5b5c" fill-rule="evenodd"/>
                </g>
              </g>
              <g id="Leg_6_" transform="translate(0.368 1.031)">
                <path id="Path_9352" data-name="Path 9352" d="M8.745,3.977,5.138,34.97.5,61.546l2.65-.736L17.8,1.4Z" transform="translate(-0.5 -1.4)" fill="#9a7759" fill-rule="evenodd"/>
              </g>
              <g id="Accessories_x2F_Shoe_x2F_Flat-Sneaker_1_" transform="translate(0.024 57.585)">
                <g id="shoe_3_">
                  <path id="Path_9353" data-name="Path 9353" d="M.442,1.325A6.111,6.111,0,0,0,0,2.871a15.5,15.5,0,0,0,.147,1.84c.515,0,4.859.074,13.03.294.368-1.1.147-1.693-.589-1.84s-1.252-.221-1.767-.294L4.859,0c-.147,0-.294,0-.294.147h0L4.123,1.1a6.638,6.638,0,0,1-1.62.442A4.886,4.886,0,0,1,1.031,1.1h0a.371.371,0,0,0-.589.221Z" fill="#5b5b5c" fill-rule="evenodd"/>
                </g>
              </g>
              <g id="Pant_6_" transform="translate(0 0.736)">
                <path id="Path_9354" data-name="Path 9354" d="M0,56.287,6.258,55.7C8.908,47.6,20.171,14.472,18.625,1L5.374,4.755C1.031,16.165,2.429,48.189,0,56.287Z" transform="translate(0 -1)" fill="#152138" fill-rule="evenodd"/>
              </g>
            </g>
            <g id="Body_x2F_Pointing-Up" transform="translate(2.032)">
              <g id="Path_8253" transform="translate(23.004)">
                <path id="Path_9355" data-name="Path 9355" d="M31.3,6.922l8.466-3.534A23.639,23.639,0,0,1,44.036.076c.442-.147,1.1-.147.368.957S42.858,3.242,43.152,3.61s1.178,0,1.472.589c.221.442-1.252.883-4.417,1.4l-6.331,4.712Z" transform="translate(-31.3 -0.007)" fill="#b18b67" fill-rule="evenodd"/>
              </g>
              <g id="Path_8254" transform="translate(22.783 22.375)">
                <path id="Path_9356" data-name="Path 9356" d="M32.1,30.4l7.951,4.564a19.145,19.145,0,0,1,5.227,1.472c.368.221.81.81-.515.81s-2.724.147-2.871.589.736.883.442,1.546q-.331.663-3.755-2.65L31,34.523Z" transform="translate(-31 -30.4)" fill="#b18b67" fill-rule="evenodd"/>
              </g>
              <g id="Coat-Back_1_" transform="translate(7.765 9.05)">
                <path id="Path_9357" data-name="Path 9357" d="M13.766,12.3c4.785,6.994,11.19,12.073,20.245,17.153l-2.8,3.975c-9.718-2.5-14.871-4.049-18.11-10.822-.81-1.693-1.84-7.288-2.5-10.233Z" transform="translate(-10.6 -12.3)" fill="#007186" fill-rule="evenodd"/>
              </g>
              <g id="Shirt_2_" transform="translate(2.337 8.157)">
                <path id="Path_9358" data-name="Path 9358" d="M3.354,38.041,21.1,36.127C15.722,24.348,12.778,16.1,12.189,11.612c0-.221-.515-.589-.663-.515a6.718,6.718,0,0,1-4.491.074C3.5,18.311,2.913,26.851,3.354,38.041Z" transform="translate(-3.227 -11.087)" fill="#f2f2f2" fill-rule="evenodd"/>
              </g>
              <g id="Coat-Front_1_" transform="translate(0 3.455)">
                <path id="Path_9359" data-name="Path 9359" d="M7.67,9.264c5.08-.515,13.4-.442,22.6-4.564l1.472,4.564c-6.7,5.448-13.619,9.791-20.024,10.012,4.049,11.558,5.006,21.276-1.1,21.938-2.945.294-6.037.663-9.423,1.031-2.65-9.938-.221-24.294,2.65-31.8a1.263,1.263,0,0,1,1.031-.883c.663-.074,1.546-.147,2.8-.294Z" transform="translate(-0.053 -4.7)" fill="#10afbe" fill-rule="evenodd"/>
              </g>
            </g>
          </g>
        </g>
      </g>
      <g id="Path_8255" transform="translate(334.664 172.872)">
        <path id="Path_9360" data-name="Path 9360" d="M484.448,260.793l-20.908,6.331a1.442,1.442,0,0,1-1.767-.957l-6.994-23.19a1.442,1.442,0,0,1,.957-1.767l20.908-6.331a1.442,1.442,0,0,1,1.767.957l6.994,23.19a1.442,1.442,0,0,1-.957,1.767Z" transform="translate(-454.723 -234.823)" fill="#84cee2"/>
      </g>
      <g id="humaaans_x2F_standing-10" transform="translate(19.378 177.107)">
        <g id="A-Human_x2F_Standing">
          <g id="Head_x2F_Front_x2F_Chongo" transform="translate(30.111)">
            <g id="Head_7_" transform="translate(3.759 6.741)">
              <g id="Path_8256">
                <path id="Path_9361" data-name="Path 9361" d="M2.061,8.553A6.368,6.368,0,0,1,.294,3.767c.368-5.3,7.8-4.123,9.2-1.472s1.252,9.5-.589,9.938c-.736.221-2.356-.294-3.9-1.252l1.031,7.141H0Z" transform="translate(0 -0.049)" fill="#925c3d" fill-rule="evenodd"/>
              </g>
            </g>
            <g id="hair_1_">
              <path id="Path_9362" data-name="Path 9362" d="M10.812,6.037a9.329,9.329,0,0,0-2.5-.294A4.2,4.2,0,0,0,8.6,3.607,7.265,7.265,0,0,0,7.867,1.62,3.04,3.04,0,0,0,7.352.81a1.24,1.24,0,0,0-.81-.442,2.1,2.1,0,0,0-.957,0,.562.562,0,0,0-.368.147C5.143.589,5,.442,4.923.368A2.169,2.169,0,0,0,3.965,0a2.34,2.34,0,0,0-1.03.147,1.465,1.465,0,0,0-.883.589.735.735,0,0,0-.294.368c0,.074,0,.074-.074.147s-.147,0-.147.074a2.01,2.01,0,0,0-1.325,1.1A2.842,2.842,0,0,0-.01,3.975,6.388,6.388,0,0,0,1.168,6.92,3.754,3.754,0,0,0,3.082,7.951a4.419,4.419,0,0,0-.957,1.84A11.738,11.738,0,0,0,1.683,12a5.613,5.613,0,0,0,.147,2.209,1.919,1.919,0,0,0,.957,1.62,3.945,3.945,0,0,0,.81.368,4.15,4.15,0,0,0,.883.294,1.629,1.629,0,0,0,1.62-.368c.147-.147.294-.368.442-.515.074-.074.074-.147,0-.147l-.221-.221a2.185,2.185,0,0,1-.736-1.4,1.6,1.6,0,0,1,.663-1.62,2.282,2.282,0,0,1,2.061.368,3.534,3.534,0,0,1,1.62-2.209c.957-.442,1.988-.515,2.945-.957a1.072,1.072,0,0,0,.663-.442c.074-.074.147-.221.221-.294.074-.147-.074-.294-.147-.442a7.475,7.475,0,0,0-2.8-2.207Z" transform="translate(0.037)" fill="#010202" fill-rule="evenodd"/>
            </g>
          </g>
          <g id="Bottom_x2F_Standing_x2F_Jogging" transform="translate(0 45.355)">
            <g id="Leg_11_" transform="translate(32.347 0.074)">
              <path id="Path_9363" data-name="Path 9363" d="M43.9,0,62.378,30.846l13.84,26.061h2.945L56.047,0Z" transform="translate(-43.9)" fill="#794a32" fill-rule="evenodd"/>
            </g>
            <g id="Accessories_x2F_Shoe_x2F_Flat-Sneaker_5_" transform="translate(62.418 54.279)">
              <g id="shoe_7_">
                <path id="Path_9364" data-name="Path 9364" d="M.442,1.472A7.189,7.189,0,0,0,0,3.166,9.138,9.138,0,0,0,.221,5.153H14.208c.368-1.178.147-1.84-.663-1.914s-1.472-.147-1.988-.221L5.153,0c-.147,0-.294,0-.368.147h0L4.417,1.178a5.362,5.362,0,0,1-1.767.515A4.758,4.758,0,0,1,1.1,1.252h0a.437.437,0,0,0-.663.221Z" fill="#e4e4e3" fill-rule="evenodd"/>
              </g>
            </g>
            <g id="Pant_9_" transform="translate(29.328 0.074)">
              <path id="Path_9365" data-name="Path 9365" d="M71.309,52.711l5.742-1.767c-2.5-7.435-5.6-15.754-9.276-24.809S60.192,8.392,56,0H39.8A268.635,268.635,0,0,0,54.6,29.006a190.8,190.8,0,0,0,16.709,23.7Z" transform="translate(-39.8)" fill="#0f1626" fill-rule="evenodd"/>
            </g>
            <g id="Leg_10_" transform="translate(2.9 0.074)">
              <path id="Path_9366" data-name="Path 9366" d="M32.169,0C30.4,10.822,27.09,24.662,26.722,25.1c-.221.294-7.8,2.8-22.822,7.656l.663,2.65c17.889-2.577,27.312-4.564,28.269-6.037C34.3,27.239,41.519,10.38,44.316,0Z" transform="translate(-3.9)" fill="#925c3d" fill-rule="evenodd"/>
            </g>
            <g id="Pant_8_" transform="translate(8.2)">
              <path id="Path_9367" data-name="Path 9367" d="M11.1,30.452l1.1,4.2c13.4,1.178,21.57.294,24.588-2.577S43.271,18.452,47.1-.1H31.639c-2.429,15.239-3.828,23.116-4.123,23.779C27.3,24.415,21.775,26.623,11.1,30.452Z" transform="translate(-11.1 0.1)" fill="#152138" fill-rule="evenodd"/>
            </g>
            <g id="Accessories_x2F_Shoe_x2F_Flat-Sneaker_4_" transform="translate(5.075 31.064) rotate(80)">
              <g id="shoe_6_">
                <path id="Path_9368" data-name="Path 9368" d="M.442,1.472A7.189,7.189,0,0,0,0,3.166,9.138,9.138,0,0,0,.221,5.153H14.208c.368-1.178.147-1.84-.663-1.914s-1.472-.147-1.988-.221L5.153,0c-.147,0-.294,0-.368.147h0L4.417,1.178a5.362,5.362,0,0,1-1.767.515A4.758,4.758,0,0,1,1.1,1.252h0C.81,1.1.515,1.178.442,1.472Z" fill="#e4e4e3" fill-rule="evenodd"/>
              </g>
            </g>
          </g>
          <g id="Body_x2F_Pointing-Forward" transform="translate(24.748 19.357)">
            <g id="Skin_1_" transform="translate(20.234 3.361)">
              <path id="Path_9369" data-name="Path 9369" d="M27.5,11.805l8.613-4.712c1.4-2.209,2.135-2.65,2.5-2.5.589.221.221,1.693,1.252,2.429.736.515,1.546.294,1.693.515.294.442-1.252,1.1-4.491,1.988l-6.4,5.669ZM40.972,15.78l3.755-2.061c.515-1.988,1.178-3.018,1.914-3.018.589-.294-.442,2.282.663,2.061s3.68-2.208,4.122-1.762c.663.589.074,2.356-.663,3.313-1.325,1.693-2.429,2.282-5.08,3.018a15.83,15.83,0,0,0-4.564,2.356Z" transform="translate(-27.5 -4.565)" fill="#925c3d" fill-rule="evenodd"/>
            </g>
            <g id="Sleeve_1_" transform="translate(15.081 6.184)">
              <path id="Path_9370" data-name="Path 9370" d="M21.457,11.786A20.671,20.671,0,0,0,32.794,8.4l1.693,3.755c-2.945,2.945-7.141,5.374-10.748,5.227A3.348,3.348,0,0,1,20.5,13.995,2.905,2.905,0,0,1,21.457,11.786Z" transform="translate(-20.5 -8.4)" fill="#e9b949" fill-rule="evenodd"/>
            </g>
            <g id="Clothes_2_">
              <path id="Path_9371" data-name="Path 9371" d="M20.1,15.607c3.239.81,8.613-.147,16.122-2.8,1.84,3.9,2.724,6.626,2.577,8.245-6.478,3.386-12,4.859-16.564,5.006a15.233,15.233,0,0,1-1.325,7.656c-2.282,4.859-15.61.368-20.1,1.252-2.8-9.2,2.65-12.883,2.65-18.7C3.464,9.865,8.617,0,9.353,0H16.2C16.568,4.859,18.482,10.307,20.1,15.607Z" transform="translate(-0.015)" fill="#feca44" fill-rule="evenodd"/>
            </g>
          </g>
        </g>
      </g>
      <g id="humaaans_x2F_standing-13" transform="translate(351.524 180.196)">
        <g id="Bottom_x2F_Standing_x2F_Baggy-Pants" transform="translate(3.349 44.019)">
          <g id="Leg_17_" transform="translate(8.535)">
            <path id="Path_9372" data-name="Path 9372" d="M32.8,0,21.833,27.754,14.471,51.238H11.6L22.79,0Z" transform="translate(-11.6)" fill="#9a7759" fill-rule="evenodd"/>
          </g>
          <g id="Leg_16_" transform="translate(21.05)">
            <path id="Path_9373" data-name="Path 9373" d="M39.5,0a193.273,193.273,0,0,0,2.061,23.484c.147.442,6.478,5.595,18.773,15.46l-1.988,2.135C43.839,32.613,36.183,27.828,35.52,26.65,34.489,24.957,31.25,9.276,28.6,0Z" transform="translate(-28.6)" fill="#b18b67" fill-rule="evenodd"/>
          </g>
          <g id="Accessories_x2F_Shoe_x2F_Flat-Sneaker_11_" transform="matrix(0.643, 0.766, -0.766, 0.643, 53.292, 37.341)">
            <g id="shoe_13_">
              <path id="Path_9374" data-name="Path 9374" d="M.571.736a4.883,4.883,0,0,1,1.4-.663A14.785,14.785,0,0,1,3.81,0c.074.442.81,4.564,2.209,12.441-1.031.515-1.62.442-1.84-.221s-.368-1.252-.515-1.693L.055,5.153a.224.224,0,0,1,0-.294h0l.81-.515a4.049,4.049,0,0,0,.147-1.62A2.646,2.646,0,0,0,.5,1.4h0A.466.466,0,0,1,.571.736Z" fill="#e4e4e3" fill-rule="evenodd"/>
            </g>
          </g>
          <g id="Accessories_x2F_Shoe_x2F_Flat-Sneaker_10_" transform="translate(0 48.779)">
            <g id="shoe_12_">
              <path id="Path_9375" data-name="Path 9375" d="M12.591,1.388a3.351,3.351,0,0,1,.368,1.472,7.261,7.261,0,0,1-.221,1.767H.149C-.145,3.523,0,2.934.738,2.86S2.063,2.713,2.5,2.639L8.394-.011c.147-.074.221,0,.294.074h0l.368.883a2.445,2.445,0,0,0,1.546.515A3.125,3.125,0,0,0,12,1.02h0a.606.606,0,0,1,.589.368Z" transform="translate(-0.007 0.041)" fill="#e4e4e3" fill-rule="evenodd"/>
            </g>
          </g>
          <g id="Pant_13_" transform="translate(8.535)">
            <path id="Path_9376" data-name="Path 9376" d="M25.44,48.809,11.6,47.336,21.833,0H34.2Z" transform="translate(-11.6)" fill="#6aa2ad" fill-rule="evenodd"/>
          </g>
          <g id="Pant_12_" transform="translate(19.945)">
            <path id="Path_9377" data-name="Path 9377" d="M57.136,35.558,48.081,46.232C38.511,35.778,32.989,29.006,31.37,25.84,29.824,22.674,28.352,14.061,27.1,0H41.014c.663,12.368,1.178,18.846,1.4,19.435C42.633,19.951,47.566,25.325,57.136,35.558Z" transform="translate(-27.1)" fill="#8ac5cc" fill-rule="evenodd"/>
          </g>
        </g>
        <g id="humaaan-5">
          <g id="Head_x2F_Front_x2F_Long" transform="translate(22.873 4.072) rotate(-15.009)">
            <g id="Hair-Back">
              <path id="Path_9378" data-name="Path 9378" d="M6.206,1.86C4,4.069-.346,9.443.022,10.915l6.037,3.46h0a5.188,5.188,0,0,0,6.552-2.135L15.04,7.97A5.2,5.2,0,0,0,13.126.9L12.684.682A5.108,5.108,0,0,0,6.206,1.86Z" fill="#222046" fill-rule="evenodd"/>
            </g>
            <g id="Head_9_" transform="translate(2.884 0.788)">
              <g id="Path_8257">
                <path id="Path_9379" data-name="Path 9379" d="M7.877,9.277A6.523,6.523,0,0,0,11.7,6.111C13.914,1.547,7.215-1.1,4.712.443S-.883,7.657.442,8.982c.515.515,2.061.883,3.9.883L0,15.313l5.006,2.871Z" fill="#b18b67" fill-rule="evenodd"/>
              </g>
            </g>
            <g id="Hair-Front" transform="translate(6.906 0.219)">
              <path id="Path_9380" data-name="Path 9380" d="M2.907,8.34C1.288,10.622-.258,13.493.036,14.524l6.037,3.46c3.681-5.595-.883-5.227,2.282-10.675a4.15,4.15,0,0,0-.294-.883l.074-.147C8.282,3.555,7.619,1.714,6,.831A4.515,4.515,0,0,0,.993.684C.552,2.6,2.245,3.923,3.349,5.911a1.267,1.267,0,0,1,.883.147A1.3,1.3,0,0,1,2.981,8.34C2.981,8.414,2.981,8.414,2.907,8.34Z" fill="#222046" fill-rule="evenodd"/>
            </g>
          </g>
          <g id="Body_x2F_Pointing-Forward_2_" transform="translate(0 15.649) rotate(-10)">
            <g id="Skin_3_">
              <path id="Path_9381" data-name="Path 9381" d="M22.15,12.348,15.893,5.281A19,19,0,0,0,13.316.275c-.294-.294-.957-.663-.736.736s.368,2.8-.074,3.018-1.1-.515-1.693-.147c-.368.294.736,1.4,3.46,3.313L18.1,14.409ZM8.6,11.465,5.881,8.373c.147-1.988-.074-3.092-.736-3.386C4.7,4.545,4.777,7.2,3.893,6.607,3.01,6.091,1.243,3.44.728,3.661c-.81.3-.884,2.139-.516,3.166.663,1.914,1.472,2.8,3.607,4.417A15.781,15.781,0,0,1,7.2,14.851Z" fill="#9a7759" fill-rule="evenodd"/>
            </g>
            <g id="Sleeve_3_" transform="translate(14.421 6.017)">
              <path id="Path_9382" data-name="Path 9382" d="M11.926,6.773A20.508,20.508,0,0,1,2.724,0L0,2.8c1.693,3.6,4.712,7.212,8.024,8.316A3.2,3.2,0,0,0,12.073,9.2a3.444,3.444,0,0,0-.147-2.427Z" fill="#e4c2b6" fill-rule="evenodd"/>
            </g>
            <g id="Clothes_3_" transform="translate(1.905 4.103)">
              <path id="Path_9383" data-name="Path 9383" d="M18.773,12.81c-3.166-.368-7.73-2.945-13.693-7.877Q.663,9.239,0,11.558C4.785,16.711,9.276,19.95,13.4,21.57a14.767,14.767,0,0,0-1.325,7.362c.442,5.153,14.061,5.448,17.816,7.73,5.521-7.288,1.84-12.441,3.755-17.742,2.061-5.742.663-16.343,0-16.638L27.386,0C25.4,4.27,21.938,8.466,18.773,12.81Z" fill="#f8b094" fill-rule="evenodd"/>
            </g>
          </g>
        </g>
      </g>
      <g id="Component_149_1" data-name="Component 149 – 1" transform="translate(61.814 6)">
        <text id="Long_Shot" data-name="Long Shot" transform="translate(248.264 11)" fill="#fff" font-size="11" font-family="SourceSansPro-Bold, Source Sans Pro" font-weight="700"><tspan x="0" y="0">Long Shot</tspan></text>
        <text id="Next_Phase" data-name="Next Phase" transform="translate(126.878 11)" fill="#fff" font-size="11" font-family="SourceSansPro-Bold, Source Sans Pro" font-weight="700"><tspan x="0" y="0">Next Phase</tspan></text>
        <text id="MVP" transform="translate(0 11)" fill="#fff" font-size="11" font-family="SourceSansPro-Bold, Source Sans Pro" font-weight="700"><tspan x="0" y="0">MVP</tspan></text>
      </g>
    </g>
  </g>
</svg>
