<svg xmlns="http://www.w3.org/2000/svg" width="615.953" height="357.862" viewBox="0 0 615.953 357.862">
  <g id="design-illustration" transform="translate(11.979)">
    <path id="Path_8700" data-name="Path 8700" d="M12504.975,1656.021s147.171-.3,280.038,0c99.34.228,243.128,0,243.128,0h52.814s-20.605-10.558-44.5-14.553c-3.817-.638-8.02-1.213-12.233-1.619a110.128,110.128,0,0,0-23.146-.011c-42.275,5.031-173.82-14.222-219.893-6.565s-115.81.63-149.3-4.455c-19.557-2.969-116.439,3.2-146.029,16.1-4.738,2.066-20.857,5.3-20.857,11.105Z" transform="translate(-12476.98 -1298.261)" fill="#715c3b"/>
    <path id="Path_8076" data-name="Path 8076" d="M12.061,75.321S-1.291,67.8.1,58,6.17,43.025,2.9,32.2s5.634-9.8,6.669-16.9S6.741,1.211,16.32.081s9.94,9.78,7.112,15.219,3.9,11.51,4.305,14.655S22.824,37.4,23.432,45.1s7.18,12.141,4.305,17.358S12.061,75.321,12.061,75.321Z" transform="translate(545.102 265.269) rotate(4.992)" fill="#c1d55b"/>
    <path id="Path_8065" data-name="Path 8065" d="M14.6,89.342S-1.562,80.419.123,68.8,7.471,51.034,3.512,38.191s6.815-11.618,8.069-20.039S8.158,1.436,19.753.1s12.03,11.6,8.607,18.055S33.084,31.8,33.571,35.534s-5.946,8.835-5.212,17.97,8.691,14.4,5.212,20.589S14.6,89.342,14.6,89.342Z" transform="matrix(0.985, -0.174, 0.174, 0.985, 520.789, 256.016)" fill="#269a1d"/>
    <path id="Path_8064" data-name="Path 8064" d="M12507.8,1655.294l536.03,2.917s-40.759-17.317-83.034-14.125-33.143,12.5-75.237,3.933-56.425-17.191-102.5-12.333-116.544-3.766-150.03-6.991S12507.8,1655.294,12507.8,1655.294Z" transform="translate(-12478.121 -1311.699)" fill="#71904e"/>
    <g id="Group_961" data-name="Group 961" transform="translate(140.125)">
      <path id="Path_8258" data-name="Path 8258" d="M459.707,268.185H144.428a9.355,9.355,0,0,1-9.328-9.328V37.688a9.355,9.355,0,0,1,9.328-9.328H459.707a9.355,9.355,0,0,1,9.328,9.328v221.17a9.355,9.355,0,0,1-9.328,9.327Z" transform="translate(-135.1 -28.36)" fill="#366480"/>
    </g>
    <g id="Group_962" data-name="Group 962" transform="translate(312.246 151.761)">
      <path id="Path_8261" data-name="Path 8261" d="M360.727,321.553H490.912c2.309,0,4.2-2.716,4.2-6.037v-58.3c0-3.32-1.889-6.037-4.2-6.037H360.727c-2.309,0-4.2,2.717-4.2,6.037v58.3C356.53,318.836,358.419,321.553,360.727,321.553Z" transform="translate(-356.53 -251.18)" fill="#608398"/>
      <path id="Path_8262" data-name="Path 8262" d="M469.752,294.028l-5.879-12.939c-3.671-7.664-8.564-8.271-13.461-5.309l-12.872,7.781a10.925,10.925,0,0,1-14.139-2.472l-8.348-10.027a10.923,10.923,0,0,0-15.29-1.671l-11.971,9.452c-6.04,4.773-14.761,2.083-17.381-5.363l-3.77-10.719" transform="translate(-358.781 -243.867)" fill="none" stroke="#f39ea7" stroke-linecap="round" stroke-miterlimit="10" stroke-width="2"/>
    </g>
    <path id="Path_8263" data-name="Path 8263" d="M307.711,117.373,199.3,149.647a5.792,5.792,0,0,1-7.206-3.9L174.541,86.8a5.792,5.792,0,0,1,3.9-7.206L286.855,47.321a5.792,5.792,0,0,1,7.206,3.9l17.552,58.944A5.8,5.8,0,0,1,307.711,117.373Z" transform="translate(-3.704 -32.529)" fill="#608398"/>
    <g id="Group_965" data-name="Group 965" transform="translate(88.187 47.11)">
      <g id="Group_963" data-name="Group 963" transform="translate(0 51.345)">
        <path id="Path_8489" data-name="Path 8489" d="M40.408,0l-52.1,250.7" transform="translate(57.237 4.089)" fill="none" stroke="#8fba5c" stroke-linecap="round" stroke-width="3"/>
        <path id="Path_8264" data-name="Path 8264" d="M125.942,155.02,71.625,409.384" transform="translate(-71.625 -155.02)" fill="none" stroke="#8fba5c" stroke-linecap="round" stroke-miterlimit="10" stroke-width="3" fill-rule="evenodd"/>
        <line id="Line_65" data-name="Line 65" x1="43.304" transform="translate(16.757 176.738)" fill="none" stroke="#8fba5c" stroke-linecap="round" stroke-miterlimit="10" stroke-width="3"/>
        <line id="Line_66" data-name="Line 66" x1="42.247" transform="translate(22.167 158.51)" fill="none" stroke="#8fba5c" stroke-linecap="round" stroke-miterlimit="10" stroke-width="3"/>
        <line id="Line_78" data-name="Line 78" x1="43.304" transform="translate(9.053 213.332)" fill="none" stroke="#8fba5c" stroke-linecap="round" stroke-miterlimit="10" stroke-width="3"/>
        <line id="Line_79" data-name="Line 79" x1="42.247" transform="translate(14.463 195.104)" fill="none" stroke="#8fba5c" stroke-linecap="round" stroke-miterlimit="10" stroke-width="3"/>
        <line id="Line_81" data-name="Line 81" x1="42.247" transform="translate(6.76 230.736)" fill="none" stroke="#8fba5c" stroke-linecap="round" stroke-miterlimit="10" stroke-width="3"/>
      </g>
      <line id="Line_67" data-name="Line 67" x1="42.255" transform="translate(25.743 191.619)" fill="none" stroke="#8fba5c" stroke-linecap="round" stroke-miterlimit="10" stroke-width="3"/>
      <line id="Line_68" data-name="Line 68" x1="42.255" transform="translate(29.319 173.383)" fill="none" stroke="#8fba5c" stroke-linecap="round" stroke-miterlimit="10" stroke-width="3"/>
      <line id="Line_69" data-name="Line 69" x1="42.255" transform="translate(32.902 155.155)" fill="none" stroke="#8fba5c" stroke-linecap="round" stroke-miterlimit="10" stroke-width="3"/>
      <line id="Line_70" data-name="Line 70" x1="44.276" transform="translate(36.478 136.919)" fill="none" stroke="#8fba5c" stroke-linecap="round" stroke-miterlimit="10" stroke-width="3"/>
      <line id="Line_71" data-name="Line 71" x1="44.268" transform="translate(40.232 118.683)" fill="none" stroke="#8fba5c" stroke-linecap="round" stroke-miterlimit="10" stroke-width="3"/>
      <line id="Line_72" data-name="Line 72" x1="44.268" transform="translate(43.979 100.455)" fill="none" stroke="#8fba5c" stroke-linecap="round" stroke-miterlimit="10" stroke-width="3"/>
      <line id="Line_73" data-name="Line 73" x1="44.268" transform="translate(47.733 82.22)" fill="none" stroke="#8fba5c" stroke-linecap="round" stroke-miterlimit="10" stroke-width="3"/>
      <line id="Line_74" data-name="Line 74" x1="45.372" transform="translate(50.469 63.984)" fill="none" stroke="#8fba5c" stroke-linecap="round" stroke-miterlimit="10" stroke-width="3"/>
      <g id="Group_964" data-name="Group 964" transform="translate(37.861)">
        <g id="Head_x2F_Front_x2F_Chongo_1_" transform="translate(2.847)">
          <g id="Head_10_" transform="translate(4.724 8.48)">
            <path id="Path_8265" data-name="Path 8265" d="M-6.666,79.715A8.532,8.532,0,0,1-8.928,73.6C-8.454,66.876.9,68.353,2.724,71.75s1.6,12.01-.754,12.616C1.029,84.6-.968,84.013-3,82.785l1.275,9.04H-9.27Z" transform="translate(9.27 -68.876)" fill="#b18b67" fill-rule="evenodd"/>
          </g>
          <path id="hair_2_" d="M52.386,96.626a10.014,10.014,0,0,0-3.156-.35,5.416,5.416,0,0,0,.381-2.744,8.107,8.107,0,0,0-.894-2.48,3.319,3.319,0,0,0-.661-1.026,2.271,2.271,0,0,0-1.065-.575,2.846,2.846,0,0,0-1.228,0c-.179.039-.342.117-.513.163s-.264-.062-.4-.179a2.206,2.206,0,0,0-1.166-.451,2.977,2.977,0,0,0-1.329.163,2.644,2.644,0,0,0-1.112.707,1.843,1.843,0,0,0-.334.5c-.031.078-.039.124-.117.148a2.059,2.059,0,0,0-.225.054,2.879,2.879,0,0,0-1.656,1.5,4.634,4.634,0,0,0-.257,1.951,8.454,8.454,0,0,0,1.446,3.71,4.576,4.576,0,0,0,2.386,1.345,6.782,6.782,0,0,0-1.244,2.324,11.227,11.227,0,0,0-.567,2.822,9.273,9.273,0,0,0,.14,2.783,3.044,3.044,0,0,0,1.345,1.967,6.368,6.368,0,0,0,1.042.49,7.184,7.184,0,0,0,1.073.342,2.157,2.157,0,0,0,2.029-.435,3.879,3.879,0,0,0,.544-.692c.054-.086.078-.148.023-.233a1.872,1.872,0,0,0-.288-.264,2.722,2.722,0,0,1-.956-1.8,1.9,1.9,0,0,1,.832-2,3.083,3.083,0,0,1,2.643.482,4.3,4.3,0,0,1,2.091-2.775c1.189-.6,2.55-.668,3.77-1.182a2.236,2.236,0,0,0,.878-.56,1.127,1.127,0,0,0,.249-.412c.054-.194-.078-.365-.171-.521a9.644,9.644,0,0,0-3.533-2.772Z" transform="translate(-38.652 -88.966)" fill="#010202" fill-rule="evenodd"/>
        </g>
        <g id="humaaan-10_1_" transform="translate(0 14.502)">
          <g id="Bottom_x2F_Standing_x2F_Sprint_1_" transform="translate(0 40.367)">
            <path id="Leg_9_" d="M94.339-53.17c-.389,7.486,31.878,33.72,32,34.357q.082.42-14.139,24.454l2.907,1.57q20.3-24.789,19.79-27.766-.723-4.267-23.77-30.424Z" transform="translate(-85.516 53.201)" fill="#b18b67" fill-rule="evenodd"/>
            <path id="Pant_11_" d="M113.375,1.9l4.765,2.449C130.165-6.213,135.528-15.5,135.4-20.594q-.128-5.1-23.677-30.37L93.864-53.21c-1.547,17.249,29.3,34.062,29.639,34.847S118.676-10.94,113.375,1.9Z" transform="translate(-85.399 53.21)" fill="#0f1626" fill-rule="evenodd"/>
            <g id="Accessories_x2F_Shoe_x2F_Flat-Sneaker_3_" transform="translate(27.536 54.911) rotate(19.993)">
              <path id="shoe_9_" d="M.088,3.153a6.381,6.381,0,0,0-.008,2.1A15.421,15.421,0,0,0,.92,7.514q.921-.222,16.642-4.081c.086-1.539-.358-2.246-1.314-2.13s-1.757.2-2.394.257L5.273,0a.3.3,0,0,0-.35.241V.254l-.2,1.329A5.458,5.458,0,0,1,2.77,2.7,4.891,4.891,0,0,1,.827,2.617h0A.608.608,0,0,0,.12,3.1C.088,3.122.088,3.138.088,3.153Z" fill="#5b5b5c" fill-rule="evenodd"/>
            </g>
            <path id="Leg_8_" d="M94.4-48.045l-4.718,40.6L83.61,27.471l3.506-1L106.277-51.45Z" transform="translate(-83.128 52.818)" fill="#9a7759" fill-rule="evenodd"/>
            <g id="Accessories_x2F_Shoe_x2F_Flat-Sneaker_2_" transform="translate(0.022 75.555)">
              <path id="shoe_8_" d="M58.542-161.824a6.529,6.529,0,0,0-.552,2.029,15.459,15.459,0,0,0,.225,2.4q.956.023,17.124.35.711-2.192-.723-2.4c-.956-.14-1.749-.257-2.386-.365l-7.89-3.708a.3.3,0,0,0-.231-.009.3.3,0,0,0-.169.157v.008l-.536,1.228a5.38,5.38,0,0,1-2.176.575,4.853,4.853,0,0,1-1.858-.583h0a.6.6,0,0,0-.808.28.131.131,0,0,1-.02.038Z" transform="translate(-57.989 163.547)" fill="#5b5b5c" fill-rule="evenodd"/>
            </g>
            <path id="Pant_10_" d="M82.99,20.611l8.2-.77C94.673,9.27,109.473-34.236,107.4-51.92L90.064-46.953C84.343-32.1,86.154,9.97,82.99,20.611Z" transform="translate(-82.99 52.923)" fill="#152138" fill-rule="evenodd"/>
          </g>
          <g id="Body_x2F_Pointing-Up_1_" transform="translate(2.614)">
            <path id="Path_8266" data-name="Path 8266" d="M118.379,10.718a38.367,38.367,0,0,1-4.275.909l-8.333,6.2-3.451-4.555L113.4,8.6a25.942,25.942,0,0,1,5.643-4.3c.536-.163,1.454-.2.459,1.213s-1.982,2.946-1.6,3.459" transform="translate(-72.09 -4.219)" fill="#b18b67" fill-rule="evenodd"/>
            <path id="Shirt_3_" d="M67.58,53.375l23.25-2.519Q80.313,27.619,79.17,18.66c-.039-.3-.661-.785-.9-.684a8.6,8.6,0,0,1-5.915.054C67.8,27.49,67.075,38.614,67.58,53.375Z" transform="translate(-64.323 -7.279)" fill="#feca44" fill-rule="evenodd"/>
            <path id="Coat-Front_2_" d="M73.442,16.078c6.669-.668,17.614-.622,29.655-5.978l1.9,6.016C96.229,23.2,87.2,28.934,78.763,29.175,84.083,44.356,85.3,57.128,77.274,58q-5.748.618-12.4,1.345c-3.4-13.02-.218-31.924,3.576-41.7a1.657,1.657,0,0,1,1.384-1.182c.8-.086,2-.218,3.6-.389a.008.008,0,0,1,.008,0Z" transform="translate(-63.43 -5.528)" fill="#feca44" fill-rule="evenodd"/>
          </g>
        </g>
      </g>
    </g>
    <path id="Path_8267" data-name="Path 8267" d="M584.188,360.924a12.054,12.054,0,0,1-17.466,2.215l-56.254-46.95-.016-.016-4.345-9.133-6.91-14.512a1.173,1.173,0,0,1,1.368-1.64l15.515,4.2,9.771,2.635a.027.027,0,0,1,.016.008l55.92,46.67A12.328,12.328,0,0,1,584.188,360.924Z" transform="translate(-76.027 -86.811)" fill="#f39ea7" fill-rule="evenodd"/>
    <g id="humaaans_x2F_standing-13_1_" transform="translate(433.907 201.828)">
      <g id="Bottom_x2F_Standing_x2F_Baggy-Pants_1_" transform="translate(3.953 63.633)">
        <path id="Leg_13_" d="M564.642,369.88l-15.873,40.156-10.641,33.953h-4.2L550.2,369.88Z" transform="translate(-521.648 -369.872)" fill="#9a7759" fill-rule="evenodd"/>
        <path id="Leg_12_" d="M573.023,369.878c.171,14.116,2.635,33.114,3.024,33.992q.4.874,27.183,22.371l-2.892,3.094q-31.609-18.434-33.067-20.886c-1.461-2.456-6.226-25.076-10.051-38.578h15.8Z" transform="translate(-526.834 -369.87)" fill="#b18b67" fill-rule="evenodd"/>
        <g id="Accessories_x2F_Shoe_x2F_Flat-Sneaker_7_" transform="matrix(0.643, 0.766, -0.766, 0.643, 77.021, 53.958)">
          <path id="shoe_11_" d="M.9,1.065A7.112,7.112,0,0,1,2.94.155,15.941,15.941,0,0,1,5.505,0Q5.68,1,8.669,17.956q-2.192,1.108-2.643-.365c-.3-.979-.56-1.8-.777-2.449L.056,7.454A.325.325,0,0,1,.142,7,.008.008,0,0,0,.15,7l1.2-.77A5.681,5.681,0,0,0,1.6,3.84,5.272,5.272,0,0,0,.686,1.982h0a.648.648,0,0,1,.163-.9A.113.113,0,0,0,.9,1.065Z" fill="#e4e4e3" fill-rule="evenodd"/>
        </g>
        <g id="Accessories_x2F_Shoe_x2F_Flat-Sneaker_6_" transform="translate(0 70.584)">
          <path id="shoe_10_" d="M328.335,263.638a6.834,6.834,0,0,1,.544,2.169,16.106,16.106,0,0,1-.288,2.55H310.355c-.474-1.57-.2-2.41.824-2.534s1.866-.241,2.542-.342l8.473-3.778a.325.325,0,0,1,.427.163v.008l.544,1.321a5.777,5.777,0,0,0,2.3.661,5.208,5.208,0,0,0,1.99-.583h0a.643.643,0,0,1,.855.319.128.128,0,0,0,.025.046Z" transform="translate(-310.13 -261.675)" fill="#e4e4e3" fill-rule="evenodd"/>
        </g>
        <path id="Pant_15_" d="M553.987,440.491l-19.977-2.169,14.808-68.443h17.894Z" transform="translate(-521.666 -369.872)" fill="#6aa2ad" fill-rule="evenodd"/>
        <path id="Pant_14_" d="M598.649,421.243l-13.106,15.515q-20.708-22.62-24.143-29.515t-6.18-37.373h20.148q1.493,26.806,2.021,28.053T598.649,421.243Z" transform="translate(-526.389 -369.87)" fill="#8ac5cc" fill-rule="evenodd"/>
      </g>
      <g id="humaaan-5_1_">
        <g id="Head_x2F_Front_x2F_Long_1_" transform="translate(32.217 5.889) rotate(-15.009)">
          <path id="Hair-Back_1_" d="M8.957,2.7C5.763,5.849-.572,13.638.042,15.776L8.748,20.8c.008-.016.023-.031.031-.047a7.452,7.452,0,0,0,9.437-3.1l3.537-6.133A7.442,7.442,0,0,0,19.024,1.341l-.6-.35A7.475,7.475,0,0,0,8.957,2.7Z" fill="#222046" fill-rule="evenodd"/>
          <g id="Head_4_" transform="translate(4.149 1.223)">
            <path id="Path_8268" data-name="Path 8268" d="M11.341,13.35a9.249,9.249,0,0,0,5.5-4.54C20.07,2.188,10.323-1.574,6.724.633S-1.368,11.112.544,12.985c.762.746,3,1.29,5.612,1.251L0,22.087l7.206,4.159Z" fill="#b18b67" fill-rule="evenodd"/>
          </g>
          <path id="Hair-Front_1_" d="M4.191,12.005C1.82,15.348-.38,19.46.055,20.983L8.761,26c5.309-8.069-1.244-7.54,3.288-15.406-.132-.451-.241-.894-.373-1.29l.14-.225q.385-5.888-3.086-7.9C5.256-.82,3.235.151,1.517.967.841,3.742,3.351,5.667,4.906,8.53a1.944,1.944,0,0,1,1.251.233,1.89,1.89,0,0,1-1.889,3.273.2.2,0,0,1-.077-.031Z" transform="translate(9.967 0.366)" fill="#222046" fill-rule="evenodd"/>
        </g>
        <g id="Body_x2F_Pointing-Forward_1_" transform="translate(0 27.784) rotate(-10)">
          <path id="Skin_2_" d="M12.5,11.35,8.517,6.826q.4-4.337-1.049-4.889c-.622-.614-.536,3.187-1.842,2.386S1.8-.279,1.023.016C-.135.459-.2,3.094.293,4.6c.925,2.814,2.083,4.081,5.255,6.343A20.518,20.518,0,0,1,10.406,16.2Z" fill="#9a7759" fill-rule="evenodd"/>
          <path id="Clothes_4_" d="M27.136,18.485Q20.257,17.75,7.338,7.1.9,13.335,0,16.666c6.879,7.5,13.44,12.111,19.386,14.427a21.766,21.766,0,0,0-1.936,10.6c.684,7.416,20.319,7.929,25.784,11.217,8.022-10.571,2.658-18,5.426-25.62,3.032-8.348.972-23.646-.016-24L39.612,0C36.783,6.187,31.714,12.3,27.136,18.485Z" transform="translate(2.765 0.677)" fill="#f7c5b2" fill-rule="evenodd"/>
        </g>
      </g>
    </g>
    <path id="Path_8269" data-name="Path 8269" d="M231.892,119.45,212.42,146.7l51.552-17.622Z" transform="translate(-12.193 -48.645)" fill="#addce9"/>
    <path id="Path_8270" data-name="Path 8270" d="M259.937,95.29,234.76,135.376l69.624-23.794Z" transform="translate(-17.167 -43.264)" fill="#4f9cb9"/>
    <circle id="Ellipse_115" data-name="Ellipse 115" cx="6.716" cy="6.716" r="6.716" transform="translate(203.531 45.776)" fill="#fff"/>
    <path id="Path_8271" data-name="Path 8271" d="M292.761,287.779H199.6a5.708,5.708,0,0,1-5.69-5.69V188.92a5.708,5.708,0,0,1,5.69-5.69h93.161a5.708,5.708,0,0,1,5.69,5.69v93.161a5.7,5.7,0,0,1-5.69,5.7Z" transform="translate(-8.071 -62.847)" fill="#608398"/>
    <path id="Path_8274" data-name="Path 8274" d="M252.624,218.56H205.091a.451.451,0,0,1-.451-.451v-1.3a.451.451,0,0,1,.451-.451h47.533a.451.451,0,0,1,.451.451v1.3A.451.451,0,0,1,252.624,218.56Z" transform="translate(-3.874 -63.831)" fill="#366480"/>
    <path id="Path_8275" data-name="Path 8275" d="M252.624,227.18H205.091a.451.451,0,0,1-.451-.451v-1.3a.451.451,0,0,1,.451-.451h47.533a.451.451,0,0,1,.451.451v1.3A.451.451,0,0,1,252.624,227.18Z" transform="translate(-3.874 -65.75)" fill="#366480"/>
    <path id="Path_8276" data-name="Path 8276" d="M237.989,235.8H205.1a.451.451,0,0,1-.451-.451v-1.3a.451.451,0,0,1,.451-.451h32.888a.451.451,0,0,1,.451.451v1.3A.451.451,0,0,1,237.989,235.8Z" transform="translate(-3.883 -67.67)" fill="#366480"/>
    <path id="Path_8277" data-name="Path 8277" d="M230.715,206.686H208.033a1.145,1.145,0,0,1-1.143-1.143v-3.28a1.145,1.145,0,0,1,1.143-1.143h22.682a1.144,1.144,0,0,1,1.143,1.143v3.28a1.144,1.144,0,0,1-1.143,1.143Z" transform="translate(-6.124 -60.437)" fill="#366480"/>
    <path id="Path_8278" data-name="Path 8278" d="M255.834,278.45H208.3a.451.451,0,0,1-.451-.451v-1.3a.451.451,0,0,1,.451-.451h47.533a.451.451,0,0,1,.451.451V278a.446.446,0,0,1-.45.45Z" transform="translate(-6.913 -96.349)" fill="#366480"/>
    <path id="Path_8279" data-name="Path 8279" d="M255.834,269.52H208.3a.451.451,0,0,1-.451-.451v-1.3a.451.451,0,0,1,.451-.451h47.533a.451.451,0,0,1,.451.451v1.3a.446.446,0,0,1-.45.451Z" transform="translate(-6.913 -94.36)" fill="#366480"/>
    <path id="Path_8280" data-name="Path 8280" d="M255.834,287.07H208.3a.451.451,0,0,1-.451-.451v-1.3a.451.451,0,0,1,.451-.451h47.533a.451.451,0,0,1,.451.451v1.3a.446.446,0,0,1-.45.451Z" transform="translate(-6.913 -98.268)" fill="#366480"/>
    <path id="Path_8281" data-name="Path 8281" d="M241.2,295.69H208.311a.451.451,0,0,1-.451-.451v-1.3a.451.451,0,0,1,.451-.451H241.2a.451.451,0,0,1,.451.451v1.3A.451.451,0,0,1,241.2,295.69Z" transform="translate(-6.915 -100.188)" fill="#366480"/>
    <rect id="Rectangle_358" data-name="Rectangle 358" width="58.952" height="3.98" transform="translate(152.605 10.958)" fill="#608398"/>
    <g id="Group_966" data-name="Group 966" transform="translate(314.12 24.128)">
      <path id="Path_8282" data-name="Path 8282" d="M491.449,177.342H363.138a4.21,4.21,0,0,1-4.2-4.2V63.6a4.21,4.21,0,0,1,4.2-4.2H491.449a4.21,4.21,0,0,1,4.2,4.2V173.145A4.2,4.2,0,0,1,491.449,177.342Z" transform="translate(-358.94 -59.4)" fill="#608398"/>
      <path id="Path_8283" data-name="Path 8283" d="M500.936,74.134H434.4a.64.64,0,0,1-.637-.637v-1.82a.64.64,0,0,1,.637-.637h66.538a.64.64,0,0,1,.637.637V73.5A.64.64,0,0,1,500.936,74.134Z" transform="translate(-375.601 -61.992)" fill="#366480"/>
      <path id="Path_8284" data-name="Path 8284" d="M500.936,88H434.4a.64.64,0,0,1-.637-.637V85.547a.64.64,0,0,1,.637-.637h66.538a.64.64,0,0,1,.637.637v1.819A.64.64,0,0,1,500.936,88Z" transform="translate(-375.601 -65.081)" fill="#366480"/>
      <path id="Path_8285" data-name="Path 8285" d="M500.936,101.874H434.4a.64.64,0,0,1-.637-.637v-1.82a.64.64,0,0,1,.637-.637h66.538a.64.64,0,0,1,.637.637v1.819A.64.64,0,0,1,500.936,101.874Z" transform="translate(-375.601 -68.169)" fill="#366480"/>
      <path id="Path_8286" data-name="Path 8286" d="M500.936,115.744H434.4a.64.64,0,0,1-.637-.637v-1.819a.64.64,0,0,1,.637-.637h66.538a.64.64,0,0,1,.637.637v1.819a.64.64,0,0,1-.639.637Z" transform="translate(-375.601 -71.258)" fill="#366480"/>
      <path id="Path_8287" data-name="Path 8287" d="M500.936,129.614H434.4a.64.64,0,0,1-.637-.637v-1.819a.64.64,0,0,1,.637-.637h66.538a.64.64,0,0,1,.637.637v1.819a.64.64,0,0,1-.639.637Z" transform="translate(-375.601 -74.347)" fill="#366480"/>
      <path id="Path_8288" data-name="Path 8288" d="M487.35,143.484H373.387a.64.64,0,0,1-.637-.637v-1.819a.64.64,0,0,1,.637-.637h113.97a.64.64,0,0,1,.637.637v1.819A.647.647,0,0,1,487.35,143.484Z" transform="translate(-362.015 -77.435)" fill="#366480"/>
      <path id="Path_8289" data-name="Path 8289" d="M487.35,157.364H373.387a.64.64,0,0,1-.637-.637v-1.819a.64.64,0,0,1,.637-.637h113.97a.64.64,0,0,1,.637.637v1.819A.652.652,0,0,1,487.35,157.364Z" transform="translate(-362.015 -80.526)" fill="#366480"/>
      <path id="Path_8290" data-name="Path 8290" d="M487.35,171.234H373.387a.64.64,0,0,1-.637-.637v-1.819a.64.64,0,0,1,.637-.637h113.97a.64.64,0,0,1,.637.637V170.6a.652.652,0,0,1-.644.634Z" transform="translate(-362.015 -83.615)" fill="#366480"/>
      <path id="Path_8291" data-name="Path 8291" d="M487.35,185.1H373.387a.64.64,0,0,1-.637-.637v-1.819a.64.64,0,0,1,.637-.637h113.97a.64.64,0,0,1,.637.637v1.819A.652.652,0,0,1,487.35,185.1Z" transform="translate(-362.015 -86.703)" fill="#366480"/>
      <path id="Path_8292" data-name="Path 8292" d="M487.35,198.974H373.387a.64.64,0,0,1-.637-.637v-1.819a.64.64,0,0,1,.637-.637h113.97a.64.64,0,0,1,.637.637v1.819a.652.652,0,0,1-.644.637Z" transform="translate(-362.015 -89.792)" fill="#366480"/>
      <path id="Path_8293" data-name="Path 8293" d="M387.682,78.417H372.75V73.03h36.34v5.387h-15V122.11h-6.413V78.417Z" transform="translate(-362.015 -62.435)" fill="#366480"/>
    </g>
    <path id="Coat-Back_2_" d="M194.68,332.618l.233-3.288c12.927-9.25,33.432-9.336,47.183-21.19l3.42,4.493C236.367,336.784,211.276,337.2,194.68,332.618Z" transform="translate(-8.242 -90.663)" fill="#1d8ccc" fill-rule="evenodd"/>
    <g id="Head_8_" transform="translate(187.302 207.335)">
      <path id="Path_8294" data-name="Path 8294" d="M141.241,275.273a10.03,10.03,0,0,1-3.9-6.685c-.8-7.952,10.525-8.123,13.354-4.532s4.306,13.689,1.656,14.878c-1.057.474-3.529.187-6.18-.832l3.327,10.292-8.885,1.531Z" transform="translate(-137.298 -261.809)" fill="#cba581" fill-rule="evenodd"/>
    </g>
    <path id="Hair_4_" d="M202.176,302.416c-.086.008-.179.016-.264.031a2.234,2.234,0,0,0-.9,4.05c-.389.808-.839,1.656-1.36,2.55a8.84,8.84,0,0,1-3.475-3.482,8.992,8.992,0,0,1-.754-6.4,6.763,6.763,0,0,1,3.972-4.034,6.584,6.584,0,0,1,4.174-1.042,14.029,14.029,0,0,1,5.6.49c.4,2.34.07,3.109-3.848,3.723a7.344,7.344,0,0,0-2.037,2.93Z" transform="translate(-8.346 -87.52)" fill="#43342f" fill-rule="evenodd"/>
    <path id="Leg_19_" d="M202.64,368.09l14.139,47.968,8.753,40.265,4.866.443-11.046-87.153Z" transform="translate(-10.015 -104.013)" fill="#9a7759" fill-rule="evenodd"/>
    <path id="Leg_18_" d="M192.469,373.162c4.1,15.818,7.1,37.793,6.926,38.9q-.175,1.108-23.685,33.277l4.19,2.581q29.849-30.222,30.743-33.409c.894-3.2-.637-29.911-.451-46.157Z" transform="translate(-4.018 -104.07)" fill="#b18b67" fill-rule="evenodd"/>
    <path id="shoe_17_" d="M173.756,466.013a7.885,7.885,0,0,0-1.951,1.71,19.1,19.1,0,0,0-1.415,2.627q.968.676,17.4,12.087c1.492-1.182,1.788-2.169.9-2.962s-1.625-1.469-2.2-2.013l-5.581-9.227a.371.371,0,0,0-.513-.124.008.008,0,0,0-.008.008l-1.4.9a6.7,6.7,0,0,1-2.635-.894,6.059,6.059,0,0,1-1.516-1.873h0a.748.748,0,0,0-1.026-.264.077.077,0,0,0-.055.025Z" transform="translate(-2.833 -125.79)" fill="#e4e4e3" fill-rule="evenodd"/>
    <path id="shoe_16_" d="M229.485,478.62a7.964,7.964,0,0,0-.855,2.449,18.58,18.58,0,0,0,.07,2.985q1.178.1,21.1,1.92c.715-1.764.49-2.767-.684-3.024s-2.138-.474-2.907-.661l-9.406-5.262a.375.375,0,0,0-.513.148.008.008,0,0,1-.008.008l-.77,1.469a6.737,6.737,0,0,1-2.736.521,6.024,6.024,0,0,1-2.239-.886h0a.746.746,0,0,0-1.026.28.436.436,0,0,0-.026.053Z" transform="translate(-15.795 -128.26)" fill="#e4e4e3" fill-rule="evenodd"/>
    <path id="Pant_19_" d="M206.887,450.555l23.351-.389-9.95-80.468L199.58,367.81Z" transform="translate(-9.333 -103.95)" fill="#0f1626" fill-rule="evenodd"/>
    <path id="Pant_18_" d="M179.73,438.347l19.41,13.331q16.347-31.575,18.111-40.327t-4.415-43.631l-22.589,6.141q6.46,30.4,6.257,31.955Q196.283,407.379,179.73,438.347Z" transform="translate(-4.913 -103.93)" fill="#152138" fill-rule="evenodd"/>
    <path id="Path_8295" data-name="Path 8295" d="M190.82,442.82h-32.4a3.812,3.812,0,0,1-3.8-3.8V416.6a3.812,3.812,0,0,1,3.8-3.8h32.4a3.812,3.812,0,0,1,3.8,3.8v22.418a3.812,3.812,0,0,1-3.8,3.8Z" transform="translate(0.678 -113.969)" fill="#868686" fill-rule="evenodd"/>
    <path id="Path_8296" data-name="Path 8296" d="M179.6,407.185a41.032,41.032,0,0,0-1.477-5.7l2.145-12.655-6.926-1.213,1.065,14.8a32.182,32.182,0,0,0-1.562,8.636c.124.684.591,1.718,1.586-.187s2.13-3.848,2.9-3.716" transform="translate(-3.379 -108.362)" fill="#b18b67" fill-rule="evenodd"/>
    <path id="Shirt_4_" d="M192.826,362.491l28.644-2.4c1.306-.109.9-1.967.637-2.9-3.1-10.766-12.616-21.858-13.922-37.451l-8.372-.6C193.891,330.652,192.655,344.317,192.826,362.491Z" transform="translate(-7.826 -93.112)" fill="#dde3e9" fill-rule="evenodd"/>
    <path id="Coat-Front_3_" d="M183.121,331.71a4.747,4.747,0,0,1-3.055-2.161c-3.475-5.169-2.635-8.247.513-9.5s6.2.529,11.333.093a5.214,5.214,0,0,1,.77-.016l2.6-.07q14.283,36.6,10.338,49.577l-22.542,1.889a76.843,76.843,0,0,1-3.179,8.146l-6.141.513Q170.56,352.363,183.121,331.71Z" transform="translate(-3.438 -93.214)" fill="#1d8ccc" fill-rule="evenodd"/>
    <path id="Shade_3_" d="M193.482,368.25q1.807,8.768,4.532,12.561l-8.364.7Q191.527,375.9,193.482,368.25Z" transform="translate(-7.122 -104.048)" fill="rgba(2,2,3,0.1)" fill-rule="evenodd"/>
    <path id="Path_8297" data-name="Path 8297" d="M263.157,302.978A15.842,15.842,0,0,1,280.1,318.734V415.02a.029.029,0,0,1-.008.023l-5.542,12.087-8.823,19.192a1.545,1.545,0,0,1-2.806,0l-8.823-19.192-5.566-12.072c0-.008-.008-.016-.008-.023v-95.71C248.512,310.93,254.793,303.585,263.157,302.978Z" transform="translate(-20.231 -89.504)" fill="#feca44" fill-rule="evenodd"/>
    <g id="Group_967" data-name="Group 967" transform="translate(165.341 306.061)">
      <path id="Path_8298" data-name="Path 8298" d="M173.79,430.1l-6.25,4.47h12.507Z" transform="translate(-167.54 -423.882)" fill="#addce9"/>
      <path id="Path_8299" data-name="Path 8299" d="M181.4,427.05l-8.442,6.84h16.891Z" transform="translate(-168.747 -423.202)" fill="#3861ab"/>
      <circle id="Ellipse_117" data-name="Ellipse 117" cx="1.539" cy="1.539" r="1.539" transform="translate(4.019 0)" fill="#fff"/>
    </g>
    <path id="Path_8362" data-name="Path 8362" d="M206.5,333.475l4.9-3.24,4.617,3.24,5.134-3.24,3.963,3.24,5.155-3.24,3.651,3.24" transform="translate(23.976 -8.55)" fill="none" stroke="#1e3f53" stroke-linecap="round" stroke-width="1"/>
  </g>
</svg>
