<svg xmlns="http://www.w3.org/2000/svg" width="559" height="207" viewBox="0 0 559 207">
  <g id="Group_2172" data-name="Group 2172" transform="translate(-675.503 -8099.166)">
    <g id="back_end" data-name="back end" transform="translate(676 8099.166)">
      <g id="Group_2152" data-name="Group 2152">
        <g id="Component_141_3" data-name="Component 141 – 3" transform="translate(-0.497)">
          <g id="Ellipse_125" data-name="Ellipse 125" transform="translate(175)" fill="none" stroke="#fff" stroke-width="1">
            <circle cx="103.5" cy="103.5" r="103.5" stroke="none"/>
            <circle cx="103.5" cy="103.5" r="103" fill="none"/>
          </g>
          <g id="Ellipse_125-2" data-name="Ellipse 125" transform="translate(352)" fill="none" stroke="#fff" stroke-width="1">
            <circle cx="103.5" cy="103.5" r="103.5" stroke="none"/>
            <circle cx="103.5" cy="103.5" r="103" fill="none"/>
          </g>
          <g id="Ellipse_125-3" data-name="Ellipse 125" fill="none" stroke="#fff" stroke-width="1">
            <circle cx="103.5" cy="103.5" r="103.5" stroke="none"/>
            <circle cx="103.5" cy="103.5" r="103" fill="none"/>
          </g>
        </g>
      </g>
    </g>
    <g id="Group_2167" data-name="Group 2167" transform="translate(911.874 8136.951)">
      <path id="Path_8455" data-name="Path 8455" d="M6483.329,10546.883h46.052" transform="translate(-6436.932 -10465.981)" fill="none" stroke="#366480" stroke-linecap="round" stroke-width="3"/>
      <path id="Path_8452" data-name="Path 8452" d="M6483.329,10546.883h20.891" transform="translate(-6436.932 -10476.754)" fill="none" stroke="#8fba5c" stroke-linecap="round" stroke-width="3"/>
      <g id="Component_89_1" data-name="Component 89 – 1" transform="translate(0 62.976)">
        <text id="_" data-name="&lt;/&gt;" transform="translate(-0.371 23.239)" fill="#8fba5c" font-size="22" font-family="SourceSansPro-Regular, Source Sans Pro"><tspan x="0" y="0">&lt;/&gt;</tspan></text>
      </g>
      <path id="Path_8461" data-name="Path 8461" d="M6483.329,10546.883h71.059" transform="translate(-6482.896 -10433.388)" fill="none" stroke="#366480" stroke-linecap="round" stroke-width="3"/>
      <path id="Path_8462" data-name="Path 8462" d="M6483.329,10546.883h32.461" transform="translate(-6482.896 -10444.16)" fill="none" stroke="#8fba5c" stroke-linecap="round" stroke-width="3"/>
      <path id="Path_8463" data-name="Path 8463" d="M6483.329,10546.883h3.038" transform="translate(-6437.691 -10444.16)" fill="none" stroke="#8fba5c" stroke-linecap="round" stroke-width="3"/>
      <path id="Path_8464" data-name="Path 8464" d="M6483.329,10546.883h3.038" transform="translate(-6429.074 -10444.16)" fill="none" stroke="#8fba5c" stroke-linecap="round" stroke-width="3"/>
      <path id="Path_8465" data-name="Path 8465" d="M6483.329,10546.883h3.038" transform="translate(-6420.455 -10444.16)" fill="none" stroke="#8fba5c" stroke-linecap="round" stroke-width="3"/>
      <path id="Path_8466" data-name="Path 8466" d="M6483.329,10546.883h3.038" transform="translate(-6411.837 -10444.16)" fill="none" stroke="#8fba5c" stroke-linecap="round" stroke-width="3"/>
      <path id="Path_8467" data-name="Path 8467" d="M6483.329,10546.883h3.038" transform="translate(-6403.218 -10444.16)" fill="none" stroke="#8fba5c" stroke-linecap="round" stroke-width="3"/>
      <path id="Path_8468" data-name="Path 8468" d="M6483.329,10546.883h3.038" transform="translate(-6394.601 -10444.16)" fill="none" stroke="#8fba5c" stroke-linecap="round" stroke-width="3"/>
      <path id="Path_8469" data-name="Path 8469" d="M6483.329,10546.883h46.052" transform="translate(-6436.932 -10455.927)" fill="none" stroke="#8fba5c" stroke-linecap="round" stroke-width="3"/>
      <path id="Path_8470" data-name="Path 8470" d="M6483.329,10546.883h.146" transform="translate(-6411.119 -10476.754)" fill="none" stroke="#8fba5c" stroke-linecap="round" stroke-width="3"/>
      <path id="Path_8471" data-name="Path 8471" d="M6483.329,10546.883h.146" transform="translate(-6404.655 -10476.754)" fill="none" stroke="#8fba5c" stroke-linecap="round" stroke-width="3"/>
      <path id="Path_8472" data-name="Path 8472" d="M6483.329,10546.883h.146" transform="translate(-6398.19 -10476.754)" fill="none" stroke="#8fba5c" stroke-linecap="round" stroke-width="3"/>
      <text id="BACK_END-2" data-name="BACK END" transform="translate(12.629 13.215)" fill="#dce3e6" font-size="13" font-family="SourceSansPro-Regular, Source Sans Pro"><tspan x="0" y="0">BACK END</tspan></text>
    </g>
    <g id="integration" transform="translate(1090.496 8142.676)">
      <path id="Path_8480" data-name="Path 8480" d="M834.664,10489.867h-104" transform="translate(-692.487 -10414.892)" fill="none" stroke="#366480" stroke-linecap="round" stroke-width="3"/>
      <path id="Path_8482" data-name="Path 8482" d="M702.589,10591.63v-55.839h69.538v20.348" transform="translate(-687.935 -10436.637)" fill="none" stroke="#366480" stroke-linecap="round" stroke-width="3"/>
      <path id="Icon_feather-cloud" data-name="Icon feather-cloud" d="M19.672,12.414H18.325A8.553,8.553,0,1,0,10.05,23.1h9.622a5.345,5.345,0,1,0,0-10.691Z" transform="translate(92.147 60.424)" fill="#1e3f53" stroke="#8fba5c" stroke-linecap="round" stroke-linejoin="round" stroke-width="3"/>
      <path id="Path_8481" data-name="Path 8481" d="M6983.072,10434.968v73.145" transform="translate(-6955.958 -10348.517)" fill="none" stroke="#366480" stroke-linecap="round" stroke-width="3"/>
      <path id="Path_8483" data-name="Path 8483" d="M6993.606,10473.726h28.2" transform="translate(-6959.06 -10363.215)" fill="none" stroke="#366480" stroke-linecap="round" stroke-width="3"/>
      <path id="Path_8484" data-name="Path 8484" d="M6993.606,10473.726h16.261" transform="translate(-6959.06 -10353.949)" fill="none" stroke="#366480" stroke-linecap="round" stroke-width="3"/>
      <path id="Path_8485" data-name="Path 8485" d="M6483.329,10546.883h.146" transform="translate(-6448.782 -10418.002)" fill="none" stroke="#8fba5c" stroke-linecap="round" stroke-width="3"/>
      <path id="Path_8486" data-name="Path 8486" d="M6483.329,10546.883h.146" transform="translate(-6442.367 -10418.002)" fill="none" stroke="#8fba5c" stroke-linecap="round" stroke-width="3"/>
      <path id="Path_8487" data-name="Path 8487" d="M6483.329,10546.883h.146" transform="translate(-6435.953 -10418.002)" fill="none" stroke="#8fba5c" stroke-linecap="round" stroke-width="3"/>
      <path id="Path_8488" data-name="Path 8488" d="M6483.329,10546.883h.146" transform="translate(-6429.539 -10418.002)" fill="none" stroke="#8fba5c" stroke-linecap="round" stroke-width="3"/>
      <g id="Icon_feather-settings" data-name="Icon feather-settings" transform="translate(14.654 62.954)">
        <path id="Path_8478" data-name="Path 8478" d="M19.915,16.707A3.207,3.207,0,1,1,16.708,13.5a3.207,3.207,0,0,1,3.207,3.207Z" transform="translate(-4.947 -4.947)" fill="none" stroke="#8fba5c" stroke-linecap="round" stroke-linejoin="round" stroke-width="2"/>
        <path id="Path_8479" data-name="Path 8479" d="M21.171,16.467a1.764,1.764,0,0,0,.353,1.946l.064.064A2.139,2.139,0,1,1,18.563,21.5l-.064-.064A1.778,1.778,0,0,0,15.484,22.7v.182a2.138,2.138,0,1,1-4.276,0v-.1a1.764,1.764,0,0,0-1.155-1.614,1.764,1.764,0,0,0-1.946.353l-.064.064a2.14,2.14,0,0,1-3.026-3.026l.064-.064A1.778,1.778,0,0,0,3.82,15.484H3.638a2.138,2.138,0,1,1,0-4.276h.1a1.764,1.764,0,0,0,1.614-1.155A1.764,1.764,0,0,0,5,8.107l-.064-.064A2.139,2.139,0,1,1,7.957,5.017l.064.064a1.764,1.764,0,0,0,1.946.353h.086A1.764,1.764,0,0,0,11.122,3.82V3.638a2.138,2.138,0,1,1,4.276,0v.1A1.778,1.778,0,0,0,18.413,5l.064-.064A2.139,2.139,0,1,1,21.5,7.957l-.064.064a1.764,1.764,0,0,0-.353,1.946v.086A1.764,1.764,0,0,0,22.7,11.122h.182a2.138,2.138,0,1,1,0,4.276h-.1a1.764,1.764,0,0,0-1.614,1.069Z" transform="translate(-1.5 -1.5)" fill="none" stroke="#8fba5c" stroke-linecap="round" stroke-linejoin="round" stroke-width="2"/>
      </g>
      <g id="Icon_feather-database" data-name="Icon feather-database" transform="translate(75.6 120.328)">
        <path id="Path_8475" data-name="Path 8475" d="M23.744,6.207c0,1.771-4.308,3.207-9.622,3.207S4.5,7.979,4.5,6.207,8.808,3,14.122,3,23.744,4.436,23.744,6.207Z" transform="translate(-4.5 -3)" fill="none" stroke="#8fba5c" stroke-linecap="round" stroke-linejoin="round" stroke-width="2"/>
        <path id="Path_8476" data-name="Path 8476" d="M23.744,18c0,1.775-4.276,3.207-9.622,3.207S4.5,19.775,4.5,18" transform="translate(-4.5 -7.309)" fill="none" stroke="#8fba5c" stroke-linecap="round" stroke-linejoin="round" stroke-width="2"/>
        <path id="Path_8477" data-name="Path 8477" d="M4.5,7.5V22.467c0,1.775,4.276,3.207,9.622,3.207s9.622-1.433,9.622-3.207V7.5" transform="translate(-4.5 -4.293)" fill="none" stroke="#8fba5c" stroke-linecap="round" stroke-linejoin="round" stroke-width="2"/>
      </g>
      <text id="INTEGRATIONS" transform="translate(0.007 13.49)" fill="#dce3e6" font-size="13" font-family="SourceSansPro-Regular, Source Sans Pro"><tspan x="0" y="0">INTEGRATIONS</tspan></text>
    </g>
    <g id="front_ed" data-name="front ed" transform="translate(677.708 8139.241)">
      <g id="Component_90_1" data-name="Component 90 – 1" transform="translate(30.352 79.006)">
        <path id="Path_8448" data-name="Path 8448" d="M6475.414,10526.993h123.349s12.246-1.409,12.246,13.609v95.988" transform="translate(-6505.767 -10555.029)" fill="none" stroke="#366480" stroke-width="3"/>
        <path id="Path_8449" data-name="Path 8449" d="M6483.329,10546.883H6616.2" transform="translate(-6511.811 -10558.061)" fill="none" stroke="#366480" stroke-width="3"/>
        <path id="Path_8450" data-name="Path 8450" d="M6483.329,10546.883h57.984" transform="translate(-6445.771 -10538.558)" fill="none" stroke="#366480" stroke-linecap="round" stroke-width="3"/>
        <path id="Path_8451" data-name="Path 8451" d="M6483.329,10546.883h26.817" transform="translate(-6445.671 -10525.314)" fill="none" stroke="#366480" stroke-linecap="round" stroke-width="3"/>
        <path id="Path_8453" data-name="Path 8453" d="M6483.329,10546.883h9.554" transform="translate(-6445.671 -10513.119)" fill="none" stroke="#366480" stroke-linecap="round" stroke-width="3"/>
        <path id="Path_8454" data-name="Path 8454" d="M6483.329,10546.883h9.554" transform="translate(-6397.438 -10513.119)" fill="none" stroke="#366480" stroke-linecap="round" stroke-width="3"/>
        <path id="Path_8455-2" data-name="Path 8455" d="M6483.329,10546.883h26.817" transform="translate(-6431.255 -10513.119)" fill="none" stroke="#366480" stroke-linecap="round" stroke-width="3"/>
        <path id="Path_8452-2" data-name="Path 8452" d="M6483.329,10546.883H6507.4" transform="translate(-6411.854 -10525.314)" fill="none" stroke="#366480" stroke-linecap="round" stroke-width="3"/>
        <circle id="Ellipse_132" data-name="Ellipse 132" cx="3.5" cy="3.5" r="3.5" transform="translate(89.442 -23.082)" fill="#8fba5c"/>
        <ellipse id="Ellipse_133" data-name="Ellipse 133" cx="2.5" cy="3.5" rx="2.5" ry="3.5" transform="translate(79.442 -23.082)" fill="#8fba5c"/>
        <ellipse id="Ellipse_134" data-name="Ellipse 134" cx="3" cy="3.5" rx="3" ry="3.5" transform="translate(68.442 -23.082)" fill="#8fba5c"/>
        <text id="_2" data-name="{  }" transform="translate(0.443 29.918)" fill="#8fba5c" font-size="29" font-family="SourceSansPro-Regular, Source Sans Pro"><tspan x="0" y="0" xml:space="preserve">{  }</tspan></text>
      </g>
      <text id="FRONT_END" data-name="FRONT END" transform="translate(65.795 12.924)" fill="#dce3e6" font-size="13" font-family="SourceSansPro-Regular, Source Sans Pro"><tspan x="0" y="0">FRONT END</tspan></text>
    </g>
  </g>
</svg>
