<svg id="develop-illustration" xmlns="http://www.w3.org/2000/svg" xmlns:xlink="http://www.w3.org/1999/xlink" width="627.376" height="300.742" viewBox="0 0 627.376 300.742">
  <defs>
    <clipPath id="clip-path">
      <rect id="Rectangle_360" data-name="Rectangle 360" width="260.371" height="148.141" transform="translate(0)"/>
    </clipPath>
    <clipPath id="clip-path-4">
      <rect id="Rectangle_364" data-name="Rectangle 364" width="260.371" height="148.141" rx="11"/>
    </clipPath>
  </defs>
  <g id="devpixel_illustrations-05" data-name="devpixel illustrations-05" transform="translate(0 150.67)">
    <g id="Group_985" data-name="Group 985">
      <path id="Path_8701" data-name="Path 8701" d="M-549.021,921.4c-8.208,1.793-600.664,0-600.664,0s-24.8,4.666,16.959,6.4,136.221,6.068,162.662,6.734,82.489,4.436,116.557,4.046,151.249-3.876,198.592-4.046S-549.021,921.4-549.021,921.4Z" transform="translate(1156.995 -788.54)" fill="#8d6339"/>
      <g id="Group_975" data-name="Group 975" transform="translate(367.005)" clip-path="url(#clip-path)">
        <path id="Path_8305" data-name="Path 8305" d="M152.48,361.292s.82-6.455,7.095-5.442c-3-9.631,11.811-8.52,9.279,0,5.185-4.446,7.369-2.648,7.369-2.648s-7.64-12.829,3.545-18.091c-.545-9.455,16.919-9.627,16.1,1.558,8.73-6.55,13.369,1.09,13.369,1.09s12.258-11.009,20.863,2-4.94,20.524-4.94,20.524Z" transform="translate(-8.93 -226.782)" fill="#c1d55b"/>
      </g>
      <g id="Group_976" data-name="Group 976" transform="translate(367.005)" clip-path="url(#clip-path)">
        <path id="Path_8306" data-name="Path 8306" d="M498.53,335.4s6.46-7.622,12.926-5.987c.932-8.241,13.643-5.5,13.643-5.5s-2.874-11.657,7.9-12.082,18.635,11.288,12.536,22.438c6.85.6,6.1,8.515,6.1,8.515s12.237,1.468,8.465,9.193H488.479S482.013,339.2,498.53,335.4Z" transform="translate(-808.008 -219.462)" fill="#c1d55b"/>
      </g>
      <g id="Group_978" data-name="Group 978" transform="translate(367.005)" clip-path="url(#clip-path)">
        <path id="Path_8308" data-name="Path 8308" d="M237.1,363.527s9.378-5.889,11.9-2.605c-3.253-6.193,4.455-10.55,8.571-6.292,4.348-5.678,10.816,6.215,7.584,13.515,6.468-1.172,6.932,7.575,6.932,7.575H225.037S221.749,362.39,237.1,363.527Z" transform="translate(-80.176 -241.932)" fill="#aeb864"/>
      </g>
    </g>
  </g>
  <g id="devpixel_illustrations-07" data-name="devpixel illustrations-07" transform="translate(73.005)">
    <g id="Group_1018" data-name="Group 1018" transform="translate(87.94)">
      <path id="Path_8258" data-name="Path 8258" d="M372.253,203.572H141.915a6.835,6.835,0,0,1-6.815-6.815V35.175a6.835,6.835,0,0,1,6.815-6.815H372.253a6.835,6.835,0,0,1,6.815,6.815V196.758A6.835,6.835,0,0,1,372.253,203.572Z" transform="translate(-135.1 -28.36)" fill="#366480"/>
    </g>
    <path id="Skin_3_" d="M437.881,374.632c8.261-18.292,14.238-34.219,16.643-42.626,4.111-14.391,7.232-27.052,8.02-31.782,1.882-11.278-14.487-11.929-16.651-6.331-3.274,8.478-8.993,36.351-15.863,78.438Z" transform="translate(-157.787 -100.755)" fill="#9b7a5f" fill-rule="evenodd"/>
    <path id="shoe_2_" d="M435.627,389.93a13.8,13.8,0,0,1,1.086,4.328,32.4,32.4,0,0,1-.579,5.092H399.75c-.949-3.129-.4-4.81,1.641-5.06s3.732-.475,5.076-.676l16.909-7.537a.645.645,0,0,1,.853.33c0,.008.008.008.008.016l1.086,2.638a11.641,11.641,0,0,0,4.593,1.319,10.387,10.387,0,0,0,3.966-1.158h0a1.289,1.289,0,0,1,1.713.635A.632.632,0,0,1,435.627,389.93Z" transform="translate(-151.776 -119.447)" fill="#bab7b5" fill-rule="evenodd"/>
    <path id="Path_8373" data-name="Path 8373" d="M189.157,372.7h-3.724l-2.622-99.224a3.826,3.826,0,0,1,3.813-3.813h0a3.826,3.826,0,0,1,3.813,3.813Z" transform="translate(-109.433 -96.688)" fill="#c5cfd6" fill-rule="evenodd"/>
    <path id="Path_8374" data-name="Path 8374" d="M478.007,372.357h-3.724l-2.622-99.224a3.826,3.826,0,0,1,3.813-3.813h0a3.826,3.826,0,0,1,3.813,3.813Z" transform="translate(-165.93 -96.622)" fill="#c5cfd6" fill-rule="evenodd"/>
    <g id="humaaans_x2F_standing-5" transform="translate(68.793 22.735)">
      <g id="humaaan-10">
        <g id="Head_x2F_Front_x2F_Short-1" transform="translate(54.388)">
          <g id="Head_1_" transform="translate(0 2.097)">
            <path id="Path_8375" data-name="Path 8375" d="M104.089,48.026c-2.2-3.789-3.354-8.157-2.22-12.605,3.274-12.814,20.818-6.669,23.143.523s-1.118,23.73-5.872,24.076c-1.9.137-5.55-1.705-9.042-4.794l-.708,17.89L94.83,70.469Z" transform="translate(-94.83 -27.981)" fill="#b28b67" fill-rule="evenodd"/>
          </g>
          <path id="Hair_1_" d="M176.078,67.6c-2.18.748-3.958,2.558-6.146,4.971a3.66,3.66,0,0,0-1.287-.491,3.7,3.7,0,0,0-3.684,5.776c-1.062,1.038-2.228,2.108-3.539,3.185-3.6-3.153-4.5-9.2-.654-17.195,5.8-13.039,23.475-.824,27.513-2.473C188.168,66.477,184.894,70.008,176.078,67.6Z" transform="translate(-152.49 -57.761)" fill="#262536" fill-rule="evenodd"/>
        </g>
        <g id="Bottom_x2F_Standing_x2F_Baggy-Pants" transform="translate(42.052 94.916)">
          <path id="Leg" d="M242.08-16.6l24.14,78.727,15.147,66.138,7.988.627L269.534-14.436Z" transform="translate(-224.52 21.99)" fill="#997659" fill-rule="evenodd"/>
          <path id="Pant" d="M272.26,118.538l16.876-.5L271.238-14.3,237.22-16.98Z" transform="translate(-223.569 22.064)" fill="#5f9096" fill-rule="evenodd"/>
          <g id="Accessories_x2F_Shoe_x2F_Flat-Sneaker_3_" transform="translate(52.409 144.186)">
            <path id="shoe_5_" d="M69.88-48.759a13.376,13.376,0,0,0-1.359,4.038,30.836,30.836,0,0,0,.169,4.9q1.931.157,34.662,2.735,1.7-4.356-1.182-4.947t-4.786-1.022L81.849-51.518a.621.621,0,0,0-.837.249c0,.008-.008.008-.008.016l-1.231,2.429a11.029,11.029,0,0,1-4.481.909A9.877,9.877,0,0,1,71.6-49.322h0a1.239,1.239,0,0,0-1.681.475C69.9-48.815,69.9-48.791,69.88-48.759Z" transform="translate(-68.48 51.591)" fill="#e4e4e4" fill-rule="evenodd"/>
          </g>
          <g id="Bottom_x2F_Standing_x2F_Baggy-Pants_1_" transform="translate(0 0)">
            <path id="Leg_1_" d="M227.43-221.9l9.524,81.792L239.9-72.321l7.746,2.059,6.4-144.552Z" transform="translate(-221.654 222.222)" fill="#997659" fill-rule="evenodd"/>
            <g id="Accessories_x2F_Shoe_x2F_Flat-Sneaker_2_" transform="translate(15.07 143.743)">
              <path id="shoe_4_" d="M23.307-247.947a13.566,13.566,0,0,0-1.231,4.078,30.881,30.881,0,0,0,.322,4.891q1.931.1,34.734,1.649,1.569-4.416-1.335-4.907t-4.818-.877l-15.8-7.964a.616.616,0,0,0-.829.273c0,.008-.008.008-.008.016l-1.158,2.47a11.162,11.162,0,0,1-4.448,1.054A9.912,9.912,0,0,1,25-248.55h0a1.239,1.239,0,0,0-1.665.531A.636.636,0,0,0,23.307-247.947Z" transform="translate(-22.062 251.142)" fill="#e4e4e4" fill-rule="evenodd"/>
            </g>
            <path id="Pant_1_" d="M233.635-83.5l19.274,2.124.66-133.54L220.25-222.3Z" transform="translate(-220.25 222.3)" fill="#69a1ac" fill-rule="evenodd"/>
          </g>
        </g>
        <g id="Body_x2F_Turtle-Neck" transform="translate(0 33.397)">
          <path id="Skin_1_" d="M263.384,85.125l18.115,17.56a55.105,55.105,0,0,1,12.959,7.4c.756.909,1.585,2.646-1.979,1.866s-7.344-1.44-8.012-.29,1.3,2.912.064,4.424q-1.243,1.508-8.326-9.58L257.367,95.47Zm-88.589-15.9,14,.048q-16,51.5-16.989,53.935c-1.48,3.644,1.649,9.194,2.992,12.179-4.36,1.939-3.893-5.245-9.4-2.7-5.02,2.325-8.84,6.532-14.648,2.968-.716-.434-1.5-2.083.394-3.37,4.706-3.21,11.487-8.816,12.4-10.666Q165.427,117.856,174.795,69.23Z" transform="translate(-149.974 -23.372)" fill="#b28b67" fill-rule="evenodd"/>
          <path id="Clothes-Back" d="M233.88,19.931l5.534-.941c8.712,30.6,53.477,51.458,56.22,62.9,1.005,4.191-2.027,6.315-.459,7.594l-7.191,5.229c-1.215-1.408-3.813,1.166-9.243-.635S233.88,56.162,233.88,19.931Z" transform="translate(-166.385 -13.546)" fill="#dbd0bd" fill-rule="evenodd"/>
          <path id="Clothes-Front" d="M229.571,22.654c-.644,40.526,22.934,50.863,17.681,67.12-4.336,13.418-45.835,27.849-53.01,14.688-2.9-5.325-4.223-11.768-4.376-18.767q-2.751,8.072-4.352,13.892c-1.842,6.7-8.985,7.763-8.985,10.345l-9.412-2.582c.635-3.507-3.8-5.213-2.606-13.039q7.988-52.632,42.947-76.3l.249-3.5a2.461,2.461,0,0,1,2.63-2.285h0l17.407,1.207a2.472,2.472,0,0,1,2.293,2.63h0Z" transform="translate(-152.777 -12.222)" fill="#f2e1c2" fill-rule="evenodd"/>
        </g>
      </g>
    </g>
    <g id="Group_1015" data-name="Group 1015" transform="translate(0 57.817)">
      <g id="Head_x2F_Front_x2F_Short-Beard" transform="translate(23.279)">
        <g id="Head" transform="translate(0 0.701)">
          <path id="Path_8376" data-name="Path 8376" d="M-2,118.508c-2.035-4.625-2.815-9.774-.949-14.729,5.381-14.27,24.711-5,26.465,3.539s-4.3,27.06-9.79,26.851c-2.188-.08-6.138-2.663-9.757-6.644L.876,147.942l-16.346-4.883Z" transform="translate(15.47 -96.376)" fill="#b28b67" fill-rule="evenodd"/>
        </g>
        <path id="Hair" d="M66.678,140.313q-2.968,13.357,1.062,14.56c4.03,1.207,8.213-.33,9.975.193,1.287.386.515,1.915-.692,2.848-1,.772-4.714.7-5.172,2.228s2.606,1.158,2.333,2.059c-.45,1.5-.812,4.464-3.419,3.684-2.638-.788-9.9-4.006-10.031-8.3q-.121-4.163,3.065-16.169a4.266,4.266,0,0,0-5.438,5.977c-1.343,1.054-2.823,2.132-4.464,3.21-3.74-4.1-2.871-13.793,1.571-19.757,2.872-3.49,6.208-4.319,9.787-4.262a12.378,12.378,0,0,1,7.956,1.754c4.473,1.762,8.149,4.384,9.058,5.566-1.3,4.344-2.526,5.381-9.677,3.121A13.807,13.807,0,0,0,66.678,140.313Z" transform="translate(-40.961 -126.504)" fill="#1d1c2b" fill-rule="evenodd"/>
      </g>
      <path id="Skin" d="M223.086,280.762c5.108-6.926,17.866-2.341,17.858,3.395-.024,15.05-13.755,86.49-14.471,90.995s-8.4,5.985-8.848.354c-.708-8.969-2.035-40.051-.708-54.515.386-4.223.8-8.31,1.207-12.13Q207.3,328.31,185.2,363.833l-8.189-3.74q9.641-31.77,15.815-44.862c7.047-14.946,13.651-27.736,16.434-32.249C212.935,277.021,218.887,277.81,223.086,280.762Z" transform="translate(-108.298 -155.994)" fill="#b28b67" fill-rule="evenodd"/>
      <path id="Leg-Back" d="M177.74,348.4l28.106-66.573c6.733-10.827,25.6,2.2,23.312,8.487-5.213,14.262-31.718,60.427-33.27,64.674Z" transform="translate(-108.441 -156.072)" fill="#1f28cf" fill-rule="evenodd"/>
      <path id="Leg-Front" d="M228.154,287.107c0,18.871-8.269,63.226-8.277,67.377l-20.038-.676q5.249-57.845,4.432-58.239c-1.231-.587-50.581,6.829-65.382,7.392-21.341.8-30.173-12.283-30.889-37.131h41.338q53.031,6.335,69.7,8.808C226.183,275.7,228.154,281.91,228.154,287.107Z" transform="translate(-94.8 -153.756)" fill="#2b44ff" fill-rule="evenodd"/>
      <g id="Accessories_x2F_Shoe_x2F_Flat-Sneaker" transform="translate(105.634 211.903)">
        <path id="shoe" d="M-18.9,283.25a15.2,15.2,0,0,0-1.191,4.762,35.936,35.936,0,0,0,.644,5.615h40.1q1.569-5.164-1.8-5.583t-5.6-.74l-18.638-8.31a.71.71,0,0,0-.941.362.028.028,0,0,1-.008.016l-1.2,2.9a12.707,12.707,0,0,1-5.068,1.456,11.52,11.52,0,0,1-4.376-1.279h0a1.412,1.412,0,0,0-1.882.7A.492.492,0,0,0-18.9,283.25Z" transform="translate(20.09 -278.932)" fill="#e4e4e4" fill-rule="evenodd"/>
      </g>
      <g id="Accessories_x2F_Shoe_x2F_Flat-Sneaker_1_" transform="translate(63.363 201.121)">
        <path id="shoe_1_" d="M-69.221,266.109a15.218,15.218,0,0,0-2.47,4.247,35.891,35.891,0,0,0-.949,5.567q2.148.615,38.515,11.165,2.944-4.525-.177-5.864t-5.164-2.276l-15.589-13.168a.714.714,0,0,0-1.006.08l-.016.016-1.963,2.461a12.74,12.74,0,0,1-5.269-.016,11.593,11.593,0,0,1-3.845-2.445h0a1.416,1.416,0,0,0-2,.145A.844.844,0,0,1-69.221,266.109Z" transform="translate(72.64 -265.528)" fill="#e4e4e4" fill-rule="evenodd"/>
      </g>
      <g id="Body_x2F_Hoodie" transform="translate(0 34.748)">
        <path id="Path_8377" data-name="Path 8377" d="M191.124,147.99l22.33,12.983a60.927,60.927,0,0,1,14.729,7.7c.885.981,1.874,2.888-2.116,2.18s-8.221-1.279-8.913.04,1.577,3.2.273,4.939q-1.3,1.738-9.677-10.345L186.33,153.991Z" transform="translate(-92.424 -99.494)" fill="#9b7b61" fill-rule="evenodd"/>
        <path id="Coat-Back" d="M106.63,94.7l5.454-3.025c28.034,11.085,49.358,43.736,82.363,53.445l-3.6,10.1C143.078,165.541,116.5,125.916,106.63,94.7Z" transform="translate(-76.835 -88.48)" fill="#e87613" fill-rule="evenodd"/>
        <path id="Shirt" d="M86.01,171.864H140.4c2.486,0,2.019-3.588,1.657-5.4-4.151-20.907-20.335-43.438-20.335-73.185L106.032,90.82C93.057,111.686,88.568,137.379,86.01,171.864Z" transform="translate(-72.802 -88.312)" fill="#dde3e9" fill-rule="evenodd"/>
        <path id="Coat-Front_3_" d="M83.233,110.722a7.9,7.9,0,0,1-1.665-.684,9.2,9.2,0,0,1-3.749-3.9c-5.735-10.345-3.66-16.048,2.461-17.922S91.872,90.2,101.638,90.2a10.124,10.124,0,0,1,1.456.1l4.915.282q21.14,71.649,11.664,95.6H76.862c-3.129-6.789-10.385-24.969-5.784-47.436A74.829,74.829,0,0,1,83.233,110.722Z" transform="translate(-69.591 -87.702)" fill="#ff9b21" fill-rule="evenodd"/>
        <path id="Shade" d="M96.75,133.73q19.644,18.1,31.171,23.794L116.3,168.36Q108.43,153.41,96.75,133.73Z" transform="translate(-74.903 -96.705)" fill="rgba(0,0,0,0.1)" fill-rule="evenodd"/>
      </g>
    </g>
    <path id="Path_8378" data-name="Path 8378" d="M536.529,161.82c2.968-3.491,4.987-7.763,4.649-12.557-.965-13.8-20.183-10.771-23.923-3.8s-3.29,24.639,1.536,25.886c1.923.5,6.033-.716,10.208-3.234l-2.622,18.55h15.477Z" transform="translate(-174.361 -71.244)" fill="#b28b67" fill-rule="evenodd"/>
    <path id="Leg-Back_1_" d="M470.365,290.087,511.382,269.2V264.66h-4.875q-59.522,15.167-60.829,19.443c-.008.032-.016.064-.024.088s-.04.056-.056.08c-7.867,10.811-12.573,63.612-14.117,67.57l15.067,2.244c5.768-21.373,24.2-36.263,23.714-61.867A8.777,8.777,0,0,0,470.365,290.087Z" transform="translate(-158.071 -95.71)" fill="#1f28cf" fill-rule="evenodd"/>
    <path id="Skin_4_" d="M443.641,378.932c8.261-18.292,14.238-34.219,16.643-42.625,4.111-14.391,7.232-27.052,8.02-31.782,1.882-11.278-14.487-11.929-16.651-6.331-3.274,8.478-8.993,36.351-15.863,78.438Z" transform="translate(-158.914 -101.596)" fill="#b28b67" fill-rule="evenodd"/>
    <path id="shoe_3_" d="M441.4,394.229a13.8,13.8,0,0,1,1.086,4.328,32.4,32.4,0,0,1-.579,5.092H405.52c-.949-3.129-.4-4.81,1.641-5.06s3.732-.475,5.076-.676l16.909-7.537a.645.645,0,0,1,.853.33c0,.008.008.008.008.016l1.086,2.638a11.64,11.64,0,0,0,4.593,1.319,10.387,10.387,0,0,0,3.966-1.158h0a1.289,1.289,0,0,1,1.713.635A.506.506,0,0,0,441.4,394.229Z" transform="translate(-152.905 -120.288)" fill="#e4e4e4" fill-rule="evenodd"/>
    <path id="Leg-Back_2_" d="M473.745,295.567l41.017-20.882V270.14h-4.875q-59.522,15.167-60.829,19.443c-.008.032-.016.064-.024.089s-.04.056-.056.08c-7.867,10.811-12.573,63.612-14.117,67.57l15.067,2.244c5.768-21.373,24.2-36.263,23.714-61.867A8.425,8.425,0,0,0,473.745,295.567Z" transform="translate(-158.732 -96.782)" fill="#2b44ff" fill-rule="evenodd"/>
    <path id="Leg-Front_1_" d="M511.634,302.493c3.757-.748,7.207-1.424,10.168-1.939,19.1-3.354,24.671-13.578,21.381-35.885H507.99c-5.752,1.649-35.627,14.182-51.128,20.842-10.256,4.408-7.022,20.311-1.215,24.446a.575.575,0,0,0,.322.507" transform="translate(-161.734 -95.712)" fill="#2b44ff" fill-rule="evenodd"/>
    <path id="Skin_2_" d="M472.046,237.909,448.67,227.645a55.2,55.2,0,0,0-11.857-9.3c-1.142-.362-3.089-.475-1.014,2.566s4.127,6.323,3.3,7.384-3.234-.113-4.183,1.617q-.953,1.725,12.163,4.143l17.5,13.418Zm94.494,2.823-13.216,2.622q19.933,37.164,21.389,39.392c2.172,3.346.145,9.476-.6,12.7,4.69,1.094,2.84-5.969,8.784-4.5,5.422,1.343,10.015,4.8,15.066.145.619-.571,1.078-2.365-1.046-3.282-5.277-2.285-13.08-6.572-14.343-8.237Q579.989,276.175,566.539,240.732Z" transform="translate(-158.73 -86.616)" fill="#b28b67" fill-rule="evenodd"/>
    <path id="Coat-Back_1_" d="M521.39,184.507l-5.575-.957c-12.147,11.785-17.11,40.1-25.2,43.848-7.658,3.539-18.509.113-31.4-4.513l-3.95,8.824c11.72,12.677,36.689,23.392,46.808,17.279C518.237,239.207,521.969,204.288,521.39,184.507Z" transform="translate(-162.722 -79.846)" fill="#db2721" fill-rule="evenodd"/>
    <path id="Shirt_1_" d="M555.261,254H505.91c-2.252,0-1.834-3.258-1.5-4.9,3.765-18.968,18.453-39.408,18.453-66.4L537.1,180.46C548.866,199.4,552.936,222.724,555.261,254Z" transform="translate(-172.283 -79.241)" fill="#dde3e9" fill-rule="evenodd"/>
    <path id="Coat-Front_1_" d="M563.83,234.8Q578.925,262.021,589.2,274l10.345-2.027q-9.991-61.984-57.893-91.5h-5.631q-19.173,65.35-10.57,87.077h44.427A162.4,162.4,0,0,0,563.83,234.8Z" transform="translate(-175.93 -79.243)" fill="#ff4133" fill-rule="evenodd"/>
    <rect id="Rectangle_387" data-name="Rectangle 387" width="320.781" height="8.519" transform="translate(37.437 172.706)" fill="#c5cfd6"/>
    <path id="Path_8379" data-name="Path 8379" d="M546.361,314.2h-45.2a4.231,4.231,0,0,1-4.231-4.231h0a4.231,4.231,0,0,1,4.231-4.231h45.2a4.231,4.231,0,0,1,4.231,4.231h0A4.226,4.226,0,0,1,546.361,314.2Z" transform="translate(-170.872 -103.745)" fill="#565554" fill-rule="evenodd"/>
    <path id="Path_8380" data-name="Path 8380" d="M549.852,414.338H496.19a6.137,6.137,0,0,1,6.138-6.138h41.395a6.135,6.135,0,0,1,6.13,6.138Z" transform="translate(-170.728 -123.786)" fill="#565554" fill-rule="evenodd"/>
    <rect id="Rectangle_388" data-name="Rectangle 388" width="5.599" height="84.31" transform="translate(349.498 206.226)" fill="#565554"/>
    <path id="Path_8381" data-name="Path 8381" d="M158.421,312.822h-45.2a4.231,4.231,0,0,1-4.231-4.231h0a4.231,4.231,0,0,1,4.231-4.231h45.2a4.231,4.231,0,0,1,4.231,4.231h0A4.226,4.226,0,0,1,158.421,312.822Z" transform="translate(-94.994 -103.475)" fill="#565554" fill-rule="evenodd"/>
    <path id="Path_8382" data-name="Path 8382" d="M161.912,412.92H108.25a6.289,6.289,0,0,1,6.29-6.29h41.081a6.289,6.289,0,0,1,6.29,6.29Z" transform="translate(-94.849 -123.479)" fill="#565554" fill-rule="evenodd"/>
    <g id="Group_1016" data-name="Group 1016" transform="translate(18.718 114.5)">
      <path id="Path_8383" data-name="Path 8383" d="M198.821,242.33l28.677,6.8a61.226,61.226,0,0,1,15.018,7.111c.917.949,1.987,2.815-2.027,2.26s-8.269-.957-8.9.386,1.705,3.137.467,4.923q-1.243,1.786-10.071-9.959l-27.68-4.336Z" transform="translate(-130.398 -205.842)" fill="#b28b67" fill-rule="evenodd"/>
      <path id="Coat-Back_2_" d="M114.86,200.855l4.883-3.885c29.482,6.282,55.922,34.951,90.077,39.062l-1.882,10.554C162.537,264.677,129.766,230,114.86,200.855Z" transform="translate(-114.86 -196.97)" fill="#ff9b21" fill-rule="evenodd"/>
    </g>
    <path id="Path_8384" data-name="Path 8384" d="M512.645,392.872h-4.384L505.18,276.2a4.5,4.5,0,0,1,4.481-4.481h0a4.5,4.5,0,0,1,4.481,4.481Z" transform="translate(-172.486 -97.091)" fill="#c5cfd6" fill-rule="evenodd"/>
    <path id="Path_8385" data-name="Path 8385" d="M162.665,392.872h-4.384L155.2,276.2a4.5,4.5,0,0,1,4.481-4.481h0a4.5,4.5,0,0,1,4.481,4.481Z" transform="translate(-104.032 -97.091)" fill="#c5cfd6" fill-rule="evenodd"/>
    <rect id="Rectangle_389" data-name="Rectangle 389" width="51.386" height="3.234" transform="translate(120.91 169.521)" fill="#3a3a3a"/>
    <rect id="Rectangle_390" data-name="Rectangle 390" width="51.386" height="2.856" transform="matrix(-0.5, 0.866, -0.866, -0.5, 195.969, 127.8)" fill="#3a3a3a"/>
    <g id="Group_1017" data-name="Group 1017" transform="translate(210.006 158.123)">
      <path id="Path_8386" data-name="Path 8386" d="M362.265,251.2h-9.428a.179.179,0,0,0-.177.177v10.345a4.123,4.123,0,0,0,4.111,4.111h2.051a3.63,3.63,0,0,0,3.62-3.62V251.385A.18.18,0,0,0,362.265,251.2Z" transform="translate(-352.66 -251.2)" fill="#5895ba" fill-rule="evenodd"/>
      <path id="Path_8387" data-name="Path 8387" d="M363.341,262.8h0a3.91,3.91,0,0,0,3.9-3.9v-.314a3.91,3.91,0,0,0-3.9-3.9h0a3.91,3.91,0,0,0-3.9,3.9v.314A3.91,3.91,0,0,0,363.341,262.8Z" transform="translate(-353.986 -251.881)" fill="none" stroke="#5895ba" stroke-miterlimit="10" stroke-width="2" fill-rule="evenodd"/>
    </g>
    <rect id="Rectangle_391" data-name="Rectangle 391" width="51.386" height="3.234" transform="translate(319.825 172.708) rotate(180)" fill="#3a3a3a"/>
    <rect id="Rectangle_392" data-name="Rectangle 392" width="51.386" height="2.856" transform="translate(261.646 120.837) rotate(77.409)" fill="#3a3a3a"/>
    <rect id="Rectangle_393" data-name="Rectangle 393" width="5.599" height="84.31" transform="translate(37.437 205.116)" fill="#565554"/>
    <path id="hair-2" data-name="hair" d="M523.064,135.189a17.034,17.034,0,0,1,5.494-.6,9.5,9.5,0,0,1-.668-4.778,14.466,14.466,0,0,1,1.552-4.32,5.94,5.94,0,0,1,1.142-1.786,3.9,3.9,0,0,1,1.85-1,4.887,4.887,0,0,1,2.132,0c.314.064.587.209.893.29s.467-.113.692-.314a3.86,3.86,0,0,1,2.035-.788,5.177,5.177,0,0,1,2.317.282,4.586,4.586,0,0,1,1.931,1.239,3.119,3.119,0,0,1,.579.885c.056.137.064.217.2.265.121.048.266.048.394.088a4.97,4.97,0,0,1,2.872,2.606,8.162,8.162,0,0,1,.45,3.395,14.715,14.715,0,0,1-2.518,6.459,8.064,8.064,0,0,1-4.151,2.341,11.77,11.77,0,0,1,2.164,4.046,19.614,19.614,0,0,1,.989,4.907,16.031,16.031,0,0,1-.249,4.843,5.24,5.24,0,0,1-2.349,3.419,11.113,11.113,0,0,1-1.8.845,11.888,11.888,0,0,1-1.858.6,3.725,3.725,0,0,1-3.531-.756,6.277,6.277,0,0,1-.949-1.207c-.089-.153-.145-.249-.032-.4a3.371,3.371,0,0,1,.5-.459,4.7,4.7,0,0,0,1.665-3.121c.145-1.279-.193-2.936-1.44-3.491-1.536-.692-3.234.1-4.593.837a7.494,7.494,0,0,0-3.644-4.834c-2.067-1.038-4.44-1.158-6.564-2.051a3.943,3.943,0,0,1-1.528-.973,1.992,1.992,0,0,1-.434-.716,1.14,1.14,0,0,1,.306-.9C517.82,138.608,521.271,135.736,523.064,135.189Z" transform="translate(-174.717 -67.779)" fill="#39250e" fill-rule="evenodd"/>
    <rect id="Rectangle_400" data-name="Rectangle 400" width="19" height="18" transform="translate(217 36.44)" fill="#608398"/>
    <rect id="Rectangle_401" data-name="Rectangle 401" width="19" height="18" transform="translate(241 36.44)" fill="#608398"/>
    <rect id="Rectangle_402" data-name="Rectangle 402" width="19" height="18" transform="translate(231 59.44)" fill="#608398"/>
    <rect id="Rectangle_403" data-name="Rectangle 403" width="19" height="18" transform="translate(256 59.44)" fill="#608398"/>
    <rect id="Rectangle_404" data-name="Rectangle 404" width="19" height="18" transform="translate(278 24.44)" fill="#608398"/>
    <path id="Path_8459" data-name="Path 8459" d="M275.276,97.992V138.5h15.606V155.45" transform="translate(-91.591 -58.025)" fill="none" stroke="#608398" stroke-linecap="round" stroke-width="2"/>
    <g id="Ellipse_135" data-name="Ellipse 135" transform="translate(176 26.44)" fill="#366480" stroke="#608398" stroke-width="2">
      <circle cx="7.5" cy="7.5" r="7.5" stroke="none"/>
      <circle cx="7.5" cy="7.5" r="6.5" fill="none"/>
    </g>
    <path id="Path_8460" data-name="Path 8460" d="M263.817,118.7l11.6-8.113,11.321,8.113-11.321,7.718Z" transform="translate(-91.591 -58.025)" fill="#366480" stroke="#608398" stroke-width="2"/>
    <g id="Rectangle_405" data-name="Rectangle 405" transform="translate(195 96.44)" fill="none" stroke="#608398" stroke-width="2">
      <rect width="15" height="15" stroke="none"/>
      <rect x="1" y="1" width="13" height="13" fill="none"/>
    </g>
    <circle id="Ellipse_136" data-name="Ellipse 136" cx="3.5" cy="3.5" r="3.5" transform="translate(94 6.44)" fill="#1e3f53"/>
    <circle id="Ellipse_137" data-name="Ellipse 137" cx="3.5" cy="3.5" r="3.5" transform="translate(319 6.44)" fill="#1e3f53"/>
  </g>
</svg>
