<svg xmlns="http://www.w3.org/2000/svg" xmlns:xlink="http://www.w3.org/1999/xlink" width="396" height="303" viewBox="0 0 396 303">
  <defs>
    <clipPath id="clip-path">
      <rect id="Rectangle_640" data-name="Rectangle 640" width="396" height="303"/>
    </clipPath>
  </defs>
  <g id="Custom_Size_1" data-name="Custom Size – 1" clip-path="url(#clip-path)">
    <g id="dos_and_donts" data-name="dos and donts" transform="translate(-411 -6105)">
      <g id="Rectangle_693" data-name="Rectangle 693" transform="translate(412 6106)" fill="none" stroke="#fff" stroke-width="1">
        <rect width="174.023" height="254" rx="10" stroke="none"/>
        <rect x="0.5" y="0.5" width="173.023" height="253" rx="9.5" fill="none"/>
      </g>
      <g id="Rectangle_694" data-name="Rectangle 694" transform="translate(627 6106)" fill="none" stroke="#fff" stroke-width="1">
        <rect width="179" height="261" rx="10" stroke="none"/>
        <rect x="0.5" y="0.5" width="178" height="260" rx="9.5" fill="none"/>
      </g>
      <g id="Icon_ionic-ios-checkmark-circle-outline" data-name="Icon ionic-ios-checkmark-circle-outline" transform="translate(698.799 6374.5)">
        <path id="Path_9345" data-name="Path 9345" d="M25.5,13.563,24.263,12.29a.266.266,0,0,0-.2-.084h0a.255.255,0,0,0-.2.084l-8.578,8.641L12.164,17.81a.272.272,0,0,0-.394,0l-1.252,1.252a.28.28,0,0,0,0,.4L14.456,23.4a1.245,1.245,0,0,0,.823.4,1.3,1.3,0,0,0,.816-.387h0l9.4-9.45a.3.3,0,0,0,0-.4Z" fill="#0ccb4e"/>
        <path id="Path_9346" data-name="Path 9346" d="M18,5.344A12.651,12.651,0,1,1,9.049,9.049,12.651,12.651,0,0,1,18,5.344m0-1.969A14.625,14.625,0,1,0,32.625,18,14.625,14.625,0,0,0,18,3.375Z" fill="#0ccb4e"/>
      </g>
      <g id="Icon_ionic-ios-close-circle-outline" data-name="Icon ionic-ios-close-circle-outline" transform="translate(480.898 6374.5)">
        <path id="Path_9347" data-name="Path 9347" d="M23.3,21.7,19.589,18l3.7-3.7a1.124,1.124,0,0,0-1.589-1.589L18,16.411l-3.7-3.7a1.124,1.124,0,0,0-1.589,1.589L16.411,18l-3.7,3.7a1.086,1.086,0,0,0,0,1.589,1.116,1.116,0,0,0,1.589,0L18,19.589l3.7,3.7a1.129,1.129,0,0,0,1.589,0,1.116,1.116,0,0,0,0-1.589Z" fill="#e56767"/>
        <path id="Path_9348" data-name="Path 9348" d="M18,5.344A12.651,12.651,0,1,1,9.049,9.049,12.651,12.651,0,0,1,18,5.344m0-1.969A14.625,14.625,0,1,0,32.625,18,14.625,14.625,0,0,0,18,3.375Z" fill="#e56767"/>
      </g>
      <path id="Path_8450" data-name="Path 8450" d="M6483.329,10546.883h57.984" transform="translate(-5836.214 -4414.475)" fill="none" stroke="#457591" stroke-linecap="round" stroke-width="2"/>
      <g id="Rectangle_700" data-name="Rectangle 700" transform="translate(646 6139)" fill="none" stroke="#457591" stroke-width="2">
        <rect width="141" height="25" rx="3" stroke="none"/>
        <rect x="1" y="1" width="139" height="23" rx="2" fill="none"/>
      </g>
      <g id="Rectangle_704" data-name="Rectangle 704" transform="translate(646 6301)" fill="#457591" stroke="#457591" stroke-width="2">
        <rect width="67" height="28" rx="3" stroke="none"/>
        <rect x="1" y="1" width="65" height="26" rx="2" fill="none"/>
      </g>
      <path id="Path_9368" data-name="Path 9368" d="M6483.329,10546.883h57.984" transform="translate(-5836.214 -4358.475)" fill="none" stroke="#457591" stroke-linecap="round" stroke-width="2"/>
      <g id="Rectangle_705" data-name="Rectangle 705" transform="translate(646 6196)" fill="none" stroke="#457591" stroke-width="2">
        <rect width="141" height="25" rx="3" stroke="none"/>
        <rect x="1" y="1" width="139" height="23" rx="2" fill="none"/>
      </g>
      <path id="Path_9369" data-name="Path 9369" d="M6483.329,10546.883h57.984" transform="translate(-5836.214 -4297.475)" fill="none" stroke="#457591" stroke-linecap="round" stroke-width="2"/>
      <g id="Rectangle_706" data-name="Rectangle 706" transform="translate(646 6256)" fill="none" stroke="#457591" stroke-width="2">
        <rect width="141" height="25" rx="3" stroke="none"/>
        <rect x="1" y="1" width="139" height="23" rx="2" fill="none"/>
      </g>
      <g id="Rectangle_707" data-name="Rectangle 707" transform="translate(722 6301)" fill="none" stroke="#457591" stroke-width="2">
        <rect width="65" height="28" rx="3" stroke="none"/>
        <rect x="1" y="1" width="63" height="26" rx="2" fill="none"/>
      </g>
      <path id="Path_9370" data-name="Path 9370" d="M6483.329,10546.883h35.823" transform="translate(-5822.214 -4231.475)" fill="none" stroke="#1e3f53" stroke-linecap="round" stroke-width="2"/>
      <path id="Path_9371" data-name="Path 9371" d="M6483.329,10546.883h35.823" transform="translate(-5746.214 -4231.475)" fill="none" stroke="#457591" stroke-linecap="round" stroke-width="2"/>
      <path id="Path_9372" data-name="Path 9372" d="M6483.329,10546.883h49.46" transform="translate(-6050.214 -4410.475)" fill="none" stroke="#457591" stroke-linecap="round" stroke-width="2"/>
      <g id="Rectangle_708" data-name="Rectangle 708" transform="translate(491 6124)" fill="none" stroke="#457591" stroke-width="2">
        <rect width="75" height="25" rx="3" stroke="none"/>
        <rect x="1" y="1" width="73" height="23" rx="2" fill="none"/>
      </g>
      <path id="Path_9373" data-name="Path 9373" d="M6483.329,10546.883h41.4" transform="translate(-6050.214 -4375.475)" fill="none" stroke="#457591" stroke-linecap="round" stroke-width="2"/>
      <g id="Rectangle_709" data-name="Rectangle 709" transform="translate(484 6161)" fill="none" stroke="#457591" stroke-width="2">
        <rect width="82" height="25" rx="3" stroke="none"/>
        <rect x="1" y="1" width="80" height="23" rx="2" fill="none"/>
      </g>
      <path id="Path_9374" data-name="Path 9374" d="M6483.329,10546.883h41.4" transform="translate(-6049.214 -4337.475)" fill="none" stroke="#457591" stroke-linecap="round" stroke-width="2"/>
      <g id="Rectangle_710" data-name="Rectangle 710" transform="translate(483 6199)" fill="none" stroke="#457591" stroke-width="2">
        <rect width="50" height="25" rx="3" stroke="none"/>
        <rect x="1" y="1" width="48" height="23" rx="2" fill="none"/>
      </g>
      <path id="Path_9375" data-name="Path 9375" d="M6483.329,10546.883h26.885" transform="translate(-5945.214 -4337.475)" fill="none" stroke="#457591" stroke-linecap="round" stroke-width="2"/>
      <path id="Path_9376" data-name="Path 9376" d="M6483.329,10546.883h41.4" transform="translate(-6049.214 -4297.475)" fill="none" stroke="#457591" stroke-linecap="round" stroke-width="2"/>
      <g id="Rectangle_711" data-name="Rectangle 711" transform="translate(483 6237)" fill="none" stroke="#457591" stroke-width="2">
        <rect width="82" height="25" rx="3" stroke="none"/>
        <rect x="1" y="1" width="80" height="23" rx="2" fill="none"/>
      </g>
      <g id="Rectangle_712" data-name="Rectangle 712" transform="translate(433 6285)" fill="none" stroke="#457591" stroke-width="2">
        <rect width="133" height="29" rx="3" stroke="none"/>
        <rect x="1" y="1" width="131" height="27" rx="2" fill="none"/>
      </g>
      <path id="Path_9377" data-name="Path 9377" d="M6483.329,10546.883h62.783" transform="translate(-6015.214 -4247.475)" fill="none" stroke="#457591" stroke-linecap="round" stroke-width="2"/>
      <path id="Path_9378" data-name="Path 9378" d="M6483.329,10546.883h62.783" transform="translate(-6015.214 -4214.475)" fill="none" stroke="#457591" stroke-linecap="round" stroke-width="2"/>
    </g>
  </g>
</svg>
