<svg xmlns="http://www.w3.org/2000/svg" xmlns:xlink="http://www.w3.org/1999/xlink" width="1920" height="1158.637" viewBox="0 0 1920 1158.637">
  <defs>
    <linearGradient id="linear-gradient" x1="0.5" y1="0.8" x2="0.5" gradientUnits="objectBoundingBox">
      <stop offset="0" stop-color="#1c3443"/>
      <stop offset="1" stop-color="#2e5871"/>
    </linearGradient>
    <linearGradient id="linear-gradient-2" x1="0.5" x2="0.5" y2="1" gradientUnits="objectBoundingBox">
      <stop offset="0" stop-color="#1c3443"/>
      <stop offset="1" stop-color="#264c62"/>
    </linearGradient>
  </defs>
  <g id="section-full-bg" transform="translate(-11 -632.19)">
    <path id="Path_9395" data-name="Path 9395" d="M.477,608.323,1920,606.79V-3.005H0Z" transform="translate(11 1182.504)" fill="url(#linear-gradient)"/>
    <path id="Path_9390" data-name="Path 9390" d="M.477-3.005,1920-1.634V544.3H0Z" transform="translate(11 635.195)" fill="url(#linear-gradient-2)"/>
    <path id="Path_9392" data-name="Path 9392" d="M-5472.96,1031.173h-86.29l-208.52-12.563-71.585-26.75h-36.97l-92.7,39.313h118.316l69.084-47.1,40.717-4.273,34.146,22.715h129.733l48.714-18.442Z" transform="translate(6427 149.504)" fill="#1e4358"/>
    <path id="Path_9393" data-name="Path 9393" d="M-5749.027,1010.059l-83.683-19.678-77.325,30.159h46.112l74.05-40.74,58.58-7.8,11.963,7.8h36.541l34.146,22.715,119.274,18.025h81.388l-76-22.739-43.085-25.8Z" transform="translate(6877 159.504)" fill="#234357"/>
    <path id="Path_9391" data-name="Path 9391" d="M-5965.391,1031.173H-5121.5l-142.208-33.708-76.642,11.844-65.413-11.844-36.34,11.844-27.264-6.794L-5540.626,972l-16.056,7.8-40.4-25.285-15.941,6.055L-5621.4,972l-71.409,25.464-35.842-13.392-93.858,25.236-48.751-17.808Z" transform="translate(6487 149.504)" fill="#294f65"/>
  </g>
</svg>
